G04 #@! TF.GenerationSoftware,KiCad,Pcbnew,6.0.6-3a73a75311~116~ubuntu22.04.1*
G04 #@! TF.CreationDate,2022-07-01T11:47:32+01:00*
G04 #@! TF.ProjectId,Pi_Connector,50695f43-6f6e-46e6-9563-746f722e6b69,rev?*
G04 #@! TF.SameCoordinates,Original*
G04 #@! TF.FileFunction,Legend,Top*
G04 #@! TF.FilePolarity,Positive*
%FSLAX46Y46*%
G04 Gerber Fmt 4.6, Leading zero omitted, Abs format (unit mm)*
G04 Created by KiCad (PCBNEW 6.0.6-3a73a75311~116~ubuntu22.04.1) date 2022-07-01 11:47:32*
%MOMM*%
%LPD*%
G01*
G04 APERTURE LIST*
%ADD10C,0.378363*%
%ADD11C,0.150000*%
%ADD12C,0.200000*%
%ADD13C,0.120000*%
G04 APERTURE END LIST*
D10*
G36*
X81131975Y-71328701D02*
G01*
X81862372Y-72960738D01*
X77082302Y-76000000D01*
X79229453Y-72957651D01*
X78499057Y-71325613D01*
X83279127Y-68286351D01*
X81131975Y-71328701D01*
G37*
X81131975Y-71328701D02*
X81862372Y-72960738D01*
X77082302Y-76000000D01*
X79229453Y-72957651D01*
X78499057Y-71325613D01*
X83279127Y-68286351D01*
X81131975Y-71328701D01*
D11*
X74534929Y-62809523D02*
X74582548Y-62666666D01*
X74582548Y-62428571D01*
X74534929Y-62333333D01*
X74487310Y-62285714D01*
X74392072Y-62238095D01*
X74296834Y-62238095D01*
X74201596Y-62285714D01*
X74153977Y-62333333D01*
X74106358Y-62428571D01*
X74058739Y-62619047D01*
X74011120Y-62714285D01*
X73963501Y-62761904D01*
X73868263Y-62809523D01*
X73773025Y-62809523D01*
X73677787Y-62761904D01*
X73630168Y-62714285D01*
X73582548Y-62619047D01*
X73582548Y-62380952D01*
X73630168Y-62238095D01*
X74058739Y-61809523D02*
X74058739Y-61476190D01*
X74582548Y-61333333D02*
X74582548Y-61809523D01*
X73582548Y-61809523D01*
X73582548Y-61333333D01*
X74582548Y-60333333D02*
X74106358Y-60666666D01*
X74582548Y-60904761D02*
X73582548Y-60904761D01*
X73582548Y-60523809D01*
X73630168Y-60428571D01*
X73677787Y-60380952D01*
X73773025Y-60333333D01*
X73915882Y-60333333D01*
X74011120Y-60380952D01*
X74058739Y-60428571D01*
X74106358Y-60523809D01*
X74106358Y-60904761D01*
X74582548Y-59904761D02*
X73582548Y-59904761D01*
X74296834Y-59476190D02*
X74296834Y-59000000D01*
X74582548Y-59571428D02*
X73582548Y-59238095D01*
X74582548Y-58904761D01*
X74582548Y-58095238D02*
X74582548Y-58571428D01*
X73582548Y-58571428D01*
D12*
X82458227Y-71576762D02*
X82934418Y-72910095D01*
X83410608Y-71576762D01*
X85410608Y-71957714D02*
X85315370Y-71862476D01*
X85124894Y-71767238D01*
X84934418Y-71767238D01*
X84743942Y-71862476D01*
X84648704Y-71957714D01*
X84553466Y-72148191D01*
X84553466Y-72338667D01*
X84648704Y-72529143D01*
X84743942Y-72624381D01*
X84934418Y-72719619D01*
X85124894Y-72719619D01*
X85315370Y-72624381D01*
X85410608Y-72529143D01*
X85410608Y-71767238D02*
X85410608Y-72529143D01*
X85505847Y-72624381D01*
X85601085Y-72624381D01*
X85791561Y-72529143D01*
X85886799Y-72338667D01*
X85886799Y-71862476D01*
X85696323Y-71576762D01*
X85410608Y-71386286D01*
X85029656Y-71291048D01*
X84648704Y-71386286D01*
X84362989Y-71576762D01*
X84172513Y-71862476D01*
X84077275Y-72243429D01*
X84172513Y-72624381D01*
X84362989Y-72910095D01*
X84648704Y-73100572D01*
X85029656Y-73195810D01*
X85410608Y-73100572D01*
X85696323Y-72910095D01*
X86743942Y-71576762D02*
X86743942Y-72910095D01*
X86743942Y-71767238D02*
X86839180Y-71672000D01*
X87029656Y-71576762D01*
X87315370Y-71576762D01*
X87505847Y-71672000D01*
X87601085Y-71862476D01*
X87601085Y-72910095D01*
X89410608Y-72814857D02*
X89220132Y-72910095D01*
X88839180Y-72910095D01*
X88648704Y-72814857D01*
X88553466Y-72719619D01*
X88458227Y-72529143D01*
X88458227Y-71957714D01*
X88553466Y-71767238D01*
X88648704Y-71672000D01*
X88839180Y-71576762D01*
X89220132Y-71576762D01*
X89410608Y-71672000D01*
X91029656Y-72814857D02*
X90839180Y-72910095D01*
X90458227Y-72910095D01*
X90267751Y-72814857D01*
X90172513Y-72624381D01*
X90172513Y-71862476D01*
X90267751Y-71672000D01*
X90458227Y-71576762D01*
X90839180Y-71576762D01*
X91029656Y-71672000D01*
X91124894Y-71862476D01*
X91124894Y-72052953D01*
X90172513Y-72243429D01*
X91982037Y-72719619D02*
X92077275Y-72814857D01*
X91982037Y-72910095D01*
X91886799Y-72814857D01*
X91982037Y-72719619D01*
X91982037Y-72910095D01*
X92934418Y-72910095D02*
X92934418Y-71576762D01*
X92934418Y-71767238D02*
X93029656Y-71672000D01*
X93220132Y-71576762D01*
X93505847Y-71576762D01*
X93696323Y-71672000D01*
X93791561Y-71862476D01*
X93791561Y-72910095D01*
X93791561Y-71862476D02*
X93886799Y-71672000D01*
X94077275Y-71576762D01*
X94362989Y-71576762D01*
X94553466Y-71672000D01*
X94648704Y-71862476D01*
X94648704Y-72910095D01*
X96362989Y-72814857D02*
X96172513Y-72910095D01*
X95791561Y-72910095D01*
X95601085Y-72814857D01*
X95505847Y-72624381D01*
X95505847Y-71862476D01*
X95601085Y-71672000D01*
X95791561Y-71576762D01*
X96172513Y-71576762D01*
X96362989Y-71672000D01*
X96458227Y-71862476D01*
X96458227Y-72052953D01*
X95505847Y-72243429D01*
D11*
X106082548Y-64095238D02*
X105082548Y-64095238D01*
X106082548Y-63523809D01*
X105082548Y-63523809D01*
X105558739Y-62714285D02*
X105558739Y-63047619D01*
X106082548Y-63047619D02*
X105082548Y-63047619D01*
X105082548Y-62571428D01*
X105987310Y-61619047D02*
X106034929Y-61666666D01*
X106082548Y-61809523D01*
X106082548Y-61904761D01*
X106034929Y-62047619D01*
X105939691Y-62142857D01*
X105844453Y-62190476D01*
X105653977Y-62238095D01*
X105511120Y-62238095D01*
X105320644Y-62190476D01*
X105225406Y-62142857D01*
X105130168Y-62047619D01*
X105082548Y-61904761D01*
X105082548Y-61809523D01*
X105130168Y-61666666D01*
X105177787Y-61619047D01*
X106034929Y-60476190D02*
X106082548Y-60333333D01*
X106082548Y-60095238D01*
X106034929Y-60000000D01*
X105987310Y-59952380D01*
X105892072Y-59904761D01*
X105796834Y-59904761D01*
X105701596Y-59952380D01*
X105653977Y-60000000D01*
X105606358Y-60095238D01*
X105558739Y-60285714D01*
X105511120Y-60380952D01*
X105463501Y-60428571D01*
X105368263Y-60476190D01*
X105273025Y-60476190D01*
X105177787Y-60428571D01*
X105130168Y-60380952D01*
X105082548Y-60285714D01*
X105082548Y-60047619D01*
X105130168Y-59904761D01*
X105558739Y-59476190D02*
X105558739Y-59142857D01*
X106082548Y-59000000D02*
X106082548Y-59476190D01*
X105082548Y-59476190D01*
X105082548Y-59000000D01*
X106082548Y-58000000D02*
X105606358Y-58333333D01*
X106082548Y-58571428D02*
X105082548Y-58571428D01*
X105082548Y-58190476D01*
X105130168Y-58095238D01*
X105177787Y-58047619D01*
X105273025Y-58000000D01*
X105415882Y-58000000D01*
X105511120Y-58047619D01*
X105558739Y-58095238D01*
X105606358Y-58190476D01*
X105606358Y-58571428D01*
X106082548Y-57571428D02*
X105082548Y-57571428D01*
X105796834Y-57142857D02*
X105796834Y-56666666D01*
X106082548Y-57238095D02*
X105082548Y-56904761D01*
X106082548Y-56571428D01*
X106082548Y-55761904D02*
X106082548Y-56238095D01*
X105082548Y-56238095D01*
X96870506Y-56669575D02*
X96965744Y-56717194D01*
X97108602Y-56717194D01*
X97251459Y-56669575D01*
X97346697Y-56574336D01*
X97394316Y-56479098D01*
X97441935Y-56288622D01*
X97441935Y-56145765D01*
X97394316Y-55955289D01*
X97346697Y-55860051D01*
X97251459Y-55764813D01*
X97108602Y-55717194D01*
X97013363Y-55717194D01*
X96870506Y-55764813D01*
X96822887Y-55812432D01*
X96822887Y-56145765D01*
X97013363Y-56145765D01*
X96394316Y-55717194D02*
X96394316Y-56717194D01*
X95822887Y-55717194D01*
X95822887Y-56717194D01*
X95346697Y-55717194D02*
X95346697Y-56717194D01*
X95108602Y-56717194D01*
X94965744Y-56669575D01*
X94870506Y-56574336D01*
X94822887Y-56479098D01*
X94775268Y-56288622D01*
X94775268Y-56145765D01*
X94822887Y-55955289D01*
X94870506Y-55860051D01*
X94965744Y-55764813D01*
X95108602Y-55717194D01*
X95346697Y-55717194D01*
X96667405Y-60913675D02*
X96667405Y-61675579D01*
X96715024Y-60961294D02*
X96715024Y-61627960D01*
X96762643Y-60961294D02*
X96762643Y-61627960D01*
X96810262Y-61008913D02*
X96810262Y-61580341D01*
X96857881Y-61008913D02*
X96857881Y-61580341D01*
X96905500Y-61056532D02*
X96905500Y-61532722D01*
X96953119Y-61056532D02*
X96953119Y-61532722D01*
X97000738Y-61104151D02*
X97000738Y-61485103D01*
X97048357Y-61151770D02*
X97048357Y-61437484D01*
X97095976Y-61151770D02*
X97095976Y-61437484D01*
X97143596Y-61199389D02*
X97143596Y-61389865D01*
X97191215Y-61199389D02*
X97191215Y-61389865D01*
X97238834Y-61294627D02*
X97286453Y-61294627D01*
X97238834Y-61247008D02*
X97238834Y-61342246D01*
X96619786Y-60913675D02*
X97334072Y-61294627D01*
X96619786Y-61675579D01*
X97381691Y-61294627D02*
X96619786Y-61723198D01*
X96619786Y-60866056D01*
X97381691Y-61294627D01*
X96286453Y-61913675D02*
X95715024Y-61913675D01*
X96000738Y-60913675D02*
X96000738Y-61913675D01*
X95476929Y-61913675D02*
X94810262Y-60913675D01*
X94810262Y-61913675D02*
X95476929Y-60913675D01*
X52058739Y-61190476D02*
X52058739Y-60857142D01*
X52582548Y-60714285D02*
X52582548Y-61190476D01*
X51582548Y-61190476D01*
X51582548Y-60714285D01*
X52534929Y-60333333D02*
X52582548Y-60190476D01*
X52582548Y-59952380D01*
X52534929Y-59857142D01*
X52487310Y-59809523D01*
X52392072Y-59761904D01*
X52296834Y-59761904D01*
X52201596Y-59809523D01*
X52153977Y-59857142D01*
X52106358Y-59952380D01*
X52058739Y-60142857D01*
X52011120Y-60238095D01*
X51963501Y-60285714D01*
X51868263Y-60333333D01*
X51773025Y-60333333D01*
X51677787Y-60285714D01*
X51630168Y-60238095D01*
X51582548Y-60142857D01*
X51582548Y-59904761D01*
X51630168Y-59761904D01*
X52582548Y-59333333D02*
X51582548Y-59333333D01*
X51582548Y-58952380D01*
X51630168Y-58857142D01*
X51677787Y-58809523D01*
X51773025Y-58761904D01*
X51915882Y-58761904D01*
X52011120Y-58809523D01*
X52058739Y-58857142D01*
X52106358Y-58952380D01*
X52106358Y-59333333D01*
X78844453Y-54047619D02*
X78844453Y-55047619D01*
X78273025Y-54047619D01*
X78273025Y-55047619D01*
X77463501Y-54571428D02*
X77796834Y-54571428D01*
X77796834Y-54047619D02*
X77796834Y-55047619D01*
X77320644Y-55047619D01*
X76368263Y-54142857D02*
X76415882Y-54095238D01*
X76558739Y-54047619D01*
X76653977Y-54047619D01*
X76796834Y-54095238D01*
X76892072Y-54190476D01*
X76939691Y-54285714D01*
X76987310Y-54476190D01*
X76987310Y-54619047D01*
X76939691Y-54809523D01*
X76892072Y-54904761D01*
X76796834Y-55000000D01*
X76653977Y-55047619D01*
X76558739Y-55047619D01*
X76415882Y-55000000D01*
X76368263Y-54952380D01*
X82341442Y-74652714D02*
X82341442Y-73652714D01*
X82722394Y-73652714D01*
X82817632Y-73700334D01*
X82865251Y-73747953D01*
X82912870Y-73843191D01*
X82912870Y-73986048D01*
X82865251Y-74081286D01*
X82817632Y-74128905D01*
X82722394Y-74176524D01*
X82341442Y-74176524D01*
X83341442Y-74652714D02*
X83341442Y-73986048D01*
X83341442Y-73652714D02*
X83293823Y-73700334D01*
X83341442Y-73747953D01*
X83389061Y-73700334D01*
X83341442Y-73652714D01*
X83341442Y-73747953D01*
X84579537Y-74652714D02*
X84579537Y-73652714D01*
X85150966Y-74652714D01*
X85150966Y-73652714D01*
X85960489Y-74128905D02*
X85627156Y-74128905D01*
X85627156Y-74652714D02*
X85627156Y-73652714D01*
X86103347Y-73652714D01*
X87055727Y-74557476D02*
X87008108Y-74605095D01*
X86865251Y-74652714D01*
X86770013Y-74652714D01*
X86627156Y-74605095D01*
X86531918Y-74509857D01*
X86484299Y-74414619D01*
X86436680Y-74224143D01*
X86436680Y-74081286D01*
X86484299Y-73890810D01*
X86531918Y-73795572D01*
X86627156Y-73700334D01*
X86770013Y-73652714D01*
X86865251Y-73652714D01*
X87008108Y-73700334D01*
X87055727Y-73747953D01*
X88246204Y-74652714D02*
X88246204Y-73652714D01*
X88484299Y-73652714D01*
X88627156Y-73700334D01*
X88722394Y-73795572D01*
X88770013Y-73890810D01*
X88817632Y-74081286D01*
X88817632Y-74224143D01*
X88770013Y-74414619D01*
X88722394Y-74509857D01*
X88627156Y-74605095D01*
X88484299Y-74652714D01*
X88246204Y-74652714D01*
X89389061Y-74652714D02*
X89293823Y-74605095D01*
X89246204Y-74557476D01*
X89198585Y-74462238D01*
X89198585Y-74176524D01*
X89246204Y-74081286D01*
X89293823Y-74033667D01*
X89389061Y-73986048D01*
X89531918Y-73986048D01*
X89627156Y-74033667D01*
X89674775Y-74081286D01*
X89722394Y-74176524D01*
X89722394Y-74462238D01*
X89674775Y-74557476D01*
X89627156Y-74605095D01*
X89531918Y-74652714D01*
X89389061Y-74652714D01*
X90293823Y-74652714D02*
X90198585Y-74605095D01*
X90150966Y-74557476D01*
X90103347Y-74462238D01*
X90103347Y-74176524D01*
X90150966Y-74081286D01*
X90198585Y-74033667D01*
X90293823Y-73986048D01*
X90436680Y-73986048D01*
X90531918Y-74033667D01*
X90579537Y-74081286D01*
X90627156Y-74176524D01*
X90627156Y-74462238D01*
X90579537Y-74557476D01*
X90531918Y-74605095D01*
X90436680Y-74652714D01*
X90293823Y-74652714D01*
X91055727Y-74652714D02*
X91055727Y-73986048D01*
X91055727Y-74176524D02*
X91103347Y-74081286D01*
X91150966Y-74033667D01*
X91246204Y-73986048D01*
X91341442Y-73986048D01*
X92436680Y-74652714D02*
X92436680Y-73652714D01*
X92912870Y-73986048D02*
X92912870Y-74652714D01*
X92912870Y-74081286D02*
X92960489Y-74033667D01*
X93055727Y-73986048D01*
X93198585Y-73986048D01*
X93293823Y-74033667D01*
X93341442Y-74128905D01*
X93341442Y-74652714D01*
X93674775Y-73986048D02*
X94055727Y-73986048D01*
X93817632Y-73652714D02*
X93817632Y-74509857D01*
X93865251Y-74605095D01*
X93960489Y-74652714D01*
X94055727Y-74652714D01*
X94770013Y-74605095D02*
X94674775Y-74652714D01*
X94484299Y-74652714D01*
X94389061Y-74605095D01*
X94341442Y-74509857D01*
X94341442Y-74128905D01*
X94389061Y-74033667D01*
X94484299Y-73986048D01*
X94674775Y-73986048D01*
X94770013Y-74033667D01*
X94817632Y-74128905D01*
X94817632Y-74224143D01*
X94341442Y-74319381D01*
X95246204Y-74652714D02*
X95246204Y-73986048D01*
X95246204Y-74176524D02*
X95293823Y-74081286D01*
X95341442Y-74033667D01*
X95436680Y-73986048D01*
X95531918Y-73986048D01*
X95722394Y-73986048D02*
X96103347Y-73986048D01*
X95865251Y-74652714D02*
X95865251Y-73795572D01*
X95912870Y-73700334D01*
X96008108Y-73652714D01*
X96103347Y-73652714D01*
X96865251Y-74652714D02*
X96865251Y-74128905D01*
X96817632Y-74033667D01*
X96722394Y-73986048D01*
X96531918Y-73986048D01*
X96436680Y-74033667D01*
X96865251Y-74605095D02*
X96770013Y-74652714D01*
X96531918Y-74652714D01*
X96436680Y-74605095D01*
X96389061Y-74509857D01*
X96389061Y-74414619D01*
X96436680Y-74319381D01*
X96531918Y-74271762D01*
X96770013Y-74271762D01*
X96865251Y-74224143D01*
X97770013Y-74605095D02*
X97674775Y-74652714D01*
X97484299Y-74652714D01*
X97389061Y-74605095D01*
X97341442Y-74557476D01*
X97293823Y-74462238D01*
X97293823Y-74176524D01*
X97341442Y-74081286D01*
X97389061Y-74033667D01*
X97484299Y-73986048D01*
X97674775Y-73986048D01*
X97770013Y-74033667D01*
X98579537Y-74605095D02*
X98484299Y-74652714D01*
X98293823Y-74652714D01*
X98198585Y-74605095D01*
X98150966Y-74509857D01*
X98150966Y-74128905D01*
X98198585Y-74033667D01*
X98293823Y-73986048D01*
X98484299Y-73986048D01*
X98579537Y-74033667D01*
X98627156Y-74128905D01*
X98627156Y-74224143D01*
X98150966Y-74319381D01*
X82198585Y-75262714D02*
X82531918Y-76262714D01*
X82865251Y-75262714D01*
X83389061Y-75262714D02*
X83484299Y-75262714D01*
X83579537Y-75310334D01*
X83627156Y-75357953D01*
X83674775Y-75453191D01*
X83722394Y-75643667D01*
X83722394Y-75881762D01*
X83674775Y-76072238D01*
X83627156Y-76167476D01*
X83579537Y-76215095D01*
X83484299Y-76262714D01*
X83389061Y-76262714D01*
X83293823Y-76215095D01*
X83246204Y-76167476D01*
X83198585Y-76072238D01*
X83150966Y-75881762D01*
X83150966Y-75643667D01*
X83198585Y-75453191D01*
X83246204Y-75357953D01*
X83293823Y-75310334D01*
X83389061Y-75262714D01*
X84150966Y-76167476D02*
X84198585Y-76215095D01*
X84150966Y-76262714D01*
X84103347Y-76215095D01*
X84150966Y-76167476D01*
X84150966Y-76262714D01*
X85150966Y-76262714D02*
X84579537Y-76262714D01*
X84865251Y-76262714D02*
X84865251Y-75262714D01*
X84770013Y-75405572D01*
X84674775Y-75500810D01*
X84579537Y-75548429D01*
X96859323Y-58306686D02*
X97192656Y-58782876D01*
X97430751Y-58306686D02*
X97430751Y-59306686D01*
X97049799Y-59306686D01*
X96954561Y-59259067D01*
X96906942Y-59211447D01*
X96859323Y-59116209D01*
X96859323Y-58973352D01*
X96906942Y-58878114D01*
X96954561Y-58830495D01*
X97049799Y-58782876D01*
X97430751Y-58782876D01*
X96525989Y-59306686D02*
X95859323Y-58306686D01*
X95859323Y-59306686D02*
X96525989Y-58306686D01*
X95430751Y-59068590D02*
X95430751Y-58306686D01*
X95383132Y-59020971D02*
X95383132Y-58354305D01*
X95335513Y-59020971D02*
X95335513Y-58354305D01*
X95287894Y-58973352D02*
X95287894Y-58401924D01*
X95240275Y-58973352D02*
X95240275Y-58401924D01*
X95192656Y-58925733D02*
X95192656Y-58449543D01*
X95145037Y-58925733D02*
X95145037Y-58449543D01*
X95097418Y-58878114D02*
X95097418Y-58497162D01*
X95049799Y-58830495D02*
X95049799Y-58544781D01*
X95002180Y-58830495D02*
X95002180Y-58544781D01*
X94954561Y-58782876D02*
X94954561Y-58592400D01*
X94906942Y-58782876D02*
X94906942Y-58592400D01*
X94859323Y-58687638D02*
X94811704Y-58687638D01*
X94859323Y-58735257D02*
X94859323Y-58640019D01*
X95478370Y-59068590D02*
X94764085Y-58687638D01*
X95478370Y-58306686D01*
X94716466Y-58687638D02*
X95478370Y-58259067D01*
X95478370Y-59116209D01*
X94716466Y-58687638D01*
X97341827Y-63656663D02*
X96579922Y-63656663D01*
X96960874Y-63275711D02*
X96960874Y-64037615D01*
X95627541Y-64275711D02*
X96103732Y-64275711D01*
X96151351Y-63799520D01*
X96103732Y-63847139D01*
X96008493Y-63894758D01*
X95770398Y-63894758D01*
X95675160Y-63847139D01*
X95627541Y-63799520D01*
X95579922Y-63704282D01*
X95579922Y-63466187D01*
X95627541Y-63370949D01*
X95675160Y-63323330D01*
X95770398Y-63275711D01*
X96008493Y-63275711D01*
X96103732Y-63323330D01*
X96151351Y-63370949D01*
X95294208Y-64275711D02*
X94960874Y-63275711D01*
X94627541Y-64275711D01*
X78820644Y-66071428D02*
X78487310Y-66071428D01*
X78344453Y-65547619D02*
X78820644Y-65547619D01*
X78820644Y-66547619D01*
X78344453Y-66547619D01*
X77963501Y-65595238D02*
X77820644Y-65547619D01*
X77582548Y-65547619D01*
X77487310Y-65595238D01*
X77439691Y-65642857D01*
X77392072Y-65738095D01*
X77392072Y-65833333D01*
X77439691Y-65928571D01*
X77487310Y-65976190D01*
X77582548Y-66023809D01*
X77773025Y-66071428D01*
X77868263Y-66119047D01*
X77915882Y-66166666D01*
X77963501Y-66261904D01*
X77963501Y-66357142D01*
X77915882Y-66452380D01*
X77868263Y-66500000D01*
X77773025Y-66547619D01*
X77534929Y-66547619D01*
X77392072Y-66500000D01*
X76963501Y-65547619D02*
X76963501Y-66547619D01*
X76582548Y-66547619D01*
X76487310Y-66500000D01*
X76439691Y-66452380D01*
X76392072Y-66357142D01*
X76392072Y-66214285D01*
X76439691Y-66119047D01*
X76487310Y-66071428D01*
X76582548Y-66023809D01*
X76963501Y-66023809D01*
D13*
G04 #@! TO.C,SW1*
X75530168Y-63807500D02*
X75530168Y-65007500D01*
X75530168Y-57007500D02*
X75530168Y-55807500D01*
X79730168Y-55807500D02*
X79730168Y-57007500D01*
X75530168Y-55807500D02*
X79730168Y-55807500D01*
X79730168Y-65007500D02*
X79730168Y-63807500D01*
X75230168Y-64107500D02*
X75230168Y-65307500D01*
X75230168Y-65307500D02*
X76430168Y-65307500D01*
X75530168Y-65007500D02*
X79730168Y-65007500D01*
G04 #@! TO.C,R4*
X92607668Y-56754724D02*
X92607668Y-56245276D01*
X93652668Y-56754724D02*
X93652668Y-56245276D01*
G04 #@! TO.C,R3*
X84607668Y-56245276D02*
X84607668Y-56754724D01*
X85652668Y-56245276D02*
X85652668Y-56754724D01*
G04 #@! TO.C,R1*
X85652668Y-62745276D02*
X85652668Y-63254724D01*
X84607668Y-62745276D02*
X84607668Y-63254724D01*
G04 #@! TO.C,Q1*
X89890168Y-64580000D02*
X88430168Y-64580000D01*
X89890168Y-61420000D02*
X86730168Y-61420000D01*
X89890168Y-61420000D02*
X89890168Y-62350000D01*
X89890168Y-64580000D02*
X89890168Y-63650000D01*
G04 #@! TO.C,J1*
X64490168Y-63480000D02*
X64490168Y-64790000D01*
X70160168Y-56980000D02*
X70160168Y-63480000D01*
X54720168Y-56980000D02*
X70160168Y-56980000D01*
X60390168Y-64790000D02*
X60390168Y-63480000D01*
X53420168Y-55670000D02*
X71460168Y-55670000D01*
X64490168Y-63480000D02*
X64490168Y-63480000D01*
X58130168Y-66180000D02*
X59130168Y-66180000D01*
X71460168Y-55670000D02*
X71460168Y-64790000D01*
X54720168Y-63480000D02*
X54720168Y-56980000D01*
X59130168Y-66180000D02*
X58630168Y-65180000D01*
X70160168Y-63480000D02*
X64490168Y-63480000D01*
X71460168Y-64790000D02*
X53420168Y-64790000D01*
X53420168Y-64790000D02*
X53420168Y-55670000D01*
X58630168Y-65180000D02*
X58130168Y-66180000D01*
X60390168Y-63480000D02*
X54720168Y-63480000D01*
G04 #@! TO.C,J3*
X104790168Y-65375000D02*
X104790168Y-54635000D01*
X98470168Y-65375000D02*
X98470168Y-54635000D01*
X98470168Y-54635000D02*
X104790168Y-54635000D01*
X98470168Y-65375000D02*
X104790168Y-65375000D01*
X105030168Y-65615000D02*
X105030168Y-65115000D01*
X98930168Y-65375000D02*
X98930168Y-54635000D01*
X104230168Y-65375000D02*
X104230168Y-54635000D01*
X104290168Y-65615000D02*
X105030168Y-65615000D01*
G04 #@! TO.C,J2*
X53545000Y-47405000D02*
X104465000Y-47405000D01*
X53545000Y-50005000D02*
X53545000Y-47405000D01*
X104465000Y-52605000D02*
X104465000Y-47405000D01*
X56145000Y-50005000D02*
X53545000Y-50005000D01*
X53545000Y-52605000D02*
X53545000Y-51275000D01*
X56145000Y-52605000D02*
X104465000Y-52605000D01*
X56145000Y-52605000D02*
X56145000Y-50005000D01*
X54875000Y-52605000D02*
X53545000Y-52605000D01*
G04 #@! TO.C,R2*
X92607668Y-62745276D02*
X92607668Y-63254724D01*
X93652668Y-62745276D02*
X93652668Y-63254724D01*
G04 #@! TO.C,Q2*
X89890168Y-58080000D02*
X89890168Y-57150000D01*
X89890168Y-58080000D02*
X88430168Y-58080000D01*
X89890168Y-54920000D02*
X89890168Y-55850000D01*
X89890168Y-54920000D02*
X86730168Y-54920000D01*
G04 #@! TD*
M02*
