G04 #@! TF.GenerationSoftware,KiCad,Pcbnew,6.0.6-3a73a75311~116~ubuntu22.04.1*
G04 #@! TF.CreationDate,2022-07-02T17:23:15+01:00*
G04 #@! TF.ProjectId,Pi_Connector,50695f43-6f6e-46e6-9563-746f722e6b69,rev?*
G04 #@! TF.SameCoordinates,Original*
G04 #@! TF.FileFunction,Soldermask,Bot*
G04 #@! TF.FilePolarity,Negative*
%FSLAX46Y46*%
G04 Gerber Fmt 4.6, Leading zero omitted, Abs format (unit mm)*
G04 Created by KiCad (PCBNEW 6.0.6-3a73a75311~116~ubuntu22.04.1) date 2022-07-02 17:23:15*
%MOMM*%
%LPD*%
G01*
G04 APERTURE LIST*
G04 Aperture macros list*
%AMRoundRect*
0 Rectangle with rounded corners*
0 $1 Rounding radius*
0 $2 $3 $4 $5 $6 $7 $8 $9 X,Y pos of 4 corners*
0 Add a 4 corners polygon primitive as box body*
4,1,4,$2,$3,$4,$5,$6,$7,$8,$9,$2,$3,0*
0 Add four circle primitives for the rounded corners*
1,1,$1+$1,$2,$3*
1,1,$1+$1,$4,$5*
1,1,$1+$1,$6,$7*
1,1,$1+$1,$8,$9*
0 Add four rect primitives between the rounded corners*
20,1,$1+$1,$2,$3,$4,$5,0*
20,1,$1+$1,$4,$5,$6,$7,0*
20,1,$1+$1,$6,$7,$8,$9,0*
20,1,$1+$1,$8,$9,$2,$3,0*%
G04 Aperture macros list end*
%ADD10R,1.400000X1.400000*%
%ADD11C,1.400000*%
%ADD12C,3.200000*%
%ADD13RoundRect,0.250000X0.600000X-0.600000X0.600000X0.600000X-0.600000X0.600000X-0.600000X-0.600000X0*%
%ADD14C,1.700000*%
%ADD15R,2.200000X2.200000*%
%ADD16C,2.200000*%
%ADD17R,1.700000X1.700000*%
%ADD18O,1.700000X1.700000*%
G04 APERTURE END LIST*
D10*
G04 #@! TO.C,SW1*
X75980168Y-62907500D03*
D11*
X75980168Y-60407500D03*
X75980168Y-57907500D03*
X79280168Y-62907500D03*
X79280168Y-60407500D03*
X79280168Y-57907500D03*
G04 #@! TD*
D12*
G04 #@! TO.C,REF\u002A\u002A*
X108000000Y-73000000D03*
G04 #@! TD*
D13*
G04 #@! TO.C,J1*
X58630168Y-61500000D03*
D14*
X58630168Y-58960000D03*
X61170168Y-61500000D03*
X61170168Y-58960000D03*
X63710168Y-61500000D03*
X63710168Y-58960000D03*
X66250168Y-61500000D03*
X66250168Y-58960000D03*
G04 #@! TD*
D15*
G04 #@! TO.C,J3*
X101630168Y-63815000D03*
D16*
X101630168Y-61275000D03*
X101630168Y-58735000D03*
X101630168Y-56195000D03*
G04 #@! TD*
D17*
G04 #@! TO.C,J2*
X54875000Y-51275000D03*
D18*
X54875000Y-48735000D03*
X57415000Y-51275000D03*
X57415000Y-48735000D03*
X59955000Y-51275000D03*
X59955000Y-48735000D03*
X62495000Y-51275000D03*
X62495000Y-48735000D03*
X65035000Y-51275000D03*
X65035000Y-48735000D03*
X67575000Y-51275000D03*
X67575000Y-48735000D03*
X70115000Y-51275000D03*
X70115000Y-48735000D03*
X72655000Y-51275000D03*
X72655000Y-48735000D03*
X75195000Y-51275000D03*
X75195000Y-48735000D03*
X77735000Y-51275000D03*
X77735000Y-48735000D03*
X80275000Y-51275000D03*
X80275000Y-48735000D03*
X82815000Y-51275000D03*
X82815000Y-48735000D03*
X85355000Y-51275000D03*
X85355000Y-48735000D03*
X87895000Y-51275000D03*
X87895000Y-48735000D03*
X90435000Y-51275000D03*
X90435000Y-48735000D03*
X92975000Y-51275000D03*
X92975000Y-48735000D03*
X95515000Y-51275000D03*
X95515000Y-48735000D03*
X98055000Y-51275000D03*
X98055000Y-48735000D03*
X100595000Y-51275000D03*
X100595000Y-48735000D03*
X103135000Y-51275000D03*
X103135000Y-48735000D03*
G04 #@! TD*
D12*
G04 #@! TO.C,REF\u002A\u002A*
X108000000Y-50000000D03*
G04 #@! TD*
G04 #@! TO.C,REF\u002A\u002A*
X50000000Y-73000000D03*
G04 #@! TD*
G04 #@! TO.C,REF\u002A\u002A*
X50000000Y-50000000D03*
G04 #@! TD*
M02*
