M48
; DRILL file {KiCad 6.0.6-3a73a75311~116~ubuntu22.04.1} date Sat Jul  2 17:23:15 2022
; FORMAT={-:-/ absolute / metric / decimal}
; #@! TF.CreationDate,2022-07-02T17:23:15+01:00
; #@! TF.GenerationSoftware,Kicad,Pcbnew,6.0.6-3a73a75311~116~ubuntu22.04.1
; #@! TF.FileFunction,MixedPlating,1,2
FMAT,2
METRIC
; #@! TA.AperFunction,Plated,PTH,ViaDrill
T1C0.500
; #@! TA.AperFunction,Plated,PTH,ComponentDrill
T2C0.900
; #@! TA.AperFunction,Plated,PTH,ComponentDrill
T3C1.000
; #@! TA.AperFunction,Plated,PTH,ComponentDrill
T4C1.100
; #@! TA.AperFunction,NonPlated,NPTH,ComponentDrill
T5C3.200
%
G90
G05
T1
X93.13Y-59.6
T2
X75.98Y-57.907
X75.98Y-60.407
X75.98Y-62.907
X79.28Y-57.907
X79.28Y-60.407
X79.28Y-62.907
T3
X54.875Y-48.735
X54.875Y-51.275
X57.415Y-48.735
X57.415Y-51.275
X58.63Y-58.96
X58.63Y-61.5
X59.955Y-48.735
X59.955Y-51.275
X61.17Y-58.96
X61.17Y-61.5
X62.495Y-48.735
X62.495Y-51.275
X63.71Y-58.96
X63.71Y-61.5
X65.035Y-48.735
X65.035Y-51.275
X66.25Y-58.96
X66.25Y-61.5
X67.575Y-48.735
X67.575Y-51.275
X70.115Y-48.735
X70.115Y-51.275
X72.655Y-48.735
X72.655Y-51.275
X75.195Y-48.735
X75.195Y-51.275
X77.735Y-48.735
X77.735Y-51.275
X80.275Y-48.735
X80.275Y-51.275
X82.815Y-48.735
X82.815Y-51.275
X85.355Y-48.735
X85.355Y-51.275
X87.895Y-48.735
X87.895Y-51.275
X90.435Y-48.735
X90.435Y-51.275
X92.975Y-48.735
X92.975Y-51.275
X95.515Y-48.735
X95.515Y-51.275
X98.055Y-48.735
X98.055Y-51.275
X100.595Y-48.735
X100.595Y-51.275
X103.135Y-48.735
X103.135Y-51.275
T4
X101.63Y-56.195
X101.63Y-58.735
X101.63Y-61.275
X101.63Y-63.815
T5
X50.0Y-50.0
X50.0Y-73.0
X108.0Y-50.0
X108.0Y-73.0
T0
M30
