G04 #@! TF.GenerationSoftware,KiCad,Pcbnew,6.0.6-3a73a75311~116~ubuntu22.04.1*
G04 #@! TF.CreationDate,2022-07-02T17:23:15+01:00*
G04 #@! TF.ProjectId,Pi_Connector,50695f43-6f6e-46e6-9563-746f722e6b69,rev?*
G04 #@! TF.SameCoordinates,Original*
G04 #@! TF.FileFunction,Copper,L1,Top*
G04 #@! TF.FilePolarity,Positive*
%FSLAX46Y46*%
G04 Gerber Fmt 4.6, Leading zero omitted, Abs format (unit mm)*
G04 Created by KiCad (PCBNEW 6.0.6-3a73a75311~116~ubuntu22.04.1) date 2022-07-02 17:23:15*
%MOMM*%
%LPD*%
G01*
G04 APERTURE LIST*
G04 Aperture macros list*
%AMRoundRect*
0 Rectangle with rounded corners*
0 $1 Rounding radius*
0 $2 $3 $4 $5 $6 $7 $8 $9 X,Y pos of 4 corners*
0 Add a 4 corners polygon primitive as box body*
4,1,4,$2,$3,$4,$5,$6,$7,$8,$9,$2,$3,0*
0 Add four circle primitives for the rounded corners*
1,1,$1+$1,$2,$3*
1,1,$1+$1,$4,$5*
1,1,$1+$1,$6,$7*
1,1,$1+$1,$8,$9*
0 Add four rect primitives between the rounded corners*
20,1,$1+$1,$2,$3,$4,$5,0*
20,1,$1+$1,$4,$5,$6,$7,0*
20,1,$1+$1,$6,$7,$8,$9,0*
20,1,$1+$1,$8,$9,$2,$3,0*%
G04 Aperture macros list end*
G04 #@! TA.AperFunction,ComponentPad*
%ADD10R,1.400000X1.400000*%
G04 #@! TD*
G04 #@! TA.AperFunction,ComponentPad*
%ADD11C,1.400000*%
G04 #@! TD*
G04 #@! TA.AperFunction,SMDPad,CuDef*
%ADD12RoundRect,0.237500X0.237500X-0.250000X0.237500X0.250000X-0.237500X0.250000X-0.237500X-0.250000X0*%
G04 #@! TD*
G04 #@! TA.AperFunction,SMDPad,CuDef*
%ADD13RoundRect,0.237500X-0.237500X0.250000X-0.237500X-0.250000X0.237500X-0.250000X0.237500X0.250000X0*%
G04 #@! TD*
G04 #@! TA.AperFunction,SMDPad,CuDef*
%ADD14R,1.900000X0.800000*%
G04 #@! TD*
G04 #@! TA.AperFunction,ComponentPad*
%ADD15RoundRect,0.250000X0.600000X-0.600000X0.600000X0.600000X-0.600000X0.600000X-0.600000X-0.600000X0*%
G04 #@! TD*
G04 #@! TA.AperFunction,ComponentPad*
%ADD16C,1.700000*%
G04 #@! TD*
G04 #@! TA.AperFunction,ComponentPad*
%ADD17R,2.200000X2.200000*%
G04 #@! TD*
G04 #@! TA.AperFunction,ComponentPad*
%ADD18C,2.200000*%
G04 #@! TD*
G04 #@! TA.AperFunction,ComponentPad*
%ADD19R,1.700000X1.700000*%
G04 #@! TD*
G04 #@! TA.AperFunction,ComponentPad*
%ADD20O,1.700000X1.700000*%
G04 #@! TD*
G04 #@! TA.AperFunction,ViaPad*
%ADD21C,1.000000*%
G04 #@! TD*
G04 #@! TA.AperFunction,Conductor*
%ADD22C,1.000000*%
G04 #@! TD*
G04 #@! TA.AperFunction,Conductor*
%ADD23C,0.500000*%
G04 #@! TD*
G04 #@! TA.AperFunction,Conductor*
%ADD24C,0.250000*%
G04 #@! TD*
G04 APERTURE END LIST*
D10*
G04 #@! TO.P,SW1,1,A*
G04 #@! TO.N,TXDO_ESP*
X75980168Y-62907500D03*
D11*
G04 #@! TO.P,SW1,2,B*
G04 #@! TO.N,TXDO*
X75980168Y-60407500D03*
G04 #@! TO.P,SW1,3,C*
G04 #@! TO.N,TXDO_NFC*
X75980168Y-57907500D03*
G04 #@! TO.P,SW1,4,A*
G04 #@! TO.N,RXDI_ESP*
X79280168Y-62907500D03*
G04 #@! TO.P,SW1,5,B*
G04 #@! TO.N,RXDI*
X79280168Y-60407500D03*
G04 #@! TO.P,SW1,6,C*
G04 #@! TO.N,RXDI_NFC*
X79280168Y-57907500D03*
G04 #@! TD*
D12*
G04 #@! TO.P,R4,1*
G04 #@! TO.N,+5V*
X93130168Y-57412500D03*
G04 #@! TO.P,R4,2*
G04 #@! TO.N,RXDI_NFC_5*
X93130168Y-55587500D03*
G04 #@! TD*
D13*
G04 #@! TO.P,R3,1*
G04 #@! TO.N,PI_POWERED*
X85130168Y-55587500D03*
G04 #@! TO.P,R3,2*
G04 #@! TO.N,RXDI_NFC*
X85130168Y-57412500D03*
G04 #@! TD*
G04 #@! TO.P,R1,1*
G04 #@! TO.N,PI_POWERED*
X85130168Y-62087500D03*
G04 #@! TO.P,R1,2*
G04 #@! TO.N,TXDO_NFC*
X85130168Y-63912500D03*
G04 #@! TD*
D14*
G04 #@! TO.P,Q1,1,G*
G04 #@! TO.N,PI_POWERED*
X87630168Y-62050000D03*
G04 #@! TO.P,Q1,2,S*
G04 #@! TO.N,TXDO_NFC*
X87630168Y-63950000D03*
G04 #@! TO.P,Q1,3,D*
G04 #@! TO.N,TXDO_NFC_5*
X90630168Y-63000000D03*
G04 #@! TD*
D15*
G04 #@! TO.P,J1,1,Pin_1*
G04 #@! TO.N,GND*
X58630168Y-61500000D03*
D16*
G04 #@! TO.P,J1,2,Pin_2*
G04 #@! TO.N,+5V*
X58630168Y-58960000D03*
G04 #@! TO.P,J1,3,Pin_3*
G04 #@! TO.N,PI_POWERED*
X61170168Y-61500000D03*
G04 #@! TO.P,J1,4,Pin_4*
G04 #@! TO.N,PI_HEARTBEAT*
X61170168Y-58960000D03*
G04 #@! TO.P,J1,5,Pin_5*
G04 #@! TO.N,PI_OPEN_CMD_1*
X63710168Y-61500000D03*
G04 #@! TO.P,J1,6,Pin_6*
G04 #@! TO.N,PI_OPEN_CMD_2*
X63710168Y-58960000D03*
G04 #@! TO.P,J1,7,Pin_7*
G04 #@! TO.N,TXDO_ESP*
X66250168Y-61500000D03*
G04 #@! TO.P,J1,8,Pin_8*
G04 #@! TO.N,RXDI_ESP*
X66250168Y-58960000D03*
G04 #@! TD*
D17*
G04 #@! TO.P,J3,1,Pin_1*
G04 #@! TO.N,+5V*
X101630168Y-63815000D03*
D18*
G04 #@! TO.P,J3,2,Pin_2*
G04 #@! TO.N,TXDO_NFC_5*
X101630168Y-61275000D03*
G04 #@! TO.P,J3,3,Pin_3*
G04 #@! TO.N,RXDI_NFC_5*
X101630168Y-58735000D03*
G04 #@! TO.P,J3,4,Pin_4*
G04 #@! TO.N,GND*
X101630168Y-56195000D03*
G04 #@! TD*
D19*
G04 #@! TO.P,J2,1,Pin_1*
G04 #@! TO.N,PI_POWERED*
X54875000Y-51275000D03*
D20*
G04 #@! TO.P,J2,2,Pin_2*
G04 #@! TO.N,+5V*
X54875000Y-48735000D03*
G04 #@! TO.P,J2,3,Pin_3*
G04 #@! TO.N,unconnected-(J2-Pad3)*
X57415000Y-51275000D03*
G04 #@! TO.P,J2,4,Pin_4*
G04 #@! TO.N,+5V*
X57415000Y-48735000D03*
G04 #@! TO.P,J2,5,Pin_5*
G04 #@! TO.N,unconnected-(J2-Pad5)*
X59955000Y-51275000D03*
G04 #@! TO.P,J2,6,Pin_6*
G04 #@! TO.N,GND*
X59955000Y-48735000D03*
G04 #@! TO.P,J2,7,Pin_7*
G04 #@! TO.N,PI_HEARTBEAT*
X62495000Y-51275000D03*
G04 #@! TO.P,J2,8,Pin_8*
G04 #@! TO.N,TXDO*
X62495000Y-48735000D03*
G04 #@! TO.P,J2,9,Pin_9*
G04 #@! TO.N,GND*
X65035000Y-51275000D03*
G04 #@! TO.P,J2,10,Pin_10*
G04 #@! TO.N,RXDI*
X65035000Y-48735000D03*
G04 #@! TO.P,J2,11,Pin_11*
G04 #@! TO.N,unconnected-(J2-Pad11)*
X67575000Y-51275000D03*
G04 #@! TO.P,J2,12,Pin_12*
G04 #@! TO.N,unconnected-(J2-Pad12)*
X67575000Y-48735000D03*
G04 #@! TO.P,J2,13,Pin_13*
G04 #@! TO.N,unconnected-(J2-Pad13)*
X70115000Y-51275000D03*
G04 #@! TO.P,J2,14,Pin_14*
G04 #@! TO.N,GND*
X70115000Y-48735000D03*
G04 #@! TO.P,J2,15,Pin_15*
G04 #@! TO.N,unconnected-(J2-Pad15)*
X72655000Y-51275000D03*
G04 #@! TO.P,J2,16,Pin_16*
G04 #@! TO.N,PI_OPEN_CMD_1*
X72655000Y-48735000D03*
G04 #@! TO.P,J2,17,Pin_17*
G04 #@! TO.N,unconnected-(J2-Pad17)*
X75195000Y-51275000D03*
G04 #@! TO.P,J2,18,Pin_18*
G04 #@! TO.N,PI_OPEN_CMD_2*
X75195000Y-48735000D03*
G04 #@! TO.P,J2,19,Pin_19*
G04 #@! TO.N,unconnected-(J2-Pad19)*
X77735000Y-51275000D03*
G04 #@! TO.P,J2,20,Pin_20*
G04 #@! TO.N,GND*
X77735000Y-48735000D03*
G04 #@! TO.P,J2,21,Pin_21*
G04 #@! TO.N,unconnected-(J2-Pad21)*
X80275000Y-51275000D03*
G04 #@! TO.P,J2,22,Pin_22*
G04 #@! TO.N,unconnected-(J2-Pad22)*
X80275000Y-48735000D03*
G04 #@! TO.P,J2,23,Pin_23*
G04 #@! TO.N,unconnected-(J2-Pad23)*
X82815000Y-51275000D03*
G04 #@! TO.P,J2,24,Pin_24*
G04 #@! TO.N,unconnected-(J2-Pad24)*
X82815000Y-48735000D03*
G04 #@! TO.P,J2,25,Pin_25*
G04 #@! TO.N,GND*
X85355000Y-51275000D03*
G04 #@! TO.P,J2,26,Pin_26*
G04 #@! TO.N,unconnected-(J2-Pad26)*
X85355000Y-48735000D03*
G04 #@! TO.P,J2,27,Pin_27*
G04 #@! TO.N,unconnected-(J2-Pad27)*
X87895000Y-51275000D03*
G04 #@! TO.P,J2,28,Pin_28*
G04 #@! TO.N,unconnected-(J2-Pad28)*
X87895000Y-48735000D03*
G04 #@! TO.P,J2,29,Pin_29*
G04 #@! TO.N,unconnected-(J2-Pad29)*
X90435000Y-51275000D03*
G04 #@! TO.P,J2,30,Pin_30*
G04 #@! TO.N,GND*
X90435000Y-48735000D03*
G04 #@! TO.P,J2,31,Pin_31*
G04 #@! TO.N,unconnected-(J2-Pad31)*
X92975000Y-51275000D03*
G04 #@! TO.P,J2,32,Pin_32*
G04 #@! TO.N,unconnected-(J2-Pad32)*
X92975000Y-48735000D03*
G04 #@! TO.P,J2,33,Pin_33*
G04 #@! TO.N,unconnected-(J2-Pad33)*
X95515000Y-51275000D03*
G04 #@! TO.P,J2,34,Pin_34*
G04 #@! TO.N,GND*
X95515000Y-48735000D03*
G04 #@! TO.P,J2,35,Pin_35*
G04 #@! TO.N,unconnected-(J2-Pad35)*
X98055000Y-51275000D03*
G04 #@! TO.P,J2,36,Pin_36*
G04 #@! TO.N,unconnected-(J2-Pad36)*
X98055000Y-48735000D03*
G04 #@! TO.P,J2,37,Pin_37*
G04 #@! TO.N,unconnected-(J2-Pad37)*
X100595000Y-51275000D03*
G04 #@! TO.P,J2,38,Pin_38*
G04 #@! TO.N,unconnected-(J2-Pad38)*
X100595000Y-48735000D03*
G04 #@! TO.P,J2,39,Pin_39*
G04 #@! TO.N,GND*
X103135000Y-51275000D03*
G04 #@! TO.P,J2,40,Pin_40*
G04 #@! TO.N,unconnected-(J2-Pad40)*
X103135000Y-48735000D03*
G04 #@! TD*
D13*
G04 #@! TO.P,R2,1*
G04 #@! TO.N,+5V*
X93130168Y-62087500D03*
G04 #@! TO.P,R2,2*
G04 #@! TO.N,TXDO_NFC_5*
X93130168Y-63912500D03*
G04 #@! TD*
D14*
G04 #@! TO.P,Q2,1,G*
G04 #@! TO.N,PI_POWERED*
X87630168Y-55550000D03*
G04 #@! TO.P,Q2,2,S*
G04 #@! TO.N,RXDI_NFC*
X87630168Y-57450000D03*
G04 #@! TO.P,Q2,3,D*
G04 #@! TO.N,RXDI_NFC_5*
X90630168Y-56500000D03*
G04 #@! TD*
D21*
G04 #@! TO.N,+5V*
X93130168Y-59600000D03*
G04 #@! TD*
D22*
G04 #@! TO.N,+5V*
X93130168Y-59600000D02*
X93130168Y-62087500D01*
X57080168Y-59307919D02*
X57080168Y-62550000D01*
X57428087Y-58960000D02*
X57080168Y-59307919D01*
D23*
X54830168Y-48575000D02*
X53530168Y-49875000D01*
D22*
X57080168Y-62550000D02*
X60594668Y-66064500D01*
X54830168Y-48575000D02*
X57370168Y-48575000D01*
X99380668Y-66064500D02*
X101630168Y-63815000D01*
X93130168Y-57412500D02*
X93130168Y-59600000D01*
X60594668Y-66064500D02*
X99380668Y-66064500D01*
X58630168Y-58960000D02*
X57428087Y-58960000D01*
D23*
X53530168Y-49875000D02*
X53530168Y-53860000D01*
X53530168Y-53860000D02*
X58630168Y-58960000D01*
D24*
G04 #@! TO.N,PI_POWERED*
X88905168Y-56825000D02*
X87630168Y-55550000D01*
X88340168Y-65240000D02*
X89130168Y-64450000D01*
X89130168Y-63000000D02*
X88180168Y-62050000D01*
X64910168Y-65240000D02*
X88340168Y-65240000D01*
X89130168Y-64450000D02*
X89130168Y-63000000D01*
X88905168Y-60775000D02*
X88905168Y-56825000D01*
X54830168Y-51115000D02*
X59805168Y-56090000D01*
X59930168Y-60260000D02*
X61170168Y-61500000D01*
X87630168Y-55550000D02*
X85167668Y-55550000D01*
X61170168Y-61500000D02*
X64910168Y-65240000D01*
X85130168Y-62087500D02*
X85167668Y-62050000D01*
X87630168Y-62050000D02*
X88905168Y-60775000D01*
X85167668Y-62050000D02*
X87630168Y-62050000D01*
X59930168Y-60200000D02*
X59930168Y-60260000D01*
X59805168Y-56090000D02*
X59805168Y-60075000D01*
X59805168Y-60075000D02*
X59930168Y-60200000D01*
X85167668Y-55550000D02*
X85130168Y-55587500D01*
X88180168Y-62050000D02*
X87630168Y-62050000D01*
G04 #@! TO.N,PI_HEARTBEAT*
X62450168Y-57680000D02*
X62450168Y-51115000D01*
X61170168Y-58960000D02*
X62450168Y-57680000D01*
G04 #@! TO.N,TXDO_ESP*
X67657668Y-62907500D02*
X66250168Y-61500000D01*
X75980168Y-62907500D02*
X67657668Y-62907500D01*
G04 #@! TO.N,RXDI_ESP*
X65075168Y-61986701D02*
X65075168Y-60135000D01*
X65075168Y-60135000D02*
X66250168Y-58960000D01*
X78255168Y-63932500D02*
X67020967Y-63932500D01*
X67020967Y-63932500D02*
X65075168Y-61986701D01*
X79280168Y-62907500D02*
X78255168Y-63932500D01*
G04 #@! TO.N,TXDO*
X62495000Y-48735000D02*
X63700000Y-49940000D01*
X63700000Y-49940000D02*
X63700000Y-53000000D01*
X71107500Y-60407500D02*
X75980168Y-60407500D01*
X63700000Y-53000000D02*
X71107500Y-60407500D01*
G04 #@! TO.N,RXDI*
X66330168Y-54994478D02*
X70335690Y-59000000D01*
X70335690Y-59000000D02*
X77872668Y-59000000D01*
X77872668Y-59000000D02*
X79280168Y-60407500D01*
X66330168Y-49915000D02*
X66330168Y-54994478D01*
X64990168Y-48575000D02*
X66330168Y-49915000D01*
G04 #@! TO.N,TXDO_NFC_5*
X92217668Y-63000000D02*
X93130168Y-63912500D01*
X90630168Y-63000000D02*
X92217668Y-63000000D01*
X93130168Y-63912500D02*
X95767668Y-61275000D01*
X95767668Y-61275000D02*
X101630168Y-61275000D01*
G04 #@! TO.N,RXDI_NFC_5*
X96277668Y-58735000D02*
X101630168Y-58735000D01*
X92217668Y-56500000D02*
X93130168Y-55587500D01*
X90630168Y-56500000D02*
X92217668Y-56500000D01*
X93130168Y-55587500D02*
X96277668Y-58735000D01*
G04 #@! TO.N,TXDO_NFC*
X80600168Y-59382500D02*
X85130168Y-63912500D01*
X79305599Y-59382500D02*
X80600168Y-59382500D01*
X77830599Y-57907500D02*
X79305599Y-59382500D01*
X85167668Y-63950000D02*
X87630168Y-63950000D01*
X75980168Y-57907500D02*
X77830599Y-57907500D01*
X85130168Y-63912500D02*
X85167668Y-63950000D01*
G04 #@! TO.N,RXDI_NFC*
X84635168Y-57907500D02*
X85130168Y-57412500D01*
X79280168Y-57907500D02*
X84635168Y-57907500D01*
X85167668Y-57450000D02*
X87630168Y-57450000D01*
X85130168Y-57412500D02*
X85167668Y-57450000D01*
G04 #@! TD*
M02*
