G04 #@! TF.GenerationSoftware,KiCad,Pcbnew,6.0.7-f9a2dced07~116~ubuntu22.04.1*
G04 #@! TF.CreationDate,2022-09-08T14:06:49+01:00*
G04 #@! TF.ProjectId,rLab_Door,724c6162-5f44-46f6-9f72-2e6b69636164,rev?*
G04 #@! TF.SameCoordinates,Original*
G04 #@! TF.FileFunction,Copper,L1,Top*
G04 #@! TF.FilePolarity,Positive*
%FSLAX46Y46*%
G04 Gerber Fmt 4.6, Leading zero omitted, Abs format (unit mm)*
G04 Created by KiCad (PCBNEW 6.0.7-f9a2dced07~116~ubuntu22.04.1) date 2022-09-08 14:06:49*
%MOMM*%
%LPD*%
G01*
G04 APERTURE LIST*
G04 Aperture macros list*
%AMRoundRect*
0 Rectangle with rounded corners*
0 $1 Rounding radius*
0 $2 $3 $4 $5 $6 $7 $8 $9 X,Y pos of 4 corners*
0 Add a 4 corners polygon primitive as box body*
4,1,4,$2,$3,$4,$5,$6,$7,$8,$9,$2,$3,0*
0 Add four circle primitives for the rounded corners*
1,1,$1+$1,$2,$3*
1,1,$1+$1,$4,$5*
1,1,$1+$1,$6,$7*
1,1,$1+$1,$8,$9*
0 Add four rect primitives between the rounded corners*
20,1,$1+$1,$2,$3,$4,$5,0*
20,1,$1+$1,$4,$5,$6,$7,0*
20,1,$1+$1,$6,$7,$8,$9,0*
20,1,$1+$1,$8,$9,$2,$3,0*%
G04 Aperture macros list end*
G04 #@! TA.AperFunction,SMDPad,CuDef*
%ADD10RoundRect,0.200000X-0.200000X-0.275000X0.200000X-0.275000X0.200000X0.275000X-0.200000X0.275000X0*%
G04 #@! TD*
G04 #@! TA.AperFunction,ComponentPad*
%ADD11C,3.000000*%
G04 #@! TD*
G04 #@! TA.AperFunction,SMDPad,CuDef*
%ADD12RoundRect,0.150000X-0.587500X-0.150000X0.587500X-0.150000X0.587500X0.150000X-0.587500X0.150000X0*%
G04 #@! TD*
G04 #@! TA.AperFunction,SMDPad,CuDef*
%ADD13RoundRect,0.200000X-0.275000X0.200000X-0.275000X-0.200000X0.275000X-0.200000X0.275000X0.200000X0*%
G04 #@! TD*
G04 #@! TA.AperFunction,ComponentPad*
%ADD14C,1.440000*%
G04 #@! TD*
G04 #@! TA.AperFunction,SMDPad,CuDef*
%ADD15RoundRect,0.218750X-0.256250X0.218750X-0.256250X-0.218750X0.256250X-0.218750X0.256250X0.218750X0*%
G04 #@! TD*
G04 #@! TA.AperFunction,SMDPad,CuDef*
%ADD16RoundRect,0.200000X0.275000X-0.200000X0.275000X0.200000X-0.275000X0.200000X-0.275000X-0.200000X0*%
G04 #@! TD*
G04 #@! TA.AperFunction,ComponentPad*
%ADD17R,1.700000X1.700000*%
G04 #@! TD*
G04 #@! TA.AperFunction,ComponentPad*
%ADD18O,1.700000X1.700000*%
G04 #@! TD*
G04 #@! TA.AperFunction,SMDPad,CuDef*
%ADD19RoundRect,0.150000X0.587500X0.150000X-0.587500X0.150000X-0.587500X-0.150000X0.587500X-0.150000X0*%
G04 #@! TD*
G04 #@! TA.AperFunction,SMDPad,CuDef*
%ADD20RoundRect,0.250000X0.650000X-0.325000X0.650000X0.325000X-0.650000X0.325000X-0.650000X-0.325000X0*%
G04 #@! TD*
G04 #@! TA.AperFunction,SMDPad,CuDef*
%ADD21R,2.800000X1.000000*%
G04 #@! TD*
G04 #@! TA.AperFunction,ComponentPad*
%ADD22C,0.800000*%
G04 #@! TD*
G04 #@! TA.AperFunction,ComponentPad*
%ADD23C,6.400000*%
G04 #@! TD*
G04 #@! TA.AperFunction,SMDPad,CuDef*
%ADD24RoundRect,0.200000X0.200000X0.275000X-0.200000X0.275000X-0.200000X-0.275000X0.200000X-0.275000X0*%
G04 #@! TD*
G04 #@! TA.AperFunction,SMDPad,CuDef*
%ADD25R,1.800000X2.500000*%
G04 #@! TD*
G04 #@! TA.AperFunction,SMDPad,CuDef*
%ADD26RoundRect,0.250000X0.425000X-0.450000X0.425000X0.450000X-0.425000X0.450000X-0.425000X-0.450000X0*%
G04 #@! TD*
G04 #@! TA.AperFunction,SMDPad,CuDef*
%ADD27RoundRect,0.225000X0.250000X-0.225000X0.250000X0.225000X-0.250000X0.225000X-0.250000X-0.225000X0*%
G04 #@! TD*
G04 #@! TA.AperFunction,SMDPad,CuDef*
%ADD28R,1.200000X2.200000*%
G04 #@! TD*
G04 #@! TA.AperFunction,SMDPad,CuDef*
%ADD29R,5.800000X6.400000*%
G04 #@! TD*
G04 #@! TA.AperFunction,SMDPad,CuDef*
%ADD30R,2.500000X1.800000*%
G04 #@! TD*
G04 #@! TA.AperFunction,SMDPad,CuDef*
%ADD31RoundRect,0.250000X-0.425000X0.450000X-0.425000X-0.450000X0.425000X-0.450000X0.425000X0.450000X0*%
G04 #@! TD*
G04 #@! TA.AperFunction,ComponentPad*
%ADD32C,1.524000*%
G04 #@! TD*
G04 #@! TA.AperFunction,SMDPad,CuDef*
%ADD33R,2.000000X1.500000*%
G04 #@! TD*
G04 #@! TA.AperFunction,SMDPad,CuDef*
%ADD34R,2.000000X3.800000*%
G04 #@! TD*
G04 #@! TA.AperFunction,ComponentPad*
%ADD35R,3.500000X3.500000*%
G04 #@! TD*
G04 #@! TA.AperFunction,ComponentPad*
%ADD36RoundRect,0.750000X-0.750000X-1.000000X0.750000X-1.000000X0.750000X1.000000X-0.750000X1.000000X0*%
G04 #@! TD*
G04 #@! TA.AperFunction,ComponentPad*
%ADD37RoundRect,0.875000X-0.875000X-0.875000X0.875000X-0.875000X0.875000X0.875000X-0.875000X0.875000X0*%
G04 #@! TD*
G04 #@! TA.AperFunction,ComponentPad*
%ADD38RoundRect,0.250000X0.600000X0.600000X-0.600000X0.600000X-0.600000X-0.600000X0.600000X-0.600000X0*%
G04 #@! TD*
G04 #@! TA.AperFunction,ComponentPad*
%ADD39C,1.700000*%
G04 #@! TD*
G04 #@! TA.AperFunction,SMDPad,CuDef*
%ADD40RoundRect,0.249999X-0.450001X-1.425001X0.450001X-1.425001X0.450001X1.425001X-0.450001X1.425001X0*%
G04 #@! TD*
G04 #@! TA.AperFunction,SMDPad,CuDef*
%ADD41R,2.000000X0.900000*%
G04 #@! TD*
G04 #@! TA.AperFunction,SMDPad,CuDef*
%ADD42R,0.900000X2.000000*%
G04 #@! TD*
G04 #@! TA.AperFunction,SMDPad,CuDef*
%ADD43R,5.000000X5.000000*%
G04 #@! TD*
G04 #@! TA.AperFunction,SMDPad,CuDef*
%ADD44RoundRect,0.225000X-0.225000X-0.250000X0.225000X-0.250000X0.225000X0.250000X-0.225000X0.250000X0*%
G04 #@! TD*
G04 #@! TA.AperFunction,ViaPad*
%ADD45C,0.800000*%
G04 #@! TD*
G04 #@! TA.AperFunction,ViaPad*
%ADD46C,1.500000*%
G04 #@! TD*
G04 #@! TA.AperFunction,Conductor*
%ADD47C,0.250000*%
G04 #@! TD*
G04 #@! TA.AperFunction,Conductor*
%ADD48C,2.000000*%
G04 #@! TD*
G04 #@! TA.AperFunction,Conductor*
%ADD49C,0.500000*%
G04 #@! TD*
G04 #@! TA.AperFunction,Conductor*
%ADD50C,1.000000*%
G04 #@! TD*
G04 #@! TA.AperFunction,Conductor*
%ADD51C,1.500000*%
G04 #@! TD*
G04 #@! TA.AperFunction,Conductor*
%ADD52C,2.500000*%
G04 #@! TD*
G04 APERTURE END LIST*
D10*
G04 #@! TO.P,R6,1*
G04 #@! TO.N,ADC_VBATT*
X127445000Y-97790000D03*
G04 #@! TO.P,R6,2*
G04 #@! TO.N,V_BATT*
X129095000Y-97790000D03*
G04 #@! TD*
D11*
G04 #@! TO.P,F3,1*
G04 #@! TO.N,OPEN_1_12*
X170000000Y-136250000D03*
G04 #@! TO.P,F3,2*
G04 #@! TO.N,Net-(F3-Pad2)*
X170000000Y-113750000D03*
G04 #@! TD*
D12*
G04 #@! TO.P,Q1,1,G*
G04 #@! TO.N,+3V3*
X174322500Y-82870000D03*
G04 #@! TO.P,Q1,2,S*
G04 #@! TO.N,NPX_1*
X174322500Y-84770000D03*
G04 #@! TO.P,Q1,3,D*
G04 #@! TO.N,NPX_1_5*
X176197500Y-83820000D03*
G04 #@! TD*
D13*
G04 #@! TO.P,R37,1*
G04 #@! TO.N,+3V3*
X171450000Y-74105000D03*
G04 #@! TO.P,R37,2*
G04 #@! TO.N,SDA_DISP*
X171450000Y-75755000D03*
G04 #@! TD*
D14*
G04 #@! TO.P,RV1,1,1*
G04 #@! TO.N,Net-(R3-Pad2)*
X140970000Y-102860000D03*
G04 #@! TO.P,RV1,2,2*
X140970000Y-105400000D03*
G04 #@! TO.P,RV1,3,3*
G04 #@! TO.N,GND*
X140970000Y-107940000D03*
G04 #@! TD*
D15*
G04 #@! TO.P,D7,1,K*
G04 #@! TO.N,Net-(D7-Pad1)*
X153525844Y-135623629D03*
G04 #@! TO.P,D7,2,A*
G04 #@! TO.N,OPEN_2_12*
X153525844Y-137198629D03*
G04 #@! TD*
D16*
G04 #@! TO.P,R38,1*
G04 #@! TO.N,+5V*
X179070000Y-75755000D03*
G04 #@! TO.P,R38,2*
G04 #@! TO.N,SDA_DISP_5*
X179070000Y-74105000D03*
G04 #@! TD*
G04 #@! TO.P,R1,1*
G04 #@! TO.N,TAMPER*
X113284000Y-100076000D03*
G04 #@! TO.P,R1,2*
G04 #@! TO.N,+3V3*
X113284000Y-98426000D03*
G04 #@! TD*
D17*
G04 #@! TO.P,J11,1,Pin_1*
G04 #@! TO.N,+3V3*
X177460000Y-60000000D03*
D18*
G04 #@! TO.P,J11,2,Pin_2*
G04 #@! TO.N,GND*
X180000000Y-60000000D03*
G04 #@! TO.P,J11,3,Pin_3*
G04 #@! TO.N,TXDO_PROG*
X182540000Y-60000000D03*
G04 #@! TO.P,J11,4,Pin_4*
G04 #@! TO.N,RXDI_PROG*
X185080000Y-60000000D03*
G04 #@! TO.P,J11,5,Pin_5*
G04 #@! TO.N,RESET*
X187620000Y-60000000D03*
G04 #@! TO.P,J11,6,Pin_6*
G04 #@! TO.N,BOOT*
X190160000Y-60000000D03*
G04 #@! TD*
D19*
G04 #@! TO.P,Q9,1,G*
G04 #@! TO.N,+3V3*
X125397500Y-75880000D03*
G04 #@! TO.P,Q9,2,S*
G04 #@! TO.N,RXDI_NFC*
X125397500Y-73980000D03*
G04 #@! TO.P,Q9,3,D*
G04 #@! TO.N,RXDI_NFC_5*
X123522500Y-74930000D03*
G04 #@! TD*
D16*
G04 #@! TO.P,R33,1*
G04 #@! TO.N,+3V3*
X128270000Y-75755000D03*
G04 #@! TO.P,R33,2*
G04 #@! TO.N,RXDI_NFC*
X128270000Y-74105000D03*
G04 #@! TD*
D20*
G04 #@! TO.P,C3,1*
G04 #@! TO.N,+3V3*
X132080000Y-64467000D03*
G04 #@! TO.P,C3,2*
G04 #@! TO.N,GND*
X132080000Y-61517000D03*
G04 #@! TD*
D21*
G04 #@! TO.P,SW1,1,1*
G04 #@! TO.N,GND*
X132440000Y-54896000D03*
X126640000Y-54896000D03*
G04 #@! TO.P,SW1,2,2*
G04 #@! TO.N,RESET*
X132440000Y-58896000D03*
X126640000Y-58896000D03*
G04 #@! TD*
D22*
G04 #@! TO.P,REF\u002A\u002A,1*
G04 #@! TO.N,N/C*
X193302944Y-56697056D03*
X193302944Y-53302944D03*
D23*
X195000000Y-55000000D03*
D22*
X195000000Y-57400000D03*
X195000000Y-52600000D03*
X192600000Y-55000000D03*
X196697056Y-56697056D03*
X197400000Y-55000000D03*
X196697056Y-53302944D03*
G04 #@! TD*
D10*
G04 #@! TO.P,R36,1*
G04 #@! TO.N,OPEN_2*
X178245000Y-95250000D03*
G04 #@! TO.P,R36,2*
G04 #@! TO.N,Net-(Q10-Pad1)*
X179895000Y-95250000D03*
G04 #@! TD*
D17*
G04 #@! TO.P,J13,1,Pin_1*
G04 #@! TO.N,V_IN*
X140840000Y-140000000D03*
D18*
G04 #@! TO.P,J13,2,Pin_2*
G04 #@! TO.N,V_BATT*
X143380000Y-140000000D03*
G04 #@! TO.P,J13,3,Pin_3*
G04 #@! TO.N,+5V*
X145920000Y-140000000D03*
G04 #@! TO.P,J13,4,Pin_4*
G04 #@! TO.N,+3V3*
X148460000Y-140000000D03*
G04 #@! TO.P,J13,5,Pin_5*
G04 #@! TO.N,OPEN_1_12*
X151000000Y-140000000D03*
G04 #@! TO.P,J13,6,Pin_6*
G04 #@! TO.N,OPEN_2_12*
X153540000Y-140000000D03*
G04 #@! TO.P,J13,7,Pin_7*
G04 #@! TO.N,GND*
X156080000Y-140000000D03*
G04 #@! TO.P,J13,8,Pin_8*
X158620000Y-140000000D03*
G04 #@! TD*
D17*
G04 #@! TO.P,J9,1,Pin_1*
G04 #@! TO.N,Net-(F1-Pad2)*
X120000000Y-140000000D03*
D18*
G04 #@! TO.P,J9,2,Pin_2*
G04 #@! TO.N,GND*
X117460000Y-140000000D03*
G04 #@! TD*
D24*
G04 #@! TO.P,R35,1*
G04 #@! TO.N,Net-(Q7-Pad1)*
X183705000Y-105410000D03*
G04 #@! TO.P,R35,2*
G04 #@! TO.N,Net-(Q10-Pad3)*
X182055000Y-105410000D03*
G04 #@! TD*
D17*
G04 #@! TO.P,J1,1,Pin_1*
G04 #@! TO.N,+12V*
X170000000Y-140000000D03*
D18*
G04 #@! TO.P,J1,2,Pin_2*
G04 #@! TO.N,OPEN_1_12*
X167460000Y-140000000D03*
G04 #@! TO.P,J1,3,Pin_3*
G04 #@! TO.N,GND*
X164920000Y-140000000D03*
G04 #@! TD*
D16*
G04 #@! TO.P,R10,1*
G04 #@! TO.N,Net-(D5-Pad1)*
X143384790Y-134175000D03*
G04 #@! TO.P,R10,2*
G04 #@! TO.N,GND*
X143384790Y-132525000D03*
G04 #@! TD*
D24*
G04 #@! TO.P,R3,1*
G04 #@! TO.N,V_BATT*
X129635000Y-101600000D03*
G04 #@! TO.P,R3,2*
G04 #@! TO.N,Net-(R3-Pad2)*
X127985000Y-101600000D03*
G04 #@! TD*
D12*
G04 #@! TO.P,Q11,1,G*
G04 #@! TO.N,+3V3*
X174322500Y-73980000D03*
G04 #@! TO.P,Q11,2,S*
G04 #@! TO.N,SDA_DISP*
X174322500Y-75880000D03*
G04 #@! TO.P,Q11,3,D*
G04 #@! TO.N,SDA_DISP_5*
X176197500Y-74930000D03*
G04 #@! TD*
D16*
G04 #@! TO.P,R34,1*
G04 #@! TO.N,+5V*
X120650000Y-75755000D03*
G04 #@! TO.P,R34,2*
G04 #@! TO.N,RXDI_NFC_5*
X120650000Y-74105000D03*
G04 #@! TD*
D15*
G04 #@! TO.P,D4,1,K*
G04 #@! TO.N,Net-(D4-Pad1)*
X140849527Y-135623629D03*
G04 #@! TO.P,D4,2,A*
G04 #@! TO.N,V_IN*
X140849527Y-137198629D03*
G04 #@! TD*
D25*
G04 #@! TO.P,D1,1,K*
G04 #@! TO.N,V_IN*
X114300000Y-104680000D03*
G04 #@! TO.P,D1,2,A*
G04 #@! TO.N,Net-(D1-Pad2)*
X114300000Y-108680000D03*
G04 #@! TD*
D26*
G04 #@! TO.P,C1,1*
G04 #@! TO.N,+5V*
X146050000Y-108030000D03*
G04 #@! TO.P,C1,2*
G04 #@! TO.N,GND*
X146050000Y-105330000D03*
G04 #@! TD*
D19*
G04 #@! TO.P,Q8,1,G*
G04 #@! TO.N,+3V3*
X125397500Y-72070000D03*
G04 #@! TO.P,Q8,2,S*
G04 #@! TO.N,TXDO_NFC*
X125397500Y-70170000D03*
G04 #@! TO.P,Q8,3,D*
G04 #@! TO.N,TXDO_NFC_5*
X123522500Y-71120000D03*
G04 #@! TD*
D11*
G04 #@! TO.P,F1,1*
G04 #@! TO.N,Net-(D1-Pad2)*
X118000000Y-113750000D03*
G04 #@! TO.P,F1,2*
G04 #@! TO.N,Net-(F1-Pad2)*
X118000000Y-136250000D03*
G04 #@! TD*
D24*
G04 #@! TO.P,R5,1*
G04 #@! TO.N,ADC_VIN*
X117665000Y-97790000D03*
G04 #@! TO.P,R5,2*
G04 #@! TO.N,V_IN*
X116015000Y-97790000D03*
G04 #@! TD*
D27*
G04 #@! TO.P,C4,1*
G04 #@! TO.N,+3V3*
X130048000Y-63259000D03*
G04 #@! TO.P,C4,2*
G04 #@! TO.N,GND*
X130048000Y-61709000D03*
G04 #@! TD*
D10*
G04 #@! TO.P,R25,1*
G04 #@! TO.N,OPEN_1*
X166815000Y-95250000D03*
G04 #@! TO.P,R25,2*
G04 #@! TO.N,Net-(Q4-Pad1)*
X168465000Y-95250000D03*
G04 #@! TD*
D28*
G04 #@! TO.P,U2,1,ADJ*
G04 #@! TO.N,Net-(R3-Pad2)*
X123185000Y-101245000D03*
D29*
G04 #@! TO.P,U2,2,VO*
G04 #@! TO.N,Net-(R2-Pad1)*
X120905000Y-107545000D03*
D28*
G04 #@! TO.P,U2,3,VI*
G04 #@! TO.N,V_IN*
X118625000Y-101245000D03*
G04 #@! TD*
D13*
G04 #@! TO.P,R32,1*
G04 #@! TO.N,+5V*
X120650000Y-70295000D03*
G04 #@! TO.P,R32,2*
G04 #@! TO.N,TXDO_NFC_5*
X120650000Y-71945000D03*
G04 #@! TD*
D16*
G04 #@! TO.P,R30,1*
G04 #@! TO.N,+12V*
X182245000Y-110045000D03*
G04 #@! TO.P,R30,2*
G04 #@! TO.N,Net-(Q7-Pad1)*
X182245000Y-108395000D03*
G04 #@! TD*
D13*
G04 #@! TO.P,R39,1*
G04 #@! TO.N,+3V3*
X171450000Y-70295000D03*
G04 #@! TO.P,R39,2*
G04 #@! TO.N,SCL_DISP*
X171450000Y-71945000D03*
G04 #@! TD*
D10*
G04 #@! TO.P,R15,1*
G04 #@! TO.N,ADC_V5*
X135065000Y-97790000D03*
G04 #@! TO.P,R15,2*
G04 #@! TO.N,GND*
X136715000Y-97790000D03*
G04 #@! TD*
D30*
G04 #@! TO.P,D2,1,K*
G04 #@! TO.N,+12V*
X130270000Y-109220000D03*
G04 #@! TO.P,D2,2,A*
G04 #@! TO.N,V_BATT*
X126270000Y-109220000D03*
G04 #@! TD*
D22*
G04 #@! TO.P,REF\u002A\u002A,1*
G04 #@! TO.N,N/C*
X103302944Y-56697056D03*
X106697056Y-56697056D03*
X102600000Y-55000000D03*
D23*
X105000000Y-55000000D03*
D22*
X105000000Y-57400000D03*
X103302944Y-53302944D03*
X107400000Y-55000000D03*
X106697056Y-53302944D03*
X105000000Y-52600000D03*
G04 #@! TD*
D17*
G04 #@! TO.P,J3,1,Pin_1*
G04 #@! TO.N,+5V*
X190000000Y-85000000D03*
D18*
G04 #@! TO.P,J3,2,Pin_2*
G04 #@! TO.N,NPX_1_5*
X190000000Y-87540000D03*
G04 #@! TO.P,J3,3,Pin_3*
G04 #@! TO.N,GND*
X190000000Y-90080000D03*
G04 #@! TD*
D16*
G04 #@! TO.P,R31,1*
G04 #@! TO.N,+3V3*
X128270000Y-71945000D03*
G04 #@! TO.P,R31,2*
G04 #@! TO.N,TXDO_NFC*
X128270000Y-70295000D03*
G04 #@! TD*
D10*
G04 #@! TO.P,R4,1*
G04 #@! TO.N,RESET*
X126683000Y-63754000D03*
G04 #@! TO.P,R4,2*
G04 #@! TO.N,+3V3*
X128333000Y-63754000D03*
G04 #@! TD*
D19*
G04 #@! TO.P,Q6,1,G*
G04 #@! TO.N,+3V3*
X125397500Y-87945000D03*
G04 #@! TO.P,Q6,2,S*
G04 #@! TO.N,WG_D1*
X125397500Y-86045000D03*
G04 #@! TO.P,Q6,3,D*
G04 #@! TO.N,WG_D1_5*
X123522500Y-86995000D03*
G04 #@! TD*
D21*
G04 #@! TO.P,SW2,1,1*
G04 #@! TO.N,GND*
X173588000Y-54896000D03*
X167788000Y-54896000D03*
G04 #@! TO.P,SW2,2,2*
G04 #@! TO.N,BOOT*
X173588000Y-58896000D03*
X167788000Y-58896000D03*
G04 #@! TD*
D15*
G04 #@! TO.P,D8,1,K*
G04 #@! TO.N,Net-(D8-Pad1)*
X145920053Y-135623629D03*
G04 #@! TO.P,D8,2,A*
G04 #@! TO.N,+5V*
X145920053Y-137198629D03*
G04 #@! TD*
D13*
G04 #@! TO.P,R27,1*
G04 #@! TO.N,+5V*
X120650000Y-82995000D03*
G04 #@! TO.P,R27,2*
G04 #@! TO.N,WG_D0_5*
X120650000Y-84645000D03*
G04 #@! TD*
D17*
G04 #@! TO.P,J5,1,Pin_1*
G04 #@! TO.N,+5V*
X110000000Y-90000000D03*
D18*
G04 #@! TO.P,J5,2,Pin_2*
G04 #@! TO.N,WG_D1_5*
X110000000Y-87460000D03*
G04 #@! TO.P,J5,3,Pin_3*
G04 #@! TO.N,WG_D0_5*
X110000000Y-84920000D03*
G04 #@! TO.P,J5,4,Pin_4*
G04 #@! TO.N,GND*
X110000000Y-82380000D03*
G04 #@! TD*
D11*
G04 #@! TO.P,F4,1*
G04 #@! TO.N,OPEN_2_12*
X182000000Y-136250000D03*
G04 #@! TO.P,F4,2*
G04 #@! TO.N,Net-(F4-Pad2)*
X182000000Y-113750000D03*
G04 #@! TD*
D12*
G04 #@! TO.P,Q10,1,B*
G04 #@! TO.N,Net-(Q10-Pad1)*
X178132500Y-108270000D03*
G04 #@! TO.P,Q10,2,E*
G04 #@! TO.N,GND*
X178132500Y-110170000D03*
G04 #@! TO.P,Q10,3,C*
G04 #@! TO.N,Net-(Q10-Pad3)*
X180007500Y-109220000D03*
G04 #@! TD*
D15*
G04 #@! TO.P,D5,1,K*
G04 #@! TO.N,Net-(D5-Pad1)*
X143384790Y-135623629D03*
G04 #@! TO.P,D5,2,A*
G04 #@! TO.N,V_BATT*
X143384790Y-137198629D03*
G04 #@! TD*
D16*
G04 #@! TO.P,R19,1*
G04 #@! TO.N,+12V*
X170180000Y-110045000D03*
G04 #@! TO.P,R19,2*
G04 #@! TO.N,Net-(Q3-Pad1)*
X170180000Y-108395000D03*
G04 #@! TD*
D10*
G04 #@! TO.P,R7,1*
G04 #@! TO.N,ADC_VIN*
X119825000Y-97790000D03*
G04 #@! TO.P,R7,2*
G04 #@! TO.N,GND*
X121475000Y-97790000D03*
G04 #@! TD*
D25*
G04 #@! TO.P,D3,1,K*
G04 #@! TO.N,V_BATT*
X135890000Y-104680000D03*
G04 #@! TO.P,D3,2,A*
G04 #@! TO.N,GND*
X135890000Y-108680000D03*
G04 #@! TD*
D11*
G04 #@! TO.P,F2,1*
G04 #@! TO.N,V_BATT*
X130000000Y-113750000D03*
G04 #@! TO.P,F2,2*
G04 #@! TO.N,Net-(F2-Pad2)*
X130000000Y-136250000D03*
G04 #@! TD*
D24*
G04 #@! TO.P,R41,1*
G04 #@! TO.N,Net-(R41-Pad1)*
X168465000Y-105410000D03*
G04 #@! TO.P,R41,2*
G04 #@! TO.N,+3V3*
X166815000Y-105410000D03*
G04 #@! TD*
D12*
G04 #@! TO.P,Q7,1,G*
G04 #@! TO.N,Net-(Q7-Pad1)*
X184482500Y-108270000D03*
G04 #@! TO.P,Q7,2,S*
G04 #@! TO.N,+12V*
X184482500Y-110170000D03*
G04 #@! TO.P,Q7,3,D*
G04 #@! TO.N,Net-(F4-Pad2)*
X186357500Y-109220000D03*
G04 #@! TD*
G04 #@! TO.P,Q4,1,B*
G04 #@! TO.N,Net-(Q4-Pad1)*
X166067500Y-108270000D03*
G04 #@! TO.P,Q4,2,E*
G04 #@! TO.N,GND*
X166067500Y-110170000D03*
G04 #@! TO.P,Q4,3,C*
G04 #@! TO.N,Net-(Q4-Pad3)*
X167942500Y-109220000D03*
G04 #@! TD*
D31*
G04 #@! TO.P,C2,1*
G04 #@! TO.N,+3V3*
X158750000Y-105330000D03*
G04 #@! TO.P,C2,2*
G04 #@! TO.N,GND*
X158750000Y-108030000D03*
G04 #@! TD*
D16*
G04 #@! TO.P,R29,1*
G04 #@! TO.N,+5V*
X120650000Y-87820000D03*
G04 #@! TO.P,R29,2*
G04 #@! TO.N,WG_D1_5*
X120650000Y-86170000D03*
G04 #@! TD*
D17*
G04 #@! TO.P,J8,1,Pin_1*
G04 #@! TO.N,TAMPER*
X110000000Y-100000000D03*
D18*
G04 #@! TO.P,J8,2,Pin_2*
G04 #@! TO.N,GND*
X110000000Y-97460000D03*
G04 #@! TD*
D24*
G04 #@! TO.P,R24,1*
G04 #@! TO.N,Net-(Q3-Pad1)*
X172275000Y-105410000D03*
G04 #@! TO.P,R24,2*
G04 #@! TO.N,Net-(Q4-Pad3)*
X170625000Y-105410000D03*
G04 #@! TD*
D17*
G04 #@! TO.P,J7,1,Pin_1*
G04 #@! TO.N,+5V*
X190000000Y-67380000D03*
D18*
G04 #@! TO.P,J7,2,Pin_2*
G04 #@! TO.N,SCL_DISP_5*
X190000000Y-69920000D03*
G04 #@! TO.P,J7,3,Pin_3*
G04 #@! TO.N,SDA_DISP_5*
X190000000Y-72460000D03*
G04 #@! TO.P,J7,4,Pin_4*
G04 #@! TO.N,GND*
X190000000Y-75000000D03*
G04 #@! TD*
D17*
G04 #@! TO.P,J2,1,Pin_1*
G04 #@! TO.N,+12V*
X185000000Y-140000000D03*
D18*
G04 #@! TO.P,J2,2,Pin_2*
G04 #@! TO.N,OPEN_2_12*
X182460000Y-140000000D03*
G04 #@! TO.P,J2,3,Pin_3*
G04 #@! TO.N,GND*
X179920000Y-140000000D03*
G04 #@! TD*
D32*
G04 #@! TO.P,U1,1,IN+*
G04 #@! TO.N,+12V*
X140856000Y-124064000D03*
X140856000Y-126604000D03*
G04 #@! TO.P,U1,2,IN-*
G04 #@! TO.N,GND*
X140856000Y-115936000D03*
X140856000Y-113396000D03*
G04 #@! TO.P,U1,3,OUT+*
G04 #@! TO.N,+5V*
X159398000Y-126604000D03*
X159398000Y-124064000D03*
G04 #@! TO.P,U1,4,OUT-*
G04 #@! TO.N,GND*
X159398000Y-113396000D03*
X159398000Y-115936000D03*
G04 #@! TD*
D13*
G04 #@! TO.P,R20,1*
G04 #@! TO.N,+3V3*
X171450000Y-82995000D03*
G04 #@! TO.P,R20,2*
G04 #@! TO.N,NPX_1*
X171450000Y-84645000D03*
G04 #@! TD*
D17*
G04 #@! TO.P,J6,1,Pin_1*
G04 #@! TO.N,+5V*
X110000000Y-75080000D03*
D18*
G04 #@! TO.P,J6,2,Pin_2*
G04 #@! TO.N,RXDI_NFC_5*
X110000000Y-72540000D03*
G04 #@! TO.P,J6,3,Pin_3*
G04 #@! TO.N,TXDO_NFC_5*
X110000000Y-70000000D03*
G04 #@! TO.P,J6,4,Pin_4*
G04 #@! TO.N,GND*
X110000000Y-67460000D03*
G04 #@! TD*
D33*
G04 #@! TO.P,U3,1,GND*
G04 #@! TO.N,GND*
X149250000Y-104380000D03*
G04 #@! TO.P,U3,2,VO*
G04 #@! TO.N,+3V3*
X149250000Y-106680000D03*
D34*
X155550000Y-106680000D03*
D33*
G04 #@! TO.P,U3,3,VI*
G04 #@! TO.N,+5V*
X149250000Y-108980000D03*
G04 #@! TD*
D16*
G04 #@! TO.P,R12,1*
G04 #@! TO.N,Net-(D7-Pad1)*
X153525844Y-134175000D03*
G04 #@! TO.P,R12,2*
G04 #@! TO.N,GND*
X153525844Y-132525000D03*
G04 #@! TD*
D24*
G04 #@! TO.P,R9,1*
G04 #@! TO.N,ADC_VBATT*
X125285000Y-97790000D03*
G04 #@! TO.P,R9,2*
G04 #@! TO.N,GND*
X123635000Y-97790000D03*
G04 #@! TD*
D19*
G04 #@! TO.P,Q5,1,G*
G04 #@! TO.N,+3V3*
X125397500Y-84262000D03*
G04 #@! TO.P,Q5,2,S*
G04 #@! TO.N,WG_D0*
X125397500Y-82362000D03*
G04 #@! TO.P,Q5,3,D*
G04 #@! TO.N,WG_D0_5*
X123522500Y-83312000D03*
G04 #@! TD*
D13*
G04 #@! TO.P,R40,1*
G04 #@! TO.N,+5V*
X179070000Y-70295000D03*
G04 #@! TO.P,R40,2*
G04 #@! TO.N,SCL_DISP_5*
X179070000Y-71945000D03*
G04 #@! TD*
D22*
G04 #@! TO.P,REF\u002A\u002A,1*
G04 #@! TO.N,N/C*
X195000000Y-142600000D03*
X192600000Y-145000000D03*
X193302944Y-146697056D03*
X196697056Y-146697056D03*
X197400000Y-145000000D03*
X195000000Y-147400000D03*
X196697056Y-143302944D03*
D23*
X195000000Y-145000000D03*
D22*
X193302944Y-143302944D03*
G04 #@! TD*
D12*
G04 #@! TO.P,Q3,1,G*
G04 #@! TO.N,Net-(Q3-Pad1)*
X172417500Y-108270000D03*
G04 #@! TO.P,Q3,2,S*
G04 #@! TO.N,+12V*
X172417500Y-110170000D03*
G04 #@! TO.P,Q3,3,D*
G04 #@! TO.N,Net-(F3-Pad2)*
X174292500Y-109220000D03*
G04 #@! TD*
D35*
G04 #@! TO.P,J14,1*
G04 #@! TO.N,Net-(F1-Pad2)*
X110000000Y-130000000D03*
D36*
G04 #@! TO.P,J14,2*
G04 #@! TO.N,GND*
X104000000Y-130000000D03*
D37*
G04 #@! TO.P,J14,3*
G04 #@! TO.N,N/C*
X107000000Y-134700000D03*
G04 #@! TD*
D16*
G04 #@! TO.P,R26,1*
G04 #@! TO.N,+3V3*
X128270000Y-84137000D03*
G04 #@! TO.P,R26,2*
G04 #@! TO.N,WG_D0*
X128270000Y-82487000D03*
G04 #@! TD*
D17*
G04 #@! TO.P,J4,1,Pin_1*
G04 #@! TO.N,+5V*
X190000000Y-100000000D03*
D18*
G04 #@! TO.P,J4,2,Pin_2*
G04 #@! TO.N,NPX_2_5*
X190000000Y-102540000D03*
G04 #@! TO.P,J4,3,Pin_3*
G04 #@! TO.N,GND*
X190000000Y-105080000D03*
G04 #@! TD*
D15*
G04 #@! TO.P,D9,1,K*
G04 #@! TO.N,Net-(D9-Pad1)*
X148455316Y-135623629D03*
G04 #@! TO.P,D9,2,A*
G04 #@! TO.N,+3V3*
X148455316Y-137198629D03*
G04 #@! TD*
D16*
G04 #@! TO.P,R8,1*
G04 #@! TO.N,Net-(D4-Pad1)*
X140849527Y-134175000D03*
G04 #@! TO.P,R8,2*
G04 #@! TO.N,GND*
X140849527Y-132525000D03*
G04 #@! TD*
G04 #@! TO.P,R28,1*
G04 #@! TO.N,+3V3*
X128270000Y-87820000D03*
G04 #@! TO.P,R28,2*
G04 #@! TO.N,WG_D1*
X128270000Y-86170000D03*
G04 #@! TD*
D10*
G04 #@! TO.P,R14,1*
G04 #@! TO.N,ADC_V3*
X142685000Y-97790000D03*
G04 #@! TO.P,R14,2*
G04 #@! TO.N,+3V3*
X144335000Y-97790000D03*
G04 #@! TD*
D16*
G04 #@! TO.P,R16,1*
G04 #@! TO.N,Net-(D8-Pad1)*
X145920053Y-134175000D03*
G04 #@! TO.P,R16,2*
G04 #@! TO.N,GND*
X145920053Y-132525000D03*
G04 #@! TD*
D24*
G04 #@! TO.P,R42,1*
G04 #@! TO.N,Net-(R42-Pad1)*
X179450000Y-105410000D03*
G04 #@! TO.P,R42,2*
G04 #@! TO.N,+3V3*
X177800000Y-105410000D03*
G04 #@! TD*
D38*
G04 #@! TO.P,J12,1,Pin_1*
G04 #@! TO.N,GND*
X195062500Y-128905000D03*
D39*
G04 #@! TO.P,J12,2,Pin_2*
G04 #@! TO.N,+5V*
X192522500Y-128905000D03*
G04 #@! TO.P,J12,3,Pin_3*
G04 #@! TO.N,PI_POWERED*
X195062500Y-126365000D03*
G04 #@! TO.P,J12,4,Pin_4*
G04 #@! TO.N,PI_HEARTBEAT*
X192522500Y-126365000D03*
G04 #@! TO.P,J12,5,Pin_5*
G04 #@! TO.N,PI_OPEN_CMD_1*
X195062500Y-123825000D03*
G04 #@! TO.P,J12,6,Pin_6*
G04 #@! TO.N,PI_OPEN_CMD_2*
X192522500Y-123825000D03*
G04 #@! TO.P,J12,7,Pin_7*
G04 #@! TO.N,RXDI_PI*
X195062500Y-121285000D03*
G04 #@! TO.P,J12,8,Pin_8*
G04 #@! TO.N,TXDO_PI*
X192522500Y-121285000D03*
G04 #@! TD*
D24*
G04 #@! TO.P,R13,1*
G04 #@! TO.N,ADC_V5*
X132905000Y-97790000D03*
G04 #@! TO.P,R13,2*
G04 #@! TO.N,+5V*
X131255000Y-97790000D03*
G04 #@! TD*
D21*
G04 #@! TO.P,SW3,1,1*
G04 #@! TO.N,Net-(Q4-Pad1)*
X173080000Y-98330000D03*
X167280000Y-98330000D03*
G04 #@! TO.P,SW3,2,2*
G04 #@! TO.N,Net-(R41-Pad1)*
X173080000Y-102330000D03*
X167280000Y-102330000D03*
G04 #@! TD*
D24*
G04 #@! TO.P,R17,1*
G04 #@! TO.N,ADC_V3*
X140525000Y-97790000D03*
G04 #@! TO.P,R17,2*
G04 #@! TO.N,GND*
X138875000Y-97790000D03*
G04 #@! TD*
D40*
G04 #@! TO.P,R2,1*
G04 #@! TO.N,Net-(R2-Pad1)*
X125760000Y-105410000D03*
G04 #@! TO.P,R2,2*
G04 #@! TO.N,V_BATT*
X131860000Y-105410000D03*
G04 #@! TD*
D16*
G04 #@! TO.P,R23,1*
G04 #@! TO.N,+5V*
X179070000Y-88455000D03*
G04 #@! TO.P,R23,2*
G04 #@! TO.N,NPX_2_5*
X179070000Y-86805000D03*
G04 #@! TD*
D21*
G04 #@! TO.P,SW4,1,1*
G04 #@! TO.N,Net-(Q10-Pad1)*
X178710000Y-98330000D03*
X184510000Y-98330000D03*
G04 #@! TO.P,SW4,2,2*
G04 #@! TO.N,Net-(R42-Pad1)*
X178710000Y-102330000D03*
X184510000Y-102330000D03*
G04 #@! TD*
D16*
G04 #@! TO.P,R18,1*
G04 #@! TO.N,Net-(D9-Pad1)*
X148455316Y-134175000D03*
G04 #@! TO.P,R18,2*
G04 #@! TO.N,GND*
X148455316Y-132525000D03*
G04 #@! TD*
D12*
G04 #@! TO.P,Q2,1,G*
G04 #@! TO.N,+3V3*
X174322500Y-86680000D03*
G04 #@! TO.P,Q2,2,S*
G04 #@! TO.N,NPX_2*
X174322500Y-88580000D03*
G04 #@! TO.P,Q2,3,D*
G04 #@! TO.N,NPX_2_5*
X176197500Y-87630000D03*
G04 #@! TD*
D15*
G04 #@! TO.P,D6,1,K*
G04 #@! TO.N,Net-(D6-Pad1)*
X150990579Y-135623629D03*
G04 #@! TO.P,D6,2,A*
G04 #@! TO.N,OPEN_1_12*
X150990579Y-137198629D03*
G04 #@! TD*
D41*
G04 #@! TO.P,U4,1,GND*
G04 #@! TO.N,GND*
X141500000Y-61745000D03*
G04 #@! TO.P,U4,2,VDD*
G04 #@! TO.N,+3V3*
X141500000Y-63015000D03*
G04 #@! TO.P,U4,3,EN*
G04 #@! TO.N,RESET*
X141500000Y-64285000D03*
G04 #@! TO.P,U4,4,SENSOR_VP*
G04 #@! TO.N,unconnected-(U4-Pad4)*
X141500000Y-65555000D03*
G04 #@! TO.P,U4,5,SENSOR_VN*
G04 #@! TO.N,unconnected-(U4-Pad5)*
X141500000Y-66825000D03*
G04 #@! TO.P,U4,6,IO34*
G04 #@! TO.N,ADC_VIN*
X141500000Y-68095000D03*
G04 #@! TO.P,U4,7,IO35*
G04 #@! TO.N,ADC_VBATT*
X141500000Y-69365000D03*
G04 #@! TO.P,U4,8,IO32*
G04 #@! TO.N,ADC_V5*
X141500000Y-70635000D03*
G04 #@! TO.P,U4,9,IO33*
G04 #@! TO.N,ADC_V3*
X141500000Y-71905000D03*
G04 #@! TO.P,U4,10,IO25*
G04 #@! TO.N,PI_OPEN_CMD_2*
X141500000Y-73175000D03*
G04 #@! TO.P,U4,11,IO26*
G04 #@! TO.N,TXDO_NFC*
X141500000Y-74445000D03*
G04 #@! TO.P,U4,12,IO27*
G04 #@! TO.N,RXDI_NFC*
X141500000Y-75715000D03*
G04 #@! TO.P,U4,13,IO14*
G04 #@! TO.N,WG_D0*
X141500000Y-76985000D03*
G04 #@! TO.P,U4,14,IO12*
G04 #@! TO.N,OPEN_1*
X141500000Y-78255000D03*
D42*
G04 #@! TO.P,U4,15,GND*
G04 #@! TO.N,GND*
X144285000Y-79255000D03*
G04 #@! TO.P,U4,16,IO13*
G04 #@! TO.N,WG_D1*
X145555000Y-79255000D03*
G04 #@! TO.P,U4,17,SHD/SD2*
G04 #@! TO.N,unconnected-(U4-Pad17)*
X146825000Y-79255000D03*
G04 #@! TO.P,U4,18,SWP/SD3*
G04 #@! TO.N,unconnected-(U4-Pad18)*
X148095000Y-79255000D03*
G04 #@! TO.P,U4,19,SCS/CMD*
G04 #@! TO.N,unconnected-(U4-Pad19)*
X149365000Y-79255000D03*
G04 #@! TO.P,U4,20,SCK/CLK*
G04 #@! TO.N,unconnected-(U4-Pad20)*
X150635000Y-79255000D03*
G04 #@! TO.P,U4,21,SDO/SD0*
G04 #@! TO.N,unconnected-(U4-Pad21)*
X151905000Y-79255000D03*
G04 #@! TO.P,U4,22,SDI/SD1*
G04 #@! TO.N,unconnected-(U4-Pad22)*
X153175000Y-79255000D03*
G04 #@! TO.P,U4,23,IO15*
G04 #@! TO.N,TAMPER*
X154445000Y-79255000D03*
G04 #@! TO.P,U4,24,IO2*
G04 #@! TO.N,OPEN_2*
X155715000Y-79255000D03*
D41*
G04 #@! TO.P,U4,25,IO0*
G04 #@! TO.N,BOOT*
X158500000Y-78255000D03*
G04 #@! TO.P,U4,26,IO4*
G04 #@! TO.N,NPX_2*
X158500000Y-76985000D03*
G04 #@! TO.P,U4,27,IO16*
G04 #@! TO.N,PI_HEARTBEAT*
X158500000Y-75715000D03*
G04 #@! TO.P,U4,28,IO17*
G04 #@! TO.N,PI_POWERED*
X158500000Y-74445000D03*
G04 #@! TO.P,U4,29,IO5*
G04 #@! TO.N,NPX_1*
X158500000Y-73175000D03*
G04 #@! TO.P,U4,30,IO18*
G04 #@! TO.N,TXDO_PI*
X158500000Y-71905000D03*
G04 #@! TO.P,U4,31,IO19*
G04 #@! TO.N,RXDI_PI*
X158500000Y-70635000D03*
G04 #@! TO.P,U4,32,NC*
G04 #@! TO.N,unconnected-(U4-Pad32)*
X158500000Y-69365000D03*
G04 #@! TO.P,U4,33,IO21*
G04 #@! TO.N,SDA_DISP*
X158500000Y-68095000D03*
G04 #@! TO.P,U4,34,RXD0/IO3*
G04 #@! TO.N,RXDI_PROG*
X158500000Y-66825000D03*
G04 #@! TO.P,U4,35,TXD0/IO1*
G04 #@! TO.N,TXDO_PROG*
X158500000Y-65555000D03*
G04 #@! TO.P,U4,36,IO22*
G04 #@! TO.N,SCL_DISP*
X158500000Y-64285000D03*
G04 #@! TO.P,U4,37,IO23*
G04 #@! TO.N,PI_OPEN_CMD_1*
X158500000Y-63015000D03*
G04 #@! TO.P,U4,38,GND*
G04 #@! TO.N,GND*
X158500000Y-61745000D03*
D43*
G04 #@! TO.P,U4,39,GND*
X149000000Y-69245000D03*
G04 #@! TD*
D12*
G04 #@! TO.P,Q12,1,G*
G04 #@! TO.N,+3V3*
X174322500Y-70170000D03*
G04 #@! TO.P,Q12,2,S*
G04 #@! TO.N,SCL_DISP*
X174322500Y-72070000D03*
G04 #@! TO.P,Q12,3,D*
G04 #@! TO.N,SCL_DISP_5*
X176197500Y-71120000D03*
G04 #@! TD*
D22*
G04 #@! TO.P,REF\u002A\u002A,1*
G04 #@! TO.N,N/C*
X103302944Y-146697056D03*
X105000000Y-147400000D03*
X107400000Y-145000000D03*
D23*
X105000000Y-145000000D03*
D22*
X106697056Y-146697056D03*
X106697056Y-143302944D03*
X105000000Y-142600000D03*
X103302944Y-143302944D03*
X102600000Y-145000000D03*
G04 #@! TD*
D16*
G04 #@! TO.P,R11,1*
G04 #@! TO.N,Net-(D6-Pad1)*
X150990579Y-134175000D03*
G04 #@! TO.P,R11,2*
G04 #@! TO.N,GND*
X150990579Y-132525000D03*
G04 #@! TD*
D13*
G04 #@! TO.P,R22,1*
G04 #@! TO.N,+3V3*
X171450000Y-86805000D03*
G04 #@! TO.P,R22,2*
G04 #@! TO.N,NPX_2*
X171450000Y-88455000D03*
G04 #@! TD*
G04 #@! TO.P,R21,1*
G04 #@! TO.N,+5V*
X179070000Y-82995000D03*
G04 #@! TO.P,R21,2*
G04 #@! TO.N,NPX_1_5*
X179070000Y-84645000D03*
G04 #@! TD*
D17*
G04 #@! TO.P,J10,1,Pin_1*
G04 #@! TO.N,Net-(F2-Pad2)*
X132847000Y-139897000D03*
D18*
G04 #@! TO.P,J10,2,Pin_2*
G04 #@! TO.N,GND*
X130307000Y-139897000D03*
G04 #@! TD*
D44*
G04 #@! TO.P,C5,1*
G04 #@! TO.N,RESET*
X126733000Y-61214000D03*
G04 #@! TO.P,C5,2*
G04 #@! TO.N,GND*
X128283000Y-61214000D03*
G04 #@! TD*
D45*
G04 #@! TO.N,+5V*
X181980212Y-90739810D03*
X181864000Y-75692000D03*
X181864000Y-83312000D03*
X138176000Y-106680000D03*
X181864000Y-70612000D03*
G04 #@! TO.N,GND*
X137668000Y-97028000D03*
X148844000Y-73152000D03*
D46*
X135128000Y-61468000D03*
D45*
X160528000Y-61976000D03*
X147320000Y-131572000D03*
X176784000Y-111252000D03*
X122428000Y-97028000D03*
X175768000Y-56388000D03*
X144780000Y-77216000D03*
X165100000Y-111252000D03*
G04 #@! TO.N,+3V3*
X172783000Y-86805000D03*
X172911000Y-82995000D03*
X126939000Y-87945000D03*
X144272000Y-96520000D03*
X126812000Y-75880000D03*
X172783000Y-74105000D03*
D46*
X135685000Y-64467000D03*
D45*
X165824500Y-104140000D03*
X126934000Y-84328000D03*
X127000000Y-72136000D03*
D46*
X155448000Y-102616000D03*
D45*
X177000500Y-104140000D03*
X172911000Y-70295000D03*
G04 #@! TO.N,RESET*
X187452000Y-57912000D03*
D46*
G04 #@! TO.N,+12V*
X178308000Y-113284000D03*
X166116000Y-113284000D03*
D45*
G04 #@! TO.N,TXDO_PROG*
X160528000Y-65532000D03*
G04 #@! TO.N,RXDI_PROG*
X160528000Y-66548000D03*
G04 #@! TO.N,PI_POWERED*
X186436000Y-115824000D03*
X161040299Y-76195701D03*
G04 #@! TO.N,PI_HEARTBEAT*
X161036000Y-77216000D03*
G04 #@! TO.N,PI_OPEN_CMD_1*
X169672000Y-68072000D03*
G04 #@! TO.N,PI_OPEN_CMD_2*
X148844000Y-74676000D03*
G04 #@! TO.N,RXDI_PI*
X160528000Y-70612000D03*
G04 #@! TO.N,TXDO_PI*
X160528000Y-72136000D03*
G04 #@! TO.N,Net-(R3-Pad2)*
X128524000Y-102616000D03*
G04 #@! TO.N,ADC_VIN*
X135128000Y-95504000D03*
X139700000Y-68072000D03*
G04 #@! TO.N,ADC_VBATT*
X136144000Y-95504000D03*
X139704299Y-69092299D03*
G04 #@! TO.N,ADC_V5*
X137160000Y-95504000D03*
X139700000Y-70612000D03*
G04 #@! TO.N,ADC_V3*
X139700000Y-72136000D03*
X138176000Y-95504000D03*
G04 #@! TO.N,OPEN_1*
X142240000Y-81280000D03*
X155448000Y-81280000D03*
G04 #@! TD*
D47*
G04 #@! TO.N,+5V*
X179070000Y-88455000D02*
X181354810Y-90739810D01*
X139700000Y-132457065D02*
X139700000Y-133096000D01*
X110000000Y-75080000D02*
X108825000Y-73905000D01*
X138176000Y-104166000D02*
X138176000Y-106680000D01*
X108825000Y-66943000D02*
X109483000Y-66285000D01*
X181547000Y-82995000D02*
X181864000Y-83312000D01*
X139700000Y-133096000D02*
X139854000Y-133250000D01*
X179070000Y-75755000D02*
X181801000Y-75755000D01*
D48*
X159398000Y-124064000D02*
X159398000Y-126604000D01*
D47*
X118470000Y-90000000D02*
X120650000Y-87820000D01*
D48*
X149250000Y-113916000D02*
X159398000Y-124064000D01*
X146050000Y-108030000D02*
X147000000Y-108980000D01*
D47*
X108825000Y-73905000D02*
X108825000Y-66943000D01*
X110000000Y-75080000D02*
X119975000Y-75080000D01*
X145553065Y-126604000D02*
X139700000Y-132457065D01*
D48*
X149250000Y-108980000D02*
X149250000Y-113916000D01*
D47*
X179070000Y-82995000D02*
X181547000Y-82995000D01*
X145120053Y-134692801D02*
X145120053Y-136398629D01*
X136570000Y-103105000D02*
X137115000Y-103105000D01*
X139854000Y-133250000D02*
X143677252Y-133250000D01*
X181801000Y-75755000D02*
X181864000Y-75692000D01*
X119975000Y-75080000D02*
X120650000Y-75755000D01*
X145920053Y-137198629D02*
X145920000Y-137198682D01*
X116640000Y-66285000D02*
X120650000Y-70295000D01*
X137115000Y-103105000D02*
X138176000Y-104166000D01*
X159398000Y-126604000D02*
X145553065Y-126604000D01*
X181547000Y-70295000D02*
X181864000Y-70612000D01*
X179070000Y-70295000D02*
X181547000Y-70295000D01*
D48*
X147000000Y-108980000D02*
X149250000Y-108980000D01*
D47*
X145120053Y-136398629D02*
X145920053Y-137198629D01*
X131255000Y-97790000D02*
X136570000Y-103105000D01*
X143677252Y-133250000D02*
X145120053Y-134692801D01*
X181354810Y-90739810D02*
X181980212Y-90739810D01*
X110000000Y-90000000D02*
X118470000Y-90000000D01*
X145920000Y-137198682D02*
X145920000Y-140000000D01*
X120650000Y-75755000D02*
X120650000Y-82995000D01*
X109483000Y-66285000D02*
X116640000Y-66285000D01*
G04 #@! TO.N,GND*
X149000000Y-72996000D02*
X148844000Y-73152000D01*
X177866000Y-110170000D02*
X176784000Y-111252000D01*
X137668000Y-97536000D02*
X137668000Y-97028000D01*
X121475000Y-97790000D02*
X122682000Y-97790000D01*
X144285000Y-77711000D02*
X144780000Y-77216000D01*
X137922000Y-97790000D02*
X137668000Y-97536000D01*
X148455316Y-132525000D02*
X148273000Y-132525000D01*
D48*
X132080000Y-61517000D02*
X135079000Y-61517000D01*
D47*
X178132500Y-110170000D02*
X177866000Y-110170000D01*
D49*
X143384790Y-132525000D02*
X145920053Y-132525000D01*
D50*
X128283000Y-61214000D02*
X129553000Y-61214000D01*
D47*
X166067500Y-110170000D02*
X166067500Y-110284500D01*
X136715000Y-97790000D02*
X137922000Y-97790000D01*
X134165000Y-60505000D02*
X135128000Y-61468000D01*
D49*
X140849527Y-132525000D02*
X143384790Y-132525000D01*
D47*
X173588000Y-54896000D02*
X167788000Y-54896000D01*
D51*
X130048000Y-61709000D02*
X131888000Y-61709000D01*
D47*
X122682000Y-97790000D02*
X123635000Y-97790000D01*
D50*
X129553000Y-61214000D02*
X130048000Y-61709000D01*
D47*
X134165000Y-56621000D02*
X134165000Y-60505000D01*
D50*
X141500000Y-61745000D02*
X138961000Y-61745000D01*
D48*
X145475000Y-105330000D02*
X146050000Y-105330000D01*
D47*
X132440000Y-54896000D02*
X134165000Y-56621000D01*
D49*
X150990579Y-132525000D02*
X153525844Y-132525000D01*
D47*
X175768000Y-56388000D02*
X174276000Y-54896000D01*
X132440000Y-54896000D02*
X126640000Y-54896000D01*
X122682000Y-97790000D02*
X122428000Y-97536000D01*
D49*
X148455316Y-132525000D02*
X150990579Y-132525000D01*
D48*
X135890000Y-108680000D02*
X135939001Y-108729001D01*
X135079000Y-61517000D02*
X135128000Y-61468000D01*
D47*
X160297000Y-61745000D02*
X160528000Y-61976000D01*
D50*
X138961000Y-61745000D02*
X138684000Y-61468000D01*
D47*
X122428000Y-97536000D02*
X122428000Y-97028000D01*
D48*
X140970000Y-107940000D02*
X142865000Y-107940000D01*
D47*
X148273000Y-132525000D02*
X147320000Y-131572000D01*
X149000000Y-69245000D02*
X149000000Y-72996000D01*
D48*
X147000000Y-104380000D02*
X149250000Y-104380000D01*
X135939001Y-108729001D02*
X140180999Y-108729001D01*
X135128000Y-61468000D02*
X138684000Y-61468000D01*
D47*
X174276000Y-54896000D02*
X173588000Y-54896000D01*
D48*
X158750000Y-112748000D02*
X159398000Y-113396000D01*
X140856000Y-113396000D02*
X140856000Y-115936000D01*
D49*
X145920053Y-132525000D02*
X148455316Y-132525000D01*
D48*
X146050000Y-105330000D02*
X147000000Y-104380000D01*
D47*
X158500000Y-61745000D02*
X160297000Y-61745000D01*
X144285000Y-79255000D02*
X144285000Y-77711000D01*
D48*
X140180999Y-108729001D02*
X140970000Y-107940000D01*
X158750000Y-108030000D02*
X158750000Y-112748000D01*
D51*
X131888000Y-61709000D02*
X132080000Y-61517000D01*
D47*
X166067500Y-110284500D02*
X165100000Y-111252000D01*
X137922000Y-97790000D02*
X138875000Y-97790000D01*
D48*
X159398000Y-113396000D02*
X159398000Y-115936000D01*
X142865000Y-107940000D02*
X145475000Y-105330000D01*
D47*
G04 #@! TO.N,+3V3*
X174197500Y-74105000D02*
X174322500Y-73980000D01*
X177800000Y-105410000D02*
X177000500Y-104610500D01*
X177000500Y-104610500D02*
X177000500Y-104140000D01*
X171450000Y-86805000D02*
X174197500Y-86805000D01*
X128145000Y-87945000D02*
X128270000Y-87820000D01*
X126934000Y-72070000D02*
X128145000Y-72070000D01*
X171450000Y-74105000D02*
X174197500Y-74105000D01*
D48*
X156900000Y-105330000D02*
X158750000Y-105330000D01*
D47*
X126934000Y-72070000D02*
X127000000Y-72136000D01*
D51*
X130507000Y-64467000D02*
X130048000Y-64008000D01*
D47*
X144335000Y-97790000D02*
X144335000Y-96583000D01*
X171450000Y-70295000D02*
X172911000Y-70295000D01*
D51*
X132080000Y-64467000D02*
X138225000Y-64467000D01*
X138225000Y-64467000D02*
X139192000Y-63500000D01*
D47*
X123765000Y-87945000D02*
X125397500Y-87945000D01*
D50*
X139192000Y-63500000D02*
X139677000Y-63015000D01*
D47*
X125397500Y-72070000D02*
X126934000Y-72070000D01*
X148460000Y-137203313D02*
X148460000Y-140000000D01*
X155550000Y-117958000D02*
X155550000Y-106680000D01*
D48*
X155550000Y-102718000D02*
X155448000Y-102616000D01*
D47*
X166815000Y-105410000D02*
X165824500Y-104419500D01*
X154786000Y-133250000D02*
X150698117Y-133250000D01*
D50*
X130048000Y-63259000D02*
X128828000Y-63259000D01*
D47*
X128145000Y-75880000D02*
X128270000Y-75755000D01*
X125397500Y-84262000D02*
X126868000Y-84262000D01*
X113284000Y-98426000D02*
X123765000Y-87945000D01*
D50*
X141500000Y-63015000D02*
X139677000Y-63015000D01*
D47*
X128079000Y-84328000D02*
X128270000Y-84137000D01*
X126934000Y-84328000D02*
X128079000Y-84328000D01*
X171450000Y-82995000D02*
X174197500Y-82995000D01*
X149255316Y-136398629D02*
X148455316Y-137198629D01*
X172911000Y-70295000D02*
X174197500Y-70295000D01*
X148455316Y-137198629D02*
X148460000Y-137203313D01*
X150698117Y-133250000D02*
X149255316Y-134692801D01*
X174197500Y-70295000D02*
X174322500Y-70170000D01*
X161036000Y-127000000D02*
X154786000Y-133250000D01*
D48*
X155550000Y-106680000D02*
X156900000Y-105330000D01*
D47*
X165824500Y-104419500D02*
X165824500Y-104140000D01*
X174197500Y-82995000D02*
X174322500Y-82870000D01*
X125397500Y-87945000D02*
X128145000Y-87945000D01*
X174197500Y-86805000D02*
X174322500Y-86680000D01*
D48*
X149250000Y-106680000D02*
X155550000Y-106680000D01*
D47*
X161036000Y-123444000D02*
X161036000Y-127000000D01*
D50*
X128828000Y-63259000D02*
X128333000Y-63754000D01*
D51*
X139192000Y-63500000D02*
X139274500Y-63417500D01*
X132080000Y-64467000D02*
X130507000Y-64467000D01*
D47*
X144335000Y-96583000D02*
X144272000Y-96520000D01*
X149255316Y-134692801D02*
X149255316Y-136398629D01*
X128145000Y-72070000D02*
X128270000Y-71945000D01*
X155550000Y-117958000D02*
X161036000Y-123444000D01*
X126868000Y-84262000D02*
X126934000Y-84328000D01*
D48*
X155550000Y-106680000D02*
X155550000Y-102718000D01*
D47*
X125397500Y-75880000D02*
X128145000Y-75880000D01*
G04 #@! TO.N,RESET*
X126733000Y-58989000D02*
X126640000Y-58896000D01*
X139192000Y-66040000D02*
X139192000Y-65343000D01*
X139192000Y-65343000D02*
X140250000Y-64285000D01*
X166063000Y-58071000D02*
X185691000Y-58071000D01*
X140250000Y-64285000D02*
X141500000Y-64285000D01*
X144780000Y-60452000D02*
X164592000Y-60452000D01*
X141732000Y-64516000D02*
X142099000Y-64516000D01*
X126733000Y-61214000D02*
X126733000Y-63704000D01*
X126683000Y-63754000D02*
X128969000Y-66040000D01*
X144272000Y-62343000D02*
X144272000Y-60960000D01*
X165608000Y-59436000D02*
X165608000Y-58526000D01*
X126733000Y-63704000D02*
X126683000Y-63754000D01*
X144272000Y-60960000D02*
X144780000Y-60452000D01*
X165608000Y-58526000D02*
X166063000Y-58071000D01*
X126733000Y-61214000D02*
X126733000Y-58989000D01*
X142099000Y-64516000D02*
X144272000Y-62343000D01*
X128969000Y-66040000D02*
X139192000Y-66040000D01*
X187293000Y-58071000D02*
X187452000Y-57912000D01*
X164592000Y-60452000D02*
X165608000Y-59436000D01*
X185691000Y-58071000D02*
X187293000Y-58071000D01*
X126640000Y-58896000D02*
X132440000Y-58896000D01*
D52*
G04 #@! TO.N,Net-(F1-Pad2)*
X120000000Y-138250000D02*
X118000000Y-136250000D01*
X120000000Y-140000000D02*
X120000000Y-138250000D01*
X110000000Y-130000000D02*
X111750000Y-130000000D01*
X111750000Y-130000000D02*
X118000000Y-136250000D01*
G04 #@! TO.N,Net-(D1-Pad2)*
X118000000Y-113750000D02*
X114300000Y-110050000D01*
X114300000Y-110050000D02*
X114300000Y-108680000D01*
D47*
G04 #@! TO.N,+12V*
X170305000Y-110170000D02*
X170180000Y-110045000D01*
D48*
X169505000Y-110720000D02*
X168680000Y-110720000D01*
X183705000Y-110045000D02*
X183896000Y-110236000D01*
X181570000Y-110720000D02*
X180872000Y-110720000D01*
X171513000Y-110045000D02*
X171638000Y-110170000D01*
D52*
X130270000Y-109220000D02*
X140856000Y-119806000D01*
D47*
X172417500Y-110170000D02*
X170305000Y-110170000D01*
D48*
X182245000Y-110045000D02*
X183705000Y-110045000D01*
D52*
X140856000Y-124064000D02*
X140856000Y-126604000D01*
D48*
X182245000Y-110045000D02*
X181570000Y-110720000D01*
X168680000Y-110720000D02*
X166116000Y-113284000D01*
X170180000Y-110045000D02*
X169505000Y-110720000D01*
X170180000Y-110045000D02*
X171513000Y-110045000D01*
D52*
X140856000Y-119806000D02*
X140856000Y-124064000D01*
D48*
X180872000Y-110720000D02*
X178308000Y-113284000D01*
G04 #@! TO.N,V_BATT*
X135160000Y-105410000D02*
X135890000Y-104680000D01*
D47*
X132021501Y-115771501D02*
X130000000Y-113750000D01*
D48*
X130080000Y-105410000D02*
X131860000Y-105410000D01*
D47*
X129635000Y-101600000D02*
X129635000Y-98330000D01*
D52*
X126270000Y-109220000D02*
X126270000Y-110020000D01*
X126270000Y-110020000D02*
X130000000Y-113750000D01*
D47*
X142622290Y-136436129D02*
X140418048Y-136436129D01*
D48*
X126270000Y-109220000D02*
X130080000Y-105410000D01*
D47*
X132021501Y-128039582D02*
X132021501Y-115771501D01*
X140418048Y-136436129D02*
X132021501Y-128039582D01*
X143384790Y-137198629D02*
X143380000Y-137203419D01*
X143384790Y-137198629D02*
X142622290Y-136436129D01*
D48*
X131860000Y-105410000D02*
X135160000Y-105410000D01*
D47*
X129635000Y-98330000D02*
X129095000Y-97790000D01*
X129635000Y-101600000D02*
X131860000Y-103825000D01*
X143380000Y-137203419D02*
X143380000Y-140000000D01*
X131860000Y-103825000D02*
X131860000Y-105410000D01*
D49*
G04 #@! TO.N,Net-(D4-Pad1)*
X140849527Y-135623629D02*
X140849527Y-134175000D01*
D47*
G04 #@! TO.N,V_IN*
X112268000Y-106712000D02*
X112268000Y-112776000D01*
X112268000Y-112776000D02*
X133096000Y-133604000D01*
X116015000Y-98635000D02*
X118625000Y-101245000D01*
D48*
X114300000Y-104680000D02*
X115190000Y-104680000D01*
D47*
X114300000Y-104680000D02*
X112268000Y-106712000D01*
D48*
X115190000Y-104680000D02*
X118625000Y-101245000D01*
D47*
X140840000Y-137208156D02*
X140840000Y-140000000D01*
X140849527Y-137198629D02*
X140840000Y-137208156D01*
X140208000Y-137160000D02*
X140390500Y-137160000D01*
X116015000Y-97790000D02*
X116015000Y-98635000D01*
X136652000Y-133604000D02*
X140208000Y-137160000D01*
X133096000Y-133604000D02*
X136652000Y-133604000D01*
D49*
G04 #@! TO.N,Net-(D5-Pad1)*
X143384790Y-134175000D02*
X143384790Y-135623629D01*
G04 #@! TO.N,Net-(D6-Pad1)*
X150990579Y-135623629D02*
X150990579Y-134175000D01*
D52*
G04 #@! TO.N,OPEN_1_12*
X167460000Y-140000000D02*
X167460000Y-138790000D01*
D47*
X151000000Y-137208050D02*
X151000000Y-140000000D01*
D52*
X167460000Y-138790000D02*
X170000000Y-136250000D01*
D47*
X150990579Y-137198629D02*
X151000000Y-137208050D01*
X169813871Y-136436129D02*
X151753079Y-136436129D01*
X170000000Y-136250000D02*
X169813871Y-136436129D01*
X151753079Y-136436129D02*
X150990579Y-137198629D01*
D49*
G04 #@! TO.N,Net-(D7-Pad1)*
X153525844Y-134175000D02*
X153525844Y-135623629D01*
D52*
G04 #@! TO.N,OPEN_2_12*
X182460000Y-140000000D02*
X182460000Y-136710000D01*
D47*
X153525844Y-137198629D02*
X153540000Y-137212785D01*
D52*
X182460000Y-136710000D02*
X182000000Y-136250000D01*
D47*
X153540000Y-137212785D02*
X153540000Y-140000000D01*
X177694000Y-136250000D02*
X172212000Y-141732000D01*
X182000000Y-136250000D02*
X177694000Y-136250000D01*
X155272000Y-141732000D02*
X153540000Y-140000000D01*
X172212000Y-141732000D02*
X155272000Y-141732000D01*
D49*
G04 #@! TO.N,Net-(D8-Pad1)*
X145920053Y-135623629D02*
X145920053Y-134175000D01*
G04 #@! TO.N,Net-(D9-Pad1)*
X148455316Y-134175000D02*
X148455316Y-135623629D01*
D52*
G04 #@! TO.N,Net-(F2-Pad2)*
X132847000Y-139897000D02*
X132847000Y-139097000D01*
X132847000Y-139097000D02*
X130000000Y-136250000D01*
D48*
G04 #@! TO.N,Net-(F3-Pad2)*
X174355000Y-110879188D02*
X171484188Y-113750000D01*
X174292500Y-109220000D02*
X174355000Y-109282500D01*
X174355000Y-109282500D02*
X174355000Y-110879188D01*
X171484188Y-113750000D02*
X170000000Y-113750000D01*
G04 #@! TO.N,Net-(F4-Pad2)*
X183549188Y-113750000D02*
X182000000Y-113750000D01*
X186357500Y-109220000D02*
X186420000Y-109282500D01*
X186420000Y-109282500D02*
X186420000Y-110879188D01*
X186420000Y-110879188D02*
X183549188Y-113750000D01*
D47*
G04 #@! TO.N,NPX_1_5*
X176197500Y-83820000D02*
X178245000Y-83820000D01*
X178245000Y-83820000D02*
X179070000Y-84645000D01*
X179070000Y-84645000D02*
X187105000Y-84645000D01*
X187105000Y-84645000D02*
X190000000Y-87540000D01*
G04 #@! TO.N,NPX_2_5*
X188825000Y-101365000D02*
X190000000Y-102540000D01*
X176197500Y-87630000D02*
X178245000Y-87630000D01*
X178245000Y-87630000D02*
X179070000Y-86805000D01*
X179070000Y-86805000D02*
X188825000Y-96560000D01*
X188825000Y-96560000D02*
X188825000Y-101365000D01*
G04 #@! TO.N,WG_D0_5*
X120375000Y-84920000D02*
X120650000Y-84645000D01*
X120650000Y-84645000D02*
X122189500Y-84645000D01*
X110000000Y-84920000D02*
X120375000Y-84920000D01*
X122189500Y-84645000D02*
X123522500Y-83312000D01*
G04 #@! TO.N,WG_D1_5*
X119360000Y-87460000D02*
X120650000Y-86170000D01*
X120650000Y-86170000D02*
X122697500Y-86170000D01*
X122697500Y-86170000D02*
X123522500Y-86995000D01*
X110000000Y-87460000D02*
X119360000Y-87460000D01*
G04 #@! TO.N,TXDO_NFC_5*
X110000000Y-70000000D02*
X118705000Y-70000000D01*
X120650000Y-71945000D02*
X122697500Y-71945000D01*
X122697500Y-71945000D02*
X123522500Y-71120000D01*
X118705000Y-70000000D02*
X120650000Y-71945000D01*
G04 #@! TO.N,RXDI_NFC_5*
X110000000Y-72540000D02*
X119085000Y-72540000D01*
X119085000Y-72540000D02*
X120650000Y-74105000D01*
X120650000Y-74105000D02*
X122697500Y-74105000D01*
X122697500Y-74105000D02*
X123522500Y-74930000D01*
G04 #@! TO.N,SDA_DISP_5*
X188355000Y-74105000D02*
X190000000Y-72460000D01*
X176197500Y-74930000D02*
X178245000Y-74930000D01*
X179070000Y-74105000D02*
X188355000Y-74105000D01*
X178245000Y-74930000D02*
X179070000Y-74105000D01*
G04 #@! TO.N,SCL_DISP_5*
X176197500Y-71120000D02*
X178245000Y-71120000D01*
X179070000Y-71945000D02*
X187975000Y-71945000D01*
X178245000Y-71120000D02*
X179070000Y-71945000D01*
X187975000Y-71945000D02*
X190000000Y-69920000D01*
G04 #@! TO.N,TAMPER*
X113284000Y-100076000D02*
X115290000Y-98070000D01*
X113208000Y-100000000D02*
X113284000Y-100076000D01*
X115290000Y-98070000D02*
X115290000Y-97297538D01*
X123179538Y-89408000D02*
X145542000Y-89408000D01*
X145542000Y-89408000D02*
X154445000Y-80505000D01*
X110000000Y-100000000D02*
X113208000Y-100000000D01*
X115290000Y-97297538D02*
X123179538Y-89408000D01*
X154445000Y-80505000D02*
X154445000Y-79255000D01*
G04 #@! TO.N,TXDO_PROG*
X158500000Y-65555000D02*
X160505000Y-65555000D01*
X160505000Y-65555000D02*
X160528000Y-65532000D01*
G04 #@! TO.N,RXDI_PROG*
X158500000Y-66825000D02*
X160251000Y-66825000D01*
X160251000Y-66825000D02*
X160528000Y-66548000D01*
G04 #@! TO.N,BOOT*
X173588000Y-58896000D02*
X167788000Y-58896000D01*
X153924000Y-75184000D02*
X156995000Y-78255000D01*
X190160000Y-60000000D02*
X188985000Y-58825000D01*
X188985000Y-58825000D02*
X173659000Y-58825000D01*
X167164000Y-58896000D02*
X165100000Y-60960000D01*
X155956000Y-60960000D02*
X153924000Y-62992000D01*
X153924000Y-62992000D02*
X153924000Y-75184000D01*
X156995000Y-78255000D02*
X158500000Y-78255000D01*
X165100000Y-60960000D02*
X155956000Y-60960000D01*
X173659000Y-58825000D02*
X173588000Y-58896000D01*
X167788000Y-58896000D02*
X167164000Y-58896000D01*
G04 #@! TO.N,PI_POWERED*
X188976000Y-118364000D02*
X196088000Y-118364000D01*
X196967500Y-124460000D02*
X195062500Y-126365000D01*
X197104000Y-124460000D02*
X196967500Y-124460000D01*
X196088000Y-118364000D02*
X197104000Y-119380000D01*
X186436000Y-115824000D02*
X188976000Y-118364000D01*
X159289598Y-74445000D02*
X161040299Y-76195701D01*
X197104000Y-119380000D02*
X197104000Y-124460000D01*
X158500000Y-74445000D02*
X159289598Y-74445000D01*
G04 #@! TO.N,PI_HEARTBEAT*
X159535000Y-75715000D02*
X161036000Y-77216000D01*
X158500000Y-75715000D02*
X159535000Y-75715000D01*
G04 #@! TO.N,PI_OPEN_CMD_1*
X164615000Y-63015000D02*
X169672000Y-68072000D01*
X158500000Y-63015000D02*
X164615000Y-63015000D01*
G04 #@! TO.N,PI_OPEN_CMD_2*
X141500000Y-73175000D02*
X147343000Y-73175000D01*
X147343000Y-73175000D02*
X148844000Y-74676000D01*
G04 #@! TO.N,RXDI_PI*
X160505000Y-70635000D02*
X160528000Y-70612000D01*
X158500000Y-70635000D02*
X160505000Y-70635000D01*
G04 #@! TO.N,TXDO_PI*
X158731000Y-72136000D02*
X158500000Y-71905000D01*
X160528000Y-72136000D02*
X158731000Y-72136000D01*
G04 #@! TO.N,NPX_1*
X159980000Y-73175000D02*
X158500000Y-73175000D01*
X174197500Y-84645000D02*
X174322500Y-84770000D01*
X171450000Y-84645000D02*
X159980000Y-73175000D01*
X171450000Y-84645000D02*
X174197500Y-84645000D01*
G04 #@! TO.N,NPX_2*
X174197500Y-88455000D02*
X174322500Y-88580000D01*
X171250402Y-88455000D02*
X159780402Y-76985000D01*
X159780402Y-76985000D02*
X158500000Y-76985000D01*
X171450000Y-88455000D02*
X171250402Y-88455000D01*
X171450000Y-88455000D02*
X174197500Y-88455000D01*
G04 #@! TO.N,Net-(Q3-Pad1)*
X172275000Y-105410000D02*
X172275000Y-108127500D01*
X172275000Y-108127500D02*
X172417500Y-108270000D01*
X170305000Y-108270000D02*
X170180000Y-108395000D01*
X172417500Y-108270000D02*
X170305000Y-108270000D01*
G04 #@! TO.N,Net-(Q4-Pad1)*
X167280000Y-98330000D02*
X167280000Y-96435000D01*
X167280000Y-96435000D02*
X168465000Y-95250000D01*
X165100000Y-107302500D02*
X166067500Y-108270000D01*
X167280000Y-98330000D02*
X173080000Y-98330000D01*
X165100000Y-100510000D02*
X165100000Y-107302500D01*
X167280000Y-98330000D02*
X165100000Y-100510000D01*
G04 #@! TO.N,Net-(Q4-Pad3)*
X167942500Y-108092500D02*
X170625000Y-105410000D01*
X167942500Y-109220000D02*
X167942500Y-108092500D01*
G04 #@! TO.N,WG_D0*
X125397500Y-82362000D02*
X128145000Y-82362000D01*
X128145000Y-82362000D02*
X128270000Y-82487000D01*
X128270000Y-82487000D02*
X133772000Y-76985000D01*
X133772000Y-76985000D02*
X141500000Y-76985000D01*
G04 #@! TO.N,WG_D1*
X128145000Y-86045000D02*
X128270000Y-86170000D01*
X139470000Y-86170000D02*
X145555000Y-80085000D01*
X145555000Y-80085000D02*
X145555000Y-79255000D01*
X125397500Y-86045000D02*
X128145000Y-86045000D01*
X128270000Y-86170000D02*
X139470000Y-86170000D01*
G04 #@! TO.N,Net-(Q7-Pad1)*
X183705000Y-107492500D02*
X184482500Y-108270000D01*
X184482500Y-108270000D02*
X182370000Y-108270000D01*
X182370000Y-108270000D02*
X182245000Y-108395000D01*
X183705000Y-105410000D02*
X183705000Y-107492500D01*
G04 #@! TO.N,TXDO_NFC*
X128145000Y-70170000D02*
X128270000Y-70295000D01*
X132420000Y-74445000D02*
X141500000Y-74445000D01*
X128270000Y-70295000D02*
X132420000Y-74445000D01*
X125397500Y-70170000D02*
X128145000Y-70170000D01*
G04 #@! TO.N,RXDI_NFC*
X128145000Y-73980000D02*
X128270000Y-74105000D01*
X128270000Y-74105000D02*
X129880000Y-75715000D01*
X125397500Y-73980000D02*
X128145000Y-73980000D01*
X129880000Y-75715000D02*
X141500000Y-75715000D01*
G04 #@! TO.N,Net-(Q10-Pad1)*
X178710000Y-98330000D02*
X178710000Y-99250000D01*
X178710000Y-99250000D02*
X176276000Y-101684000D01*
X176276000Y-101684000D02*
X176276000Y-106413500D01*
X178710000Y-98330000D02*
X184510000Y-98330000D01*
X178710000Y-96435000D02*
X179895000Y-95250000D01*
X178710000Y-98330000D02*
X178710000Y-96435000D01*
X176276000Y-106413500D02*
X178132500Y-108270000D01*
G04 #@! TO.N,Net-(Q10-Pad3)*
X180007500Y-109220000D02*
X180007500Y-107457500D01*
X180007500Y-107457500D02*
X182055000Y-105410000D01*
G04 #@! TO.N,SDA_DISP*
X158500000Y-68095000D02*
X162952538Y-68095000D01*
X171450000Y-75755000D02*
X174197500Y-75755000D01*
X162952538Y-68095000D02*
X170612538Y-75755000D01*
X170612538Y-75755000D02*
X171450000Y-75755000D01*
X174197500Y-75755000D02*
X174322500Y-75880000D01*
G04 #@! TO.N,SCL_DISP*
X171450000Y-71945000D02*
X174197500Y-71945000D01*
X174197500Y-71945000D02*
X174322500Y-72070000D01*
X163790000Y-64285000D02*
X171450000Y-71945000D01*
X158500000Y-64285000D02*
X163790000Y-64285000D01*
D48*
G04 #@! TO.N,Net-(R2-Pad1)*
X120905000Y-107545000D02*
X123625000Y-107545000D01*
X123625000Y-107545000D02*
X125760000Y-105410000D01*
D47*
G04 #@! TO.N,Net-(R3-Pad2)*
X127630000Y-101245000D02*
X127985000Y-101600000D01*
X127985000Y-102077000D02*
X128524000Y-102616000D01*
X127985000Y-101600000D02*
X127985000Y-102077000D01*
X123185000Y-101245000D02*
X127630000Y-101245000D01*
X140970000Y-105400000D02*
X140970000Y-102860000D01*
G04 #@! TO.N,ADC_VIN*
X122111000Y-95504000D02*
X135128000Y-95504000D01*
X117665000Y-97790000D02*
X119825000Y-97790000D01*
X141477000Y-68072000D02*
X141500000Y-68095000D01*
X119825000Y-97790000D02*
X122111000Y-95504000D01*
X139700000Y-68072000D02*
X141477000Y-68072000D01*
G04 #@! TO.N,ADC_VBATT*
X136144000Y-95512598D02*
X136144000Y-95504000D01*
X141500000Y-69365000D02*
X139977000Y-69365000D01*
X127445000Y-97790000D02*
X129006500Y-96228500D01*
X125285000Y-97790000D02*
X127445000Y-97790000D01*
X139977000Y-69365000D02*
X139704299Y-69092299D01*
X135428098Y-96228500D02*
X136144000Y-95512598D01*
X129006500Y-96228500D02*
X135428098Y-96228500D01*
G04 #@! TO.N,ADC_V5*
X135065000Y-97790000D02*
X137160000Y-95695000D01*
X137160000Y-95695000D02*
X137160000Y-95504000D01*
X132905000Y-97790000D02*
X135065000Y-97790000D01*
X141477000Y-70612000D02*
X141500000Y-70635000D01*
X139700000Y-70612000D02*
X141477000Y-70612000D01*
G04 #@! TO.N,ADC_V3*
X141269000Y-72136000D02*
X141500000Y-71905000D01*
X140525000Y-97790000D02*
X138239000Y-95504000D01*
X138239000Y-95504000D02*
X138176000Y-95504000D01*
X139700000Y-72136000D02*
X141269000Y-72136000D01*
X140525000Y-97790000D02*
X142685000Y-97790000D01*
G04 #@! TO.N,OPEN_1*
X166815000Y-92647000D02*
X166815000Y-95250000D01*
X141500000Y-78255000D02*
X141500000Y-80540000D01*
X155448000Y-81280000D02*
X166815000Y-92647000D01*
X141500000Y-80540000D02*
X142240000Y-81280000D01*
G04 #@! TO.N,OPEN_2*
X155715000Y-79255000D02*
X171710000Y-95250000D01*
X171710000Y-95250000D02*
X178245000Y-95250000D01*
G04 #@! TO.N,Net-(R41-Pad1)*
X167280000Y-102330000D02*
X173080000Y-102330000D01*
X167280000Y-104225000D02*
X168465000Y-105410000D01*
X167280000Y-102330000D02*
X167280000Y-104225000D01*
G04 #@! TO.N,Net-(R42-Pad1)*
X178710000Y-102330000D02*
X178710000Y-104670000D01*
X178710000Y-104670000D02*
X179450000Y-105410000D01*
X178710000Y-102330000D02*
X184510000Y-102330000D01*
G04 #@! TD*
M02*
