G04 #@! TF.GenerationSoftware,KiCad,Pcbnew,6.0.7-f9a2dced07~116~ubuntu22.04.1*
G04 #@! TF.CreationDate,2022-09-08T14:06:49+01:00*
G04 #@! TF.ProjectId,rLab_Door,724c6162-5f44-46f6-9f72-2e6b69636164,rev?*
G04 #@! TF.SameCoordinates,Original*
G04 #@! TF.FileFunction,Soldermask,Bot*
G04 #@! TF.FilePolarity,Negative*
%FSLAX46Y46*%
G04 Gerber Fmt 4.6, Leading zero omitted, Abs format (unit mm)*
G04 Created by KiCad (PCBNEW 6.0.7-f9a2dced07~116~ubuntu22.04.1) date 2022-09-08 14:06:49*
%MOMM*%
%LPD*%
G01*
G04 APERTURE LIST*
G04 Aperture macros list*
%AMRoundRect*
0 Rectangle with rounded corners*
0 $1 Rounding radius*
0 $2 $3 $4 $5 $6 $7 $8 $9 X,Y pos of 4 corners*
0 Add a 4 corners polygon primitive as box body*
4,1,4,$2,$3,$4,$5,$6,$7,$8,$9,$2,$3,0*
0 Add four circle primitives for the rounded corners*
1,1,$1+$1,$2,$3*
1,1,$1+$1,$4,$5*
1,1,$1+$1,$6,$7*
1,1,$1+$1,$8,$9*
0 Add four rect primitives between the rounded corners*
20,1,$1+$1,$2,$3,$4,$5,0*
20,1,$1+$1,$4,$5,$6,$7,0*
20,1,$1+$1,$6,$7,$8,$9,0*
20,1,$1+$1,$8,$9,$2,$3,0*%
G04 Aperture macros list end*
%ADD10C,2.700000*%
%ADD11C,3.000000*%
%ADD12C,1.440000*%
%ADD13R,1.700000X1.700000*%
%ADD14O,1.700000X1.700000*%
%ADD15C,0.800000*%
%ADD16C,6.400000*%
%ADD17C,1.524000*%
%ADD18R,3.500000X3.500000*%
%ADD19RoundRect,0.750000X-0.750000X-1.000000X0.750000X-1.000000X0.750000X1.000000X-0.750000X1.000000X0*%
%ADD20RoundRect,0.875000X-0.875000X-0.875000X0.875000X-0.875000X0.875000X0.875000X-0.875000X0.875000X0*%
%ADD21RoundRect,0.250000X0.600000X0.600000X-0.600000X0.600000X-0.600000X-0.600000X0.600000X-0.600000X0*%
%ADD22C,1.700000*%
G04 APERTURE END LIST*
D10*
G04 #@! TO.C,F3*
X170000000Y-125000000D03*
D11*
X170000000Y-136250000D03*
X170000000Y-113750000D03*
G04 #@! TD*
D12*
G04 #@! TO.C,RV1*
X140970000Y-102860000D03*
X140970000Y-105400000D03*
X140970000Y-107940000D03*
G04 #@! TD*
D13*
G04 #@! TO.C,J11*
X177460000Y-60000000D03*
D14*
X180000000Y-60000000D03*
X182540000Y-60000000D03*
X185080000Y-60000000D03*
X187620000Y-60000000D03*
X190160000Y-60000000D03*
G04 #@! TD*
D15*
G04 #@! TO.C,REF\u002A\u002A*
X193302944Y-56697056D03*
X193302944Y-53302944D03*
D16*
X195000000Y-55000000D03*
D15*
X195000000Y-57400000D03*
X195000000Y-52600000D03*
X192600000Y-55000000D03*
X196697056Y-56697056D03*
X197400000Y-55000000D03*
X196697056Y-53302944D03*
G04 #@! TD*
D13*
G04 #@! TO.C,J13*
X140840000Y-140000000D03*
D14*
X143380000Y-140000000D03*
X145920000Y-140000000D03*
X148460000Y-140000000D03*
X151000000Y-140000000D03*
X153540000Y-140000000D03*
X156080000Y-140000000D03*
X158620000Y-140000000D03*
G04 #@! TD*
D13*
G04 #@! TO.C,J9*
X120000000Y-140000000D03*
D14*
X117460000Y-140000000D03*
G04 #@! TD*
D13*
G04 #@! TO.C,J1*
X170000000Y-140000000D03*
D14*
X167460000Y-140000000D03*
X164920000Y-140000000D03*
G04 #@! TD*
D10*
G04 #@! TO.C,F1*
X118000000Y-125000000D03*
D11*
X118000000Y-113750000D03*
X118000000Y-136250000D03*
G04 #@! TD*
D15*
G04 #@! TO.C,REF\u002A\u002A*
X103302944Y-56697056D03*
X106697056Y-56697056D03*
X102600000Y-55000000D03*
D16*
X105000000Y-55000000D03*
D15*
X105000000Y-57400000D03*
X103302944Y-53302944D03*
X107400000Y-55000000D03*
X106697056Y-53302944D03*
X105000000Y-52600000D03*
G04 #@! TD*
D13*
G04 #@! TO.C,J3*
X190000000Y-85000000D03*
D14*
X190000000Y-87540000D03*
X190000000Y-90080000D03*
G04 #@! TD*
D13*
G04 #@! TO.C,J5*
X110000000Y-90000000D03*
D14*
X110000000Y-87460000D03*
X110000000Y-84920000D03*
X110000000Y-82380000D03*
G04 #@! TD*
D10*
G04 #@! TO.C,F4*
X182000000Y-125000000D03*
D11*
X182000000Y-136250000D03*
X182000000Y-113750000D03*
G04 #@! TD*
D10*
G04 #@! TO.C,F2*
X130000000Y-125000000D03*
D11*
X130000000Y-113750000D03*
X130000000Y-136250000D03*
G04 #@! TD*
D13*
G04 #@! TO.C,J8*
X110000000Y-100000000D03*
D14*
X110000000Y-97460000D03*
G04 #@! TD*
D13*
G04 #@! TO.C,J7*
X190000000Y-67380000D03*
D14*
X190000000Y-69920000D03*
X190000000Y-72460000D03*
X190000000Y-75000000D03*
G04 #@! TD*
D13*
G04 #@! TO.C,J2*
X185000000Y-140000000D03*
D14*
X182460000Y-140000000D03*
X179920000Y-140000000D03*
G04 #@! TD*
D17*
G04 #@! TO.C,U1*
X140856000Y-124064000D03*
X140856000Y-126604000D03*
X140856000Y-115936000D03*
X140856000Y-113396000D03*
X159398000Y-126604000D03*
X159398000Y-124064000D03*
X159398000Y-113396000D03*
X159398000Y-115936000D03*
G04 #@! TD*
D13*
G04 #@! TO.C,J6*
X110000000Y-75080000D03*
D14*
X110000000Y-72540000D03*
X110000000Y-70000000D03*
X110000000Y-67460000D03*
G04 #@! TD*
D15*
G04 #@! TO.C,REF\u002A\u002A*
X195000000Y-142600000D03*
X192600000Y-145000000D03*
X193302944Y-146697056D03*
X196697056Y-146697056D03*
X197400000Y-145000000D03*
X195000000Y-147400000D03*
X196697056Y-143302944D03*
D16*
X195000000Y-145000000D03*
D15*
X193302944Y-143302944D03*
G04 #@! TD*
D18*
G04 #@! TO.C,J14*
X110000000Y-130000000D03*
D19*
X104000000Y-130000000D03*
D20*
X107000000Y-134700000D03*
G04 #@! TD*
D13*
G04 #@! TO.C,J4*
X190000000Y-100000000D03*
D14*
X190000000Y-102540000D03*
X190000000Y-105080000D03*
G04 #@! TD*
D21*
G04 #@! TO.C,J12*
X195062500Y-128905000D03*
D22*
X192522500Y-128905000D03*
X195062500Y-126365000D03*
X192522500Y-126365000D03*
X195062500Y-123825000D03*
X192522500Y-123825000D03*
X195062500Y-121285000D03*
X192522500Y-121285000D03*
G04 #@! TD*
D15*
G04 #@! TO.C,REF\u002A\u002A*
X103302944Y-146697056D03*
X105000000Y-147400000D03*
X107400000Y-145000000D03*
D16*
X105000000Y-145000000D03*
D15*
X106697056Y-146697056D03*
X106697056Y-143302944D03*
X105000000Y-142600000D03*
X103302944Y-143302944D03*
X102600000Y-145000000D03*
G04 #@! TD*
D13*
G04 #@! TO.C,J10*
X132847000Y-139897000D03*
D14*
X130307000Y-139897000D03*
G04 #@! TD*
M02*
