G04 #@! TF.GenerationSoftware,KiCad,Pcbnew,6.0.7-f9a2dced07~116~ubuntu22.04.1*
G04 #@! TF.CreationDate,2022-09-08T14:06:49+01:00*
G04 #@! TF.ProjectId,rLab_Door,724c6162-5f44-46f6-9f72-2e6b69636164,rev?*
G04 #@! TF.SameCoordinates,Original*
G04 #@! TF.FileFunction,Soldermask,Top*
G04 #@! TF.FilePolarity,Negative*
%FSLAX46Y46*%
G04 Gerber Fmt 4.6, Leading zero omitted, Abs format (unit mm)*
G04 Created by KiCad (PCBNEW 6.0.7-f9a2dced07~116~ubuntu22.04.1) date 2022-09-08 14:06:49*
%MOMM*%
%LPD*%
G01*
G04 APERTURE LIST*
G04 Aperture macros list*
%AMRoundRect*
0 Rectangle with rounded corners*
0 $1 Rounding radius*
0 $2 $3 $4 $5 $6 $7 $8 $9 X,Y pos of 4 corners*
0 Add a 4 corners polygon primitive as box body*
4,1,4,$2,$3,$4,$5,$6,$7,$8,$9,$2,$3,0*
0 Add four circle primitives for the rounded corners*
1,1,$1+$1,$2,$3*
1,1,$1+$1,$4,$5*
1,1,$1+$1,$6,$7*
1,1,$1+$1,$8,$9*
0 Add four rect primitives between the rounded corners*
20,1,$1+$1,$2,$3,$4,$5,0*
20,1,$1+$1,$4,$5,$6,$7,0*
20,1,$1+$1,$6,$7,$8,$9,0*
20,1,$1+$1,$8,$9,$2,$3,0*%
G04 Aperture macros list end*
%ADD10RoundRect,0.200000X-0.200000X-0.275000X0.200000X-0.275000X0.200000X0.275000X-0.200000X0.275000X0*%
%ADD11C,2.700000*%
%ADD12C,3.000000*%
%ADD13RoundRect,0.150000X-0.587500X-0.150000X0.587500X-0.150000X0.587500X0.150000X-0.587500X0.150000X0*%
%ADD14RoundRect,0.200000X-0.275000X0.200000X-0.275000X-0.200000X0.275000X-0.200000X0.275000X0.200000X0*%
%ADD15C,1.440000*%
%ADD16RoundRect,0.218750X-0.256250X0.218750X-0.256250X-0.218750X0.256250X-0.218750X0.256250X0.218750X0*%
%ADD17RoundRect,0.200000X0.275000X-0.200000X0.275000X0.200000X-0.275000X0.200000X-0.275000X-0.200000X0*%
%ADD18R,1.700000X1.700000*%
%ADD19O,1.700000X1.700000*%
%ADD20RoundRect,0.150000X0.587500X0.150000X-0.587500X0.150000X-0.587500X-0.150000X0.587500X-0.150000X0*%
%ADD21RoundRect,0.250000X0.650000X-0.325000X0.650000X0.325000X-0.650000X0.325000X-0.650000X-0.325000X0*%
%ADD22R,2.800000X1.000000*%
%ADD23C,0.800000*%
%ADD24C,6.400000*%
%ADD25RoundRect,0.200000X0.200000X0.275000X-0.200000X0.275000X-0.200000X-0.275000X0.200000X-0.275000X0*%
%ADD26R,1.800000X2.500000*%
%ADD27RoundRect,0.250000X0.425000X-0.450000X0.425000X0.450000X-0.425000X0.450000X-0.425000X-0.450000X0*%
%ADD28RoundRect,0.225000X0.250000X-0.225000X0.250000X0.225000X-0.250000X0.225000X-0.250000X-0.225000X0*%
%ADD29R,1.200000X2.200000*%
%ADD30R,5.800000X6.400000*%
%ADD31R,2.500000X1.800000*%
%ADD32RoundRect,0.250000X-0.425000X0.450000X-0.425000X-0.450000X0.425000X-0.450000X0.425000X0.450000X0*%
%ADD33C,1.524000*%
%ADD34R,2.000000X1.500000*%
%ADD35R,2.000000X3.800000*%
%ADD36R,3.500000X3.500000*%
%ADD37RoundRect,0.750000X-0.750000X-1.000000X0.750000X-1.000000X0.750000X1.000000X-0.750000X1.000000X0*%
%ADD38RoundRect,0.875000X-0.875000X-0.875000X0.875000X-0.875000X0.875000X0.875000X-0.875000X0.875000X0*%
%ADD39RoundRect,0.250000X0.600000X0.600000X-0.600000X0.600000X-0.600000X-0.600000X0.600000X-0.600000X0*%
%ADD40C,1.700000*%
%ADD41RoundRect,0.249999X-0.450001X-1.425001X0.450001X-1.425001X0.450001X1.425001X-0.450001X1.425001X0*%
%ADD42R,2.000000X0.900000*%
%ADD43R,0.900000X2.000000*%
%ADD44R,5.000000X5.000000*%
%ADD45RoundRect,0.225000X-0.225000X-0.250000X0.225000X-0.250000X0.225000X0.250000X-0.225000X0.250000X0*%
G04 APERTURE END LIST*
D10*
G04 #@! TO.C,R6*
X127445000Y-97790000D03*
X129095000Y-97790000D03*
G04 #@! TD*
D11*
G04 #@! TO.C,F3*
X170000000Y-125000000D03*
D12*
X170000000Y-136250000D03*
X170000000Y-113750000D03*
G04 #@! TD*
D13*
G04 #@! TO.C,Q1*
X174322500Y-82870000D03*
X174322500Y-84770000D03*
X176197500Y-83820000D03*
G04 #@! TD*
D14*
G04 #@! TO.C,R37*
X171450000Y-74105000D03*
X171450000Y-75755000D03*
G04 #@! TD*
D15*
G04 #@! TO.C,RV1*
X140970000Y-102860000D03*
X140970000Y-105400000D03*
X140970000Y-107940000D03*
G04 #@! TD*
D16*
G04 #@! TO.C,D7*
X153525844Y-135623629D03*
X153525844Y-137198629D03*
G04 #@! TD*
D17*
G04 #@! TO.C,R38*
X179070000Y-75755000D03*
X179070000Y-74105000D03*
G04 #@! TD*
G04 #@! TO.C,R1*
X113284000Y-100076000D03*
X113284000Y-98426000D03*
G04 #@! TD*
D18*
G04 #@! TO.C,J11*
X177460000Y-60000000D03*
D19*
X180000000Y-60000000D03*
X182540000Y-60000000D03*
X185080000Y-60000000D03*
X187620000Y-60000000D03*
X190160000Y-60000000D03*
G04 #@! TD*
D20*
G04 #@! TO.C,Q9*
X125397500Y-75880000D03*
X125397500Y-73980000D03*
X123522500Y-74930000D03*
G04 #@! TD*
D17*
G04 #@! TO.C,R33*
X128270000Y-75755000D03*
X128270000Y-74105000D03*
G04 #@! TD*
D21*
G04 #@! TO.C,C3*
X132080000Y-64467000D03*
X132080000Y-61517000D03*
G04 #@! TD*
D22*
G04 #@! TO.C,SW1*
X132440000Y-54896000D03*
X126640000Y-54896000D03*
X132440000Y-58896000D03*
X126640000Y-58896000D03*
G04 #@! TD*
D23*
G04 #@! TO.C,REF\u002A\u002A*
X193302944Y-56697056D03*
X193302944Y-53302944D03*
D24*
X195000000Y-55000000D03*
D23*
X195000000Y-57400000D03*
X195000000Y-52600000D03*
X192600000Y-55000000D03*
X196697056Y-56697056D03*
X197400000Y-55000000D03*
X196697056Y-53302944D03*
G04 #@! TD*
D10*
G04 #@! TO.C,R36*
X178245000Y-95250000D03*
X179895000Y-95250000D03*
G04 #@! TD*
D18*
G04 #@! TO.C,J13*
X140840000Y-140000000D03*
D19*
X143380000Y-140000000D03*
X145920000Y-140000000D03*
X148460000Y-140000000D03*
X151000000Y-140000000D03*
X153540000Y-140000000D03*
X156080000Y-140000000D03*
X158620000Y-140000000D03*
G04 #@! TD*
D18*
G04 #@! TO.C,J9*
X120000000Y-140000000D03*
D19*
X117460000Y-140000000D03*
G04 #@! TD*
D25*
G04 #@! TO.C,R35*
X183705000Y-105410000D03*
X182055000Y-105410000D03*
G04 #@! TD*
D18*
G04 #@! TO.C,J1*
X170000000Y-140000000D03*
D19*
X167460000Y-140000000D03*
X164920000Y-140000000D03*
G04 #@! TD*
D17*
G04 #@! TO.C,R10*
X143384790Y-134175000D03*
X143384790Y-132525000D03*
G04 #@! TD*
D25*
G04 #@! TO.C,R3*
X129635000Y-101600000D03*
X127985000Y-101600000D03*
G04 #@! TD*
D13*
G04 #@! TO.C,Q11*
X174322500Y-73980000D03*
X174322500Y-75880000D03*
X176197500Y-74930000D03*
G04 #@! TD*
D17*
G04 #@! TO.C,R34*
X120650000Y-75755000D03*
X120650000Y-74105000D03*
G04 #@! TD*
D16*
G04 #@! TO.C,D4*
X140849527Y-135623629D03*
X140849527Y-137198629D03*
G04 #@! TD*
D26*
G04 #@! TO.C,D1*
X114300000Y-104680000D03*
X114300000Y-108680000D03*
G04 #@! TD*
D27*
G04 #@! TO.C,C1*
X146050000Y-108030000D03*
X146050000Y-105330000D03*
G04 #@! TD*
D20*
G04 #@! TO.C,Q8*
X125397500Y-72070000D03*
X125397500Y-70170000D03*
X123522500Y-71120000D03*
G04 #@! TD*
D11*
G04 #@! TO.C,F1*
X118000000Y-125000000D03*
D12*
X118000000Y-113750000D03*
X118000000Y-136250000D03*
G04 #@! TD*
D25*
G04 #@! TO.C,R5*
X117665000Y-97790000D03*
X116015000Y-97790000D03*
G04 #@! TD*
D28*
G04 #@! TO.C,C4*
X130048000Y-63259000D03*
X130048000Y-61709000D03*
G04 #@! TD*
D10*
G04 #@! TO.C,R25*
X166815000Y-95250000D03*
X168465000Y-95250000D03*
G04 #@! TD*
D29*
G04 #@! TO.C,U2*
X123185000Y-101245000D03*
D30*
X120905000Y-107545000D03*
D29*
X118625000Y-101245000D03*
G04 #@! TD*
D14*
G04 #@! TO.C,R32*
X120650000Y-70295000D03*
X120650000Y-71945000D03*
G04 #@! TD*
D17*
G04 #@! TO.C,R30*
X182245000Y-110045000D03*
X182245000Y-108395000D03*
G04 #@! TD*
D14*
G04 #@! TO.C,R39*
X171450000Y-70295000D03*
X171450000Y-71945000D03*
G04 #@! TD*
D10*
G04 #@! TO.C,R15*
X135065000Y-97790000D03*
X136715000Y-97790000D03*
G04 #@! TD*
D31*
G04 #@! TO.C,D2*
X130270000Y-109220000D03*
X126270000Y-109220000D03*
G04 #@! TD*
D23*
G04 #@! TO.C,REF\u002A\u002A*
X103302944Y-56697056D03*
X106697056Y-56697056D03*
X102600000Y-55000000D03*
D24*
X105000000Y-55000000D03*
D23*
X105000000Y-57400000D03*
X103302944Y-53302944D03*
X107400000Y-55000000D03*
X106697056Y-53302944D03*
X105000000Y-52600000D03*
G04 #@! TD*
D18*
G04 #@! TO.C,J3*
X190000000Y-85000000D03*
D19*
X190000000Y-87540000D03*
X190000000Y-90080000D03*
G04 #@! TD*
D17*
G04 #@! TO.C,R31*
X128270000Y-71945000D03*
X128270000Y-70295000D03*
G04 #@! TD*
D10*
G04 #@! TO.C,R4*
X126683000Y-63754000D03*
X128333000Y-63754000D03*
G04 #@! TD*
D20*
G04 #@! TO.C,Q6*
X125397500Y-87945000D03*
X125397500Y-86045000D03*
X123522500Y-86995000D03*
G04 #@! TD*
D22*
G04 #@! TO.C,SW2*
X173588000Y-54896000D03*
X167788000Y-54896000D03*
X173588000Y-58896000D03*
X167788000Y-58896000D03*
G04 #@! TD*
D16*
G04 #@! TO.C,D8*
X145920053Y-135623629D03*
X145920053Y-137198629D03*
G04 #@! TD*
D14*
G04 #@! TO.C,R27*
X120650000Y-82995000D03*
X120650000Y-84645000D03*
G04 #@! TD*
D18*
G04 #@! TO.C,J5*
X110000000Y-90000000D03*
D19*
X110000000Y-87460000D03*
X110000000Y-84920000D03*
X110000000Y-82380000D03*
G04 #@! TD*
D11*
G04 #@! TO.C,F4*
X182000000Y-125000000D03*
D12*
X182000000Y-136250000D03*
X182000000Y-113750000D03*
G04 #@! TD*
D13*
G04 #@! TO.C,Q10*
X178132500Y-108270000D03*
X178132500Y-110170000D03*
X180007500Y-109220000D03*
G04 #@! TD*
D16*
G04 #@! TO.C,D5*
X143384790Y-135623629D03*
X143384790Y-137198629D03*
G04 #@! TD*
D17*
G04 #@! TO.C,R19*
X170180000Y-110045000D03*
X170180000Y-108395000D03*
G04 #@! TD*
D10*
G04 #@! TO.C,R7*
X119825000Y-97790000D03*
X121475000Y-97790000D03*
G04 #@! TD*
D26*
G04 #@! TO.C,D3*
X135890000Y-104680000D03*
X135890000Y-108680000D03*
G04 #@! TD*
D11*
G04 #@! TO.C,F2*
X130000000Y-125000000D03*
D12*
X130000000Y-113750000D03*
X130000000Y-136250000D03*
G04 #@! TD*
D25*
G04 #@! TO.C,R41*
X168465000Y-105410000D03*
X166815000Y-105410000D03*
G04 #@! TD*
D13*
G04 #@! TO.C,Q7*
X184482500Y-108270000D03*
X184482500Y-110170000D03*
X186357500Y-109220000D03*
G04 #@! TD*
G04 #@! TO.C,Q4*
X166067500Y-108270000D03*
X166067500Y-110170000D03*
X167942500Y-109220000D03*
G04 #@! TD*
D32*
G04 #@! TO.C,C2*
X158750000Y-105330000D03*
X158750000Y-108030000D03*
G04 #@! TD*
D17*
G04 #@! TO.C,R29*
X120650000Y-87820000D03*
X120650000Y-86170000D03*
G04 #@! TD*
D18*
G04 #@! TO.C,J8*
X110000000Y-100000000D03*
D19*
X110000000Y-97460000D03*
G04 #@! TD*
D25*
G04 #@! TO.C,R24*
X172275000Y-105410000D03*
X170625000Y-105410000D03*
G04 #@! TD*
D18*
G04 #@! TO.C,J7*
X190000000Y-67380000D03*
D19*
X190000000Y-69920000D03*
X190000000Y-72460000D03*
X190000000Y-75000000D03*
G04 #@! TD*
D18*
G04 #@! TO.C,J2*
X185000000Y-140000000D03*
D19*
X182460000Y-140000000D03*
X179920000Y-140000000D03*
G04 #@! TD*
D33*
G04 #@! TO.C,U1*
X140856000Y-124064000D03*
X140856000Y-126604000D03*
X140856000Y-115936000D03*
X140856000Y-113396000D03*
X159398000Y-126604000D03*
X159398000Y-124064000D03*
X159398000Y-113396000D03*
X159398000Y-115936000D03*
G04 #@! TD*
D14*
G04 #@! TO.C,R20*
X171450000Y-82995000D03*
X171450000Y-84645000D03*
G04 #@! TD*
D18*
G04 #@! TO.C,J6*
X110000000Y-75080000D03*
D19*
X110000000Y-72540000D03*
X110000000Y-70000000D03*
X110000000Y-67460000D03*
G04 #@! TD*
D34*
G04 #@! TO.C,U3*
X149250000Y-104380000D03*
X149250000Y-106680000D03*
D35*
X155550000Y-106680000D03*
D34*
X149250000Y-108980000D03*
G04 #@! TD*
D17*
G04 #@! TO.C,R12*
X153525844Y-134175000D03*
X153525844Y-132525000D03*
G04 #@! TD*
D25*
G04 #@! TO.C,R9*
X125285000Y-97790000D03*
X123635000Y-97790000D03*
G04 #@! TD*
D20*
G04 #@! TO.C,Q5*
X125397500Y-84262000D03*
X125397500Y-82362000D03*
X123522500Y-83312000D03*
G04 #@! TD*
D14*
G04 #@! TO.C,R40*
X179070000Y-70295000D03*
X179070000Y-71945000D03*
G04 #@! TD*
D23*
G04 #@! TO.C,REF\u002A\u002A*
X195000000Y-142600000D03*
X192600000Y-145000000D03*
X193302944Y-146697056D03*
X196697056Y-146697056D03*
X197400000Y-145000000D03*
X195000000Y-147400000D03*
X196697056Y-143302944D03*
D24*
X195000000Y-145000000D03*
D23*
X193302944Y-143302944D03*
G04 #@! TD*
D13*
G04 #@! TO.C,Q3*
X172417500Y-108270000D03*
X172417500Y-110170000D03*
X174292500Y-109220000D03*
G04 #@! TD*
D36*
G04 #@! TO.C,J14*
X110000000Y-130000000D03*
D37*
X104000000Y-130000000D03*
D38*
X107000000Y-134700000D03*
G04 #@! TD*
D17*
G04 #@! TO.C,R26*
X128270000Y-84137000D03*
X128270000Y-82487000D03*
G04 #@! TD*
D18*
G04 #@! TO.C,J4*
X190000000Y-100000000D03*
D19*
X190000000Y-102540000D03*
X190000000Y-105080000D03*
G04 #@! TD*
D16*
G04 #@! TO.C,D9*
X148455316Y-135623629D03*
X148455316Y-137198629D03*
G04 #@! TD*
D17*
G04 #@! TO.C,R8*
X140849527Y-134175000D03*
X140849527Y-132525000D03*
G04 #@! TD*
G04 #@! TO.C,R28*
X128270000Y-87820000D03*
X128270000Y-86170000D03*
G04 #@! TD*
D10*
G04 #@! TO.C,R14*
X142685000Y-97790000D03*
X144335000Y-97790000D03*
G04 #@! TD*
D17*
G04 #@! TO.C,R16*
X145920053Y-134175000D03*
X145920053Y-132525000D03*
G04 #@! TD*
D25*
G04 #@! TO.C,R42*
X179450000Y-105410000D03*
X177800000Y-105410000D03*
G04 #@! TD*
D39*
G04 #@! TO.C,J12*
X195062500Y-128905000D03*
D40*
X192522500Y-128905000D03*
X195062500Y-126365000D03*
X192522500Y-126365000D03*
X195062500Y-123825000D03*
X192522500Y-123825000D03*
X195062500Y-121285000D03*
X192522500Y-121285000D03*
G04 #@! TD*
D25*
G04 #@! TO.C,R13*
X132905000Y-97790000D03*
X131255000Y-97790000D03*
G04 #@! TD*
D22*
G04 #@! TO.C,SW3*
X173080000Y-98330000D03*
X167280000Y-98330000D03*
X173080000Y-102330000D03*
X167280000Y-102330000D03*
G04 #@! TD*
D25*
G04 #@! TO.C,R17*
X140525000Y-97790000D03*
X138875000Y-97790000D03*
G04 #@! TD*
D41*
G04 #@! TO.C,R2*
X125760000Y-105410000D03*
X131860000Y-105410000D03*
G04 #@! TD*
D17*
G04 #@! TO.C,R23*
X179070000Y-88455000D03*
X179070000Y-86805000D03*
G04 #@! TD*
D22*
G04 #@! TO.C,SW4*
X178710000Y-98330000D03*
X184510000Y-98330000D03*
X178710000Y-102330000D03*
X184510000Y-102330000D03*
G04 #@! TD*
D17*
G04 #@! TO.C,R18*
X148455316Y-134175000D03*
X148455316Y-132525000D03*
G04 #@! TD*
D13*
G04 #@! TO.C,Q2*
X174322500Y-86680000D03*
X174322500Y-88580000D03*
X176197500Y-87630000D03*
G04 #@! TD*
D16*
G04 #@! TO.C,D6*
X150990579Y-135623629D03*
X150990579Y-137198629D03*
G04 #@! TD*
D42*
G04 #@! TO.C,U4*
X141500000Y-61745000D03*
X141500000Y-63015000D03*
X141500000Y-64285000D03*
X141500000Y-65555000D03*
X141500000Y-66825000D03*
X141500000Y-68095000D03*
X141500000Y-69365000D03*
X141500000Y-70635000D03*
X141500000Y-71905000D03*
X141500000Y-73175000D03*
X141500000Y-74445000D03*
X141500000Y-75715000D03*
X141500000Y-76985000D03*
X141500000Y-78255000D03*
D43*
X144285000Y-79255000D03*
X145555000Y-79255000D03*
X146825000Y-79255000D03*
X148095000Y-79255000D03*
X149365000Y-79255000D03*
X150635000Y-79255000D03*
X151905000Y-79255000D03*
X153175000Y-79255000D03*
X154445000Y-79255000D03*
X155715000Y-79255000D03*
D42*
X158500000Y-78255000D03*
X158500000Y-76985000D03*
X158500000Y-75715000D03*
X158500000Y-74445000D03*
X158500000Y-73175000D03*
X158500000Y-71905000D03*
X158500000Y-70635000D03*
X158500000Y-69365000D03*
X158500000Y-68095000D03*
X158500000Y-66825000D03*
X158500000Y-65555000D03*
X158500000Y-64285000D03*
X158500000Y-63015000D03*
X158500000Y-61745000D03*
D44*
X149000000Y-69245000D03*
G04 #@! TD*
D13*
G04 #@! TO.C,Q12*
X174322500Y-70170000D03*
X174322500Y-72070000D03*
X176197500Y-71120000D03*
G04 #@! TD*
D23*
G04 #@! TO.C,REF\u002A\u002A*
X103302944Y-146697056D03*
X105000000Y-147400000D03*
X107400000Y-145000000D03*
D24*
X105000000Y-145000000D03*
D23*
X106697056Y-146697056D03*
X106697056Y-143302944D03*
X105000000Y-142600000D03*
X103302944Y-143302944D03*
X102600000Y-145000000D03*
G04 #@! TD*
D17*
G04 #@! TO.C,R11*
X150990579Y-134175000D03*
X150990579Y-132525000D03*
G04 #@! TD*
D14*
G04 #@! TO.C,R22*
X171450000Y-86805000D03*
X171450000Y-88455000D03*
G04 #@! TD*
G04 #@! TO.C,R21*
X179070000Y-82995000D03*
X179070000Y-84645000D03*
G04 #@! TD*
D18*
G04 #@! TO.C,J10*
X132847000Y-139897000D03*
D19*
X130307000Y-139897000D03*
G04 #@! TD*
D45*
G04 #@! TO.C,C5*
X126733000Y-61214000D03*
X128283000Y-61214000D03*
G04 #@! TD*
M02*
