G04 #@! TF.GenerationSoftware,KiCad,Pcbnew,6.0.6-3a73a75311~116~ubuntu22.04.1*
G04 #@! TF.CreationDate,2022-07-02T16:35:34+01:00*
G04 #@! TF.ProjectId,rLab_Door,724c6162-5f44-46f6-9f72-2e6b69636164,rev?*
G04 #@! TF.SameCoordinates,Original*
G04 #@! TF.FileFunction,Other,Comment*
%FSLAX46Y46*%
G04 Gerber Fmt 4.6, Leading zero omitted, Abs format (unit mm)*
G04 Created by KiCad (PCBNEW 6.0.6-3a73a75311~116~ubuntu22.04.1) date 2022-07-02 16:35:34*
%MOMM*%
%LPD*%
G01*
G04 APERTURE LIST*
%ADD10C,0.100000*%
%ADD11C,0.150000*%
G04 APERTURE END LIST*
D10*
G04 #@! TO.C,U4*
X104306190Y-50073095D02*
X104306190Y-50311190D01*
X104544285Y-50335000D01*
X104520476Y-50311190D01*
X104496666Y-50263571D01*
X104496666Y-50144523D01*
X104520476Y-50096904D01*
X104544285Y-50073095D01*
X104591904Y-50049285D01*
X104710952Y-50049285D01*
X104758571Y-50073095D01*
X104782380Y-50096904D01*
X104806190Y-50144523D01*
X104806190Y-50263571D01*
X104782380Y-50311190D01*
X104758571Y-50335000D01*
X104806190Y-49454047D02*
X104472857Y-49454047D01*
X104520476Y-49454047D02*
X104496666Y-49430238D01*
X104472857Y-49382619D01*
X104472857Y-49311190D01*
X104496666Y-49263571D01*
X104544285Y-49239761D01*
X104806190Y-49239761D01*
X104544285Y-49239761D02*
X104496666Y-49215952D01*
X104472857Y-49168333D01*
X104472857Y-49096904D01*
X104496666Y-49049285D01*
X104544285Y-49025476D01*
X104806190Y-49025476D01*
X104806190Y-48787380D02*
X104472857Y-48787380D01*
X104520476Y-48787380D02*
X104496666Y-48763571D01*
X104472857Y-48715952D01*
X104472857Y-48644523D01*
X104496666Y-48596904D01*
X104544285Y-48573095D01*
X104806190Y-48573095D01*
X104544285Y-48573095D02*
X104496666Y-48549285D01*
X104472857Y-48501666D01*
X104472857Y-48430238D01*
X104496666Y-48382619D01*
X104544285Y-48358809D01*
X104806190Y-48358809D01*
D11*
X90708571Y-49862380D02*
X90708571Y-48862380D01*
X91280000Y-49862380D02*
X90851428Y-49290952D01*
X91280000Y-48862380D02*
X90708571Y-49433809D01*
X91708571Y-49338571D02*
X92041904Y-49338571D01*
X92184761Y-49862380D02*
X91708571Y-49862380D01*
X91708571Y-48862380D01*
X92184761Y-48862380D01*
X92613333Y-49338571D02*
X92946666Y-49338571D01*
X93089523Y-49862380D02*
X92613333Y-49862380D01*
X92613333Y-48862380D01*
X93089523Y-48862380D01*
X93518095Y-49862380D02*
X93518095Y-48862380D01*
X93899047Y-48862380D01*
X93994285Y-48910000D01*
X94041904Y-48957619D01*
X94089523Y-49052857D01*
X94089523Y-49195714D01*
X94041904Y-49290952D01*
X93994285Y-49338571D01*
X93899047Y-49386190D01*
X93518095Y-49386190D01*
X94518095Y-49481428D02*
X95280000Y-49481428D01*
X95946666Y-48862380D02*
X96137142Y-48862380D01*
X96232380Y-48910000D01*
X96327619Y-49005238D01*
X96375238Y-49195714D01*
X96375238Y-49529047D01*
X96327619Y-49719523D01*
X96232380Y-49814761D01*
X96137142Y-49862380D01*
X95946666Y-49862380D01*
X95851428Y-49814761D01*
X95756190Y-49719523D01*
X95708571Y-49529047D01*
X95708571Y-49195714D01*
X95756190Y-49005238D01*
X95851428Y-48910000D01*
X95946666Y-48862380D01*
X96803809Y-48862380D02*
X96803809Y-49671904D01*
X96851428Y-49767142D01*
X96899047Y-49814761D01*
X96994285Y-49862380D01*
X97184761Y-49862380D01*
X97280000Y-49814761D01*
X97327619Y-49767142D01*
X97375238Y-49671904D01*
X97375238Y-48862380D01*
X97708571Y-48862380D02*
X98280000Y-48862380D01*
X97994285Y-49862380D02*
X97994285Y-48862380D01*
X99280000Y-48862380D02*
X99946666Y-48862380D01*
X99280000Y-49862380D01*
X99946666Y-49862380D01*
X100518095Y-48862380D02*
X100708571Y-48862380D01*
X100803809Y-48910000D01*
X100899047Y-49005238D01*
X100946666Y-49195714D01*
X100946666Y-49529047D01*
X100899047Y-49719523D01*
X100803809Y-49814761D01*
X100708571Y-49862380D01*
X100518095Y-49862380D01*
X100422857Y-49814761D01*
X100327619Y-49719523D01*
X100280000Y-49529047D01*
X100280000Y-49195714D01*
X100327619Y-49005238D01*
X100422857Y-48910000D01*
X100518095Y-48862380D01*
X101375238Y-49862380D02*
X101375238Y-48862380D01*
X101946666Y-49862380D01*
X101946666Y-48862380D01*
X102422857Y-49338571D02*
X102756190Y-49338571D01*
X102899047Y-49862380D02*
X102422857Y-49862380D01*
X102422857Y-48862380D01*
X102899047Y-48862380D01*
X94018095Y-55576666D02*
X94494285Y-55576666D01*
X93922857Y-55862380D02*
X94256190Y-54862380D01*
X94589523Y-55862380D01*
X94922857Y-55195714D02*
X94922857Y-55862380D01*
X94922857Y-55290952D02*
X94970476Y-55243333D01*
X95065714Y-55195714D01*
X95208571Y-55195714D01*
X95303809Y-55243333D01*
X95351428Y-55338571D01*
X95351428Y-55862380D01*
X95684761Y-55195714D02*
X96065714Y-55195714D01*
X95827619Y-54862380D02*
X95827619Y-55719523D01*
X95875238Y-55814761D01*
X95970476Y-55862380D01*
X96065714Y-55862380D01*
X96780000Y-55814761D02*
X96684761Y-55862380D01*
X96494285Y-55862380D01*
X96399047Y-55814761D01*
X96351428Y-55719523D01*
X96351428Y-55338571D01*
X96399047Y-55243333D01*
X96494285Y-55195714D01*
X96684761Y-55195714D01*
X96780000Y-55243333D01*
X96827619Y-55338571D01*
X96827619Y-55433809D01*
X96351428Y-55529047D01*
X97256190Y-55195714D02*
X97256190Y-55862380D01*
X97256190Y-55290952D02*
X97303809Y-55243333D01*
X97399047Y-55195714D01*
X97541904Y-55195714D01*
X97637142Y-55243333D01*
X97684761Y-55338571D01*
X97684761Y-55862380D01*
X98160952Y-55195714D02*
X98160952Y-55862380D01*
X98160952Y-55290952D02*
X98208571Y-55243333D01*
X98303809Y-55195714D01*
X98446666Y-55195714D01*
X98541904Y-55243333D01*
X98589523Y-55338571D01*
X98589523Y-55862380D01*
X99494285Y-55862380D02*
X99494285Y-55338571D01*
X99446666Y-55243333D01*
X99351428Y-55195714D01*
X99160952Y-55195714D01*
X99065714Y-55243333D01*
X99494285Y-55814761D02*
X99399047Y-55862380D01*
X99160952Y-55862380D01*
X99065714Y-55814761D01*
X99018095Y-55719523D01*
X99018095Y-55624285D01*
X99065714Y-55529047D01*
X99160952Y-55481428D01*
X99399047Y-55481428D01*
X99494285Y-55433809D01*
D10*
X107841904Y-53761190D02*
X107603809Y-53761190D01*
X107580000Y-53999285D01*
X107603809Y-53975476D01*
X107651428Y-53951666D01*
X107770476Y-53951666D01*
X107818095Y-53975476D01*
X107841904Y-53999285D01*
X107865714Y-54046904D01*
X107865714Y-54165952D01*
X107841904Y-54213571D01*
X107818095Y-54237380D01*
X107770476Y-54261190D01*
X107651428Y-54261190D01*
X107603809Y-54237380D01*
X107580000Y-54213571D01*
X108460952Y-54261190D02*
X108460952Y-53927857D01*
X108460952Y-53975476D02*
X108484761Y-53951666D01*
X108532380Y-53927857D01*
X108603809Y-53927857D01*
X108651428Y-53951666D01*
X108675238Y-53999285D01*
X108675238Y-54261190D01*
X108675238Y-53999285D02*
X108699047Y-53951666D01*
X108746666Y-53927857D01*
X108818095Y-53927857D01*
X108865714Y-53951666D01*
X108889523Y-53999285D01*
X108889523Y-54261190D01*
X109127619Y-54261190D02*
X109127619Y-53927857D01*
X109127619Y-53975476D02*
X109151428Y-53951666D01*
X109199047Y-53927857D01*
X109270476Y-53927857D01*
X109318095Y-53951666D01*
X109341904Y-53999285D01*
X109341904Y-54261190D01*
X109341904Y-53999285D02*
X109365714Y-53951666D01*
X109413333Y-53927857D01*
X109484761Y-53927857D01*
X109532380Y-53951666D01*
X109556190Y-53999285D01*
X109556190Y-54261190D01*
X84841904Y-53761190D02*
X84603809Y-53761190D01*
X84580000Y-53999285D01*
X84603809Y-53975476D01*
X84651428Y-53951666D01*
X84770476Y-53951666D01*
X84818095Y-53975476D01*
X84841904Y-53999285D01*
X84865714Y-54046904D01*
X84865714Y-54165952D01*
X84841904Y-54213571D01*
X84818095Y-54237380D01*
X84770476Y-54261190D01*
X84651428Y-54261190D01*
X84603809Y-54237380D01*
X84580000Y-54213571D01*
X85460952Y-54261190D02*
X85460952Y-53927857D01*
X85460952Y-53975476D02*
X85484761Y-53951666D01*
X85532380Y-53927857D01*
X85603809Y-53927857D01*
X85651428Y-53951666D01*
X85675238Y-53999285D01*
X85675238Y-54261190D01*
X85675238Y-53999285D02*
X85699047Y-53951666D01*
X85746666Y-53927857D01*
X85818095Y-53927857D01*
X85865714Y-53951666D01*
X85889523Y-53999285D01*
X85889523Y-54261190D01*
X86127619Y-54261190D02*
X86127619Y-53927857D01*
X86127619Y-53975476D02*
X86151428Y-53951666D01*
X86199047Y-53927857D01*
X86270476Y-53927857D01*
X86318095Y-53951666D01*
X86341904Y-53999285D01*
X86341904Y-54261190D01*
X86341904Y-53999285D02*
X86365714Y-53951666D01*
X86413333Y-53927857D01*
X86484761Y-53927857D01*
X86532380Y-53951666D01*
X86556190Y-53999285D01*
X86556190Y-54261190D01*
D11*
G04 #@! TO.C,REF\u002A\u002A*
X145800000Y-50000000D02*
G75*
G03*
X145800000Y-50000000I-2800000J0D01*
G01*
X52800000Y-50000000D02*
G75*
G03*
X52800000Y-50000000I-2800000J0D01*
G01*
X52800000Y-143000000D02*
G75*
G03*
X52800000Y-143000000I-2800000J0D01*
G01*
D10*
G04 #@! TO.C,U4*
X105180000Y-52410000D02*
X104980000Y-52210000D01*
X82980000Y-54535000D02*
X87580000Y-54535000D01*
X105980000Y-54535000D02*
X106180000Y-54335000D01*
X105980000Y-54535000D02*
X106180000Y-54735000D01*
X105180000Y-47810000D02*
X104980000Y-48010000D01*
X105180000Y-52410000D02*
X105380000Y-52210000D01*
X87580000Y-54535000D02*
X87380000Y-54335000D01*
X110580000Y-54535000D02*
X110380000Y-54335000D01*
X82980000Y-54535000D02*
X83180000Y-54335000D01*
X105980000Y-54535000D02*
X110580000Y-54535000D01*
X87580000Y-54535000D02*
X87380000Y-54735000D01*
X105180000Y-52410000D02*
X105180000Y-47810000D01*
X82980000Y-54535000D02*
X83180000Y-54735000D01*
X110580000Y-54535000D02*
X110380000Y-54735000D01*
X105180000Y-47810000D02*
X105380000Y-48010000D01*
D11*
G04 #@! TO.C,REF\u002A\u002A*
X145800000Y-143000000D02*
G75*
G03*
X145800000Y-143000000I-2800000J0D01*
G01*
G04 #@! TD*
M02*
