G04 #@! TF.GenerationSoftware,KiCad,Pcbnew,6.0.7-f9a2dced07~116~ubuntu22.04.1*
G04 #@! TF.CreationDate,2022-09-08T14:06:49+01:00*
G04 #@! TF.ProjectId,rLab_Door,724c6162-5f44-46f6-9f72-2e6b69636164,rev?*
G04 #@! TF.SameCoordinates,Original*
G04 #@! TF.FileFunction,Other,Comment*
%FSLAX46Y46*%
G04 Gerber Fmt 4.6, Leading zero omitted, Abs format (unit mm)*
G04 Created by KiCad (PCBNEW 6.0.7-f9a2dced07~116~ubuntu22.04.1) date 2022-09-08 14:06:49*
%MOMM*%
%LPD*%
G01*
G04 APERTURE LIST*
%ADD10C,0.100000*%
%ADD11C,0.150000*%
G04 APERTURE END LIST*
D10*
G04 #@! TO.C,U4*
X157526190Y-51663095D02*
X157526190Y-51901190D01*
X157764285Y-51925000D01*
X157740476Y-51901190D01*
X157716666Y-51853571D01*
X157716666Y-51734523D01*
X157740476Y-51686904D01*
X157764285Y-51663095D01*
X157811904Y-51639285D01*
X157930952Y-51639285D01*
X157978571Y-51663095D01*
X158002380Y-51686904D01*
X158026190Y-51734523D01*
X158026190Y-51853571D01*
X158002380Y-51901190D01*
X157978571Y-51925000D01*
X158026190Y-51044047D02*
X157692857Y-51044047D01*
X157740476Y-51044047D02*
X157716666Y-51020238D01*
X157692857Y-50972619D01*
X157692857Y-50901190D01*
X157716666Y-50853571D01*
X157764285Y-50829761D01*
X158026190Y-50829761D01*
X157764285Y-50829761D02*
X157716666Y-50805952D01*
X157692857Y-50758333D01*
X157692857Y-50686904D01*
X157716666Y-50639285D01*
X157764285Y-50615476D01*
X158026190Y-50615476D01*
X158026190Y-50377380D02*
X157692857Y-50377380D01*
X157740476Y-50377380D02*
X157716666Y-50353571D01*
X157692857Y-50305952D01*
X157692857Y-50234523D01*
X157716666Y-50186904D01*
X157764285Y-50163095D01*
X158026190Y-50163095D01*
X157764285Y-50163095D02*
X157716666Y-50139285D01*
X157692857Y-50091666D01*
X157692857Y-50020238D01*
X157716666Y-49972619D01*
X157764285Y-49948809D01*
X158026190Y-49948809D01*
X138061904Y-55351190D02*
X137823809Y-55351190D01*
X137800000Y-55589285D01*
X137823809Y-55565476D01*
X137871428Y-55541666D01*
X137990476Y-55541666D01*
X138038095Y-55565476D01*
X138061904Y-55589285D01*
X138085714Y-55636904D01*
X138085714Y-55755952D01*
X138061904Y-55803571D01*
X138038095Y-55827380D01*
X137990476Y-55851190D01*
X137871428Y-55851190D01*
X137823809Y-55827380D01*
X137800000Y-55803571D01*
X138680952Y-55851190D02*
X138680952Y-55517857D01*
X138680952Y-55565476D02*
X138704761Y-55541666D01*
X138752380Y-55517857D01*
X138823809Y-55517857D01*
X138871428Y-55541666D01*
X138895238Y-55589285D01*
X138895238Y-55851190D01*
X138895238Y-55589285D02*
X138919047Y-55541666D01*
X138966666Y-55517857D01*
X139038095Y-55517857D01*
X139085714Y-55541666D01*
X139109523Y-55589285D01*
X139109523Y-55851190D01*
X139347619Y-55851190D02*
X139347619Y-55517857D01*
X139347619Y-55565476D02*
X139371428Y-55541666D01*
X139419047Y-55517857D01*
X139490476Y-55517857D01*
X139538095Y-55541666D01*
X139561904Y-55589285D01*
X139561904Y-55851190D01*
X139561904Y-55589285D02*
X139585714Y-55541666D01*
X139633333Y-55517857D01*
X139704761Y-55517857D01*
X139752380Y-55541666D01*
X139776190Y-55589285D01*
X139776190Y-55851190D01*
D11*
X143928571Y-51452380D02*
X143928571Y-50452380D01*
X144500000Y-51452380D02*
X144071428Y-50880952D01*
X144500000Y-50452380D02*
X143928571Y-51023809D01*
X144928571Y-50928571D02*
X145261904Y-50928571D01*
X145404761Y-51452380D02*
X144928571Y-51452380D01*
X144928571Y-50452380D01*
X145404761Y-50452380D01*
X145833333Y-50928571D02*
X146166666Y-50928571D01*
X146309523Y-51452380D02*
X145833333Y-51452380D01*
X145833333Y-50452380D01*
X146309523Y-50452380D01*
X146738095Y-51452380D02*
X146738095Y-50452380D01*
X147119047Y-50452380D01*
X147214285Y-50500000D01*
X147261904Y-50547619D01*
X147309523Y-50642857D01*
X147309523Y-50785714D01*
X147261904Y-50880952D01*
X147214285Y-50928571D01*
X147119047Y-50976190D01*
X146738095Y-50976190D01*
X147738095Y-51071428D02*
X148500000Y-51071428D01*
X149166666Y-50452380D02*
X149357142Y-50452380D01*
X149452380Y-50500000D01*
X149547619Y-50595238D01*
X149595238Y-50785714D01*
X149595238Y-51119047D01*
X149547619Y-51309523D01*
X149452380Y-51404761D01*
X149357142Y-51452380D01*
X149166666Y-51452380D01*
X149071428Y-51404761D01*
X148976190Y-51309523D01*
X148928571Y-51119047D01*
X148928571Y-50785714D01*
X148976190Y-50595238D01*
X149071428Y-50500000D01*
X149166666Y-50452380D01*
X150023809Y-50452380D02*
X150023809Y-51261904D01*
X150071428Y-51357142D01*
X150119047Y-51404761D01*
X150214285Y-51452380D01*
X150404761Y-51452380D01*
X150500000Y-51404761D01*
X150547619Y-51357142D01*
X150595238Y-51261904D01*
X150595238Y-50452380D01*
X150928571Y-50452380D02*
X151500000Y-50452380D01*
X151214285Y-51452380D02*
X151214285Y-50452380D01*
X152500000Y-50452380D02*
X153166666Y-50452380D01*
X152500000Y-51452380D01*
X153166666Y-51452380D01*
X153738095Y-50452380D02*
X153928571Y-50452380D01*
X154023809Y-50500000D01*
X154119047Y-50595238D01*
X154166666Y-50785714D01*
X154166666Y-51119047D01*
X154119047Y-51309523D01*
X154023809Y-51404761D01*
X153928571Y-51452380D01*
X153738095Y-51452380D01*
X153642857Y-51404761D01*
X153547619Y-51309523D01*
X153500000Y-51119047D01*
X153500000Y-50785714D01*
X153547619Y-50595238D01*
X153642857Y-50500000D01*
X153738095Y-50452380D01*
X154595238Y-51452380D02*
X154595238Y-50452380D01*
X155166666Y-51452380D01*
X155166666Y-50452380D01*
X155642857Y-50928571D02*
X155976190Y-50928571D01*
X156119047Y-51452380D02*
X155642857Y-51452380D01*
X155642857Y-50452380D01*
X156119047Y-50452380D01*
X147238095Y-57166666D02*
X147714285Y-57166666D01*
X147142857Y-57452380D02*
X147476190Y-56452380D01*
X147809523Y-57452380D01*
X148142857Y-56785714D02*
X148142857Y-57452380D01*
X148142857Y-56880952D02*
X148190476Y-56833333D01*
X148285714Y-56785714D01*
X148428571Y-56785714D01*
X148523809Y-56833333D01*
X148571428Y-56928571D01*
X148571428Y-57452380D01*
X148904761Y-56785714D02*
X149285714Y-56785714D01*
X149047619Y-56452380D02*
X149047619Y-57309523D01*
X149095238Y-57404761D01*
X149190476Y-57452380D01*
X149285714Y-57452380D01*
X150000000Y-57404761D02*
X149904761Y-57452380D01*
X149714285Y-57452380D01*
X149619047Y-57404761D01*
X149571428Y-57309523D01*
X149571428Y-56928571D01*
X149619047Y-56833333D01*
X149714285Y-56785714D01*
X149904761Y-56785714D01*
X150000000Y-56833333D01*
X150047619Y-56928571D01*
X150047619Y-57023809D01*
X149571428Y-57119047D01*
X150476190Y-56785714D02*
X150476190Y-57452380D01*
X150476190Y-56880952D02*
X150523809Y-56833333D01*
X150619047Y-56785714D01*
X150761904Y-56785714D01*
X150857142Y-56833333D01*
X150904761Y-56928571D01*
X150904761Y-57452380D01*
X151380952Y-56785714D02*
X151380952Y-57452380D01*
X151380952Y-56880952D02*
X151428571Y-56833333D01*
X151523809Y-56785714D01*
X151666666Y-56785714D01*
X151761904Y-56833333D01*
X151809523Y-56928571D01*
X151809523Y-57452380D01*
X152714285Y-57452380D02*
X152714285Y-56928571D01*
X152666666Y-56833333D01*
X152571428Y-56785714D01*
X152380952Y-56785714D01*
X152285714Y-56833333D01*
X152714285Y-57404761D02*
X152619047Y-57452380D01*
X152380952Y-57452380D01*
X152285714Y-57404761D01*
X152238095Y-57309523D01*
X152238095Y-57214285D01*
X152285714Y-57119047D01*
X152380952Y-57071428D01*
X152619047Y-57071428D01*
X152714285Y-57023809D01*
D10*
X161061904Y-55351190D02*
X160823809Y-55351190D01*
X160800000Y-55589285D01*
X160823809Y-55565476D01*
X160871428Y-55541666D01*
X160990476Y-55541666D01*
X161038095Y-55565476D01*
X161061904Y-55589285D01*
X161085714Y-55636904D01*
X161085714Y-55755952D01*
X161061904Y-55803571D01*
X161038095Y-55827380D01*
X160990476Y-55851190D01*
X160871428Y-55851190D01*
X160823809Y-55827380D01*
X160800000Y-55803571D01*
X161680952Y-55851190D02*
X161680952Y-55517857D01*
X161680952Y-55565476D02*
X161704761Y-55541666D01*
X161752380Y-55517857D01*
X161823809Y-55517857D01*
X161871428Y-55541666D01*
X161895238Y-55589285D01*
X161895238Y-55851190D01*
X161895238Y-55589285D02*
X161919047Y-55541666D01*
X161966666Y-55517857D01*
X162038095Y-55517857D01*
X162085714Y-55541666D01*
X162109523Y-55589285D01*
X162109523Y-55851190D01*
X162347619Y-55851190D02*
X162347619Y-55517857D01*
X162347619Y-55565476D02*
X162371428Y-55541666D01*
X162419047Y-55517857D01*
X162490476Y-55517857D01*
X162538095Y-55541666D01*
X162561904Y-55589285D01*
X162561904Y-55851190D01*
X162561904Y-55589285D02*
X162585714Y-55541666D01*
X162633333Y-55517857D01*
X162704761Y-55517857D01*
X162752380Y-55541666D01*
X162776190Y-55589285D01*
X162776190Y-55851190D01*
D11*
G04 #@! TO.C,REF\u002A\u002A*
X198200000Y-55000000D02*
G75*
G03*
X198200000Y-55000000I-3200000J0D01*
G01*
X108200000Y-55000000D02*
G75*
G03*
X108200000Y-55000000I-3200000J0D01*
G01*
X198200000Y-145000000D02*
G75*
G03*
X198200000Y-145000000I-3200000J0D01*
G01*
D10*
G04 #@! TO.C,U4*
X158400000Y-54000000D02*
X158600000Y-53800000D01*
X159200000Y-56125000D02*
X159400000Y-55925000D01*
X136200000Y-56125000D02*
X136400000Y-55925000D01*
X163800000Y-56125000D02*
X163600000Y-56325000D01*
X158400000Y-49400000D02*
X158200000Y-49600000D01*
X136200000Y-56125000D02*
X136400000Y-56325000D01*
X158400000Y-54000000D02*
X158400000Y-49400000D01*
X159200000Y-56125000D02*
X159400000Y-56325000D01*
X159200000Y-56125000D02*
X163800000Y-56125000D01*
X140800000Y-56125000D02*
X140600000Y-56325000D01*
X140800000Y-56125000D02*
X140600000Y-55925000D01*
X136200000Y-56125000D02*
X140800000Y-56125000D01*
X158400000Y-49400000D02*
X158600000Y-49600000D01*
X163800000Y-56125000D02*
X163600000Y-55925000D01*
X158400000Y-54000000D02*
X158200000Y-53800000D01*
D11*
G04 #@! TO.C,REF\u002A\u002A*
X108200000Y-145000000D02*
G75*
G03*
X108200000Y-145000000I-3200000J0D01*
G01*
G04 #@! TD*
M02*
