M48
; DRILL file {KiCad 6.0.7-f9a2dced07~116~ubuntu22.04.1} date Thu Sep  8 14:06:49 2022
; FORMAT={-:-/ absolute / metric / decimal}
; #@! TF.CreationDate,2022-09-08T14:06:49+01:00
; #@! TF.GenerationSoftware,Kicad,Pcbnew,6.0.7-f9a2dced07~116~ubuntu22.04.1
; #@! TF.FileFunction,MixedPlating,1,4
FMAT,2
METRIC
; #@! TA.AperFunction,Plated,PTH,ViaDrill
T1C0.400
; #@! TA.AperFunction,Plated,PTH,ComponentDrill
T2C0.500
; #@! TA.AperFunction,Plated,PTH,ViaDrill
T3C0.700
; #@! TA.AperFunction,Plated,PTH,ComponentDrill
T4C0.762
; #@! TA.AperFunction,Plated,PTH,ComponentDrill
T5C0.800
; #@! TA.AperFunction,Plated,PTH,ComponentDrill
T6C1.000
; #@! TA.AperFunction,Plated,PTH,ComponentDrill
T7C1.300
; #@! TA.AperFunction,Plated,PTH,ComponentDrill
T8C3.200
; #@! TA.AperFunction,NonPlated,NPTH,ComponentDrill
T9C2.700
%
G90
G05
T1
X122.428Y-97.028
X126.812Y-75.88
X126.934Y-84.328
X126.939Y-87.945
X127.0Y-72.136
X128.524Y-102.616
X135.128Y-95.504
X136.144Y-95.504
X137.16Y-95.504
X137.668Y-97.028
X138.176Y-95.504
X138.176Y-106.68
X139.7Y-68.072
X139.7Y-70.612
X139.7Y-72.136
X139.704Y-69.092
X142.24Y-81.28
X144.272Y-96.52
X144.78Y-77.216
X147.32Y-131.572
X148.844Y-73.152
X148.844Y-74.676
X155.448Y-81.28
X160.528Y-61.976
X160.528Y-65.532
X160.528Y-66.548
X160.528Y-70.612
X160.528Y-72.136
X161.036Y-77.216
X161.04Y-76.196
X165.1Y-111.252
X165.825Y-104.14
X169.672Y-68.072
X172.783Y-74.105
X172.783Y-86.805
X172.911Y-70.295
X172.911Y-82.995
X175.768Y-56.388
X176.784Y-111.252
X177.0Y-104.14
X181.864Y-70.612
X181.864Y-75.692
X181.864Y-83.312
X181.98Y-90.74
X186.436Y-115.824
X187.452Y-57.912
T2
X102.6Y-55.0
X102.6Y-145.0
X103.303Y-53.303
X103.303Y-56.697
X103.303Y-143.303
X103.303Y-146.697
X105.0Y-52.6
X105.0Y-57.4
X105.0Y-142.6
X105.0Y-147.4
X106.697Y-53.303
X106.697Y-56.697
X106.697Y-143.303
X106.697Y-146.697
X107.4Y-55.0
X107.4Y-145.0
X192.6Y-55.0
X192.6Y-145.0
X193.303Y-53.303
X193.303Y-56.697
X193.303Y-143.303
X193.303Y-146.697
X195.0Y-52.6
X195.0Y-57.4
X195.0Y-142.6
X195.0Y-147.4
X196.697Y-53.303
X196.697Y-56.697
X196.697Y-143.303
X196.697Y-146.697
X197.4Y-55.0
X197.4Y-145.0
T3
X135.128Y-61.468
X135.685Y-64.467
X155.448Y-102.616
X166.116Y-113.284
X178.308Y-113.284
T4
X140.856Y-113.396
X140.856Y-115.936
X140.856Y-124.064
X140.856Y-126.604
X159.398Y-113.396
X159.398Y-115.936
X159.398Y-124.064
X159.398Y-126.604
T5
X140.97Y-102.86
X140.97Y-105.4
X140.97Y-107.94
T6
X110.0Y-67.46
X110.0Y-70.0
X110.0Y-72.54
X110.0Y-75.08
X110.0Y-82.38
X110.0Y-84.92
X110.0Y-87.46
X110.0Y-90.0
X110.0Y-97.46
X110.0Y-100.0
X117.46Y-140.0
X120.0Y-140.0
X130.307Y-139.897
X132.847Y-139.897
X140.84Y-140.0
X143.38Y-140.0
X145.92Y-140.0
X148.46Y-140.0
X151.0Y-140.0
X153.54Y-140.0
X156.08Y-140.0
X158.62Y-140.0
X164.92Y-140.0
X167.46Y-140.0
X170.0Y-140.0
X177.46Y-60.0
X179.92Y-140.0
X180.0Y-60.0
X182.46Y-140.0
X182.54Y-60.0
X185.0Y-140.0
X185.08Y-60.0
X187.62Y-60.0
X190.0Y-67.38
X190.0Y-69.92
X190.0Y-72.46
X190.0Y-75.0
X190.0Y-85.0
X190.0Y-87.54
X190.0Y-90.08
X190.0Y-100.0
X190.0Y-102.54
X190.0Y-105.08
X190.16Y-60.0
X192.522Y-121.285
X192.522Y-123.825
X192.522Y-126.365
X192.522Y-128.905
X195.062Y-121.285
X195.062Y-123.825
X195.062Y-126.365
X195.062Y-128.905
T7
X118.0Y-113.75
X118.0Y-136.25
X130.0Y-113.75
X130.0Y-136.25
X170.0Y-113.75
X170.0Y-136.25
X182.0Y-113.75
X182.0Y-136.25
T8
X105.0Y-55.0
X105.0Y-145.0
X195.0Y-55.0
X195.0Y-145.0
T9
X118.0Y-125.0
X130.0Y-125.0
X170.0Y-125.0
X182.0Y-125.0
T6
X104.0Y-129.0G85X104.0Y-131.0
G05
X106.0Y-134.7G85X108.0Y-134.7
G05
X110.0Y-129.0G85X110.0Y-131.0
G05
T0
M30
