G04 #@! TF.GenerationSoftware,KiCad,Pcbnew,6.0.6-3a73a75311~116~ubuntu22.04.1*
G04 #@! TF.CreationDate,2022-06-27T17:47:04+01:00*
G04 #@! TF.ProjectId,rLab_Door,724c6162-5f44-46f6-9f72-2e6b69636164,rev?*
G04 #@! TF.SameCoordinates,Original*
G04 #@! TF.FileFunction,Legend,Top*
G04 #@! TF.FilePolarity,Positive*
%FSLAX46Y46*%
G04 Gerber Fmt 4.6, Leading zero omitted, Abs format (unit mm)*
G04 Created by KiCad (PCBNEW 6.0.6-3a73a75311~116~ubuntu22.04.1) date 2022-06-27 17:47:04*
%MOMM*%
%LPD*%
G01*
G04 APERTURE LIST*
%ADD10C,0.378363*%
%ADD11C,0.150000*%
%ADD12C,1.000000*%
%ADD13C,0.300000*%
%ADD14C,0.200000*%
%ADD15C,0.120000*%
G04 APERTURE END LIST*
D10*
G36*
X139055520Y-83990268D02*
G01*
X139785917Y-85622305D01*
X135005847Y-88661567D01*
X137152998Y-85619218D01*
X136422602Y-83987180D01*
X141202672Y-80947918D01*
X139055520Y-83990268D01*
G37*
X139055520Y-83990268D02*
X139785917Y-85622305D01*
X135005847Y-88661567D01*
X137152998Y-85619218D01*
X136422602Y-83987180D01*
X141202672Y-80947918D01*
X139055520Y-83990268D01*
D11*
X140155382Y-137992418D02*
X140155382Y-137230513D01*
X140536334Y-137611465D02*
X139774430Y-137611465D01*
X139536334Y-136278132D02*
X139536334Y-136754323D01*
X140012525Y-136801942D01*
X139964906Y-136754323D01*
X139917287Y-136659084D01*
X139917287Y-136420989D01*
X139964906Y-136325751D01*
X140012525Y-136278132D01*
X140107763Y-136230513D01*
X140345858Y-136230513D01*
X140441096Y-136278132D01*
X140488715Y-136325751D01*
X140536334Y-136420989D01*
X140536334Y-136659084D01*
X140488715Y-136754323D01*
X140441096Y-136801942D01*
X139536334Y-135944799D02*
X140536334Y-135611465D01*
X139536334Y-135278132D01*
X193467966Y-89768445D02*
X192467966Y-89768445D01*
X193467966Y-89197016D01*
X192467966Y-89197016D01*
X192944157Y-88720826D02*
X192944157Y-88387492D01*
X193467966Y-88244635D02*
X193467966Y-88720826D01*
X192467966Y-88720826D01*
X192467966Y-88244635D01*
X192467966Y-87625588D02*
X192467966Y-87435111D01*
X192515586Y-87339873D01*
X192610824Y-87244635D01*
X192801300Y-87197016D01*
X193134633Y-87197016D01*
X193325109Y-87244635D01*
X193420347Y-87339873D01*
X193467966Y-87435111D01*
X193467966Y-87625588D01*
X193420347Y-87720826D01*
X193325109Y-87816064D01*
X193134633Y-87863683D01*
X192801300Y-87863683D01*
X192610824Y-87816064D01*
X192515586Y-87720826D01*
X192467966Y-87625588D01*
X193467966Y-86768445D02*
X192467966Y-86768445D01*
X192467966Y-86387492D01*
X192515586Y-86292254D01*
X192563205Y-86244635D01*
X192658443Y-86197016D01*
X192801300Y-86197016D01*
X192896538Y-86244635D01*
X192944157Y-86292254D01*
X192991776Y-86387492D01*
X192991776Y-86768445D01*
X193467966Y-85768445D02*
X192467966Y-85768445D01*
X192467966Y-85387492D02*
X193467966Y-84720826D01*
X192467966Y-84720826D02*
X193467966Y-85387492D01*
X192944157Y-84339873D02*
X192944157Y-84006540D01*
X193467966Y-83863683D02*
X193467966Y-84339873D01*
X192467966Y-84339873D01*
X192467966Y-83863683D01*
X193467966Y-82958921D02*
X193467966Y-83435111D01*
X192467966Y-83435111D01*
X192563205Y-81911302D02*
X192515586Y-81863683D01*
X192467966Y-81768445D01*
X192467966Y-81530349D01*
X192515586Y-81435111D01*
X192563205Y-81387492D01*
X192658443Y-81339873D01*
X192753681Y-81339873D01*
X192896538Y-81387492D01*
X193467966Y-81958921D01*
X193467966Y-81339873D01*
X180216023Y-134864701D02*
X180168403Y-134959939D01*
X180168403Y-135102797D01*
X180216023Y-135245654D01*
X180311261Y-135340892D01*
X180406499Y-135388511D01*
X180596975Y-135436130D01*
X180739832Y-135436130D01*
X180930308Y-135388511D01*
X181025546Y-135340892D01*
X181120784Y-135245654D01*
X181168403Y-135102797D01*
X181168403Y-135007558D01*
X181120784Y-134864701D01*
X181073165Y-134817082D01*
X180739832Y-134817082D01*
X180739832Y-135007558D01*
X181168403Y-134388511D02*
X180168403Y-134388511D01*
X181168403Y-133817082D01*
X180168403Y-133817082D01*
X181168403Y-133340892D02*
X180168403Y-133340892D01*
X180168403Y-133102797D01*
X180216023Y-132959939D01*
X180311261Y-132864701D01*
X180406499Y-132817082D01*
X180596975Y-132769463D01*
X180739832Y-132769463D01*
X180930308Y-132817082D01*
X181025546Y-132864701D01*
X181120784Y-132959939D01*
X181168403Y-133102797D01*
X181168403Y-133340892D01*
X152411314Y-137518152D02*
X152363694Y-137613390D01*
X152363694Y-137756248D01*
X152411314Y-137899105D01*
X152506552Y-137994343D01*
X152601790Y-138041962D01*
X152792266Y-138089581D01*
X152935123Y-138089581D01*
X153125599Y-138041962D01*
X153220837Y-137994343D01*
X153316075Y-137899105D01*
X153363694Y-137756248D01*
X153363694Y-137661009D01*
X153316075Y-137518152D01*
X153268456Y-137470533D01*
X152935123Y-137470533D01*
X152935123Y-137661009D01*
X153363694Y-137041962D02*
X152363694Y-137041962D01*
X153363694Y-136470533D01*
X152363694Y-136470533D01*
X153363694Y-135994343D02*
X152363694Y-135994343D01*
X152363694Y-135756248D01*
X152411314Y-135613390D01*
X152506552Y-135518152D01*
X152601790Y-135470533D01*
X152792266Y-135422914D01*
X152935123Y-135422914D01*
X153125599Y-135470533D01*
X153220837Y-135518152D01*
X153316075Y-135613390D01*
X153363694Y-135756248D01*
X153363694Y-135994343D01*
X105214285Y-59452380D02*
X105785714Y-59452380D01*
X105500000Y-60452380D02*
X105500000Y-59452380D01*
X106023809Y-59452380D02*
X106690476Y-60452380D01*
X106690476Y-59452380D02*
X106023809Y-60452380D01*
X107071428Y-60452380D02*
X107071428Y-59452380D01*
X107309523Y-59452380D01*
X107452380Y-59500000D01*
X107547619Y-59595238D01*
X107595238Y-59690476D01*
X107642857Y-59880952D01*
X107642857Y-60023809D01*
X107595238Y-60214285D01*
X107547619Y-60309523D01*
X107452380Y-60404761D01*
X107309523Y-60452380D01*
X107071428Y-60452380D01*
X108261904Y-59452380D02*
X108452380Y-59452380D01*
X108547619Y-59500000D01*
X108642857Y-59595238D01*
X108690476Y-59785714D01*
X108690476Y-60119047D01*
X108642857Y-60309523D01*
X108547619Y-60404761D01*
X108452380Y-60452380D01*
X108261904Y-60452380D01*
X108166666Y-60404761D01*
X108071428Y-60309523D01*
X108023809Y-60119047D01*
X108023809Y-59785714D01*
X108071428Y-59595238D01*
X108166666Y-59500000D01*
X108261904Y-59452380D01*
X134479479Y-137890384D02*
X135479479Y-137557051D01*
X134479479Y-137223717D01*
X135574718Y-137128479D02*
X135574718Y-136366574D01*
X135479479Y-136128479D02*
X134479479Y-136128479D01*
X135479479Y-135652289D02*
X134479479Y-135652289D01*
X135479479Y-135080860D01*
X134479479Y-135080860D01*
X184201392Y-50161414D02*
X183725202Y-50494747D01*
X184201392Y-50732842D02*
X183201392Y-50732842D01*
X183201392Y-50351890D01*
X183249012Y-50256652D01*
X183296631Y-50209033D01*
X183391869Y-50161414D01*
X183534726Y-50161414D01*
X183629964Y-50209033D01*
X183677583Y-50256652D01*
X183725202Y-50351890D01*
X183725202Y-50732842D01*
X184153773Y-49780461D02*
X184201392Y-49637604D01*
X184201392Y-49399509D01*
X184153773Y-49304271D01*
X184106154Y-49256652D01*
X184010916Y-49209033D01*
X183915678Y-49209033D01*
X183820440Y-49256652D01*
X183772821Y-49304271D01*
X183725202Y-49399509D01*
X183677583Y-49589985D01*
X183629964Y-49685223D01*
X183582345Y-49732842D01*
X183487107Y-49780461D01*
X183391869Y-49780461D01*
X183296631Y-49732842D01*
X183249012Y-49685223D01*
X183201392Y-49589985D01*
X183201392Y-49351890D01*
X183249012Y-49209033D01*
X183201392Y-48923318D02*
X183201392Y-48351890D01*
X184201392Y-48637604D02*
X183201392Y-48637604D01*
D12*
X107476190Y-133285714D02*
X110523809Y-133285714D01*
X109000000Y-134809523D02*
X109000000Y-131761904D01*
D11*
X180634613Y-65508255D02*
X181396518Y-65508255D01*
X181015566Y-65889207D02*
X181015566Y-65127303D01*
X182348899Y-64889207D02*
X181872708Y-64889207D01*
X181825089Y-65365398D01*
X181872708Y-65317779D01*
X181967947Y-65270160D01*
X182206042Y-65270160D01*
X182301280Y-65317779D01*
X182348899Y-65365398D01*
X182396518Y-65460636D01*
X182396518Y-65698731D01*
X182348899Y-65793969D01*
X182301280Y-65841588D01*
X182206042Y-65889207D01*
X181967947Y-65889207D01*
X181872708Y-65841588D01*
X181825089Y-65793969D01*
X182682232Y-64889207D02*
X183015566Y-65889207D01*
X183348899Y-64889207D01*
X181327795Y-82315387D02*
X181232557Y-82267767D01*
X181089700Y-82267767D01*
X180946842Y-82315387D01*
X180851604Y-82410625D01*
X180803985Y-82505863D01*
X180756366Y-82696339D01*
X180756366Y-82839196D01*
X180803985Y-83029672D01*
X180851604Y-83124910D01*
X180946842Y-83220148D01*
X181089700Y-83267767D01*
X181184938Y-83267767D01*
X181327795Y-83220148D01*
X181375414Y-83172529D01*
X181375414Y-82839196D01*
X181184938Y-82839196D01*
X181803985Y-83267767D02*
X181803985Y-82267767D01*
X182375414Y-83267767D01*
X182375414Y-82267767D01*
X182851604Y-83267767D02*
X182851604Y-82267767D01*
X183089700Y-82267767D01*
X183232557Y-82315387D01*
X183327795Y-82410625D01*
X183375414Y-82505863D01*
X183423033Y-82696339D01*
X183423033Y-82839196D01*
X183375414Y-83029672D01*
X183327795Y-83124910D01*
X183232557Y-83220148D01*
X183089700Y-83267767D01*
X182851604Y-83267767D01*
X105218731Y-73466856D02*
X105456826Y-74466856D01*
X105647302Y-73752571D01*
X105837778Y-74466856D01*
X106075873Y-73466856D01*
X106980635Y-73514476D02*
X106885397Y-73466856D01*
X106742540Y-73466856D01*
X106599683Y-73514476D01*
X106504445Y-73609714D01*
X106456826Y-73704952D01*
X106409207Y-73895428D01*
X106409207Y-74038285D01*
X106456826Y-74228761D01*
X106504445Y-74323999D01*
X106599683Y-74419237D01*
X106742540Y-74466856D01*
X106837778Y-74466856D01*
X106980635Y-74419237D01*
X107028254Y-74371618D01*
X107028254Y-74038285D01*
X106837778Y-74038285D01*
X107456826Y-74466856D02*
X107456826Y-73466856D01*
X107694921Y-73466856D01*
X107837778Y-73514476D01*
X107933016Y-73609714D01*
X107980635Y-73704952D01*
X108028254Y-73895428D01*
X108028254Y-74038285D01*
X107980635Y-74228761D01*
X107933016Y-74323999D01*
X107837778Y-74419237D01*
X107694921Y-74466856D01*
X107456826Y-74466856D01*
X108647302Y-73466856D02*
X108742540Y-73466856D01*
X108837778Y-73514476D01*
X108885397Y-73562095D01*
X108933016Y-73657333D01*
X108980635Y-73847809D01*
X108980635Y-74085904D01*
X108933016Y-74276380D01*
X108885397Y-74371618D01*
X108837778Y-74419237D01*
X108742540Y-74466856D01*
X108647302Y-74466856D01*
X108552064Y-74419237D01*
X108504445Y-74371618D01*
X108456826Y-74276380D01*
X108409207Y-74085904D01*
X108409207Y-73847809D01*
X108456826Y-73657333D01*
X108504445Y-73562095D01*
X108552064Y-73514476D01*
X108647302Y-73466856D01*
X137083888Y-137946214D02*
X138083888Y-137612881D01*
X137083888Y-137279548D01*
X138179127Y-137184310D02*
X138179127Y-136422405D01*
X137560079Y-135850976D02*
X137607698Y-135708119D01*
X137655317Y-135660500D01*
X137750555Y-135612881D01*
X137893412Y-135612881D01*
X137988650Y-135660500D01*
X138036269Y-135708119D01*
X138083888Y-135803357D01*
X138083888Y-136184310D01*
X137083888Y-136184310D01*
X137083888Y-135850976D01*
X137131508Y-135755738D01*
X137179127Y-135708119D01*
X137274365Y-135660500D01*
X137369603Y-135660500D01*
X137464841Y-135708119D01*
X137512460Y-135755738D01*
X137560079Y-135850976D01*
X137560079Y-136184310D01*
X137798174Y-135231929D02*
X137798174Y-134755738D01*
X138083888Y-135327167D02*
X137083888Y-134993833D01*
X138083888Y-134660500D01*
X137083888Y-134470024D02*
X137083888Y-133898595D01*
X138083888Y-134184310D02*
X137083888Y-134184310D01*
X137083888Y-133708119D02*
X137083888Y-133136691D01*
X138083888Y-133422405D02*
X137083888Y-133422405D01*
D12*
X121476190Y-133285714D02*
X124523809Y-133285714D01*
X123000000Y-134809523D02*
X123000000Y-131761904D01*
D11*
X181098732Y-50410317D02*
X181146351Y-50267460D01*
X181193970Y-50219841D01*
X181289208Y-50172222D01*
X181432065Y-50172222D01*
X181527303Y-50219841D01*
X181574922Y-50267460D01*
X181622541Y-50362698D01*
X181622541Y-50743651D01*
X180622541Y-50743651D01*
X180622541Y-50410317D01*
X180670161Y-50315079D01*
X180717780Y-50267460D01*
X180813018Y-50219841D01*
X180908256Y-50219841D01*
X181003494Y-50267460D01*
X181051113Y-50315079D01*
X181098732Y-50410317D01*
X181098732Y-50743651D01*
X180622541Y-49553175D02*
X180622541Y-49362698D01*
X180670161Y-49267460D01*
X180765399Y-49172222D01*
X180955875Y-49124603D01*
X181289208Y-49124603D01*
X181479684Y-49172222D01*
X181574922Y-49267460D01*
X181622541Y-49362698D01*
X181622541Y-49553175D01*
X181574922Y-49648413D01*
X181479684Y-49743651D01*
X181289208Y-49791270D01*
X180955875Y-49791270D01*
X180765399Y-49743651D01*
X180670161Y-49648413D01*
X180622541Y-49553175D01*
X180622541Y-48505555D02*
X180622541Y-48315079D01*
X180670161Y-48219841D01*
X180765399Y-48124603D01*
X180955875Y-48076984D01*
X181289208Y-48076984D01*
X181479684Y-48124603D01*
X181574922Y-48219841D01*
X181622541Y-48315079D01*
X181622541Y-48505555D01*
X181574922Y-48600794D01*
X181479684Y-48696032D01*
X181289208Y-48743651D01*
X180955875Y-48743651D01*
X180765399Y-48696032D01*
X180670161Y-48600794D01*
X180622541Y-48505555D01*
X180622541Y-47791270D02*
X180622541Y-47219841D01*
X181622541Y-47505555D02*
X180622541Y-47505555D01*
D12*
X126636190Y-133285714D02*
X129683809Y-133285714D01*
D11*
X142756872Y-138075675D02*
X142756872Y-137313771D01*
X143137824Y-137694723D02*
X142375920Y-137694723D01*
X142137824Y-136932818D02*
X142137824Y-136313771D01*
X142518777Y-136647104D01*
X142518777Y-136504247D01*
X142566396Y-136409009D01*
X142614015Y-136361390D01*
X142709253Y-136313771D01*
X142947348Y-136313771D01*
X143042586Y-136361390D01*
X143090205Y-136409009D01*
X143137824Y-136504247D01*
X143137824Y-136789961D01*
X143090205Y-136885199D01*
X143042586Y-136932818D01*
X142137824Y-136028056D02*
X143137824Y-135694723D01*
X142137824Y-135361390D01*
X142137824Y-135123294D02*
X142137824Y-134504247D01*
X142518777Y-134837580D01*
X142518777Y-134694723D01*
X142566396Y-134599485D01*
X142614015Y-134551866D01*
X142709253Y-134504247D01*
X142947348Y-134504247D01*
X143042586Y-134551866D01*
X143090205Y-134599485D01*
X143137824Y-134694723D01*
X143137824Y-134980437D01*
X143090205Y-135075675D01*
X143042586Y-135123294D01*
X193452380Y-66333333D02*
X192452380Y-66333333D01*
X192547619Y-65904761D02*
X192500000Y-65857142D01*
X192452380Y-65761904D01*
X192452380Y-65523809D01*
X192500000Y-65428571D01*
X192547619Y-65380952D01*
X192642857Y-65333333D01*
X192738095Y-65333333D01*
X192880952Y-65380952D01*
X193452380Y-65952380D01*
X193452380Y-65333333D01*
X193357142Y-64333333D02*
X193404761Y-64380952D01*
X193452380Y-64523809D01*
X193452380Y-64619047D01*
X193404761Y-64761904D01*
X193309523Y-64857142D01*
X193214285Y-64904761D01*
X193023809Y-64952380D01*
X192880952Y-64952380D01*
X192690476Y-64904761D01*
X192595238Y-64857142D01*
X192500000Y-64761904D01*
X192452380Y-64619047D01*
X192452380Y-64523809D01*
X192500000Y-64380952D01*
X192547619Y-64333333D01*
X193452380Y-63142857D02*
X192452380Y-63142857D01*
X192452380Y-62904761D01*
X192500000Y-62761904D01*
X192595238Y-62666666D01*
X192690476Y-62619047D01*
X192880952Y-62571428D01*
X193023809Y-62571428D01*
X193214285Y-62619047D01*
X193309523Y-62666666D01*
X193404761Y-62761904D01*
X193452380Y-62904761D01*
X193452380Y-63142857D01*
X193452380Y-62142857D02*
X192452380Y-62142857D01*
X193404761Y-61714285D02*
X193452380Y-61571428D01*
X193452380Y-61333333D01*
X193404761Y-61238095D01*
X193357142Y-61190476D01*
X193261904Y-61142857D01*
X193166666Y-61142857D01*
X193071428Y-61190476D01*
X193023809Y-61238095D01*
X192976190Y-61333333D01*
X192928571Y-61523809D01*
X192880952Y-61619047D01*
X192833333Y-61666666D01*
X192738095Y-61714285D01*
X192642857Y-61714285D01*
X192547619Y-61666666D01*
X192500000Y-61619047D01*
X192452380Y-61523809D01*
X192452380Y-61285714D01*
X192500000Y-61142857D01*
X193452380Y-60714285D02*
X192452380Y-60714285D01*
X192452380Y-60333333D01*
X192500000Y-60238095D01*
X192547619Y-60190476D01*
X192642857Y-60142857D01*
X192785714Y-60142857D01*
X192880952Y-60190476D01*
X192928571Y-60238095D01*
X192976190Y-60333333D01*
X192976190Y-60714285D01*
X193452380Y-59238095D02*
X193452380Y-59714285D01*
X192452380Y-59714285D01*
X193166666Y-58952380D02*
X193166666Y-58476190D01*
X193452380Y-59047619D02*
X192452380Y-58714285D01*
X193452380Y-58380952D01*
X192976190Y-57857142D02*
X193452380Y-57857142D01*
X192452380Y-58190476D02*
X192976190Y-57857142D01*
X192452380Y-57523809D01*
X193452380Y-78190476D02*
X192452380Y-78190476D01*
X193452380Y-77619047D01*
X192452380Y-77619047D01*
X192928571Y-77142857D02*
X192928571Y-76809523D01*
X193452380Y-76666666D02*
X193452380Y-77142857D01*
X192452380Y-77142857D01*
X192452380Y-76666666D01*
X192452380Y-76047619D02*
X192452380Y-75857142D01*
X192500000Y-75761904D01*
X192595238Y-75666666D01*
X192785714Y-75619047D01*
X193119047Y-75619047D01*
X193309523Y-75666666D01*
X193404761Y-75761904D01*
X193452380Y-75857142D01*
X193452380Y-76047619D01*
X193404761Y-76142857D01*
X193309523Y-76238095D01*
X193119047Y-76285714D01*
X192785714Y-76285714D01*
X192595238Y-76238095D01*
X192500000Y-76142857D01*
X192452380Y-76047619D01*
X193452380Y-75190476D02*
X192452380Y-75190476D01*
X192452380Y-74809523D01*
X192500000Y-74714285D01*
X192547619Y-74666666D01*
X192642857Y-74619047D01*
X192785714Y-74619047D01*
X192880952Y-74666666D01*
X192928571Y-74714285D01*
X192976190Y-74809523D01*
X192976190Y-75190476D01*
X193452380Y-74190476D02*
X192452380Y-74190476D01*
X192452380Y-73809523D02*
X193452380Y-73142857D01*
X192452380Y-73142857D02*
X193452380Y-73809523D01*
X192928571Y-72761904D02*
X192928571Y-72428571D01*
X193452380Y-72285714D02*
X193452380Y-72761904D01*
X192452380Y-72761904D01*
X192452380Y-72285714D01*
X193452380Y-71380952D02*
X193452380Y-71857142D01*
X192452380Y-71857142D01*
X193452380Y-69761904D02*
X193452380Y-70333333D01*
X193452380Y-70047619D02*
X192452380Y-70047619D01*
X192595238Y-70142857D01*
X192690476Y-70238095D01*
X192738095Y-70333333D01*
X180909249Y-60713785D02*
X181052106Y-60761404D01*
X181290202Y-60761404D01*
X181385440Y-60713785D01*
X181433059Y-60666166D01*
X181480678Y-60570928D01*
X181480678Y-60475690D01*
X181433059Y-60380452D01*
X181385440Y-60332833D01*
X181290202Y-60285214D01*
X181099726Y-60237595D01*
X181004487Y-60189976D01*
X180956868Y-60142357D01*
X180909249Y-60047119D01*
X180909249Y-59951881D01*
X180956868Y-59856643D01*
X181004487Y-59809024D01*
X181099726Y-59761404D01*
X181337821Y-59761404D01*
X181480678Y-59809024D01*
X182480678Y-60666166D02*
X182433059Y-60713785D01*
X182290202Y-60761404D01*
X182194964Y-60761404D01*
X182052106Y-60713785D01*
X181956868Y-60618547D01*
X181909249Y-60523309D01*
X181861630Y-60332833D01*
X181861630Y-60189976D01*
X181909249Y-59999500D01*
X181956868Y-59904262D01*
X182052106Y-59809024D01*
X182194964Y-59761404D01*
X182290202Y-59761404D01*
X182433059Y-59809024D01*
X182480678Y-59856643D01*
X183385440Y-60761404D02*
X182909249Y-60761404D01*
X182909249Y-59761404D01*
X147215940Y-137824990D02*
X147215940Y-137634513D01*
X147263560Y-137539275D01*
X147358798Y-137444037D01*
X147549274Y-137396418D01*
X147882607Y-137396418D01*
X148073083Y-137444037D01*
X148168321Y-137539275D01*
X148215940Y-137634513D01*
X148215940Y-137824990D01*
X148168321Y-137920228D01*
X148073083Y-138015466D01*
X147882607Y-138063085D01*
X147549274Y-138063085D01*
X147358798Y-138015466D01*
X147263560Y-137920228D01*
X147215940Y-137824990D01*
X148215940Y-136967847D02*
X147215940Y-136967847D01*
X147215940Y-136586894D01*
X147263560Y-136491656D01*
X147311179Y-136444037D01*
X147406417Y-136396418D01*
X147549274Y-136396418D01*
X147644512Y-136444037D01*
X147692131Y-136491656D01*
X147739750Y-136586894D01*
X147739750Y-136967847D01*
X147692131Y-135967847D02*
X147692131Y-135634513D01*
X148215940Y-135491656D02*
X148215940Y-135967847D01*
X147215940Y-135967847D01*
X147215940Y-135491656D01*
X148215940Y-135063085D02*
X147215940Y-135063085D01*
X148215940Y-134491656D01*
X147215940Y-134491656D01*
X147311179Y-134063085D02*
X147263560Y-134015466D01*
X147215940Y-133920228D01*
X147215940Y-133682132D01*
X147263560Y-133586894D01*
X147311179Y-133539275D01*
X147406417Y-133491656D01*
X147501655Y-133491656D01*
X147644512Y-133539275D01*
X148215940Y-134110704D01*
X148215940Y-133491656D01*
X105977279Y-62993856D02*
X105643945Y-62517666D01*
X105405850Y-62993856D02*
X105405850Y-61993856D01*
X105786802Y-61993856D01*
X105882041Y-62041476D01*
X105929660Y-62089095D01*
X105977279Y-62184333D01*
X105977279Y-62327190D01*
X105929660Y-62422428D01*
X105882041Y-62470047D01*
X105786802Y-62517666D01*
X105405850Y-62517666D01*
X106310612Y-61993856D02*
X106977279Y-62993856D01*
X106977279Y-61993856D02*
X106310612Y-62993856D01*
X107358231Y-62993856D02*
X107358231Y-61993856D01*
X107596326Y-61993856D01*
X107739183Y-62041476D01*
X107834421Y-62136714D01*
X107882041Y-62231952D01*
X107929660Y-62422428D01*
X107929660Y-62565285D01*
X107882041Y-62755761D01*
X107834421Y-62850999D01*
X107739183Y-62946237D01*
X107596326Y-62993856D01*
X107358231Y-62993856D01*
X108358231Y-62993856D02*
X108358231Y-61993856D01*
X180714285Y-88071428D02*
X181476190Y-88071428D01*
X181095238Y-88452380D02*
X181095238Y-87690476D01*
X182428571Y-87452380D02*
X181952380Y-87452380D01*
X181904761Y-87928571D01*
X181952380Y-87880952D01*
X182047619Y-87833333D01*
X182285714Y-87833333D01*
X182380952Y-87880952D01*
X182428571Y-87928571D01*
X182476190Y-88023809D01*
X182476190Y-88261904D01*
X182428571Y-88357142D01*
X182380952Y-88404761D01*
X182285714Y-88452380D01*
X182047619Y-88452380D01*
X181952380Y-88404761D01*
X181904761Y-88357142D01*
X182761904Y-87452380D02*
X183095238Y-88452380D01*
X183428571Y-87452380D01*
X124547619Y-48452380D02*
X124214285Y-47976190D01*
X123976190Y-48452380D02*
X123976190Y-47452380D01*
X124357142Y-47452380D01*
X124452380Y-47500000D01*
X124500000Y-47547619D01*
X124547619Y-47642857D01*
X124547619Y-47785714D01*
X124500000Y-47880952D01*
X124452380Y-47928571D01*
X124357142Y-47976190D01*
X123976190Y-47976190D01*
X124976190Y-47928571D02*
X125309523Y-47928571D01*
X125452380Y-48452380D02*
X124976190Y-48452380D01*
X124976190Y-47452380D01*
X125452380Y-47452380D01*
X125833333Y-48404761D02*
X125976190Y-48452380D01*
X126214285Y-48452380D01*
X126309523Y-48404761D01*
X126357142Y-48357142D01*
X126404761Y-48261904D01*
X126404761Y-48166666D01*
X126357142Y-48071428D01*
X126309523Y-48023809D01*
X126214285Y-47976190D01*
X126023809Y-47928571D01*
X125928571Y-47880952D01*
X125880952Y-47833333D01*
X125833333Y-47738095D01*
X125833333Y-47642857D01*
X125880952Y-47547619D01*
X125928571Y-47500000D01*
X126023809Y-47452380D01*
X126261904Y-47452380D01*
X126404761Y-47500000D01*
X126833333Y-47928571D02*
X127166666Y-47928571D01*
X127309523Y-48452380D02*
X126833333Y-48452380D01*
X126833333Y-47452380D01*
X127309523Y-47452380D01*
X127595238Y-47452380D02*
X128166666Y-47452380D01*
X127880952Y-48452380D02*
X127880952Y-47452380D01*
X109523809Y-144452380D02*
X109857142Y-145452380D01*
X110190476Y-144452380D01*
X110285714Y-145547619D02*
X111047619Y-145547619D01*
X111285714Y-145452380D02*
X111285714Y-144452380D01*
X111761904Y-145452380D02*
X111761904Y-144452380D01*
X112333333Y-145452380D01*
X112333333Y-144452380D01*
X170527130Y-50649216D02*
X170527130Y-50030168D01*
X170908083Y-50363501D01*
X170908083Y-50220644D01*
X170955702Y-50125406D01*
X171003321Y-50077787D01*
X171098559Y-50030168D01*
X171336654Y-50030168D01*
X171431892Y-50077787D01*
X171479511Y-50125406D01*
X171527130Y-50220644D01*
X171527130Y-50506359D01*
X171479511Y-50601597D01*
X171431892Y-50649216D01*
X170527130Y-49744454D02*
X171527130Y-49411121D01*
X170527130Y-49077787D01*
X170527130Y-48839692D02*
X170527130Y-48220644D01*
X170908083Y-48553978D01*
X170908083Y-48411121D01*
X170955702Y-48315882D01*
X171003321Y-48268263D01*
X171098559Y-48220644D01*
X171336654Y-48220644D01*
X171431892Y-48268263D01*
X171479511Y-48315882D01*
X171527130Y-48411121D01*
X171527130Y-48696835D01*
X171479511Y-48792073D01*
X171431892Y-48839692D01*
X179130897Y-50168054D02*
X178654707Y-50501388D01*
X179130897Y-50739483D02*
X178130897Y-50739483D01*
X178130897Y-50358531D01*
X178178517Y-50263293D01*
X178226136Y-50215673D01*
X178321374Y-50168054D01*
X178464231Y-50168054D01*
X178559469Y-50215673D01*
X178607088Y-50263293D01*
X178654707Y-50358531D01*
X178654707Y-50739483D01*
X178130897Y-49834721D02*
X179130897Y-49168054D01*
X178130897Y-49168054D02*
X179130897Y-49834721D01*
X179130897Y-48787102D02*
X178130897Y-48787102D01*
X163452380Y-135571428D02*
X163452380Y-135380952D01*
X163500000Y-135285714D01*
X163595238Y-135190476D01*
X163785714Y-135142857D01*
X164119047Y-135142857D01*
X164309523Y-135190476D01*
X164404761Y-135285714D01*
X164452380Y-135380952D01*
X164452380Y-135571428D01*
X164404761Y-135666666D01*
X164309523Y-135761904D01*
X164119047Y-135809523D01*
X163785714Y-135809523D01*
X163595238Y-135761904D01*
X163500000Y-135666666D01*
X163452380Y-135571428D01*
X164452380Y-134714285D02*
X163452380Y-134714285D01*
X163452380Y-134333333D01*
X163500000Y-134238095D01*
X163547619Y-134190476D01*
X163642857Y-134142857D01*
X163785714Y-134142857D01*
X163880952Y-134190476D01*
X163928571Y-134238095D01*
X163976190Y-134333333D01*
X163976190Y-134714285D01*
X163928571Y-133714285D02*
X163928571Y-133380952D01*
X164452380Y-133238095D02*
X164452380Y-133714285D01*
X163452380Y-133714285D01*
X163452380Y-133238095D01*
X164452380Y-132809523D02*
X163452380Y-132809523D01*
X164452380Y-132238095D01*
X163452380Y-132238095D01*
X144682197Y-137811440D02*
X144682197Y-137620963D01*
X144729817Y-137525725D01*
X144825055Y-137430487D01*
X145015531Y-137382868D01*
X145348864Y-137382868D01*
X145539340Y-137430487D01*
X145634578Y-137525725D01*
X145682197Y-137620963D01*
X145682197Y-137811440D01*
X145634578Y-137906678D01*
X145539340Y-138001916D01*
X145348864Y-138049535D01*
X145015531Y-138049535D01*
X144825055Y-138001916D01*
X144729817Y-137906678D01*
X144682197Y-137811440D01*
X145682197Y-136954297D02*
X144682197Y-136954297D01*
X144682197Y-136573344D01*
X144729817Y-136478106D01*
X144777436Y-136430487D01*
X144872674Y-136382868D01*
X145015531Y-136382868D01*
X145110769Y-136430487D01*
X145158388Y-136478106D01*
X145206007Y-136573344D01*
X145206007Y-136954297D01*
X145158388Y-135954297D02*
X145158388Y-135620963D01*
X145682197Y-135478106D02*
X145682197Y-135954297D01*
X144682197Y-135954297D01*
X144682197Y-135478106D01*
X145682197Y-135049535D02*
X144682197Y-135049535D01*
X145682197Y-134478106D01*
X144682197Y-134478106D01*
X145682197Y-133478106D02*
X145682197Y-134049535D01*
X145682197Y-133763821D02*
X144682197Y-133763821D01*
X144825055Y-133859059D01*
X144920293Y-133954297D01*
X144967912Y-134049535D01*
X105255653Y-75989196D02*
X105493748Y-76989196D01*
X105684224Y-76274911D01*
X105874700Y-76989196D01*
X106112795Y-75989196D01*
X107017557Y-76036816D02*
X106922319Y-75989196D01*
X106779462Y-75989196D01*
X106636605Y-76036816D01*
X106541367Y-76132054D01*
X106493748Y-76227292D01*
X106446129Y-76417768D01*
X106446129Y-76560625D01*
X106493748Y-76751101D01*
X106541367Y-76846339D01*
X106636605Y-76941577D01*
X106779462Y-76989196D01*
X106874700Y-76989196D01*
X107017557Y-76941577D01*
X107065176Y-76893958D01*
X107065176Y-76560625D01*
X106874700Y-76560625D01*
X107493748Y-76989196D02*
X107493748Y-75989196D01*
X107731843Y-75989196D01*
X107874700Y-76036816D01*
X107969938Y-76132054D01*
X108017557Y-76227292D01*
X108065176Y-76417768D01*
X108065176Y-76560625D01*
X108017557Y-76751101D01*
X107969938Y-76846339D01*
X107874700Y-76941577D01*
X107731843Y-76989196D01*
X107493748Y-76989196D01*
X109017557Y-76989196D02*
X108446129Y-76989196D01*
X108731843Y-76989196D02*
X108731843Y-75989196D01*
X108636605Y-76132054D01*
X108541367Y-76227292D01*
X108446129Y-76274911D01*
X105342179Y-57470151D02*
X106104084Y-57470151D01*
X105723132Y-57851103D02*
X105723132Y-57089199D01*
X107056465Y-56851103D02*
X106580274Y-56851103D01*
X106532655Y-57327294D01*
X106580274Y-57279675D01*
X106675513Y-57232056D01*
X106913608Y-57232056D01*
X107008846Y-57279675D01*
X107056465Y-57327294D01*
X107104084Y-57422532D01*
X107104084Y-57660627D01*
X107056465Y-57755865D01*
X107008846Y-57803484D01*
X106913608Y-57851103D01*
X106675513Y-57851103D01*
X106580274Y-57803484D01*
X106532655Y-57755865D01*
X107389798Y-56851103D02*
X107723132Y-57851103D01*
X108056465Y-56851103D01*
X180459489Y-74568697D02*
X180459489Y-73568697D01*
X180697584Y-73568697D01*
X180840441Y-73616317D01*
X180935679Y-73711555D01*
X180983298Y-73806793D01*
X181030917Y-73997269D01*
X181030917Y-74140126D01*
X180983298Y-74330602D01*
X180935679Y-74425840D01*
X180840441Y-74521078D01*
X180697584Y-74568697D01*
X180459489Y-74568697D01*
X181411869Y-74282983D02*
X181888060Y-74282983D01*
X181316631Y-74568697D02*
X181649965Y-73568697D01*
X181983298Y-74568697D01*
X182173774Y-73568697D02*
X182745203Y-73568697D01*
X182459489Y-74568697D02*
X182459489Y-73568697D01*
X183030917Y-74282983D02*
X183507108Y-74282983D01*
X182935679Y-74568697D02*
X183269012Y-73568697D01*
X183602346Y-74568697D01*
X161571428Y-144452380D02*
X161761904Y-144452380D01*
X161857142Y-144500000D01*
X161952380Y-144595238D01*
X162000000Y-144785714D01*
X162000000Y-145119047D01*
X161952380Y-145309523D01*
X161857142Y-145404761D01*
X161761904Y-145452380D01*
X161571428Y-145452380D01*
X161476190Y-145404761D01*
X161380952Y-145309523D01*
X161333333Y-145119047D01*
X161333333Y-144785714D01*
X161380952Y-144595238D01*
X161476190Y-144500000D01*
X161571428Y-144452380D01*
X162428571Y-145452380D02*
X162428571Y-144452380D01*
X162809523Y-144452380D01*
X162904761Y-144500000D01*
X162952380Y-144547619D01*
X163000000Y-144642857D01*
X163000000Y-144785714D01*
X162952380Y-144880952D01*
X162904761Y-144928571D01*
X162809523Y-144976190D01*
X162428571Y-144976190D01*
X163428571Y-144928571D02*
X163761904Y-144928571D01*
X163904761Y-145452380D02*
X163428571Y-145452380D01*
X163428571Y-144452380D01*
X163904761Y-144452380D01*
X164333333Y-145452380D02*
X164333333Y-144452380D01*
X164904761Y-145452380D01*
X164904761Y-144452380D01*
X165142857Y-145547619D02*
X165904761Y-145547619D01*
X166666666Y-145452380D02*
X166095238Y-145452380D01*
X166380952Y-145452380D02*
X166380952Y-144452380D01*
X166285714Y-144595238D01*
X166190476Y-144690476D01*
X166095238Y-144738095D01*
X180637894Y-76789021D02*
X181399799Y-76789021D01*
X181018847Y-77169973D02*
X181018847Y-76408069D01*
X182352180Y-76169973D02*
X181875989Y-76169973D01*
X181828370Y-76646164D01*
X181875989Y-76598545D01*
X181971228Y-76550926D01*
X182209323Y-76550926D01*
X182304561Y-76598545D01*
X182352180Y-76646164D01*
X182399799Y-76741402D01*
X182399799Y-76979497D01*
X182352180Y-77074735D01*
X182304561Y-77122354D01*
X182209323Y-77169973D01*
X181971228Y-77169973D01*
X181875989Y-77122354D01*
X181828370Y-77074735D01*
X182685513Y-76169973D02*
X183018847Y-77169973D01*
X183352180Y-76169973D01*
D12*
X112476190Y-133285714D02*
X115523809Y-133285714D01*
D11*
X173048185Y-50173339D02*
X173000565Y-50268577D01*
X173000565Y-50411435D01*
X173048185Y-50554292D01*
X173143423Y-50649530D01*
X173238661Y-50697149D01*
X173429137Y-50744768D01*
X173571994Y-50744768D01*
X173762470Y-50697149D01*
X173857708Y-50649530D01*
X173952946Y-50554292D01*
X174000565Y-50411435D01*
X174000565Y-50316196D01*
X173952946Y-50173339D01*
X173905327Y-50125720D01*
X173571994Y-50125720D01*
X173571994Y-50316196D01*
X174000565Y-49697149D02*
X173000565Y-49697149D01*
X174000565Y-49125720D01*
X173000565Y-49125720D01*
X174000565Y-48649530D02*
X173000565Y-48649530D01*
X173000565Y-48411435D01*
X173048185Y-48268577D01*
X173143423Y-48173339D01*
X173238661Y-48125720D01*
X173429137Y-48078101D01*
X173571994Y-48078101D01*
X173762470Y-48125720D01*
X173857708Y-48173339D01*
X173952946Y-48268577D01*
X174000565Y-48411435D01*
X174000565Y-48649530D01*
X105465672Y-71484627D02*
X106227577Y-71484627D01*
X105846625Y-71865579D02*
X105846625Y-71103675D01*
X107179958Y-70865579D02*
X106703767Y-70865579D01*
X106656148Y-71341770D01*
X106703767Y-71294151D01*
X106799006Y-71246532D01*
X107037101Y-71246532D01*
X107132339Y-71294151D01*
X107179958Y-71341770D01*
X107227577Y-71437008D01*
X107227577Y-71675103D01*
X107179958Y-71770341D01*
X107132339Y-71817960D01*
X107037101Y-71865579D01*
X106799006Y-71865579D01*
X106703767Y-71817960D01*
X106656148Y-71770341D01*
X107513291Y-70865579D02*
X107846625Y-71865579D01*
X108179958Y-70865579D01*
X106049281Y-78477830D02*
X105954043Y-78430210D01*
X105811186Y-78430210D01*
X105668328Y-78477830D01*
X105573090Y-78573068D01*
X105525471Y-78668306D01*
X105477852Y-78858782D01*
X105477852Y-79001639D01*
X105525471Y-79192115D01*
X105573090Y-79287353D01*
X105668328Y-79382591D01*
X105811186Y-79430210D01*
X105906424Y-79430210D01*
X106049281Y-79382591D01*
X106096900Y-79334972D01*
X106096900Y-79001639D01*
X105906424Y-79001639D01*
X106525471Y-79430210D02*
X106525471Y-78430210D01*
X107096900Y-79430210D01*
X107096900Y-78430210D01*
X107573090Y-79430210D02*
X107573090Y-78430210D01*
X107811186Y-78430210D01*
X107954043Y-78477830D01*
X108049281Y-78573068D01*
X108096900Y-78668306D01*
X108144519Y-78858782D01*
X108144519Y-79001639D01*
X108096900Y-79192115D01*
X108049281Y-79287353D01*
X107954043Y-79382591D01*
X107811186Y-79430210D01*
X107573090Y-79430210D01*
X122500000Y-144928571D02*
X122642857Y-144976190D01*
X122690476Y-145023809D01*
X122738095Y-145119047D01*
X122738095Y-145261904D01*
X122690476Y-145357142D01*
X122642857Y-145404761D01*
X122547619Y-145452380D01*
X122166666Y-145452380D01*
X122166666Y-144452380D01*
X122500000Y-144452380D01*
X122595238Y-144500000D01*
X122642857Y-144547619D01*
X122690476Y-144642857D01*
X122690476Y-144738095D01*
X122642857Y-144833333D01*
X122595238Y-144880952D01*
X122500000Y-144928571D01*
X122166666Y-144928571D01*
X123119047Y-145166666D02*
X123595238Y-145166666D01*
X123023809Y-145452380D02*
X123357142Y-144452380D01*
X123690476Y-145452380D01*
X123880952Y-144452380D02*
X124452380Y-144452380D01*
X124166666Y-145452380D02*
X124166666Y-144452380D01*
X124642857Y-144452380D02*
X125214285Y-144452380D01*
X124928571Y-145452380D02*
X124928571Y-144452380D01*
X125547619Y-144928571D02*
X125880952Y-144928571D01*
X126023809Y-145452380D02*
X125547619Y-145452380D01*
X125547619Y-144452380D01*
X126023809Y-144452380D01*
X127023809Y-145452380D02*
X126690476Y-144976190D01*
X126452380Y-145452380D02*
X126452380Y-144452380D01*
X126833333Y-144452380D01*
X126928571Y-144500000D01*
X126976190Y-144547619D01*
X127023809Y-144642857D01*
X127023809Y-144785714D01*
X126976190Y-144880952D01*
X126928571Y-144928571D01*
X126833333Y-144976190D01*
X126452380Y-144976190D01*
X127642857Y-144976190D02*
X127642857Y-145452380D01*
X127309523Y-144452380D02*
X127642857Y-144976190D01*
X127976190Y-144452380D01*
X96547619Y-83261904D02*
X96547619Y-83833333D01*
X95547619Y-83547619D02*
X96547619Y-83547619D01*
X95833333Y-84119047D02*
X95833333Y-84595238D01*
X95547619Y-84023809D02*
X96547619Y-84357142D01*
X95547619Y-84690476D01*
X95547619Y-85023809D02*
X96547619Y-85023809D01*
X95833333Y-85357142D01*
X96547619Y-85690476D01*
X95547619Y-85690476D01*
X95547619Y-86166666D02*
X96547619Y-86166666D01*
X96547619Y-86547619D01*
X96500000Y-86642857D01*
X96452380Y-86690476D01*
X96357142Y-86738095D01*
X96214285Y-86738095D01*
X96119047Y-86690476D01*
X96071428Y-86642857D01*
X96023809Y-86547619D01*
X96023809Y-86166666D01*
X96071428Y-87166666D02*
X96071428Y-87500000D01*
X95547619Y-87642857D02*
X95547619Y-87166666D01*
X96547619Y-87166666D01*
X96547619Y-87642857D01*
X95547619Y-88642857D02*
X96023809Y-88309523D01*
X95547619Y-88071428D02*
X96547619Y-88071428D01*
X96547619Y-88452380D01*
X96500000Y-88547619D01*
X96452380Y-88595238D01*
X96357142Y-88642857D01*
X96214285Y-88642857D01*
X96119047Y-88595238D01*
X96071428Y-88547619D01*
X96023809Y-88452380D01*
X96023809Y-88071428D01*
X180825641Y-63240312D02*
X180968498Y-63287931D01*
X181206593Y-63287931D01*
X181301831Y-63240312D01*
X181349450Y-63192693D01*
X181397069Y-63097455D01*
X181397069Y-63002217D01*
X181349450Y-62906979D01*
X181301831Y-62859360D01*
X181206593Y-62811741D01*
X181016117Y-62764122D01*
X180920879Y-62716503D01*
X180873260Y-62668884D01*
X180825641Y-62573646D01*
X180825641Y-62478408D01*
X180873260Y-62383170D01*
X180920879Y-62335551D01*
X181016117Y-62287931D01*
X181254212Y-62287931D01*
X181397069Y-62335551D01*
X181825641Y-63287931D02*
X181825641Y-62287931D01*
X182063736Y-62287931D01*
X182206593Y-62335551D01*
X182301831Y-62430789D01*
X182349450Y-62526027D01*
X182397069Y-62716503D01*
X182397069Y-62859360D01*
X182349450Y-63049836D01*
X182301831Y-63145074D01*
X182206593Y-63240312D01*
X182063736Y-63287931D01*
X181825641Y-63287931D01*
X182778022Y-63002217D02*
X183254212Y-63002217D01*
X182682784Y-63287931D02*
X183016117Y-62287931D01*
X183349450Y-63287931D01*
X95547619Y-56904761D02*
X96547619Y-56904761D01*
X95547619Y-57476190D01*
X96547619Y-57476190D01*
X96071428Y-58285714D02*
X96071428Y-57952380D01*
X95547619Y-57952380D02*
X96547619Y-57952380D01*
X96547619Y-58428571D01*
X95642857Y-59380952D02*
X95595238Y-59333333D01*
X95547619Y-59190476D01*
X95547619Y-59095238D01*
X95595238Y-58952380D01*
X95690476Y-58857142D01*
X95785714Y-58809523D01*
X95976190Y-58761904D01*
X96119047Y-58761904D01*
X96309523Y-58809523D01*
X96404761Y-58857142D01*
X96500000Y-58952380D01*
X96547619Y-59095238D01*
X96547619Y-59190476D01*
X96500000Y-59333333D01*
X96452380Y-59380952D01*
X95595238Y-60523809D02*
X95547619Y-60666666D01*
X95547619Y-60904761D01*
X95595238Y-61000000D01*
X95642857Y-61047619D01*
X95738095Y-61095238D01*
X95833333Y-61095238D01*
X95928571Y-61047619D01*
X95976190Y-61000000D01*
X96023809Y-60904761D01*
X96071428Y-60714285D01*
X96119047Y-60619047D01*
X96166666Y-60571428D01*
X96261904Y-60523809D01*
X96357142Y-60523809D01*
X96452380Y-60571428D01*
X96500000Y-60619047D01*
X96547619Y-60714285D01*
X96547619Y-60952380D01*
X96500000Y-61095238D01*
X96071428Y-61523809D02*
X96071428Y-61857142D01*
X95547619Y-62000000D02*
X95547619Y-61523809D01*
X96547619Y-61523809D01*
X96547619Y-62000000D01*
X95547619Y-63000000D02*
X96023809Y-62666666D01*
X95547619Y-62428571D02*
X96547619Y-62428571D01*
X96547619Y-62809523D01*
X96500000Y-62904761D01*
X96452380Y-62952380D01*
X96357142Y-63000000D01*
X96214285Y-63000000D01*
X96119047Y-62952380D01*
X96071428Y-62904761D01*
X96023809Y-62809523D01*
X96023809Y-62428571D01*
X95547619Y-63428571D02*
X96547619Y-63428571D01*
X95833333Y-63857142D02*
X95833333Y-64333333D01*
X95547619Y-63761904D02*
X96547619Y-64095238D01*
X95547619Y-64428571D01*
X95547619Y-65238095D02*
X95547619Y-64761904D01*
X96547619Y-64761904D01*
X96547619Y-68738095D02*
X95547619Y-68976190D01*
X96261904Y-69166666D01*
X95547619Y-69357142D01*
X96547619Y-69595238D01*
X95547619Y-69976190D02*
X96547619Y-69976190D01*
X96071428Y-70452380D02*
X96071428Y-70785714D01*
X95547619Y-70928571D02*
X95547619Y-70452380D01*
X96547619Y-70452380D01*
X96547619Y-70928571D01*
X96500000Y-71880952D02*
X96547619Y-71785714D01*
X96547619Y-71642857D01*
X96500000Y-71500000D01*
X96404761Y-71404761D01*
X96309523Y-71357142D01*
X96119047Y-71309523D01*
X95976190Y-71309523D01*
X95785714Y-71357142D01*
X95690476Y-71404761D01*
X95595238Y-71500000D01*
X95547619Y-71642857D01*
X95547619Y-71738095D01*
X95595238Y-71880952D01*
X95642857Y-71928571D01*
X95976190Y-71928571D01*
X95976190Y-71738095D01*
X95833333Y-72309523D02*
X95833333Y-72785714D01*
X95547619Y-72214285D02*
X96547619Y-72547619D01*
X95547619Y-72880952D01*
X95547619Y-73214285D02*
X96547619Y-73214285D01*
X95547619Y-73785714D01*
X96547619Y-73785714D01*
X95547619Y-74261904D02*
X96547619Y-74261904D01*
X96547619Y-74500000D01*
X96500000Y-74642857D01*
X96404761Y-74738095D01*
X96309523Y-74785714D01*
X96119047Y-74833333D01*
X95976190Y-74833333D01*
X95785714Y-74785714D01*
X95690476Y-74738095D01*
X95595238Y-74642857D01*
X95547619Y-74500000D01*
X95547619Y-74261904D01*
X95547619Y-76023809D02*
X96547619Y-76023809D01*
X95547619Y-76595238D02*
X96119047Y-76166666D01*
X96547619Y-76595238D02*
X95976190Y-76023809D01*
X96071428Y-77023809D02*
X96071428Y-77357142D01*
X95547619Y-77500000D02*
X95547619Y-77023809D01*
X96547619Y-77023809D01*
X96547619Y-77500000D01*
X96023809Y-78119047D02*
X95547619Y-78119047D01*
X96547619Y-77785714D02*
X96023809Y-78119047D01*
X96547619Y-78452380D01*
X95547619Y-78785714D02*
X96547619Y-78785714D01*
X96547619Y-79166666D01*
X96500000Y-79261904D01*
X96452380Y-79309523D01*
X96357142Y-79357142D01*
X96214285Y-79357142D01*
X96119047Y-79309523D01*
X96071428Y-79261904D01*
X96023809Y-79166666D01*
X96023809Y-78785714D01*
X95833333Y-79738095D02*
X95833333Y-80214285D01*
X95547619Y-79642857D02*
X96547619Y-79976190D01*
X95547619Y-80309523D01*
X95547619Y-80642857D02*
X96547619Y-80642857D01*
X96547619Y-80880952D01*
X96500000Y-81023809D01*
X96404761Y-81119047D01*
X96309523Y-81166666D01*
X96119047Y-81214285D01*
X95976190Y-81214285D01*
X95785714Y-81166666D01*
X95690476Y-81119047D01*
X95595238Y-81023809D01*
X95547619Y-80880952D01*
X95547619Y-80642857D01*
X175571428Y-144452380D02*
X175761904Y-144452380D01*
X175857142Y-144500000D01*
X175952380Y-144595238D01*
X176000000Y-144785714D01*
X176000000Y-145119047D01*
X175952380Y-145309523D01*
X175857142Y-145404761D01*
X175761904Y-145452380D01*
X175571428Y-145452380D01*
X175476190Y-145404761D01*
X175380952Y-145309523D01*
X175333333Y-145119047D01*
X175333333Y-144785714D01*
X175380952Y-144595238D01*
X175476190Y-144500000D01*
X175571428Y-144452380D01*
X176428571Y-145452380D02*
X176428571Y-144452380D01*
X176809523Y-144452380D01*
X176904761Y-144500000D01*
X176952380Y-144547619D01*
X177000000Y-144642857D01*
X177000000Y-144785714D01*
X176952380Y-144880952D01*
X176904761Y-144928571D01*
X176809523Y-144976190D01*
X176428571Y-144976190D01*
X177428571Y-144928571D02*
X177761904Y-144928571D01*
X177904761Y-145452380D02*
X177428571Y-145452380D01*
X177428571Y-144452380D01*
X177904761Y-144452380D01*
X178333333Y-145452380D02*
X178333333Y-144452380D01*
X178904761Y-145452380D01*
X178904761Y-144452380D01*
X179142857Y-145547619D02*
X179904761Y-145547619D01*
X180095238Y-144547619D02*
X180142857Y-144500000D01*
X180238095Y-144452380D01*
X180476190Y-144452380D01*
X180571428Y-144500000D01*
X180619047Y-144547619D01*
X180666666Y-144642857D01*
X180666666Y-144738095D01*
X180619047Y-144880952D01*
X180047619Y-145452380D01*
X180666666Y-145452380D01*
X161555028Y-135641501D02*
X161555028Y-134879597D01*
X161935980Y-135260549D02*
X161174076Y-135260549D01*
X161935980Y-133879597D02*
X161935980Y-134451025D01*
X161935980Y-134165311D02*
X160935980Y-134165311D01*
X161078838Y-134260549D01*
X161174076Y-134355787D01*
X161221695Y-134451025D01*
X161031219Y-133498644D02*
X160983600Y-133451025D01*
X160935980Y-133355787D01*
X160935980Y-133117692D01*
X160983600Y-133022454D01*
X161031219Y-132974835D01*
X161126457Y-132927216D01*
X161221695Y-132927216D01*
X161364552Y-132974835D01*
X161935980Y-133546263D01*
X161935980Y-132927216D01*
X160935980Y-132641501D02*
X161935980Y-132308168D01*
X160935980Y-131974835D01*
X180535880Y-85851104D02*
X180535880Y-84851104D01*
X180773975Y-84851104D01*
X180916832Y-84898724D01*
X181012070Y-84993962D01*
X181059689Y-85089200D01*
X181107308Y-85279676D01*
X181107308Y-85422533D01*
X181059689Y-85613009D01*
X181012070Y-85708247D01*
X180916832Y-85803485D01*
X180773975Y-85851104D01*
X180535880Y-85851104D01*
X181488260Y-85565390D02*
X181964451Y-85565390D01*
X181393022Y-85851104D02*
X181726356Y-84851104D01*
X182059689Y-85851104D01*
X182250165Y-84851104D02*
X182821594Y-84851104D01*
X182535880Y-85851104D02*
X182535880Y-84851104D01*
X183107308Y-85565390D02*
X183583499Y-85565390D01*
X183012070Y-85851104D02*
X183345403Y-84851104D01*
X183678737Y-85851104D01*
X181238095Y-57500000D02*
X181142857Y-57452380D01*
X181000000Y-57452380D01*
X180857142Y-57500000D01*
X180761904Y-57595238D01*
X180714285Y-57690476D01*
X180666666Y-57880952D01*
X180666666Y-58023809D01*
X180714285Y-58214285D01*
X180761904Y-58309523D01*
X180857142Y-58404761D01*
X181000000Y-58452380D01*
X181095238Y-58452380D01*
X181238095Y-58404761D01*
X181285714Y-58357142D01*
X181285714Y-58023809D01*
X181095238Y-58023809D01*
X181714285Y-58452380D02*
X181714285Y-57452380D01*
X182285714Y-58452380D01*
X182285714Y-57452380D01*
X182761904Y-58452380D02*
X182761904Y-57452380D01*
X183000000Y-57452380D01*
X183142857Y-57500000D01*
X183238095Y-57595238D01*
X183285714Y-57690476D01*
X183333333Y-57880952D01*
X183333333Y-58023809D01*
X183285714Y-58214285D01*
X183238095Y-58309523D01*
X183142857Y-58404761D01*
X183000000Y-58452380D01*
X182761904Y-58452380D01*
X149748475Y-137499333D02*
X149700855Y-137594571D01*
X149700855Y-137737429D01*
X149748475Y-137880286D01*
X149843713Y-137975524D01*
X149938951Y-138023143D01*
X150129427Y-138070762D01*
X150272284Y-138070762D01*
X150462760Y-138023143D01*
X150557998Y-137975524D01*
X150653236Y-137880286D01*
X150700855Y-137737429D01*
X150700855Y-137642190D01*
X150653236Y-137499333D01*
X150605617Y-137451714D01*
X150272284Y-137451714D01*
X150272284Y-137642190D01*
X150700855Y-137023143D02*
X149700855Y-137023143D01*
X150700855Y-136451714D01*
X149700855Y-136451714D01*
X150700855Y-135975524D02*
X149700855Y-135975524D01*
X149700855Y-135737429D01*
X149748475Y-135594571D01*
X149843713Y-135499333D01*
X149938951Y-135451714D01*
X150129427Y-135404095D01*
X150272284Y-135404095D01*
X150462760Y-135451714D01*
X150557998Y-135499333D01*
X150653236Y-135594571D01*
X150700855Y-135737429D01*
X150700855Y-135975524D01*
X181251404Y-71032980D02*
X181156166Y-70985360D01*
X181013309Y-70985360D01*
X180870451Y-71032980D01*
X180775213Y-71128218D01*
X180727594Y-71223456D01*
X180679975Y-71413932D01*
X180679975Y-71556789D01*
X180727594Y-71747265D01*
X180775213Y-71842503D01*
X180870451Y-71937741D01*
X181013309Y-71985360D01*
X181108547Y-71985360D01*
X181251404Y-71937741D01*
X181299023Y-71890122D01*
X181299023Y-71556789D01*
X181108547Y-71556789D01*
X181727594Y-71985360D02*
X181727594Y-70985360D01*
X182299023Y-71985360D01*
X182299023Y-70985360D01*
X182775213Y-71985360D02*
X182775213Y-70985360D01*
X183013309Y-70985360D01*
X183156166Y-71032980D01*
X183251404Y-71128218D01*
X183299023Y-71223456D01*
X183346642Y-71413932D01*
X183346642Y-71556789D01*
X183299023Y-71747265D01*
X183251404Y-71842503D01*
X183156166Y-71937741D01*
X183013309Y-71985360D01*
X182775213Y-71985360D01*
X177476797Y-135497028D02*
X177476797Y-135306552D01*
X177524417Y-135211314D01*
X177619655Y-135116076D01*
X177810131Y-135068457D01*
X178143464Y-135068457D01*
X178333940Y-135116076D01*
X178429178Y-135211314D01*
X178476797Y-135306552D01*
X178476797Y-135497028D01*
X178429178Y-135592266D01*
X178333940Y-135687504D01*
X178143464Y-135735123D01*
X177810131Y-135735123D01*
X177619655Y-135687504D01*
X177524417Y-135592266D01*
X177476797Y-135497028D01*
X178476797Y-134639885D02*
X177476797Y-134639885D01*
X177476797Y-134258933D01*
X177524417Y-134163695D01*
X177572036Y-134116076D01*
X177667274Y-134068457D01*
X177810131Y-134068457D01*
X177905369Y-134116076D01*
X177952988Y-134163695D01*
X178000607Y-134258933D01*
X178000607Y-134639885D01*
X177952988Y-133639885D02*
X177952988Y-133306552D01*
X178476797Y-133163695D02*
X178476797Y-133639885D01*
X177476797Y-133639885D01*
X177476797Y-133163695D01*
X178476797Y-132735123D02*
X177476797Y-132735123D01*
X178476797Y-132163695D01*
X177476797Y-132163695D01*
X175579445Y-135567101D02*
X175579445Y-134805197D01*
X175960397Y-135186149D02*
X175198493Y-135186149D01*
X175960397Y-133805197D02*
X175960397Y-134376625D01*
X175960397Y-134090911D02*
X174960397Y-134090911D01*
X175103255Y-134186149D01*
X175198493Y-134281387D01*
X175246112Y-134376625D01*
X175055636Y-133424244D02*
X175008017Y-133376625D01*
X174960397Y-133281387D01*
X174960397Y-133043292D01*
X175008017Y-132948054D01*
X175055636Y-132900435D01*
X175150874Y-132852816D01*
X175246112Y-132852816D01*
X175388969Y-132900435D01*
X175960397Y-133471863D01*
X175960397Y-132852816D01*
X174960397Y-132567101D02*
X175960397Y-132233768D01*
X174960397Y-131900435D01*
X98192738Y-131842380D02*
X98526071Y-132842380D01*
X98859404Y-131842380D01*
X98954642Y-132937619D02*
X99716547Y-132937619D01*
X99954642Y-132842380D02*
X99954642Y-131842380D01*
X100430833Y-132842380D02*
X100430833Y-131842380D01*
X101002261Y-132842380D01*
X101002261Y-131842380D01*
X98859404Y-134452380D02*
X98287976Y-134452380D01*
X98573690Y-134452380D02*
X98573690Y-133452380D01*
X98478452Y-133595238D01*
X98383214Y-133690476D01*
X98287976Y-133738095D01*
X99430833Y-133880952D02*
X99335595Y-133833333D01*
X99287976Y-133785714D01*
X99240357Y-133690476D01*
X99240357Y-133642857D01*
X99287976Y-133547619D01*
X99335595Y-133500000D01*
X99430833Y-133452380D01*
X99621309Y-133452380D01*
X99716547Y-133500000D01*
X99764166Y-133547619D01*
X99811785Y-133642857D01*
X99811785Y-133690476D01*
X99764166Y-133785714D01*
X99716547Y-133833333D01*
X99621309Y-133880952D01*
X99430833Y-133880952D01*
X99335595Y-133928571D01*
X99287976Y-133976190D01*
X99240357Y-134071428D01*
X99240357Y-134261904D01*
X99287976Y-134357142D01*
X99335595Y-134404761D01*
X99430833Y-134452380D01*
X99621309Y-134452380D01*
X99716547Y-134404761D01*
X99764166Y-134357142D01*
X99811785Y-134261904D01*
X99811785Y-134071428D01*
X99764166Y-133976190D01*
X99716547Y-133928571D01*
X99621309Y-133880952D01*
X100097500Y-133452380D02*
X100430833Y-134452380D01*
X100764166Y-133452380D01*
X101097500Y-134071428D02*
X101859404Y-134071428D01*
X102287976Y-133547619D02*
X102335595Y-133500000D01*
X102430833Y-133452380D01*
X102668928Y-133452380D01*
X102764166Y-133500000D01*
X102811785Y-133547619D01*
X102859404Y-133642857D01*
X102859404Y-133738095D01*
X102811785Y-133880952D01*
X102240357Y-134452380D01*
X102859404Y-134452380D01*
X103478452Y-133452380D02*
X103573690Y-133452380D01*
X103668928Y-133500000D01*
X103716547Y-133547619D01*
X103764166Y-133642857D01*
X103811785Y-133833333D01*
X103811785Y-134071428D01*
X103764166Y-134261904D01*
X103716547Y-134357142D01*
X103668928Y-134404761D01*
X103573690Y-134452380D01*
X103478452Y-134452380D01*
X103383214Y-134404761D01*
X103335595Y-134357142D01*
X103287976Y-134261904D01*
X103240357Y-134071428D01*
X103240357Y-133833333D01*
X103287976Y-133642857D01*
X103335595Y-133547619D01*
X103383214Y-133500000D01*
X103478452Y-133452380D01*
X104097500Y-133452380D02*
X104430833Y-134452380D01*
X104764166Y-133452380D01*
X98335595Y-136062380D02*
X98335595Y-135062380D01*
X98668928Y-135776666D01*
X99002261Y-135062380D01*
X99002261Y-136062380D01*
X99430833Y-135776666D02*
X99907023Y-135776666D01*
X99335595Y-136062380D02*
X99668928Y-135062380D01*
X100002261Y-136062380D01*
X100240357Y-135062380D02*
X100907023Y-136062380D01*
X100907023Y-135062380D02*
X100240357Y-136062380D01*
X102002261Y-135157619D02*
X102049880Y-135110000D01*
X102145119Y-135062380D01*
X102383214Y-135062380D01*
X102478452Y-135110000D01*
X102526071Y-135157619D01*
X102573690Y-135252857D01*
X102573690Y-135348095D01*
X102526071Y-135490952D01*
X101954642Y-136062380D01*
X102573690Y-136062380D01*
X103430833Y-135395714D02*
X103430833Y-136062380D01*
X103192738Y-135014761D02*
X102954642Y-135729047D01*
X103573690Y-135729047D01*
X103811785Y-135062380D02*
X104145119Y-136062380D01*
X104478452Y-135062380D01*
X166191606Y-134939101D02*
X166143986Y-135034339D01*
X166143986Y-135177197D01*
X166191606Y-135320054D01*
X166286844Y-135415292D01*
X166382082Y-135462911D01*
X166572558Y-135510530D01*
X166715415Y-135510530D01*
X166905891Y-135462911D01*
X167001129Y-135415292D01*
X167096367Y-135320054D01*
X167143986Y-135177197D01*
X167143986Y-135081958D01*
X167096367Y-134939101D01*
X167048748Y-134891482D01*
X166715415Y-134891482D01*
X166715415Y-135081958D01*
X167143986Y-134462911D02*
X166143986Y-134462911D01*
X167143986Y-133891482D01*
X166143986Y-133891482D01*
X167143986Y-133415292D02*
X166143986Y-133415292D01*
X166143986Y-133177197D01*
X166191606Y-133034339D01*
X166286844Y-132939101D01*
X166382082Y-132891482D01*
X166572558Y-132843863D01*
X166715415Y-132843863D01*
X166905891Y-132891482D01*
X167001129Y-132939101D01*
X167096367Y-133034339D01*
X167143986Y-133177197D01*
X167143986Y-133415292D01*
X175571428Y-90452380D02*
X175761904Y-90452380D01*
X175857142Y-90500000D01*
X175952380Y-90595238D01*
X176000000Y-90785714D01*
X176000000Y-91119047D01*
X175952380Y-91309523D01*
X175857142Y-91404761D01*
X175761904Y-91452380D01*
X175571428Y-91452380D01*
X175476190Y-91404761D01*
X175380952Y-91309523D01*
X175333333Y-91119047D01*
X175333333Y-90785714D01*
X175380952Y-90595238D01*
X175476190Y-90500000D01*
X175571428Y-90452380D01*
X176428571Y-91452380D02*
X176428571Y-90452380D01*
X176809523Y-90452380D01*
X176904761Y-90500000D01*
X176952380Y-90547619D01*
X177000000Y-90642857D01*
X177000000Y-90785714D01*
X176952380Y-90880952D01*
X176904761Y-90928571D01*
X176809523Y-90976190D01*
X176428571Y-90976190D01*
X177428571Y-90928571D02*
X177761904Y-90928571D01*
X177904761Y-91452380D02*
X177428571Y-91452380D01*
X177428571Y-90452380D01*
X177904761Y-90452380D01*
X178333333Y-91452380D02*
X178333333Y-90452380D01*
X178904761Y-91452380D01*
X178904761Y-90452380D01*
X179142857Y-91547619D02*
X179904761Y-91547619D01*
X180095238Y-90547619D02*
X180142857Y-90500000D01*
X180238095Y-90452380D01*
X180476190Y-90452380D01*
X180571428Y-90500000D01*
X180619047Y-90547619D01*
X180666666Y-90642857D01*
X180666666Y-90738095D01*
X180619047Y-90880952D01*
X180047619Y-91452380D01*
X180666666Y-91452380D01*
D13*
X140035714Y-90971071D02*
X140035714Y-89471071D01*
X140892857Y-90971071D01*
X140892857Y-89471071D01*
X142107142Y-90185357D02*
X141607142Y-90185357D01*
X141607142Y-90971071D02*
X141607142Y-89471071D01*
X142321428Y-89471071D01*
X143750000Y-90828214D02*
X143678571Y-90899642D01*
X143464285Y-90971071D01*
X143321428Y-90971071D01*
X143107142Y-90899642D01*
X142964285Y-90756785D01*
X142892857Y-90613928D01*
X142821428Y-90328214D01*
X142821428Y-90113928D01*
X142892857Y-89828214D01*
X142964285Y-89685357D01*
X143107142Y-89542500D01*
X143321428Y-89471071D01*
X143464285Y-89471071D01*
X143678571Y-89542500D01*
X143750000Y-89613928D01*
X145535714Y-90971071D02*
X145535714Y-89471071D01*
X145892857Y-89471071D01*
X146107142Y-89542500D01*
X146250000Y-89685357D01*
X146321428Y-89828214D01*
X146392857Y-90113928D01*
X146392857Y-90328214D01*
X146321428Y-90613928D01*
X146250000Y-90756785D01*
X146107142Y-90899642D01*
X145892857Y-90971071D01*
X145535714Y-90971071D01*
X147250000Y-90971071D02*
X147107142Y-90899642D01*
X147035714Y-90828214D01*
X146964285Y-90685357D01*
X146964285Y-90256785D01*
X147035714Y-90113928D01*
X147107142Y-90042500D01*
X147250000Y-89971071D01*
X147464285Y-89971071D01*
X147607142Y-90042500D01*
X147678571Y-90113928D01*
X147750000Y-90256785D01*
X147750000Y-90685357D01*
X147678571Y-90828214D01*
X147607142Y-90899642D01*
X147464285Y-90971071D01*
X147250000Y-90971071D01*
X148607142Y-90971071D02*
X148464285Y-90899642D01*
X148392857Y-90828214D01*
X148321428Y-90685357D01*
X148321428Y-90256785D01*
X148392857Y-90113928D01*
X148464285Y-90042500D01*
X148607142Y-89971071D01*
X148821428Y-89971071D01*
X148964285Y-90042500D01*
X149035714Y-90113928D01*
X149107142Y-90256785D01*
X149107142Y-90685357D01*
X149035714Y-90828214D01*
X148964285Y-90899642D01*
X148821428Y-90971071D01*
X148607142Y-90971071D01*
X149750000Y-90971071D02*
X149750000Y-89971071D01*
X149750000Y-90256785D02*
X149821428Y-90113928D01*
X149892857Y-90042500D01*
X150035714Y-89971071D01*
X150178571Y-89971071D01*
X142714285Y-91886071D02*
X143214285Y-93386071D01*
X143714285Y-91886071D01*
X144500000Y-91886071D02*
X144642857Y-91886071D01*
X144785714Y-91957500D01*
X144857142Y-92028928D01*
X144928571Y-92171785D01*
X145000000Y-92457500D01*
X145000000Y-92814642D01*
X144928571Y-93100357D01*
X144857142Y-93243214D01*
X144785714Y-93314642D01*
X144642857Y-93386071D01*
X144500000Y-93386071D01*
X144357142Y-93314642D01*
X144285714Y-93243214D01*
X144214285Y-93100357D01*
X144142857Y-92814642D01*
X144142857Y-92457500D01*
X144214285Y-92171785D01*
X144285714Y-92028928D01*
X144357142Y-91957500D01*
X144500000Y-91886071D01*
X145642857Y-93243214D02*
X145714285Y-93314642D01*
X145642857Y-93386071D01*
X145571428Y-93314642D01*
X145642857Y-93243214D01*
X145642857Y-93386071D01*
X147142857Y-93386071D02*
X146285714Y-93386071D01*
X146714285Y-93386071D02*
X146714285Y-91886071D01*
X146571428Y-92100357D01*
X146428571Y-92243214D01*
X146285714Y-92314642D01*
D11*
X162642857Y-47928571D02*
X162785714Y-47976190D01*
X162833333Y-48023809D01*
X162880952Y-48119047D01*
X162880952Y-48261904D01*
X162833333Y-48357142D01*
X162785714Y-48404761D01*
X162690476Y-48452380D01*
X162309523Y-48452380D01*
X162309523Y-47452380D01*
X162642857Y-47452380D01*
X162738095Y-47500000D01*
X162785714Y-47547619D01*
X162833333Y-47642857D01*
X162833333Y-47738095D01*
X162785714Y-47833333D01*
X162738095Y-47880952D01*
X162642857Y-47928571D01*
X162309523Y-47928571D01*
X163500000Y-47452380D02*
X163690476Y-47452380D01*
X163785714Y-47500000D01*
X163880952Y-47595238D01*
X163928571Y-47785714D01*
X163928571Y-48119047D01*
X163880952Y-48309523D01*
X163785714Y-48404761D01*
X163690476Y-48452380D01*
X163500000Y-48452380D01*
X163404761Y-48404761D01*
X163309523Y-48309523D01*
X163261904Y-48119047D01*
X163261904Y-47785714D01*
X163309523Y-47595238D01*
X163404761Y-47500000D01*
X163500000Y-47452380D01*
X164547619Y-47452380D02*
X164738095Y-47452380D01*
X164833333Y-47500000D01*
X164928571Y-47595238D01*
X164976190Y-47785714D01*
X164976190Y-48119047D01*
X164928571Y-48309523D01*
X164833333Y-48404761D01*
X164738095Y-48452380D01*
X164547619Y-48452380D01*
X164452380Y-48404761D01*
X164357142Y-48309523D01*
X164309523Y-48119047D01*
X164309523Y-47785714D01*
X164357142Y-47595238D01*
X164452380Y-47500000D01*
X164547619Y-47452380D01*
X165261904Y-47452380D02*
X165833333Y-47452380D01*
X165547619Y-48452380D02*
X165547619Y-47452380D01*
X175527130Y-50696835D02*
X175527130Y-50125406D01*
X176527130Y-50411121D02*
X175527130Y-50411121D01*
X175527130Y-49887311D02*
X176527130Y-49220644D01*
X175527130Y-49220644D02*
X176527130Y-49887311D01*
X175527130Y-48649216D02*
X175527130Y-48458740D01*
X175574750Y-48363501D01*
X175669988Y-48268263D01*
X175860464Y-48220644D01*
X176193797Y-48220644D01*
X176384273Y-48268263D01*
X176479511Y-48363501D01*
X176527130Y-48458740D01*
X176527130Y-48649216D01*
X176479511Y-48744454D01*
X176384273Y-48839692D01*
X176193797Y-48887311D01*
X175860464Y-48887311D01*
X175669988Y-48839692D01*
X175574750Y-48744454D01*
X175527130Y-48649216D01*
X161571428Y-90452380D02*
X161761904Y-90452380D01*
X161857142Y-90500000D01*
X161952380Y-90595238D01*
X162000000Y-90785714D01*
X162000000Y-91119047D01*
X161952380Y-91309523D01*
X161857142Y-91404761D01*
X161761904Y-91452380D01*
X161571428Y-91452380D01*
X161476190Y-91404761D01*
X161380952Y-91309523D01*
X161333333Y-91119047D01*
X161333333Y-90785714D01*
X161380952Y-90595238D01*
X161476190Y-90500000D01*
X161571428Y-90452380D01*
X162428571Y-91452380D02*
X162428571Y-90452380D01*
X162809523Y-90452380D01*
X162904761Y-90500000D01*
X162952380Y-90547619D01*
X163000000Y-90642857D01*
X163000000Y-90785714D01*
X162952380Y-90880952D01*
X162904761Y-90928571D01*
X162809523Y-90976190D01*
X162428571Y-90976190D01*
X163428571Y-90928571D02*
X163761904Y-90928571D01*
X163904761Y-91452380D02*
X163428571Y-91452380D01*
X163428571Y-90452380D01*
X163904761Y-90452380D01*
X164333333Y-91452380D02*
X164333333Y-90452380D01*
X164904761Y-91452380D01*
X164904761Y-90452380D01*
X165142857Y-91547619D02*
X165904761Y-91547619D01*
X166666666Y-91452380D02*
X166095238Y-91452380D01*
X166380952Y-91452380D02*
X166380952Y-90452380D01*
X166285714Y-90595238D01*
X166190476Y-90690476D01*
X166095238Y-90738095D01*
D14*
X140011808Y-84071428D02*
X140487999Y-85404761D01*
X140964189Y-84071428D01*
X142964189Y-84452380D02*
X142868951Y-84357142D01*
X142678475Y-84261904D01*
X142487999Y-84261904D01*
X142297523Y-84357142D01*
X142202285Y-84452380D01*
X142107047Y-84642857D01*
X142107047Y-84833333D01*
X142202285Y-85023809D01*
X142297523Y-85119047D01*
X142487999Y-85214285D01*
X142678475Y-85214285D01*
X142868951Y-85119047D01*
X142964189Y-85023809D01*
X142964189Y-84261904D02*
X142964189Y-85023809D01*
X143059428Y-85119047D01*
X143154666Y-85119047D01*
X143345142Y-85023809D01*
X143440380Y-84833333D01*
X143440380Y-84357142D01*
X143249904Y-84071428D01*
X142964189Y-83880952D01*
X142583237Y-83785714D01*
X142202285Y-83880952D01*
X141916570Y-84071428D01*
X141726094Y-84357142D01*
X141630856Y-84738095D01*
X141726094Y-85119047D01*
X141916570Y-85404761D01*
X142202285Y-85595238D01*
X142583237Y-85690476D01*
X142964189Y-85595238D01*
X143249904Y-85404761D01*
X144297523Y-84071428D02*
X144297523Y-85404761D01*
X144297523Y-84261904D02*
X144392761Y-84166666D01*
X144583237Y-84071428D01*
X144868951Y-84071428D01*
X145059428Y-84166666D01*
X145154666Y-84357142D01*
X145154666Y-85404761D01*
X146964189Y-85309523D02*
X146773713Y-85404761D01*
X146392761Y-85404761D01*
X146202285Y-85309523D01*
X146107047Y-85214285D01*
X146011808Y-85023809D01*
X146011808Y-84452380D01*
X146107047Y-84261904D01*
X146202285Y-84166666D01*
X146392761Y-84071428D01*
X146773713Y-84071428D01*
X146964189Y-84166666D01*
X148583237Y-85309523D02*
X148392761Y-85404761D01*
X148011808Y-85404761D01*
X147821332Y-85309523D01*
X147726094Y-85119047D01*
X147726094Y-84357142D01*
X147821332Y-84166666D01*
X148011808Y-84071428D01*
X148392761Y-84071428D01*
X148583237Y-84166666D01*
X148678475Y-84357142D01*
X148678475Y-84547619D01*
X147726094Y-84738095D01*
X149535618Y-85214285D02*
X149630856Y-85309523D01*
X149535618Y-85404761D01*
X149440380Y-85309523D01*
X149535618Y-85214285D01*
X149535618Y-85404761D01*
X150487999Y-85404761D02*
X150487999Y-84071428D01*
X150487999Y-84261904D02*
X150583237Y-84166666D01*
X150773713Y-84071428D01*
X151059428Y-84071428D01*
X151249904Y-84166666D01*
X151345142Y-84357142D01*
X151345142Y-85404761D01*
X151345142Y-84357142D02*
X151440380Y-84166666D01*
X151630856Y-84071428D01*
X151916570Y-84071428D01*
X152107047Y-84166666D01*
X152202285Y-84357142D01*
X152202285Y-85404761D01*
X153916570Y-85309523D02*
X153726094Y-85404761D01*
X153345142Y-85404761D01*
X153154666Y-85309523D01*
X153059428Y-85119047D01*
X153059428Y-84357142D01*
X153154666Y-84166666D01*
X153345142Y-84071428D01*
X153726094Y-84071428D01*
X153916570Y-84166666D01*
X154011808Y-84357142D01*
X154011808Y-84547619D01*
X153059428Y-84738095D01*
D11*
X105925788Y-64463354D02*
X105830550Y-64415734D01*
X105687693Y-64415734D01*
X105544835Y-64463354D01*
X105449597Y-64558592D01*
X105401978Y-64653830D01*
X105354359Y-64844306D01*
X105354359Y-64987163D01*
X105401978Y-65177639D01*
X105449597Y-65272877D01*
X105544835Y-65368115D01*
X105687693Y-65415734D01*
X105782931Y-65415734D01*
X105925788Y-65368115D01*
X105973407Y-65320496D01*
X105973407Y-64987163D01*
X105782931Y-64987163D01*
X106401978Y-65415734D02*
X106401978Y-64415734D01*
X106973407Y-65415734D01*
X106973407Y-64415734D01*
X107449597Y-65415734D02*
X107449597Y-64415734D01*
X107687693Y-64415734D01*
X107830550Y-64463354D01*
X107925788Y-64558592D01*
X107973407Y-64653830D01*
X108021026Y-64844306D01*
X108021026Y-64987163D01*
X107973407Y-65177639D01*
X107925788Y-65272877D01*
X107830550Y-65368115D01*
X107687693Y-65415734D01*
X107449597Y-65415734D01*
G04 #@! TO.C,J4*
X124936666Y-135292380D02*
X124936666Y-136006666D01*
X124889047Y-136149523D01*
X124793809Y-136244761D01*
X124650952Y-136292380D01*
X124555714Y-136292380D01*
X125841428Y-135625714D02*
X125841428Y-136292380D01*
X125603333Y-135244761D02*
X125365238Y-135959047D01*
X125984285Y-135959047D01*
G04 #@! TO.C,J2*
X110936666Y-135292380D02*
X110936666Y-136006666D01*
X110889047Y-136149523D01*
X110793809Y-136244761D01*
X110650952Y-136292380D01*
X110555714Y-136292380D01*
X111365238Y-135387619D02*
X111412857Y-135340000D01*
X111508095Y-135292380D01*
X111746190Y-135292380D01*
X111841428Y-135340000D01*
X111889047Y-135387619D01*
X111936666Y-135482857D01*
X111936666Y-135578095D01*
X111889047Y-135720952D01*
X111317619Y-136292380D01*
X111936666Y-136292380D01*
G04 #@! TO.C,J12*
X164460476Y-83632380D02*
X164460476Y-84346666D01*
X164412857Y-84489523D01*
X164317619Y-84584761D01*
X164174761Y-84632380D01*
X164079523Y-84632380D01*
X165460476Y-84632380D02*
X164889047Y-84632380D01*
X165174761Y-84632380D02*
X165174761Y-83632380D01*
X165079523Y-83775238D01*
X164984285Y-83870476D01*
X164889047Y-83918095D01*
X165841428Y-83727619D02*
X165889047Y-83680000D01*
X165984285Y-83632380D01*
X166222380Y-83632380D01*
X166317619Y-83680000D01*
X166365238Y-83727619D01*
X166412857Y-83822857D01*
X166412857Y-83918095D01*
X166365238Y-84060952D01*
X165793809Y-84632380D01*
X166412857Y-84632380D01*
G04 #@! TO.C,J14*
X130805061Y-139435789D02*
X130805061Y-140150075D01*
X130757442Y-140292932D01*
X130662204Y-140388170D01*
X130519346Y-140435789D01*
X130424108Y-140435789D01*
X131805061Y-140435789D02*
X131233632Y-140435789D01*
X131519346Y-140435789D02*
X131519346Y-139435789D01*
X131424108Y-139578647D01*
X131328870Y-139673885D01*
X131233632Y-139721504D01*
X132662204Y-139769123D02*
X132662204Y-140435789D01*
X132424108Y-139388170D02*
X132186013Y-140102456D01*
X132805061Y-140102456D01*
D15*
G04 #@! TO.C,J11*
X172270000Y-51670000D02*
X185030000Y-51670000D01*
X185030000Y-54330000D02*
X185030000Y-51670000D01*
X172270000Y-54330000D02*
X185030000Y-54330000D01*
X172270000Y-54330000D02*
X172270000Y-51670000D01*
X171000000Y-54330000D02*
X169670000Y-54330000D01*
X169670000Y-54330000D02*
X169670000Y-53000000D01*
G04 #@! TO.C,R12*
X131262742Y-66731676D02*
X131737258Y-66731676D01*
X131262742Y-67776676D02*
X131737258Y-67776676D01*
G04 #@! TO.C,D6*
X146987911Y-129672016D02*
X146987911Y-131957016D01*
X148457911Y-129672016D02*
X146987911Y-129672016D01*
X148457911Y-131957016D02*
X148457911Y-129672016D01*
G04 #@! TO.C,R35*
X112237258Y-67045000D02*
X111762742Y-67045000D01*
X112237258Y-66000000D02*
X111762742Y-66000000D01*
G04 #@! TO.C,Q3*
X161000000Y-103560000D02*
X160350000Y-103560000D01*
X161000000Y-100440000D02*
X159325000Y-100440000D01*
X161000000Y-103560000D02*
X161650000Y-103560000D01*
X161000000Y-100440000D02*
X161650000Y-100440000D01*
G04 #@! TO.C,C2*
X148307332Y-100130037D02*
X144397332Y-100130037D01*
X144397332Y-102000037D02*
X148307332Y-102000037D01*
X144397332Y-100130037D02*
X144397332Y-102000037D01*
G04 #@! TO.C,R1*
X115522500Y-81237258D02*
X115522500Y-80762742D01*
X114477500Y-81237258D02*
X114477500Y-80762742D01*
G04 #@! TO.C,R9*
X137051891Y-128250807D02*
X137051891Y-127776291D01*
X138096891Y-128250807D02*
X138096891Y-127776291D01*
G04 #@! TO.C,R4*
X118522500Y-97237258D02*
X118522500Y-96762742D01*
X117477500Y-97237258D02*
X117477500Y-96762742D01*
G04 #@! TO.C,R16*
X128765943Y-71290652D02*
X128291427Y-71290652D01*
X128765943Y-70245652D02*
X128291427Y-70245652D01*
G04 #@! TO.C,R2*
X123710000Y-96822936D02*
X123710000Y-101177064D01*
X120290000Y-96822936D02*
X120290000Y-101177064D01*
G04 #@! TO.C,D4*
X138315631Y-129650233D02*
X136845631Y-129650233D01*
X138315631Y-131935233D02*
X138315631Y-129650233D01*
X136845631Y-129650233D02*
X136845631Y-131935233D01*
G04 #@! TO.C,R14*
X128747608Y-69502500D02*
X128273092Y-69502500D01*
X128747608Y-68457500D02*
X128273092Y-68457500D01*
G04 #@! TO.C,R7*
X135522500Y-128237258D02*
X135522500Y-127762742D01*
X134477500Y-128237258D02*
X134477500Y-127762742D01*
G04 #@! TO.C,Q5*
X112000000Y-74340000D02*
X113675000Y-74340000D01*
X112000000Y-71220000D02*
X112650000Y-71220000D01*
X112000000Y-74340000D02*
X111350000Y-74340000D01*
X112000000Y-71220000D02*
X111350000Y-71220000D01*
G04 #@! TO.C,D8*
X141906877Y-129658467D02*
X141906877Y-131943467D01*
X143376877Y-131943467D02*
X143376877Y-129658467D01*
X143376877Y-129658467D02*
X141906877Y-129658467D01*
G04 #@! TO.C,Q9*
X112000000Y-65082500D02*
X113675000Y-65082500D01*
X112000000Y-61962500D02*
X112650000Y-61962500D01*
X112000000Y-65082500D02*
X111350000Y-65082500D01*
X112000000Y-61962500D02*
X111350000Y-61962500D01*
G04 #@! TO.C,R22*
X176825242Y-76372512D02*
X177299758Y-76372512D01*
X176825242Y-75327512D02*
X177299758Y-75327512D01*
G04 #@! TO.C,R29*
X114477500Y-78017258D02*
X114477500Y-77542742D01*
X115522500Y-78017258D02*
X115522500Y-77542742D01*
G04 #@! TO.C,F1*
X115910000Y-106640000D02*
X115910000Y-129360000D01*
X106090000Y-106640000D02*
X106090000Y-129360000D01*
X106090000Y-106640000D02*
X109250000Y-106640000D01*
X112750000Y-106640000D02*
X115910000Y-106640000D01*
X112750000Y-129360000D02*
X115910000Y-129360000D01*
X106090000Y-129360000D02*
X109250000Y-129360000D01*
G04 #@! TO.C,R21*
X174585000Y-72612754D02*
X174585000Y-73087270D01*
X173540000Y-72612754D02*
X173540000Y-73087270D01*
G04 #@! TO.C,C3*
X129030000Y-62056252D02*
X129030000Y-60633748D01*
X130850000Y-62056252D02*
X130850000Y-60633748D01*
G04 #@! TO.C,F2*
X129910000Y-106640000D02*
X129910000Y-129360000D01*
X120090000Y-129360000D02*
X123250000Y-129360000D01*
X120090000Y-106640000D02*
X120090000Y-129360000D01*
X120090000Y-106640000D02*
X123250000Y-106640000D01*
X126750000Y-129360000D02*
X129910000Y-129360000D01*
X126750000Y-106640000D02*
X129910000Y-106640000D01*
G04 #@! TO.C,Q11*
X177000000Y-62262256D02*
X175325000Y-62262256D01*
X177000000Y-65382256D02*
X176350000Y-65382256D01*
X177000000Y-62262256D02*
X177650000Y-62262256D01*
X177000000Y-65382256D02*
X177650000Y-65382256D01*
G04 #@! TO.C,J4*
X128100000Y-136840000D02*
X128100000Y-143160000D01*
X122440000Y-142600000D02*
X123210000Y-142600000D01*
X127330000Y-142600000D02*
X128100000Y-142600000D01*
X124790000Y-142600000D02*
X125750000Y-142600000D01*
X124790000Y-143160000D02*
X125750000Y-143160000D01*
X122440000Y-143160000D02*
X123210000Y-143160000D01*
X127330000Y-143160000D02*
X128100000Y-143160000D01*
X122440000Y-137300000D02*
X128100000Y-137300000D01*
X122440000Y-136840000D02*
X122440000Y-143160000D01*
X122200000Y-143400000D02*
X122700000Y-143400000D01*
X122440000Y-136840000D02*
X128100000Y-136840000D01*
X122200000Y-142660000D02*
X122200000Y-143400000D01*
G04 #@! TO.C,R5*
X134142500Y-62057258D02*
X134142500Y-61582742D01*
X133097500Y-62057258D02*
X133097500Y-61582742D01*
G04 #@! TO.C,J7*
X97600000Y-83200000D02*
X97600000Y-83700000D01*
X98340000Y-83200000D02*
X97600000Y-83200000D01*
X97840000Y-88330000D02*
X97840000Y-89100000D01*
X104160000Y-89100000D02*
X97840000Y-89100000D01*
X104160000Y-83440000D02*
X97840000Y-83440000D01*
X97840000Y-83440000D02*
X97840000Y-84210000D01*
X98400000Y-88330000D02*
X98400000Y-89100000D01*
X98400000Y-85790000D02*
X98400000Y-86750000D01*
X103700000Y-83440000D02*
X103700000Y-89100000D01*
X97840000Y-85790000D02*
X97840000Y-86750000D01*
X98400000Y-83440000D02*
X98400000Y-84210000D01*
X104160000Y-83440000D02*
X104160000Y-89100000D01*
G04 #@! TO.C,J8*
X98340000Y-69385000D02*
X97600000Y-69385000D01*
X104160000Y-80365000D02*
X97840000Y-80365000D01*
X104160000Y-69625000D02*
X97840000Y-69625000D01*
X97840000Y-69625000D02*
X97840000Y-80365000D01*
X103700000Y-69625000D02*
X103700000Y-80365000D01*
X97600000Y-69385000D02*
X97600000Y-69885000D01*
X98400000Y-69625000D02*
X98400000Y-80365000D01*
X104160000Y-69625000D02*
X104160000Y-80365000D01*
G04 #@! TO.C,J2*
X114100000Y-136840000D02*
X114100000Y-143160000D01*
X108200000Y-143400000D02*
X108700000Y-143400000D01*
X108440000Y-136840000D02*
X108440000Y-143160000D01*
X113330000Y-142600000D02*
X114100000Y-142600000D01*
X108440000Y-143160000D02*
X109210000Y-143160000D01*
X108440000Y-142600000D02*
X109210000Y-142600000D01*
X108440000Y-136840000D02*
X114100000Y-136840000D01*
X108440000Y-137300000D02*
X114100000Y-137300000D01*
X113330000Y-143160000D02*
X114100000Y-143160000D01*
X108200000Y-142660000D02*
X108200000Y-143400000D01*
X110790000Y-142600000D02*
X111750000Y-142600000D01*
X110790000Y-143160000D02*
X111750000Y-143160000D01*
G04 #@! TO.C,J12*
X162020000Y-66550000D02*
X168520000Y-66550000D01*
X162020000Y-81990000D02*
X162020000Y-66550000D01*
X171220000Y-78580000D02*
X171220000Y-77580000D01*
X169830000Y-76320000D02*
X168520000Y-76320000D01*
X168520000Y-76320000D02*
X168520000Y-81990000D01*
X168520000Y-72220000D02*
X169830000Y-72220000D01*
X168520000Y-72220000D02*
X168520000Y-72220000D01*
X160710000Y-65250000D02*
X169830000Y-65250000D01*
X169830000Y-83290000D02*
X160710000Y-83290000D01*
X169830000Y-65250000D02*
X169830000Y-83290000D01*
X171220000Y-77580000D02*
X170220000Y-78080000D01*
X168520000Y-81990000D02*
X162020000Y-81990000D01*
X170220000Y-78080000D02*
X171220000Y-78580000D01*
X168520000Y-66550000D02*
X168520000Y-72220000D01*
X160710000Y-83290000D02*
X160710000Y-65250000D01*
G04 #@! TO.C,SW3*
X174790000Y-94800000D02*
X174790000Y-97200000D01*
X174790000Y-92790000D02*
X174790000Y-93200000D01*
X181210000Y-99210000D02*
X181210000Y-98930000D01*
X181210000Y-93200000D02*
X181210000Y-92790000D01*
X174790000Y-98800000D02*
X174790000Y-99210000D01*
X174790000Y-99210000D02*
X181210000Y-99210000D01*
X181210000Y-92790000D02*
X174790000Y-92790000D01*
X181210000Y-97200000D02*
X181210000Y-94800000D01*
G04 #@! TO.C,U2*
X109550000Y-98970000D02*
X109550000Y-100470000D01*
X116450000Y-100470000D02*
X116180000Y-100470000D01*
X116450000Y-98970000D02*
X116450000Y-100470000D01*
X116180000Y-100470000D02*
X116180000Y-101570000D01*
X109820000Y-100470000D02*
X109820000Y-103300000D01*
X109550000Y-100470000D02*
X109820000Y-100470000D01*
G04 #@! TO.C,Q1*
X177062500Y-74410012D02*
X177712500Y-74410012D01*
X177062500Y-71290012D02*
X175387500Y-71290012D01*
X177062500Y-74410012D02*
X176412500Y-74410012D01*
X177062500Y-71290012D02*
X177712500Y-71290012D01*
G04 #@! TO.C,R11*
X148245411Y-128277906D02*
X148245411Y-127803390D01*
X147200411Y-128277906D02*
X147200411Y-127803390D01*
G04 #@! TO.C,R15*
X139585634Y-128291456D02*
X139585634Y-127816940D01*
X140630634Y-128291456D02*
X140630634Y-127816940D01*
G04 #@! TO.C,J1*
X162250000Y-143160000D02*
X163210000Y-143160000D01*
X159660000Y-142660000D02*
X159660000Y-143400000D01*
X159900000Y-137300000D02*
X168100000Y-137300000D01*
X164790000Y-143160000D02*
X165750000Y-143160000D01*
X164790000Y-142600000D02*
X165750000Y-142600000D01*
X159900000Y-136840000D02*
X168100000Y-136840000D01*
X159660000Y-143400000D02*
X160160000Y-143400000D01*
X168100000Y-136840000D02*
X168100000Y-143160000D01*
X159900000Y-143160000D02*
X160670000Y-143160000D01*
X167330000Y-143160000D02*
X168100000Y-143160000D01*
X159900000Y-136840000D02*
X159900000Y-143160000D01*
X159900000Y-142600000D02*
X160670000Y-142600000D01*
X167330000Y-142600000D02*
X168100000Y-142600000D01*
X162250000Y-142600000D02*
X163210000Y-142600000D01*
G04 #@! TO.C,D3*
X135745631Y-129650233D02*
X134275631Y-129650233D01*
X135745631Y-131935233D02*
X135745631Y-129650233D01*
X134275631Y-129650233D02*
X134275631Y-131935233D01*
G04 #@! TO.C,R39*
X176762742Y-67344756D02*
X177237258Y-67344756D01*
X176762742Y-66299756D02*
X177237258Y-66299756D01*
G04 #@! TO.C,R24*
X176592766Y-87477500D02*
X177067282Y-87477500D01*
X176592766Y-88522500D02*
X177067282Y-88522500D01*
G04 #@! TO.C,R25*
X163477500Y-101762742D02*
X163477500Y-102237258D01*
X164522500Y-101762742D02*
X164522500Y-102237258D01*
G04 #@! TO.C,R41*
X177132766Y-56522500D02*
X177607282Y-56522500D01*
X177132766Y-55477500D02*
X177607282Y-55477500D01*
G04 #@! TO.C,Q10*
X181000000Y-100440000D02*
X181650000Y-100440000D01*
X181000000Y-103560000D02*
X181650000Y-103560000D01*
X181000000Y-100440000D02*
X179325000Y-100440000D01*
X181000000Y-103560000D02*
X180350000Y-103560000D01*
G04 #@! TO.C,F4*
X182910000Y-106640000D02*
X179750000Y-106640000D01*
X176250000Y-129360000D02*
X173090000Y-129360000D01*
X182910000Y-129360000D02*
X182910000Y-106640000D01*
X176250000Y-106640000D02*
X173090000Y-106640000D01*
X173090000Y-129360000D02*
X173090000Y-106640000D01*
X182910000Y-129360000D02*
X179750000Y-129360000D01*
G04 #@! TO.C,D2*
X126350000Y-103400000D02*
X129650000Y-103400000D01*
X129650000Y-103400000D02*
X129650000Y-98000000D01*
X126350000Y-103400000D02*
X126350000Y-98000000D01*
G04 #@! TO.C,R32*
X115522500Y-58759758D02*
X115522500Y-58285242D01*
X114477500Y-58759758D02*
X114477500Y-58285242D01*
G04 #@! TO.C,Q6*
X112000000Y-76220000D02*
X112650000Y-76220000D01*
X112000000Y-79340000D02*
X113675000Y-79340000D01*
X112000000Y-76220000D02*
X111350000Y-76220000D01*
X112000000Y-79340000D02*
X111350000Y-79340000D01*
G04 #@! TO.C,D5*
X145937718Y-131943467D02*
X145937718Y-129658467D01*
X145937718Y-129658467D02*
X144467718Y-129658467D01*
X144467718Y-129658467D02*
X144467718Y-131943467D01*
G04 #@! TO.C,Q4*
X167000000Y-103560000D02*
X166350000Y-103560000D01*
X167000000Y-103560000D02*
X167650000Y-103560000D01*
X167000000Y-100440000D02*
X167650000Y-100440000D01*
X167000000Y-100440000D02*
X165325000Y-100440000D01*
G04 #@! TO.C,R8*
X128747608Y-64977500D02*
X128273092Y-64977500D01*
X128747608Y-66022500D02*
X128273092Y-66022500D01*
G04 #@! TO.C,R31*
X171477500Y-102237258D02*
X171477500Y-101762742D01*
X172522500Y-102237258D02*
X172522500Y-101762742D01*
G04 #@! TO.C,R28*
X112237258Y-69257500D02*
X111762742Y-69257500D01*
X112237258Y-70302500D02*
X111762742Y-70302500D01*
G04 #@! TO.C,J10*
X184947476Y-66987740D02*
X191267476Y-66987740D01*
X184947476Y-66987740D02*
X184947476Y-56247740D01*
X185407476Y-66987740D02*
X185407476Y-56247740D01*
X190707476Y-66987740D02*
X190707476Y-56247740D01*
X190767476Y-67227740D02*
X191507476Y-67227740D01*
X184947476Y-56247740D02*
X191267476Y-56247740D01*
X191507476Y-67227740D02*
X191507476Y-66727740D01*
X191267476Y-66987740D02*
X191267476Y-56247740D01*
G04 #@! TO.C,R38*
X173477500Y-63584998D02*
X173477500Y-64059514D01*
X174522500Y-63584998D02*
X174522500Y-64059514D01*
G04 #@! TO.C,J3*
X173660000Y-142660000D02*
X173660000Y-143400000D01*
X173900000Y-137300000D02*
X182100000Y-137300000D01*
X181330000Y-143160000D02*
X182100000Y-143160000D01*
X182100000Y-136840000D02*
X182100000Y-143160000D01*
X176250000Y-142600000D02*
X177210000Y-142600000D01*
X173900000Y-143160000D02*
X174670000Y-143160000D01*
X173900000Y-136840000D02*
X182100000Y-136840000D01*
X181330000Y-142600000D02*
X182100000Y-142600000D01*
X173660000Y-143400000D02*
X174160000Y-143400000D01*
X173900000Y-136840000D02*
X173900000Y-143160000D01*
X178790000Y-142600000D02*
X179750000Y-142600000D01*
X176250000Y-143160000D02*
X177210000Y-143160000D01*
X173900000Y-142600000D02*
X174670000Y-142600000D01*
X178790000Y-143160000D02*
X179750000Y-143160000D01*
G04 #@! TO.C,U1*
X133078000Y-108618000D02*
X154922000Y-108618000D01*
X154922000Y-108618000D02*
X154922000Y-125382000D01*
X154922000Y-125382000D02*
X133078000Y-125382000D01*
X133078000Y-125382000D02*
X133078000Y-108618000D01*
G04 #@! TO.C,R37*
X172522500Y-95762742D02*
X172522500Y-96237258D01*
X171477500Y-95762742D02*
X171477500Y-96237258D01*
G04 #@! TO.C,R17*
X143150827Y-128264357D02*
X143150827Y-127789841D01*
X142105827Y-128264357D02*
X142105827Y-127789841D01*
G04 #@! TO.C,Q7*
X175000000Y-100440000D02*
X175650000Y-100440000D01*
X175000000Y-100440000D02*
X173325000Y-100440000D01*
X175000000Y-103560000D02*
X174350000Y-103560000D01*
X175000000Y-103560000D02*
X175650000Y-103560000D01*
G04 #@! TO.C,D1*
X105350000Y-103400000D02*
X105350000Y-98000000D01*
X105350000Y-103400000D02*
X108650000Y-103400000D01*
X108650000Y-103400000D02*
X108650000Y-98000000D01*
G04 #@! TO.C,C5*
X126140580Y-59490000D02*
X125859420Y-59490000D01*
X126140580Y-60510000D02*
X125859420Y-60510000D01*
G04 #@! TO.C,R3*
X117477500Y-101237258D02*
X117477500Y-100762742D01*
X118522500Y-101237258D02*
X118522500Y-100762742D01*
G04 #@! TO.C,R36*
X177477500Y-101762742D02*
X177477500Y-102237258D01*
X178522500Y-101762742D02*
X178522500Y-102237258D01*
G04 #@! TO.C,D7*
X139386683Y-129686750D02*
X139386683Y-131971750D01*
X140856683Y-129686750D02*
X139386683Y-129686750D01*
X140856683Y-131971750D02*
X140856683Y-129686750D01*
G04 #@! TO.C,R40*
X173477500Y-58812742D02*
X173477500Y-59287258D01*
X174522500Y-58812742D02*
X174522500Y-59287258D01*
G04 #@! TO.C,U3*
X141410000Y-101090000D02*
X140150000Y-101090000D01*
X134590000Y-101090000D02*
X135850000Y-101090000D01*
X141410000Y-104850000D02*
X141410000Y-101090000D01*
X134590000Y-107100000D02*
X134590000Y-101090000D01*
G04 #@! TO.C,SW4*
X161200000Y-50790000D02*
X160790000Y-50790000D01*
X162800000Y-57210000D02*
X165200000Y-57210000D01*
X166800000Y-57210000D02*
X167210000Y-57210000D01*
X167210000Y-57210000D02*
X167210000Y-50790000D01*
X160790000Y-50790000D02*
X160790000Y-57210000D01*
X165200000Y-50790000D02*
X162800000Y-50790000D01*
X160790000Y-57210000D02*
X161200000Y-57210000D01*
X167210000Y-50790000D02*
X166930000Y-50790000D01*
G04 #@! TO.C,Q2*
X176830024Y-83440000D02*
X175155024Y-83440000D01*
X176830024Y-83440000D02*
X177480024Y-83440000D01*
X176830024Y-86560000D02*
X177480024Y-86560000D01*
X176830024Y-86560000D02*
X176180024Y-86560000D01*
G04 #@! TO.C,J6*
X191160000Y-82130000D02*
X191160000Y-81360000D01*
X184840000Y-89560000D02*
X184840000Y-81360000D01*
X190600000Y-84670000D02*
X190600000Y-83710000D01*
X190600000Y-87210000D02*
X190600000Y-86250000D01*
X191160000Y-89560000D02*
X191160000Y-88790000D01*
X191160000Y-84670000D02*
X191160000Y-83710000D01*
X184840000Y-89560000D02*
X191160000Y-89560000D01*
X184840000Y-81360000D02*
X191160000Y-81360000D01*
X190660000Y-89800000D02*
X191400000Y-89800000D01*
X185300000Y-89560000D02*
X185300000Y-81360000D01*
X191160000Y-87210000D02*
X191160000Y-86250000D01*
X190600000Y-89560000D02*
X190600000Y-88790000D01*
X190600000Y-82130000D02*
X190600000Y-81360000D01*
X191400000Y-89800000D02*
X191400000Y-89300000D01*
G04 #@! TO.C,Q8*
X112000000Y-56962500D02*
X112650000Y-56962500D01*
X112000000Y-56962500D02*
X111350000Y-56962500D01*
X112000000Y-60082500D02*
X111350000Y-60082500D01*
X112000000Y-60082500D02*
X113675000Y-60082500D01*
G04 #@! TO.C,Q12*
X176937500Y-60560000D02*
X177587500Y-60560000D01*
X176937500Y-57440000D02*
X175262500Y-57440000D01*
X176937500Y-57440000D02*
X177587500Y-57440000D01*
X176937500Y-60560000D02*
X176287500Y-60560000D01*
G04 #@! TO.C,R34*
X115522500Y-63759758D02*
X115522500Y-63285242D01*
X114477500Y-63759758D02*
X114477500Y-63285242D01*
G04 #@! TO.C,J9*
X98400000Y-55625000D02*
X98400000Y-66365000D01*
X98340000Y-55385000D02*
X97600000Y-55385000D01*
X103700000Y-55625000D02*
X103700000Y-66365000D01*
X104160000Y-66365000D02*
X97840000Y-66365000D01*
X97600000Y-55385000D02*
X97600000Y-55885000D01*
X104160000Y-55625000D02*
X104160000Y-66365000D01*
X104160000Y-55625000D02*
X97840000Y-55625000D01*
X97840000Y-55625000D02*
X97840000Y-66365000D01*
G04 #@! TO.C,R13*
X131273092Y-64977500D02*
X131747608Y-64977500D01*
X131273092Y-66022500D02*
X131747608Y-66022500D01*
G04 #@! TO.C,SW2*
X167210000Y-93200000D02*
X167210000Y-92790000D01*
X160790000Y-98800000D02*
X160790000Y-99210000D01*
X167210000Y-92790000D02*
X160790000Y-92790000D01*
X160790000Y-92790000D02*
X160790000Y-93200000D01*
X160790000Y-99210000D02*
X167210000Y-99210000D01*
X167210000Y-99210000D02*
X167210000Y-98930000D01*
X167210000Y-97200000D02*
X167210000Y-94800000D01*
X160790000Y-94800000D02*
X160790000Y-97200000D01*
G04 #@! TO.C,R30*
X111648731Y-80204316D02*
X112123247Y-80204316D01*
X111648731Y-81249316D02*
X112123247Y-81249316D01*
G04 #@! TO.C,R6*
X128737258Y-66731676D02*
X128262742Y-66731676D01*
X128737258Y-67776676D02*
X128262742Y-67776676D01*
G04 #@! TO.C,R33*
X112237258Y-56045000D02*
X111762742Y-56045000D01*
X112237258Y-55000000D02*
X111762742Y-55000000D01*
G04 #@! TO.C,U4*
X135660000Y-58965000D02*
X135280000Y-58965000D01*
X153900000Y-52545000D02*
X153900000Y-58965000D01*
X153900000Y-78290000D02*
X152900000Y-78290000D01*
X135660000Y-77510000D02*
X135660000Y-78290000D01*
X135660000Y-52545000D02*
X153900000Y-52545000D01*
X135660000Y-52545000D02*
X135660000Y-58965000D01*
X153900000Y-77510000D02*
X153900000Y-78290000D01*
X135660000Y-78290000D02*
X136660000Y-78290000D01*
G04 #@! TO.C,R26*
X158522500Y-95762742D02*
X158522500Y-96237258D01*
X157477500Y-95762742D02*
X157477500Y-96237258D01*
G04 #@! TO.C,R19*
X131765943Y-71290652D02*
X131291427Y-71290652D01*
X131765943Y-70245652D02*
X131291427Y-70245652D01*
G04 #@! TO.C,R23*
X173307524Y-84762742D02*
X173307524Y-85237258D01*
X174352524Y-84762742D02*
X174352524Y-85237258D01*
G04 #@! TO.C,R20*
X158522500Y-102237258D02*
X158522500Y-101762742D01*
X157477500Y-102237258D02*
X157477500Y-101762742D01*
G04 #@! TO.C,J5*
X191160000Y-70670000D02*
X191160000Y-69900000D01*
X190600000Y-78100000D02*
X190600000Y-77330000D01*
X191400000Y-78340000D02*
X191400000Y-77840000D01*
X190600000Y-73210000D02*
X190600000Y-72250000D01*
X190600000Y-70670000D02*
X190600000Y-69900000D01*
X190600000Y-75750000D02*
X190600000Y-74790000D01*
X191160000Y-75750000D02*
X191160000Y-74790000D01*
X185300000Y-78100000D02*
X185300000Y-69900000D01*
X184840000Y-78100000D02*
X184840000Y-69900000D01*
X184840000Y-69900000D02*
X191160000Y-69900000D01*
X190660000Y-78340000D02*
X191400000Y-78340000D01*
X191160000Y-73210000D02*
X191160000Y-72250000D01*
X191160000Y-78100000D02*
X191160000Y-77330000D01*
X184840000Y-78100000D02*
X191160000Y-78100000D01*
G04 #@! TO.C,R18*
X131273092Y-69522500D02*
X131747608Y-69522500D01*
X131273092Y-68477500D02*
X131747608Y-68477500D01*
G04 #@! TO.C,R27*
X114477500Y-73017258D02*
X114477500Y-72542742D01*
X115522500Y-73017258D02*
X115522500Y-72542742D01*
G04 #@! TO.C,SW1*
X129045000Y-57390000D02*
X129045000Y-50970000D01*
X124635000Y-57390000D02*
X127035000Y-57390000D01*
X123035000Y-50970000D02*
X122625000Y-50970000D01*
X122625000Y-57390000D02*
X123035000Y-57390000D01*
X129045000Y-50970000D02*
X128765000Y-50970000D01*
X128635000Y-57390000D02*
X129045000Y-57390000D01*
X122625000Y-50970000D02*
X122625000Y-57390000D01*
X127035000Y-50970000D02*
X124635000Y-50970000D01*
G04 #@! TO.C,J14*
X135031669Y-141467882D02*
X133701669Y-141467882D01*
X136301669Y-138807882D02*
X154141669Y-138807882D01*
X133701669Y-141467882D02*
X133701669Y-140137882D01*
X154141669Y-141467882D02*
X154141669Y-138807882D01*
X136301669Y-141467882D02*
X154141669Y-141467882D01*
X136301669Y-141467882D02*
X136301669Y-138807882D01*
G04 #@! TO.C,R10*
X145725218Y-128264357D02*
X145725218Y-127789841D01*
X144680218Y-128264357D02*
X144680218Y-127789841D01*
G04 #@! TO.C,F3*
X162250000Y-129360000D02*
X159090000Y-129360000D01*
X168910000Y-129360000D02*
X165750000Y-129360000D01*
X162250000Y-106640000D02*
X159090000Y-106640000D01*
X159090000Y-129360000D02*
X159090000Y-106640000D01*
X168910000Y-129360000D02*
X168910000Y-106640000D01*
X168910000Y-106640000D02*
X165750000Y-106640000D01*
G04 #@! TO.C,C4*
X132450000Y-60760580D02*
X132450000Y-60479420D01*
X131430000Y-60760580D02*
X131430000Y-60479420D01*
G04 #@! TO.C,C1*
X144340000Y-105065000D02*
X144340000Y-106935000D01*
X144340000Y-106935000D02*
X148250000Y-106935000D01*
X148250000Y-105065000D02*
X144340000Y-105065000D01*
G04 #@! TD*
M02*
