G04 #@! TF.GenerationSoftware,KiCad,Pcbnew,6.0.6-3a73a75311~116~ubuntu22.04.1*
G04 #@! TF.CreationDate,2022-06-30T16:49:10+01:00*
G04 #@! TF.ProjectId,rLab_Door,724c6162-5f44-46f6-9f72-2e6b69636164,rev?*
G04 #@! TF.SameCoordinates,Original*
G04 #@! TF.FileFunction,Paste,Top*
G04 #@! TF.FilePolarity,Positive*
%FSLAX46Y46*%
G04 Gerber Fmt 4.6, Leading zero omitted, Abs format (unit mm)*
G04 Created by KiCad (PCBNEW 6.0.6-3a73a75311~116~ubuntu22.04.1) date 2022-06-30 16:49:10*
%MOMM*%
%LPD*%
G01*
G04 APERTURE LIST*
G04 Aperture macros list*
%AMRoundRect*
0 Rectangle with rounded corners*
0 $1 Rounding radius*
0 $2 $3 $4 $5 $6 $7 $8 $9 X,Y pos of 4 corners*
0 Add a 4 corners polygon primitive as box body*
4,1,4,$2,$3,$4,$5,$6,$7,$8,$9,$2,$3,0*
0 Add four circle primitives for the rounded corners*
1,1,$1+$1,$2,$3*
1,1,$1+$1,$4,$5*
1,1,$1+$1,$6,$7*
1,1,$1+$1,$8,$9*
0 Add four rect primitives between the rounded corners*
20,1,$1+$1,$2,$3,$4,$5,0*
20,1,$1+$1,$4,$5,$6,$7,0*
20,1,$1+$1,$6,$7,$8,$9,0*
20,1,$1+$1,$8,$9,$2,$3,0*%
G04 Aperture macros list end*
%ADD10RoundRect,0.200000X-0.200000X-0.275000X0.200000X-0.275000X0.200000X0.275000X-0.200000X0.275000X0*%
%ADD11RoundRect,0.218750X-0.256250X0.218750X-0.256250X-0.218750X0.256250X-0.218750X0.256250X0.218750X0*%
%ADD12RoundRect,0.200000X0.200000X0.275000X-0.200000X0.275000X-0.200000X-0.275000X0.200000X-0.275000X0*%
%ADD13RoundRect,0.150000X-0.587500X-0.150000X0.587500X-0.150000X0.587500X0.150000X-0.587500X0.150000X0*%
%ADD14RoundRect,0.250000X-0.450000X-0.425000X0.450000X-0.425000X0.450000X0.425000X-0.450000X0.425000X0*%
%ADD15RoundRect,0.200000X0.275000X-0.200000X0.275000X0.200000X-0.275000X0.200000X-0.275000X-0.200000X0*%
%ADD16RoundRect,0.249999X-1.425001X0.450001X-1.425001X-0.450001X1.425001X-0.450001X1.425001X0.450001X0*%
%ADD17RoundRect,0.150000X0.587500X0.150000X-0.587500X0.150000X-0.587500X-0.150000X0.587500X-0.150000X0*%
%ADD18R,1.800000X2.500000*%
%ADD19RoundRect,0.200000X-0.275000X0.200000X-0.275000X-0.200000X0.275000X-0.200000X0.275000X0.200000X0*%
%ADD20RoundRect,0.250000X0.650000X-0.325000X0.650000X0.325000X-0.650000X0.325000X-0.650000X-0.325000X0*%
%ADD21R,2.800000X1.000000*%
%ADD22R,2.750000X3.050000*%
%ADD23R,1.200000X2.200000*%
%ADD24R,2.500000X1.800000*%
%ADD25RoundRect,0.225000X0.225000X0.250000X-0.225000X0.250000X-0.225000X-0.250000X0.225000X-0.250000X0*%
%ADD26R,1.500000X2.000000*%
%ADD27R,3.800000X2.000000*%
%ADD28R,1.000000X2.800000*%
%ADD29R,2.000000X0.900000*%
%ADD30R,0.900000X2.000000*%
%ADD31R,5.000000X5.000000*%
%ADD32RoundRect,0.225000X0.250000X-0.225000X0.250000X0.225000X-0.250000X0.225000X-0.250000X-0.225000X0*%
G04 APERTURE END LIST*
D10*
G04 #@! TO.C,R7*
X130675000Y-67254176D03*
X132325000Y-67254176D03*
G04 #@! TD*
D11*
G04 #@! TO.C,D7*
X147722911Y-130369516D03*
X147722911Y-131944516D03*
G04 #@! TD*
D12*
G04 #@! TO.C,R34*
X112825000Y-66522500D03*
X111175000Y-66522500D03*
G04 #@! TD*
D13*
G04 #@! TO.C,Q3*
X160062500Y-101050000D03*
X160062500Y-102950000D03*
X161937500Y-102000000D03*
G04 #@! TD*
D14*
G04 #@! TO.C,C2*
X145357332Y-101065037D03*
X148057332Y-101065037D03*
G04 #@! TD*
D15*
G04 #@! TO.C,R1*
X115000000Y-81825000D03*
X115000000Y-80175000D03*
G04 #@! TD*
G04 #@! TO.C,R10*
X137574391Y-128838549D03*
X137574391Y-127188549D03*
G04 #@! TD*
D12*
G04 #@! TO.C,R14*
X129353685Y-70768152D03*
X127703685Y-70768152D03*
G04 #@! TD*
D16*
G04 #@! TO.C,R2*
X123500000Y-89900000D03*
X123500000Y-96000000D03*
G04 #@! TD*
D11*
G04 #@! TO.C,D5*
X137580631Y-130347733D03*
X137580631Y-131922733D03*
G04 #@! TD*
D12*
G04 #@! TO.C,R13*
X129335350Y-68980000D03*
X127685350Y-68980000D03*
G04 #@! TD*
D15*
G04 #@! TO.C,R8*
X135000000Y-128825000D03*
X135000000Y-127175000D03*
G04 #@! TD*
D17*
G04 #@! TO.C,Q5*
X112937500Y-73730000D03*
X112937500Y-71830000D03*
X111062500Y-72780000D03*
G04 #@! TD*
D11*
G04 #@! TO.C,D9*
X142641877Y-130355967D03*
X142641877Y-131930967D03*
G04 #@! TD*
D18*
G04 #@! TO.C,D2*
X128500000Y-99500000D03*
X128500000Y-95500000D03*
G04 #@! TD*
D17*
G04 #@! TO.C,Q9*
X112937500Y-64472500D03*
X112937500Y-62572500D03*
X111062500Y-63522500D03*
G04 #@! TD*
D10*
G04 #@! TO.C,R21*
X176237500Y-75850012D03*
X177887500Y-75850012D03*
G04 #@! TD*
D15*
G04 #@! TO.C,R28*
X115000000Y-78605000D03*
X115000000Y-76955000D03*
G04 #@! TD*
D19*
G04 #@! TO.C,R20*
X174062500Y-72025012D03*
X174062500Y-73675012D03*
G04 #@! TD*
D20*
G04 #@! TO.C,C3*
X129940000Y-62820000D03*
X129940000Y-59870000D03*
G04 #@! TD*
D13*
G04 #@! TO.C,Q11*
X176062500Y-62872256D03*
X176062500Y-64772256D03*
X177937500Y-63822256D03*
G04 #@! TD*
D15*
G04 #@! TO.C,R4*
X133620000Y-62645000D03*
X133620000Y-60995000D03*
G04 #@! TD*
D21*
G04 #@! TO.C,SW4*
X175100000Y-94000000D03*
X180900000Y-94000000D03*
X180900000Y-98000000D03*
X175100000Y-98000000D03*
G04 #@! TD*
D22*
G04 #@! TO.C,U2*
X112975000Y-88175000D03*
X116025000Y-91525000D03*
X116025000Y-88175000D03*
X112975000Y-91525000D03*
D23*
X112220000Y-96150000D03*
X116780000Y-96150000D03*
G04 #@! TD*
D13*
G04 #@! TO.C,Q1*
X176125000Y-71900012D03*
X176125000Y-73800012D03*
X178000000Y-72850012D03*
G04 #@! TD*
D15*
G04 #@! TO.C,R12*
X147722911Y-128865648D03*
X147722911Y-127215648D03*
G04 #@! TD*
G04 #@! TO.C,R16*
X140108134Y-128879198D03*
X140108134Y-127229198D03*
G04 #@! TD*
D11*
G04 #@! TO.C,D4*
X135010631Y-130347733D03*
X135010631Y-131922733D03*
G04 #@! TD*
D10*
G04 #@! TO.C,R38*
X176175000Y-66822256D03*
X177825000Y-66822256D03*
G04 #@! TD*
G04 #@! TO.C,R23*
X176005024Y-88000000D03*
X177655024Y-88000000D03*
G04 #@! TD*
D19*
G04 #@! TO.C,R24*
X164000000Y-101175000D03*
X164000000Y-102825000D03*
G04 #@! TD*
D10*
G04 #@! TO.C,R40*
X176545024Y-56000000D03*
X178195024Y-56000000D03*
G04 #@! TD*
D13*
G04 #@! TO.C,Q10*
X180062500Y-101050000D03*
X180062500Y-102950000D03*
X181937500Y-102000000D03*
G04 #@! TD*
D15*
G04 #@! TO.C,R31*
X115000000Y-59347500D03*
X115000000Y-57697500D03*
G04 #@! TD*
D17*
G04 #@! TO.C,Q6*
X112937500Y-78730000D03*
X112937500Y-76830000D03*
X111062500Y-77780000D03*
G04 #@! TD*
D24*
G04 #@! TO.C,D3*
X120500000Y-100000000D03*
X124500000Y-100000000D03*
G04 #@! TD*
D11*
G04 #@! TO.C,D6*
X145202718Y-130355967D03*
X145202718Y-131930967D03*
G04 #@! TD*
D13*
G04 #@! TO.C,Q4*
X166062500Y-101050000D03*
X166062500Y-102950000D03*
X167937500Y-102000000D03*
G04 #@! TD*
D12*
G04 #@! TO.C,R6*
X129335350Y-65500000D03*
X127685350Y-65500000D03*
G04 #@! TD*
D24*
G04 #@! TO.C,D1*
X116500000Y-100000000D03*
X112500000Y-100000000D03*
G04 #@! TD*
D15*
G04 #@! TO.C,R30*
X172000000Y-102825000D03*
X172000000Y-101175000D03*
G04 #@! TD*
D12*
G04 #@! TO.C,R27*
X112825000Y-69780000D03*
X111175000Y-69780000D03*
G04 #@! TD*
D19*
G04 #@! TO.C,R37*
X174000000Y-62997256D03*
X174000000Y-64647256D03*
G04 #@! TD*
G04 #@! TO.C,R36*
X172000000Y-95175000D03*
X172000000Y-96825000D03*
G04 #@! TD*
D15*
G04 #@! TO.C,R18*
X142628327Y-128852099D03*
X142628327Y-127202099D03*
G04 #@! TD*
D13*
G04 #@! TO.C,Q7*
X174062500Y-101050000D03*
X174062500Y-102950000D03*
X175937500Y-102000000D03*
G04 #@! TD*
D25*
G04 #@! TO.C,C5*
X126775000Y-60000000D03*
X125225000Y-60000000D03*
G04 #@! TD*
D15*
G04 #@! TO.C,R3*
X119500000Y-95775000D03*
X119500000Y-94125000D03*
G04 #@! TD*
D19*
G04 #@! TO.C,R35*
X178000000Y-101175000D03*
X178000000Y-102825000D03*
G04 #@! TD*
D11*
G04 #@! TO.C,D8*
X140121683Y-130384250D03*
X140121683Y-131959250D03*
G04 #@! TD*
D19*
G04 #@! TO.C,R39*
X174000000Y-58225000D03*
X174000000Y-59875000D03*
G04 #@! TD*
D26*
G04 #@! TO.C,U3*
X135700000Y-106150000D03*
X138000000Y-106150000D03*
D27*
X138000000Y-99850000D03*
D26*
X140300000Y-106150000D03*
G04 #@! TD*
D28*
G04 #@! TO.C,SW2*
X162000000Y-51100000D03*
X162000000Y-56900000D03*
X166000000Y-56900000D03*
X166000000Y-51100000D03*
G04 #@! TD*
D13*
G04 #@! TO.C,Q2*
X175892524Y-84050000D03*
X175892524Y-85950000D03*
X177767524Y-85000000D03*
G04 #@! TD*
D17*
G04 #@! TO.C,Q8*
X112937500Y-59472500D03*
X112937500Y-57572500D03*
X111062500Y-58522500D03*
G04 #@! TD*
D13*
G04 #@! TO.C,Q12*
X176000000Y-58050000D03*
X176000000Y-59950000D03*
X177875000Y-59000000D03*
G04 #@! TD*
D15*
G04 #@! TO.C,R33*
X115000000Y-64347500D03*
X115000000Y-62697500D03*
G04 #@! TD*
D10*
G04 #@! TO.C,R9*
X130685350Y-65500000D03*
X132335350Y-65500000D03*
G04 #@! TD*
D21*
G04 #@! TO.C,SW3*
X166900000Y-94000000D03*
X161100000Y-94000000D03*
X166900000Y-98000000D03*
X161100000Y-98000000D03*
G04 #@! TD*
D10*
G04 #@! TO.C,R29*
X111060989Y-80726816D03*
X112710989Y-80726816D03*
G04 #@! TD*
D12*
G04 #@! TO.C,R5*
X129325000Y-67254176D03*
X127675000Y-67254176D03*
G04 #@! TD*
G04 #@! TO.C,R32*
X112825000Y-55522500D03*
X111175000Y-55522500D03*
G04 #@! TD*
D29*
G04 #@! TO.C,U4*
X136280000Y-60155000D03*
X136280000Y-61425000D03*
X136280000Y-62695000D03*
X136280000Y-63965000D03*
X136280000Y-65235000D03*
X136280000Y-66505000D03*
X136280000Y-67775000D03*
X136280000Y-69045000D03*
X136280000Y-70315000D03*
X136280000Y-71585000D03*
X136280000Y-72855000D03*
X136280000Y-74125000D03*
X136280000Y-75395000D03*
X136280000Y-76665000D03*
D30*
X139065000Y-77665000D03*
X140335000Y-77665000D03*
X141605000Y-77665000D03*
X142875000Y-77665000D03*
X144145000Y-77665000D03*
X145415000Y-77665000D03*
X146685000Y-77665000D03*
X147955000Y-77665000D03*
X149225000Y-77665000D03*
X150495000Y-77665000D03*
D29*
X153280000Y-76665000D03*
X153280000Y-75395000D03*
X153280000Y-74125000D03*
X153280000Y-72855000D03*
X153280000Y-71585000D03*
X153280000Y-70315000D03*
X153280000Y-69045000D03*
X153280000Y-67775000D03*
X153280000Y-66505000D03*
X153280000Y-65235000D03*
X153280000Y-63965000D03*
X153280000Y-62695000D03*
X153280000Y-61425000D03*
X153280000Y-60155000D03*
D31*
X143780000Y-67655000D03*
G04 #@! TD*
D19*
G04 #@! TO.C,R25*
X158000000Y-95175000D03*
X158000000Y-96825000D03*
G04 #@! TD*
D12*
G04 #@! TO.C,R17*
X132353685Y-70768152D03*
X130703685Y-70768152D03*
G04 #@! TD*
D19*
G04 #@! TO.C,R22*
X173830024Y-84175000D03*
X173830024Y-85825000D03*
G04 #@! TD*
D15*
G04 #@! TO.C,R19*
X158000000Y-102825000D03*
X158000000Y-101175000D03*
G04 #@! TD*
D10*
G04 #@! TO.C,R15*
X130685350Y-69000000D03*
X132335350Y-69000000D03*
G04 #@! TD*
D15*
G04 #@! TO.C,R26*
X115000000Y-73605000D03*
X115000000Y-71955000D03*
G04 #@! TD*
D28*
G04 #@! TO.C,SW1*
X123835000Y-57080000D03*
X123835000Y-51280000D03*
X127835000Y-57080000D03*
X127835000Y-51280000D03*
G04 #@! TD*
D15*
G04 #@! TO.C,R11*
X145202718Y-128852099D03*
X145202718Y-127202099D03*
G04 #@! TD*
D32*
G04 #@! TO.C,C4*
X131940000Y-61395000D03*
X131940000Y-59845000D03*
G04 #@! TD*
D14*
G04 #@! TO.C,C1*
X145300000Y-106000000D03*
X148000000Y-106000000D03*
G04 #@! TD*
M02*
