G04 #@! TF.GenerationSoftware,KiCad,Pcbnew,6.0.6-3a73a75311~116~ubuntu22.04.1*
G04 #@! TF.CreationDate,2022-06-30T16:49:10+01:00*
G04 #@! TF.ProjectId,rLab_Door,724c6162-5f44-46f6-9f72-2e6b69636164,rev?*
G04 #@! TF.SameCoordinates,Original*
G04 #@! TF.FileFunction,Legend,Top*
G04 #@! TF.FilePolarity,Positive*
%FSLAX46Y46*%
G04 Gerber Fmt 4.6, Leading zero omitted, Abs format (unit mm)*
G04 Created by KiCad (PCBNEW 6.0.6-3a73a75311~116~ubuntu22.04.1) date 2022-06-30 16:49:10*
%MOMM*%
%LPD*%
G01*
G04 APERTURE LIST*
%ADD10C,0.008000*%
%ADD11C,0.378363*%
%ADD12C,0.150000*%
%ADD13C,0.300000*%
%ADD14C,1.000000*%
%ADD15C,0.500000*%
%ADD16C,0.200000*%
%ADD17C,0.120000*%
G04 APERTURE END LIST*
D10*
G36*
X147918811Y-93560411D02*
G01*
X147918811Y-95816100D01*
X143393110Y-95816100D01*
X143393110Y-95376497D01*
X143702129Y-95376497D01*
X144017230Y-95376497D01*
X144500000Y-95376497D01*
X145311402Y-95376497D01*
X145311402Y-95135634D01*
X145479565Y-95135634D01*
X145480470Y-95164801D01*
X145481602Y-95178678D01*
X145483187Y-95192085D01*
X145485224Y-95205022D01*
X145487715Y-95217488D01*
X145490658Y-95229484D01*
X145494053Y-95241010D01*
X145497902Y-95252065D01*
X145502203Y-95262650D01*
X145506957Y-95272764D01*
X145512164Y-95282408D01*
X145517824Y-95291581D01*
X145523936Y-95300284D01*
X145530501Y-95308517D01*
X145537519Y-95316279D01*
X145544990Y-95323571D01*
X145552913Y-95330393D01*
X145561289Y-95336744D01*
X145570118Y-95342624D01*
X145579400Y-95348034D01*
X145589134Y-95352974D01*
X145599322Y-95357443D01*
X145609962Y-95361442D01*
X145621055Y-95364971D01*
X145632600Y-95368029D01*
X145644598Y-95370616D01*
X145657050Y-95372733D01*
X145669954Y-95374380D01*
X145683310Y-95375556D01*
X145697120Y-95376262D01*
X145711382Y-95376497D01*
X146196790Y-95376497D01*
X146646285Y-95376497D01*
X147356243Y-95376497D01*
X147386947Y-95375556D01*
X147401556Y-95374380D01*
X147415669Y-95372733D01*
X147429288Y-95370616D01*
X147442411Y-95368029D01*
X147455038Y-95364971D01*
X147467170Y-95361442D01*
X147478807Y-95357443D01*
X147489949Y-95352974D01*
X147500596Y-95348034D01*
X147510747Y-95342624D01*
X147520403Y-95336744D01*
X147529564Y-95330393D01*
X147538229Y-95323571D01*
X147546399Y-95316279D01*
X147554074Y-95308517D01*
X147561254Y-95300284D01*
X147567939Y-95291581D01*
X147574128Y-95282408D01*
X147579822Y-95272764D01*
X147585021Y-95262650D01*
X147589725Y-95252065D01*
X147593934Y-95241010D01*
X147597647Y-95229484D01*
X147600866Y-95217488D01*
X147603589Y-95205022D01*
X147605817Y-95192085D01*
X147607550Y-95178678D01*
X147608788Y-95164801D01*
X147609530Y-95150453D01*
X147609778Y-95135634D01*
X147609778Y-94563288D01*
X147609536Y-94547909D01*
X147608809Y-94533019D01*
X147607597Y-94518618D01*
X147605901Y-94504704D01*
X147603720Y-94491279D01*
X147601055Y-94478342D01*
X147597905Y-94465893D01*
X147594271Y-94453932D01*
X147590152Y-94442460D01*
X147585548Y-94431476D01*
X147580460Y-94420980D01*
X147574887Y-94410972D01*
X147568830Y-94401452D01*
X147562288Y-94392421D01*
X147555262Y-94383878D01*
X147547751Y-94375823D01*
X147539755Y-94368256D01*
X147531275Y-94361178D01*
X147522310Y-94354587D01*
X147512861Y-94348485D01*
X147502927Y-94342871D01*
X147492509Y-94337746D01*
X147481606Y-94333108D01*
X147470219Y-94328959D01*
X147458347Y-94325297D01*
X147445990Y-94322124D01*
X147433149Y-94319439D01*
X147419824Y-94317243D01*
X147406013Y-94315534D01*
X147391719Y-94314314D01*
X147376940Y-94313581D01*
X147361676Y-94313337D01*
X146959608Y-94313337D01*
X146959608Y-94000000D01*
X146646285Y-94000000D01*
X146646285Y-95376497D01*
X146196790Y-95376497D01*
X146211834Y-95376253D01*
X146226400Y-95375521D01*
X146240488Y-95374300D01*
X146254099Y-95372592D01*
X146267233Y-95370396D01*
X146279889Y-95367711D01*
X146292068Y-95364539D01*
X146303769Y-95360878D01*
X146314992Y-95356729D01*
X146325738Y-95352092D01*
X146336006Y-95346967D01*
X146345797Y-95341353D01*
X146355111Y-95335252D01*
X146363946Y-95328662D01*
X146372304Y-95321584D01*
X146380185Y-95314018D01*
X146387588Y-95305964D01*
X146394514Y-95297421D01*
X146400961Y-95288391D01*
X146406932Y-95278872D01*
X146412424Y-95268864D01*
X146417439Y-95258369D01*
X146421977Y-95247386D01*
X146426037Y-95235914D01*
X146429619Y-95223954D01*
X146432724Y-95211505D01*
X146435351Y-95198568D01*
X146437500Y-95185144D01*
X146439172Y-95171230D01*
X146440366Y-95156829D01*
X146441083Y-95141939D01*
X146441321Y-95126561D01*
X146441321Y-94563288D01*
X146441074Y-94547909D01*
X146440331Y-94533019D01*
X146439092Y-94518618D01*
X146437359Y-94504704D01*
X146435130Y-94491279D01*
X146432405Y-94478342D01*
X146429186Y-94465893D01*
X146425471Y-94453932D01*
X146421260Y-94442460D01*
X146416555Y-94431476D01*
X146411354Y-94420980D01*
X146405658Y-94410972D01*
X146399466Y-94401452D01*
X146392779Y-94392421D01*
X146385597Y-94383878D01*
X146377920Y-94375823D01*
X146369748Y-94368256D01*
X146361080Y-94361178D01*
X146351917Y-94354587D01*
X146342258Y-94348485D01*
X146332105Y-94342871D01*
X146321456Y-94337746D01*
X146310312Y-94333108D01*
X146298673Y-94328959D01*
X146286538Y-94325297D01*
X146273908Y-94322124D01*
X146260783Y-94319439D01*
X146247163Y-94317243D01*
X146233048Y-94315534D01*
X146218437Y-94314314D01*
X146203332Y-94313581D01*
X146187731Y-94313337D01*
X145521234Y-94313337D01*
X145521234Y-94610377D01*
X146073629Y-94610377D01*
X146076973Y-94610430D01*
X146080211Y-94610589D01*
X146083342Y-94610854D01*
X146086368Y-94611226D01*
X146089287Y-94611704D01*
X146092100Y-94612287D01*
X146094806Y-94612977D01*
X146097407Y-94613774D01*
X146099901Y-94614676D01*
X146102289Y-94615684D01*
X146104571Y-94616799D01*
X146106747Y-94618020D01*
X146108817Y-94619346D01*
X146110780Y-94620779D01*
X146112637Y-94622319D01*
X146114388Y-94623964D01*
X146116033Y-94625715D01*
X146117572Y-94627573D01*
X146119004Y-94629536D01*
X146120331Y-94631606D01*
X146121551Y-94633782D01*
X146122665Y-94636064D01*
X146123673Y-94638452D01*
X146124575Y-94640946D01*
X146125371Y-94643546D01*
X146126060Y-94646252D01*
X146126644Y-94649065D01*
X146127121Y-94651983D01*
X146127493Y-94655008D01*
X146127758Y-94658139D01*
X146127917Y-94661375D01*
X146127970Y-94664718D01*
X146127970Y-94744403D01*
X146124341Y-94742871D01*
X146120698Y-94741437D01*
X146117041Y-94740102D01*
X146113370Y-94738866D01*
X146109685Y-94737729D01*
X146105986Y-94736690D01*
X146102273Y-94735751D01*
X146098546Y-94734910D01*
X146094805Y-94734169D01*
X146091050Y-94733526D01*
X146087281Y-94732982D01*
X146083498Y-94732537D01*
X146079700Y-94732191D01*
X146075889Y-94731944D01*
X146072063Y-94731795D01*
X146068223Y-94731746D01*
X145711382Y-94731746D01*
X145697120Y-94731986D01*
X145683310Y-94732708D01*
X145669954Y-94733911D01*
X145657050Y-94735595D01*
X145644598Y-94737760D01*
X145632600Y-94740406D01*
X145621055Y-94743533D01*
X145609962Y-94747141D01*
X145599322Y-94751231D01*
X145589134Y-94755801D01*
X145579400Y-94760852D01*
X145570118Y-94766385D01*
X145561289Y-94772398D01*
X145552913Y-94778893D01*
X145544990Y-94785868D01*
X145537519Y-94793325D01*
X145530501Y-94801263D01*
X145523936Y-94809681D01*
X145517824Y-94818581D01*
X145512164Y-94827961D01*
X145506957Y-94837823D01*
X145502203Y-94848165D01*
X145497902Y-94858989D01*
X145494053Y-94870293D01*
X145490658Y-94882078D01*
X145487715Y-94894345D01*
X145485224Y-94907092D01*
X145483187Y-94920320D01*
X145481602Y-94934029D01*
X145480470Y-94948219D01*
X145479791Y-94962890D01*
X145479565Y-94978042D01*
X145479565Y-95135634D01*
X145311402Y-95135634D01*
X145311402Y-95030548D01*
X144813351Y-95030548D01*
X144813351Y-94000000D01*
X144500000Y-94000000D01*
X144500000Y-95376497D01*
X144017230Y-95376497D01*
X144017230Y-94681002D01*
X144017283Y-94677661D01*
X144017443Y-94674425D01*
X144017708Y-94671295D01*
X144018079Y-94668272D01*
X144018557Y-94665354D01*
X144019141Y-94662543D01*
X144019831Y-94659837D01*
X144020627Y-94657238D01*
X144021530Y-94654745D01*
X144022538Y-94652357D01*
X144023653Y-94650076D01*
X144024873Y-94647901D01*
X144026200Y-94645831D01*
X144027633Y-94643868D01*
X144029172Y-94642011D01*
X144030817Y-94640260D01*
X144032569Y-94638615D01*
X144034426Y-94637076D01*
X144036390Y-94635644D01*
X144038460Y-94634317D01*
X144040635Y-94633097D01*
X144042917Y-94631982D01*
X144045305Y-94630974D01*
X144047800Y-94630072D01*
X144050400Y-94629275D01*
X144053106Y-94628586D01*
X144055919Y-94628002D01*
X144058837Y-94627524D01*
X144061862Y-94627152D01*
X144064993Y-94626887D01*
X144068229Y-94626728D01*
X144071572Y-94626675D01*
X144303446Y-94626675D01*
X144303446Y-94313337D01*
X143952079Y-94313337D01*
X143936049Y-94313581D01*
X143920571Y-94314314D01*
X143905646Y-94315534D01*
X143891273Y-94317243D01*
X143877452Y-94319439D01*
X143864184Y-94322124D01*
X143851468Y-94325297D01*
X143839305Y-94328958D01*
X143827694Y-94333108D01*
X143816636Y-94337745D01*
X143806130Y-94342871D01*
X143796177Y-94348485D01*
X143786776Y-94354587D01*
X143777928Y-94361177D01*
X143769632Y-94368255D01*
X143761890Y-94375821D01*
X143754651Y-94383876D01*
X143747881Y-94392419D01*
X143741577Y-94401451D01*
X143735740Y-94410971D01*
X143730371Y-94420979D01*
X143725469Y-94431476D01*
X143721034Y-94442460D01*
X143717066Y-94453933D01*
X143713565Y-94465895D01*
X143710530Y-94478344D01*
X143707963Y-94491281D01*
X143705863Y-94504706D01*
X143704229Y-94518620D01*
X143703063Y-94533021D01*
X143702363Y-94547910D01*
X143702129Y-94563288D01*
X143702129Y-95376497D01*
X143393110Y-95376497D01*
X143393110Y-93560411D01*
X147918811Y-93560411D01*
G37*
X147918811Y-93560411D02*
X147918811Y-95816100D01*
X143393110Y-95816100D01*
X143393110Y-95376497D01*
X143702129Y-95376497D01*
X144017230Y-95376497D01*
X144500000Y-95376497D01*
X145311402Y-95376497D01*
X145311402Y-95135634D01*
X145479565Y-95135634D01*
X145480470Y-95164801D01*
X145481602Y-95178678D01*
X145483187Y-95192085D01*
X145485224Y-95205022D01*
X145487715Y-95217488D01*
X145490658Y-95229484D01*
X145494053Y-95241010D01*
X145497902Y-95252065D01*
X145502203Y-95262650D01*
X145506957Y-95272764D01*
X145512164Y-95282408D01*
X145517824Y-95291581D01*
X145523936Y-95300284D01*
X145530501Y-95308517D01*
X145537519Y-95316279D01*
X145544990Y-95323571D01*
X145552913Y-95330393D01*
X145561289Y-95336744D01*
X145570118Y-95342624D01*
X145579400Y-95348034D01*
X145589134Y-95352974D01*
X145599322Y-95357443D01*
X145609962Y-95361442D01*
X145621055Y-95364971D01*
X145632600Y-95368029D01*
X145644598Y-95370616D01*
X145657050Y-95372733D01*
X145669954Y-95374380D01*
X145683310Y-95375556D01*
X145697120Y-95376262D01*
X145711382Y-95376497D01*
X146196790Y-95376497D01*
X146646285Y-95376497D01*
X147356243Y-95376497D01*
X147386947Y-95375556D01*
X147401556Y-95374380D01*
X147415669Y-95372733D01*
X147429288Y-95370616D01*
X147442411Y-95368029D01*
X147455038Y-95364971D01*
X147467170Y-95361442D01*
X147478807Y-95357443D01*
X147489949Y-95352974D01*
X147500596Y-95348034D01*
X147510747Y-95342624D01*
X147520403Y-95336744D01*
X147529564Y-95330393D01*
X147538229Y-95323571D01*
X147546399Y-95316279D01*
X147554074Y-95308517D01*
X147561254Y-95300284D01*
X147567939Y-95291581D01*
X147574128Y-95282408D01*
X147579822Y-95272764D01*
X147585021Y-95262650D01*
X147589725Y-95252065D01*
X147593934Y-95241010D01*
X147597647Y-95229484D01*
X147600866Y-95217488D01*
X147603589Y-95205022D01*
X147605817Y-95192085D01*
X147607550Y-95178678D01*
X147608788Y-95164801D01*
X147609530Y-95150453D01*
X147609778Y-95135634D01*
X147609778Y-94563288D01*
X147609536Y-94547909D01*
X147608809Y-94533019D01*
X147607597Y-94518618D01*
X147605901Y-94504704D01*
X147603720Y-94491279D01*
X147601055Y-94478342D01*
X147597905Y-94465893D01*
X147594271Y-94453932D01*
X147590152Y-94442460D01*
X147585548Y-94431476D01*
X147580460Y-94420980D01*
X147574887Y-94410972D01*
X147568830Y-94401452D01*
X147562288Y-94392421D01*
X147555262Y-94383878D01*
X147547751Y-94375823D01*
X147539755Y-94368256D01*
X147531275Y-94361178D01*
X147522310Y-94354587D01*
X147512861Y-94348485D01*
X147502927Y-94342871D01*
X147492509Y-94337746D01*
X147481606Y-94333108D01*
X147470219Y-94328959D01*
X147458347Y-94325297D01*
X147445990Y-94322124D01*
X147433149Y-94319439D01*
X147419824Y-94317243D01*
X147406013Y-94315534D01*
X147391719Y-94314314D01*
X147376940Y-94313581D01*
X147361676Y-94313337D01*
X146959608Y-94313337D01*
X146959608Y-94000000D01*
X146646285Y-94000000D01*
X146646285Y-95376497D01*
X146196790Y-95376497D01*
X146211834Y-95376253D01*
X146226400Y-95375521D01*
X146240488Y-95374300D01*
X146254099Y-95372592D01*
X146267233Y-95370396D01*
X146279889Y-95367711D01*
X146292068Y-95364539D01*
X146303769Y-95360878D01*
X146314992Y-95356729D01*
X146325738Y-95352092D01*
X146336006Y-95346967D01*
X146345797Y-95341353D01*
X146355111Y-95335252D01*
X146363946Y-95328662D01*
X146372304Y-95321584D01*
X146380185Y-95314018D01*
X146387588Y-95305964D01*
X146394514Y-95297421D01*
X146400961Y-95288391D01*
X146406932Y-95278872D01*
X146412424Y-95268864D01*
X146417439Y-95258369D01*
X146421977Y-95247386D01*
X146426037Y-95235914D01*
X146429619Y-95223954D01*
X146432724Y-95211505D01*
X146435351Y-95198568D01*
X146437500Y-95185144D01*
X146439172Y-95171230D01*
X146440366Y-95156829D01*
X146441083Y-95141939D01*
X146441321Y-95126561D01*
X146441321Y-94563288D01*
X146441074Y-94547909D01*
X146440331Y-94533019D01*
X146439092Y-94518618D01*
X146437359Y-94504704D01*
X146435130Y-94491279D01*
X146432405Y-94478342D01*
X146429186Y-94465893D01*
X146425471Y-94453932D01*
X146421260Y-94442460D01*
X146416555Y-94431476D01*
X146411354Y-94420980D01*
X146405658Y-94410972D01*
X146399466Y-94401452D01*
X146392779Y-94392421D01*
X146385597Y-94383878D01*
X146377920Y-94375823D01*
X146369748Y-94368256D01*
X146361080Y-94361178D01*
X146351917Y-94354587D01*
X146342258Y-94348485D01*
X146332105Y-94342871D01*
X146321456Y-94337746D01*
X146310312Y-94333108D01*
X146298673Y-94328959D01*
X146286538Y-94325297D01*
X146273908Y-94322124D01*
X146260783Y-94319439D01*
X146247163Y-94317243D01*
X146233048Y-94315534D01*
X146218437Y-94314314D01*
X146203332Y-94313581D01*
X146187731Y-94313337D01*
X145521234Y-94313337D01*
X145521234Y-94610377D01*
X146073629Y-94610377D01*
X146076973Y-94610430D01*
X146080211Y-94610589D01*
X146083342Y-94610854D01*
X146086368Y-94611226D01*
X146089287Y-94611704D01*
X146092100Y-94612287D01*
X146094806Y-94612977D01*
X146097407Y-94613774D01*
X146099901Y-94614676D01*
X146102289Y-94615684D01*
X146104571Y-94616799D01*
X146106747Y-94618020D01*
X146108817Y-94619346D01*
X146110780Y-94620779D01*
X146112637Y-94622319D01*
X146114388Y-94623964D01*
X146116033Y-94625715D01*
X146117572Y-94627573D01*
X146119004Y-94629536D01*
X146120331Y-94631606D01*
X146121551Y-94633782D01*
X146122665Y-94636064D01*
X146123673Y-94638452D01*
X146124575Y-94640946D01*
X146125371Y-94643546D01*
X146126060Y-94646252D01*
X146126644Y-94649065D01*
X146127121Y-94651983D01*
X146127493Y-94655008D01*
X146127758Y-94658139D01*
X146127917Y-94661375D01*
X146127970Y-94664718D01*
X146127970Y-94744403D01*
X146124341Y-94742871D01*
X146120698Y-94741437D01*
X146117041Y-94740102D01*
X146113370Y-94738866D01*
X146109685Y-94737729D01*
X146105986Y-94736690D01*
X146102273Y-94735751D01*
X146098546Y-94734910D01*
X146094805Y-94734169D01*
X146091050Y-94733526D01*
X146087281Y-94732982D01*
X146083498Y-94732537D01*
X146079700Y-94732191D01*
X146075889Y-94731944D01*
X146072063Y-94731795D01*
X146068223Y-94731746D01*
X145711382Y-94731746D01*
X145697120Y-94731986D01*
X145683310Y-94732708D01*
X145669954Y-94733911D01*
X145657050Y-94735595D01*
X145644598Y-94737760D01*
X145632600Y-94740406D01*
X145621055Y-94743533D01*
X145609962Y-94747141D01*
X145599322Y-94751231D01*
X145589134Y-94755801D01*
X145579400Y-94760852D01*
X145570118Y-94766385D01*
X145561289Y-94772398D01*
X145552913Y-94778893D01*
X145544990Y-94785868D01*
X145537519Y-94793325D01*
X145530501Y-94801263D01*
X145523936Y-94809681D01*
X145517824Y-94818581D01*
X145512164Y-94827961D01*
X145506957Y-94837823D01*
X145502203Y-94848165D01*
X145497902Y-94858989D01*
X145494053Y-94870293D01*
X145490658Y-94882078D01*
X145487715Y-94894345D01*
X145485224Y-94907092D01*
X145483187Y-94920320D01*
X145481602Y-94934029D01*
X145480470Y-94948219D01*
X145479791Y-94962890D01*
X145479565Y-94978042D01*
X145479565Y-95135634D01*
X145311402Y-95135634D01*
X145311402Y-95030548D01*
X144813351Y-95030548D01*
X144813351Y-94000000D01*
X144500000Y-94000000D01*
X144500000Y-95376497D01*
X144017230Y-95376497D01*
X144017230Y-94681002D01*
X144017283Y-94677661D01*
X144017443Y-94674425D01*
X144017708Y-94671295D01*
X144018079Y-94668272D01*
X144018557Y-94665354D01*
X144019141Y-94662543D01*
X144019831Y-94659837D01*
X144020627Y-94657238D01*
X144021530Y-94654745D01*
X144022538Y-94652357D01*
X144023653Y-94650076D01*
X144024873Y-94647901D01*
X144026200Y-94645831D01*
X144027633Y-94643868D01*
X144029172Y-94642011D01*
X144030817Y-94640260D01*
X144032569Y-94638615D01*
X144034426Y-94637076D01*
X144036390Y-94635644D01*
X144038460Y-94634317D01*
X144040635Y-94633097D01*
X144042917Y-94631982D01*
X144045305Y-94630974D01*
X144047800Y-94630072D01*
X144050400Y-94629275D01*
X144053106Y-94628586D01*
X144055919Y-94628002D01*
X144058837Y-94627524D01*
X144061862Y-94627152D01*
X144064993Y-94626887D01*
X144068229Y-94626728D01*
X144071572Y-94626675D01*
X144303446Y-94626675D01*
X144303446Y-94313337D01*
X143952079Y-94313337D01*
X143936049Y-94313581D01*
X143920571Y-94314314D01*
X143905646Y-94315534D01*
X143891273Y-94317243D01*
X143877452Y-94319439D01*
X143864184Y-94322124D01*
X143851468Y-94325297D01*
X143839305Y-94328958D01*
X143827694Y-94333108D01*
X143816636Y-94337745D01*
X143806130Y-94342871D01*
X143796177Y-94348485D01*
X143786776Y-94354587D01*
X143777928Y-94361177D01*
X143769632Y-94368255D01*
X143761890Y-94375821D01*
X143754651Y-94383876D01*
X143747881Y-94392419D01*
X143741577Y-94401451D01*
X143735740Y-94410971D01*
X143730371Y-94420979D01*
X143725469Y-94431476D01*
X143721034Y-94442460D01*
X143717066Y-94453933D01*
X143713565Y-94465895D01*
X143710530Y-94478344D01*
X143707963Y-94491281D01*
X143705863Y-94504706D01*
X143704229Y-94518620D01*
X143703063Y-94533021D01*
X143702363Y-94547910D01*
X143702129Y-94563288D01*
X143702129Y-95376497D01*
X143393110Y-95376497D01*
X143393110Y-93560411D01*
X147918811Y-93560411D01*
G36*
X146093989Y-94938227D02*
G01*
X146096146Y-94938333D01*
X146098233Y-94938511D01*
X146100249Y-94938759D01*
X146102194Y-94939077D01*
X146104068Y-94939467D01*
X146105872Y-94939928D01*
X146107604Y-94940459D01*
X146109266Y-94941061D01*
X146110858Y-94941734D01*
X146112378Y-94942478D01*
X146113828Y-94943293D01*
X146115207Y-94944178D01*
X146116515Y-94945135D01*
X146117753Y-94946162D01*
X146118920Y-94947260D01*
X146120016Y-94948429D01*
X146121041Y-94949668D01*
X146121995Y-94950979D01*
X146122879Y-94952360D01*
X146123692Y-94953812D01*
X146124435Y-94955335D01*
X146125107Y-94956928D01*
X146125708Y-94958593D01*
X146126238Y-94960328D01*
X146126697Y-94962134D01*
X146127086Y-94964011D01*
X146127404Y-94965959D01*
X146127652Y-94967977D01*
X146127829Y-94970066D01*
X146127935Y-94972226D01*
X146127970Y-94974457D01*
X146127970Y-95048681D01*
X146127935Y-95050909D01*
X146127829Y-95053067D01*
X146127652Y-95055153D01*
X146127404Y-95057169D01*
X146127086Y-95059114D01*
X146126697Y-95060989D01*
X146126238Y-95062792D01*
X146125708Y-95064525D01*
X146125107Y-95066187D01*
X146124435Y-95067778D01*
X146123692Y-95069299D01*
X146122879Y-95070748D01*
X146121995Y-95072127D01*
X146121041Y-95073436D01*
X146120016Y-95074673D01*
X146118920Y-95075840D01*
X146117753Y-95076936D01*
X146116515Y-95077961D01*
X146115207Y-95078916D01*
X146113828Y-95079800D01*
X146112378Y-95080613D01*
X146110858Y-95081355D01*
X146109266Y-95082027D01*
X146107604Y-95082628D01*
X146105872Y-95083158D01*
X146104068Y-95083618D01*
X146102194Y-95084007D01*
X146100249Y-95084325D01*
X146098233Y-95084572D01*
X146096146Y-95084749D01*
X146093989Y-95084855D01*
X146091761Y-95084890D01*
X145827347Y-95084890D01*
X145825116Y-95084855D01*
X145822956Y-95084749D01*
X145820867Y-95084572D01*
X145818849Y-95084325D01*
X145816902Y-95084007D01*
X145815025Y-95083618D01*
X145813220Y-95083158D01*
X145811485Y-95082628D01*
X145809821Y-95082027D01*
X145808228Y-95081355D01*
X145806705Y-95080613D01*
X145805254Y-95079800D01*
X145803873Y-95078916D01*
X145802564Y-95077961D01*
X145801325Y-95076936D01*
X145800157Y-95075840D01*
X145799059Y-95074673D01*
X145798033Y-95073436D01*
X145797077Y-95072127D01*
X145796192Y-95070748D01*
X145795378Y-95069299D01*
X145794635Y-95067778D01*
X145793962Y-95066187D01*
X145793361Y-95064525D01*
X145792830Y-95062792D01*
X145792370Y-95060989D01*
X145791980Y-95059114D01*
X145791662Y-95057169D01*
X145791414Y-95055153D01*
X145791237Y-95053067D01*
X145791131Y-95050909D01*
X145791096Y-95048681D01*
X145791096Y-94974457D01*
X145791131Y-94972226D01*
X145791237Y-94970066D01*
X145791414Y-94967977D01*
X145791662Y-94965959D01*
X145791980Y-94964011D01*
X145792370Y-94962134D01*
X145792830Y-94960328D01*
X145793361Y-94958593D01*
X145793962Y-94956928D01*
X145794635Y-94955335D01*
X145795378Y-94953812D01*
X145796192Y-94952360D01*
X145797077Y-94950979D01*
X145798033Y-94949668D01*
X145799059Y-94948429D01*
X145800157Y-94947260D01*
X145801325Y-94946162D01*
X145802564Y-94945135D01*
X145803873Y-94944178D01*
X145805254Y-94943293D01*
X145806705Y-94942478D01*
X145808228Y-94941734D01*
X145809821Y-94941061D01*
X145811485Y-94940459D01*
X145813220Y-94939928D01*
X145815025Y-94939467D01*
X145816902Y-94939077D01*
X145818849Y-94938759D01*
X145820867Y-94938511D01*
X145822956Y-94938333D01*
X145825116Y-94938227D01*
X145827347Y-94938192D01*
X146091761Y-94938192D01*
X146093989Y-94938227D01*
G37*
X146093989Y-94938227D02*
X146096146Y-94938333D01*
X146098233Y-94938511D01*
X146100249Y-94938759D01*
X146102194Y-94939077D01*
X146104068Y-94939467D01*
X146105872Y-94939928D01*
X146107604Y-94940459D01*
X146109266Y-94941061D01*
X146110858Y-94941734D01*
X146112378Y-94942478D01*
X146113828Y-94943293D01*
X146115207Y-94944178D01*
X146116515Y-94945135D01*
X146117753Y-94946162D01*
X146118920Y-94947260D01*
X146120016Y-94948429D01*
X146121041Y-94949668D01*
X146121995Y-94950979D01*
X146122879Y-94952360D01*
X146123692Y-94953812D01*
X146124435Y-94955335D01*
X146125107Y-94956928D01*
X146125708Y-94958593D01*
X146126238Y-94960328D01*
X146126697Y-94962134D01*
X146127086Y-94964011D01*
X146127404Y-94965959D01*
X146127652Y-94967977D01*
X146127829Y-94970066D01*
X146127935Y-94972226D01*
X146127970Y-94974457D01*
X146127970Y-95048681D01*
X146127935Y-95050909D01*
X146127829Y-95053067D01*
X146127652Y-95055153D01*
X146127404Y-95057169D01*
X146127086Y-95059114D01*
X146126697Y-95060989D01*
X146126238Y-95062792D01*
X146125708Y-95064525D01*
X146125107Y-95066187D01*
X146124435Y-95067778D01*
X146123692Y-95069299D01*
X146122879Y-95070748D01*
X146121995Y-95072127D01*
X146121041Y-95073436D01*
X146120016Y-95074673D01*
X146118920Y-95075840D01*
X146117753Y-95076936D01*
X146116515Y-95077961D01*
X146115207Y-95078916D01*
X146113828Y-95079800D01*
X146112378Y-95080613D01*
X146110858Y-95081355D01*
X146109266Y-95082027D01*
X146107604Y-95082628D01*
X146105872Y-95083158D01*
X146104068Y-95083618D01*
X146102194Y-95084007D01*
X146100249Y-95084325D01*
X146098233Y-95084572D01*
X146096146Y-95084749D01*
X146093989Y-95084855D01*
X146091761Y-95084890D01*
X145827347Y-95084890D01*
X145825116Y-95084855D01*
X145822956Y-95084749D01*
X145820867Y-95084572D01*
X145818849Y-95084325D01*
X145816902Y-95084007D01*
X145815025Y-95083618D01*
X145813220Y-95083158D01*
X145811485Y-95082628D01*
X145809821Y-95082027D01*
X145808228Y-95081355D01*
X145806705Y-95080613D01*
X145805254Y-95079800D01*
X145803873Y-95078916D01*
X145802564Y-95077961D01*
X145801325Y-95076936D01*
X145800157Y-95075840D01*
X145799059Y-95074673D01*
X145798033Y-95073436D01*
X145797077Y-95072127D01*
X145796192Y-95070748D01*
X145795378Y-95069299D01*
X145794635Y-95067778D01*
X145793962Y-95066187D01*
X145793361Y-95064525D01*
X145792830Y-95062792D01*
X145792370Y-95060989D01*
X145791980Y-95059114D01*
X145791662Y-95057169D01*
X145791414Y-95055153D01*
X145791237Y-95053067D01*
X145791131Y-95050909D01*
X145791096Y-95048681D01*
X145791096Y-94974457D01*
X145791131Y-94972226D01*
X145791237Y-94970066D01*
X145791414Y-94967977D01*
X145791662Y-94965959D01*
X145791980Y-94964011D01*
X145792370Y-94962134D01*
X145792830Y-94960328D01*
X145793361Y-94958593D01*
X145793962Y-94956928D01*
X145794635Y-94955335D01*
X145795378Y-94953812D01*
X145796192Y-94952360D01*
X145797077Y-94950979D01*
X145798033Y-94949668D01*
X145799059Y-94948429D01*
X145800157Y-94947260D01*
X145801325Y-94946162D01*
X145802564Y-94945135D01*
X145803873Y-94944178D01*
X145805254Y-94943293D01*
X145806705Y-94942478D01*
X145808228Y-94941734D01*
X145809821Y-94941061D01*
X145811485Y-94940459D01*
X145813220Y-94939928D01*
X145815025Y-94939467D01*
X145816902Y-94939077D01*
X145818849Y-94938759D01*
X145820867Y-94938511D01*
X145822956Y-94938333D01*
X145825116Y-94938227D01*
X145827347Y-94938192D01*
X146091761Y-94938192D01*
X146093989Y-94938227D01*
D11*
G36*
X139055520Y-83990268D02*
G01*
X139785917Y-85622305D01*
X135005847Y-88661567D01*
X137152998Y-85619218D01*
X136422602Y-83987180D01*
X141202672Y-80947918D01*
X139055520Y-83990268D01*
G37*
X139055520Y-83990268D02*
X139785917Y-85622305D01*
X135005847Y-88661567D01*
X137152998Y-85619218D01*
X136422602Y-83987180D01*
X141202672Y-80947918D01*
X139055520Y-83990268D01*
D10*
G36*
X147245460Y-94628548D02*
G01*
X147248700Y-94628707D01*
X147251835Y-94628973D01*
X147254863Y-94629344D01*
X147257784Y-94629822D01*
X147260600Y-94630406D01*
X147263309Y-94631096D01*
X147265912Y-94631892D01*
X147268409Y-94632794D01*
X147270799Y-94633803D01*
X147273084Y-94634917D01*
X147275262Y-94636138D01*
X147277334Y-94637465D01*
X147279299Y-94638898D01*
X147281159Y-94640437D01*
X147282912Y-94642082D01*
X147284558Y-94643834D01*
X147286099Y-94645691D01*
X147287533Y-94647655D01*
X147288861Y-94649724D01*
X147290083Y-94651900D01*
X147291199Y-94654182D01*
X147292208Y-94656570D01*
X147293111Y-94659064D01*
X147293908Y-94661665D01*
X147294599Y-94664371D01*
X147295183Y-94667183D01*
X147295661Y-94670102D01*
X147296033Y-94673126D01*
X147296299Y-94676257D01*
X147296458Y-94679494D01*
X147296511Y-94682837D01*
X147296511Y-95005233D01*
X147296299Y-95012251D01*
X147296033Y-95015590D01*
X147295661Y-95018816D01*
X147295182Y-95021928D01*
X147294598Y-95024927D01*
X147293907Y-95027813D01*
X147293109Y-95030586D01*
X147292206Y-95033246D01*
X147291196Y-95035792D01*
X147290080Y-95038225D01*
X147288858Y-95040545D01*
X147287529Y-95042751D01*
X147286094Y-95044845D01*
X147284553Y-95046825D01*
X147282906Y-95048692D01*
X147281153Y-95050446D01*
X147279293Y-95052086D01*
X147277328Y-95053614D01*
X147275256Y-95055028D01*
X147273078Y-95056329D01*
X147270793Y-95057517D01*
X147268403Y-95058592D01*
X147265906Y-95059554D01*
X147263303Y-95060402D01*
X147260595Y-95061137D01*
X147257780Y-95061759D01*
X147254859Y-95062269D01*
X147251831Y-95062664D01*
X147248698Y-95062947D01*
X147245459Y-95063117D01*
X147242113Y-95063173D01*
X146959608Y-95063173D01*
X146959608Y-94628495D01*
X147242113Y-94628495D01*
X147245460Y-94628548D01*
G37*
X147245460Y-94628548D02*
X147248700Y-94628707D01*
X147251835Y-94628973D01*
X147254863Y-94629344D01*
X147257784Y-94629822D01*
X147260600Y-94630406D01*
X147263309Y-94631096D01*
X147265912Y-94631892D01*
X147268409Y-94632794D01*
X147270799Y-94633803D01*
X147273084Y-94634917D01*
X147275262Y-94636138D01*
X147277334Y-94637465D01*
X147279299Y-94638898D01*
X147281159Y-94640437D01*
X147282912Y-94642082D01*
X147284558Y-94643834D01*
X147286099Y-94645691D01*
X147287533Y-94647655D01*
X147288861Y-94649724D01*
X147290083Y-94651900D01*
X147291199Y-94654182D01*
X147292208Y-94656570D01*
X147293111Y-94659064D01*
X147293908Y-94661665D01*
X147294599Y-94664371D01*
X147295183Y-94667183D01*
X147295661Y-94670102D01*
X147296033Y-94673126D01*
X147296299Y-94676257D01*
X147296458Y-94679494D01*
X147296511Y-94682837D01*
X147296511Y-95005233D01*
X147296299Y-95012251D01*
X147296033Y-95015590D01*
X147295661Y-95018816D01*
X147295182Y-95021928D01*
X147294598Y-95024927D01*
X147293907Y-95027813D01*
X147293109Y-95030586D01*
X147292206Y-95033246D01*
X147291196Y-95035792D01*
X147290080Y-95038225D01*
X147288858Y-95040545D01*
X147287529Y-95042751D01*
X147286094Y-95044845D01*
X147284553Y-95046825D01*
X147282906Y-95048692D01*
X147281153Y-95050446D01*
X147279293Y-95052086D01*
X147277328Y-95053614D01*
X147275256Y-95055028D01*
X147273078Y-95056329D01*
X147270793Y-95057517D01*
X147268403Y-95058592D01*
X147265906Y-95059554D01*
X147263303Y-95060402D01*
X147260595Y-95061137D01*
X147257780Y-95061759D01*
X147254859Y-95062269D01*
X147251831Y-95062664D01*
X147248698Y-95062947D01*
X147245459Y-95063117D01*
X147242113Y-95063173D01*
X146959608Y-95063173D01*
X146959608Y-94628495D01*
X147242113Y-94628495D01*
X147245460Y-94628548D01*
G36*
X142373547Y-92807735D02*
G01*
X142373735Y-92805850D01*
X142374046Y-92803994D01*
X142374475Y-92802172D01*
X142375020Y-92800388D01*
X142375679Y-92798649D01*
X142376447Y-92796959D01*
X142377322Y-92795324D01*
X142378300Y-92793749D01*
X142379380Y-92792239D01*
X142380557Y-92790799D01*
X142381830Y-92789434D01*
X142383194Y-92788151D01*
X142384646Y-92786953D01*
X142386185Y-92785846D01*
X142387806Y-92784836D01*
X145641631Y-90906239D01*
X145670276Y-90906239D01*
X148924115Y-92784836D01*
X148924934Y-92785329D01*
X148925734Y-92785846D01*
X148926513Y-92786388D01*
X148927271Y-92786953D01*
X148928007Y-92787541D01*
X148928722Y-92788151D01*
X148929415Y-92788782D01*
X148930085Y-92789434D01*
X148930733Y-92790107D01*
X148931357Y-92790799D01*
X148931958Y-92791510D01*
X148932535Y-92792239D01*
X148933087Y-92792985D01*
X148933615Y-92793749D01*
X148934117Y-92794529D01*
X148934594Y-92795324D01*
X148935045Y-92796135D01*
X148935470Y-92796959D01*
X148935868Y-92797798D01*
X148936239Y-92798649D01*
X148936582Y-92799513D01*
X148936898Y-92800388D01*
X148937185Y-92801275D01*
X148937444Y-92802172D01*
X148937674Y-92803078D01*
X148937874Y-92803994D01*
X148938045Y-92804918D01*
X148938185Y-92805850D01*
X148938295Y-92806789D01*
X148938374Y-92807735D01*
X148938421Y-92808687D01*
X148938437Y-92809643D01*
X148938437Y-96566853D01*
X148938374Y-96568762D01*
X148938185Y-96570646D01*
X148937874Y-96572503D01*
X148937444Y-96574325D01*
X148936898Y-96576109D01*
X148936239Y-96577848D01*
X148935470Y-96579538D01*
X148934594Y-96581173D01*
X148933615Y-96582748D01*
X148932535Y-96584258D01*
X148931357Y-96585698D01*
X148930085Y-96587062D01*
X148928722Y-96588346D01*
X148927271Y-96589544D01*
X148925734Y-96590651D01*
X148924115Y-96591661D01*
X145670276Y-98470258D01*
X145669439Y-98470723D01*
X145668591Y-98471157D01*
X145667732Y-98471561D01*
X145666863Y-98471936D01*
X145665986Y-98472281D01*
X145665099Y-98472596D01*
X145664206Y-98472881D01*
X145663305Y-98473136D01*
X145662399Y-98473361D01*
X145661487Y-98473556D01*
X145660571Y-98473722D01*
X145659652Y-98473857D01*
X145658730Y-98473962D01*
X145657805Y-98474037D01*
X145656880Y-98474083D01*
X145655954Y-98474098D01*
X145655025Y-98474083D01*
X145654097Y-98474037D01*
X145653171Y-98473962D01*
X145652247Y-98473857D01*
X145651326Y-98473722D01*
X145650410Y-98473556D01*
X145649497Y-98473361D01*
X145648591Y-98473136D01*
X145647691Y-98472881D01*
X145646797Y-98472596D01*
X145645912Y-98472281D01*
X145645035Y-98471936D01*
X145644168Y-98471561D01*
X145643311Y-98471157D01*
X145642465Y-98470723D01*
X145641631Y-98470258D01*
X142387806Y-96591661D01*
X142386985Y-96591168D01*
X142386185Y-96590651D01*
X142385405Y-96590109D01*
X142384646Y-96589544D01*
X142383909Y-96588956D01*
X142383194Y-96588346D01*
X142382500Y-96587715D01*
X142381830Y-96587062D01*
X142381182Y-96586390D01*
X142380557Y-96585698D01*
X142379957Y-96584987D01*
X142379380Y-96584258D01*
X142378828Y-96583511D01*
X142378300Y-96582748D01*
X142377798Y-96581968D01*
X142377322Y-96581173D01*
X142376871Y-96580362D01*
X142376447Y-96579538D01*
X142376049Y-96578699D01*
X142375679Y-96577848D01*
X142375336Y-96576984D01*
X142375020Y-96576109D01*
X142374733Y-96575222D01*
X142374475Y-96574325D01*
X142374246Y-96573419D01*
X142374046Y-96572503D01*
X142373876Y-96571579D01*
X142373735Y-96570646D01*
X142373626Y-96569707D01*
X142373547Y-96568762D01*
X142373499Y-96567810D01*
X142373483Y-96566853D01*
X142373483Y-95891750D01*
X143241811Y-95891750D01*
X143241909Y-95895642D01*
X143242201Y-95899483D01*
X143242683Y-95903268D01*
X143243348Y-95906993D01*
X143244193Y-95910652D01*
X143245213Y-95914242D01*
X143246402Y-95917756D01*
X143247757Y-95921192D01*
X143249272Y-95924542D01*
X143250943Y-95927804D01*
X143252765Y-95930972D01*
X143254733Y-95934042D01*
X143256843Y-95937008D01*
X143259089Y-95939866D01*
X143261467Y-95942611D01*
X143263972Y-95945238D01*
X143266600Y-95947743D01*
X143269345Y-95950121D01*
X143272203Y-95952367D01*
X143275169Y-95954477D01*
X143278238Y-95956445D01*
X143281406Y-95958267D01*
X143284668Y-95959938D01*
X143288019Y-95961453D01*
X143291454Y-95962808D01*
X143294969Y-95963998D01*
X143298558Y-95965017D01*
X143302218Y-95965862D01*
X143305942Y-95966528D01*
X143309727Y-95967009D01*
X143313568Y-95967301D01*
X143317460Y-95967400D01*
X143943669Y-95967400D01*
X143943669Y-96625147D01*
X143943835Y-96631714D01*
X143944328Y-96638196D01*
X143945139Y-96644583D01*
X143946262Y-96650868D01*
X143947687Y-96657043D01*
X143949406Y-96663099D01*
X143951413Y-96669029D01*
X143953698Y-96674825D01*
X143956254Y-96680479D01*
X143959072Y-96685982D01*
X143962145Y-96691327D01*
X143965465Y-96696506D01*
X143969023Y-96701510D01*
X143972812Y-96706332D01*
X143976823Y-96710963D01*
X143981049Y-96715396D01*
X143985482Y-96719622D01*
X143990113Y-96723634D01*
X143994934Y-96727423D01*
X143999938Y-96730982D01*
X144005117Y-96734302D01*
X144010462Y-96737375D01*
X144015965Y-96740194D01*
X144021619Y-96742750D01*
X144027416Y-96745036D01*
X144033346Y-96747042D01*
X144039403Y-96748762D01*
X144045579Y-96750188D01*
X144051865Y-96751310D01*
X144058253Y-96752122D01*
X144064735Y-96752615D01*
X144071304Y-96752781D01*
X144129145Y-96752781D01*
X144135713Y-96752615D01*
X144142194Y-96752122D01*
X144148581Y-96751310D01*
X144154866Y-96750188D01*
X144161041Y-96748762D01*
X144167098Y-96747042D01*
X144173028Y-96745036D01*
X144178824Y-96742750D01*
X144184478Y-96740194D01*
X144189981Y-96737375D01*
X144195326Y-96734302D01*
X144200505Y-96730982D01*
X144205509Y-96727423D01*
X144210331Y-96723634D01*
X144214962Y-96719622D01*
X144219395Y-96715396D01*
X144223621Y-96710963D01*
X144227633Y-96706332D01*
X144231422Y-96701510D01*
X144234981Y-96696506D01*
X144238301Y-96691327D01*
X144241374Y-96685982D01*
X144244193Y-96680479D01*
X144246749Y-96674825D01*
X144249035Y-96669029D01*
X144251042Y-96663099D01*
X144252762Y-96657043D01*
X144254187Y-96650868D01*
X144255310Y-96644583D01*
X144256121Y-96638196D01*
X144256614Y-96631714D01*
X144256780Y-96625147D01*
X144256780Y-95967400D01*
X144980821Y-95967400D01*
X144980821Y-96625147D01*
X144980987Y-96631714D01*
X144981480Y-96638196D01*
X144982292Y-96644583D01*
X144983414Y-96650868D01*
X144984839Y-96657043D01*
X144986559Y-96663099D01*
X144988565Y-96669029D01*
X144990850Y-96674825D01*
X144993406Y-96680479D01*
X144996224Y-96685982D01*
X144999298Y-96691327D01*
X145002617Y-96696506D01*
X145006175Y-96701510D01*
X145009964Y-96706332D01*
X145013976Y-96710963D01*
X145018202Y-96715396D01*
X145022634Y-96719622D01*
X145027265Y-96723634D01*
X145032087Y-96727423D01*
X145037091Y-96730982D01*
X145042269Y-96734302D01*
X145047614Y-96737375D01*
X145053118Y-96740194D01*
X145058772Y-96742750D01*
X145064568Y-96745036D01*
X145070499Y-96747042D01*
X145076556Y-96748762D01*
X145082731Y-96750188D01*
X145089017Y-96751310D01*
X145095405Y-96752122D01*
X145101888Y-96752615D01*
X145108456Y-96752781D01*
X145166298Y-96752781D01*
X145172867Y-96752615D01*
X145179349Y-96752122D01*
X145185738Y-96751310D01*
X145192024Y-96750188D01*
X145198200Y-96748762D01*
X145204257Y-96747042D01*
X145210188Y-96745036D01*
X145215985Y-96742750D01*
X145221639Y-96740194D01*
X145227143Y-96737375D01*
X145232489Y-96734302D01*
X145237668Y-96730982D01*
X145242673Y-96727423D01*
X145247495Y-96723634D01*
X145252126Y-96719622D01*
X145256560Y-96715396D01*
X145260786Y-96710963D01*
X145264798Y-96706332D01*
X145268588Y-96701510D01*
X145272147Y-96696506D01*
X145275467Y-96691327D01*
X145278540Y-96685982D01*
X145281359Y-96680479D01*
X145283916Y-96674825D01*
X145286201Y-96669029D01*
X145288208Y-96663099D01*
X145289928Y-96657043D01*
X145291353Y-96650868D01*
X145292476Y-96644583D01*
X145293288Y-96638196D01*
X145293781Y-96631714D01*
X145293947Y-96625147D01*
X145293947Y-95967400D01*
X146017988Y-95967400D01*
X146017988Y-96625147D01*
X146018154Y-96631714D01*
X146018647Y-96638196D01*
X146019458Y-96644583D01*
X146020581Y-96650868D01*
X146022006Y-96657043D01*
X146023726Y-96663099D01*
X146025733Y-96669029D01*
X146028019Y-96674825D01*
X146030575Y-96680479D01*
X146033394Y-96685982D01*
X146036467Y-96691327D01*
X146039787Y-96696506D01*
X146043346Y-96701510D01*
X146047135Y-96706332D01*
X146051147Y-96710963D01*
X146055373Y-96715396D01*
X146059806Y-96719622D01*
X146064438Y-96723634D01*
X146069259Y-96727423D01*
X146074264Y-96730982D01*
X146079442Y-96734302D01*
X146084787Y-96737375D01*
X146090290Y-96740194D01*
X146095944Y-96742750D01*
X146101740Y-96745036D01*
X146107670Y-96747042D01*
X146113727Y-96748762D01*
X146119902Y-96750188D01*
X146126187Y-96751310D01*
X146132574Y-96752122D01*
X146139056Y-96752615D01*
X146145623Y-96752781D01*
X146203450Y-96752781D01*
X146210019Y-96752615D01*
X146216502Y-96752122D01*
X146222890Y-96751310D01*
X146229176Y-96750188D01*
X146235351Y-96748762D01*
X146241408Y-96747042D01*
X146247339Y-96745036D01*
X146253135Y-96742750D01*
X146258789Y-96740194D01*
X146264292Y-96737375D01*
X146269637Y-96734302D01*
X146274816Y-96730982D01*
X146279820Y-96727423D01*
X146284641Y-96723634D01*
X146289272Y-96719622D01*
X146293705Y-96715396D01*
X146297931Y-96710963D01*
X146301942Y-96706332D01*
X146305731Y-96701510D01*
X146309289Y-96696506D01*
X146312609Y-96691327D01*
X146315682Y-96685982D01*
X146318500Y-96680479D01*
X146321056Y-96674825D01*
X146323341Y-96669029D01*
X146325348Y-96663099D01*
X146327067Y-96657043D01*
X146328492Y-96650868D01*
X146329615Y-96644583D01*
X146330426Y-96638196D01*
X146330919Y-96631714D01*
X146331085Y-96625147D01*
X146331085Y-95967400D01*
X147055140Y-95967400D01*
X147055140Y-96625147D01*
X147055306Y-96631714D01*
X147055799Y-96638196D01*
X147056611Y-96644583D01*
X147057734Y-96650868D01*
X147059159Y-96657043D01*
X147060879Y-96663099D01*
X147062886Y-96669029D01*
X147065171Y-96674825D01*
X147067728Y-96680479D01*
X147070546Y-96685982D01*
X147073620Y-96691327D01*
X147076940Y-96696506D01*
X147080499Y-96701510D01*
X147084288Y-96706332D01*
X147088300Y-96710963D01*
X147092526Y-96715396D01*
X147096959Y-96719622D01*
X147101590Y-96723634D01*
X147106412Y-96727423D01*
X147111416Y-96730982D01*
X147116595Y-96734302D01*
X147121940Y-96737375D01*
X147127443Y-96740194D01*
X147133097Y-96742750D01*
X147138893Y-96745036D01*
X147144823Y-96747042D01*
X147150879Y-96748762D01*
X147157054Y-96750188D01*
X147163339Y-96751310D01*
X147169726Y-96752122D01*
X147176208Y-96752615D01*
X147182775Y-96752781D01*
X147240602Y-96752781D01*
X147247171Y-96752615D01*
X147253654Y-96752122D01*
X147260042Y-96751310D01*
X147266328Y-96750188D01*
X147272503Y-96748762D01*
X147278560Y-96747042D01*
X147284491Y-96745036D01*
X147290287Y-96742750D01*
X147295941Y-96740194D01*
X147301445Y-96737375D01*
X147306790Y-96734302D01*
X147311968Y-96730982D01*
X147316972Y-96727423D01*
X147321794Y-96723634D01*
X147326425Y-96719622D01*
X147330857Y-96715396D01*
X147335083Y-96710963D01*
X147339095Y-96706332D01*
X147342884Y-96701510D01*
X147346442Y-96696506D01*
X147349762Y-96691327D01*
X147352835Y-96685982D01*
X147355653Y-96680479D01*
X147358209Y-96674825D01*
X147360494Y-96669029D01*
X147362500Y-96663099D01*
X147364220Y-96657043D01*
X147365645Y-96650868D01*
X147366767Y-96644583D01*
X147367579Y-96638196D01*
X147368072Y-96631714D01*
X147368238Y-96625147D01*
X147368238Y-95967400D01*
X147994446Y-95967400D01*
X147998341Y-95967301D01*
X148002184Y-95967009D01*
X148005971Y-95966528D01*
X148009697Y-95965862D01*
X148013358Y-95965017D01*
X148016949Y-95963998D01*
X148020464Y-95962808D01*
X148023900Y-95961453D01*
X148027251Y-95959938D01*
X148030513Y-95958267D01*
X148033681Y-95956445D01*
X148036751Y-95954477D01*
X148039716Y-95952367D01*
X148042574Y-95950121D01*
X148045319Y-95947743D01*
X148047945Y-95945238D01*
X148050450Y-95942611D01*
X148052827Y-95939866D01*
X148055072Y-95937008D01*
X148057181Y-95934042D01*
X148059148Y-95930972D01*
X148060969Y-95927804D01*
X148062639Y-95924542D01*
X148064154Y-95921192D01*
X148065508Y-95917756D01*
X148066697Y-95914242D01*
X148067716Y-95910652D01*
X148068560Y-95906993D01*
X148069225Y-95903268D01*
X148069706Y-95899483D01*
X148069998Y-95895642D01*
X148070096Y-95891750D01*
X148070096Y-93484747D01*
X148069998Y-93480855D01*
X148069706Y-93477015D01*
X148069225Y-93473230D01*
X148068560Y-93469505D01*
X148067716Y-93465846D01*
X148066697Y-93462257D01*
X148065508Y-93458743D01*
X148064154Y-93455308D01*
X148062639Y-93451958D01*
X148060969Y-93448696D01*
X148059148Y-93445529D01*
X148057181Y-93442460D01*
X148055072Y-93439495D01*
X148052827Y-93436637D01*
X148050450Y-93433893D01*
X148047945Y-93431266D01*
X148045319Y-93428761D01*
X148042574Y-93426384D01*
X148039716Y-93424139D01*
X148036751Y-93422030D01*
X148033681Y-93420062D01*
X148030513Y-93418241D01*
X148027251Y-93416570D01*
X148023900Y-93415056D01*
X148020464Y-93413701D01*
X148016949Y-93412512D01*
X148013358Y-93411493D01*
X148009697Y-93410648D01*
X148005971Y-93409983D01*
X148002184Y-93409502D01*
X147998341Y-93409210D01*
X147994446Y-93409111D01*
X147368238Y-93409111D01*
X147368238Y-92751351D01*
X147368072Y-92744782D01*
X147367579Y-92738299D01*
X147366767Y-92731911D01*
X147365645Y-92725625D01*
X147364220Y-92719450D01*
X147362500Y-92713393D01*
X147360494Y-92707462D01*
X147358209Y-92701666D01*
X147355653Y-92696012D01*
X147352835Y-92690508D01*
X147349762Y-92685163D01*
X147346442Y-92679985D01*
X147342884Y-92674981D01*
X147339095Y-92670159D01*
X147335083Y-92665528D01*
X147330857Y-92661096D01*
X147326425Y-92656870D01*
X147321794Y-92652859D01*
X147316972Y-92649070D01*
X147311968Y-92645511D01*
X147306790Y-92642192D01*
X147301445Y-92639119D01*
X147295941Y-92636300D01*
X147290287Y-92633745D01*
X147284491Y-92631460D01*
X147278560Y-92629453D01*
X147272503Y-92627734D01*
X147266328Y-92626309D01*
X147260042Y-92625186D01*
X147253654Y-92624375D01*
X147247171Y-92623882D01*
X147240602Y-92623716D01*
X147182775Y-92623716D01*
X147176208Y-92623882D01*
X147169726Y-92624375D01*
X147163339Y-92625186D01*
X147157054Y-92626309D01*
X147150879Y-92627734D01*
X147144823Y-92629453D01*
X147138893Y-92631460D01*
X147133097Y-92633745D01*
X147127443Y-92636300D01*
X147121940Y-92639119D01*
X147116595Y-92642192D01*
X147111416Y-92645511D01*
X147106412Y-92649070D01*
X147101590Y-92652859D01*
X147096959Y-92656870D01*
X147092526Y-92661096D01*
X147088300Y-92665528D01*
X147084288Y-92670159D01*
X147080499Y-92674981D01*
X147076940Y-92679985D01*
X147073620Y-92685163D01*
X147070546Y-92690508D01*
X147067728Y-92696012D01*
X147065171Y-92701666D01*
X147062886Y-92707462D01*
X147060879Y-92713393D01*
X147059159Y-92719450D01*
X147057734Y-92725625D01*
X147056611Y-92731911D01*
X147055799Y-92738299D01*
X147055306Y-92744782D01*
X147055140Y-92751351D01*
X147055140Y-93409111D01*
X146331085Y-93409111D01*
X146331085Y-92751351D01*
X146330919Y-92744782D01*
X146330426Y-92738299D01*
X146329615Y-92731911D01*
X146328492Y-92725625D01*
X146327067Y-92719450D01*
X146325348Y-92713393D01*
X146323341Y-92707462D01*
X146321056Y-92701666D01*
X146318500Y-92696012D01*
X146315682Y-92690508D01*
X146312609Y-92685163D01*
X146309289Y-92679985D01*
X146305731Y-92674981D01*
X146301942Y-92670159D01*
X146297931Y-92665528D01*
X146293705Y-92661096D01*
X146289272Y-92656870D01*
X146284641Y-92652859D01*
X146279820Y-92649070D01*
X146274816Y-92645511D01*
X146269637Y-92642192D01*
X146264292Y-92639119D01*
X146258789Y-92636300D01*
X146253135Y-92633745D01*
X146247339Y-92631460D01*
X146241408Y-92629453D01*
X146235351Y-92627734D01*
X146229176Y-92626309D01*
X146222890Y-92625186D01*
X146216502Y-92624375D01*
X146210019Y-92623882D01*
X146203450Y-92623716D01*
X146145623Y-92623716D01*
X146139056Y-92623882D01*
X146132574Y-92624375D01*
X146126187Y-92625186D01*
X146119902Y-92626309D01*
X146113727Y-92627734D01*
X146107670Y-92629453D01*
X146101740Y-92631460D01*
X146095944Y-92633745D01*
X146090290Y-92636300D01*
X146084787Y-92639119D01*
X146079442Y-92642192D01*
X146074264Y-92645511D01*
X146069259Y-92649070D01*
X146064438Y-92652859D01*
X146059806Y-92656870D01*
X146055373Y-92661096D01*
X146051147Y-92665528D01*
X146047135Y-92670159D01*
X146043346Y-92674981D01*
X146039787Y-92679985D01*
X146036467Y-92685163D01*
X146033394Y-92690508D01*
X146030575Y-92696012D01*
X146028019Y-92701666D01*
X146025733Y-92707462D01*
X146023726Y-92713393D01*
X146022006Y-92719450D01*
X146020581Y-92725625D01*
X146019458Y-92731911D01*
X146018647Y-92738299D01*
X146018154Y-92744782D01*
X146017988Y-92751351D01*
X146017988Y-93409111D01*
X145293947Y-93409111D01*
X145293947Y-92751351D01*
X145293781Y-92744782D01*
X145293288Y-92738299D01*
X145292476Y-92731911D01*
X145291353Y-92725625D01*
X145289928Y-92719450D01*
X145288208Y-92713393D01*
X145286201Y-92707462D01*
X145283916Y-92701666D01*
X145281359Y-92696012D01*
X145278540Y-92690508D01*
X145275467Y-92685163D01*
X145272147Y-92679985D01*
X145268588Y-92674981D01*
X145264798Y-92670159D01*
X145260786Y-92665528D01*
X145256560Y-92661096D01*
X145252126Y-92656870D01*
X145247495Y-92652859D01*
X145242673Y-92649070D01*
X145237668Y-92645511D01*
X145232489Y-92642192D01*
X145227143Y-92639119D01*
X145221639Y-92636300D01*
X145215985Y-92633745D01*
X145210188Y-92631460D01*
X145204257Y-92629453D01*
X145198200Y-92627734D01*
X145192024Y-92626309D01*
X145185738Y-92625186D01*
X145179349Y-92624375D01*
X145172867Y-92623882D01*
X145166298Y-92623716D01*
X145108456Y-92623716D01*
X145101888Y-92623882D01*
X145095405Y-92624375D01*
X145089017Y-92625186D01*
X145082731Y-92626309D01*
X145076556Y-92627734D01*
X145070499Y-92629453D01*
X145064568Y-92631460D01*
X145058772Y-92633745D01*
X145053118Y-92636300D01*
X145047614Y-92639119D01*
X145042269Y-92642192D01*
X145037091Y-92645511D01*
X145032087Y-92649070D01*
X145027265Y-92652859D01*
X145022634Y-92656870D01*
X145018202Y-92661096D01*
X145013976Y-92665528D01*
X145009964Y-92670159D01*
X145006175Y-92674981D01*
X145002617Y-92679985D01*
X144999298Y-92685163D01*
X144996224Y-92690508D01*
X144993406Y-92696012D01*
X144990850Y-92701666D01*
X144988565Y-92707462D01*
X144986559Y-92713393D01*
X144984839Y-92719450D01*
X144983414Y-92725625D01*
X144982292Y-92731911D01*
X144981480Y-92738299D01*
X144980987Y-92744782D01*
X144980821Y-92751351D01*
X144980821Y-93409111D01*
X144256780Y-93409111D01*
X144256780Y-92751351D01*
X144256614Y-92744782D01*
X144256121Y-92738299D01*
X144255310Y-92731911D01*
X144254187Y-92725625D01*
X144252762Y-92719450D01*
X144251042Y-92713393D01*
X144249035Y-92707462D01*
X144246749Y-92701666D01*
X144244193Y-92696012D01*
X144241374Y-92690508D01*
X144238301Y-92685163D01*
X144234981Y-92679985D01*
X144231422Y-92674981D01*
X144227633Y-92670159D01*
X144223621Y-92665528D01*
X144219395Y-92661096D01*
X144214962Y-92656870D01*
X144210331Y-92652859D01*
X144205509Y-92649070D01*
X144200505Y-92645511D01*
X144195326Y-92642192D01*
X144189981Y-92639119D01*
X144184478Y-92636300D01*
X144178824Y-92633745D01*
X144173028Y-92631460D01*
X144167098Y-92629453D01*
X144161041Y-92627734D01*
X144154866Y-92626309D01*
X144148581Y-92625186D01*
X144142194Y-92624375D01*
X144135713Y-92623882D01*
X144129145Y-92623716D01*
X144071304Y-92623716D01*
X144064735Y-92623882D01*
X144058253Y-92624375D01*
X144051865Y-92625186D01*
X144045579Y-92626309D01*
X144039403Y-92627734D01*
X144033346Y-92629453D01*
X144027416Y-92631460D01*
X144021619Y-92633745D01*
X144015965Y-92636300D01*
X144010462Y-92639119D01*
X144005117Y-92642192D01*
X143999938Y-92645511D01*
X143994934Y-92649070D01*
X143990113Y-92652859D01*
X143985482Y-92656870D01*
X143981049Y-92661096D01*
X143976823Y-92665528D01*
X143972812Y-92670159D01*
X143969023Y-92674981D01*
X143965465Y-92679985D01*
X143962145Y-92685163D01*
X143959072Y-92690508D01*
X143956254Y-92696012D01*
X143953698Y-92701666D01*
X143951413Y-92707462D01*
X143949406Y-92713393D01*
X143947687Y-92719450D01*
X143946262Y-92725625D01*
X143945139Y-92731911D01*
X143944328Y-92738299D01*
X143943835Y-92744782D01*
X143943669Y-92751351D01*
X143943669Y-93409111D01*
X143317460Y-93409111D01*
X143313568Y-93409210D01*
X143309727Y-93409502D01*
X143305942Y-93409983D01*
X143302218Y-93410648D01*
X143298558Y-93411493D01*
X143294969Y-93412512D01*
X143291454Y-93413701D01*
X143288019Y-93415056D01*
X143284668Y-93416570D01*
X143281406Y-93418241D01*
X143278238Y-93420062D01*
X143275169Y-93422030D01*
X143272203Y-93424139D01*
X143269345Y-93426384D01*
X143266600Y-93428761D01*
X143263972Y-93431266D01*
X143261467Y-93433893D01*
X143259089Y-93436637D01*
X143256843Y-93439495D01*
X143254733Y-93442460D01*
X143252765Y-93445529D01*
X143250943Y-93448696D01*
X143249272Y-93451958D01*
X143247757Y-93455308D01*
X143246402Y-93458743D01*
X143245213Y-93462257D01*
X143244193Y-93465846D01*
X143243348Y-93469505D01*
X143242683Y-93473230D01*
X143242201Y-93477015D01*
X143241909Y-93480855D01*
X143241811Y-93484747D01*
X143241811Y-95891750D01*
X142373483Y-95891750D01*
X142373483Y-92809643D01*
X142373547Y-92807735D01*
G37*
X142373547Y-92807735D02*
X142373735Y-92805850D01*
X142374046Y-92803994D01*
X142374475Y-92802172D01*
X142375020Y-92800388D01*
X142375679Y-92798649D01*
X142376447Y-92796959D01*
X142377322Y-92795324D01*
X142378300Y-92793749D01*
X142379380Y-92792239D01*
X142380557Y-92790799D01*
X142381830Y-92789434D01*
X142383194Y-92788151D01*
X142384646Y-92786953D01*
X142386185Y-92785846D01*
X142387806Y-92784836D01*
X145641631Y-90906239D01*
X145670276Y-90906239D01*
X148924115Y-92784836D01*
X148924934Y-92785329D01*
X148925734Y-92785846D01*
X148926513Y-92786388D01*
X148927271Y-92786953D01*
X148928007Y-92787541D01*
X148928722Y-92788151D01*
X148929415Y-92788782D01*
X148930085Y-92789434D01*
X148930733Y-92790107D01*
X148931357Y-92790799D01*
X148931958Y-92791510D01*
X148932535Y-92792239D01*
X148933087Y-92792985D01*
X148933615Y-92793749D01*
X148934117Y-92794529D01*
X148934594Y-92795324D01*
X148935045Y-92796135D01*
X148935470Y-92796959D01*
X148935868Y-92797798D01*
X148936239Y-92798649D01*
X148936582Y-92799513D01*
X148936898Y-92800388D01*
X148937185Y-92801275D01*
X148937444Y-92802172D01*
X148937674Y-92803078D01*
X148937874Y-92803994D01*
X148938045Y-92804918D01*
X148938185Y-92805850D01*
X148938295Y-92806789D01*
X148938374Y-92807735D01*
X148938421Y-92808687D01*
X148938437Y-92809643D01*
X148938437Y-96566853D01*
X148938374Y-96568762D01*
X148938185Y-96570646D01*
X148937874Y-96572503D01*
X148937444Y-96574325D01*
X148936898Y-96576109D01*
X148936239Y-96577848D01*
X148935470Y-96579538D01*
X148934594Y-96581173D01*
X148933615Y-96582748D01*
X148932535Y-96584258D01*
X148931357Y-96585698D01*
X148930085Y-96587062D01*
X148928722Y-96588346D01*
X148927271Y-96589544D01*
X148925734Y-96590651D01*
X148924115Y-96591661D01*
X145670276Y-98470258D01*
X145669439Y-98470723D01*
X145668591Y-98471157D01*
X145667732Y-98471561D01*
X145666863Y-98471936D01*
X145665986Y-98472281D01*
X145665099Y-98472596D01*
X145664206Y-98472881D01*
X145663305Y-98473136D01*
X145662399Y-98473361D01*
X145661487Y-98473556D01*
X145660571Y-98473722D01*
X145659652Y-98473857D01*
X145658730Y-98473962D01*
X145657805Y-98474037D01*
X145656880Y-98474083D01*
X145655954Y-98474098D01*
X145655025Y-98474083D01*
X145654097Y-98474037D01*
X145653171Y-98473962D01*
X145652247Y-98473857D01*
X145651326Y-98473722D01*
X145650410Y-98473556D01*
X145649497Y-98473361D01*
X145648591Y-98473136D01*
X145647691Y-98472881D01*
X145646797Y-98472596D01*
X145645912Y-98472281D01*
X145645035Y-98471936D01*
X145644168Y-98471561D01*
X145643311Y-98471157D01*
X145642465Y-98470723D01*
X145641631Y-98470258D01*
X142387806Y-96591661D01*
X142386985Y-96591168D01*
X142386185Y-96590651D01*
X142385405Y-96590109D01*
X142384646Y-96589544D01*
X142383909Y-96588956D01*
X142383194Y-96588346D01*
X142382500Y-96587715D01*
X142381830Y-96587062D01*
X142381182Y-96586390D01*
X142380557Y-96585698D01*
X142379957Y-96584987D01*
X142379380Y-96584258D01*
X142378828Y-96583511D01*
X142378300Y-96582748D01*
X142377798Y-96581968D01*
X142377322Y-96581173D01*
X142376871Y-96580362D01*
X142376447Y-96579538D01*
X142376049Y-96578699D01*
X142375679Y-96577848D01*
X142375336Y-96576984D01*
X142375020Y-96576109D01*
X142374733Y-96575222D01*
X142374475Y-96574325D01*
X142374246Y-96573419D01*
X142374046Y-96572503D01*
X142373876Y-96571579D01*
X142373735Y-96570646D01*
X142373626Y-96569707D01*
X142373547Y-96568762D01*
X142373499Y-96567810D01*
X142373483Y-96566853D01*
X142373483Y-95891750D01*
X143241811Y-95891750D01*
X143241909Y-95895642D01*
X143242201Y-95899483D01*
X143242683Y-95903268D01*
X143243348Y-95906993D01*
X143244193Y-95910652D01*
X143245213Y-95914242D01*
X143246402Y-95917756D01*
X143247757Y-95921192D01*
X143249272Y-95924542D01*
X143250943Y-95927804D01*
X143252765Y-95930972D01*
X143254733Y-95934042D01*
X143256843Y-95937008D01*
X143259089Y-95939866D01*
X143261467Y-95942611D01*
X143263972Y-95945238D01*
X143266600Y-95947743D01*
X143269345Y-95950121D01*
X143272203Y-95952367D01*
X143275169Y-95954477D01*
X143278238Y-95956445D01*
X143281406Y-95958267D01*
X143284668Y-95959938D01*
X143288019Y-95961453D01*
X143291454Y-95962808D01*
X143294969Y-95963998D01*
X143298558Y-95965017D01*
X143302218Y-95965862D01*
X143305942Y-95966528D01*
X143309727Y-95967009D01*
X143313568Y-95967301D01*
X143317460Y-95967400D01*
X143943669Y-95967400D01*
X143943669Y-96625147D01*
X143943835Y-96631714D01*
X143944328Y-96638196D01*
X143945139Y-96644583D01*
X143946262Y-96650868D01*
X143947687Y-96657043D01*
X143949406Y-96663099D01*
X143951413Y-96669029D01*
X143953698Y-96674825D01*
X143956254Y-96680479D01*
X143959072Y-96685982D01*
X143962145Y-96691327D01*
X143965465Y-96696506D01*
X143969023Y-96701510D01*
X143972812Y-96706332D01*
X143976823Y-96710963D01*
X143981049Y-96715396D01*
X143985482Y-96719622D01*
X143990113Y-96723634D01*
X143994934Y-96727423D01*
X143999938Y-96730982D01*
X144005117Y-96734302D01*
X144010462Y-96737375D01*
X144015965Y-96740194D01*
X144021619Y-96742750D01*
X144027416Y-96745036D01*
X144033346Y-96747042D01*
X144039403Y-96748762D01*
X144045579Y-96750188D01*
X144051865Y-96751310D01*
X144058253Y-96752122D01*
X144064735Y-96752615D01*
X144071304Y-96752781D01*
X144129145Y-96752781D01*
X144135713Y-96752615D01*
X144142194Y-96752122D01*
X144148581Y-96751310D01*
X144154866Y-96750188D01*
X144161041Y-96748762D01*
X144167098Y-96747042D01*
X144173028Y-96745036D01*
X144178824Y-96742750D01*
X144184478Y-96740194D01*
X144189981Y-96737375D01*
X144195326Y-96734302D01*
X144200505Y-96730982D01*
X144205509Y-96727423D01*
X144210331Y-96723634D01*
X144214962Y-96719622D01*
X144219395Y-96715396D01*
X144223621Y-96710963D01*
X144227633Y-96706332D01*
X144231422Y-96701510D01*
X144234981Y-96696506D01*
X144238301Y-96691327D01*
X144241374Y-96685982D01*
X144244193Y-96680479D01*
X144246749Y-96674825D01*
X144249035Y-96669029D01*
X144251042Y-96663099D01*
X144252762Y-96657043D01*
X144254187Y-96650868D01*
X144255310Y-96644583D01*
X144256121Y-96638196D01*
X144256614Y-96631714D01*
X144256780Y-96625147D01*
X144256780Y-95967400D01*
X144980821Y-95967400D01*
X144980821Y-96625147D01*
X144980987Y-96631714D01*
X144981480Y-96638196D01*
X144982292Y-96644583D01*
X144983414Y-96650868D01*
X144984839Y-96657043D01*
X144986559Y-96663099D01*
X144988565Y-96669029D01*
X144990850Y-96674825D01*
X144993406Y-96680479D01*
X144996224Y-96685982D01*
X144999298Y-96691327D01*
X145002617Y-96696506D01*
X145006175Y-96701510D01*
X145009964Y-96706332D01*
X145013976Y-96710963D01*
X145018202Y-96715396D01*
X145022634Y-96719622D01*
X145027265Y-96723634D01*
X145032087Y-96727423D01*
X145037091Y-96730982D01*
X145042269Y-96734302D01*
X145047614Y-96737375D01*
X145053118Y-96740194D01*
X145058772Y-96742750D01*
X145064568Y-96745036D01*
X145070499Y-96747042D01*
X145076556Y-96748762D01*
X145082731Y-96750188D01*
X145089017Y-96751310D01*
X145095405Y-96752122D01*
X145101888Y-96752615D01*
X145108456Y-96752781D01*
X145166298Y-96752781D01*
X145172867Y-96752615D01*
X145179349Y-96752122D01*
X145185738Y-96751310D01*
X145192024Y-96750188D01*
X145198200Y-96748762D01*
X145204257Y-96747042D01*
X145210188Y-96745036D01*
X145215985Y-96742750D01*
X145221639Y-96740194D01*
X145227143Y-96737375D01*
X145232489Y-96734302D01*
X145237668Y-96730982D01*
X145242673Y-96727423D01*
X145247495Y-96723634D01*
X145252126Y-96719622D01*
X145256560Y-96715396D01*
X145260786Y-96710963D01*
X145264798Y-96706332D01*
X145268588Y-96701510D01*
X145272147Y-96696506D01*
X145275467Y-96691327D01*
X145278540Y-96685982D01*
X145281359Y-96680479D01*
X145283916Y-96674825D01*
X145286201Y-96669029D01*
X145288208Y-96663099D01*
X145289928Y-96657043D01*
X145291353Y-96650868D01*
X145292476Y-96644583D01*
X145293288Y-96638196D01*
X145293781Y-96631714D01*
X145293947Y-96625147D01*
X145293947Y-95967400D01*
X146017988Y-95967400D01*
X146017988Y-96625147D01*
X146018154Y-96631714D01*
X146018647Y-96638196D01*
X146019458Y-96644583D01*
X146020581Y-96650868D01*
X146022006Y-96657043D01*
X146023726Y-96663099D01*
X146025733Y-96669029D01*
X146028019Y-96674825D01*
X146030575Y-96680479D01*
X146033394Y-96685982D01*
X146036467Y-96691327D01*
X146039787Y-96696506D01*
X146043346Y-96701510D01*
X146047135Y-96706332D01*
X146051147Y-96710963D01*
X146055373Y-96715396D01*
X146059806Y-96719622D01*
X146064438Y-96723634D01*
X146069259Y-96727423D01*
X146074264Y-96730982D01*
X146079442Y-96734302D01*
X146084787Y-96737375D01*
X146090290Y-96740194D01*
X146095944Y-96742750D01*
X146101740Y-96745036D01*
X146107670Y-96747042D01*
X146113727Y-96748762D01*
X146119902Y-96750188D01*
X146126187Y-96751310D01*
X146132574Y-96752122D01*
X146139056Y-96752615D01*
X146145623Y-96752781D01*
X146203450Y-96752781D01*
X146210019Y-96752615D01*
X146216502Y-96752122D01*
X146222890Y-96751310D01*
X146229176Y-96750188D01*
X146235351Y-96748762D01*
X146241408Y-96747042D01*
X146247339Y-96745036D01*
X146253135Y-96742750D01*
X146258789Y-96740194D01*
X146264292Y-96737375D01*
X146269637Y-96734302D01*
X146274816Y-96730982D01*
X146279820Y-96727423D01*
X146284641Y-96723634D01*
X146289272Y-96719622D01*
X146293705Y-96715396D01*
X146297931Y-96710963D01*
X146301942Y-96706332D01*
X146305731Y-96701510D01*
X146309289Y-96696506D01*
X146312609Y-96691327D01*
X146315682Y-96685982D01*
X146318500Y-96680479D01*
X146321056Y-96674825D01*
X146323341Y-96669029D01*
X146325348Y-96663099D01*
X146327067Y-96657043D01*
X146328492Y-96650868D01*
X146329615Y-96644583D01*
X146330426Y-96638196D01*
X146330919Y-96631714D01*
X146331085Y-96625147D01*
X146331085Y-95967400D01*
X147055140Y-95967400D01*
X147055140Y-96625147D01*
X147055306Y-96631714D01*
X147055799Y-96638196D01*
X147056611Y-96644583D01*
X147057734Y-96650868D01*
X147059159Y-96657043D01*
X147060879Y-96663099D01*
X147062886Y-96669029D01*
X147065171Y-96674825D01*
X147067728Y-96680479D01*
X147070546Y-96685982D01*
X147073620Y-96691327D01*
X147076940Y-96696506D01*
X147080499Y-96701510D01*
X147084288Y-96706332D01*
X147088300Y-96710963D01*
X147092526Y-96715396D01*
X147096959Y-96719622D01*
X147101590Y-96723634D01*
X147106412Y-96727423D01*
X147111416Y-96730982D01*
X147116595Y-96734302D01*
X147121940Y-96737375D01*
X147127443Y-96740194D01*
X147133097Y-96742750D01*
X147138893Y-96745036D01*
X147144823Y-96747042D01*
X147150879Y-96748762D01*
X147157054Y-96750188D01*
X147163339Y-96751310D01*
X147169726Y-96752122D01*
X147176208Y-96752615D01*
X147182775Y-96752781D01*
X147240602Y-96752781D01*
X147247171Y-96752615D01*
X147253654Y-96752122D01*
X147260042Y-96751310D01*
X147266328Y-96750188D01*
X147272503Y-96748762D01*
X147278560Y-96747042D01*
X147284491Y-96745036D01*
X147290287Y-96742750D01*
X147295941Y-96740194D01*
X147301445Y-96737375D01*
X147306790Y-96734302D01*
X147311968Y-96730982D01*
X147316972Y-96727423D01*
X147321794Y-96723634D01*
X147326425Y-96719622D01*
X147330857Y-96715396D01*
X147335083Y-96710963D01*
X147339095Y-96706332D01*
X147342884Y-96701510D01*
X147346442Y-96696506D01*
X147349762Y-96691327D01*
X147352835Y-96685982D01*
X147355653Y-96680479D01*
X147358209Y-96674825D01*
X147360494Y-96669029D01*
X147362500Y-96663099D01*
X147364220Y-96657043D01*
X147365645Y-96650868D01*
X147366767Y-96644583D01*
X147367579Y-96638196D01*
X147368072Y-96631714D01*
X147368238Y-96625147D01*
X147368238Y-95967400D01*
X147994446Y-95967400D01*
X147998341Y-95967301D01*
X148002184Y-95967009D01*
X148005971Y-95966528D01*
X148009697Y-95965862D01*
X148013358Y-95965017D01*
X148016949Y-95963998D01*
X148020464Y-95962808D01*
X148023900Y-95961453D01*
X148027251Y-95959938D01*
X148030513Y-95958267D01*
X148033681Y-95956445D01*
X148036751Y-95954477D01*
X148039716Y-95952367D01*
X148042574Y-95950121D01*
X148045319Y-95947743D01*
X148047945Y-95945238D01*
X148050450Y-95942611D01*
X148052827Y-95939866D01*
X148055072Y-95937008D01*
X148057181Y-95934042D01*
X148059148Y-95930972D01*
X148060969Y-95927804D01*
X148062639Y-95924542D01*
X148064154Y-95921192D01*
X148065508Y-95917756D01*
X148066697Y-95914242D01*
X148067716Y-95910652D01*
X148068560Y-95906993D01*
X148069225Y-95903268D01*
X148069706Y-95899483D01*
X148069998Y-95895642D01*
X148070096Y-95891750D01*
X148070096Y-93484747D01*
X148069998Y-93480855D01*
X148069706Y-93477015D01*
X148069225Y-93473230D01*
X148068560Y-93469505D01*
X148067716Y-93465846D01*
X148066697Y-93462257D01*
X148065508Y-93458743D01*
X148064154Y-93455308D01*
X148062639Y-93451958D01*
X148060969Y-93448696D01*
X148059148Y-93445529D01*
X148057181Y-93442460D01*
X148055072Y-93439495D01*
X148052827Y-93436637D01*
X148050450Y-93433893D01*
X148047945Y-93431266D01*
X148045319Y-93428761D01*
X148042574Y-93426384D01*
X148039716Y-93424139D01*
X148036751Y-93422030D01*
X148033681Y-93420062D01*
X148030513Y-93418241D01*
X148027251Y-93416570D01*
X148023900Y-93415056D01*
X148020464Y-93413701D01*
X148016949Y-93412512D01*
X148013358Y-93411493D01*
X148009697Y-93410648D01*
X148005971Y-93409983D01*
X148002184Y-93409502D01*
X147998341Y-93409210D01*
X147994446Y-93409111D01*
X147368238Y-93409111D01*
X147368238Y-92751351D01*
X147368072Y-92744782D01*
X147367579Y-92738299D01*
X147366767Y-92731911D01*
X147365645Y-92725625D01*
X147364220Y-92719450D01*
X147362500Y-92713393D01*
X147360494Y-92707462D01*
X147358209Y-92701666D01*
X147355653Y-92696012D01*
X147352835Y-92690508D01*
X147349762Y-92685163D01*
X147346442Y-92679985D01*
X147342884Y-92674981D01*
X147339095Y-92670159D01*
X147335083Y-92665528D01*
X147330857Y-92661096D01*
X147326425Y-92656870D01*
X147321794Y-92652859D01*
X147316972Y-92649070D01*
X147311968Y-92645511D01*
X147306790Y-92642192D01*
X147301445Y-92639119D01*
X147295941Y-92636300D01*
X147290287Y-92633745D01*
X147284491Y-92631460D01*
X147278560Y-92629453D01*
X147272503Y-92627734D01*
X147266328Y-92626309D01*
X147260042Y-92625186D01*
X147253654Y-92624375D01*
X147247171Y-92623882D01*
X147240602Y-92623716D01*
X147182775Y-92623716D01*
X147176208Y-92623882D01*
X147169726Y-92624375D01*
X147163339Y-92625186D01*
X147157054Y-92626309D01*
X147150879Y-92627734D01*
X147144823Y-92629453D01*
X147138893Y-92631460D01*
X147133097Y-92633745D01*
X147127443Y-92636300D01*
X147121940Y-92639119D01*
X147116595Y-92642192D01*
X147111416Y-92645511D01*
X147106412Y-92649070D01*
X147101590Y-92652859D01*
X147096959Y-92656870D01*
X147092526Y-92661096D01*
X147088300Y-92665528D01*
X147084288Y-92670159D01*
X147080499Y-92674981D01*
X147076940Y-92679985D01*
X147073620Y-92685163D01*
X147070546Y-92690508D01*
X147067728Y-92696012D01*
X147065171Y-92701666D01*
X147062886Y-92707462D01*
X147060879Y-92713393D01*
X147059159Y-92719450D01*
X147057734Y-92725625D01*
X147056611Y-92731911D01*
X147055799Y-92738299D01*
X147055306Y-92744782D01*
X147055140Y-92751351D01*
X147055140Y-93409111D01*
X146331085Y-93409111D01*
X146331085Y-92751351D01*
X146330919Y-92744782D01*
X146330426Y-92738299D01*
X146329615Y-92731911D01*
X146328492Y-92725625D01*
X146327067Y-92719450D01*
X146325348Y-92713393D01*
X146323341Y-92707462D01*
X146321056Y-92701666D01*
X146318500Y-92696012D01*
X146315682Y-92690508D01*
X146312609Y-92685163D01*
X146309289Y-92679985D01*
X146305731Y-92674981D01*
X146301942Y-92670159D01*
X146297931Y-92665528D01*
X146293705Y-92661096D01*
X146289272Y-92656870D01*
X146284641Y-92652859D01*
X146279820Y-92649070D01*
X146274816Y-92645511D01*
X146269637Y-92642192D01*
X146264292Y-92639119D01*
X146258789Y-92636300D01*
X146253135Y-92633745D01*
X146247339Y-92631460D01*
X146241408Y-92629453D01*
X146235351Y-92627734D01*
X146229176Y-92626309D01*
X146222890Y-92625186D01*
X146216502Y-92624375D01*
X146210019Y-92623882D01*
X146203450Y-92623716D01*
X146145623Y-92623716D01*
X146139056Y-92623882D01*
X146132574Y-92624375D01*
X146126187Y-92625186D01*
X146119902Y-92626309D01*
X146113727Y-92627734D01*
X146107670Y-92629453D01*
X146101740Y-92631460D01*
X146095944Y-92633745D01*
X146090290Y-92636300D01*
X146084787Y-92639119D01*
X146079442Y-92642192D01*
X146074264Y-92645511D01*
X146069259Y-92649070D01*
X146064438Y-92652859D01*
X146059806Y-92656870D01*
X146055373Y-92661096D01*
X146051147Y-92665528D01*
X146047135Y-92670159D01*
X146043346Y-92674981D01*
X146039787Y-92679985D01*
X146036467Y-92685163D01*
X146033394Y-92690508D01*
X146030575Y-92696012D01*
X146028019Y-92701666D01*
X146025733Y-92707462D01*
X146023726Y-92713393D01*
X146022006Y-92719450D01*
X146020581Y-92725625D01*
X146019458Y-92731911D01*
X146018647Y-92738299D01*
X146018154Y-92744782D01*
X146017988Y-92751351D01*
X146017988Y-93409111D01*
X145293947Y-93409111D01*
X145293947Y-92751351D01*
X145293781Y-92744782D01*
X145293288Y-92738299D01*
X145292476Y-92731911D01*
X145291353Y-92725625D01*
X145289928Y-92719450D01*
X145288208Y-92713393D01*
X145286201Y-92707462D01*
X145283916Y-92701666D01*
X145281359Y-92696012D01*
X145278540Y-92690508D01*
X145275467Y-92685163D01*
X145272147Y-92679985D01*
X145268588Y-92674981D01*
X145264798Y-92670159D01*
X145260786Y-92665528D01*
X145256560Y-92661096D01*
X145252126Y-92656870D01*
X145247495Y-92652859D01*
X145242673Y-92649070D01*
X145237668Y-92645511D01*
X145232489Y-92642192D01*
X145227143Y-92639119D01*
X145221639Y-92636300D01*
X145215985Y-92633745D01*
X145210188Y-92631460D01*
X145204257Y-92629453D01*
X145198200Y-92627734D01*
X145192024Y-92626309D01*
X145185738Y-92625186D01*
X145179349Y-92624375D01*
X145172867Y-92623882D01*
X145166298Y-92623716D01*
X145108456Y-92623716D01*
X145101888Y-92623882D01*
X145095405Y-92624375D01*
X145089017Y-92625186D01*
X145082731Y-92626309D01*
X145076556Y-92627734D01*
X145070499Y-92629453D01*
X145064568Y-92631460D01*
X145058772Y-92633745D01*
X145053118Y-92636300D01*
X145047614Y-92639119D01*
X145042269Y-92642192D01*
X145037091Y-92645511D01*
X145032087Y-92649070D01*
X145027265Y-92652859D01*
X145022634Y-92656870D01*
X145018202Y-92661096D01*
X145013976Y-92665528D01*
X145009964Y-92670159D01*
X145006175Y-92674981D01*
X145002617Y-92679985D01*
X144999298Y-92685163D01*
X144996224Y-92690508D01*
X144993406Y-92696012D01*
X144990850Y-92701666D01*
X144988565Y-92707462D01*
X144986559Y-92713393D01*
X144984839Y-92719450D01*
X144983414Y-92725625D01*
X144982292Y-92731911D01*
X144981480Y-92738299D01*
X144980987Y-92744782D01*
X144980821Y-92751351D01*
X144980821Y-93409111D01*
X144256780Y-93409111D01*
X144256780Y-92751351D01*
X144256614Y-92744782D01*
X144256121Y-92738299D01*
X144255310Y-92731911D01*
X144254187Y-92725625D01*
X144252762Y-92719450D01*
X144251042Y-92713393D01*
X144249035Y-92707462D01*
X144246749Y-92701666D01*
X144244193Y-92696012D01*
X144241374Y-92690508D01*
X144238301Y-92685163D01*
X144234981Y-92679985D01*
X144231422Y-92674981D01*
X144227633Y-92670159D01*
X144223621Y-92665528D01*
X144219395Y-92661096D01*
X144214962Y-92656870D01*
X144210331Y-92652859D01*
X144205509Y-92649070D01*
X144200505Y-92645511D01*
X144195326Y-92642192D01*
X144189981Y-92639119D01*
X144184478Y-92636300D01*
X144178824Y-92633745D01*
X144173028Y-92631460D01*
X144167098Y-92629453D01*
X144161041Y-92627734D01*
X144154866Y-92626309D01*
X144148581Y-92625186D01*
X144142194Y-92624375D01*
X144135713Y-92623882D01*
X144129145Y-92623716D01*
X144071304Y-92623716D01*
X144064735Y-92623882D01*
X144058253Y-92624375D01*
X144051865Y-92625186D01*
X144045579Y-92626309D01*
X144039403Y-92627734D01*
X144033346Y-92629453D01*
X144027416Y-92631460D01*
X144021619Y-92633745D01*
X144015965Y-92636300D01*
X144010462Y-92639119D01*
X144005117Y-92642192D01*
X143999938Y-92645511D01*
X143994934Y-92649070D01*
X143990113Y-92652859D01*
X143985482Y-92656870D01*
X143981049Y-92661096D01*
X143976823Y-92665528D01*
X143972812Y-92670159D01*
X143969023Y-92674981D01*
X143965465Y-92679985D01*
X143962145Y-92685163D01*
X143959072Y-92690508D01*
X143956254Y-92696012D01*
X143953698Y-92701666D01*
X143951413Y-92707462D01*
X143949406Y-92713393D01*
X143947687Y-92719450D01*
X143946262Y-92725625D01*
X143945139Y-92731911D01*
X143944328Y-92738299D01*
X143943835Y-92744782D01*
X143943669Y-92751351D01*
X143943669Y-93409111D01*
X143317460Y-93409111D01*
X143313568Y-93409210D01*
X143309727Y-93409502D01*
X143305942Y-93409983D01*
X143302218Y-93410648D01*
X143298558Y-93411493D01*
X143294969Y-93412512D01*
X143291454Y-93413701D01*
X143288019Y-93415056D01*
X143284668Y-93416570D01*
X143281406Y-93418241D01*
X143278238Y-93420062D01*
X143275169Y-93422030D01*
X143272203Y-93424139D01*
X143269345Y-93426384D01*
X143266600Y-93428761D01*
X143263972Y-93431266D01*
X143261467Y-93433893D01*
X143259089Y-93436637D01*
X143256843Y-93439495D01*
X143254733Y-93442460D01*
X143252765Y-93445529D01*
X143250943Y-93448696D01*
X143249272Y-93451958D01*
X143247757Y-93455308D01*
X143246402Y-93458743D01*
X143245213Y-93462257D01*
X143244193Y-93465846D01*
X143243348Y-93469505D01*
X143242683Y-93473230D01*
X143242201Y-93477015D01*
X143241909Y-93480855D01*
X143241811Y-93484747D01*
X143241811Y-95891750D01*
X142373483Y-95891750D01*
X142373483Y-92809643D01*
X142373547Y-92807735D01*
D12*
X140155382Y-137992418D02*
X140155382Y-137230513D01*
X140536334Y-137611465D02*
X139774430Y-137611465D01*
X139536334Y-136278132D02*
X139536334Y-136754323D01*
X140012525Y-136801942D01*
X139964906Y-136754323D01*
X139917287Y-136659084D01*
X139917287Y-136420989D01*
X139964906Y-136325751D01*
X140012525Y-136278132D01*
X140107763Y-136230513D01*
X140345858Y-136230513D01*
X140441096Y-136278132D01*
X140488715Y-136325751D01*
X140536334Y-136420989D01*
X140536334Y-136659084D01*
X140488715Y-136754323D01*
X140441096Y-136801942D01*
X139536334Y-135944799D02*
X140536334Y-135611465D01*
X139536334Y-135278132D01*
X193467966Y-89768445D02*
X192467966Y-89768445D01*
X193467966Y-89197016D01*
X192467966Y-89197016D01*
X192944157Y-88720826D02*
X192944157Y-88387492D01*
X193467966Y-88244635D02*
X193467966Y-88720826D01*
X192467966Y-88720826D01*
X192467966Y-88244635D01*
X192467966Y-87625588D02*
X192467966Y-87435111D01*
X192515586Y-87339873D01*
X192610824Y-87244635D01*
X192801300Y-87197016D01*
X193134633Y-87197016D01*
X193325109Y-87244635D01*
X193420347Y-87339873D01*
X193467966Y-87435111D01*
X193467966Y-87625588D01*
X193420347Y-87720826D01*
X193325109Y-87816064D01*
X193134633Y-87863683D01*
X192801300Y-87863683D01*
X192610824Y-87816064D01*
X192515586Y-87720826D01*
X192467966Y-87625588D01*
X193467966Y-86768445D02*
X192467966Y-86768445D01*
X192467966Y-86387492D01*
X192515586Y-86292254D01*
X192563205Y-86244635D01*
X192658443Y-86197016D01*
X192801300Y-86197016D01*
X192896538Y-86244635D01*
X192944157Y-86292254D01*
X192991776Y-86387492D01*
X192991776Y-86768445D01*
X193467966Y-85768445D02*
X192467966Y-85768445D01*
X192467966Y-85387492D02*
X193467966Y-84720826D01*
X192467966Y-84720826D02*
X193467966Y-85387492D01*
X192944157Y-84339873D02*
X192944157Y-84006540D01*
X193467966Y-83863683D02*
X193467966Y-84339873D01*
X192467966Y-84339873D01*
X192467966Y-83863683D01*
X193467966Y-82958921D02*
X193467966Y-83435111D01*
X192467966Y-83435111D01*
X192563205Y-81911302D02*
X192515586Y-81863683D01*
X192467966Y-81768445D01*
X192467966Y-81530349D01*
X192515586Y-81435111D01*
X192563205Y-81387492D01*
X192658443Y-81339873D01*
X192753681Y-81339873D01*
X192896538Y-81387492D01*
X193467966Y-81958921D01*
X193467966Y-81339873D01*
X157619047Y-69952380D02*
X158190476Y-69952380D01*
X157904761Y-70952380D02*
X157904761Y-69952380D01*
X158428571Y-69952380D02*
X159095238Y-70952380D01*
X159095238Y-69952380D02*
X158428571Y-70952380D01*
X159523809Y-70190476D02*
X159523809Y-70952380D01*
X159571428Y-70238095D02*
X159571428Y-70904761D01*
X159619047Y-70238095D02*
X159619047Y-70904761D01*
X159666666Y-70285714D02*
X159666666Y-70857142D01*
X159714285Y-70285714D02*
X159714285Y-70857142D01*
X159761904Y-70333333D02*
X159761904Y-70809523D01*
X159809523Y-70333333D02*
X159809523Y-70809523D01*
X159857142Y-70380952D02*
X159857142Y-70761904D01*
X159904761Y-70428571D02*
X159904761Y-70714285D01*
X159952380Y-70428571D02*
X159952380Y-70714285D01*
X160000000Y-70476190D02*
X160000000Y-70666666D01*
X160047619Y-70476190D02*
X160047619Y-70666666D01*
X160095238Y-70571428D02*
X160142857Y-70571428D01*
X160095238Y-70523809D02*
X160095238Y-70619047D01*
X159476190Y-70190476D02*
X160190476Y-70571428D01*
X159476190Y-70952380D01*
X160238095Y-70571428D02*
X159476190Y-71000000D01*
X159476190Y-70142857D01*
X160238095Y-70571428D01*
X180216023Y-134864701D02*
X180168403Y-134959939D01*
X180168403Y-135102797D01*
X180216023Y-135245654D01*
X180311261Y-135340892D01*
X180406499Y-135388511D01*
X180596975Y-135436130D01*
X180739832Y-135436130D01*
X180930308Y-135388511D01*
X181025546Y-135340892D01*
X181120784Y-135245654D01*
X181168403Y-135102797D01*
X181168403Y-135007558D01*
X181120784Y-134864701D01*
X181073165Y-134817082D01*
X180739832Y-134817082D01*
X180739832Y-135007558D01*
X181168403Y-134388511D02*
X180168403Y-134388511D01*
X181168403Y-133817082D01*
X180168403Y-133817082D01*
X181168403Y-133340892D02*
X180168403Y-133340892D01*
X180168403Y-133102797D01*
X180216023Y-132959939D01*
X180311261Y-132864701D01*
X180406499Y-132817082D01*
X180596975Y-132769463D01*
X180739832Y-132769463D01*
X180930308Y-132817082D01*
X181025546Y-132864701D01*
X181120784Y-132959939D01*
X181168403Y-133102797D01*
X181168403Y-133340892D01*
X152411314Y-137518152D02*
X152363694Y-137613390D01*
X152363694Y-137756248D01*
X152411314Y-137899105D01*
X152506552Y-137994343D01*
X152601790Y-138041962D01*
X152792266Y-138089581D01*
X152935123Y-138089581D01*
X153125599Y-138041962D01*
X153220837Y-137994343D01*
X153316075Y-137899105D01*
X153363694Y-137756248D01*
X153363694Y-137661009D01*
X153316075Y-137518152D01*
X153268456Y-137470533D01*
X152935123Y-137470533D01*
X152935123Y-137661009D01*
X153363694Y-137041962D02*
X152363694Y-137041962D01*
X153363694Y-136470533D01*
X152363694Y-136470533D01*
X153363694Y-135994343D02*
X152363694Y-135994343D01*
X152363694Y-135756248D01*
X152411314Y-135613390D01*
X152506552Y-135518152D01*
X152601790Y-135470533D01*
X152792266Y-135422914D01*
X152935123Y-135422914D01*
X153125599Y-135470533D01*
X153220837Y-135518152D01*
X153316075Y-135613390D01*
X153363694Y-135756248D01*
X153363694Y-135994343D01*
D13*
X109928571Y-113821428D02*
X110000000Y-113750000D01*
X110142857Y-113678571D01*
X110500000Y-113678571D01*
X110642857Y-113750000D01*
X110714285Y-113821428D01*
X110785714Y-113964285D01*
X110785714Y-114107142D01*
X110714285Y-114321428D01*
X109857142Y-115178571D01*
X110785714Y-115178571D01*
X111357142Y-114750000D02*
X112071428Y-114750000D01*
X111214285Y-115178571D02*
X111714285Y-113678571D01*
X112214285Y-115178571D01*
D12*
X105214285Y-59452380D02*
X105785714Y-59452380D01*
X105500000Y-60452380D02*
X105500000Y-59452380D01*
X106023809Y-59452380D02*
X106690476Y-60452380D01*
X106690476Y-59452380D02*
X106023809Y-60452380D01*
X107071428Y-60452380D02*
X107071428Y-59452380D01*
X107309523Y-59452380D01*
X107452380Y-59500000D01*
X107547619Y-59595238D01*
X107595238Y-59690476D01*
X107642857Y-59880952D01*
X107642857Y-60023809D01*
X107595238Y-60214285D01*
X107547619Y-60309523D01*
X107452380Y-60404761D01*
X107309523Y-60452380D01*
X107071428Y-60452380D01*
X108261904Y-59452380D02*
X108452380Y-59452380D01*
X108547619Y-59500000D01*
X108642857Y-59595238D01*
X108690476Y-59785714D01*
X108690476Y-60119047D01*
X108642857Y-60309523D01*
X108547619Y-60404761D01*
X108452380Y-60452380D01*
X108261904Y-60452380D01*
X108166666Y-60404761D01*
X108071428Y-60309523D01*
X108023809Y-60119047D01*
X108023809Y-59785714D01*
X108071428Y-59595238D01*
X108166666Y-59500000D01*
X108261904Y-59452380D01*
X99123571Y-125831071D02*
X99171190Y-125688214D01*
X99218809Y-125640595D01*
X99314047Y-125592976D01*
X99456904Y-125592976D01*
X99552142Y-125640595D01*
X99599761Y-125688214D01*
X99647380Y-125783452D01*
X99647380Y-126164404D01*
X98647380Y-126164404D01*
X98647380Y-125831071D01*
X98695000Y-125735833D01*
X98742619Y-125688214D01*
X98837857Y-125640595D01*
X98933095Y-125640595D01*
X99028333Y-125688214D01*
X99075952Y-125735833D01*
X99123571Y-125831071D01*
X99123571Y-126164404D01*
X99599761Y-124783452D02*
X99647380Y-124878690D01*
X99647380Y-125069166D01*
X99599761Y-125164404D01*
X99504523Y-125212023D01*
X99123571Y-125212023D01*
X99028333Y-125164404D01*
X98980714Y-125069166D01*
X98980714Y-124878690D01*
X99028333Y-124783452D01*
X99123571Y-124735833D01*
X99218809Y-124735833D01*
X99314047Y-125212023D01*
X98980714Y-124450119D02*
X98980714Y-124069166D01*
X99647380Y-124307261D02*
X98790238Y-124307261D01*
X98695000Y-124259642D01*
X98647380Y-124164404D01*
X98647380Y-124069166D01*
X99647380Y-123592976D02*
X99599761Y-123688214D01*
X99552142Y-123735833D01*
X99456904Y-123783452D01*
X99171190Y-123783452D01*
X99075952Y-123735833D01*
X99028333Y-123688214D01*
X98980714Y-123592976D01*
X98980714Y-123450119D01*
X99028333Y-123354880D01*
X99075952Y-123307261D01*
X99171190Y-123259642D01*
X99456904Y-123259642D01*
X99552142Y-123307261D01*
X99599761Y-123354880D01*
X99647380Y-123450119D01*
X99647380Y-123592976D01*
X99647380Y-122831071D02*
X98980714Y-122831071D01*
X99171190Y-122831071D02*
X99075952Y-122783452D01*
X99028333Y-122735833D01*
X98980714Y-122640595D01*
X98980714Y-122545357D01*
X99599761Y-121831071D02*
X99647380Y-121926309D01*
X99647380Y-122116785D01*
X99599761Y-122212023D01*
X99504523Y-122259642D01*
X99123571Y-122259642D01*
X99028333Y-122212023D01*
X98980714Y-122116785D01*
X98980714Y-121926309D01*
X99028333Y-121831071D01*
X99123571Y-121783452D01*
X99218809Y-121783452D01*
X99314047Y-122259642D01*
X99599761Y-120164404D02*
X99647380Y-120259642D01*
X99647380Y-120450119D01*
X99599761Y-120545357D01*
X99552142Y-120592976D01*
X99456904Y-120640595D01*
X99171190Y-120640595D01*
X99075952Y-120592976D01*
X99028333Y-120545357D01*
X98980714Y-120450119D01*
X98980714Y-120259642D01*
X99028333Y-120164404D01*
X99647380Y-119592976D02*
X99599761Y-119688214D01*
X99552142Y-119735833D01*
X99456904Y-119783452D01*
X99171190Y-119783452D01*
X99075952Y-119735833D01*
X99028333Y-119688214D01*
X98980714Y-119592976D01*
X98980714Y-119450119D01*
X99028333Y-119354880D01*
X99075952Y-119307261D01*
X99171190Y-119259642D01*
X99456904Y-119259642D01*
X99552142Y-119307261D01*
X99599761Y-119354880D01*
X99647380Y-119450119D01*
X99647380Y-119592976D01*
X98980714Y-118831071D02*
X99647380Y-118831071D01*
X99075952Y-118831071D02*
X99028333Y-118783452D01*
X98980714Y-118688214D01*
X98980714Y-118545357D01*
X99028333Y-118450119D01*
X99123571Y-118402500D01*
X99647380Y-118402500D01*
X98980714Y-117926309D02*
X99647380Y-117926309D01*
X99075952Y-117926309D02*
X99028333Y-117878690D01*
X98980714Y-117783452D01*
X98980714Y-117640595D01*
X99028333Y-117545357D01*
X99123571Y-117497738D01*
X99647380Y-117497738D01*
X99599761Y-116640595D02*
X99647380Y-116735833D01*
X99647380Y-116926309D01*
X99599761Y-117021547D01*
X99504523Y-117069166D01*
X99123571Y-117069166D01*
X99028333Y-117021547D01*
X98980714Y-116926309D01*
X98980714Y-116735833D01*
X99028333Y-116640595D01*
X99123571Y-116592976D01*
X99218809Y-116592976D01*
X99314047Y-117069166D01*
X99599761Y-115735833D02*
X99647380Y-115831071D01*
X99647380Y-116021547D01*
X99599761Y-116116785D01*
X99552142Y-116164404D01*
X99456904Y-116212023D01*
X99171190Y-116212023D01*
X99075952Y-116164404D01*
X99028333Y-116116785D01*
X98980714Y-116021547D01*
X98980714Y-115831071D01*
X99028333Y-115735833D01*
X98980714Y-115450119D02*
X98980714Y-115069166D01*
X98647380Y-115307261D02*
X99504523Y-115307261D01*
X99599761Y-115259642D01*
X99647380Y-115164404D01*
X99647380Y-115069166D01*
X99647380Y-114735833D02*
X98980714Y-114735833D01*
X98647380Y-114735833D02*
X98695000Y-114783452D01*
X98742619Y-114735833D01*
X98695000Y-114688214D01*
X98647380Y-114735833D01*
X98742619Y-114735833D01*
X98980714Y-114259642D02*
X99647380Y-114259642D01*
X99075952Y-114259642D02*
X99028333Y-114212023D01*
X98980714Y-114116785D01*
X98980714Y-113973928D01*
X99028333Y-113878690D01*
X99123571Y-113831071D01*
X99647380Y-113831071D01*
X98980714Y-112926309D02*
X99790238Y-112926309D01*
X99885476Y-112973928D01*
X99933095Y-113021547D01*
X99980714Y-113116785D01*
X99980714Y-113259642D01*
X99933095Y-113354880D01*
X99599761Y-112926309D02*
X99647380Y-113021547D01*
X99647380Y-113212023D01*
X99599761Y-113307261D01*
X99552142Y-113354880D01*
X99456904Y-113402500D01*
X99171190Y-113402500D01*
X99075952Y-113354880D01*
X99028333Y-113307261D01*
X98980714Y-113212023D01*
X98980714Y-113021547D01*
X99028333Y-112926309D01*
X99647380Y-111688214D02*
X98647380Y-111688214D01*
X99028333Y-111688214D02*
X98980714Y-111592976D01*
X98980714Y-111402500D01*
X99028333Y-111307261D01*
X99075952Y-111259642D01*
X99171190Y-111212023D01*
X99456904Y-111212023D01*
X99552142Y-111259642D01*
X99599761Y-111307261D01*
X99647380Y-111402500D01*
X99647380Y-111592976D01*
X99599761Y-111688214D01*
X99647380Y-110354880D02*
X99123571Y-110354880D01*
X99028333Y-110402500D01*
X98980714Y-110497738D01*
X98980714Y-110688214D01*
X99028333Y-110783452D01*
X99599761Y-110354880D02*
X99647380Y-110450119D01*
X99647380Y-110688214D01*
X99599761Y-110783452D01*
X99504523Y-110831071D01*
X99409285Y-110831071D01*
X99314047Y-110783452D01*
X99266428Y-110688214D01*
X99266428Y-110450119D01*
X99218809Y-110354880D01*
X98980714Y-110021547D02*
X98980714Y-109640595D01*
X98647380Y-109878690D02*
X99504523Y-109878690D01*
X99599761Y-109831071D01*
X99647380Y-109735833D01*
X99647380Y-109640595D01*
X98980714Y-109450119D02*
X98980714Y-109069166D01*
X98647380Y-109307261D02*
X99504523Y-109307261D01*
X99599761Y-109259642D01*
X99647380Y-109164404D01*
X99647380Y-109069166D01*
X99599761Y-108354880D02*
X99647380Y-108450119D01*
X99647380Y-108640595D01*
X99599761Y-108735833D01*
X99504523Y-108783452D01*
X99123571Y-108783452D01*
X99028333Y-108735833D01*
X98980714Y-108640595D01*
X98980714Y-108450119D01*
X99028333Y-108354880D01*
X99123571Y-108307261D01*
X99218809Y-108307261D01*
X99314047Y-108783452D01*
X99647380Y-107878690D02*
X98980714Y-107878690D01*
X99171190Y-107878690D02*
X99075952Y-107831071D01*
X99028333Y-107783452D01*
X98980714Y-107688214D01*
X98980714Y-107592976D01*
X98980714Y-107354880D02*
X99647380Y-107116785D01*
X98980714Y-106878690D02*
X99647380Y-107116785D01*
X99885476Y-107212023D01*
X99933095Y-107259642D01*
X99980714Y-107354880D01*
X100971666Y-126212023D02*
X100971666Y-125735833D01*
X101257380Y-126307261D02*
X100257380Y-125973928D01*
X101257380Y-125640595D01*
X101257380Y-124878690D02*
X100257380Y-124878690D01*
X101209761Y-124878690D02*
X101257380Y-124973928D01*
X101257380Y-125164404D01*
X101209761Y-125259642D01*
X101162142Y-125307261D01*
X101066904Y-125354880D01*
X100781190Y-125354880D01*
X100685952Y-125307261D01*
X100638333Y-125259642D01*
X100590714Y-125164404D01*
X100590714Y-124973928D01*
X100638333Y-124878690D01*
X100590714Y-124402500D02*
X101447857Y-124402500D01*
X101543095Y-124450119D01*
X101590714Y-124545357D01*
X101590714Y-124592976D01*
X100257380Y-124402500D02*
X100305000Y-124450119D01*
X100352619Y-124402500D01*
X100305000Y-124354880D01*
X100257380Y-124402500D01*
X100352619Y-124402500D01*
X100590714Y-123497738D02*
X101257380Y-123497738D01*
X100590714Y-123926309D02*
X101114523Y-123926309D01*
X101209761Y-123878690D01*
X101257380Y-123783452D01*
X101257380Y-123640595D01*
X101209761Y-123545357D01*
X101162142Y-123497738D01*
X101209761Y-123069166D02*
X101257380Y-122973928D01*
X101257380Y-122783452D01*
X101209761Y-122688214D01*
X101114523Y-122640595D01*
X101066904Y-122640595D01*
X100971666Y-122688214D01*
X100924047Y-122783452D01*
X100924047Y-122926309D01*
X100876428Y-123021547D01*
X100781190Y-123069166D01*
X100733571Y-123069166D01*
X100638333Y-123021547D01*
X100590714Y-122926309D01*
X100590714Y-122783452D01*
X100638333Y-122688214D01*
X100590714Y-122354880D02*
X100590714Y-121973928D01*
X100257380Y-122212023D02*
X101114523Y-122212023D01*
X101209761Y-122164404D01*
X101257380Y-122069166D01*
X101257380Y-121973928D01*
X100590714Y-121021547D02*
X100590714Y-120640595D01*
X101257380Y-120878690D02*
X100400238Y-120878690D01*
X100305000Y-120831071D01*
X100257380Y-120735833D01*
X100257380Y-120640595D01*
X101257380Y-120164404D02*
X101209761Y-120259642D01*
X101162142Y-120307261D01*
X101066904Y-120354880D01*
X100781190Y-120354880D01*
X100685952Y-120307261D01*
X100638333Y-120259642D01*
X100590714Y-120164404D01*
X100590714Y-120021547D01*
X100638333Y-119926309D01*
X100685952Y-119878690D01*
X100781190Y-119831071D01*
X101066904Y-119831071D01*
X101162142Y-119878690D01*
X101209761Y-119926309D01*
X101257380Y-120021547D01*
X101257380Y-120164404D01*
X101257380Y-119402500D02*
X100590714Y-119402500D01*
X100781190Y-119402500D02*
X100685952Y-119354880D01*
X100638333Y-119307261D01*
X100590714Y-119212023D01*
X100590714Y-119116785D01*
X101257380Y-117497738D02*
X101257380Y-118069166D01*
X101257380Y-117783452D02*
X100257380Y-117783452D01*
X100400238Y-117878690D01*
X100495476Y-117973928D01*
X100543095Y-118069166D01*
X100257380Y-117164404D02*
X100257380Y-116545357D01*
X100638333Y-116878690D01*
X100638333Y-116735833D01*
X100685952Y-116640595D01*
X100733571Y-116592976D01*
X100828809Y-116545357D01*
X101066904Y-116545357D01*
X101162142Y-116592976D01*
X101209761Y-116640595D01*
X101257380Y-116735833D01*
X101257380Y-117021547D01*
X101209761Y-117116785D01*
X101162142Y-117164404D01*
X101162142Y-116116785D02*
X101209761Y-116069166D01*
X101257380Y-116116785D01*
X101209761Y-116164404D01*
X101162142Y-116116785D01*
X101257380Y-116116785D01*
X100257380Y-115735833D02*
X100257380Y-115069166D01*
X101257380Y-115497738D01*
X100257380Y-114212023D02*
X100257380Y-114688214D01*
X100733571Y-114735833D01*
X100685952Y-114688214D01*
X100638333Y-114592976D01*
X100638333Y-114354880D01*
X100685952Y-114259642D01*
X100733571Y-114212023D01*
X100828809Y-114164404D01*
X101066904Y-114164404D01*
X101162142Y-114212023D01*
X101209761Y-114259642D01*
X101257380Y-114354880D01*
X101257380Y-114592976D01*
X101209761Y-114688214D01*
X101162142Y-114735833D01*
X100257380Y-113878690D02*
X101257380Y-113545357D01*
X100257380Y-113212023D01*
X101257380Y-111973928D02*
X101209761Y-112069166D01*
X101162142Y-112116785D01*
X101066904Y-112164404D01*
X100781190Y-112164404D01*
X100685952Y-112116785D01*
X100638333Y-112069166D01*
X100590714Y-111973928D01*
X100590714Y-111831071D01*
X100638333Y-111735833D01*
X100685952Y-111688214D01*
X100781190Y-111640595D01*
X101066904Y-111640595D01*
X101162142Y-111688214D01*
X101209761Y-111735833D01*
X101257380Y-111831071D01*
X101257380Y-111973928D01*
X100590714Y-111212023D02*
X101257380Y-111212023D01*
X100685952Y-111212023D02*
X100638333Y-111164404D01*
X100590714Y-111069166D01*
X100590714Y-110926309D01*
X100638333Y-110831071D01*
X100733571Y-110783452D01*
X101257380Y-110783452D01*
X100257380Y-109688214D02*
X101257380Y-109354880D01*
X100257380Y-109021547D01*
X101352619Y-108926309D02*
X101352619Y-108164404D01*
X100733571Y-107592976D02*
X100781190Y-107450119D01*
X100828809Y-107402500D01*
X100924047Y-107354880D01*
X101066904Y-107354880D01*
X101162142Y-107402500D01*
X101209761Y-107450119D01*
X101257380Y-107545357D01*
X101257380Y-107926309D01*
X100257380Y-107926309D01*
X100257380Y-107592976D01*
X100305000Y-107497738D01*
X100352619Y-107450119D01*
X100447857Y-107402500D01*
X100543095Y-107402500D01*
X100638333Y-107450119D01*
X100685952Y-107497738D01*
X100733571Y-107592976D01*
X100733571Y-107926309D01*
X100971666Y-106973928D02*
X100971666Y-106497738D01*
X101257380Y-107069166D02*
X100257380Y-106735833D01*
X101257380Y-106402500D01*
X100257380Y-106212023D02*
X100257380Y-105640595D01*
X101257380Y-105926309D02*
X100257380Y-105926309D01*
X100257380Y-105450119D02*
X100257380Y-104878690D01*
X101257380Y-105164404D02*
X100257380Y-105164404D01*
X134479479Y-137890384D02*
X135479479Y-137557051D01*
X134479479Y-137223717D01*
X135574718Y-137128479D02*
X135574718Y-136366574D01*
X135479479Y-136128479D02*
X134479479Y-136128479D01*
X135479479Y-135652289D02*
X134479479Y-135652289D01*
X135479479Y-135080860D01*
X134479479Y-135080860D01*
X184201392Y-50161414D02*
X183725202Y-50494747D01*
X184201392Y-50732842D02*
X183201392Y-50732842D01*
X183201392Y-50351890D01*
X183249012Y-50256652D01*
X183296631Y-50209033D01*
X183391869Y-50161414D01*
X183534726Y-50161414D01*
X183629964Y-50209033D01*
X183677583Y-50256652D01*
X183725202Y-50351890D01*
X183725202Y-50732842D01*
X184153773Y-49780461D02*
X184201392Y-49637604D01*
X184201392Y-49399509D01*
X184153773Y-49304271D01*
X184106154Y-49256652D01*
X184010916Y-49209033D01*
X183915678Y-49209033D01*
X183820440Y-49256652D01*
X183772821Y-49304271D01*
X183725202Y-49399509D01*
X183677583Y-49589985D01*
X183629964Y-49685223D01*
X183582345Y-49732842D01*
X183487107Y-49780461D01*
X183391869Y-49780461D01*
X183296631Y-49732842D01*
X183249012Y-49685223D01*
X183201392Y-49589985D01*
X183201392Y-49351890D01*
X183249012Y-49209033D01*
X183201392Y-48923318D02*
X183201392Y-48351890D01*
X184201392Y-48637604D02*
X183201392Y-48637604D01*
D14*
X107476190Y-133285714D02*
X110523809Y-133285714D01*
X109000000Y-134809523D02*
X109000000Y-131761904D01*
D12*
X180634613Y-65508255D02*
X181396518Y-65508255D01*
X181015566Y-65889207D02*
X181015566Y-65127303D01*
X182348899Y-64889207D02*
X181872708Y-64889207D01*
X181825089Y-65365398D01*
X181872708Y-65317779D01*
X181967947Y-65270160D01*
X182206042Y-65270160D01*
X182301280Y-65317779D01*
X182348899Y-65365398D01*
X182396518Y-65460636D01*
X182396518Y-65698731D01*
X182348899Y-65793969D01*
X182301280Y-65841588D01*
X182206042Y-65889207D01*
X181967947Y-65889207D01*
X181872708Y-65841588D01*
X181825089Y-65793969D01*
X182682232Y-64889207D02*
X183015566Y-65889207D01*
X183348899Y-64889207D01*
X181327795Y-82315387D02*
X181232557Y-82267767D01*
X181089700Y-82267767D01*
X180946842Y-82315387D01*
X180851604Y-82410625D01*
X180803985Y-82505863D01*
X180756366Y-82696339D01*
X180756366Y-82839196D01*
X180803985Y-83029672D01*
X180851604Y-83124910D01*
X180946842Y-83220148D01*
X181089700Y-83267767D01*
X181184938Y-83267767D01*
X181327795Y-83220148D01*
X181375414Y-83172529D01*
X181375414Y-82839196D01*
X181184938Y-82839196D01*
X181803985Y-83267767D02*
X181803985Y-82267767D01*
X182375414Y-83267767D01*
X182375414Y-82267767D01*
X182851604Y-83267767D02*
X182851604Y-82267767D01*
X183089700Y-82267767D01*
X183232557Y-82315387D01*
X183327795Y-82410625D01*
X183375414Y-82505863D01*
X183423033Y-82696339D01*
X183423033Y-82839196D01*
X183375414Y-83029672D01*
X183327795Y-83124910D01*
X183232557Y-83220148D01*
X183089700Y-83267767D01*
X182851604Y-83267767D01*
X105218731Y-73466856D02*
X105456826Y-74466856D01*
X105647302Y-73752571D01*
X105837778Y-74466856D01*
X106075873Y-73466856D01*
X106980635Y-73514476D02*
X106885397Y-73466856D01*
X106742540Y-73466856D01*
X106599683Y-73514476D01*
X106504445Y-73609714D01*
X106456826Y-73704952D01*
X106409207Y-73895428D01*
X106409207Y-74038285D01*
X106456826Y-74228761D01*
X106504445Y-74323999D01*
X106599683Y-74419237D01*
X106742540Y-74466856D01*
X106837778Y-74466856D01*
X106980635Y-74419237D01*
X107028254Y-74371618D01*
X107028254Y-74038285D01*
X106837778Y-74038285D01*
X107456826Y-74466856D02*
X107456826Y-73466856D01*
X107694921Y-73466856D01*
X107837778Y-73514476D01*
X107933016Y-73609714D01*
X107980635Y-73704952D01*
X108028254Y-73895428D01*
X108028254Y-74038285D01*
X107980635Y-74228761D01*
X107933016Y-74323999D01*
X107837778Y-74419237D01*
X107694921Y-74466856D01*
X107456826Y-74466856D01*
X108647302Y-73466856D02*
X108742540Y-73466856D01*
X108837778Y-73514476D01*
X108885397Y-73562095D01*
X108933016Y-73657333D01*
X108980635Y-73847809D01*
X108980635Y-74085904D01*
X108933016Y-74276380D01*
X108885397Y-74371618D01*
X108837778Y-74419237D01*
X108742540Y-74466856D01*
X108647302Y-74466856D01*
X108552064Y-74419237D01*
X108504445Y-74371618D01*
X108456826Y-74276380D01*
X108409207Y-74085904D01*
X108409207Y-73847809D01*
X108456826Y-73657333D01*
X108504445Y-73562095D01*
X108552064Y-73514476D01*
X108647302Y-73466856D01*
X137083888Y-137946214D02*
X138083888Y-137612881D01*
X137083888Y-137279548D01*
X138179127Y-137184310D02*
X138179127Y-136422405D01*
X137560079Y-135850976D02*
X137607698Y-135708119D01*
X137655317Y-135660500D01*
X137750555Y-135612881D01*
X137893412Y-135612881D01*
X137988650Y-135660500D01*
X138036269Y-135708119D01*
X138083888Y-135803357D01*
X138083888Y-136184310D01*
X137083888Y-136184310D01*
X137083888Y-135850976D01*
X137131508Y-135755738D01*
X137179127Y-135708119D01*
X137274365Y-135660500D01*
X137369603Y-135660500D01*
X137464841Y-135708119D01*
X137512460Y-135755738D01*
X137560079Y-135850976D01*
X137560079Y-136184310D01*
X137798174Y-135231929D02*
X137798174Y-134755738D01*
X138083888Y-135327167D02*
X137083888Y-134993833D01*
X138083888Y-134660500D01*
X137083888Y-134470024D02*
X137083888Y-133898595D01*
X138083888Y-134184310D02*
X137083888Y-134184310D01*
X137083888Y-133708119D02*
X137083888Y-133136691D01*
X138083888Y-133422405D02*
X137083888Y-133422405D01*
D13*
X175857142Y-113821428D02*
X175928571Y-113750000D01*
X176071428Y-113678571D01*
X176428571Y-113678571D01*
X176571428Y-113750000D01*
X176642857Y-113821428D01*
X176714285Y-113964285D01*
X176714285Y-114107142D01*
X176642857Y-114321428D01*
X175785714Y-115178571D01*
X176714285Y-115178571D01*
X177357142Y-115035714D02*
X177428571Y-115107142D01*
X177357142Y-115178571D01*
X177285714Y-115107142D01*
X177357142Y-115035714D01*
X177357142Y-115178571D01*
X178785714Y-113678571D02*
X178071428Y-113678571D01*
X178000000Y-114392857D01*
X178071428Y-114321428D01*
X178214285Y-114250000D01*
X178571428Y-114250000D01*
X178714285Y-114321428D01*
X178785714Y-114392857D01*
X178857142Y-114535714D01*
X178857142Y-114892857D01*
X178785714Y-115035714D01*
X178714285Y-115107142D01*
X178571428Y-115178571D01*
X178214285Y-115178571D01*
X178071428Y-115107142D01*
X178000000Y-115035714D01*
X179428571Y-114750000D02*
X180142857Y-114750000D01*
X179285714Y-115178571D02*
X179785714Y-113678571D01*
X180285714Y-115178571D01*
D14*
X121476190Y-133285714D02*
X124523809Y-133285714D01*
X123000000Y-134809523D02*
X123000000Y-131761904D01*
D12*
X181098732Y-50410317D02*
X181146351Y-50267460D01*
X181193970Y-50219841D01*
X181289208Y-50172222D01*
X181432065Y-50172222D01*
X181527303Y-50219841D01*
X181574922Y-50267460D01*
X181622541Y-50362698D01*
X181622541Y-50743651D01*
X180622541Y-50743651D01*
X180622541Y-50410317D01*
X180670161Y-50315079D01*
X180717780Y-50267460D01*
X180813018Y-50219841D01*
X180908256Y-50219841D01*
X181003494Y-50267460D01*
X181051113Y-50315079D01*
X181098732Y-50410317D01*
X181098732Y-50743651D01*
X180622541Y-49553175D02*
X180622541Y-49362698D01*
X180670161Y-49267460D01*
X180765399Y-49172222D01*
X180955875Y-49124603D01*
X181289208Y-49124603D01*
X181479684Y-49172222D01*
X181574922Y-49267460D01*
X181622541Y-49362698D01*
X181622541Y-49553175D01*
X181574922Y-49648413D01*
X181479684Y-49743651D01*
X181289208Y-49791270D01*
X180955875Y-49791270D01*
X180765399Y-49743651D01*
X180670161Y-49648413D01*
X180622541Y-49553175D01*
X180622541Y-48505555D02*
X180622541Y-48315079D01*
X180670161Y-48219841D01*
X180765399Y-48124603D01*
X180955875Y-48076984D01*
X181289208Y-48076984D01*
X181479684Y-48124603D01*
X181574922Y-48219841D01*
X181622541Y-48315079D01*
X181622541Y-48505555D01*
X181574922Y-48600794D01*
X181479684Y-48696032D01*
X181289208Y-48743651D01*
X180955875Y-48743651D01*
X180765399Y-48696032D01*
X180670161Y-48600794D01*
X180622541Y-48505555D01*
X180622541Y-47791270D02*
X180622541Y-47219841D01*
X181622541Y-47505555D02*
X180622541Y-47505555D01*
X165071428Y-85452380D02*
X164738095Y-84976190D01*
X164500000Y-85452380D02*
X164500000Y-84452380D01*
X164880952Y-84452380D01*
X164976190Y-84500000D01*
X165023809Y-84547619D01*
X165071428Y-84642857D01*
X165071428Y-84785714D01*
X165023809Y-84880952D01*
X164976190Y-84928571D01*
X164880952Y-84976190D01*
X164500000Y-84976190D01*
X165500000Y-85452380D02*
X165500000Y-84452380D01*
X165880952Y-84452380D01*
X165976190Y-84500000D01*
X166023809Y-84547619D01*
X166071428Y-84642857D01*
X166071428Y-84785714D01*
X166023809Y-84880952D01*
X165976190Y-84928571D01*
X165880952Y-84976190D01*
X165500000Y-84976190D01*
X166500000Y-85452380D02*
X166500000Y-84785714D01*
X166500000Y-84452380D02*
X166452380Y-84500000D01*
X166500000Y-84547619D01*
X166547619Y-84500000D01*
X166500000Y-84452380D01*
X166500000Y-84547619D01*
D14*
X126636190Y-133285714D02*
X129683809Y-133285714D01*
D12*
X142756872Y-138075675D02*
X142756872Y-137313771D01*
X143137824Y-137694723D02*
X142375920Y-137694723D01*
X142137824Y-136932818D02*
X142137824Y-136313771D01*
X142518777Y-136647104D01*
X142518777Y-136504247D01*
X142566396Y-136409009D01*
X142614015Y-136361390D01*
X142709253Y-136313771D01*
X142947348Y-136313771D01*
X143042586Y-136361390D01*
X143090205Y-136409009D01*
X143137824Y-136504247D01*
X143137824Y-136789961D01*
X143090205Y-136885199D01*
X143042586Y-136932818D01*
X142137824Y-136028056D02*
X143137824Y-135694723D01*
X142137824Y-135361390D01*
X142137824Y-135123294D02*
X142137824Y-134504247D01*
X142518777Y-134837580D01*
X142518777Y-134694723D01*
X142566396Y-134599485D01*
X142614015Y-134551866D01*
X142709253Y-134504247D01*
X142947348Y-134504247D01*
X143042586Y-134551866D01*
X143090205Y-134599485D01*
X143137824Y-134694723D01*
X143137824Y-134980437D01*
X143090205Y-135075675D01*
X143042586Y-135123294D01*
X193452380Y-66333333D02*
X192452380Y-66333333D01*
X192547619Y-65904761D02*
X192500000Y-65857142D01*
X192452380Y-65761904D01*
X192452380Y-65523809D01*
X192500000Y-65428571D01*
X192547619Y-65380952D01*
X192642857Y-65333333D01*
X192738095Y-65333333D01*
X192880952Y-65380952D01*
X193452380Y-65952380D01*
X193452380Y-65333333D01*
X193357142Y-64333333D02*
X193404761Y-64380952D01*
X193452380Y-64523809D01*
X193452380Y-64619047D01*
X193404761Y-64761904D01*
X193309523Y-64857142D01*
X193214285Y-64904761D01*
X193023809Y-64952380D01*
X192880952Y-64952380D01*
X192690476Y-64904761D01*
X192595238Y-64857142D01*
X192500000Y-64761904D01*
X192452380Y-64619047D01*
X192452380Y-64523809D01*
X192500000Y-64380952D01*
X192547619Y-64333333D01*
X193452380Y-63142857D02*
X192452380Y-63142857D01*
X192452380Y-62904761D01*
X192500000Y-62761904D01*
X192595238Y-62666666D01*
X192690476Y-62619047D01*
X192880952Y-62571428D01*
X193023809Y-62571428D01*
X193214285Y-62619047D01*
X193309523Y-62666666D01*
X193404761Y-62761904D01*
X193452380Y-62904761D01*
X193452380Y-63142857D01*
X193452380Y-62142857D02*
X192452380Y-62142857D01*
X193404761Y-61714285D02*
X193452380Y-61571428D01*
X193452380Y-61333333D01*
X193404761Y-61238095D01*
X193357142Y-61190476D01*
X193261904Y-61142857D01*
X193166666Y-61142857D01*
X193071428Y-61190476D01*
X193023809Y-61238095D01*
X192976190Y-61333333D01*
X192928571Y-61523809D01*
X192880952Y-61619047D01*
X192833333Y-61666666D01*
X192738095Y-61714285D01*
X192642857Y-61714285D01*
X192547619Y-61666666D01*
X192500000Y-61619047D01*
X192452380Y-61523809D01*
X192452380Y-61285714D01*
X192500000Y-61142857D01*
X193452380Y-60714285D02*
X192452380Y-60714285D01*
X192452380Y-60333333D01*
X192500000Y-60238095D01*
X192547619Y-60190476D01*
X192642857Y-60142857D01*
X192785714Y-60142857D01*
X192880952Y-60190476D01*
X192928571Y-60238095D01*
X192976190Y-60333333D01*
X192976190Y-60714285D01*
X193452380Y-59238095D02*
X193452380Y-59714285D01*
X192452380Y-59714285D01*
X193166666Y-58952380D02*
X193166666Y-58476190D01*
X193452380Y-59047619D02*
X192452380Y-58714285D01*
X193452380Y-58380952D01*
X192976190Y-57857142D02*
X193452380Y-57857142D01*
X192452380Y-58190476D02*
X192976190Y-57857142D01*
X192452380Y-57523809D01*
X193452380Y-78190476D02*
X192452380Y-78190476D01*
X193452380Y-77619047D01*
X192452380Y-77619047D01*
X192928571Y-77142857D02*
X192928571Y-76809523D01*
X193452380Y-76666666D02*
X193452380Y-77142857D01*
X192452380Y-77142857D01*
X192452380Y-76666666D01*
X192452380Y-76047619D02*
X192452380Y-75857142D01*
X192500000Y-75761904D01*
X192595238Y-75666666D01*
X192785714Y-75619047D01*
X193119047Y-75619047D01*
X193309523Y-75666666D01*
X193404761Y-75761904D01*
X193452380Y-75857142D01*
X193452380Y-76047619D01*
X193404761Y-76142857D01*
X193309523Y-76238095D01*
X193119047Y-76285714D01*
X192785714Y-76285714D01*
X192595238Y-76238095D01*
X192500000Y-76142857D01*
X192452380Y-76047619D01*
X193452380Y-75190476D02*
X192452380Y-75190476D01*
X192452380Y-74809523D01*
X192500000Y-74714285D01*
X192547619Y-74666666D01*
X192642857Y-74619047D01*
X192785714Y-74619047D01*
X192880952Y-74666666D01*
X192928571Y-74714285D01*
X192976190Y-74809523D01*
X192976190Y-75190476D01*
X193452380Y-74190476D02*
X192452380Y-74190476D01*
X192452380Y-73809523D02*
X193452380Y-73142857D01*
X192452380Y-73142857D02*
X193452380Y-73809523D01*
X192928571Y-72761904D02*
X192928571Y-72428571D01*
X193452380Y-72285714D02*
X193452380Y-72761904D01*
X192452380Y-72761904D01*
X192452380Y-72285714D01*
X193452380Y-71380952D02*
X193452380Y-71857142D01*
X192452380Y-71857142D01*
X193452380Y-69761904D02*
X193452380Y-70333333D01*
X193452380Y-70047619D02*
X192452380Y-70047619D01*
X192595238Y-70142857D01*
X192690476Y-70238095D01*
X192738095Y-70333333D01*
X170714285Y-70952380D02*
X170380952Y-70476190D01*
X170142857Y-70952380D02*
X170142857Y-69952380D01*
X170523809Y-69952380D01*
X170619047Y-70000000D01*
X170666666Y-70047619D01*
X170714285Y-70142857D01*
X170714285Y-70285714D01*
X170666666Y-70380952D01*
X170619047Y-70428571D01*
X170523809Y-70476190D01*
X170142857Y-70476190D01*
X171047619Y-69952380D02*
X171714285Y-70952380D01*
X171714285Y-69952380D02*
X171047619Y-70952380D01*
X172142857Y-70190476D02*
X172142857Y-70952380D01*
X172190476Y-70238095D02*
X172190476Y-70904761D01*
X172238095Y-70238095D02*
X172238095Y-70904761D01*
X172285714Y-70285714D02*
X172285714Y-70857142D01*
X172333333Y-70285714D02*
X172333333Y-70857142D01*
X172380952Y-70333333D02*
X172380952Y-70809523D01*
X172428571Y-70333333D02*
X172428571Y-70809523D01*
X172476190Y-70380952D02*
X172476190Y-70761904D01*
X172523809Y-70428571D02*
X172523809Y-70714285D01*
X172571428Y-70428571D02*
X172571428Y-70714285D01*
X172619047Y-70476190D02*
X172619047Y-70666666D01*
X172666666Y-70476190D02*
X172666666Y-70666666D01*
X172714285Y-70571428D02*
X172761904Y-70571428D01*
X172714285Y-70523809D02*
X172714285Y-70619047D01*
X172095238Y-70190476D02*
X172809523Y-70571428D01*
X172095238Y-70952380D01*
X172857142Y-70571428D02*
X172095238Y-71000000D01*
X172095238Y-70142857D01*
X172857142Y-70571428D01*
X158714285Y-72785714D02*
X159428571Y-72785714D01*
X159000000Y-72357142D02*
X158714285Y-73642857D01*
X159333333Y-73214285D02*
X158619047Y-73214285D01*
X159047619Y-73642857D02*
X159333333Y-72357142D01*
X159714285Y-72547619D02*
X159761904Y-72500000D01*
X159857142Y-72452380D01*
X160095238Y-72452380D01*
X160190476Y-72500000D01*
X160238095Y-72547619D01*
X160285714Y-72642857D01*
X160285714Y-72738095D01*
X160238095Y-72880952D01*
X159666666Y-73452380D01*
X160285714Y-73452380D01*
X180909249Y-60713785D02*
X181052106Y-60761404D01*
X181290202Y-60761404D01*
X181385440Y-60713785D01*
X181433059Y-60666166D01*
X181480678Y-60570928D01*
X181480678Y-60475690D01*
X181433059Y-60380452D01*
X181385440Y-60332833D01*
X181290202Y-60285214D01*
X181099726Y-60237595D01*
X181004487Y-60189976D01*
X180956868Y-60142357D01*
X180909249Y-60047119D01*
X180909249Y-59951881D01*
X180956868Y-59856643D01*
X181004487Y-59809024D01*
X181099726Y-59761404D01*
X181337821Y-59761404D01*
X181480678Y-59809024D01*
X182480678Y-60666166D02*
X182433059Y-60713785D01*
X182290202Y-60761404D01*
X182194964Y-60761404D01*
X182052106Y-60713785D01*
X181956868Y-60618547D01*
X181909249Y-60523309D01*
X181861630Y-60332833D01*
X181861630Y-60189976D01*
X181909249Y-59999500D01*
X181956868Y-59904262D01*
X182052106Y-59809024D01*
X182194964Y-59761404D01*
X182290202Y-59761404D01*
X182433059Y-59809024D01*
X182480678Y-59856643D01*
X183385440Y-60761404D02*
X182909249Y-60761404D01*
X182909249Y-59761404D01*
X147215940Y-137824990D02*
X147215940Y-137634513D01*
X147263560Y-137539275D01*
X147358798Y-137444037D01*
X147549274Y-137396418D01*
X147882607Y-137396418D01*
X148073083Y-137444037D01*
X148168321Y-137539275D01*
X148215940Y-137634513D01*
X148215940Y-137824990D01*
X148168321Y-137920228D01*
X148073083Y-138015466D01*
X147882607Y-138063085D01*
X147549274Y-138063085D01*
X147358798Y-138015466D01*
X147263560Y-137920228D01*
X147215940Y-137824990D01*
X148215940Y-136967847D02*
X147215940Y-136967847D01*
X147215940Y-136586894D01*
X147263560Y-136491656D01*
X147311179Y-136444037D01*
X147406417Y-136396418D01*
X147549274Y-136396418D01*
X147644512Y-136444037D01*
X147692131Y-136491656D01*
X147739750Y-136586894D01*
X147739750Y-136967847D01*
X147692131Y-135967847D02*
X147692131Y-135634513D01*
X148215940Y-135491656D02*
X148215940Y-135967847D01*
X147215940Y-135967847D01*
X147215940Y-135491656D01*
X148215940Y-135063085D02*
X147215940Y-135063085D01*
X148215940Y-134491656D01*
X147215940Y-134491656D01*
X147311179Y-134063085D02*
X147263560Y-134015466D01*
X147215940Y-133920228D01*
X147215940Y-133682132D01*
X147263560Y-133586894D01*
X147311179Y-133539275D01*
X147406417Y-133491656D01*
X147501655Y-133491656D01*
X147644512Y-133539275D01*
X148215940Y-134110704D01*
X148215940Y-133491656D01*
X105977279Y-62993856D02*
X105643945Y-62517666D01*
X105405850Y-62993856D02*
X105405850Y-61993856D01*
X105786802Y-61993856D01*
X105882041Y-62041476D01*
X105929660Y-62089095D01*
X105977279Y-62184333D01*
X105977279Y-62327190D01*
X105929660Y-62422428D01*
X105882041Y-62470047D01*
X105786802Y-62517666D01*
X105405850Y-62517666D01*
X106310612Y-61993856D02*
X106977279Y-62993856D01*
X106977279Y-61993856D02*
X106310612Y-62993856D01*
X107358231Y-62993856D02*
X107358231Y-61993856D01*
X107596326Y-61993856D01*
X107739183Y-62041476D01*
X107834421Y-62136714D01*
X107882041Y-62231952D01*
X107929660Y-62422428D01*
X107929660Y-62565285D01*
X107882041Y-62755761D01*
X107834421Y-62850999D01*
X107739183Y-62946237D01*
X107596326Y-62993856D01*
X107358231Y-62993856D01*
X108358231Y-62993856D02*
X108358231Y-61993856D01*
X180714285Y-88071428D02*
X181476190Y-88071428D01*
X181095238Y-88452380D02*
X181095238Y-87690476D01*
X182428571Y-87452380D02*
X181952380Y-87452380D01*
X181904761Y-87928571D01*
X181952380Y-87880952D01*
X182047619Y-87833333D01*
X182285714Y-87833333D01*
X182380952Y-87880952D01*
X182428571Y-87928571D01*
X182476190Y-88023809D01*
X182476190Y-88261904D01*
X182428571Y-88357142D01*
X182380952Y-88404761D01*
X182285714Y-88452380D01*
X182047619Y-88452380D01*
X181952380Y-88404761D01*
X181904761Y-88357142D01*
X182761904Y-87452380D02*
X183095238Y-88452380D01*
X183428571Y-87452380D01*
X124547619Y-48452380D02*
X124214285Y-47976190D01*
X123976190Y-48452380D02*
X123976190Y-47452380D01*
X124357142Y-47452380D01*
X124452380Y-47500000D01*
X124500000Y-47547619D01*
X124547619Y-47642857D01*
X124547619Y-47785714D01*
X124500000Y-47880952D01*
X124452380Y-47928571D01*
X124357142Y-47976190D01*
X123976190Y-47976190D01*
X124976190Y-47928571D02*
X125309523Y-47928571D01*
X125452380Y-48452380D02*
X124976190Y-48452380D01*
X124976190Y-47452380D01*
X125452380Y-47452380D01*
X125833333Y-48404761D02*
X125976190Y-48452380D01*
X126214285Y-48452380D01*
X126309523Y-48404761D01*
X126357142Y-48357142D01*
X126404761Y-48261904D01*
X126404761Y-48166666D01*
X126357142Y-48071428D01*
X126309523Y-48023809D01*
X126214285Y-47976190D01*
X126023809Y-47928571D01*
X125928571Y-47880952D01*
X125880952Y-47833333D01*
X125833333Y-47738095D01*
X125833333Y-47642857D01*
X125880952Y-47547619D01*
X125928571Y-47500000D01*
X126023809Y-47452380D01*
X126261904Y-47452380D01*
X126404761Y-47500000D01*
X126833333Y-47928571D02*
X127166666Y-47928571D01*
X127309523Y-48452380D02*
X126833333Y-48452380D01*
X126833333Y-47452380D01*
X127309523Y-47452380D01*
X127595238Y-47452380D02*
X128166666Y-47452380D01*
X127880952Y-48452380D02*
X127880952Y-47452380D01*
X109523809Y-144452380D02*
X109857142Y-145452380D01*
X110190476Y-144452380D01*
X110285714Y-145547619D02*
X111047619Y-145547619D01*
X111285714Y-145452380D02*
X111285714Y-144452380D01*
X111761904Y-145452380D02*
X111761904Y-144452380D01*
X112333333Y-145452380D01*
X112333333Y-144452380D01*
D13*
X124357142Y-113678571D02*
X125285714Y-113678571D01*
X124785714Y-114250000D01*
X125000000Y-114250000D01*
X125142857Y-114321428D01*
X125214285Y-114392857D01*
X125285714Y-114535714D01*
X125285714Y-114892857D01*
X125214285Y-115035714D01*
X125142857Y-115107142D01*
X125000000Y-115178571D01*
X124571428Y-115178571D01*
X124428571Y-115107142D01*
X124357142Y-115035714D01*
X125857142Y-114750000D02*
X126571428Y-114750000D01*
X125714285Y-115178571D02*
X126214285Y-113678571D01*
X126714285Y-115178571D01*
X161857142Y-113821428D02*
X161928571Y-113750000D01*
X162071428Y-113678571D01*
X162428571Y-113678571D01*
X162571428Y-113750000D01*
X162642857Y-113821428D01*
X162714285Y-113964285D01*
X162714285Y-114107142D01*
X162642857Y-114321428D01*
X161785714Y-115178571D01*
X162714285Y-115178571D01*
X163357142Y-115035714D02*
X163428571Y-115107142D01*
X163357142Y-115178571D01*
X163285714Y-115107142D01*
X163357142Y-115035714D01*
X163357142Y-115178571D01*
X164785714Y-113678571D02*
X164071428Y-113678571D01*
X164000000Y-114392857D01*
X164071428Y-114321428D01*
X164214285Y-114250000D01*
X164571428Y-114250000D01*
X164714285Y-114321428D01*
X164785714Y-114392857D01*
X164857142Y-114535714D01*
X164857142Y-114892857D01*
X164785714Y-115035714D01*
X164714285Y-115107142D01*
X164571428Y-115178571D01*
X164214285Y-115178571D01*
X164071428Y-115107142D01*
X164000000Y-115035714D01*
X165428571Y-114750000D02*
X166142857Y-114750000D01*
X165285714Y-115178571D02*
X165785714Y-113678571D01*
X166285714Y-115178571D01*
D12*
X170527130Y-50649216D02*
X170527130Y-50030168D01*
X170908083Y-50363501D01*
X170908083Y-50220644D01*
X170955702Y-50125406D01*
X171003321Y-50077787D01*
X171098559Y-50030168D01*
X171336654Y-50030168D01*
X171431892Y-50077787D01*
X171479511Y-50125406D01*
X171527130Y-50220644D01*
X171527130Y-50506359D01*
X171479511Y-50601597D01*
X171431892Y-50649216D01*
X170527130Y-49744454D02*
X171527130Y-49411121D01*
X170527130Y-49077787D01*
X170527130Y-48839692D02*
X170527130Y-48220644D01*
X170908083Y-48553978D01*
X170908083Y-48411121D01*
X170955702Y-48315882D01*
X171003321Y-48268263D01*
X171098559Y-48220644D01*
X171336654Y-48220644D01*
X171431892Y-48268263D01*
X171479511Y-48315882D01*
X171527130Y-48411121D01*
X171527130Y-48696835D01*
X171479511Y-48792073D01*
X171431892Y-48839692D01*
X179130897Y-50168054D02*
X178654707Y-50501388D01*
X179130897Y-50739483D02*
X178130897Y-50739483D01*
X178130897Y-50358531D01*
X178178517Y-50263293D01*
X178226136Y-50215673D01*
X178321374Y-50168054D01*
X178464231Y-50168054D01*
X178559469Y-50215673D01*
X178607088Y-50263293D01*
X178654707Y-50358531D01*
X178654707Y-50739483D01*
X178130897Y-49834721D02*
X179130897Y-49168054D01*
X178130897Y-49168054D02*
X179130897Y-49834721D01*
X179130897Y-48787102D02*
X178130897Y-48787102D01*
X163452380Y-135571428D02*
X163452380Y-135380952D01*
X163500000Y-135285714D01*
X163595238Y-135190476D01*
X163785714Y-135142857D01*
X164119047Y-135142857D01*
X164309523Y-135190476D01*
X164404761Y-135285714D01*
X164452380Y-135380952D01*
X164452380Y-135571428D01*
X164404761Y-135666666D01*
X164309523Y-135761904D01*
X164119047Y-135809523D01*
X163785714Y-135809523D01*
X163595238Y-135761904D01*
X163500000Y-135666666D01*
X163452380Y-135571428D01*
X164452380Y-134714285D02*
X163452380Y-134714285D01*
X163452380Y-134333333D01*
X163500000Y-134238095D01*
X163547619Y-134190476D01*
X163642857Y-134142857D01*
X163785714Y-134142857D01*
X163880952Y-134190476D01*
X163928571Y-134238095D01*
X163976190Y-134333333D01*
X163976190Y-134714285D01*
X163928571Y-133714285D02*
X163928571Y-133380952D01*
X164452380Y-133238095D02*
X164452380Y-133714285D01*
X163452380Y-133714285D01*
X163452380Y-133238095D01*
X164452380Y-132809523D02*
X163452380Y-132809523D01*
X164452380Y-132238095D01*
X163452380Y-132238095D01*
X144682197Y-137811440D02*
X144682197Y-137620963D01*
X144729817Y-137525725D01*
X144825055Y-137430487D01*
X145015531Y-137382868D01*
X145348864Y-137382868D01*
X145539340Y-137430487D01*
X145634578Y-137525725D01*
X145682197Y-137620963D01*
X145682197Y-137811440D01*
X145634578Y-137906678D01*
X145539340Y-138001916D01*
X145348864Y-138049535D01*
X145015531Y-138049535D01*
X144825055Y-138001916D01*
X144729817Y-137906678D01*
X144682197Y-137811440D01*
X145682197Y-136954297D02*
X144682197Y-136954297D01*
X144682197Y-136573344D01*
X144729817Y-136478106D01*
X144777436Y-136430487D01*
X144872674Y-136382868D01*
X145015531Y-136382868D01*
X145110769Y-136430487D01*
X145158388Y-136478106D01*
X145206007Y-136573344D01*
X145206007Y-136954297D01*
X145158388Y-135954297D02*
X145158388Y-135620963D01*
X145682197Y-135478106D02*
X145682197Y-135954297D01*
X144682197Y-135954297D01*
X144682197Y-135478106D01*
X145682197Y-135049535D02*
X144682197Y-135049535D01*
X145682197Y-134478106D01*
X144682197Y-134478106D01*
X145682197Y-133478106D02*
X145682197Y-134049535D01*
X145682197Y-133763821D02*
X144682197Y-133763821D01*
X144825055Y-133859059D01*
X144920293Y-133954297D01*
X144967912Y-134049535D01*
X105255653Y-75989196D02*
X105493748Y-76989196D01*
X105684224Y-76274911D01*
X105874700Y-76989196D01*
X106112795Y-75989196D01*
X107017557Y-76036816D02*
X106922319Y-75989196D01*
X106779462Y-75989196D01*
X106636605Y-76036816D01*
X106541367Y-76132054D01*
X106493748Y-76227292D01*
X106446129Y-76417768D01*
X106446129Y-76560625D01*
X106493748Y-76751101D01*
X106541367Y-76846339D01*
X106636605Y-76941577D01*
X106779462Y-76989196D01*
X106874700Y-76989196D01*
X107017557Y-76941577D01*
X107065176Y-76893958D01*
X107065176Y-76560625D01*
X106874700Y-76560625D01*
X107493748Y-76989196D02*
X107493748Y-75989196D01*
X107731843Y-75989196D01*
X107874700Y-76036816D01*
X107969938Y-76132054D01*
X108017557Y-76227292D01*
X108065176Y-76417768D01*
X108065176Y-76560625D01*
X108017557Y-76751101D01*
X107969938Y-76846339D01*
X107874700Y-76941577D01*
X107731843Y-76989196D01*
X107493748Y-76989196D01*
X109017557Y-76989196D02*
X108446129Y-76989196D01*
X108731843Y-76989196D02*
X108731843Y-75989196D01*
X108636605Y-76132054D01*
X108541367Y-76227292D01*
X108446129Y-76274911D01*
X105342179Y-57470151D02*
X106104084Y-57470151D01*
X105723132Y-57851103D02*
X105723132Y-57089199D01*
X107056465Y-56851103D02*
X106580274Y-56851103D01*
X106532655Y-57327294D01*
X106580274Y-57279675D01*
X106675513Y-57232056D01*
X106913608Y-57232056D01*
X107008846Y-57279675D01*
X107056465Y-57327294D01*
X107104084Y-57422532D01*
X107104084Y-57660627D01*
X107056465Y-57755865D01*
X107008846Y-57803484D01*
X106913608Y-57851103D01*
X106675513Y-57851103D01*
X106580274Y-57803484D01*
X106532655Y-57755865D01*
X107389798Y-56851103D02*
X107723132Y-57851103D01*
X108056465Y-56851103D01*
X180459489Y-74568697D02*
X180459489Y-73568697D01*
X180697584Y-73568697D01*
X180840441Y-73616317D01*
X180935679Y-73711555D01*
X180983298Y-73806793D01*
X181030917Y-73997269D01*
X181030917Y-74140126D01*
X180983298Y-74330602D01*
X180935679Y-74425840D01*
X180840441Y-74521078D01*
X180697584Y-74568697D01*
X180459489Y-74568697D01*
X181411869Y-74282983D02*
X181888060Y-74282983D01*
X181316631Y-74568697D02*
X181649965Y-73568697D01*
X181983298Y-74568697D01*
X182173774Y-73568697D02*
X182745203Y-73568697D01*
X182459489Y-74568697D02*
X182459489Y-73568697D01*
X183030917Y-74282983D02*
X183507108Y-74282983D01*
X182935679Y-74568697D02*
X183269012Y-73568697D01*
X183602346Y-74568697D01*
X161571428Y-144452380D02*
X161761904Y-144452380D01*
X161857142Y-144500000D01*
X161952380Y-144595238D01*
X162000000Y-144785714D01*
X162000000Y-145119047D01*
X161952380Y-145309523D01*
X161857142Y-145404761D01*
X161761904Y-145452380D01*
X161571428Y-145452380D01*
X161476190Y-145404761D01*
X161380952Y-145309523D01*
X161333333Y-145119047D01*
X161333333Y-144785714D01*
X161380952Y-144595238D01*
X161476190Y-144500000D01*
X161571428Y-144452380D01*
X162428571Y-145452380D02*
X162428571Y-144452380D01*
X162809523Y-144452380D01*
X162904761Y-144500000D01*
X162952380Y-144547619D01*
X163000000Y-144642857D01*
X163000000Y-144785714D01*
X162952380Y-144880952D01*
X162904761Y-144928571D01*
X162809523Y-144976190D01*
X162428571Y-144976190D01*
X163428571Y-144928571D02*
X163761904Y-144928571D01*
X163904761Y-145452380D02*
X163428571Y-145452380D01*
X163428571Y-144452380D01*
X163904761Y-144452380D01*
X164333333Y-145452380D02*
X164333333Y-144452380D01*
X164904761Y-145452380D01*
X164904761Y-144452380D01*
X165142857Y-145547619D02*
X165904761Y-145547619D01*
X166666666Y-145452380D02*
X166095238Y-145452380D01*
X166380952Y-145452380D02*
X166380952Y-144452380D01*
X166285714Y-144595238D01*
X166190476Y-144690476D01*
X166095238Y-144738095D01*
X180637894Y-76789021D02*
X181399799Y-76789021D01*
X181018847Y-77169973D02*
X181018847Y-76408069D01*
X182352180Y-76169973D02*
X181875989Y-76169973D01*
X181828370Y-76646164D01*
X181875989Y-76598545D01*
X181971228Y-76550926D01*
X182209323Y-76550926D01*
X182304561Y-76598545D01*
X182352180Y-76646164D01*
X182399799Y-76741402D01*
X182399799Y-76979497D01*
X182352180Y-77074735D01*
X182304561Y-77122354D01*
X182209323Y-77169973D01*
X181971228Y-77169973D01*
X181875989Y-77122354D01*
X181828370Y-77074735D01*
X182685513Y-76169973D02*
X183018847Y-77169973D01*
X183352180Y-76169973D01*
D14*
X112476190Y-133285714D02*
X115523809Y-133285714D01*
D12*
X173048185Y-50173339D02*
X173000565Y-50268577D01*
X173000565Y-50411435D01*
X173048185Y-50554292D01*
X173143423Y-50649530D01*
X173238661Y-50697149D01*
X173429137Y-50744768D01*
X173571994Y-50744768D01*
X173762470Y-50697149D01*
X173857708Y-50649530D01*
X173952946Y-50554292D01*
X174000565Y-50411435D01*
X174000565Y-50316196D01*
X173952946Y-50173339D01*
X173905327Y-50125720D01*
X173571994Y-50125720D01*
X173571994Y-50316196D01*
X174000565Y-49697149D02*
X173000565Y-49697149D01*
X174000565Y-49125720D01*
X173000565Y-49125720D01*
X174000565Y-48649530D02*
X173000565Y-48649530D01*
X173000565Y-48411435D01*
X173048185Y-48268577D01*
X173143423Y-48173339D01*
X173238661Y-48125720D01*
X173429137Y-48078101D01*
X173571994Y-48078101D01*
X173762470Y-48125720D01*
X173857708Y-48173339D01*
X173952946Y-48268577D01*
X174000565Y-48411435D01*
X174000565Y-48649530D01*
X158714285Y-75952380D02*
X158714285Y-74952380D01*
X158714285Y-75428571D02*
X159285714Y-75428571D01*
X159285714Y-75952380D02*
X159285714Y-74952380D01*
X160095238Y-75428571D02*
X160238095Y-75476190D01*
X160285714Y-75523809D01*
X160333333Y-75619047D01*
X160333333Y-75761904D01*
X160285714Y-75857142D01*
X160238095Y-75904761D01*
X160142857Y-75952380D01*
X159761904Y-75952380D01*
X159761904Y-74952380D01*
X160095238Y-74952380D01*
X160190476Y-75000000D01*
X160238095Y-75047619D01*
X160285714Y-75142857D01*
X160285714Y-75238095D01*
X160238095Y-75333333D01*
X160190476Y-75380952D01*
X160095238Y-75428571D01*
X159761904Y-75428571D01*
X105465672Y-71484627D02*
X106227577Y-71484627D01*
X105846625Y-71865579D02*
X105846625Y-71103675D01*
X107179958Y-70865579D02*
X106703767Y-70865579D01*
X106656148Y-71341770D01*
X106703767Y-71294151D01*
X106799006Y-71246532D01*
X107037101Y-71246532D01*
X107132339Y-71294151D01*
X107179958Y-71341770D01*
X107227577Y-71437008D01*
X107227577Y-71675103D01*
X107179958Y-71770341D01*
X107132339Y-71817960D01*
X107037101Y-71865579D01*
X106799006Y-71865579D01*
X106703767Y-71817960D01*
X106656148Y-71770341D01*
X107513291Y-70865579D02*
X107846625Y-71865579D01*
X108179958Y-70865579D01*
X106049281Y-78477830D02*
X105954043Y-78430210D01*
X105811186Y-78430210D01*
X105668328Y-78477830D01*
X105573090Y-78573068D01*
X105525471Y-78668306D01*
X105477852Y-78858782D01*
X105477852Y-79001639D01*
X105525471Y-79192115D01*
X105573090Y-79287353D01*
X105668328Y-79382591D01*
X105811186Y-79430210D01*
X105906424Y-79430210D01*
X106049281Y-79382591D01*
X106096900Y-79334972D01*
X106096900Y-79001639D01*
X105906424Y-79001639D01*
X106525471Y-79430210D02*
X106525471Y-78430210D01*
X107096900Y-79430210D01*
X107096900Y-78430210D01*
X107573090Y-79430210D02*
X107573090Y-78430210D01*
X107811186Y-78430210D01*
X107954043Y-78477830D01*
X108049281Y-78573068D01*
X108096900Y-78668306D01*
X108144519Y-78858782D01*
X108144519Y-79001639D01*
X108096900Y-79192115D01*
X108049281Y-79287353D01*
X107954043Y-79382591D01*
X107811186Y-79430210D01*
X107573090Y-79430210D01*
X122500000Y-144928571D02*
X122642857Y-144976190D01*
X122690476Y-145023809D01*
X122738095Y-145119047D01*
X122738095Y-145261904D01*
X122690476Y-145357142D01*
X122642857Y-145404761D01*
X122547619Y-145452380D01*
X122166666Y-145452380D01*
X122166666Y-144452380D01*
X122500000Y-144452380D01*
X122595238Y-144500000D01*
X122642857Y-144547619D01*
X122690476Y-144642857D01*
X122690476Y-144738095D01*
X122642857Y-144833333D01*
X122595238Y-144880952D01*
X122500000Y-144928571D01*
X122166666Y-144928571D01*
X123119047Y-145166666D02*
X123595238Y-145166666D01*
X123023809Y-145452380D02*
X123357142Y-144452380D01*
X123690476Y-145452380D01*
X123880952Y-144452380D02*
X124452380Y-144452380D01*
X124166666Y-145452380D02*
X124166666Y-144452380D01*
X124642857Y-144452380D02*
X125214285Y-144452380D01*
X124928571Y-145452380D02*
X124928571Y-144452380D01*
X125547619Y-144928571D02*
X125880952Y-144928571D01*
X126023809Y-145452380D02*
X125547619Y-145452380D01*
X125547619Y-144452380D01*
X126023809Y-144452380D01*
X127023809Y-145452380D02*
X126690476Y-144976190D01*
X126452380Y-145452380D02*
X126452380Y-144452380D01*
X126833333Y-144452380D01*
X126928571Y-144500000D01*
X126976190Y-144547619D01*
X127023809Y-144642857D01*
X127023809Y-144785714D01*
X126976190Y-144880952D01*
X126928571Y-144928571D01*
X126833333Y-144976190D01*
X126452380Y-144976190D01*
X127642857Y-144976190D02*
X127642857Y-145452380D01*
X127309523Y-144452380D02*
X127642857Y-144976190D01*
X127976190Y-144452380D01*
X96547619Y-83261904D02*
X96547619Y-83833333D01*
X95547619Y-83547619D02*
X96547619Y-83547619D01*
X95833333Y-84119047D02*
X95833333Y-84595238D01*
X95547619Y-84023809D02*
X96547619Y-84357142D01*
X95547619Y-84690476D01*
X95547619Y-85023809D02*
X96547619Y-85023809D01*
X95833333Y-85357142D01*
X96547619Y-85690476D01*
X95547619Y-85690476D01*
X95547619Y-86166666D02*
X96547619Y-86166666D01*
X96547619Y-86547619D01*
X96500000Y-86642857D01*
X96452380Y-86690476D01*
X96357142Y-86738095D01*
X96214285Y-86738095D01*
X96119047Y-86690476D01*
X96071428Y-86642857D01*
X96023809Y-86547619D01*
X96023809Y-86166666D01*
X96071428Y-87166666D02*
X96071428Y-87500000D01*
X95547619Y-87642857D02*
X95547619Y-87166666D01*
X96547619Y-87166666D01*
X96547619Y-87642857D01*
X95547619Y-88642857D02*
X96023809Y-88309523D01*
X95547619Y-88071428D02*
X96547619Y-88071428D01*
X96547619Y-88452380D01*
X96500000Y-88547619D01*
X96452380Y-88595238D01*
X96357142Y-88642857D01*
X96214285Y-88642857D01*
X96119047Y-88595238D01*
X96071428Y-88547619D01*
X96023809Y-88452380D01*
X96023809Y-88071428D01*
X180825641Y-63240312D02*
X180968498Y-63287931D01*
X181206593Y-63287931D01*
X181301831Y-63240312D01*
X181349450Y-63192693D01*
X181397069Y-63097455D01*
X181397069Y-63002217D01*
X181349450Y-62906979D01*
X181301831Y-62859360D01*
X181206593Y-62811741D01*
X181016117Y-62764122D01*
X180920879Y-62716503D01*
X180873260Y-62668884D01*
X180825641Y-62573646D01*
X180825641Y-62478408D01*
X180873260Y-62383170D01*
X180920879Y-62335551D01*
X181016117Y-62287931D01*
X181254212Y-62287931D01*
X181397069Y-62335551D01*
X181825641Y-63287931D02*
X181825641Y-62287931D01*
X182063736Y-62287931D01*
X182206593Y-62335551D01*
X182301831Y-62430789D01*
X182349450Y-62526027D01*
X182397069Y-62716503D01*
X182397069Y-62859360D01*
X182349450Y-63049836D01*
X182301831Y-63145074D01*
X182206593Y-63240312D01*
X182063736Y-63287931D01*
X181825641Y-63287931D01*
X182778022Y-63002217D02*
X183254212Y-63002217D01*
X182682784Y-63287931D02*
X183016117Y-62287931D01*
X183349450Y-63287931D01*
X95547619Y-56904761D02*
X96547619Y-56904761D01*
X95547619Y-57476190D01*
X96547619Y-57476190D01*
X96071428Y-58285714D02*
X96071428Y-57952380D01*
X95547619Y-57952380D02*
X96547619Y-57952380D01*
X96547619Y-58428571D01*
X95642857Y-59380952D02*
X95595238Y-59333333D01*
X95547619Y-59190476D01*
X95547619Y-59095238D01*
X95595238Y-58952380D01*
X95690476Y-58857142D01*
X95785714Y-58809523D01*
X95976190Y-58761904D01*
X96119047Y-58761904D01*
X96309523Y-58809523D01*
X96404761Y-58857142D01*
X96500000Y-58952380D01*
X96547619Y-59095238D01*
X96547619Y-59190476D01*
X96500000Y-59333333D01*
X96452380Y-59380952D01*
X95595238Y-60523809D02*
X95547619Y-60666666D01*
X95547619Y-60904761D01*
X95595238Y-61000000D01*
X95642857Y-61047619D01*
X95738095Y-61095238D01*
X95833333Y-61095238D01*
X95928571Y-61047619D01*
X95976190Y-61000000D01*
X96023809Y-60904761D01*
X96071428Y-60714285D01*
X96119047Y-60619047D01*
X96166666Y-60571428D01*
X96261904Y-60523809D01*
X96357142Y-60523809D01*
X96452380Y-60571428D01*
X96500000Y-60619047D01*
X96547619Y-60714285D01*
X96547619Y-60952380D01*
X96500000Y-61095238D01*
X96071428Y-61523809D02*
X96071428Y-61857142D01*
X95547619Y-62000000D02*
X95547619Y-61523809D01*
X96547619Y-61523809D01*
X96547619Y-62000000D01*
X95547619Y-63000000D02*
X96023809Y-62666666D01*
X95547619Y-62428571D02*
X96547619Y-62428571D01*
X96547619Y-62809523D01*
X96500000Y-62904761D01*
X96452380Y-62952380D01*
X96357142Y-63000000D01*
X96214285Y-63000000D01*
X96119047Y-62952380D01*
X96071428Y-62904761D01*
X96023809Y-62809523D01*
X96023809Y-62428571D01*
X95547619Y-63428571D02*
X96547619Y-63428571D01*
X95833333Y-63857142D02*
X95833333Y-64333333D01*
X95547619Y-63761904D02*
X96547619Y-64095238D01*
X95547619Y-64428571D01*
X95547619Y-65238095D02*
X95547619Y-64761904D01*
X96547619Y-64761904D01*
X96547619Y-68738095D02*
X95547619Y-68976190D01*
X96261904Y-69166666D01*
X95547619Y-69357142D01*
X96547619Y-69595238D01*
X95547619Y-69976190D02*
X96547619Y-69976190D01*
X96071428Y-70452380D02*
X96071428Y-70785714D01*
X95547619Y-70928571D02*
X95547619Y-70452380D01*
X96547619Y-70452380D01*
X96547619Y-70928571D01*
X96500000Y-71880952D02*
X96547619Y-71785714D01*
X96547619Y-71642857D01*
X96500000Y-71500000D01*
X96404761Y-71404761D01*
X96309523Y-71357142D01*
X96119047Y-71309523D01*
X95976190Y-71309523D01*
X95785714Y-71357142D01*
X95690476Y-71404761D01*
X95595238Y-71500000D01*
X95547619Y-71642857D01*
X95547619Y-71738095D01*
X95595238Y-71880952D01*
X95642857Y-71928571D01*
X95976190Y-71928571D01*
X95976190Y-71738095D01*
X95833333Y-72309523D02*
X95833333Y-72785714D01*
X95547619Y-72214285D02*
X96547619Y-72547619D01*
X95547619Y-72880952D01*
X95547619Y-73214285D02*
X96547619Y-73214285D01*
X95547619Y-73785714D01*
X96547619Y-73785714D01*
X95547619Y-74261904D02*
X96547619Y-74261904D01*
X96547619Y-74500000D01*
X96500000Y-74642857D01*
X96404761Y-74738095D01*
X96309523Y-74785714D01*
X96119047Y-74833333D01*
X95976190Y-74833333D01*
X95785714Y-74785714D01*
X95690476Y-74738095D01*
X95595238Y-74642857D01*
X95547619Y-74500000D01*
X95547619Y-74261904D01*
X95547619Y-76023809D02*
X96547619Y-76023809D01*
X95547619Y-76595238D02*
X96119047Y-76166666D01*
X96547619Y-76595238D02*
X95976190Y-76023809D01*
X96071428Y-77023809D02*
X96071428Y-77357142D01*
X95547619Y-77500000D02*
X95547619Y-77023809D01*
X96547619Y-77023809D01*
X96547619Y-77500000D01*
X96023809Y-78119047D02*
X95547619Y-78119047D01*
X96547619Y-77785714D02*
X96023809Y-78119047D01*
X96547619Y-78452380D01*
X95547619Y-78785714D02*
X96547619Y-78785714D01*
X96547619Y-79166666D01*
X96500000Y-79261904D01*
X96452380Y-79309523D01*
X96357142Y-79357142D01*
X96214285Y-79357142D01*
X96119047Y-79309523D01*
X96071428Y-79261904D01*
X96023809Y-79166666D01*
X96023809Y-78785714D01*
X95833333Y-79738095D02*
X95833333Y-80214285D01*
X95547619Y-79642857D02*
X96547619Y-79976190D01*
X95547619Y-80309523D01*
X95547619Y-80642857D02*
X96547619Y-80642857D01*
X96547619Y-80880952D01*
X96500000Y-81023809D01*
X96404761Y-81119047D01*
X96309523Y-81166666D01*
X96119047Y-81214285D01*
X95976190Y-81214285D01*
X95785714Y-81166666D01*
X95690476Y-81119047D01*
X95595238Y-81023809D01*
X95547619Y-80880952D01*
X95547619Y-80642857D01*
X170166666Y-75952380D02*
X170166666Y-74952380D01*
X170547619Y-74952380D01*
X170642857Y-75000000D01*
X170690476Y-75047619D01*
X170738095Y-75142857D01*
X170738095Y-75285714D01*
X170690476Y-75380952D01*
X170642857Y-75428571D01*
X170547619Y-75476190D01*
X170166666Y-75476190D01*
X171071428Y-74952380D02*
X171309523Y-75952380D01*
X171500000Y-75238095D01*
X171690476Y-75952380D01*
X171928571Y-74952380D01*
X172309523Y-75952380D02*
X172309523Y-74952380D01*
X172547619Y-74952380D01*
X172690476Y-75000000D01*
X172785714Y-75095238D01*
X172833333Y-75190476D01*
X172880952Y-75380952D01*
X172880952Y-75523809D01*
X172833333Y-75714285D01*
X172785714Y-75809523D01*
X172690476Y-75904761D01*
X172547619Y-75952380D01*
X172309523Y-75952380D01*
X175571428Y-144452380D02*
X175761904Y-144452380D01*
X175857142Y-144500000D01*
X175952380Y-144595238D01*
X176000000Y-144785714D01*
X176000000Y-145119047D01*
X175952380Y-145309523D01*
X175857142Y-145404761D01*
X175761904Y-145452380D01*
X175571428Y-145452380D01*
X175476190Y-145404761D01*
X175380952Y-145309523D01*
X175333333Y-145119047D01*
X175333333Y-144785714D01*
X175380952Y-144595238D01*
X175476190Y-144500000D01*
X175571428Y-144452380D01*
X176428571Y-145452380D02*
X176428571Y-144452380D01*
X176809523Y-144452380D01*
X176904761Y-144500000D01*
X176952380Y-144547619D01*
X177000000Y-144642857D01*
X177000000Y-144785714D01*
X176952380Y-144880952D01*
X176904761Y-144928571D01*
X176809523Y-144976190D01*
X176428571Y-144976190D01*
X177428571Y-144928571D02*
X177761904Y-144928571D01*
X177904761Y-145452380D02*
X177428571Y-145452380D01*
X177428571Y-144452380D01*
X177904761Y-144452380D01*
X178333333Y-145452380D02*
X178333333Y-144452380D01*
X178904761Y-145452380D01*
X178904761Y-144452380D01*
X179142857Y-145547619D02*
X179904761Y-145547619D01*
X180095238Y-144547619D02*
X180142857Y-144500000D01*
X180238095Y-144452380D01*
X180476190Y-144452380D01*
X180571428Y-144500000D01*
X180619047Y-144547619D01*
X180666666Y-144642857D01*
X180666666Y-144738095D01*
X180619047Y-144880952D01*
X180047619Y-145452380D01*
X180666666Y-145452380D01*
D15*
X102023809Y-101833333D02*
X98690476Y-105166666D01*
X102023809Y-103500000D02*
X102023809Y-101833333D01*
X100357142Y-101833333D01*
D12*
X161555028Y-135641501D02*
X161555028Y-134879597D01*
X161935980Y-135260549D02*
X161174076Y-135260549D01*
X161935980Y-133879597D02*
X161935980Y-134451025D01*
X161935980Y-134165311D02*
X160935980Y-134165311D01*
X161078838Y-134260549D01*
X161174076Y-134355787D01*
X161221695Y-134451025D01*
X161031219Y-133498644D02*
X160983600Y-133451025D01*
X160935980Y-133355787D01*
X160935980Y-133117692D01*
X160983600Y-133022454D01*
X161031219Y-132974835D01*
X161126457Y-132927216D01*
X161221695Y-132927216D01*
X161364552Y-132974835D01*
X161935980Y-133546263D01*
X161935980Y-132927216D01*
X160935980Y-132641501D02*
X161935980Y-132308168D01*
X160935980Y-131974835D01*
X180535880Y-85851104D02*
X180535880Y-84851104D01*
X180773975Y-84851104D01*
X180916832Y-84898724D01*
X181012070Y-84993962D01*
X181059689Y-85089200D01*
X181107308Y-85279676D01*
X181107308Y-85422533D01*
X181059689Y-85613009D01*
X181012070Y-85708247D01*
X180916832Y-85803485D01*
X180773975Y-85851104D01*
X180535880Y-85851104D01*
X181488260Y-85565390D02*
X181964451Y-85565390D01*
X181393022Y-85851104D02*
X181726356Y-84851104D01*
X182059689Y-85851104D01*
X182250165Y-84851104D02*
X182821594Y-84851104D01*
X182535880Y-85851104D02*
X182535880Y-84851104D01*
X183107308Y-85565390D02*
X183583499Y-85565390D01*
X183012070Y-85851104D02*
X183345403Y-84851104D01*
X183678737Y-85851104D01*
X181238095Y-57500000D02*
X181142857Y-57452380D01*
X181000000Y-57452380D01*
X180857142Y-57500000D01*
X180761904Y-57595238D01*
X180714285Y-57690476D01*
X180666666Y-57880952D01*
X180666666Y-58023809D01*
X180714285Y-58214285D01*
X180761904Y-58309523D01*
X180857142Y-58404761D01*
X181000000Y-58452380D01*
X181095238Y-58452380D01*
X181238095Y-58404761D01*
X181285714Y-58357142D01*
X181285714Y-58023809D01*
X181095238Y-58023809D01*
X181714285Y-58452380D02*
X181714285Y-57452380D01*
X182285714Y-58452380D01*
X182285714Y-57452380D01*
X182761904Y-58452380D02*
X182761904Y-57452380D01*
X183000000Y-57452380D01*
X183142857Y-57500000D01*
X183238095Y-57595238D01*
X183285714Y-57690476D01*
X183333333Y-57880952D01*
X183333333Y-58023809D01*
X183285714Y-58214285D01*
X183238095Y-58309523D01*
X183142857Y-58404761D01*
X183000000Y-58452380D01*
X182761904Y-58452380D01*
X149748475Y-137499333D02*
X149700855Y-137594571D01*
X149700855Y-137737429D01*
X149748475Y-137880286D01*
X149843713Y-137975524D01*
X149938951Y-138023143D01*
X150129427Y-138070762D01*
X150272284Y-138070762D01*
X150462760Y-138023143D01*
X150557998Y-137975524D01*
X150653236Y-137880286D01*
X150700855Y-137737429D01*
X150700855Y-137642190D01*
X150653236Y-137499333D01*
X150605617Y-137451714D01*
X150272284Y-137451714D01*
X150272284Y-137642190D01*
X150700855Y-137023143D02*
X149700855Y-137023143D01*
X150700855Y-136451714D01*
X149700855Y-136451714D01*
X150700855Y-135975524D02*
X149700855Y-135975524D01*
X149700855Y-135737429D01*
X149748475Y-135594571D01*
X149843713Y-135499333D01*
X149938951Y-135451714D01*
X150129427Y-135404095D01*
X150272284Y-135404095D01*
X150462760Y-135451714D01*
X150557998Y-135499333D01*
X150653236Y-135594571D01*
X150700855Y-135737429D01*
X150700855Y-135975524D01*
D13*
X141357142Y-90178571D02*
X141357142Y-88678571D01*
X141857142Y-89750000D01*
X142357142Y-88678571D01*
X142357142Y-90178571D01*
X143714285Y-90178571D02*
X143714285Y-89392857D01*
X143642857Y-89250000D01*
X143500000Y-89178571D01*
X143214285Y-89178571D01*
X143071428Y-89250000D01*
X143714285Y-90107142D02*
X143571428Y-90178571D01*
X143214285Y-90178571D01*
X143071428Y-90107142D01*
X143000000Y-89964285D01*
X143000000Y-89821428D01*
X143071428Y-89678571D01*
X143214285Y-89607142D01*
X143571428Y-89607142D01*
X143714285Y-89535714D01*
X145071428Y-90178571D02*
X145071428Y-88678571D01*
X145071428Y-90107142D02*
X144928571Y-90178571D01*
X144642857Y-90178571D01*
X144500000Y-90107142D01*
X144428571Y-90035714D01*
X144357142Y-89892857D01*
X144357142Y-89464285D01*
X144428571Y-89321428D01*
X144500000Y-89250000D01*
X144642857Y-89178571D01*
X144928571Y-89178571D01*
X145071428Y-89250000D01*
X146357142Y-90107142D02*
X146214285Y-90178571D01*
X145928571Y-90178571D01*
X145785714Y-90107142D01*
X145714285Y-89964285D01*
X145714285Y-89392857D01*
X145785714Y-89250000D01*
X145928571Y-89178571D01*
X146214285Y-89178571D01*
X146357142Y-89250000D01*
X146428571Y-89392857D01*
X146428571Y-89535714D01*
X145714285Y-89678571D01*
X148000000Y-89178571D02*
X148571428Y-89178571D01*
X148214285Y-90178571D02*
X148214285Y-88892857D01*
X148285714Y-88750000D01*
X148428571Y-88678571D01*
X148571428Y-88678571D01*
X149285714Y-90178571D02*
X149142857Y-90107142D01*
X149071428Y-90035714D01*
X149000000Y-89892857D01*
X149000000Y-89464285D01*
X149071428Y-89321428D01*
X149142857Y-89250000D01*
X149285714Y-89178571D01*
X149500000Y-89178571D01*
X149642857Y-89250000D01*
X149714285Y-89321428D01*
X149785714Y-89464285D01*
X149785714Y-89892857D01*
X149714285Y-90035714D01*
X149642857Y-90107142D01*
X149500000Y-90178571D01*
X149285714Y-90178571D01*
X150428571Y-90178571D02*
X150428571Y-89178571D01*
X150428571Y-89464285D02*
X150500000Y-89321428D01*
X150571428Y-89250000D01*
X150714285Y-89178571D01*
X150857142Y-89178571D01*
D12*
X170214285Y-72785714D02*
X170928571Y-72785714D01*
X170500000Y-72357142D02*
X170214285Y-73642857D01*
X170833333Y-73214285D02*
X170119047Y-73214285D01*
X170547619Y-73642857D02*
X170833333Y-72357142D01*
X171785714Y-73452380D02*
X171214285Y-73452380D01*
X171500000Y-73452380D02*
X171500000Y-72452380D01*
X171404761Y-72595238D01*
X171309523Y-72690476D01*
X171214285Y-72738095D01*
X181251404Y-71032980D02*
X181156166Y-70985360D01*
X181013309Y-70985360D01*
X180870451Y-71032980D01*
X180775213Y-71128218D01*
X180727594Y-71223456D01*
X180679975Y-71413932D01*
X180679975Y-71556789D01*
X180727594Y-71747265D01*
X180775213Y-71842503D01*
X180870451Y-71937741D01*
X181013309Y-71985360D01*
X181108547Y-71985360D01*
X181251404Y-71937741D01*
X181299023Y-71890122D01*
X181299023Y-71556789D01*
X181108547Y-71556789D01*
X181727594Y-71985360D02*
X181727594Y-70985360D01*
X182299023Y-71985360D01*
X182299023Y-70985360D01*
X182775213Y-71985360D02*
X182775213Y-70985360D01*
X183013309Y-70985360D01*
X183156166Y-71032980D01*
X183251404Y-71128218D01*
X183299023Y-71223456D01*
X183346642Y-71413932D01*
X183346642Y-71556789D01*
X183299023Y-71747265D01*
X183251404Y-71842503D01*
X183156166Y-71937741D01*
X183013309Y-71985360D01*
X182775213Y-71985360D01*
X172332747Y-77643440D02*
X172237509Y-77595820D01*
X172094652Y-77595820D01*
X171951794Y-77643440D01*
X171856556Y-77738678D01*
X171808937Y-77833916D01*
X171761318Y-78024392D01*
X171761318Y-78167249D01*
X171808937Y-78357725D01*
X171856556Y-78452963D01*
X171951794Y-78548201D01*
X172094652Y-78595820D01*
X172189890Y-78595820D01*
X172332747Y-78548201D01*
X172380366Y-78500582D01*
X172380366Y-78167249D01*
X172189890Y-78167249D01*
X172808937Y-78595820D02*
X172808937Y-77595820D01*
X173380366Y-78595820D01*
X173380366Y-77595820D01*
X173856556Y-78595820D02*
X173856556Y-77595820D01*
X174094652Y-77595820D01*
X174237509Y-77643440D01*
X174332747Y-77738678D01*
X174380366Y-77833916D01*
X174427985Y-78024392D01*
X174427985Y-78167249D01*
X174380366Y-78357725D01*
X174332747Y-78452963D01*
X174237509Y-78548201D01*
X174094652Y-78595820D01*
X173856556Y-78595820D01*
X177476797Y-135497028D02*
X177476797Y-135306552D01*
X177524417Y-135211314D01*
X177619655Y-135116076D01*
X177810131Y-135068457D01*
X178143464Y-135068457D01*
X178333940Y-135116076D01*
X178429178Y-135211314D01*
X178476797Y-135306552D01*
X178476797Y-135497028D01*
X178429178Y-135592266D01*
X178333940Y-135687504D01*
X178143464Y-135735123D01*
X177810131Y-135735123D01*
X177619655Y-135687504D01*
X177524417Y-135592266D01*
X177476797Y-135497028D01*
X178476797Y-134639885D02*
X177476797Y-134639885D01*
X177476797Y-134258933D01*
X177524417Y-134163695D01*
X177572036Y-134116076D01*
X177667274Y-134068457D01*
X177810131Y-134068457D01*
X177905369Y-134116076D01*
X177952988Y-134163695D01*
X178000607Y-134258933D01*
X178000607Y-134639885D01*
X177952988Y-133639885D02*
X177952988Y-133306552D01*
X178476797Y-133163695D02*
X178476797Y-133639885D01*
X177476797Y-133639885D01*
X177476797Y-133163695D01*
X178476797Y-132735123D02*
X177476797Y-132735123D01*
X178476797Y-132163695D01*
X177476797Y-132163695D01*
X175579445Y-135567101D02*
X175579445Y-134805197D01*
X175960397Y-135186149D02*
X175198493Y-135186149D01*
X175960397Y-133805197D02*
X175960397Y-134376625D01*
X175960397Y-134090911D02*
X174960397Y-134090911D01*
X175103255Y-134186149D01*
X175198493Y-134281387D01*
X175246112Y-134376625D01*
X175055636Y-133424244D02*
X175008017Y-133376625D01*
X174960397Y-133281387D01*
X174960397Y-133043292D01*
X175008017Y-132948054D01*
X175055636Y-132900435D01*
X175150874Y-132852816D01*
X175246112Y-132852816D01*
X175388969Y-132900435D01*
X175960397Y-133471863D01*
X175960397Y-132852816D01*
X174960397Y-132567101D02*
X175960397Y-132233768D01*
X174960397Y-131900435D01*
X98192738Y-131842380D02*
X98526071Y-132842380D01*
X98859404Y-131842380D01*
X98954642Y-132937619D02*
X99716547Y-132937619D01*
X99954642Y-132842380D02*
X99954642Y-131842380D01*
X100430833Y-132842380D02*
X100430833Y-131842380D01*
X101002261Y-132842380D01*
X101002261Y-131842380D01*
X98859404Y-134452380D02*
X98287976Y-134452380D01*
X98573690Y-134452380D02*
X98573690Y-133452380D01*
X98478452Y-133595238D01*
X98383214Y-133690476D01*
X98287976Y-133738095D01*
X99430833Y-133880952D02*
X99335595Y-133833333D01*
X99287976Y-133785714D01*
X99240357Y-133690476D01*
X99240357Y-133642857D01*
X99287976Y-133547619D01*
X99335595Y-133500000D01*
X99430833Y-133452380D01*
X99621309Y-133452380D01*
X99716547Y-133500000D01*
X99764166Y-133547619D01*
X99811785Y-133642857D01*
X99811785Y-133690476D01*
X99764166Y-133785714D01*
X99716547Y-133833333D01*
X99621309Y-133880952D01*
X99430833Y-133880952D01*
X99335595Y-133928571D01*
X99287976Y-133976190D01*
X99240357Y-134071428D01*
X99240357Y-134261904D01*
X99287976Y-134357142D01*
X99335595Y-134404761D01*
X99430833Y-134452380D01*
X99621309Y-134452380D01*
X99716547Y-134404761D01*
X99764166Y-134357142D01*
X99811785Y-134261904D01*
X99811785Y-134071428D01*
X99764166Y-133976190D01*
X99716547Y-133928571D01*
X99621309Y-133880952D01*
X100097500Y-133452380D02*
X100430833Y-134452380D01*
X100764166Y-133452380D01*
X101097500Y-134071428D02*
X101859404Y-134071428D01*
X102287976Y-133547619D02*
X102335595Y-133500000D01*
X102430833Y-133452380D01*
X102668928Y-133452380D01*
X102764166Y-133500000D01*
X102811785Y-133547619D01*
X102859404Y-133642857D01*
X102859404Y-133738095D01*
X102811785Y-133880952D01*
X102240357Y-134452380D01*
X102859404Y-134452380D01*
X103478452Y-133452380D02*
X103573690Y-133452380D01*
X103668928Y-133500000D01*
X103716547Y-133547619D01*
X103764166Y-133642857D01*
X103811785Y-133833333D01*
X103811785Y-134071428D01*
X103764166Y-134261904D01*
X103716547Y-134357142D01*
X103668928Y-134404761D01*
X103573690Y-134452380D01*
X103478452Y-134452380D01*
X103383214Y-134404761D01*
X103335595Y-134357142D01*
X103287976Y-134261904D01*
X103240357Y-134071428D01*
X103240357Y-133833333D01*
X103287976Y-133642857D01*
X103335595Y-133547619D01*
X103383214Y-133500000D01*
X103478452Y-133452380D01*
X104097500Y-133452380D02*
X104430833Y-134452380D01*
X104764166Y-133452380D01*
X98335595Y-136062380D02*
X98335595Y-135062380D01*
X98668928Y-135776666D01*
X99002261Y-135062380D01*
X99002261Y-136062380D01*
X99430833Y-135776666D02*
X99907023Y-135776666D01*
X99335595Y-136062380D02*
X99668928Y-135062380D01*
X100002261Y-136062380D01*
X100240357Y-135062380D02*
X100907023Y-136062380D01*
X100907023Y-135062380D02*
X100240357Y-136062380D01*
X102002261Y-135157619D02*
X102049880Y-135110000D01*
X102145119Y-135062380D01*
X102383214Y-135062380D01*
X102478452Y-135110000D01*
X102526071Y-135157619D01*
X102573690Y-135252857D01*
X102573690Y-135348095D01*
X102526071Y-135490952D01*
X101954642Y-136062380D01*
X102573690Y-136062380D01*
X103430833Y-135395714D02*
X103430833Y-136062380D01*
X103192738Y-135014761D02*
X102954642Y-135729047D01*
X103573690Y-135729047D01*
X103811785Y-135062380D02*
X104145119Y-136062380D01*
X104478452Y-135062380D01*
X157714285Y-78071428D02*
X158476190Y-78071428D01*
X158095238Y-78452380D02*
X158095238Y-77690476D01*
X159428571Y-77452380D02*
X158952380Y-77452380D01*
X158904761Y-77928571D01*
X158952380Y-77880952D01*
X159047619Y-77833333D01*
X159285714Y-77833333D01*
X159380952Y-77880952D01*
X159428571Y-77928571D01*
X159476190Y-78023809D01*
X159476190Y-78261904D01*
X159428571Y-78357142D01*
X159380952Y-78404761D01*
X159285714Y-78452380D01*
X159047619Y-78452380D01*
X158952380Y-78404761D01*
X158904761Y-78357142D01*
X159761904Y-77452380D02*
X160095238Y-78452380D01*
X160428571Y-77452380D01*
X166191606Y-134939101D02*
X166143986Y-135034339D01*
X166143986Y-135177197D01*
X166191606Y-135320054D01*
X166286844Y-135415292D01*
X166382082Y-135462911D01*
X166572558Y-135510530D01*
X166715415Y-135510530D01*
X166905891Y-135462911D01*
X167001129Y-135415292D01*
X167096367Y-135320054D01*
X167143986Y-135177197D01*
X167143986Y-135081958D01*
X167096367Y-134939101D01*
X167048748Y-134891482D01*
X166715415Y-134891482D01*
X166715415Y-135081958D01*
X167143986Y-134462911D02*
X166143986Y-134462911D01*
X167143986Y-133891482D01*
X166143986Y-133891482D01*
X167143986Y-133415292D02*
X166143986Y-133415292D01*
X166143986Y-133177197D01*
X166191606Y-133034339D01*
X166286844Y-132939101D01*
X166382082Y-132891482D01*
X166572558Y-132843863D01*
X166715415Y-132843863D01*
X166905891Y-132891482D01*
X167001129Y-132939101D01*
X167096367Y-133034339D01*
X167143986Y-133177197D01*
X167143986Y-133415292D01*
X175571428Y-90452380D02*
X175761904Y-90452380D01*
X175857142Y-90500000D01*
X175952380Y-90595238D01*
X176000000Y-90785714D01*
X176000000Y-91119047D01*
X175952380Y-91309523D01*
X175857142Y-91404761D01*
X175761904Y-91452380D01*
X175571428Y-91452380D01*
X175476190Y-91404761D01*
X175380952Y-91309523D01*
X175333333Y-91119047D01*
X175333333Y-90785714D01*
X175380952Y-90595238D01*
X175476190Y-90500000D01*
X175571428Y-90452380D01*
X176428571Y-91452380D02*
X176428571Y-90452380D01*
X176809523Y-90452380D01*
X176904761Y-90500000D01*
X176952380Y-90547619D01*
X177000000Y-90642857D01*
X177000000Y-90785714D01*
X176952380Y-90880952D01*
X176904761Y-90928571D01*
X176809523Y-90976190D01*
X176428571Y-90976190D01*
X177428571Y-90928571D02*
X177761904Y-90928571D01*
X177904761Y-91452380D02*
X177428571Y-91452380D01*
X177428571Y-90452380D01*
X177904761Y-90452380D01*
X178333333Y-91452380D02*
X178333333Y-90452380D01*
X178904761Y-91452380D01*
X178904761Y-90452380D01*
X179142857Y-91547619D02*
X179904761Y-91547619D01*
X180095238Y-90547619D02*
X180142857Y-90500000D01*
X180238095Y-90452380D01*
X180476190Y-90452380D01*
X180571428Y-90500000D01*
X180619047Y-90547619D01*
X180666666Y-90642857D01*
X180666666Y-90738095D01*
X180619047Y-90880952D01*
X180047619Y-91452380D01*
X180666666Y-91452380D01*
X162642857Y-47928571D02*
X162785714Y-47976190D01*
X162833333Y-48023809D01*
X162880952Y-48119047D01*
X162880952Y-48261904D01*
X162833333Y-48357142D01*
X162785714Y-48404761D01*
X162690476Y-48452380D01*
X162309523Y-48452380D01*
X162309523Y-47452380D01*
X162642857Y-47452380D01*
X162738095Y-47500000D01*
X162785714Y-47547619D01*
X162833333Y-47642857D01*
X162833333Y-47738095D01*
X162785714Y-47833333D01*
X162738095Y-47880952D01*
X162642857Y-47928571D01*
X162309523Y-47928571D01*
X163500000Y-47452380D02*
X163690476Y-47452380D01*
X163785714Y-47500000D01*
X163880952Y-47595238D01*
X163928571Y-47785714D01*
X163928571Y-48119047D01*
X163880952Y-48309523D01*
X163785714Y-48404761D01*
X163690476Y-48452380D01*
X163500000Y-48452380D01*
X163404761Y-48404761D01*
X163309523Y-48309523D01*
X163261904Y-48119047D01*
X163261904Y-47785714D01*
X163309523Y-47595238D01*
X163404761Y-47500000D01*
X163500000Y-47452380D01*
X164547619Y-47452380D02*
X164738095Y-47452380D01*
X164833333Y-47500000D01*
X164928571Y-47595238D01*
X164976190Y-47785714D01*
X164976190Y-48119047D01*
X164928571Y-48309523D01*
X164833333Y-48404761D01*
X164738095Y-48452380D01*
X164547619Y-48452380D01*
X164452380Y-48404761D01*
X164357142Y-48309523D01*
X164309523Y-48119047D01*
X164309523Y-47785714D01*
X164357142Y-47595238D01*
X164452380Y-47500000D01*
X164547619Y-47452380D01*
X165261904Y-47452380D02*
X165833333Y-47452380D01*
X165547619Y-48452380D02*
X165547619Y-47452380D01*
X175527130Y-50696835D02*
X175527130Y-50125406D01*
X176527130Y-50411121D02*
X175527130Y-50411121D01*
X175527130Y-49887311D02*
X176527130Y-49220644D01*
X175527130Y-49220644D02*
X176527130Y-49887311D01*
X175527130Y-48649216D02*
X175527130Y-48458740D01*
X175574750Y-48363501D01*
X175669988Y-48268263D01*
X175860464Y-48220644D01*
X176193797Y-48220644D01*
X176384273Y-48268263D01*
X176479511Y-48363501D01*
X176527130Y-48458740D01*
X176527130Y-48649216D01*
X176479511Y-48744454D01*
X176384273Y-48839692D01*
X176193797Y-48887311D01*
X175860464Y-48887311D01*
X175669988Y-48839692D01*
X175574750Y-48744454D01*
X175527130Y-48649216D01*
X136287976Y-117666666D02*
X136764166Y-117666666D01*
X136192738Y-117952380D02*
X136526071Y-116952380D01*
X136859404Y-117952380D01*
X137621309Y-117952380D02*
X137621309Y-116952380D01*
X137621309Y-117904761D02*
X137526071Y-117952380D01*
X137335595Y-117952380D01*
X137240357Y-117904761D01*
X137192738Y-117857142D01*
X137145119Y-117761904D01*
X137145119Y-117476190D01*
X137192738Y-117380952D01*
X137240357Y-117333333D01*
X137335595Y-117285714D01*
X137526071Y-117285714D01*
X137621309Y-117333333D01*
X138097500Y-117285714D02*
X138097500Y-118142857D01*
X138049880Y-118238095D01*
X137954642Y-118285714D01*
X137907023Y-118285714D01*
X138097500Y-116952380D02*
X138049880Y-117000000D01*
X138097500Y-117047619D01*
X138145119Y-117000000D01*
X138097500Y-116952380D01*
X138097500Y-117047619D01*
X139002261Y-117285714D02*
X139002261Y-117952380D01*
X138573690Y-117285714D02*
X138573690Y-117809523D01*
X138621309Y-117904761D01*
X138716547Y-117952380D01*
X138859404Y-117952380D01*
X138954642Y-117904761D01*
X139002261Y-117857142D01*
X139430833Y-117904761D02*
X139526071Y-117952380D01*
X139716547Y-117952380D01*
X139811785Y-117904761D01*
X139859404Y-117809523D01*
X139859404Y-117761904D01*
X139811785Y-117666666D01*
X139716547Y-117619047D01*
X139573690Y-117619047D01*
X139478452Y-117571428D01*
X139430833Y-117476190D01*
X139430833Y-117428571D01*
X139478452Y-117333333D01*
X139573690Y-117285714D01*
X139716547Y-117285714D01*
X139811785Y-117333333D01*
X140145119Y-117285714D02*
X140526071Y-117285714D01*
X140287976Y-116952380D02*
X140287976Y-117809523D01*
X140335595Y-117904761D01*
X140430833Y-117952380D01*
X140526071Y-117952380D01*
X141478452Y-117285714D02*
X141859404Y-117285714D01*
X141621309Y-117952380D02*
X141621309Y-117095238D01*
X141668928Y-117000000D01*
X141764166Y-116952380D01*
X141859404Y-116952380D01*
X142335595Y-117952380D02*
X142240357Y-117904761D01*
X142192738Y-117857142D01*
X142145119Y-117761904D01*
X142145119Y-117476190D01*
X142192738Y-117380952D01*
X142240357Y-117333333D01*
X142335595Y-117285714D01*
X142478452Y-117285714D01*
X142573690Y-117333333D01*
X142621309Y-117380952D01*
X142668928Y-117476190D01*
X142668928Y-117761904D01*
X142621309Y-117857142D01*
X142573690Y-117904761D01*
X142478452Y-117952380D01*
X142335595Y-117952380D01*
X143097500Y-117952380D02*
X143097500Y-117285714D01*
X143097500Y-117476190D02*
X143145119Y-117380952D01*
X143192738Y-117333333D01*
X143287976Y-117285714D01*
X143383214Y-117285714D01*
X144954642Y-116952380D02*
X144478452Y-116952380D01*
X144430833Y-117428571D01*
X144478452Y-117380952D01*
X144573690Y-117333333D01*
X144811785Y-117333333D01*
X144907023Y-117380952D01*
X144954642Y-117428571D01*
X145002261Y-117523809D01*
X145002261Y-117761904D01*
X144954642Y-117857142D01*
X144907023Y-117904761D01*
X144811785Y-117952380D01*
X144573690Y-117952380D01*
X144478452Y-117904761D01*
X144430833Y-117857142D01*
X145287976Y-116952380D02*
X145621309Y-117952380D01*
X145954642Y-116952380D01*
X147192738Y-117952380D02*
X147097500Y-117904761D01*
X147049880Y-117857142D01*
X147002261Y-117761904D01*
X147002261Y-117476190D01*
X147049880Y-117380952D01*
X147097500Y-117333333D01*
X147192738Y-117285714D01*
X147335595Y-117285714D01*
X147430833Y-117333333D01*
X147478452Y-117380952D01*
X147526071Y-117476190D01*
X147526071Y-117761904D01*
X147478452Y-117857142D01*
X147430833Y-117904761D01*
X147335595Y-117952380D01*
X147192738Y-117952380D01*
X148383214Y-117285714D02*
X148383214Y-117952380D01*
X147954642Y-117285714D02*
X147954642Y-117809523D01*
X148002261Y-117904761D01*
X148097500Y-117952380D01*
X148240357Y-117952380D01*
X148335595Y-117904761D01*
X148383214Y-117857142D01*
X148716547Y-117285714D02*
X149097500Y-117285714D01*
X148859404Y-116952380D02*
X148859404Y-117809523D01*
X148907023Y-117904761D01*
X149002261Y-117952380D01*
X149097500Y-117952380D01*
X149430833Y-117285714D02*
X149430833Y-118285714D01*
X149430833Y-117333333D02*
X149526071Y-117285714D01*
X149716547Y-117285714D01*
X149811785Y-117333333D01*
X149859404Y-117380952D01*
X149907023Y-117476190D01*
X149907023Y-117761904D01*
X149859404Y-117857142D01*
X149811785Y-117904761D01*
X149716547Y-117952380D01*
X149526071Y-117952380D01*
X149430833Y-117904761D01*
X150764166Y-117285714D02*
X150764166Y-117952380D01*
X150335595Y-117285714D02*
X150335595Y-117809523D01*
X150383214Y-117904761D01*
X150478452Y-117952380D01*
X150621309Y-117952380D01*
X150716547Y-117904761D01*
X150764166Y-117857142D01*
X151097500Y-117285714D02*
X151478452Y-117285714D01*
X151240357Y-116952380D02*
X151240357Y-117809523D01*
X151287976Y-117904761D01*
X151383214Y-117952380D01*
X151478452Y-117952380D01*
X161571428Y-90452380D02*
X161761904Y-90452380D01*
X161857142Y-90500000D01*
X161952380Y-90595238D01*
X162000000Y-90785714D01*
X162000000Y-91119047D01*
X161952380Y-91309523D01*
X161857142Y-91404761D01*
X161761904Y-91452380D01*
X161571428Y-91452380D01*
X161476190Y-91404761D01*
X161380952Y-91309523D01*
X161333333Y-91119047D01*
X161333333Y-90785714D01*
X161380952Y-90595238D01*
X161476190Y-90500000D01*
X161571428Y-90452380D01*
X162428571Y-91452380D02*
X162428571Y-90452380D01*
X162809523Y-90452380D01*
X162904761Y-90500000D01*
X162952380Y-90547619D01*
X163000000Y-90642857D01*
X163000000Y-90785714D01*
X162952380Y-90880952D01*
X162904761Y-90928571D01*
X162809523Y-90976190D01*
X162428571Y-90976190D01*
X163428571Y-90928571D02*
X163761904Y-90928571D01*
X163904761Y-91452380D02*
X163428571Y-91452380D01*
X163428571Y-90452380D01*
X163904761Y-90452380D01*
X164333333Y-91452380D02*
X164333333Y-90452380D01*
X164904761Y-91452380D01*
X164904761Y-90452380D01*
X165142857Y-91547619D02*
X165904761Y-91547619D01*
X166666666Y-91452380D02*
X166095238Y-91452380D01*
X166380952Y-91452380D02*
X166380952Y-90452380D01*
X166285714Y-90595238D01*
X166190476Y-90690476D01*
X166095238Y-90738095D01*
D16*
X140011808Y-84071428D02*
X140487999Y-85404761D01*
X140964189Y-84071428D01*
X142964189Y-84452380D02*
X142868951Y-84357142D01*
X142678475Y-84261904D01*
X142487999Y-84261904D01*
X142297523Y-84357142D01*
X142202285Y-84452380D01*
X142107047Y-84642857D01*
X142107047Y-84833333D01*
X142202285Y-85023809D01*
X142297523Y-85119047D01*
X142487999Y-85214285D01*
X142678475Y-85214285D01*
X142868951Y-85119047D01*
X142964189Y-85023809D01*
X142964189Y-84261904D02*
X142964189Y-85023809D01*
X143059428Y-85119047D01*
X143154666Y-85119047D01*
X143345142Y-85023809D01*
X143440380Y-84833333D01*
X143440380Y-84357142D01*
X143249904Y-84071428D01*
X142964189Y-83880952D01*
X142583237Y-83785714D01*
X142202285Y-83880952D01*
X141916570Y-84071428D01*
X141726094Y-84357142D01*
X141630856Y-84738095D01*
X141726094Y-85119047D01*
X141916570Y-85404761D01*
X142202285Y-85595238D01*
X142583237Y-85690476D01*
X142964189Y-85595238D01*
X143249904Y-85404761D01*
X144297523Y-84071428D02*
X144297523Y-85404761D01*
X144297523Y-84261904D02*
X144392761Y-84166666D01*
X144583237Y-84071428D01*
X144868951Y-84071428D01*
X145059428Y-84166666D01*
X145154666Y-84357142D01*
X145154666Y-85404761D01*
X146964189Y-85309523D02*
X146773713Y-85404761D01*
X146392761Y-85404761D01*
X146202285Y-85309523D01*
X146107047Y-85214285D01*
X146011808Y-85023809D01*
X146011808Y-84452380D01*
X146107047Y-84261904D01*
X146202285Y-84166666D01*
X146392761Y-84071428D01*
X146773713Y-84071428D01*
X146964189Y-84166666D01*
X148583237Y-85309523D02*
X148392761Y-85404761D01*
X148011808Y-85404761D01*
X147821332Y-85309523D01*
X147726094Y-85119047D01*
X147726094Y-84357142D01*
X147821332Y-84166666D01*
X148011808Y-84071428D01*
X148392761Y-84071428D01*
X148583237Y-84166666D01*
X148678475Y-84357142D01*
X148678475Y-84547619D01*
X147726094Y-84738095D01*
X149535618Y-85214285D02*
X149630856Y-85309523D01*
X149535618Y-85404761D01*
X149440380Y-85309523D01*
X149535618Y-85214285D01*
X149535618Y-85404761D01*
X150487999Y-85404761D02*
X150487999Y-84071428D01*
X150487999Y-84261904D02*
X150583237Y-84166666D01*
X150773713Y-84071428D01*
X151059428Y-84071428D01*
X151249904Y-84166666D01*
X151345142Y-84357142D01*
X151345142Y-85404761D01*
X151345142Y-84357142D02*
X151440380Y-84166666D01*
X151630856Y-84071428D01*
X151916570Y-84071428D01*
X152107047Y-84166666D01*
X152202285Y-84357142D01*
X152202285Y-85404761D01*
X153916570Y-85309523D02*
X153726094Y-85404761D01*
X153345142Y-85404761D01*
X153154666Y-85309523D01*
X153059428Y-85119047D01*
X153059428Y-84357142D01*
X153154666Y-84166666D01*
X153345142Y-84071428D01*
X153726094Y-84071428D01*
X153916570Y-84166666D01*
X154011808Y-84357142D01*
X154011808Y-84547619D01*
X153059428Y-84738095D01*
D12*
X188952380Y-142664404D02*
X187952380Y-142664404D01*
X188952380Y-142092976D01*
X187952380Y-142092976D01*
X188428571Y-141283452D02*
X188428571Y-141616785D01*
X188952380Y-141616785D02*
X187952380Y-141616785D01*
X187952380Y-141140595D01*
X188857142Y-140188214D02*
X188904761Y-140235833D01*
X188952380Y-140378690D01*
X188952380Y-140473928D01*
X188904761Y-140616785D01*
X188809523Y-140712023D01*
X188714285Y-140759642D01*
X188523809Y-140807261D01*
X188380952Y-140807261D01*
X188190476Y-140759642D01*
X188095238Y-140712023D01*
X188000000Y-140616785D01*
X187952380Y-140473928D01*
X187952380Y-140378690D01*
X188000000Y-140235833D01*
X188047619Y-140188214D01*
X188952380Y-138997738D02*
X187952380Y-138997738D01*
X187952380Y-138759642D01*
X188000000Y-138616785D01*
X188095238Y-138521547D01*
X188190476Y-138473928D01*
X188380952Y-138426309D01*
X188523809Y-138426309D01*
X188714285Y-138473928D01*
X188809523Y-138521547D01*
X188904761Y-138616785D01*
X188952380Y-138759642D01*
X188952380Y-138997738D01*
X188952380Y-137854880D02*
X188904761Y-137950119D01*
X188857142Y-137997738D01*
X188761904Y-138045357D01*
X188476190Y-138045357D01*
X188380952Y-137997738D01*
X188333333Y-137950119D01*
X188285714Y-137854880D01*
X188285714Y-137712023D01*
X188333333Y-137616785D01*
X188380952Y-137569166D01*
X188476190Y-137521547D01*
X188761904Y-137521547D01*
X188857142Y-137569166D01*
X188904761Y-137616785D01*
X188952380Y-137712023D01*
X188952380Y-137854880D01*
X188952380Y-136950119D02*
X188904761Y-137045357D01*
X188857142Y-137092976D01*
X188761904Y-137140595D01*
X188476190Y-137140595D01*
X188380952Y-137092976D01*
X188333333Y-137045357D01*
X188285714Y-136950119D01*
X188285714Y-136807261D01*
X188333333Y-136712023D01*
X188380952Y-136664404D01*
X188476190Y-136616785D01*
X188761904Y-136616785D01*
X188857142Y-136664404D01*
X188904761Y-136712023D01*
X188952380Y-136807261D01*
X188952380Y-136950119D01*
X188952380Y-136188214D02*
X188285714Y-136188214D01*
X188476190Y-136188214D02*
X188380952Y-136140595D01*
X188333333Y-136092976D01*
X188285714Y-135997738D01*
X188285714Y-135902500D01*
X188857142Y-134235833D02*
X188904761Y-134283452D01*
X188952380Y-134426309D01*
X188952380Y-134521547D01*
X188904761Y-134664404D01*
X188809523Y-134759642D01*
X188714285Y-134807261D01*
X188523809Y-134854880D01*
X188380952Y-134854880D01*
X188190476Y-134807261D01*
X188095238Y-134759642D01*
X188000000Y-134664404D01*
X187952380Y-134521547D01*
X187952380Y-134426309D01*
X188000000Y-134283452D01*
X188047619Y-134235833D01*
X188952380Y-133664404D02*
X188904761Y-133759642D01*
X188857142Y-133807261D01*
X188761904Y-133854880D01*
X188476190Y-133854880D01*
X188380952Y-133807261D01*
X188333333Y-133759642D01*
X188285714Y-133664404D01*
X188285714Y-133521547D01*
X188333333Y-133426309D01*
X188380952Y-133378690D01*
X188476190Y-133331071D01*
X188761904Y-133331071D01*
X188857142Y-133378690D01*
X188904761Y-133426309D01*
X188952380Y-133521547D01*
X188952380Y-133664404D01*
X188285714Y-132902500D02*
X188952380Y-132902500D01*
X188380952Y-132902500D02*
X188333333Y-132854880D01*
X188285714Y-132759642D01*
X188285714Y-132616785D01*
X188333333Y-132521547D01*
X188428571Y-132473928D01*
X188952380Y-132473928D01*
X188285714Y-132140595D02*
X188285714Y-131759642D01*
X187952380Y-131997738D02*
X188809523Y-131997738D01*
X188904761Y-131950119D01*
X188952380Y-131854880D01*
X188952380Y-131759642D01*
X188952380Y-131426309D02*
X188285714Y-131426309D01*
X188476190Y-131426309D02*
X188380952Y-131378690D01*
X188333333Y-131331071D01*
X188285714Y-131235833D01*
X188285714Y-131140595D01*
X188952380Y-130664404D02*
X188904761Y-130759642D01*
X188857142Y-130807261D01*
X188761904Y-130854880D01*
X188476190Y-130854880D01*
X188380952Y-130807261D01*
X188333333Y-130759642D01*
X188285714Y-130664404D01*
X188285714Y-130521547D01*
X188333333Y-130426309D01*
X188380952Y-130378690D01*
X188476190Y-130331071D01*
X188761904Y-130331071D01*
X188857142Y-130378690D01*
X188904761Y-130426309D01*
X188952380Y-130521547D01*
X188952380Y-130664404D01*
X188952380Y-129759642D02*
X188904761Y-129854880D01*
X188809523Y-129902500D01*
X187952380Y-129902500D01*
X188952380Y-129235833D02*
X188904761Y-129331071D01*
X188809523Y-129378690D01*
X187952380Y-129378690D01*
X188904761Y-128473928D02*
X188952380Y-128569166D01*
X188952380Y-128759642D01*
X188904761Y-128854880D01*
X188809523Y-128902500D01*
X188428571Y-128902500D01*
X188333333Y-128854880D01*
X188285714Y-128759642D01*
X188285714Y-128569166D01*
X188333333Y-128473928D01*
X188428571Y-128426309D01*
X188523809Y-128426309D01*
X188619047Y-128902500D01*
X188952380Y-127997738D02*
X188285714Y-127997738D01*
X188476190Y-127997738D02*
X188380952Y-127950119D01*
X188333333Y-127902500D01*
X188285714Y-127807261D01*
X188285714Y-127712023D01*
X189333333Y-126331071D02*
X189285714Y-126378690D01*
X189142857Y-126473928D01*
X189047619Y-126521547D01*
X188904761Y-126569166D01*
X188666666Y-126616785D01*
X188476190Y-126616785D01*
X188238095Y-126569166D01*
X188095238Y-126521547D01*
X188000000Y-126473928D01*
X187857142Y-126378690D01*
X187809523Y-126331071D01*
X187952380Y-126092976D02*
X188952380Y-125759642D01*
X187952380Y-125426309D01*
X187952380Y-124902500D02*
X187952380Y-124807261D01*
X188000000Y-124712023D01*
X188047619Y-124664404D01*
X188142857Y-124616785D01*
X188333333Y-124569166D01*
X188571428Y-124569166D01*
X188761904Y-124616785D01*
X188857142Y-124664404D01*
X188904761Y-124712023D01*
X188952380Y-124807261D01*
X188952380Y-124902500D01*
X188904761Y-124997738D01*
X188857142Y-125045357D01*
X188761904Y-125092976D01*
X188571428Y-125140595D01*
X188333333Y-125140595D01*
X188142857Y-125092976D01*
X188047619Y-125045357D01*
X188000000Y-124997738D01*
X187952380Y-124902500D01*
X188857142Y-124140595D02*
X188904761Y-124092976D01*
X188952380Y-124140595D01*
X188904761Y-124188214D01*
X188857142Y-124140595D01*
X188952380Y-124140595D01*
X188952380Y-123140595D02*
X188952380Y-123712023D01*
X188952380Y-123426309D02*
X187952380Y-123426309D01*
X188095238Y-123521547D01*
X188190476Y-123616785D01*
X188238095Y-123712023D01*
X188047619Y-121997738D02*
X188000000Y-121950119D01*
X187952380Y-121854880D01*
X187952380Y-121616785D01*
X188000000Y-121521547D01*
X188047619Y-121473928D01*
X188142857Y-121426309D01*
X188238095Y-121426309D01*
X188380952Y-121473928D01*
X188952380Y-122045357D01*
X188952380Y-121426309D01*
X187952380Y-120807261D02*
X187952380Y-120712023D01*
X188000000Y-120616785D01*
X188047619Y-120569166D01*
X188142857Y-120521547D01*
X188333333Y-120473928D01*
X188571428Y-120473928D01*
X188761904Y-120521547D01*
X188857142Y-120569166D01*
X188904761Y-120616785D01*
X188952380Y-120712023D01*
X188952380Y-120807261D01*
X188904761Y-120902500D01*
X188857142Y-120950119D01*
X188761904Y-120997738D01*
X188571428Y-121045357D01*
X188333333Y-121045357D01*
X188142857Y-120997738D01*
X188047619Y-120950119D01*
X188000000Y-120902500D01*
X187952380Y-120807261D01*
X188047619Y-120092976D02*
X188000000Y-120045357D01*
X187952380Y-119950119D01*
X187952380Y-119712023D01*
X188000000Y-119616785D01*
X188047619Y-119569166D01*
X188142857Y-119521547D01*
X188238095Y-119521547D01*
X188380952Y-119569166D01*
X188952380Y-120140595D01*
X188952380Y-119521547D01*
X188047619Y-119140595D02*
X188000000Y-119092976D01*
X187952380Y-118997738D01*
X187952380Y-118759642D01*
X188000000Y-118664404D01*
X188047619Y-118616785D01*
X188142857Y-118569166D01*
X188238095Y-118569166D01*
X188380952Y-118616785D01*
X188952380Y-119188214D01*
X188952380Y-118569166D01*
X189333333Y-118235833D02*
X189285714Y-118188214D01*
X189142857Y-118092976D01*
X189047619Y-118045357D01*
X188904761Y-117997738D01*
X188666666Y-117950119D01*
X188476190Y-117950119D01*
X188238095Y-117997738D01*
X188095238Y-118045357D01*
X188000000Y-118092976D01*
X187857142Y-118188214D01*
X187809523Y-118235833D01*
X105925788Y-64463354D02*
X105830550Y-64415734D01*
X105687693Y-64415734D01*
X105544835Y-64463354D01*
X105449597Y-64558592D01*
X105401978Y-64653830D01*
X105354359Y-64844306D01*
X105354359Y-64987163D01*
X105401978Y-65177639D01*
X105449597Y-65272877D01*
X105544835Y-65368115D01*
X105687693Y-65415734D01*
X105782931Y-65415734D01*
X105925788Y-65368115D01*
X105973407Y-65320496D01*
X105973407Y-64987163D01*
X105782931Y-64987163D01*
X106401978Y-65415734D02*
X106401978Y-64415734D01*
X106973407Y-65415734D01*
X106973407Y-64415734D01*
X107449597Y-65415734D02*
X107449597Y-64415734D01*
X107687693Y-64415734D01*
X107830550Y-64463354D01*
X107925788Y-64558592D01*
X107973407Y-64653830D01*
X108021026Y-64844306D01*
X108021026Y-64987163D01*
X107973407Y-65177639D01*
X107925788Y-65272877D01*
X107830550Y-65368115D01*
X107687693Y-65415734D01*
X107449597Y-65415734D01*
G04 #@! TO.C,J10*
X124960476Y-135292380D02*
X124960476Y-136006666D01*
X124912857Y-136149523D01*
X124817619Y-136244761D01*
X124674761Y-136292380D01*
X124579523Y-136292380D01*
X125960476Y-136292380D02*
X125389047Y-136292380D01*
X125674761Y-136292380D02*
X125674761Y-135292380D01*
X125579523Y-135435238D01*
X125484285Y-135530476D01*
X125389047Y-135578095D01*
X126579523Y-135292380D02*
X126674761Y-135292380D01*
X126770000Y-135340000D01*
X126817619Y-135387619D01*
X126865238Y-135482857D01*
X126912857Y-135673333D01*
X126912857Y-135911428D01*
X126865238Y-136101904D01*
X126817619Y-136197142D01*
X126770000Y-136244761D01*
X126674761Y-136292380D01*
X126579523Y-136292380D01*
X126484285Y-136244761D01*
X126436666Y-136197142D01*
X126389047Y-136101904D01*
X126341428Y-135911428D01*
X126341428Y-135673333D01*
X126389047Y-135482857D01*
X126436666Y-135387619D01*
X126484285Y-135340000D01*
X126579523Y-135292380D01*
G04 #@! TO.C,J9*
X111166666Y-135792380D02*
X111166666Y-136506666D01*
X111119047Y-136649523D01*
X111023809Y-136744761D01*
X110880952Y-136792380D01*
X110785714Y-136792380D01*
X111690476Y-136792380D02*
X111880952Y-136792380D01*
X111976190Y-136744761D01*
X112023809Y-136697142D01*
X112119047Y-136554285D01*
X112166666Y-136363809D01*
X112166666Y-135982857D01*
X112119047Y-135887619D01*
X112071428Y-135840000D01*
X111976190Y-135792380D01*
X111785714Y-135792380D01*
X111690476Y-135840000D01*
X111642857Y-135887619D01*
X111595238Y-135982857D01*
X111595238Y-136220952D01*
X111642857Y-136316190D01*
X111690476Y-136363809D01*
X111785714Y-136411428D01*
X111976190Y-136411428D01*
X112071428Y-136363809D01*
X112119047Y-136316190D01*
X112166666Y-136220952D01*
G04 #@! TO.C,J13*
X130805061Y-139435789D02*
X130805061Y-140150075D01*
X130757442Y-140292932D01*
X130662204Y-140388170D01*
X130519346Y-140435789D01*
X130424108Y-140435789D01*
X131805061Y-140435789D02*
X131233632Y-140435789D01*
X131519346Y-140435789D02*
X131519346Y-139435789D01*
X131424108Y-139578647D01*
X131328870Y-139673885D01*
X131233632Y-139721504D01*
X132138394Y-139435789D02*
X132757442Y-139435789D01*
X132424108Y-139816742D01*
X132566965Y-139816742D01*
X132662204Y-139864361D01*
X132709823Y-139911980D01*
X132757442Y-140007218D01*
X132757442Y-140245313D01*
X132709823Y-140340551D01*
X132662204Y-140388170D01*
X132566965Y-140435789D01*
X132281251Y-140435789D01*
X132186013Y-140388170D01*
X132138394Y-140340551D01*
D17*
G04 #@! TO.C,J11*
X172270000Y-51670000D02*
X185030000Y-51670000D01*
X185030000Y-54330000D02*
X185030000Y-51670000D01*
X172270000Y-54330000D02*
X185030000Y-54330000D01*
X172270000Y-54330000D02*
X172270000Y-51670000D01*
X171000000Y-54330000D02*
X169670000Y-54330000D01*
X169670000Y-54330000D02*
X169670000Y-53000000D01*
G04 #@! TO.C,R7*
X131262742Y-66731676D02*
X131737258Y-66731676D01*
X131262742Y-67776676D02*
X131737258Y-67776676D01*
G04 #@! TO.C,D7*
X146987911Y-129672016D02*
X146987911Y-131957016D01*
X148457911Y-129672016D02*
X146987911Y-129672016D01*
X148457911Y-131957016D02*
X148457911Y-129672016D01*
G04 #@! TO.C,R34*
X112237258Y-67045000D02*
X111762742Y-67045000D01*
X112237258Y-66000000D02*
X111762742Y-66000000D01*
G04 #@! TO.C,Q3*
X161000000Y-103560000D02*
X160350000Y-103560000D01*
X161000000Y-100440000D02*
X159325000Y-100440000D01*
X161000000Y-103560000D02*
X161650000Y-103560000D01*
X161000000Y-100440000D02*
X161650000Y-100440000D01*
G04 #@! TO.C,C2*
X148307332Y-100130037D02*
X144397332Y-100130037D01*
X144397332Y-102000037D02*
X148307332Y-102000037D01*
X144397332Y-100130037D02*
X144397332Y-102000037D01*
G04 #@! TO.C,J10*
X125290000Y-143160000D02*
X126250000Y-143160000D01*
X127830000Y-142600000D02*
X128600000Y-142600000D01*
X122940000Y-142600000D02*
X123710000Y-142600000D01*
X125290000Y-142600000D02*
X126250000Y-142600000D01*
X122940000Y-137300000D02*
X128600000Y-137300000D01*
X128600000Y-136840000D02*
X128600000Y-143160000D01*
X127830000Y-143160000D02*
X128600000Y-143160000D01*
X122700000Y-142660000D02*
X122700000Y-143400000D01*
X122700000Y-143400000D02*
X123200000Y-143400000D01*
X122940000Y-143160000D02*
X123710000Y-143160000D01*
X122940000Y-136840000D02*
X128600000Y-136840000D01*
X122940000Y-136840000D02*
X122940000Y-143160000D01*
G04 #@! TO.C,R1*
X115522500Y-81237258D02*
X115522500Y-80762742D01*
X114477500Y-81237258D02*
X114477500Y-80762742D01*
G04 #@! TO.C,R10*
X137051891Y-128250807D02*
X137051891Y-127776291D01*
X138096891Y-128250807D02*
X138096891Y-127776291D01*
G04 #@! TO.C,R14*
X128765943Y-71290652D02*
X128291427Y-71290652D01*
X128765943Y-70245652D02*
X128291427Y-70245652D01*
G04 #@! TO.C,R2*
X125210000Y-90772936D02*
X125210000Y-95127064D01*
X121790000Y-90772936D02*
X121790000Y-95127064D01*
G04 #@! TO.C,D5*
X138315631Y-129650233D02*
X136845631Y-129650233D01*
X138315631Y-131935233D02*
X138315631Y-129650233D01*
X136845631Y-129650233D02*
X136845631Y-131935233D01*
G04 #@! TO.C,R13*
X128747608Y-69502500D02*
X128273092Y-69502500D01*
X128747608Y-68457500D02*
X128273092Y-68457500D01*
G04 #@! TO.C,R8*
X135522500Y-128237258D02*
X135522500Y-127762742D01*
X134477500Y-128237258D02*
X134477500Y-127762742D01*
G04 #@! TO.C,Q5*
X112000000Y-74340000D02*
X113675000Y-74340000D01*
X112000000Y-71220000D02*
X112650000Y-71220000D01*
X112000000Y-74340000D02*
X111350000Y-74340000D01*
X112000000Y-71220000D02*
X111350000Y-71220000D01*
G04 #@! TO.C,D9*
X141906877Y-129658467D02*
X141906877Y-131943467D01*
X143376877Y-131943467D02*
X143376877Y-129658467D01*
X143376877Y-129658467D02*
X141906877Y-129658467D01*
G04 #@! TO.C,D2*
X126850000Y-100900000D02*
X130150000Y-100900000D01*
X130150000Y-100900000D02*
X130150000Y-95500000D01*
X126850000Y-100900000D02*
X126850000Y-95500000D01*
G04 #@! TO.C,Q9*
X112000000Y-65082500D02*
X113675000Y-65082500D01*
X112000000Y-61962500D02*
X112650000Y-61962500D01*
X112000000Y-65082500D02*
X111350000Y-65082500D01*
X112000000Y-61962500D02*
X111350000Y-61962500D01*
G04 #@! TO.C,R21*
X176825242Y-76372512D02*
X177299758Y-76372512D01*
X176825242Y-75327512D02*
X177299758Y-75327512D01*
G04 #@! TO.C,R28*
X114477500Y-78017258D02*
X114477500Y-77542742D01*
X115522500Y-78017258D02*
X115522500Y-77542742D01*
G04 #@! TO.C,R20*
X174585000Y-72612754D02*
X174585000Y-73087270D01*
X173540000Y-72612754D02*
X173540000Y-73087270D01*
G04 #@! TO.C,C3*
X129030000Y-62056252D02*
X129030000Y-60633748D01*
X130850000Y-62056252D02*
X130850000Y-60633748D01*
G04 #@! TO.C,Q11*
X177000000Y-62262256D02*
X175325000Y-62262256D01*
X177000000Y-65382256D02*
X176350000Y-65382256D01*
X177000000Y-62262256D02*
X177650000Y-62262256D01*
X177000000Y-65382256D02*
X177650000Y-65382256D01*
G04 #@! TO.C,R4*
X134142500Y-62057258D02*
X134142500Y-61582742D01*
X133097500Y-62057258D02*
X133097500Y-61582742D01*
G04 #@! TO.C,J8*
X97600000Y-83200000D02*
X97600000Y-83700000D01*
X98340000Y-83200000D02*
X97600000Y-83200000D01*
X97840000Y-88330000D02*
X97840000Y-89100000D01*
X104160000Y-89100000D02*
X97840000Y-89100000D01*
X104160000Y-83440000D02*
X97840000Y-83440000D01*
X97840000Y-83440000D02*
X97840000Y-84210000D01*
X98400000Y-88330000D02*
X98400000Y-89100000D01*
X98400000Y-85790000D02*
X98400000Y-86750000D01*
X103700000Y-83440000D02*
X103700000Y-89100000D01*
X97840000Y-85790000D02*
X97840000Y-86750000D01*
X98400000Y-83440000D02*
X98400000Y-84210000D01*
X104160000Y-83440000D02*
X104160000Y-89100000D01*
G04 #@! TO.C,J5*
X98340000Y-69385000D02*
X97600000Y-69385000D01*
X104160000Y-80365000D02*
X97840000Y-80365000D01*
X104160000Y-69625000D02*
X97840000Y-69625000D01*
X97840000Y-69625000D02*
X97840000Y-80365000D01*
X103700000Y-69625000D02*
X103700000Y-80365000D01*
X97600000Y-69385000D02*
X97600000Y-69885000D01*
X98400000Y-69625000D02*
X98400000Y-80365000D01*
X104160000Y-69625000D02*
X104160000Y-80365000D01*
G04 #@! TO.C,SW4*
X174790000Y-94800000D02*
X174790000Y-97200000D01*
X174790000Y-92790000D02*
X174790000Y-93200000D01*
X181210000Y-99210000D02*
X181210000Y-98930000D01*
X181210000Y-93200000D02*
X181210000Y-92790000D01*
X174790000Y-98800000D02*
X174790000Y-99210000D01*
X174790000Y-99210000D02*
X181210000Y-99210000D01*
X181210000Y-92790000D02*
X174790000Y-92790000D01*
X181210000Y-97200000D02*
X181210000Y-94800000D01*
G04 #@! TO.C,U2*
X111050000Y-92920000D02*
X111050000Y-94420000D01*
X117950000Y-94420000D02*
X117680000Y-94420000D01*
X117950000Y-92920000D02*
X117950000Y-94420000D01*
X117680000Y-94420000D02*
X117680000Y-95520000D01*
X111320000Y-94420000D02*
X111320000Y-97250000D01*
X111050000Y-94420000D02*
X111320000Y-94420000D01*
G04 #@! TO.C,Q1*
X177062500Y-74410012D02*
X177712500Y-74410012D01*
X177062500Y-71290012D02*
X175387500Y-71290012D01*
X177062500Y-74410012D02*
X176412500Y-74410012D01*
X177062500Y-71290012D02*
X177712500Y-71290012D01*
G04 #@! TO.C,R12*
X148245411Y-128277906D02*
X148245411Y-127803390D01*
X147200411Y-128277906D02*
X147200411Y-127803390D01*
G04 #@! TO.C,R16*
X139585634Y-128291456D02*
X139585634Y-127816940D01*
X140630634Y-128291456D02*
X140630634Y-127816940D01*
G04 #@! TO.C,J1*
X162250000Y-143160000D02*
X163210000Y-143160000D01*
X159660000Y-142660000D02*
X159660000Y-143400000D01*
X159900000Y-137300000D02*
X168100000Y-137300000D01*
X164790000Y-143160000D02*
X165750000Y-143160000D01*
X164790000Y-142600000D02*
X165750000Y-142600000D01*
X159900000Y-136840000D02*
X168100000Y-136840000D01*
X159660000Y-143400000D02*
X160160000Y-143400000D01*
X168100000Y-136840000D02*
X168100000Y-143160000D01*
X159900000Y-143160000D02*
X160670000Y-143160000D01*
X167330000Y-143160000D02*
X168100000Y-143160000D01*
X159900000Y-136840000D02*
X159900000Y-143160000D01*
X159900000Y-142600000D02*
X160670000Y-142600000D01*
X167330000Y-142600000D02*
X168100000Y-142600000D01*
X162250000Y-142600000D02*
X163210000Y-142600000D01*
G04 #@! TO.C,D4*
X135745631Y-129650233D02*
X134275631Y-129650233D01*
X135745631Y-131935233D02*
X135745631Y-129650233D01*
X134275631Y-129650233D02*
X134275631Y-131935233D01*
G04 #@! TO.C,R38*
X176762742Y-67344756D02*
X177237258Y-67344756D01*
X176762742Y-66299756D02*
X177237258Y-66299756D01*
G04 #@! TO.C,R23*
X176592766Y-87477500D02*
X177067282Y-87477500D01*
X176592766Y-88522500D02*
X177067282Y-88522500D01*
G04 #@! TO.C,F2*
X120590000Y-129360000D02*
X123750000Y-129360000D01*
X127250000Y-106640000D02*
X130410000Y-106640000D01*
X130410000Y-106640000D02*
X130410000Y-129360000D01*
X120590000Y-106640000D02*
X123750000Y-106640000D01*
X120590000Y-106640000D02*
X120590000Y-129360000D01*
X127250000Y-129360000D02*
X130410000Y-129360000D01*
G04 #@! TO.C,R24*
X163477500Y-101762742D02*
X163477500Y-102237258D01*
X164522500Y-101762742D02*
X164522500Y-102237258D01*
G04 #@! TO.C,R40*
X177132766Y-56522500D02*
X177607282Y-56522500D01*
X177132766Y-55477500D02*
X177607282Y-55477500D01*
G04 #@! TO.C,Q10*
X181000000Y-100440000D02*
X181650000Y-100440000D01*
X181000000Y-103560000D02*
X181650000Y-103560000D01*
X181000000Y-100440000D02*
X179325000Y-100440000D01*
X181000000Y-103560000D02*
X180350000Y-103560000D01*
G04 #@! TO.C,F4*
X182910000Y-106640000D02*
X179750000Y-106640000D01*
X176250000Y-129360000D02*
X173090000Y-129360000D01*
X182910000Y-129360000D02*
X182910000Y-106640000D01*
X176250000Y-106640000D02*
X173090000Y-106640000D01*
X173090000Y-129360000D02*
X173090000Y-106640000D01*
X182910000Y-129360000D02*
X179750000Y-129360000D01*
G04 #@! TO.C,R31*
X115522500Y-58759758D02*
X115522500Y-58285242D01*
X114477500Y-58759758D02*
X114477500Y-58285242D01*
G04 #@! TO.C,Q6*
X112000000Y-76220000D02*
X112650000Y-76220000D01*
X112000000Y-79340000D02*
X113675000Y-79340000D01*
X112000000Y-76220000D02*
X111350000Y-76220000D01*
X112000000Y-79340000D02*
X111350000Y-79340000D01*
G04 #@! TO.C,D3*
X119100000Y-98350000D02*
X124500000Y-98350000D01*
X119100000Y-101650000D02*
X124500000Y-101650000D01*
X119100000Y-98350000D02*
X119100000Y-101650000D01*
G04 #@! TO.C,D6*
X145937718Y-131943467D02*
X145937718Y-129658467D01*
X145937718Y-129658467D02*
X144467718Y-129658467D01*
X144467718Y-129658467D02*
X144467718Y-131943467D01*
G04 #@! TO.C,Q4*
X167000000Y-103560000D02*
X166350000Y-103560000D01*
X167000000Y-103560000D02*
X167650000Y-103560000D01*
X167000000Y-100440000D02*
X167650000Y-100440000D01*
X167000000Y-100440000D02*
X165325000Y-100440000D01*
G04 #@! TO.C,R6*
X128747608Y-64977500D02*
X128273092Y-64977500D01*
X128747608Y-66022500D02*
X128273092Y-66022500D01*
G04 #@! TO.C,D1*
X117900000Y-101650000D02*
X117900000Y-98350000D01*
X117900000Y-98350000D02*
X112500000Y-98350000D01*
X117900000Y-101650000D02*
X112500000Y-101650000D01*
G04 #@! TO.C,R30*
X171477500Y-102237258D02*
X171477500Y-101762742D01*
X172522500Y-102237258D02*
X172522500Y-101762742D01*
G04 #@! TO.C,R27*
X112237258Y-69257500D02*
X111762742Y-69257500D01*
X112237258Y-70302500D02*
X111762742Y-70302500D01*
G04 #@! TO.C,J7*
X184947476Y-66987740D02*
X191267476Y-66987740D01*
X184947476Y-66987740D02*
X184947476Y-56247740D01*
X185407476Y-66987740D02*
X185407476Y-56247740D01*
X190707476Y-66987740D02*
X190707476Y-56247740D01*
X190767476Y-67227740D02*
X191507476Y-67227740D01*
X184947476Y-56247740D02*
X191267476Y-56247740D01*
X191507476Y-67227740D02*
X191507476Y-66727740D01*
X191267476Y-66987740D02*
X191267476Y-56247740D01*
G04 #@! TO.C,R37*
X173477500Y-63584998D02*
X173477500Y-64059514D01*
X174522500Y-63584998D02*
X174522500Y-64059514D01*
G04 #@! TO.C,J2*
X173660000Y-142660000D02*
X173660000Y-143400000D01*
X173900000Y-137300000D02*
X182100000Y-137300000D01*
X181330000Y-143160000D02*
X182100000Y-143160000D01*
X182100000Y-136840000D02*
X182100000Y-143160000D01*
X176250000Y-142600000D02*
X177210000Y-142600000D01*
X173900000Y-143160000D02*
X174670000Y-143160000D01*
X173900000Y-136840000D02*
X182100000Y-136840000D01*
X181330000Y-142600000D02*
X182100000Y-142600000D01*
X173660000Y-143400000D02*
X174160000Y-143400000D01*
X173900000Y-136840000D02*
X173900000Y-143160000D01*
X178790000Y-142600000D02*
X179750000Y-142600000D01*
X176250000Y-143160000D02*
X177210000Y-143160000D01*
X173900000Y-142600000D02*
X174670000Y-142600000D01*
X178790000Y-143160000D02*
X179750000Y-143160000D01*
G04 #@! TO.C,U1*
X133078000Y-108618000D02*
X154922000Y-108618000D01*
X154922000Y-108618000D02*
X154922000Y-125382000D01*
X154922000Y-125382000D02*
X133078000Y-125382000D01*
X133078000Y-125382000D02*
X133078000Y-108618000D01*
G04 #@! TO.C,R36*
X172522500Y-95762742D02*
X172522500Y-96237258D01*
X171477500Y-95762742D02*
X171477500Y-96237258D01*
G04 #@! TO.C,R18*
X143150827Y-128264357D02*
X143150827Y-127789841D01*
X142105827Y-128264357D02*
X142105827Y-127789841D01*
G04 #@! TO.C,Q7*
X175000000Y-100440000D02*
X175650000Y-100440000D01*
X175000000Y-100440000D02*
X173325000Y-100440000D01*
X175000000Y-103560000D02*
X174350000Y-103560000D01*
X175000000Y-103560000D02*
X175650000Y-103560000D01*
G04 #@! TO.C,C5*
X126140580Y-59490000D02*
X125859420Y-59490000D01*
X126140580Y-60510000D02*
X125859420Y-60510000D01*
G04 #@! TO.C,R3*
X118977500Y-95187258D02*
X118977500Y-94712742D01*
X120022500Y-95187258D02*
X120022500Y-94712742D01*
G04 #@! TO.C,R35*
X177477500Y-101762742D02*
X177477500Y-102237258D01*
X178522500Y-101762742D02*
X178522500Y-102237258D01*
G04 #@! TO.C,D8*
X139386683Y-129686750D02*
X139386683Y-131971750D01*
X140856683Y-129686750D02*
X139386683Y-129686750D01*
X140856683Y-131971750D02*
X140856683Y-129686750D01*
G04 #@! TO.C,R39*
X173477500Y-58812742D02*
X173477500Y-59287258D01*
X174522500Y-58812742D02*
X174522500Y-59287258D01*
G04 #@! TO.C,U3*
X141410000Y-101090000D02*
X140150000Y-101090000D01*
X134590000Y-101090000D02*
X135850000Y-101090000D01*
X141410000Y-104850000D02*
X141410000Y-101090000D01*
X134590000Y-107100000D02*
X134590000Y-101090000D01*
G04 #@! TO.C,SW2*
X161200000Y-50790000D02*
X160790000Y-50790000D01*
X162800000Y-57210000D02*
X165200000Y-57210000D01*
X166800000Y-57210000D02*
X167210000Y-57210000D01*
X167210000Y-57210000D02*
X167210000Y-50790000D01*
X160790000Y-50790000D02*
X160790000Y-57210000D01*
X165200000Y-50790000D02*
X162800000Y-50790000D01*
X160790000Y-57210000D02*
X161200000Y-57210000D01*
X167210000Y-50790000D02*
X166930000Y-50790000D01*
G04 #@! TO.C,Q2*
X176830024Y-83440000D02*
X175155024Y-83440000D01*
X176830024Y-83440000D02*
X177480024Y-83440000D01*
X176830024Y-86560000D02*
X177480024Y-86560000D01*
X176830024Y-86560000D02*
X176180024Y-86560000D01*
G04 #@! TO.C,J4*
X191160000Y-82130000D02*
X191160000Y-81360000D01*
X184840000Y-89560000D02*
X184840000Y-81360000D01*
X190600000Y-84670000D02*
X190600000Y-83710000D01*
X190600000Y-87210000D02*
X190600000Y-86250000D01*
X191160000Y-89560000D02*
X191160000Y-88790000D01*
X191160000Y-84670000D02*
X191160000Y-83710000D01*
X184840000Y-89560000D02*
X191160000Y-89560000D01*
X184840000Y-81360000D02*
X191160000Y-81360000D01*
X190660000Y-89800000D02*
X191400000Y-89800000D01*
X185300000Y-89560000D02*
X185300000Y-81360000D01*
X191160000Y-87210000D02*
X191160000Y-86250000D01*
X190600000Y-89560000D02*
X190600000Y-88790000D01*
X190600000Y-82130000D02*
X190600000Y-81360000D01*
X191400000Y-89800000D02*
X191400000Y-89300000D01*
G04 #@! TO.C,Q8*
X112000000Y-56962500D02*
X112650000Y-56962500D01*
X112000000Y-56962500D02*
X111350000Y-56962500D01*
X112000000Y-60082500D02*
X111350000Y-60082500D01*
X112000000Y-60082500D02*
X113675000Y-60082500D01*
G04 #@! TO.C,Q12*
X176937500Y-60560000D02*
X177587500Y-60560000D01*
X176937500Y-57440000D02*
X175262500Y-57440000D01*
X176937500Y-57440000D02*
X177587500Y-57440000D01*
X176937500Y-60560000D02*
X176287500Y-60560000D01*
G04 #@! TO.C,R33*
X115522500Y-63759758D02*
X115522500Y-63285242D01*
X114477500Y-63759758D02*
X114477500Y-63285242D01*
G04 #@! TO.C,F1*
X106090000Y-106640000D02*
X109250000Y-106640000D01*
X112750000Y-106640000D02*
X115910000Y-106640000D01*
X106090000Y-106640000D02*
X106090000Y-129360000D01*
X106090000Y-129360000D02*
X109250000Y-129360000D01*
X112750000Y-129360000D02*
X115910000Y-129360000D01*
X115910000Y-106640000D02*
X115910000Y-129360000D01*
G04 #@! TO.C,J6*
X98400000Y-55625000D02*
X98400000Y-66365000D01*
X98340000Y-55385000D02*
X97600000Y-55385000D01*
X103700000Y-55625000D02*
X103700000Y-66365000D01*
X104160000Y-66365000D02*
X97840000Y-66365000D01*
X97600000Y-55385000D02*
X97600000Y-55885000D01*
X104160000Y-55625000D02*
X104160000Y-66365000D01*
X104160000Y-55625000D02*
X97840000Y-55625000D01*
X97840000Y-55625000D02*
X97840000Y-66365000D01*
G04 #@! TO.C,R9*
X131273092Y-64977500D02*
X131747608Y-64977500D01*
X131273092Y-66022500D02*
X131747608Y-66022500D01*
G04 #@! TO.C,SW3*
X167210000Y-93200000D02*
X167210000Y-92790000D01*
X160790000Y-98800000D02*
X160790000Y-99210000D01*
X167210000Y-92790000D02*
X160790000Y-92790000D01*
X160790000Y-92790000D02*
X160790000Y-93200000D01*
X160790000Y-99210000D02*
X167210000Y-99210000D01*
X167210000Y-99210000D02*
X167210000Y-98930000D01*
X167210000Y-97200000D02*
X167210000Y-94800000D01*
X160790000Y-94800000D02*
X160790000Y-97200000D01*
G04 #@! TO.C,R29*
X111648731Y-80204316D02*
X112123247Y-80204316D01*
X111648731Y-81249316D02*
X112123247Y-81249316D01*
G04 #@! TO.C,R5*
X128737258Y-66731676D02*
X128262742Y-66731676D01*
X128737258Y-67776676D02*
X128262742Y-67776676D01*
G04 #@! TO.C,J9*
X114330000Y-137340000D02*
X114330000Y-143660000D01*
X113560000Y-143100000D02*
X114330000Y-143100000D01*
X108670000Y-137340000D02*
X114330000Y-137340000D01*
X111020000Y-143100000D02*
X111980000Y-143100000D01*
X113560000Y-143660000D02*
X114330000Y-143660000D01*
X108670000Y-143100000D02*
X109440000Y-143100000D01*
X108430000Y-143900000D02*
X108930000Y-143900000D01*
X108430000Y-143160000D02*
X108430000Y-143900000D01*
X108670000Y-137340000D02*
X108670000Y-143660000D01*
X111020000Y-143660000D02*
X111980000Y-143660000D01*
X108670000Y-143660000D02*
X109440000Y-143660000D01*
X108670000Y-137800000D02*
X114330000Y-137800000D01*
G04 #@! TO.C,R32*
X112237258Y-56045000D02*
X111762742Y-56045000D01*
X112237258Y-55000000D02*
X111762742Y-55000000D01*
G04 #@! TO.C,U4*
X135660000Y-58965000D02*
X135280000Y-58965000D01*
X153900000Y-52545000D02*
X153900000Y-58965000D01*
X153900000Y-78290000D02*
X152900000Y-78290000D01*
X135660000Y-77510000D02*
X135660000Y-78290000D01*
X135660000Y-52545000D02*
X153900000Y-52545000D01*
X135660000Y-52545000D02*
X135660000Y-58965000D01*
X153900000Y-77510000D02*
X153900000Y-78290000D01*
X135660000Y-78290000D02*
X136660000Y-78290000D01*
G04 #@! TO.C,R25*
X158522500Y-95762742D02*
X158522500Y-96237258D01*
X157477500Y-95762742D02*
X157477500Y-96237258D01*
G04 #@! TO.C,R17*
X131765943Y-71290652D02*
X131291427Y-71290652D01*
X131765943Y-70245652D02*
X131291427Y-70245652D01*
G04 #@! TO.C,RV1*
X108030000Y-91125000D02*
X102960000Y-91125000D01*
X108030000Y-91125000D02*
X108030000Y-100895000D01*
X102960000Y-91125000D02*
X102960000Y-100895000D01*
X108030000Y-100895000D02*
X102960000Y-100895000D01*
G04 #@! TO.C,R22*
X173307524Y-84762742D02*
X173307524Y-85237258D01*
X174352524Y-84762742D02*
X174352524Y-85237258D01*
G04 #@! TO.C,R19*
X158522500Y-102237258D02*
X158522500Y-101762742D01*
X157477500Y-102237258D02*
X157477500Y-101762742D01*
G04 #@! TO.C,J3*
X191160000Y-70670000D02*
X191160000Y-69900000D01*
X190600000Y-78100000D02*
X190600000Y-77330000D01*
X191400000Y-78340000D02*
X191400000Y-77840000D01*
X190600000Y-73210000D02*
X190600000Y-72250000D01*
X190600000Y-70670000D02*
X190600000Y-69900000D01*
X190600000Y-75750000D02*
X190600000Y-74790000D01*
X191160000Y-75750000D02*
X191160000Y-74790000D01*
X185300000Y-78100000D02*
X185300000Y-69900000D01*
X184840000Y-78100000D02*
X184840000Y-69900000D01*
X184840000Y-69900000D02*
X191160000Y-69900000D01*
X190660000Y-78340000D02*
X191400000Y-78340000D01*
X191160000Y-73210000D02*
X191160000Y-72250000D01*
X191160000Y-78100000D02*
X191160000Y-77330000D01*
X184840000Y-78100000D02*
X191160000Y-78100000D01*
G04 #@! TO.C,R15*
X131273092Y-69522500D02*
X131747608Y-69522500D01*
X131273092Y-68477500D02*
X131747608Y-68477500D01*
G04 #@! TO.C,R26*
X114477500Y-73017258D02*
X114477500Y-72542742D01*
X115522500Y-73017258D02*
X115522500Y-72542742D01*
G04 #@! TO.C,SW1*
X129045000Y-57390000D02*
X129045000Y-50970000D01*
X124635000Y-57390000D02*
X127035000Y-57390000D01*
X123035000Y-50970000D02*
X122625000Y-50970000D01*
X122625000Y-57390000D02*
X123035000Y-57390000D01*
X129045000Y-50970000D02*
X128765000Y-50970000D01*
X128635000Y-57390000D02*
X129045000Y-57390000D01*
X122625000Y-50970000D02*
X122625000Y-57390000D01*
X127035000Y-50970000D02*
X124635000Y-50970000D01*
G04 #@! TO.C,J13*
X135031669Y-141467882D02*
X133701669Y-141467882D01*
X136301669Y-138807882D02*
X154141669Y-138807882D01*
X133701669Y-141467882D02*
X133701669Y-140137882D01*
X154141669Y-141467882D02*
X154141669Y-138807882D01*
X136301669Y-141467882D02*
X154141669Y-141467882D01*
X136301669Y-141467882D02*
X136301669Y-138807882D01*
G04 #@! TO.C,R11*
X145725218Y-128264357D02*
X145725218Y-127789841D01*
X144680218Y-128264357D02*
X144680218Y-127789841D01*
G04 #@! TO.C,F3*
X162250000Y-129360000D02*
X159090000Y-129360000D01*
X168910000Y-129360000D02*
X165750000Y-129360000D01*
X162250000Y-106640000D02*
X159090000Y-106640000D01*
X159090000Y-129360000D02*
X159090000Y-106640000D01*
X168910000Y-129360000D02*
X168910000Y-106640000D01*
X168910000Y-106640000D02*
X165750000Y-106640000D01*
G04 #@! TO.C,C4*
X132450000Y-60760580D02*
X132450000Y-60479420D01*
X131430000Y-60760580D02*
X131430000Y-60479420D01*
G04 #@! TO.C,C1*
X144340000Y-105065000D02*
X144340000Y-106935000D01*
X144340000Y-106935000D02*
X148250000Y-106935000D01*
X148250000Y-105065000D02*
X144340000Y-105065000D01*
G04 #@! TO.C,J12*
X171220000Y-78620000D02*
X171220000Y-77620000D01*
X162020000Y-66590000D02*
X168520000Y-66590000D01*
X160710000Y-65290000D02*
X169830000Y-65290000D01*
X168520000Y-82030000D02*
X162020000Y-82030000D01*
X168520000Y-66590000D02*
X168520000Y-72260000D01*
X169830000Y-76360000D02*
X168520000Y-76360000D01*
X169830000Y-83330000D02*
X160710000Y-83330000D01*
X169830000Y-65290000D02*
X169830000Y-83330000D01*
X170220000Y-78120000D02*
X171220000Y-78620000D01*
X168520000Y-72260000D02*
X168520000Y-72260000D01*
X162020000Y-82030000D02*
X162020000Y-66590000D01*
X168520000Y-72260000D02*
X169830000Y-72260000D01*
X168520000Y-76360000D02*
X168520000Y-82030000D01*
X171220000Y-77620000D02*
X170220000Y-78120000D01*
X160710000Y-83330000D02*
X160710000Y-65290000D01*
G04 #@! TD*
M02*
