M48
; DRILL file {KiCad 6.0.6-3a73a75311~116~ubuntu22.04.1} date Thu Jun 30 16:49:10 2022
; FORMAT={-:-/ absolute / metric / decimal}
; #@! TF.CreationDate,2022-06-30T16:49:10+01:00
; #@! TF.GenerationSoftware,Kicad,Pcbnew,6.0.6-3a73a75311~116~ubuntu22.04.1
; #@! TF.FileFunction,MixedPlating,1,4
FMAT,2
METRIC
; #@! TA.AperFunction,Plated,PTH,ViaDrill
T1C0.400
; #@! TA.AperFunction,Plated,PTH,ComponentDrill
T2C0.762
; #@! TA.AperFunction,Plated,PTH,ComponentDrill
T3C0.800
; #@! TA.AperFunction,Plated,PTH,ComponentDrill
T4C1.000
; #@! TA.AperFunction,Plated,PTH,ComponentDrill
T5C1.100
; #@! TA.AperFunction,Plated,PTH,ViaDrill
T6C1.200
; #@! TA.AperFunction,Plated,PTH,ComponentDrill
T7C1.300
; #@! TA.AperFunction,Plated,PTH,ViaDrill
T8C1.500
; #@! TA.AperFunction,Plated,PTH,ViaDrill
T9C2.500
; #@! TA.AperFunction,NonPlated,NPTH,ComponentDrill
T10C1.100
; #@! TA.AperFunction,NonPlated,NPTH,ComponentDrill
T11C2.700
%
G90
G05
T1
X111.0Y-82.5
X113.0Y-68.0
X114.5Y-56.0
X118.5Y-97.5
X120.0Y-68.0
X120.5Y-60.0
X120.5Y-73.5
X121.0Y-78.775
X122.0Y-52.0
X122.0Y-67.5
X125.0Y-65.5
X127.5Y-72.0
X128.0Y-60.0
X128.5Y-61.5
X133.5Y-65.0
X133.512Y-70.524
X134.0Y-67.0
X134.0Y-69.0
X138.0Y-62.5
X138.0Y-71.5
X138.0Y-88.0
X139.0Y-75.5
X139.0Y-79.5
X142.275Y-106.512
X142.5Y-79.5
X143.0Y-102.0
X151.0Y-61.0
X161.0Y-60.0
X164.0Y-61.5
X164.5Y-59.0
X167.5Y-60.0
X170.0Y-89.0
X171.0Y-60.0
X174.0Y-57.0
X174.0Y-61.5
X174.0Y-70.5
X174.0Y-83.0
T2
X134.856Y-110.396
X134.856Y-112.936
X134.856Y-121.064
X134.856Y-123.604
X153.398Y-110.396
X153.398Y-112.936
X153.398Y-121.064
X153.398Y-123.604
T3
X105.5Y-93.47
X105.5Y-96.01
X105.5Y-98.55
T4
X135.032Y-140.138
X137.572Y-140.138
X140.112Y-140.138
X142.652Y-140.138
X145.192Y-140.138
X147.732Y-140.138
X150.272Y-140.138
X152.812Y-140.138
X164.0Y-70.5
X164.0Y-73.04
X164.0Y-75.58
X164.0Y-78.12
X166.54Y-70.5
X166.54Y-73.04
X166.54Y-75.58
X166.54Y-78.12
X171.0Y-53.0
X173.54Y-53.0
X176.08Y-53.0
X178.62Y-53.0
X181.16Y-53.0
X183.7Y-53.0
T5
X101.0Y-57.185
X101.0Y-59.725
X101.0Y-62.265
X101.0Y-64.805
X101.0Y-71.185
X101.0Y-73.725
X101.0Y-76.265
X101.0Y-78.805
X101.0Y-85.0
X101.0Y-87.54
X110.23Y-140.5
X112.77Y-140.5
X124.5Y-140.0
X127.04Y-140.0
X161.46Y-140.0
X164.0Y-140.0
X166.54Y-140.0
X175.46Y-140.0
X178.0Y-140.0
X180.54Y-140.0
X188.0Y-71.46
X188.0Y-74.0
X188.0Y-76.54
X188.0Y-82.92
X188.0Y-85.46
X188.0Y-88.0
X188.107Y-57.808
X188.107Y-60.348
X188.107Y-62.888
X188.107Y-65.428
T6
X124.5Y-103.0
X148.0Y-103.5
X158.5Y-105.0
X172.0Y-105.0
T7
X111.0Y-106.75
X111.0Y-129.25
X125.5Y-106.75
X125.5Y-129.25
X164.0Y-106.75
X164.0Y-129.25
X178.0Y-106.75
X178.0Y-129.25
T8
X168.0Y-105.0
X182.0Y-105.0
T9
X130.5Y-102.5
T10
X98.46Y-85.0
X98.46Y-87.54
X110.23Y-143.04
X112.77Y-143.04
X124.5Y-142.54
X127.04Y-142.54
X161.46Y-142.54
X164.0Y-142.54
X166.54Y-142.54
X175.46Y-142.54
X178.0Y-142.54
X180.54Y-142.54
X190.54Y-71.46
X190.54Y-74.0
X190.54Y-76.54
X190.54Y-82.92
X190.54Y-85.46
X190.54Y-88.0
T11
X111.0Y-118.0
X125.5Y-118.0
X164.0Y-118.0
X178.0Y-118.0
T0
M30
