G04 #@! TF.GenerationSoftware,KiCad,Pcbnew,6.0.6-3a73a75311~116~ubuntu22.04.1*
G04 #@! TF.CreationDate,2022-07-01T17:59:46+01:00*
G04 #@! TF.ProjectId,rLab_Door,724c6162-5f44-46f6-9f72-2e6b69636164,rev?*
G04 #@! TF.SameCoordinates,Original*
G04 #@! TF.FileFunction,Soldermask,Top*
G04 #@! TF.FilePolarity,Negative*
%FSLAX46Y46*%
G04 Gerber Fmt 4.6, Leading zero omitted, Abs format (unit mm)*
G04 Created by KiCad (PCBNEW 6.0.6-3a73a75311~116~ubuntu22.04.1) date 2022-07-01 17:59:46*
%MOMM*%
%LPD*%
G01*
G04 APERTURE LIST*
G04 Aperture macros list*
%AMRoundRect*
0 Rectangle with rounded corners*
0 $1 Rounding radius*
0 $2 $3 $4 $5 $6 $7 $8 $9 X,Y pos of 4 corners*
0 Add a 4 corners polygon primitive as box body*
4,1,4,$2,$3,$4,$5,$6,$7,$8,$9,$2,$3,0*
0 Add four circle primitives for the rounded corners*
1,1,$1+$1,$2,$3*
1,1,$1+$1,$4,$5*
1,1,$1+$1,$6,$7*
1,1,$1+$1,$8,$9*
0 Add four rect primitives between the rounded corners*
20,1,$1+$1,$2,$3,$4,$5,0*
20,1,$1+$1,$4,$5,$6,$7,0*
20,1,$1+$1,$6,$7,$8,$9,0*
20,1,$1+$1,$8,$9,$2,$3,0*%
G04 Aperture macros list end*
%ADD10R,1.700000X1.700000*%
%ADD11O,1.700000X1.700000*%
%ADD12RoundRect,0.200000X-0.200000X-0.275000X0.200000X-0.275000X0.200000X0.275000X-0.200000X0.275000X0*%
%ADD13RoundRect,0.218750X-0.256250X0.218750X-0.256250X-0.218750X0.256250X-0.218750X0.256250X0.218750X0*%
%ADD14RoundRect,0.200000X0.200000X0.275000X-0.200000X0.275000X-0.200000X-0.275000X0.200000X-0.275000X0*%
%ADD15RoundRect,0.150000X-0.587500X-0.150000X0.587500X-0.150000X0.587500X0.150000X-0.587500X0.150000X0*%
%ADD16RoundRect,0.250000X-0.450000X-0.425000X0.450000X-0.425000X0.450000X0.425000X-0.450000X0.425000X0*%
%ADD17C,1.100000*%
%ADD18R,2.200000X2.200000*%
%ADD19C,2.200000*%
%ADD20C,3.200000*%
%ADD21RoundRect,0.200000X0.275000X-0.200000X0.275000X0.200000X-0.275000X0.200000X-0.275000X-0.200000X0*%
%ADD22RoundRect,0.249999X-1.425001X0.450001X-1.425001X-0.450001X1.425001X-0.450001X1.425001X0.450001X0*%
%ADD23RoundRect,0.150000X0.587500X0.150000X-0.587500X0.150000X-0.587500X-0.150000X0.587500X-0.150000X0*%
%ADD24R,1.800000X2.500000*%
%ADD25RoundRect,0.200000X-0.275000X0.200000X-0.275000X-0.200000X0.275000X-0.200000X0.275000X0.200000X0*%
%ADD26RoundRect,0.250000X0.650000X-0.325000X0.650000X0.325000X-0.650000X0.325000X-0.650000X-0.325000X0*%
%ADD27R,2.800000X1.000000*%
%ADD28R,1.200000X2.200000*%
%ADD29R,5.800000X6.400000*%
%ADD30C,2.700000*%
%ADD31C,3.000000*%
%ADD32R,2.500000X1.800000*%
%ADD33C,1.524000*%
%ADD34RoundRect,0.225000X0.225000X0.250000X-0.225000X0.250000X-0.225000X-0.250000X0.225000X-0.250000X0*%
%ADD35R,1.500000X2.000000*%
%ADD36R,3.800000X2.000000*%
%ADD37R,1.000000X2.800000*%
%ADD38R,2.000000X0.900000*%
%ADD39R,0.900000X2.000000*%
%ADD40R,5.000000X5.000000*%
%ADD41C,1.440000*%
%ADD42RoundRect,0.225000X0.250000X-0.225000X0.250000X0.225000X-0.250000X0.225000X-0.250000X-0.225000X0*%
%ADD43RoundRect,0.250000X0.600000X0.600000X-0.600000X0.600000X-0.600000X-0.600000X0.600000X-0.600000X0*%
%ADD44C,1.700000*%
G04 APERTURE END LIST*
D10*
G04 #@! TO.C,J11*
X123000000Y-53000000D03*
D11*
X125540000Y-53000000D03*
X128080000Y-53000000D03*
X130620000Y-53000000D03*
X133160000Y-53000000D03*
X135700000Y-53000000D03*
G04 #@! TD*
D12*
G04 #@! TO.C,R7*
X82675000Y-67254176D03*
X84325000Y-67254176D03*
G04 #@! TD*
D13*
G04 #@! TO.C,D7*
X99722911Y-130369516D03*
X99722911Y-131944516D03*
G04 #@! TD*
D14*
G04 #@! TO.C,R34*
X64825000Y-66522500D03*
X63175000Y-66522500D03*
G04 #@! TD*
D15*
G04 #@! TO.C,Q3*
X112062500Y-101050000D03*
X112062500Y-102950000D03*
X113937500Y-102000000D03*
G04 #@! TD*
D16*
G04 #@! TO.C,C2*
X97357332Y-101065037D03*
X100057332Y-101065037D03*
G04 #@! TD*
D17*
G04 #@! TO.C,J10*
X79040000Y-142540000D03*
X76500000Y-142540000D03*
D18*
X76500000Y-140000000D03*
D19*
X79040000Y-140000000D03*
G04 #@! TD*
D20*
G04 #@! TO.C,REF\u002A\u002A*
X143000000Y-50000000D03*
G04 #@! TD*
D21*
G04 #@! TO.C,R1*
X67000000Y-81825000D03*
X67000000Y-80175000D03*
G04 #@! TD*
G04 #@! TO.C,R10*
X89574391Y-128838549D03*
X89574391Y-127188549D03*
G04 #@! TD*
D14*
G04 #@! TO.C,R14*
X81353685Y-70768152D03*
X79703685Y-70768152D03*
G04 #@! TD*
D22*
G04 #@! TO.C,R2*
X75500000Y-89900000D03*
X75500000Y-96000000D03*
G04 #@! TD*
D13*
G04 #@! TO.C,D5*
X89580631Y-130347733D03*
X89580631Y-131922733D03*
G04 #@! TD*
D14*
G04 #@! TO.C,R13*
X81335350Y-68980000D03*
X79685350Y-68980000D03*
G04 #@! TD*
D21*
G04 #@! TO.C,R8*
X87000000Y-128825000D03*
X87000000Y-127175000D03*
G04 #@! TD*
D23*
G04 #@! TO.C,Q5*
X64937500Y-73730000D03*
X64937500Y-71830000D03*
X63062500Y-72780000D03*
G04 #@! TD*
D13*
G04 #@! TO.C,D9*
X94641877Y-130355967D03*
X94641877Y-131930967D03*
G04 #@! TD*
D24*
G04 #@! TO.C,D2*
X80500000Y-99500000D03*
X80500000Y-95500000D03*
G04 #@! TD*
D23*
G04 #@! TO.C,Q9*
X64937500Y-64472500D03*
X64937500Y-62572500D03*
X63062500Y-63522500D03*
G04 #@! TD*
D12*
G04 #@! TO.C,R21*
X128237500Y-75850012D03*
X129887500Y-75850012D03*
G04 #@! TD*
D21*
G04 #@! TO.C,R28*
X67000000Y-78605000D03*
X67000000Y-76955000D03*
G04 #@! TD*
D25*
G04 #@! TO.C,R20*
X126062500Y-72025012D03*
X126062500Y-73675012D03*
G04 #@! TD*
D26*
G04 #@! TO.C,C3*
X81940000Y-62820000D03*
X81940000Y-59870000D03*
G04 #@! TD*
D15*
G04 #@! TO.C,Q11*
X128062500Y-62872256D03*
X128062500Y-64772256D03*
X129937500Y-63822256D03*
G04 #@! TD*
D21*
G04 #@! TO.C,R4*
X85620000Y-62645000D03*
X85620000Y-60995000D03*
G04 #@! TD*
D17*
G04 #@! TO.C,J8*
X50460000Y-87540000D03*
X50460000Y-85000000D03*
D18*
X53000000Y-85000000D03*
D19*
X53000000Y-87540000D03*
G04 #@! TD*
D18*
G04 #@! TO.C,J5*
X53000000Y-71185000D03*
D19*
X53000000Y-73725000D03*
X53000000Y-76265000D03*
X53000000Y-78805000D03*
G04 #@! TD*
D27*
G04 #@! TO.C,SW4*
X127100000Y-94000000D03*
X132900000Y-94000000D03*
X132900000Y-98000000D03*
X127100000Y-98000000D03*
G04 #@! TD*
D28*
G04 #@! TO.C,U2*
X64220000Y-96150000D03*
D29*
X66500000Y-89850000D03*
D28*
X68780000Y-96150000D03*
G04 #@! TD*
D15*
G04 #@! TO.C,Q1*
X128125000Y-71900012D03*
X128125000Y-73800012D03*
X130000000Y-72850012D03*
G04 #@! TD*
D20*
G04 #@! TO.C,REF\u002A\u002A*
X50000000Y-50000000D03*
G04 #@! TD*
D21*
G04 #@! TO.C,R12*
X99722911Y-128865648D03*
X99722911Y-127215648D03*
G04 #@! TD*
G04 #@! TO.C,R16*
X92108134Y-128879198D03*
X92108134Y-127229198D03*
G04 #@! TD*
D17*
G04 #@! TO.C,J1*
X113460000Y-142540000D03*
X116000000Y-142540000D03*
X118540000Y-142540000D03*
D18*
X113460000Y-140000000D03*
D19*
X116000000Y-140000000D03*
X118540000Y-140000000D03*
G04 #@! TD*
D13*
G04 #@! TO.C,D4*
X87010631Y-130347733D03*
X87010631Y-131922733D03*
G04 #@! TD*
D12*
G04 #@! TO.C,R38*
X128175000Y-66822256D03*
X129825000Y-66822256D03*
G04 #@! TD*
G04 #@! TO.C,R23*
X128005024Y-88000000D03*
X129655024Y-88000000D03*
G04 #@! TD*
D30*
G04 #@! TO.C,F2*
X77500000Y-118000000D03*
D31*
X77500000Y-106750000D03*
X77500000Y-129250000D03*
G04 #@! TD*
D25*
G04 #@! TO.C,R24*
X116000000Y-101175000D03*
X116000000Y-102825000D03*
G04 #@! TD*
D12*
G04 #@! TO.C,R40*
X128545024Y-56000000D03*
X130195024Y-56000000D03*
G04 #@! TD*
D15*
G04 #@! TO.C,Q10*
X132062500Y-101050000D03*
X132062500Y-102950000D03*
X133937500Y-102000000D03*
G04 #@! TD*
D30*
G04 #@! TO.C,F4*
X130000000Y-118000000D03*
D31*
X130000000Y-129250000D03*
X130000000Y-106750000D03*
G04 #@! TD*
D21*
G04 #@! TO.C,R31*
X67000000Y-59347500D03*
X67000000Y-57697500D03*
G04 #@! TD*
D23*
G04 #@! TO.C,Q6*
X64937500Y-78730000D03*
X64937500Y-76830000D03*
X63062500Y-77780000D03*
G04 #@! TD*
D32*
G04 #@! TO.C,D3*
X72500000Y-100000000D03*
X76500000Y-100000000D03*
G04 #@! TD*
D20*
G04 #@! TO.C,REF\u002A\u002A*
X50000000Y-143000000D03*
G04 #@! TD*
D13*
G04 #@! TO.C,D6*
X97202718Y-130355967D03*
X97202718Y-131930967D03*
G04 #@! TD*
D15*
G04 #@! TO.C,Q4*
X118062500Y-101050000D03*
X118062500Y-102950000D03*
X119937500Y-102000000D03*
G04 #@! TD*
D14*
G04 #@! TO.C,R6*
X81335350Y-65500000D03*
X79685350Y-65500000D03*
G04 #@! TD*
D32*
G04 #@! TO.C,D1*
X68500000Y-100000000D03*
X64500000Y-100000000D03*
G04 #@! TD*
D21*
G04 #@! TO.C,R30*
X124000000Y-102825000D03*
X124000000Y-101175000D03*
G04 #@! TD*
D14*
G04 #@! TO.C,R27*
X64825000Y-69780000D03*
X63175000Y-69780000D03*
G04 #@! TD*
D18*
G04 #@! TO.C,J7*
X140107476Y-65427740D03*
D19*
X140107476Y-62887740D03*
X140107476Y-60347740D03*
X140107476Y-57807740D03*
G04 #@! TD*
D25*
G04 #@! TO.C,R37*
X126000000Y-62997256D03*
X126000000Y-64647256D03*
G04 #@! TD*
D17*
G04 #@! TO.C,J2*
X132540000Y-142540000D03*
X130000000Y-142540000D03*
X127460000Y-142540000D03*
D18*
X127460000Y-140000000D03*
D19*
X130000000Y-140000000D03*
X132540000Y-140000000D03*
G04 #@! TD*
D33*
G04 #@! TO.C,U1*
X86856000Y-112936000D03*
X86856000Y-110396000D03*
X86856000Y-121064000D03*
X86856000Y-123604000D03*
X105398000Y-112936000D03*
X105398000Y-110396000D03*
X105398000Y-123604000D03*
X105398000Y-121064000D03*
G04 #@! TD*
D25*
G04 #@! TO.C,R36*
X124000000Y-95175000D03*
X124000000Y-96825000D03*
G04 #@! TD*
D21*
G04 #@! TO.C,R18*
X94628327Y-128852099D03*
X94628327Y-127202099D03*
G04 #@! TD*
D15*
G04 #@! TO.C,Q7*
X126062500Y-101050000D03*
X126062500Y-102950000D03*
X127937500Y-102000000D03*
G04 #@! TD*
D34*
G04 #@! TO.C,C5*
X78775000Y-60000000D03*
X77225000Y-60000000D03*
G04 #@! TD*
D21*
G04 #@! TO.C,R3*
X71500000Y-95775000D03*
X71500000Y-94125000D03*
G04 #@! TD*
D25*
G04 #@! TO.C,R35*
X130000000Y-101175000D03*
X130000000Y-102825000D03*
G04 #@! TD*
D13*
G04 #@! TO.C,D8*
X92121683Y-130384250D03*
X92121683Y-131959250D03*
G04 #@! TD*
D25*
G04 #@! TO.C,R39*
X126000000Y-58225000D03*
X126000000Y-59875000D03*
G04 #@! TD*
D35*
G04 #@! TO.C,U3*
X87700000Y-106150000D03*
X90000000Y-106150000D03*
D36*
X90000000Y-99850000D03*
D35*
X92300000Y-106150000D03*
G04 #@! TD*
D37*
G04 #@! TO.C,SW2*
X114000000Y-51100000D03*
X114000000Y-56900000D03*
X118000000Y-56900000D03*
X118000000Y-51100000D03*
G04 #@! TD*
D15*
G04 #@! TO.C,Q2*
X127892524Y-84050000D03*
X127892524Y-85950000D03*
X129767524Y-85000000D03*
G04 #@! TD*
D17*
G04 #@! TO.C,J4*
X142540000Y-82920000D03*
X142540000Y-85460000D03*
X142540000Y-88000000D03*
D18*
X140000000Y-88000000D03*
D19*
X140000000Y-85460000D03*
X140000000Y-82920000D03*
G04 #@! TD*
D23*
G04 #@! TO.C,Q8*
X64937500Y-59472500D03*
X64937500Y-57572500D03*
X63062500Y-58522500D03*
G04 #@! TD*
D15*
G04 #@! TO.C,Q12*
X128000000Y-58050000D03*
X128000000Y-59950000D03*
X129875000Y-59000000D03*
G04 #@! TD*
D21*
G04 #@! TO.C,R33*
X67000000Y-64347500D03*
X67000000Y-62697500D03*
G04 #@! TD*
D30*
G04 #@! TO.C,F1*
X63000000Y-118000000D03*
D31*
X63000000Y-106750000D03*
X63000000Y-129250000D03*
G04 #@! TD*
D18*
G04 #@! TO.C,J6*
X53000000Y-57185000D03*
D19*
X53000000Y-59725000D03*
X53000000Y-62265000D03*
X53000000Y-64805000D03*
G04 #@! TD*
D12*
G04 #@! TO.C,R9*
X82685350Y-65500000D03*
X84335350Y-65500000D03*
G04 #@! TD*
D27*
G04 #@! TO.C,SW3*
X118900000Y-94000000D03*
X113100000Y-94000000D03*
X118900000Y-98000000D03*
X113100000Y-98000000D03*
G04 #@! TD*
D12*
G04 #@! TO.C,R29*
X63060989Y-80726816D03*
X64710989Y-80726816D03*
G04 #@! TD*
D14*
G04 #@! TO.C,R5*
X81325000Y-67254176D03*
X79675000Y-67254176D03*
G04 #@! TD*
D17*
G04 #@! TO.C,J9*
X64770000Y-143040000D03*
X62230000Y-143040000D03*
D18*
X62230000Y-140500000D03*
D19*
X64770000Y-140500000D03*
G04 #@! TD*
D14*
G04 #@! TO.C,R32*
X64825000Y-55522500D03*
X63175000Y-55522500D03*
G04 #@! TD*
D38*
G04 #@! TO.C,U4*
X88280000Y-60155000D03*
X88280000Y-61425000D03*
X88280000Y-62695000D03*
X88280000Y-63965000D03*
X88280000Y-65235000D03*
X88280000Y-66505000D03*
X88280000Y-67775000D03*
X88280000Y-69045000D03*
X88280000Y-70315000D03*
X88280000Y-71585000D03*
X88280000Y-72855000D03*
X88280000Y-74125000D03*
X88280000Y-75395000D03*
X88280000Y-76665000D03*
D39*
X91065000Y-77665000D03*
X92335000Y-77665000D03*
X93605000Y-77665000D03*
X94875000Y-77665000D03*
X96145000Y-77665000D03*
X97415000Y-77665000D03*
X98685000Y-77665000D03*
X99955000Y-77665000D03*
X101225000Y-77665000D03*
X102495000Y-77665000D03*
D38*
X105280000Y-76665000D03*
X105280000Y-75395000D03*
X105280000Y-74125000D03*
X105280000Y-72855000D03*
X105280000Y-71585000D03*
X105280000Y-70315000D03*
X105280000Y-69045000D03*
X105280000Y-67775000D03*
X105280000Y-66505000D03*
X105280000Y-65235000D03*
X105280000Y-63965000D03*
X105280000Y-62695000D03*
X105280000Y-61425000D03*
X105280000Y-60155000D03*
D40*
X95780000Y-67655000D03*
G04 #@! TD*
D25*
G04 #@! TO.C,R25*
X110000000Y-95175000D03*
X110000000Y-96825000D03*
G04 #@! TD*
D14*
G04 #@! TO.C,R17*
X84353685Y-70768152D03*
X82703685Y-70768152D03*
G04 #@! TD*
D41*
G04 #@! TO.C,RV1*
X57500000Y-98550000D03*
X57500000Y-96010000D03*
X57500000Y-93470000D03*
G04 #@! TD*
D25*
G04 #@! TO.C,R22*
X125830024Y-84175000D03*
X125830024Y-85825000D03*
G04 #@! TD*
D21*
G04 #@! TO.C,R19*
X110000000Y-102825000D03*
X110000000Y-101175000D03*
G04 #@! TD*
D17*
G04 #@! TO.C,J3*
X142540000Y-76540000D03*
X142540000Y-74000000D03*
X142540000Y-71460000D03*
D18*
X140000000Y-76540000D03*
D19*
X140000000Y-74000000D03*
X140000000Y-71460000D03*
G04 #@! TD*
D12*
G04 #@! TO.C,R15*
X82685350Y-69000000D03*
X84335350Y-69000000D03*
G04 #@! TD*
D21*
G04 #@! TO.C,R26*
X67000000Y-73605000D03*
X67000000Y-71955000D03*
G04 #@! TD*
D37*
G04 #@! TO.C,SW1*
X75835000Y-57080000D03*
X75835000Y-51280000D03*
X79835000Y-57080000D03*
X79835000Y-51280000D03*
G04 #@! TD*
D10*
G04 #@! TO.C,J13*
X87031669Y-140137882D03*
D11*
X89571669Y-140137882D03*
X92111669Y-140137882D03*
X94651669Y-140137882D03*
X97191669Y-140137882D03*
X99731669Y-140137882D03*
X102271669Y-140137882D03*
X104811669Y-140137882D03*
G04 #@! TD*
D21*
G04 #@! TO.C,R11*
X97202718Y-128852099D03*
X97202718Y-127202099D03*
G04 #@! TD*
D30*
G04 #@! TO.C,F3*
X116000000Y-118000000D03*
D31*
X116000000Y-129250000D03*
X116000000Y-106750000D03*
G04 #@! TD*
D20*
G04 #@! TO.C,REF\u002A\u002A*
X143000000Y-143000000D03*
G04 #@! TD*
D42*
G04 #@! TO.C,C4*
X83940000Y-61395000D03*
X83940000Y-59845000D03*
G04 #@! TD*
D16*
G04 #@! TO.C,C1*
X97300000Y-106000000D03*
X100000000Y-106000000D03*
G04 #@! TD*
D43*
G04 #@! TO.C,J12*
X118540000Y-78120000D03*
D44*
X116000000Y-78120000D03*
X118540000Y-75580000D03*
X116000000Y-75580000D03*
X118540000Y-73040000D03*
X116000000Y-73040000D03*
X118540000Y-70500000D03*
X116000000Y-70500000D03*
G04 #@! TD*
M02*
