G04 #@! TF.GenerationSoftware,KiCad,Pcbnew,6.0.6-3a73a75311~116~ubuntu22.04.1*
G04 #@! TF.CreationDate,2022-07-01T17:35:29+01:00*
G04 #@! TF.ProjectId,rLab_Door,724c6162-5f44-46f6-9f72-2e6b69636164,rev?*
G04 #@! TF.SameCoordinates,Original*
G04 #@! TF.FileFunction,Soldermask,Bot*
G04 #@! TF.FilePolarity,Negative*
%FSLAX46Y46*%
G04 Gerber Fmt 4.6, Leading zero omitted, Abs format (unit mm)*
G04 Created by KiCad (PCBNEW 6.0.6-3a73a75311~116~ubuntu22.04.1) date 2022-07-01 17:35:29*
%MOMM*%
%LPD*%
G01*
G04 APERTURE LIST*
G04 Aperture macros list*
%AMRoundRect*
0 Rectangle with rounded corners*
0 $1 Rounding radius*
0 $2 $3 $4 $5 $6 $7 $8 $9 X,Y pos of 4 corners*
0 Add a 4 corners polygon primitive as box body*
4,1,4,$2,$3,$4,$5,$6,$7,$8,$9,$2,$3,0*
0 Add four circle primitives for the rounded corners*
1,1,$1+$1,$2,$3*
1,1,$1+$1,$4,$5*
1,1,$1+$1,$6,$7*
1,1,$1+$1,$8,$9*
0 Add four rect primitives between the rounded corners*
20,1,$1+$1,$2,$3,$4,$5,0*
20,1,$1+$1,$4,$5,$6,$7,0*
20,1,$1+$1,$6,$7,$8,$9,0*
20,1,$1+$1,$8,$9,$2,$3,0*%
G04 Aperture macros list end*
%ADD10R,1.700000X1.700000*%
%ADD11O,1.700000X1.700000*%
%ADD12C,1.100000*%
%ADD13R,2.200000X2.200000*%
%ADD14C,2.200000*%
%ADD15C,3.200000*%
%ADD16C,2.700000*%
%ADD17C,3.000000*%
%ADD18C,1.524000*%
%ADD19C,1.440000*%
%ADD20RoundRect,0.250000X0.600000X0.600000X-0.600000X0.600000X-0.600000X-0.600000X0.600000X-0.600000X0*%
%ADD21C,1.700000*%
G04 APERTURE END LIST*
D10*
G04 #@! TO.C,J11*
X123000000Y-53000000D03*
D11*
X125540000Y-53000000D03*
X128080000Y-53000000D03*
X130620000Y-53000000D03*
X133160000Y-53000000D03*
X135700000Y-53000000D03*
G04 #@! TD*
D12*
G04 #@! TO.C,J10*
X79040000Y-142540000D03*
X76500000Y-142540000D03*
D13*
X76500000Y-140000000D03*
D14*
X79040000Y-140000000D03*
G04 #@! TD*
D15*
G04 #@! TO.C,REF\u002A\u002A*
X143000000Y-50000000D03*
G04 #@! TD*
D12*
G04 #@! TO.C,J8*
X50460000Y-87540000D03*
X50460000Y-85000000D03*
D13*
X53000000Y-85000000D03*
D14*
X53000000Y-87540000D03*
G04 #@! TD*
D13*
G04 #@! TO.C,J5*
X53000000Y-71185000D03*
D14*
X53000000Y-73725000D03*
X53000000Y-76265000D03*
X53000000Y-78805000D03*
G04 #@! TD*
D15*
G04 #@! TO.C,REF\u002A\u002A*
X50000000Y-50000000D03*
G04 #@! TD*
D12*
G04 #@! TO.C,J1*
X113460000Y-142540000D03*
X116000000Y-142540000D03*
X118540000Y-142540000D03*
D13*
X113460000Y-140000000D03*
D14*
X116000000Y-140000000D03*
X118540000Y-140000000D03*
G04 #@! TD*
D16*
G04 #@! TO.C,F2*
X77500000Y-118000000D03*
D17*
X77500000Y-106750000D03*
X77500000Y-129250000D03*
G04 #@! TD*
D16*
G04 #@! TO.C,F4*
X130000000Y-118000000D03*
D17*
X130000000Y-129250000D03*
X130000000Y-106750000D03*
G04 #@! TD*
D15*
G04 #@! TO.C,REF\u002A\u002A*
X50000000Y-143000000D03*
G04 #@! TD*
D13*
G04 #@! TO.C,J7*
X140107476Y-65427740D03*
D14*
X140107476Y-62887740D03*
X140107476Y-60347740D03*
X140107476Y-57807740D03*
G04 #@! TD*
D12*
G04 #@! TO.C,J2*
X132540000Y-142540000D03*
X130000000Y-142540000D03*
X127460000Y-142540000D03*
D13*
X127460000Y-140000000D03*
D14*
X130000000Y-140000000D03*
X132540000Y-140000000D03*
G04 #@! TD*
D18*
G04 #@! TO.C,U1*
X86856000Y-112936000D03*
X86856000Y-110396000D03*
X86856000Y-121064000D03*
X86856000Y-123604000D03*
X105398000Y-112936000D03*
X105398000Y-110396000D03*
X105398000Y-123604000D03*
X105398000Y-121064000D03*
G04 #@! TD*
D12*
G04 #@! TO.C,J4*
X142540000Y-82920000D03*
X142540000Y-85460000D03*
X142540000Y-88000000D03*
D13*
X140000000Y-88000000D03*
D14*
X140000000Y-85460000D03*
X140000000Y-82920000D03*
G04 #@! TD*
D16*
G04 #@! TO.C,F1*
X63000000Y-118000000D03*
D17*
X63000000Y-106750000D03*
X63000000Y-129250000D03*
G04 #@! TD*
D13*
G04 #@! TO.C,J6*
X53000000Y-57185000D03*
D14*
X53000000Y-59725000D03*
X53000000Y-62265000D03*
X53000000Y-64805000D03*
G04 #@! TD*
D12*
G04 #@! TO.C,J9*
X64770000Y-143040000D03*
X62230000Y-143040000D03*
D13*
X62230000Y-140500000D03*
D14*
X64770000Y-140500000D03*
G04 #@! TD*
D19*
G04 #@! TO.C,RV1*
X57500000Y-98550000D03*
X57500000Y-96010000D03*
X57500000Y-93470000D03*
G04 #@! TD*
D12*
G04 #@! TO.C,J3*
X142540000Y-76540000D03*
X142540000Y-74000000D03*
X142540000Y-71460000D03*
D13*
X140000000Y-76540000D03*
D14*
X140000000Y-74000000D03*
X140000000Y-71460000D03*
G04 #@! TD*
D10*
G04 #@! TO.C,J13*
X87031669Y-140137882D03*
D11*
X89571669Y-140137882D03*
X92111669Y-140137882D03*
X94651669Y-140137882D03*
X97191669Y-140137882D03*
X99731669Y-140137882D03*
X102271669Y-140137882D03*
X104811669Y-140137882D03*
G04 #@! TD*
D16*
G04 #@! TO.C,F3*
X116000000Y-118000000D03*
D17*
X116000000Y-129250000D03*
X116000000Y-106750000D03*
G04 #@! TD*
D15*
G04 #@! TO.C,REF\u002A\u002A*
X143000000Y-143000000D03*
G04 #@! TD*
D20*
G04 #@! TO.C,J12*
X118540000Y-78120000D03*
D21*
X116000000Y-78120000D03*
X118540000Y-75580000D03*
X116000000Y-75580000D03*
X118540000Y-73040000D03*
X116000000Y-73040000D03*
X118540000Y-70500000D03*
X116000000Y-70500000D03*
G04 #@! TD*
M02*
