G04 #@! TF.GenerationSoftware,KiCad,Pcbnew,6.0.6-3a73a75311~116~ubuntu22.04.1*
G04 #@! TF.CreationDate,2022-06-30T16:49:10+01:00*
G04 #@! TF.ProjectId,rLab_Door,724c6162-5f44-46f6-9f72-2e6b69636164,rev?*
G04 #@! TF.SameCoordinates,Original*
G04 #@! TF.FileFunction,Other,Comment*
%FSLAX46Y46*%
G04 Gerber Fmt 4.6, Leading zero omitted, Abs format (unit mm)*
G04 Created by KiCad (PCBNEW 6.0.6-3a73a75311~116~ubuntu22.04.1) date 2022-06-30 16:49:10*
%MOMM*%
%LPD*%
G01*
G04 APERTURE LIST*
%ADD10C,0.100000*%
%ADD11C,0.150000*%
G04 APERTURE END LIST*
D10*
G04 #@! TO.C,U4*
X152306190Y-50073095D02*
X152306190Y-50311190D01*
X152544285Y-50335000D01*
X152520476Y-50311190D01*
X152496666Y-50263571D01*
X152496666Y-50144523D01*
X152520476Y-50096904D01*
X152544285Y-50073095D01*
X152591904Y-50049285D01*
X152710952Y-50049285D01*
X152758571Y-50073095D01*
X152782380Y-50096904D01*
X152806190Y-50144523D01*
X152806190Y-50263571D01*
X152782380Y-50311190D01*
X152758571Y-50335000D01*
X152806190Y-49454047D02*
X152472857Y-49454047D01*
X152520476Y-49454047D02*
X152496666Y-49430238D01*
X152472857Y-49382619D01*
X152472857Y-49311190D01*
X152496666Y-49263571D01*
X152544285Y-49239761D01*
X152806190Y-49239761D01*
X152544285Y-49239761D02*
X152496666Y-49215952D01*
X152472857Y-49168333D01*
X152472857Y-49096904D01*
X152496666Y-49049285D01*
X152544285Y-49025476D01*
X152806190Y-49025476D01*
X152806190Y-48787380D02*
X152472857Y-48787380D01*
X152520476Y-48787380D02*
X152496666Y-48763571D01*
X152472857Y-48715952D01*
X152472857Y-48644523D01*
X152496666Y-48596904D01*
X152544285Y-48573095D01*
X152806190Y-48573095D01*
X152544285Y-48573095D02*
X152496666Y-48549285D01*
X152472857Y-48501666D01*
X152472857Y-48430238D01*
X152496666Y-48382619D01*
X152544285Y-48358809D01*
X152806190Y-48358809D01*
D11*
X138708571Y-49862380D02*
X138708571Y-48862380D01*
X139280000Y-49862380D02*
X138851428Y-49290952D01*
X139280000Y-48862380D02*
X138708571Y-49433809D01*
X139708571Y-49338571D02*
X140041904Y-49338571D01*
X140184761Y-49862380D02*
X139708571Y-49862380D01*
X139708571Y-48862380D01*
X140184761Y-48862380D01*
X140613333Y-49338571D02*
X140946666Y-49338571D01*
X141089523Y-49862380D02*
X140613333Y-49862380D01*
X140613333Y-48862380D01*
X141089523Y-48862380D01*
X141518095Y-49862380D02*
X141518095Y-48862380D01*
X141899047Y-48862380D01*
X141994285Y-48910000D01*
X142041904Y-48957619D01*
X142089523Y-49052857D01*
X142089523Y-49195714D01*
X142041904Y-49290952D01*
X141994285Y-49338571D01*
X141899047Y-49386190D01*
X141518095Y-49386190D01*
X142518095Y-49481428D02*
X143280000Y-49481428D01*
X143946666Y-48862380D02*
X144137142Y-48862380D01*
X144232380Y-48910000D01*
X144327619Y-49005238D01*
X144375238Y-49195714D01*
X144375238Y-49529047D01*
X144327619Y-49719523D01*
X144232380Y-49814761D01*
X144137142Y-49862380D01*
X143946666Y-49862380D01*
X143851428Y-49814761D01*
X143756190Y-49719523D01*
X143708571Y-49529047D01*
X143708571Y-49195714D01*
X143756190Y-49005238D01*
X143851428Y-48910000D01*
X143946666Y-48862380D01*
X144803809Y-48862380D02*
X144803809Y-49671904D01*
X144851428Y-49767142D01*
X144899047Y-49814761D01*
X144994285Y-49862380D01*
X145184761Y-49862380D01*
X145280000Y-49814761D01*
X145327619Y-49767142D01*
X145375238Y-49671904D01*
X145375238Y-48862380D01*
X145708571Y-48862380D02*
X146280000Y-48862380D01*
X145994285Y-49862380D02*
X145994285Y-48862380D01*
X147280000Y-48862380D02*
X147946666Y-48862380D01*
X147280000Y-49862380D01*
X147946666Y-49862380D01*
X148518095Y-48862380D02*
X148708571Y-48862380D01*
X148803809Y-48910000D01*
X148899047Y-49005238D01*
X148946666Y-49195714D01*
X148946666Y-49529047D01*
X148899047Y-49719523D01*
X148803809Y-49814761D01*
X148708571Y-49862380D01*
X148518095Y-49862380D01*
X148422857Y-49814761D01*
X148327619Y-49719523D01*
X148280000Y-49529047D01*
X148280000Y-49195714D01*
X148327619Y-49005238D01*
X148422857Y-48910000D01*
X148518095Y-48862380D01*
X149375238Y-49862380D02*
X149375238Y-48862380D01*
X149946666Y-49862380D01*
X149946666Y-48862380D01*
X150422857Y-49338571D02*
X150756190Y-49338571D01*
X150899047Y-49862380D02*
X150422857Y-49862380D01*
X150422857Y-48862380D01*
X150899047Y-48862380D01*
X142018095Y-55576666D02*
X142494285Y-55576666D01*
X141922857Y-55862380D02*
X142256190Y-54862380D01*
X142589523Y-55862380D01*
X142922857Y-55195714D02*
X142922857Y-55862380D01*
X142922857Y-55290952D02*
X142970476Y-55243333D01*
X143065714Y-55195714D01*
X143208571Y-55195714D01*
X143303809Y-55243333D01*
X143351428Y-55338571D01*
X143351428Y-55862380D01*
X143684761Y-55195714D02*
X144065714Y-55195714D01*
X143827619Y-54862380D02*
X143827619Y-55719523D01*
X143875238Y-55814761D01*
X143970476Y-55862380D01*
X144065714Y-55862380D01*
X144780000Y-55814761D02*
X144684761Y-55862380D01*
X144494285Y-55862380D01*
X144399047Y-55814761D01*
X144351428Y-55719523D01*
X144351428Y-55338571D01*
X144399047Y-55243333D01*
X144494285Y-55195714D01*
X144684761Y-55195714D01*
X144780000Y-55243333D01*
X144827619Y-55338571D01*
X144827619Y-55433809D01*
X144351428Y-55529047D01*
X145256190Y-55195714D02*
X145256190Y-55862380D01*
X145256190Y-55290952D02*
X145303809Y-55243333D01*
X145399047Y-55195714D01*
X145541904Y-55195714D01*
X145637142Y-55243333D01*
X145684761Y-55338571D01*
X145684761Y-55862380D01*
X146160952Y-55195714D02*
X146160952Y-55862380D01*
X146160952Y-55290952D02*
X146208571Y-55243333D01*
X146303809Y-55195714D01*
X146446666Y-55195714D01*
X146541904Y-55243333D01*
X146589523Y-55338571D01*
X146589523Y-55862380D01*
X147494285Y-55862380D02*
X147494285Y-55338571D01*
X147446666Y-55243333D01*
X147351428Y-55195714D01*
X147160952Y-55195714D01*
X147065714Y-55243333D01*
X147494285Y-55814761D02*
X147399047Y-55862380D01*
X147160952Y-55862380D01*
X147065714Y-55814761D01*
X147018095Y-55719523D01*
X147018095Y-55624285D01*
X147065714Y-55529047D01*
X147160952Y-55481428D01*
X147399047Y-55481428D01*
X147494285Y-55433809D01*
D10*
X155841904Y-53761190D02*
X155603809Y-53761190D01*
X155580000Y-53999285D01*
X155603809Y-53975476D01*
X155651428Y-53951666D01*
X155770476Y-53951666D01*
X155818095Y-53975476D01*
X155841904Y-53999285D01*
X155865714Y-54046904D01*
X155865714Y-54165952D01*
X155841904Y-54213571D01*
X155818095Y-54237380D01*
X155770476Y-54261190D01*
X155651428Y-54261190D01*
X155603809Y-54237380D01*
X155580000Y-54213571D01*
X156460952Y-54261190D02*
X156460952Y-53927857D01*
X156460952Y-53975476D02*
X156484761Y-53951666D01*
X156532380Y-53927857D01*
X156603809Y-53927857D01*
X156651428Y-53951666D01*
X156675238Y-53999285D01*
X156675238Y-54261190D01*
X156675238Y-53999285D02*
X156699047Y-53951666D01*
X156746666Y-53927857D01*
X156818095Y-53927857D01*
X156865714Y-53951666D01*
X156889523Y-53999285D01*
X156889523Y-54261190D01*
X157127619Y-54261190D02*
X157127619Y-53927857D01*
X157127619Y-53975476D02*
X157151428Y-53951666D01*
X157199047Y-53927857D01*
X157270476Y-53927857D01*
X157318095Y-53951666D01*
X157341904Y-53999285D01*
X157341904Y-54261190D01*
X157341904Y-53999285D02*
X157365714Y-53951666D01*
X157413333Y-53927857D01*
X157484761Y-53927857D01*
X157532380Y-53951666D01*
X157556190Y-53999285D01*
X157556190Y-54261190D01*
X132841904Y-53761190D02*
X132603809Y-53761190D01*
X132580000Y-53999285D01*
X132603809Y-53975476D01*
X132651428Y-53951666D01*
X132770476Y-53951666D01*
X132818095Y-53975476D01*
X132841904Y-53999285D01*
X132865714Y-54046904D01*
X132865714Y-54165952D01*
X132841904Y-54213571D01*
X132818095Y-54237380D01*
X132770476Y-54261190D01*
X132651428Y-54261190D01*
X132603809Y-54237380D01*
X132580000Y-54213571D01*
X133460952Y-54261190D02*
X133460952Y-53927857D01*
X133460952Y-53975476D02*
X133484761Y-53951666D01*
X133532380Y-53927857D01*
X133603809Y-53927857D01*
X133651428Y-53951666D01*
X133675238Y-53999285D01*
X133675238Y-54261190D01*
X133675238Y-53999285D02*
X133699047Y-53951666D01*
X133746666Y-53927857D01*
X133818095Y-53927857D01*
X133865714Y-53951666D01*
X133889523Y-53999285D01*
X133889523Y-54261190D01*
X134127619Y-54261190D02*
X134127619Y-53927857D01*
X134127619Y-53975476D02*
X134151428Y-53951666D01*
X134199047Y-53927857D01*
X134270476Y-53927857D01*
X134318095Y-53951666D01*
X134341904Y-53999285D01*
X134341904Y-54261190D01*
X134341904Y-53999285D02*
X134365714Y-53951666D01*
X134413333Y-53927857D01*
X134484761Y-53927857D01*
X134532380Y-53951666D01*
X134556190Y-53999285D01*
X134556190Y-54261190D01*
X153180000Y-52410000D02*
X152980000Y-52210000D01*
X130980000Y-54535000D02*
X135580000Y-54535000D01*
X153980000Y-54535000D02*
X154180000Y-54335000D01*
X153980000Y-54535000D02*
X154180000Y-54735000D01*
X153180000Y-47810000D02*
X152980000Y-48010000D01*
X153180000Y-52410000D02*
X153380000Y-52210000D01*
X135580000Y-54535000D02*
X135380000Y-54335000D01*
X158580000Y-54535000D02*
X158380000Y-54335000D01*
X130980000Y-54535000D02*
X131180000Y-54335000D01*
X153980000Y-54535000D02*
X158580000Y-54535000D01*
X135580000Y-54535000D02*
X135380000Y-54735000D01*
X153180000Y-52410000D02*
X153180000Y-47810000D01*
X130980000Y-54535000D02*
X131180000Y-54735000D01*
X158580000Y-54535000D02*
X158380000Y-54735000D01*
X153180000Y-47810000D02*
X153380000Y-48010000D01*
G04 #@! TD*
M02*
