G04 #@! TF.GenerationSoftware,KiCad,Pcbnew,6.0.6-3a73a75311~116~ubuntu22.04.1*
G04 #@! TF.CreationDate,2022-07-01T17:35:29+01:00*
G04 #@! TF.ProjectId,rLab_Door,724c6162-5f44-46f6-9f72-2e6b69636164,rev?*
G04 #@! TF.SameCoordinates,Original*
G04 #@! TF.FileFunction,Legend,Top*
G04 #@! TF.FilePolarity,Positive*
%FSLAX46Y46*%
G04 Gerber Fmt 4.6, Leading zero omitted, Abs format (unit mm)*
G04 Created by KiCad (PCBNEW 6.0.6-3a73a75311~116~ubuntu22.04.1) date 2022-07-01 17:35:29*
%MOMM*%
%LPD*%
G01*
G04 APERTURE LIST*
%ADD10C,0.008000*%
%ADD11C,0.378363*%
%ADD12C,0.150000*%
%ADD13C,0.300000*%
%ADD14C,1.000000*%
%ADD15C,0.500000*%
%ADD16C,0.200000*%
%ADD17C,0.120000*%
G04 APERTURE END LIST*
D10*
G36*
X99888434Y-93560411D02*
G01*
X99888434Y-95816100D01*
X95362733Y-95816100D01*
X95362733Y-95376497D01*
X95671752Y-95376497D01*
X95986853Y-95376497D01*
X96469623Y-95376497D01*
X97281025Y-95376497D01*
X97281025Y-95135634D01*
X97449188Y-95135634D01*
X97450093Y-95164801D01*
X97451225Y-95178678D01*
X97452810Y-95192085D01*
X97454847Y-95205022D01*
X97457338Y-95217488D01*
X97460281Y-95229484D01*
X97463676Y-95241010D01*
X97467525Y-95252065D01*
X97471826Y-95262650D01*
X97476580Y-95272764D01*
X97481787Y-95282408D01*
X97487447Y-95291581D01*
X97493559Y-95300284D01*
X97500124Y-95308517D01*
X97507142Y-95316279D01*
X97514613Y-95323571D01*
X97522536Y-95330393D01*
X97530912Y-95336744D01*
X97539741Y-95342624D01*
X97549023Y-95348034D01*
X97558757Y-95352974D01*
X97568945Y-95357443D01*
X97579585Y-95361442D01*
X97590678Y-95364971D01*
X97602223Y-95368029D01*
X97614221Y-95370616D01*
X97626673Y-95372733D01*
X97639577Y-95374380D01*
X97652933Y-95375556D01*
X97666743Y-95376262D01*
X97681005Y-95376497D01*
X98166413Y-95376497D01*
X98615908Y-95376497D01*
X99325866Y-95376497D01*
X99356570Y-95375556D01*
X99371179Y-95374380D01*
X99385292Y-95372733D01*
X99398911Y-95370616D01*
X99412034Y-95368029D01*
X99424661Y-95364971D01*
X99436793Y-95361442D01*
X99448430Y-95357443D01*
X99459572Y-95352974D01*
X99470219Y-95348034D01*
X99480370Y-95342624D01*
X99490026Y-95336744D01*
X99499187Y-95330393D01*
X99507852Y-95323571D01*
X99516022Y-95316279D01*
X99523697Y-95308517D01*
X99530877Y-95300284D01*
X99537562Y-95291581D01*
X99543751Y-95282408D01*
X99549445Y-95272764D01*
X99554644Y-95262650D01*
X99559348Y-95252065D01*
X99563557Y-95241010D01*
X99567270Y-95229484D01*
X99570489Y-95217488D01*
X99573212Y-95205022D01*
X99575440Y-95192085D01*
X99577173Y-95178678D01*
X99578411Y-95164801D01*
X99579153Y-95150453D01*
X99579401Y-95135634D01*
X99579401Y-94563288D01*
X99579159Y-94547909D01*
X99578432Y-94533019D01*
X99577220Y-94518618D01*
X99575524Y-94504704D01*
X99573343Y-94491279D01*
X99570678Y-94478342D01*
X99567528Y-94465893D01*
X99563894Y-94453932D01*
X99559775Y-94442460D01*
X99555171Y-94431476D01*
X99550083Y-94420980D01*
X99544510Y-94410972D01*
X99538453Y-94401452D01*
X99531911Y-94392421D01*
X99524885Y-94383878D01*
X99517374Y-94375823D01*
X99509378Y-94368256D01*
X99500898Y-94361178D01*
X99491933Y-94354587D01*
X99482484Y-94348485D01*
X99472550Y-94342871D01*
X99462132Y-94337746D01*
X99451229Y-94333108D01*
X99439842Y-94328959D01*
X99427970Y-94325297D01*
X99415613Y-94322124D01*
X99402772Y-94319439D01*
X99389447Y-94317243D01*
X99375636Y-94315534D01*
X99361342Y-94314314D01*
X99346563Y-94313581D01*
X99331299Y-94313337D01*
X98929231Y-94313337D01*
X98929231Y-94000000D01*
X98615908Y-94000000D01*
X98615908Y-95376497D01*
X98166413Y-95376497D01*
X98181457Y-95376253D01*
X98196023Y-95375521D01*
X98210111Y-95374300D01*
X98223722Y-95372592D01*
X98236856Y-95370396D01*
X98249512Y-95367711D01*
X98261691Y-95364539D01*
X98273392Y-95360878D01*
X98284615Y-95356729D01*
X98295361Y-95352092D01*
X98305629Y-95346967D01*
X98315420Y-95341353D01*
X98324734Y-95335252D01*
X98333569Y-95328662D01*
X98341927Y-95321584D01*
X98349808Y-95314018D01*
X98357211Y-95305964D01*
X98364137Y-95297421D01*
X98370584Y-95288391D01*
X98376555Y-95278872D01*
X98382047Y-95268864D01*
X98387062Y-95258369D01*
X98391600Y-95247386D01*
X98395660Y-95235914D01*
X98399242Y-95223954D01*
X98402347Y-95211505D01*
X98404974Y-95198568D01*
X98407123Y-95185144D01*
X98408795Y-95171230D01*
X98409989Y-95156829D01*
X98410706Y-95141939D01*
X98410944Y-95126561D01*
X98410944Y-94563288D01*
X98410697Y-94547909D01*
X98409954Y-94533019D01*
X98408715Y-94518618D01*
X98406982Y-94504704D01*
X98404753Y-94491279D01*
X98402028Y-94478342D01*
X98398809Y-94465893D01*
X98395094Y-94453932D01*
X98390883Y-94442460D01*
X98386178Y-94431476D01*
X98380977Y-94420980D01*
X98375281Y-94410972D01*
X98369089Y-94401452D01*
X98362402Y-94392421D01*
X98355220Y-94383878D01*
X98347543Y-94375823D01*
X98339371Y-94368256D01*
X98330703Y-94361178D01*
X98321540Y-94354587D01*
X98311881Y-94348485D01*
X98301728Y-94342871D01*
X98291079Y-94337746D01*
X98279935Y-94333108D01*
X98268296Y-94328959D01*
X98256161Y-94325297D01*
X98243531Y-94322124D01*
X98230406Y-94319439D01*
X98216786Y-94317243D01*
X98202671Y-94315534D01*
X98188060Y-94314314D01*
X98172955Y-94313581D01*
X98157354Y-94313337D01*
X97490857Y-94313337D01*
X97490857Y-94610377D01*
X98043252Y-94610377D01*
X98046596Y-94610430D01*
X98049834Y-94610589D01*
X98052965Y-94610854D01*
X98055991Y-94611226D01*
X98058910Y-94611704D01*
X98061723Y-94612287D01*
X98064429Y-94612977D01*
X98067030Y-94613774D01*
X98069524Y-94614676D01*
X98071912Y-94615684D01*
X98074194Y-94616799D01*
X98076370Y-94618020D01*
X98078440Y-94619346D01*
X98080403Y-94620779D01*
X98082260Y-94622319D01*
X98084011Y-94623964D01*
X98085656Y-94625715D01*
X98087195Y-94627573D01*
X98088627Y-94629536D01*
X98089954Y-94631606D01*
X98091174Y-94633782D01*
X98092288Y-94636064D01*
X98093296Y-94638452D01*
X98094198Y-94640946D01*
X98094994Y-94643546D01*
X98095683Y-94646252D01*
X98096267Y-94649065D01*
X98096744Y-94651983D01*
X98097116Y-94655008D01*
X98097381Y-94658139D01*
X98097540Y-94661375D01*
X98097593Y-94664718D01*
X98097593Y-94744403D01*
X98093964Y-94742871D01*
X98090321Y-94741437D01*
X98086664Y-94740102D01*
X98082993Y-94738866D01*
X98079308Y-94737729D01*
X98075609Y-94736690D01*
X98071896Y-94735751D01*
X98068169Y-94734910D01*
X98064428Y-94734169D01*
X98060673Y-94733526D01*
X98056904Y-94732982D01*
X98053121Y-94732537D01*
X98049323Y-94732191D01*
X98045512Y-94731944D01*
X98041686Y-94731795D01*
X98037846Y-94731746D01*
X97681005Y-94731746D01*
X97666743Y-94731986D01*
X97652933Y-94732708D01*
X97639577Y-94733911D01*
X97626673Y-94735595D01*
X97614221Y-94737760D01*
X97602223Y-94740406D01*
X97590678Y-94743533D01*
X97579585Y-94747141D01*
X97568945Y-94751231D01*
X97558757Y-94755801D01*
X97549023Y-94760852D01*
X97539741Y-94766385D01*
X97530912Y-94772398D01*
X97522536Y-94778893D01*
X97514613Y-94785868D01*
X97507142Y-94793325D01*
X97500124Y-94801263D01*
X97493559Y-94809681D01*
X97487447Y-94818581D01*
X97481787Y-94827961D01*
X97476580Y-94837823D01*
X97471826Y-94848165D01*
X97467525Y-94858989D01*
X97463676Y-94870293D01*
X97460281Y-94882078D01*
X97457338Y-94894345D01*
X97454847Y-94907092D01*
X97452810Y-94920320D01*
X97451225Y-94934029D01*
X97450093Y-94948219D01*
X97449414Y-94962890D01*
X97449188Y-94978042D01*
X97449188Y-95135634D01*
X97281025Y-95135634D01*
X97281025Y-95030548D01*
X96782974Y-95030548D01*
X96782974Y-94000000D01*
X96469623Y-94000000D01*
X96469623Y-95376497D01*
X95986853Y-95376497D01*
X95986853Y-94681002D01*
X95986906Y-94677661D01*
X95987066Y-94674425D01*
X95987331Y-94671295D01*
X95987702Y-94668272D01*
X95988180Y-94665354D01*
X95988764Y-94662543D01*
X95989454Y-94659837D01*
X95990250Y-94657238D01*
X95991153Y-94654745D01*
X95992161Y-94652357D01*
X95993276Y-94650076D01*
X95994496Y-94647901D01*
X95995823Y-94645831D01*
X95997256Y-94643868D01*
X95998795Y-94642011D01*
X96000440Y-94640260D01*
X96002192Y-94638615D01*
X96004049Y-94637076D01*
X96006013Y-94635644D01*
X96008083Y-94634317D01*
X96010258Y-94633097D01*
X96012540Y-94631982D01*
X96014928Y-94630974D01*
X96017423Y-94630072D01*
X96020023Y-94629275D01*
X96022729Y-94628586D01*
X96025542Y-94628002D01*
X96028460Y-94627524D01*
X96031485Y-94627152D01*
X96034616Y-94626887D01*
X96037852Y-94626728D01*
X96041195Y-94626675D01*
X96273069Y-94626675D01*
X96273069Y-94313337D01*
X95921702Y-94313337D01*
X95905672Y-94313581D01*
X95890194Y-94314314D01*
X95875269Y-94315534D01*
X95860896Y-94317243D01*
X95847075Y-94319439D01*
X95833807Y-94322124D01*
X95821091Y-94325297D01*
X95808928Y-94328958D01*
X95797317Y-94333108D01*
X95786259Y-94337745D01*
X95775753Y-94342871D01*
X95765800Y-94348485D01*
X95756399Y-94354587D01*
X95747551Y-94361177D01*
X95739255Y-94368255D01*
X95731513Y-94375821D01*
X95724274Y-94383876D01*
X95717504Y-94392419D01*
X95711200Y-94401451D01*
X95705363Y-94410971D01*
X95699994Y-94420979D01*
X95695092Y-94431476D01*
X95690657Y-94442460D01*
X95686689Y-94453933D01*
X95683188Y-94465895D01*
X95680153Y-94478344D01*
X95677586Y-94491281D01*
X95675486Y-94504706D01*
X95673852Y-94518620D01*
X95672686Y-94533021D01*
X95671986Y-94547910D01*
X95671752Y-94563288D01*
X95671752Y-95376497D01*
X95362733Y-95376497D01*
X95362733Y-93560411D01*
X99888434Y-93560411D01*
G37*
X99888434Y-93560411D02*
X99888434Y-95816100D01*
X95362733Y-95816100D01*
X95362733Y-95376497D01*
X95671752Y-95376497D01*
X95986853Y-95376497D01*
X96469623Y-95376497D01*
X97281025Y-95376497D01*
X97281025Y-95135634D01*
X97449188Y-95135634D01*
X97450093Y-95164801D01*
X97451225Y-95178678D01*
X97452810Y-95192085D01*
X97454847Y-95205022D01*
X97457338Y-95217488D01*
X97460281Y-95229484D01*
X97463676Y-95241010D01*
X97467525Y-95252065D01*
X97471826Y-95262650D01*
X97476580Y-95272764D01*
X97481787Y-95282408D01*
X97487447Y-95291581D01*
X97493559Y-95300284D01*
X97500124Y-95308517D01*
X97507142Y-95316279D01*
X97514613Y-95323571D01*
X97522536Y-95330393D01*
X97530912Y-95336744D01*
X97539741Y-95342624D01*
X97549023Y-95348034D01*
X97558757Y-95352974D01*
X97568945Y-95357443D01*
X97579585Y-95361442D01*
X97590678Y-95364971D01*
X97602223Y-95368029D01*
X97614221Y-95370616D01*
X97626673Y-95372733D01*
X97639577Y-95374380D01*
X97652933Y-95375556D01*
X97666743Y-95376262D01*
X97681005Y-95376497D01*
X98166413Y-95376497D01*
X98615908Y-95376497D01*
X99325866Y-95376497D01*
X99356570Y-95375556D01*
X99371179Y-95374380D01*
X99385292Y-95372733D01*
X99398911Y-95370616D01*
X99412034Y-95368029D01*
X99424661Y-95364971D01*
X99436793Y-95361442D01*
X99448430Y-95357443D01*
X99459572Y-95352974D01*
X99470219Y-95348034D01*
X99480370Y-95342624D01*
X99490026Y-95336744D01*
X99499187Y-95330393D01*
X99507852Y-95323571D01*
X99516022Y-95316279D01*
X99523697Y-95308517D01*
X99530877Y-95300284D01*
X99537562Y-95291581D01*
X99543751Y-95282408D01*
X99549445Y-95272764D01*
X99554644Y-95262650D01*
X99559348Y-95252065D01*
X99563557Y-95241010D01*
X99567270Y-95229484D01*
X99570489Y-95217488D01*
X99573212Y-95205022D01*
X99575440Y-95192085D01*
X99577173Y-95178678D01*
X99578411Y-95164801D01*
X99579153Y-95150453D01*
X99579401Y-95135634D01*
X99579401Y-94563288D01*
X99579159Y-94547909D01*
X99578432Y-94533019D01*
X99577220Y-94518618D01*
X99575524Y-94504704D01*
X99573343Y-94491279D01*
X99570678Y-94478342D01*
X99567528Y-94465893D01*
X99563894Y-94453932D01*
X99559775Y-94442460D01*
X99555171Y-94431476D01*
X99550083Y-94420980D01*
X99544510Y-94410972D01*
X99538453Y-94401452D01*
X99531911Y-94392421D01*
X99524885Y-94383878D01*
X99517374Y-94375823D01*
X99509378Y-94368256D01*
X99500898Y-94361178D01*
X99491933Y-94354587D01*
X99482484Y-94348485D01*
X99472550Y-94342871D01*
X99462132Y-94337746D01*
X99451229Y-94333108D01*
X99439842Y-94328959D01*
X99427970Y-94325297D01*
X99415613Y-94322124D01*
X99402772Y-94319439D01*
X99389447Y-94317243D01*
X99375636Y-94315534D01*
X99361342Y-94314314D01*
X99346563Y-94313581D01*
X99331299Y-94313337D01*
X98929231Y-94313337D01*
X98929231Y-94000000D01*
X98615908Y-94000000D01*
X98615908Y-95376497D01*
X98166413Y-95376497D01*
X98181457Y-95376253D01*
X98196023Y-95375521D01*
X98210111Y-95374300D01*
X98223722Y-95372592D01*
X98236856Y-95370396D01*
X98249512Y-95367711D01*
X98261691Y-95364539D01*
X98273392Y-95360878D01*
X98284615Y-95356729D01*
X98295361Y-95352092D01*
X98305629Y-95346967D01*
X98315420Y-95341353D01*
X98324734Y-95335252D01*
X98333569Y-95328662D01*
X98341927Y-95321584D01*
X98349808Y-95314018D01*
X98357211Y-95305964D01*
X98364137Y-95297421D01*
X98370584Y-95288391D01*
X98376555Y-95278872D01*
X98382047Y-95268864D01*
X98387062Y-95258369D01*
X98391600Y-95247386D01*
X98395660Y-95235914D01*
X98399242Y-95223954D01*
X98402347Y-95211505D01*
X98404974Y-95198568D01*
X98407123Y-95185144D01*
X98408795Y-95171230D01*
X98409989Y-95156829D01*
X98410706Y-95141939D01*
X98410944Y-95126561D01*
X98410944Y-94563288D01*
X98410697Y-94547909D01*
X98409954Y-94533019D01*
X98408715Y-94518618D01*
X98406982Y-94504704D01*
X98404753Y-94491279D01*
X98402028Y-94478342D01*
X98398809Y-94465893D01*
X98395094Y-94453932D01*
X98390883Y-94442460D01*
X98386178Y-94431476D01*
X98380977Y-94420980D01*
X98375281Y-94410972D01*
X98369089Y-94401452D01*
X98362402Y-94392421D01*
X98355220Y-94383878D01*
X98347543Y-94375823D01*
X98339371Y-94368256D01*
X98330703Y-94361178D01*
X98321540Y-94354587D01*
X98311881Y-94348485D01*
X98301728Y-94342871D01*
X98291079Y-94337746D01*
X98279935Y-94333108D01*
X98268296Y-94328959D01*
X98256161Y-94325297D01*
X98243531Y-94322124D01*
X98230406Y-94319439D01*
X98216786Y-94317243D01*
X98202671Y-94315534D01*
X98188060Y-94314314D01*
X98172955Y-94313581D01*
X98157354Y-94313337D01*
X97490857Y-94313337D01*
X97490857Y-94610377D01*
X98043252Y-94610377D01*
X98046596Y-94610430D01*
X98049834Y-94610589D01*
X98052965Y-94610854D01*
X98055991Y-94611226D01*
X98058910Y-94611704D01*
X98061723Y-94612287D01*
X98064429Y-94612977D01*
X98067030Y-94613774D01*
X98069524Y-94614676D01*
X98071912Y-94615684D01*
X98074194Y-94616799D01*
X98076370Y-94618020D01*
X98078440Y-94619346D01*
X98080403Y-94620779D01*
X98082260Y-94622319D01*
X98084011Y-94623964D01*
X98085656Y-94625715D01*
X98087195Y-94627573D01*
X98088627Y-94629536D01*
X98089954Y-94631606D01*
X98091174Y-94633782D01*
X98092288Y-94636064D01*
X98093296Y-94638452D01*
X98094198Y-94640946D01*
X98094994Y-94643546D01*
X98095683Y-94646252D01*
X98096267Y-94649065D01*
X98096744Y-94651983D01*
X98097116Y-94655008D01*
X98097381Y-94658139D01*
X98097540Y-94661375D01*
X98097593Y-94664718D01*
X98097593Y-94744403D01*
X98093964Y-94742871D01*
X98090321Y-94741437D01*
X98086664Y-94740102D01*
X98082993Y-94738866D01*
X98079308Y-94737729D01*
X98075609Y-94736690D01*
X98071896Y-94735751D01*
X98068169Y-94734910D01*
X98064428Y-94734169D01*
X98060673Y-94733526D01*
X98056904Y-94732982D01*
X98053121Y-94732537D01*
X98049323Y-94732191D01*
X98045512Y-94731944D01*
X98041686Y-94731795D01*
X98037846Y-94731746D01*
X97681005Y-94731746D01*
X97666743Y-94731986D01*
X97652933Y-94732708D01*
X97639577Y-94733911D01*
X97626673Y-94735595D01*
X97614221Y-94737760D01*
X97602223Y-94740406D01*
X97590678Y-94743533D01*
X97579585Y-94747141D01*
X97568945Y-94751231D01*
X97558757Y-94755801D01*
X97549023Y-94760852D01*
X97539741Y-94766385D01*
X97530912Y-94772398D01*
X97522536Y-94778893D01*
X97514613Y-94785868D01*
X97507142Y-94793325D01*
X97500124Y-94801263D01*
X97493559Y-94809681D01*
X97487447Y-94818581D01*
X97481787Y-94827961D01*
X97476580Y-94837823D01*
X97471826Y-94848165D01*
X97467525Y-94858989D01*
X97463676Y-94870293D01*
X97460281Y-94882078D01*
X97457338Y-94894345D01*
X97454847Y-94907092D01*
X97452810Y-94920320D01*
X97451225Y-94934029D01*
X97450093Y-94948219D01*
X97449414Y-94962890D01*
X97449188Y-94978042D01*
X97449188Y-95135634D01*
X97281025Y-95135634D01*
X97281025Y-95030548D01*
X96782974Y-95030548D01*
X96782974Y-94000000D01*
X96469623Y-94000000D01*
X96469623Y-95376497D01*
X95986853Y-95376497D01*
X95986853Y-94681002D01*
X95986906Y-94677661D01*
X95987066Y-94674425D01*
X95987331Y-94671295D01*
X95987702Y-94668272D01*
X95988180Y-94665354D01*
X95988764Y-94662543D01*
X95989454Y-94659837D01*
X95990250Y-94657238D01*
X95991153Y-94654745D01*
X95992161Y-94652357D01*
X95993276Y-94650076D01*
X95994496Y-94647901D01*
X95995823Y-94645831D01*
X95997256Y-94643868D01*
X95998795Y-94642011D01*
X96000440Y-94640260D01*
X96002192Y-94638615D01*
X96004049Y-94637076D01*
X96006013Y-94635644D01*
X96008083Y-94634317D01*
X96010258Y-94633097D01*
X96012540Y-94631982D01*
X96014928Y-94630974D01*
X96017423Y-94630072D01*
X96020023Y-94629275D01*
X96022729Y-94628586D01*
X96025542Y-94628002D01*
X96028460Y-94627524D01*
X96031485Y-94627152D01*
X96034616Y-94626887D01*
X96037852Y-94626728D01*
X96041195Y-94626675D01*
X96273069Y-94626675D01*
X96273069Y-94313337D01*
X95921702Y-94313337D01*
X95905672Y-94313581D01*
X95890194Y-94314314D01*
X95875269Y-94315534D01*
X95860896Y-94317243D01*
X95847075Y-94319439D01*
X95833807Y-94322124D01*
X95821091Y-94325297D01*
X95808928Y-94328958D01*
X95797317Y-94333108D01*
X95786259Y-94337745D01*
X95775753Y-94342871D01*
X95765800Y-94348485D01*
X95756399Y-94354587D01*
X95747551Y-94361177D01*
X95739255Y-94368255D01*
X95731513Y-94375821D01*
X95724274Y-94383876D01*
X95717504Y-94392419D01*
X95711200Y-94401451D01*
X95705363Y-94410971D01*
X95699994Y-94420979D01*
X95695092Y-94431476D01*
X95690657Y-94442460D01*
X95686689Y-94453933D01*
X95683188Y-94465895D01*
X95680153Y-94478344D01*
X95677586Y-94491281D01*
X95675486Y-94504706D01*
X95673852Y-94518620D01*
X95672686Y-94533021D01*
X95671986Y-94547910D01*
X95671752Y-94563288D01*
X95671752Y-95376497D01*
X95362733Y-95376497D01*
X95362733Y-93560411D01*
X99888434Y-93560411D01*
G36*
X98063612Y-94938227D02*
G01*
X98065769Y-94938333D01*
X98067856Y-94938511D01*
X98069872Y-94938759D01*
X98071817Y-94939077D01*
X98073691Y-94939467D01*
X98075495Y-94939928D01*
X98077227Y-94940459D01*
X98078889Y-94941061D01*
X98080481Y-94941734D01*
X98082001Y-94942478D01*
X98083451Y-94943293D01*
X98084830Y-94944178D01*
X98086138Y-94945135D01*
X98087376Y-94946162D01*
X98088543Y-94947260D01*
X98089639Y-94948429D01*
X98090664Y-94949668D01*
X98091618Y-94950979D01*
X98092502Y-94952360D01*
X98093315Y-94953812D01*
X98094058Y-94955335D01*
X98094730Y-94956928D01*
X98095331Y-94958593D01*
X98095861Y-94960328D01*
X98096320Y-94962134D01*
X98096709Y-94964011D01*
X98097027Y-94965959D01*
X98097275Y-94967977D01*
X98097452Y-94970066D01*
X98097558Y-94972226D01*
X98097593Y-94974457D01*
X98097593Y-95048681D01*
X98097558Y-95050909D01*
X98097452Y-95053067D01*
X98097275Y-95055153D01*
X98097027Y-95057169D01*
X98096709Y-95059114D01*
X98096320Y-95060989D01*
X98095861Y-95062792D01*
X98095331Y-95064525D01*
X98094730Y-95066187D01*
X98094058Y-95067778D01*
X98093315Y-95069299D01*
X98092502Y-95070748D01*
X98091618Y-95072127D01*
X98090664Y-95073436D01*
X98089639Y-95074673D01*
X98088543Y-95075840D01*
X98087376Y-95076936D01*
X98086138Y-95077961D01*
X98084830Y-95078916D01*
X98083451Y-95079800D01*
X98082001Y-95080613D01*
X98080481Y-95081355D01*
X98078889Y-95082027D01*
X98077227Y-95082628D01*
X98075495Y-95083158D01*
X98073691Y-95083618D01*
X98071817Y-95084007D01*
X98069872Y-95084325D01*
X98067856Y-95084572D01*
X98065769Y-95084749D01*
X98063612Y-95084855D01*
X98061384Y-95084890D01*
X97796970Y-95084890D01*
X97794739Y-95084855D01*
X97792579Y-95084749D01*
X97790490Y-95084572D01*
X97788472Y-95084325D01*
X97786525Y-95084007D01*
X97784648Y-95083618D01*
X97782843Y-95083158D01*
X97781108Y-95082628D01*
X97779444Y-95082027D01*
X97777851Y-95081355D01*
X97776328Y-95080613D01*
X97774877Y-95079800D01*
X97773496Y-95078916D01*
X97772187Y-95077961D01*
X97770948Y-95076936D01*
X97769780Y-95075840D01*
X97768682Y-95074673D01*
X97767656Y-95073436D01*
X97766700Y-95072127D01*
X97765815Y-95070748D01*
X97765001Y-95069299D01*
X97764258Y-95067778D01*
X97763585Y-95066187D01*
X97762984Y-95064525D01*
X97762453Y-95062792D01*
X97761993Y-95060989D01*
X97761603Y-95059114D01*
X97761285Y-95057169D01*
X97761037Y-95055153D01*
X97760860Y-95053067D01*
X97760754Y-95050909D01*
X97760719Y-95048681D01*
X97760719Y-94974457D01*
X97760754Y-94972226D01*
X97760860Y-94970066D01*
X97761037Y-94967977D01*
X97761285Y-94965959D01*
X97761603Y-94964011D01*
X97761993Y-94962134D01*
X97762453Y-94960328D01*
X97762984Y-94958593D01*
X97763585Y-94956928D01*
X97764258Y-94955335D01*
X97765001Y-94953812D01*
X97765815Y-94952360D01*
X97766700Y-94950979D01*
X97767656Y-94949668D01*
X97768682Y-94948429D01*
X97769780Y-94947260D01*
X97770948Y-94946162D01*
X97772187Y-94945135D01*
X97773496Y-94944178D01*
X97774877Y-94943293D01*
X97776328Y-94942478D01*
X97777851Y-94941734D01*
X97779444Y-94941061D01*
X97781108Y-94940459D01*
X97782843Y-94939928D01*
X97784648Y-94939467D01*
X97786525Y-94939077D01*
X97788472Y-94938759D01*
X97790490Y-94938511D01*
X97792579Y-94938333D01*
X97794739Y-94938227D01*
X97796970Y-94938192D01*
X98061384Y-94938192D01*
X98063612Y-94938227D01*
G37*
X98063612Y-94938227D02*
X98065769Y-94938333D01*
X98067856Y-94938511D01*
X98069872Y-94938759D01*
X98071817Y-94939077D01*
X98073691Y-94939467D01*
X98075495Y-94939928D01*
X98077227Y-94940459D01*
X98078889Y-94941061D01*
X98080481Y-94941734D01*
X98082001Y-94942478D01*
X98083451Y-94943293D01*
X98084830Y-94944178D01*
X98086138Y-94945135D01*
X98087376Y-94946162D01*
X98088543Y-94947260D01*
X98089639Y-94948429D01*
X98090664Y-94949668D01*
X98091618Y-94950979D01*
X98092502Y-94952360D01*
X98093315Y-94953812D01*
X98094058Y-94955335D01*
X98094730Y-94956928D01*
X98095331Y-94958593D01*
X98095861Y-94960328D01*
X98096320Y-94962134D01*
X98096709Y-94964011D01*
X98097027Y-94965959D01*
X98097275Y-94967977D01*
X98097452Y-94970066D01*
X98097558Y-94972226D01*
X98097593Y-94974457D01*
X98097593Y-95048681D01*
X98097558Y-95050909D01*
X98097452Y-95053067D01*
X98097275Y-95055153D01*
X98097027Y-95057169D01*
X98096709Y-95059114D01*
X98096320Y-95060989D01*
X98095861Y-95062792D01*
X98095331Y-95064525D01*
X98094730Y-95066187D01*
X98094058Y-95067778D01*
X98093315Y-95069299D01*
X98092502Y-95070748D01*
X98091618Y-95072127D01*
X98090664Y-95073436D01*
X98089639Y-95074673D01*
X98088543Y-95075840D01*
X98087376Y-95076936D01*
X98086138Y-95077961D01*
X98084830Y-95078916D01*
X98083451Y-95079800D01*
X98082001Y-95080613D01*
X98080481Y-95081355D01*
X98078889Y-95082027D01*
X98077227Y-95082628D01*
X98075495Y-95083158D01*
X98073691Y-95083618D01*
X98071817Y-95084007D01*
X98069872Y-95084325D01*
X98067856Y-95084572D01*
X98065769Y-95084749D01*
X98063612Y-95084855D01*
X98061384Y-95084890D01*
X97796970Y-95084890D01*
X97794739Y-95084855D01*
X97792579Y-95084749D01*
X97790490Y-95084572D01*
X97788472Y-95084325D01*
X97786525Y-95084007D01*
X97784648Y-95083618D01*
X97782843Y-95083158D01*
X97781108Y-95082628D01*
X97779444Y-95082027D01*
X97777851Y-95081355D01*
X97776328Y-95080613D01*
X97774877Y-95079800D01*
X97773496Y-95078916D01*
X97772187Y-95077961D01*
X97770948Y-95076936D01*
X97769780Y-95075840D01*
X97768682Y-95074673D01*
X97767656Y-95073436D01*
X97766700Y-95072127D01*
X97765815Y-95070748D01*
X97765001Y-95069299D01*
X97764258Y-95067778D01*
X97763585Y-95066187D01*
X97762984Y-95064525D01*
X97762453Y-95062792D01*
X97761993Y-95060989D01*
X97761603Y-95059114D01*
X97761285Y-95057169D01*
X97761037Y-95055153D01*
X97760860Y-95053067D01*
X97760754Y-95050909D01*
X97760719Y-95048681D01*
X97760719Y-94974457D01*
X97760754Y-94972226D01*
X97760860Y-94970066D01*
X97761037Y-94967977D01*
X97761285Y-94965959D01*
X97761603Y-94964011D01*
X97761993Y-94962134D01*
X97762453Y-94960328D01*
X97762984Y-94958593D01*
X97763585Y-94956928D01*
X97764258Y-94955335D01*
X97765001Y-94953812D01*
X97765815Y-94952360D01*
X97766700Y-94950979D01*
X97767656Y-94949668D01*
X97768682Y-94948429D01*
X97769780Y-94947260D01*
X97770948Y-94946162D01*
X97772187Y-94945135D01*
X97773496Y-94944178D01*
X97774877Y-94943293D01*
X97776328Y-94942478D01*
X97777851Y-94941734D01*
X97779444Y-94941061D01*
X97781108Y-94940459D01*
X97782843Y-94939928D01*
X97784648Y-94939467D01*
X97786525Y-94939077D01*
X97788472Y-94938759D01*
X97790490Y-94938511D01*
X97792579Y-94938333D01*
X97794739Y-94938227D01*
X97796970Y-94938192D01*
X98061384Y-94938192D01*
X98063612Y-94938227D01*
D11*
G36*
X91055520Y-83990268D02*
G01*
X91785917Y-85622305D01*
X87005847Y-88661567D01*
X89152998Y-85619218D01*
X88422602Y-83987180D01*
X93202672Y-80947918D01*
X91055520Y-83990268D01*
G37*
X91055520Y-83990268D02*
X91785917Y-85622305D01*
X87005847Y-88661567D01*
X89152998Y-85619218D01*
X88422602Y-83987180D01*
X93202672Y-80947918D01*
X91055520Y-83990268D01*
D10*
G36*
X99215083Y-94628548D02*
G01*
X99218323Y-94628707D01*
X99221458Y-94628973D01*
X99224486Y-94629344D01*
X99227407Y-94629822D01*
X99230223Y-94630406D01*
X99232932Y-94631096D01*
X99235535Y-94631892D01*
X99238032Y-94632794D01*
X99240422Y-94633803D01*
X99242707Y-94634917D01*
X99244885Y-94636138D01*
X99246957Y-94637465D01*
X99248922Y-94638898D01*
X99250782Y-94640437D01*
X99252535Y-94642082D01*
X99254181Y-94643834D01*
X99255722Y-94645691D01*
X99257156Y-94647655D01*
X99258484Y-94649724D01*
X99259706Y-94651900D01*
X99260822Y-94654182D01*
X99261831Y-94656570D01*
X99262734Y-94659064D01*
X99263531Y-94661665D01*
X99264222Y-94664371D01*
X99264806Y-94667183D01*
X99265284Y-94670102D01*
X99265656Y-94673126D01*
X99265922Y-94676257D01*
X99266081Y-94679494D01*
X99266134Y-94682837D01*
X99266134Y-95005233D01*
X99265922Y-95012251D01*
X99265656Y-95015590D01*
X99265284Y-95018816D01*
X99264805Y-95021928D01*
X99264221Y-95024927D01*
X99263530Y-95027813D01*
X99262732Y-95030586D01*
X99261829Y-95033246D01*
X99260819Y-95035792D01*
X99259703Y-95038225D01*
X99258481Y-95040545D01*
X99257152Y-95042751D01*
X99255717Y-95044845D01*
X99254176Y-95046825D01*
X99252529Y-95048692D01*
X99250776Y-95050446D01*
X99248916Y-95052086D01*
X99246951Y-95053614D01*
X99244879Y-95055028D01*
X99242701Y-95056329D01*
X99240416Y-95057517D01*
X99238026Y-95058592D01*
X99235529Y-95059554D01*
X99232926Y-95060402D01*
X99230218Y-95061137D01*
X99227403Y-95061759D01*
X99224482Y-95062269D01*
X99221454Y-95062664D01*
X99218321Y-95062947D01*
X99215082Y-95063117D01*
X99211736Y-95063173D01*
X98929231Y-95063173D01*
X98929231Y-94628495D01*
X99211736Y-94628495D01*
X99215083Y-94628548D01*
G37*
X99215083Y-94628548D02*
X99218323Y-94628707D01*
X99221458Y-94628973D01*
X99224486Y-94629344D01*
X99227407Y-94629822D01*
X99230223Y-94630406D01*
X99232932Y-94631096D01*
X99235535Y-94631892D01*
X99238032Y-94632794D01*
X99240422Y-94633803D01*
X99242707Y-94634917D01*
X99244885Y-94636138D01*
X99246957Y-94637465D01*
X99248922Y-94638898D01*
X99250782Y-94640437D01*
X99252535Y-94642082D01*
X99254181Y-94643834D01*
X99255722Y-94645691D01*
X99257156Y-94647655D01*
X99258484Y-94649724D01*
X99259706Y-94651900D01*
X99260822Y-94654182D01*
X99261831Y-94656570D01*
X99262734Y-94659064D01*
X99263531Y-94661665D01*
X99264222Y-94664371D01*
X99264806Y-94667183D01*
X99265284Y-94670102D01*
X99265656Y-94673126D01*
X99265922Y-94676257D01*
X99266081Y-94679494D01*
X99266134Y-94682837D01*
X99266134Y-95005233D01*
X99265922Y-95012251D01*
X99265656Y-95015590D01*
X99265284Y-95018816D01*
X99264805Y-95021928D01*
X99264221Y-95024927D01*
X99263530Y-95027813D01*
X99262732Y-95030586D01*
X99261829Y-95033246D01*
X99260819Y-95035792D01*
X99259703Y-95038225D01*
X99258481Y-95040545D01*
X99257152Y-95042751D01*
X99255717Y-95044845D01*
X99254176Y-95046825D01*
X99252529Y-95048692D01*
X99250776Y-95050446D01*
X99248916Y-95052086D01*
X99246951Y-95053614D01*
X99244879Y-95055028D01*
X99242701Y-95056329D01*
X99240416Y-95057517D01*
X99238026Y-95058592D01*
X99235529Y-95059554D01*
X99232926Y-95060402D01*
X99230218Y-95061137D01*
X99227403Y-95061759D01*
X99224482Y-95062269D01*
X99221454Y-95062664D01*
X99218321Y-95062947D01*
X99215082Y-95063117D01*
X99211736Y-95063173D01*
X98929231Y-95063173D01*
X98929231Y-94628495D01*
X99211736Y-94628495D01*
X99215083Y-94628548D01*
G36*
X94343170Y-92807735D02*
G01*
X94343358Y-92805850D01*
X94343669Y-92803994D01*
X94344098Y-92802172D01*
X94344643Y-92800388D01*
X94345302Y-92798649D01*
X94346070Y-92796959D01*
X94346945Y-92795324D01*
X94347923Y-92793749D01*
X94349003Y-92792239D01*
X94350180Y-92790799D01*
X94351453Y-92789434D01*
X94352817Y-92788151D01*
X94354269Y-92786953D01*
X94355808Y-92785846D01*
X94357429Y-92784836D01*
X97611254Y-90906239D01*
X97639899Y-90906239D01*
X100893738Y-92784836D01*
X100894557Y-92785329D01*
X100895357Y-92785846D01*
X100896136Y-92786388D01*
X100896894Y-92786953D01*
X100897630Y-92787541D01*
X100898345Y-92788151D01*
X100899038Y-92788782D01*
X100899708Y-92789434D01*
X100900356Y-92790107D01*
X100900980Y-92790799D01*
X100901581Y-92791510D01*
X100902158Y-92792239D01*
X100902710Y-92792985D01*
X100903238Y-92793749D01*
X100903740Y-92794529D01*
X100904217Y-92795324D01*
X100904668Y-92796135D01*
X100905093Y-92796959D01*
X100905491Y-92797798D01*
X100905862Y-92798649D01*
X100906205Y-92799513D01*
X100906521Y-92800388D01*
X100906808Y-92801275D01*
X100907067Y-92802172D01*
X100907297Y-92803078D01*
X100907497Y-92803994D01*
X100907668Y-92804918D01*
X100907808Y-92805850D01*
X100907918Y-92806789D01*
X100907997Y-92807735D01*
X100908044Y-92808687D01*
X100908060Y-92809643D01*
X100908060Y-96566853D01*
X100907997Y-96568762D01*
X100907808Y-96570646D01*
X100907497Y-96572503D01*
X100907067Y-96574325D01*
X100906521Y-96576109D01*
X100905862Y-96577848D01*
X100905093Y-96579538D01*
X100904217Y-96581173D01*
X100903238Y-96582748D01*
X100902158Y-96584258D01*
X100900980Y-96585698D01*
X100899708Y-96587062D01*
X100898345Y-96588346D01*
X100896894Y-96589544D01*
X100895357Y-96590651D01*
X100893738Y-96591661D01*
X97639899Y-98470258D01*
X97639062Y-98470723D01*
X97638214Y-98471157D01*
X97637355Y-98471561D01*
X97636486Y-98471936D01*
X97635609Y-98472281D01*
X97634722Y-98472596D01*
X97633829Y-98472881D01*
X97632928Y-98473136D01*
X97632022Y-98473361D01*
X97631110Y-98473556D01*
X97630194Y-98473722D01*
X97629275Y-98473857D01*
X97628353Y-98473962D01*
X97627428Y-98474037D01*
X97626503Y-98474083D01*
X97625577Y-98474098D01*
X97624648Y-98474083D01*
X97623720Y-98474037D01*
X97622794Y-98473962D01*
X97621870Y-98473857D01*
X97620949Y-98473722D01*
X97620033Y-98473556D01*
X97619120Y-98473361D01*
X97618214Y-98473136D01*
X97617314Y-98472881D01*
X97616420Y-98472596D01*
X97615535Y-98472281D01*
X97614658Y-98471936D01*
X97613791Y-98471561D01*
X97612934Y-98471157D01*
X97612088Y-98470723D01*
X97611254Y-98470258D01*
X94357429Y-96591661D01*
X94356608Y-96591168D01*
X94355808Y-96590651D01*
X94355028Y-96590109D01*
X94354269Y-96589544D01*
X94353532Y-96588956D01*
X94352817Y-96588346D01*
X94352123Y-96587715D01*
X94351453Y-96587062D01*
X94350805Y-96586390D01*
X94350180Y-96585698D01*
X94349580Y-96584987D01*
X94349003Y-96584258D01*
X94348451Y-96583511D01*
X94347923Y-96582748D01*
X94347421Y-96581968D01*
X94346945Y-96581173D01*
X94346494Y-96580362D01*
X94346070Y-96579538D01*
X94345672Y-96578699D01*
X94345302Y-96577848D01*
X94344959Y-96576984D01*
X94344643Y-96576109D01*
X94344356Y-96575222D01*
X94344098Y-96574325D01*
X94343869Y-96573419D01*
X94343669Y-96572503D01*
X94343499Y-96571579D01*
X94343358Y-96570646D01*
X94343249Y-96569707D01*
X94343170Y-96568762D01*
X94343122Y-96567810D01*
X94343106Y-96566853D01*
X94343106Y-95891750D01*
X95211434Y-95891750D01*
X95211532Y-95895642D01*
X95211824Y-95899483D01*
X95212306Y-95903268D01*
X95212971Y-95906993D01*
X95213816Y-95910652D01*
X95214836Y-95914242D01*
X95216025Y-95917756D01*
X95217380Y-95921192D01*
X95218895Y-95924542D01*
X95220566Y-95927804D01*
X95222388Y-95930972D01*
X95224356Y-95934042D01*
X95226466Y-95937008D01*
X95228712Y-95939866D01*
X95231090Y-95942611D01*
X95233595Y-95945238D01*
X95236223Y-95947743D01*
X95238968Y-95950121D01*
X95241826Y-95952367D01*
X95244792Y-95954477D01*
X95247861Y-95956445D01*
X95251029Y-95958267D01*
X95254291Y-95959938D01*
X95257642Y-95961453D01*
X95261077Y-95962808D01*
X95264592Y-95963998D01*
X95268181Y-95965017D01*
X95271841Y-95965862D01*
X95275565Y-95966528D01*
X95279350Y-95967009D01*
X95283191Y-95967301D01*
X95287083Y-95967400D01*
X95913292Y-95967400D01*
X95913292Y-96625147D01*
X95913458Y-96631714D01*
X95913951Y-96638196D01*
X95914762Y-96644583D01*
X95915885Y-96650868D01*
X95917310Y-96657043D01*
X95919029Y-96663099D01*
X95921036Y-96669029D01*
X95923321Y-96674825D01*
X95925877Y-96680479D01*
X95928695Y-96685982D01*
X95931768Y-96691327D01*
X95935088Y-96696506D01*
X95938646Y-96701510D01*
X95942435Y-96706332D01*
X95946446Y-96710963D01*
X95950672Y-96715396D01*
X95955105Y-96719622D01*
X95959736Y-96723634D01*
X95964557Y-96727423D01*
X95969561Y-96730982D01*
X95974740Y-96734302D01*
X95980085Y-96737375D01*
X95985588Y-96740194D01*
X95991242Y-96742750D01*
X95997039Y-96745036D01*
X96002969Y-96747042D01*
X96009026Y-96748762D01*
X96015202Y-96750188D01*
X96021488Y-96751310D01*
X96027876Y-96752122D01*
X96034358Y-96752615D01*
X96040927Y-96752781D01*
X96098768Y-96752781D01*
X96105336Y-96752615D01*
X96111817Y-96752122D01*
X96118204Y-96751310D01*
X96124489Y-96750188D01*
X96130664Y-96748762D01*
X96136721Y-96747042D01*
X96142651Y-96745036D01*
X96148447Y-96742750D01*
X96154101Y-96740194D01*
X96159604Y-96737375D01*
X96164949Y-96734302D01*
X96170128Y-96730982D01*
X96175132Y-96727423D01*
X96179954Y-96723634D01*
X96184585Y-96719622D01*
X96189018Y-96715396D01*
X96193244Y-96710963D01*
X96197256Y-96706332D01*
X96201045Y-96701510D01*
X96204604Y-96696506D01*
X96207924Y-96691327D01*
X96210997Y-96685982D01*
X96213816Y-96680479D01*
X96216372Y-96674825D01*
X96218658Y-96669029D01*
X96220665Y-96663099D01*
X96222385Y-96657043D01*
X96223810Y-96650868D01*
X96224933Y-96644583D01*
X96225744Y-96638196D01*
X96226237Y-96631714D01*
X96226403Y-96625147D01*
X96226403Y-95967400D01*
X96950444Y-95967400D01*
X96950444Y-96625147D01*
X96950610Y-96631714D01*
X96951103Y-96638196D01*
X96951915Y-96644583D01*
X96953037Y-96650868D01*
X96954462Y-96657043D01*
X96956182Y-96663099D01*
X96958188Y-96669029D01*
X96960473Y-96674825D01*
X96963029Y-96680479D01*
X96965847Y-96685982D01*
X96968921Y-96691327D01*
X96972240Y-96696506D01*
X96975798Y-96701510D01*
X96979587Y-96706332D01*
X96983599Y-96710963D01*
X96987825Y-96715396D01*
X96992257Y-96719622D01*
X96996888Y-96723634D01*
X97001710Y-96727423D01*
X97006714Y-96730982D01*
X97011892Y-96734302D01*
X97017237Y-96737375D01*
X97022741Y-96740194D01*
X97028395Y-96742750D01*
X97034191Y-96745036D01*
X97040122Y-96747042D01*
X97046179Y-96748762D01*
X97052354Y-96750188D01*
X97058640Y-96751310D01*
X97065028Y-96752122D01*
X97071511Y-96752615D01*
X97078079Y-96752781D01*
X97135921Y-96752781D01*
X97142490Y-96752615D01*
X97148972Y-96752122D01*
X97155361Y-96751310D01*
X97161647Y-96750188D01*
X97167823Y-96748762D01*
X97173880Y-96747042D01*
X97179811Y-96745036D01*
X97185608Y-96742750D01*
X97191262Y-96740194D01*
X97196766Y-96737375D01*
X97202112Y-96734302D01*
X97207291Y-96730982D01*
X97212296Y-96727423D01*
X97217118Y-96723634D01*
X97221749Y-96719622D01*
X97226183Y-96715396D01*
X97230409Y-96710963D01*
X97234421Y-96706332D01*
X97238211Y-96701510D01*
X97241770Y-96696506D01*
X97245090Y-96691327D01*
X97248163Y-96685982D01*
X97250982Y-96680479D01*
X97253539Y-96674825D01*
X97255824Y-96669029D01*
X97257831Y-96663099D01*
X97259551Y-96657043D01*
X97260976Y-96650868D01*
X97262099Y-96644583D01*
X97262911Y-96638196D01*
X97263404Y-96631714D01*
X97263570Y-96625147D01*
X97263570Y-95967400D01*
X97987611Y-95967400D01*
X97987611Y-96625147D01*
X97987777Y-96631714D01*
X97988270Y-96638196D01*
X97989081Y-96644583D01*
X97990204Y-96650868D01*
X97991629Y-96657043D01*
X97993349Y-96663099D01*
X97995356Y-96669029D01*
X97997642Y-96674825D01*
X98000198Y-96680479D01*
X98003017Y-96685982D01*
X98006090Y-96691327D01*
X98009410Y-96696506D01*
X98012969Y-96701510D01*
X98016758Y-96706332D01*
X98020770Y-96710963D01*
X98024996Y-96715396D01*
X98029429Y-96719622D01*
X98034061Y-96723634D01*
X98038882Y-96727423D01*
X98043887Y-96730982D01*
X98049065Y-96734302D01*
X98054410Y-96737375D01*
X98059913Y-96740194D01*
X98065567Y-96742750D01*
X98071363Y-96745036D01*
X98077293Y-96747042D01*
X98083350Y-96748762D01*
X98089525Y-96750188D01*
X98095810Y-96751310D01*
X98102197Y-96752122D01*
X98108679Y-96752615D01*
X98115246Y-96752781D01*
X98173073Y-96752781D01*
X98179642Y-96752615D01*
X98186125Y-96752122D01*
X98192513Y-96751310D01*
X98198799Y-96750188D01*
X98204974Y-96748762D01*
X98211031Y-96747042D01*
X98216962Y-96745036D01*
X98222758Y-96742750D01*
X98228412Y-96740194D01*
X98233915Y-96737375D01*
X98239260Y-96734302D01*
X98244439Y-96730982D01*
X98249443Y-96727423D01*
X98254264Y-96723634D01*
X98258895Y-96719622D01*
X98263328Y-96715396D01*
X98267554Y-96710963D01*
X98271565Y-96706332D01*
X98275354Y-96701510D01*
X98278912Y-96696506D01*
X98282232Y-96691327D01*
X98285305Y-96685982D01*
X98288123Y-96680479D01*
X98290679Y-96674825D01*
X98292964Y-96669029D01*
X98294971Y-96663099D01*
X98296690Y-96657043D01*
X98298115Y-96650868D01*
X98299238Y-96644583D01*
X98300049Y-96638196D01*
X98300542Y-96631714D01*
X98300708Y-96625147D01*
X98300708Y-95967400D01*
X99024763Y-95967400D01*
X99024763Y-96625147D01*
X99024929Y-96631714D01*
X99025422Y-96638196D01*
X99026234Y-96644583D01*
X99027357Y-96650868D01*
X99028782Y-96657043D01*
X99030502Y-96663099D01*
X99032509Y-96669029D01*
X99034794Y-96674825D01*
X99037351Y-96680479D01*
X99040169Y-96685982D01*
X99043243Y-96691327D01*
X99046563Y-96696506D01*
X99050122Y-96701510D01*
X99053911Y-96706332D01*
X99057923Y-96710963D01*
X99062149Y-96715396D01*
X99066582Y-96719622D01*
X99071213Y-96723634D01*
X99076035Y-96727423D01*
X99081039Y-96730982D01*
X99086218Y-96734302D01*
X99091563Y-96737375D01*
X99097066Y-96740194D01*
X99102720Y-96742750D01*
X99108516Y-96745036D01*
X99114446Y-96747042D01*
X99120502Y-96748762D01*
X99126677Y-96750188D01*
X99132962Y-96751310D01*
X99139349Y-96752122D01*
X99145831Y-96752615D01*
X99152398Y-96752781D01*
X99210225Y-96752781D01*
X99216794Y-96752615D01*
X99223277Y-96752122D01*
X99229665Y-96751310D01*
X99235951Y-96750188D01*
X99242126Y-96748762D01*
X99248183Y-96747042D01*
X99254114Y-96745036D01*
X99259910Y-96742750D01*
X99265564Y-96740194D01*
X99271068Y-96737375D01*
X99276413Y-96734302D01*
X99281591Y-96730982D01*
X99286595Y-96727423D01*
X99291417Y-96723634D01*
X99296048Y-96719622D01*
X99300480Y-96715396D01*
X99304706Y-96710963D01*
X99308718Y-96706332D01*
X99312507Y-96701510D01*
X99316065Y-96696506D01*
X99319385Y-96691327D01*
X99322458Y-96685982D01*
X99325276Y-96680479D01*
X99327832Y-96674825D01*
X99330117Y-96669029D01*
X99332123Y-96663099D01*
X99333843Y-96657043D01*
X99335268Y-96650868D01*
X99336390Y-96644583D01*
X99337202Y-96638196D01*
X99337695Y-96631714D01*
X99337861Y-96625147D01*
X99337861Y-95967400D01*
X99964069Y-95967400D01*
X99967964Y-95967301D01*
X99971807Y-95967009D01*
X99975594Y-95966528D01*
X99979320Y-95965862D01*
X99982981Y-95965017D01*
X99986572Y-95963998D01*
X99990087Y-95962808D01*
X99993523Y-95961453D01*
X99996874Y-95959938D01*
X100000136Y-95958267D01*
X100003304Y-95956445D01*
X100006374Y-95954477D01*
X100009339Y-95952367D01*
X100012197Y-95950121D01*
X100014942Y-95947743D01*
X100017568Y-95945238D01*
X100020073Y-95942611D01*
X100022450Y-95939866D01*
X100024695Y-95937008D01*
X100026804Y-95934042D01*
X100028771Y-95930972D01*
X100030592Y-95927804D01*
X100032262Y-95924542D01*
X100033777Y-95921192D01*
X100035131Y-95917756D01*
X100036320Y-95914242D01*
X100037339Y-95910652D01*
X100038183Y-95906993D01*
X100038848Y-95903268D01*
X100039329Y-95899483D01*
X100039621Y-95895642D01*
X100039719Y-95891750D01*
X100039719Y-93484747D01*
X100039621Y-93480855D01*
X100039329Y-93477015D01*
X100038848Y-93473230D01*
X100038183Y-93469505D01*
X100037339Y-93465846D01*
X100036320Y-93462257D01*
X100035131Y-93458743D01*
X100033777Y-93455308D01*
X100032262Y-93451958D01*
X100030592Y-93448696D01*
X100028771Y-93445529D01*
X100026804Y-93442460D01*
X100024695Y-93439495D01*
X100022450Y-93436637D01*
X100020073Y-93433893D01*
X100017568Y-93431266D01*
X100014942Y-93428761D01*
X100012197Y-93426384D01*
X100009339Y-93424139D01*
X100006374Y-93422030D01*
X100003304Y-93420062D01*
X100000136Y-93418241D01*
X99996874Y-93416570D01*
X99993523Y-93415056D01*
X99990087Y-93413701D01*
X99986572Y-93412512D01*
X99982981Y-93411493D01*
X99979320Y-93410648D01*
X99975594Y-93409983D01*
X99971807Y-93409502D01*
X99967964Y-93409210D01*
X99964069Y-93409111D01*
X99337861Y-93409111D01*
X99337861Y-92751351D01*
X99337695Y-92744782D01*
X99337202Y-92738299D01*
X99336390Y-92731911D01*
X99335268Y-92725625D01*
X99333843Y-92719450D01*
X99332123Y-92713393D01*
X99330117Y-92707462D01*
X99327832Y-92701666D01*
X99325276Y-92696012D01*
X99322458Y-92690508D01*
X99319385Y-92685163D01*
X99316065Y-92679985D01*
X99312507Y-92674981D01*
X99308718Y-92670159D01*
X99304706Y-92665528D01*
X99300480Y-92661096D01*
X99296048Y-92656870D01*
X99291417Y-92652859D01*
X99286595Y-92649070D01*
X99281591Y-92645511D01*
X99276413Y-92642192D01*
X99271068Y-92639119D01*
X99265564Y-92636300D01*
X99259910Y-92633745D01*
X99254114Y-92631460D01*
X99248183Y-92629453D01*
X99242126Y-92627734D01*
X99235951Y-92626309D01*
X99229665Y-92625186D01*
X99223277Y-92624375D01*
X99216794Y-92623882D01*
X99210225Y-92623716D01*
X99152398Y-92623716D01*
X99145831Y-92623882D01*
X99139349Y-92624375D01*
X99132962Y-92625186D01*
X99126677Y-92626309D01*
X99120502Y-92627734D01*
X99114446Y-92629453D01*
X99108516Y-92631460D01*
X99102720Y-92633745D01*
X99097066Y-92636300D01*
X99091563Y-92639119D01*
X99086218Y-92642192D01*
X99081039Y-92645511D01*
X99076035Y-92649070D01*
X99071213Y-92652859D01*
X99066582Y-92656870D01*
X99062149Y-92661096D01*
X99057923Y-92665528D01*
X99053911Y-92670159D01*
X99050122Y-92674981D01*
X99046563Y-92679985D01*
X99043243Y-92685163D01*
X99040169Y-92690508D01*
X99037351Y-92696012D01*
X99034794Y-92701666D01*
X99032509Y-92707462D01*
X99030502Y-92713393D01*
X99028782Y-92719450D01*
X99027357Y-92725625D01*
X99026234Y-92731911D01*
X99025422Y-92738299D01*
X99024929Y-92744782D01*
X99024763Y-92751351D01*
X99024763Y-93409111D01*
X98300708Y-93409111D01*
X98300708Y-92751351D01*
X98300542Y-92744782D01*
X98300049Y-92738299D01*
X98299238Y-92731911D01*
X98298115Y-92725625D01*
X98296690Y-92719450D01*
X98294971Y-92713393D01*
X98292964Y-92707462D01*
X98290679Y-92701666D01*
X98288123Y-92696012D01*
X98285305Y-92690508D01*
X98282232Y-92685163D01*
X98278912Y-92679985D01*
X98275354Y-92674981D01*
X98271565Y-92670159D01*
X98267554Y-92665528D01*
X98263328Y-92661096D01*
X98258895Y-92656870D01*
X98254264Y-92652859D01*
X98249443Y-92649070D01*
X98244439Y-92645511D01*
X98239260Y-92642192D01*
X98233915Y-92639119D01*
X98228412Y-92636300D01*
X98222758Y-92633745D01*
X98216962Y-92631460D01*
X98211031Y-92629453D01*
X98204974Y-92627734D01*
X98198799Y-92626309D01*
X98192513Y-92625186D01*
X98186125Y-92624375D01*
X98179642Y-92623882D01*
X98173073Y-92623716D01*
X98115246Y-92623716D01*
X98108679Y-92623882D01*
X98102197Y-92624375D01*
X98095810Y-92625186D01*
X98089525Y-92626309D01*
X98083350Y-92627734D01*
X98077293Y-92629453D01*
X98071363Y-92631460D01*
X98065567Y-92633745D01*
X98059913Y-92636300D01*
X98054410Y-92639119D01*
X98049065Y-92642192D01*
X98043887Y-92645511D01*
X98038882Y-92649070D01*
X98034061Y-92652859D01*
X98029429Y-92656870D01*
X98024996Y-92661096D01*
X98020770Y-92665528D01*
X98016758Y-92670159D01*
X98012969Y-92674981D01*
X98009410Y-92679985D01*
X98006090Y-92685163D01*
X98003017Y-92690508D01*
X98000198Y-92696012D01*
X97997642Y-92701666D01*
X97995356Y-92707462D01*
X97993349Y-92713393D01*
X97991629Y-92719450D01*
X97990204Y-92725625D01*
X97989081Y-92731911D01*
X97988270Y-92738299D01*
X97987777Y-92744782D01*
X97987611Y-92751351D01*
X97987611Y-93409111D01*
X97263570Y-93409111D01*
X97263570Y-92751351D01*
X97263404Y-92744782D01*
X97262911Y-92738299D01*
X97262099Y-92731911D01*
X97260976Y-92725625D01*
X97259551Y-92719450D01*
X97257831Y-92713393D01*
X97255824Y-92707462D01*
X97253539Y-92701666D01*
X97250982Y-92696012D01*
X97248163Y-92690508D01*
X97245090Y-92685163D01*
X97241770Y-92679985D01*
X97238211Y-92674981D01*
X97234421Y-92670159D01*
X97230409Y-92665528D01*
X97226183Y-92661096D01*
X97221749Y-92656870D01*
X97217118Y-92652859D01*
X97212296Y-92649070D01*
X97207291Y-92645511D01*
X97202112Y-92642192D01*
X97196766Y-92639119D01*
X97191262Y-92636300D01*
X97185608Y-92633745D01*
X97179811Y-92631460D01*
X97173880Y-92629453D01*
X97167823Y-92627734D01*
X97161647Y-92626309D01*
X97155361Y-92625186D01*
X97148972Y-92624375D01*
X97142490Y-92623882D01*
X97135921Y-92623716D01*
X97078079Y-92623716D01*
X97071511Y-92623882D01*
X97065028Y-92624375D01*
X97058640Y-92625186D01*
X97052354Y-92626309D01*
X97046179Y-92627734D01*
X97040122Y-92629453D01*
X97034191Y-92631460D01*
X97028395Y-92633745D01*
X97022741Y-92636300D01*
X97017237Y-92639119D01*
X97011892Y-92642192D01*
X97006714Y-92645511D01*
X97001710Y-92649070D01*
X96996888Y-92652859D01*
X96992257Y-92656870D01*
X96987825Y-92661096D01*
X96983599Y-92665528D01*
X96979587Y-92670159D01*
X96975798Y-92674981D01*
X96972240Y-92679985D01*
X96968921Y-92685163D01*
X96965847Y-92690508D01*
X96963029Y-92696012D01*
X96960473Y-92701666D01*
X96958188Y-92707462D01*
X96956182Y-92713393D01*
X96954462Y-92719450D01*
X96953037Y-92725625D01*
X96951915Y-92731911D01*
X96951103Y-92738299D01*
X96950610Y-92744782D01*
X96950444Y-92751351D01*
X96950444Y-93409111D01*
X96226403Y-93409111D01*
X96226403Y-92751351D01*
X96226237Y-92744782D01*
X96225744Y-92738299D01*
X96224933Y-92731911D01*
X96223810Y-92725625D01*
X96222385Y-92719450D01*
X96220665Y-92713393D01*
X96218658Y-92707462D01*
X96216372Y-92701666D01*
X96213816Y-92696012D01*
X96210997Y-92690508D01*
X96207924Y-92685163D01*
X96204604Y-92679985D01*
X96201045Y-92674981D01*
X96197256Y-92670159D01*
X96193244Y-92665528D01*
X96189018Y-92661096D01*
X96184585Y-92656870D01*
X96179954Y-92652859D01*
X96175132Y-92649070D01*
X96170128Y-92645511D01*
X96164949Y-92642192D01*
X96159604Y-92639119D01*
X96154101Y-92636300D01*
X96148447Y-92633745D01*
X96142651Y-92631460D01*
X96136721Y-92629453D01*
X96130664Y-92627734D01*
X96124489Y-92626309D01*
X96118204Y-92625186D01*
X96111817Y-92624375D01*
X96105336Y-92623882D01*
X96098768Y-92623716D01*
X96040927Y-92623716D01*
X96034358Y-92623882D01*
X96027876Y-92624375D01*
X96021488Y-92625186D01*
X96015202Y-92626309D01*
X96009026Y-92627734D01*
X96002969Y-92629453D01*
X95997039Y-92631460D01*
X95991242Y-92633745D01*
X95985588Y-92636300D01*
X95980085Y-92639119D01*
X95974740Y-92642192D01*
X95969561Y-92645511D01*
X95964557Y-92649070D01*
X95959736Y-92652859D01*
X95955105Y-92656870D01*
X95950672Y-92661096D01*
X95946446Y-92665528D01*
X95942435Y-92670159D01*
X95938646Y-92674981D01*
X95935088Y-92679985D01*
X95931768Y-92685163D01*
X95928695Y-92690508D01*
X95925877Y-92696012D01*
X95923321Y-92701666D01*
X95921036Y-92707462D01*
X95919029Y-92713393D01*
X95917310Y-92719450D01*
X95915885Y-92725625D01*
X95914762Y-92731911D01*
X95913951Y-92738299D01*
X95913458Y-92744782D01*
X95913292Y-92751351D01*
X95913292Y-93409111D01*
X95287083Y-93409111D01*
X95283191Y-93409210D01*
X95279350Y-93409502D01*
X95275565Y-93409983D01*
X95271841Y-93410648D01*
X95268181Y-93411493D01*
X95264592Y-93412512D01*
X95261077Y-93413701D01*
X95257642Y-93415056D01*
X95254291Y-93416570D01*
X95251029Y-93418241D01*
X95247861Y-93420062D01*
X95244792Y-93422030D01*
X95241826Y-93424139D01*
X95238968Y-93426384D01*
X95236223Y-93428761D01*
X95233595Y-93431266D01*
X95231090Y-93433893D01*
X95228712Y-93436637D01*
X95226466Y-93439495D01*
X95224356Y-93442460D01*
X95222388Y-93445529D01*
X95220566Y-93448696D01*
X95218895Y-93451958D01*
X95217380Y-93455308D01*
X95216025Y-93458743D01*
X95214836Y-93462257D01*
X95213816Y-93465846D01*
X95212971Y-93469505D01*
X95212306Y-93473230D01*
X95211824Y-93477015D01*
X95211532Y-93480855D01*
X95211434Y-93484747D01*
X95211434Y-95891750D01*
X94343106Y-95891750D01*
X94343106Y-92809643D01*
X94343170Y-92807735D01*
G37*
X94343170Y-92807735D02*
X94343358Y-92805850D01*
X94343669Y-92803994D01*
X94344098Y-92802172D01*
X94344643Y-92800388D01*
X94345302Y-92798649D01*
X94346070Y-92796959D01*
X94346945Y-92795324D01*
X94347923Y-92793749D01*
X94349003Y-92792239D01*
X94350180Y-92790799D01*
X94351453Y-92789434D01*
X94352817Y-92788151D01*
X94354269Y-92786953D01*
X94355808Y-92785846D01*
X94357429Y-92784836D01*
X97611254Y-90906239D01*
X97639899Y-90906239D01*
X100893738Y-92784836D01*
X100894557Y-92785329D01*
X100895357Y-92785846D01*
X100896136Y-92786388D01*
X100896894Y-92786953D01*
X100897630Y-92787541D01*
X100898345Y-92788151D01*
X100899038Y-92788782D01*
X100899708Y-92789434D01*
X100900356Y-92790107D01*
X100900980Y-92790799D01*
X100901581Y-92791510D01*
X100902158Y-92792239D01*
X100902710Y-92792985D01*
X100903238Y-92793749D01*
X100903740Y-92794529D01*
X100904217Y-92795324D01*
X100904668Y-92796135D01*
X100905093Y-92796959D01*
X100905491Y-92797798D01*
X100905862Y-92798649D01*
X100906205Y-92799513D01*
X100906521Y-92800388D01*
X100906808Y-92801275D01*
X100907067Y-92802172D01*
X100907297Y-92803078D01*
X100907497Y-92803994D01*
X100907668Y-92804918D01*
X100907808Y-92805850D01*
X100907918Y-92806789D01*
X100907997Y-92807735D01*
X100908044Y-92808687D01*
X100908060Y-92809643D01*
X100908060Y-96566853D01*
X100907997Y-96568762D01*
X100907808Y-96570646D01*
X100907497Y-96572503D01*
X100907067Y-96574325D01*
X100906521Y-96576109D01*
X100905862Y-96577848D01*
X100905093Y-96579538D01*
X100904217Y-96581173D01*
X100903238Y-96582748D01*
X100902158Y-96584258D01*
X100900980Y-96585698D01*
X100899708Y-96587062D01*
X100898345Y-96588346D01*
X100896894Y-96589544D01*
X100895357Y-96590651D01*
X100893738Y-96591661D01*
X97639899Y-98470258D01*
X97639062Y-98470723D01*
X97638214Y-98471157D01*
X97637355Y-98471561D01*
X97636486Y-98471936D01*
X97635609Y-98472281D01*
X97634722Y-98472596D01*
X97633829Y-98472881D01*
X97632928Y-98473136D01*
X97632022Y-98473361D01*
X97631110Y-98473556D01*
X97630194Y-98473722D01*
X97629275Y-98473857D01*
X97628353Y-98473962D01*
X97627428Y-98474037D01*
X97626503Y-98474083D01*
X97625577Y-98474098D01*
X97624648Y-98474083D01*
X97623720Y-98474037D01*
X97622794Y-98473962D01*
X97621870Y-98473857D01*
X97620949Y-98473722D01*
X97620033Y-98473556D01*
X97619120Y-98473361D01*
X97618214Y-98473136D01*
X97617314Y-98472881D01*
X97616420Y-98472596D01*
X97615535Y-98472281D01*
X97614658Y-98471936D01*
X97613791Y-98471561D01*
X97612934Y-98471157D01*
X97612088Y-98470723D01*
X97611254Y-98470258D01*
X94357429Y-96591661D01*
X94356608Y-96591168D01*
X94355808Y-96590651D01*
X94355028Y-96590109D01*
X94354269Y-96589544D01*
X94353532Y-96588956D01*
X94352817Y-96588346D01*
X94352123Y-96587715D01*
X94351453Y-96587062D01*
X94350805Y-96586390D01*
X94350180Y-96585698D01*
X94349580Y-96584987D01*
X94349003Y-96584258D01*
X94348451Y-96583511D01*
X94347923Y-96582748D01*
X94347421Y-96581968D01*
X94346945Y-96581173D01*
X94346494Y-96580362D01*
X94346070Y-96579538D01*
X94345672Y-96578699D01*
X94345302Y-96577848D01*
X94344959Y-96576984D01*
X94344643Y-96576109D01*
X94344356Y-96575222D01*
X94344098Y-96574325D01*
X94343869Y-96573419D01*
X94343669Y-96572503D01*
X94343499Y-96571579D01*
X94343358Y-96570646D01*
X94343249Y-96569707D01*
X94343170Y-96568762D01*
X94343122Y-96567810D01*
X94343106Y-96566853D01*
X94343106Y-95891750D01*
X95211434Y-95891750D01*
X95211532Y-95895642D01*
X95211824Y-95899483D01*
X95212306Y-95903268D01*
X95212971Y-95906993D01*
X95213816Y-95910652D01*
X95214836Y-95914242D01*
X95216025Y-95917756D01*
X95217380Y-95921192D01*
X95218895Y-95924542D01*
X95220566Y-95927804D01*
X95222388Y-95930972D01*
X95224356Y-95934042D01*
X95226466Y-95937008D01*
X95228712Y-95939866D01*
X95231090Y-95942611D01*
X95233595Y-95945238D01*
X95236223Y-95947743D01*
X95238968Y-95950121D01*
X95241826Y-95952367D01*
X95244792Y-95954477D01*
X95247861Y-95956445D01*
X95251029Y-95958267D01*
X95254291Y-95959938D01*
X95257642Y-95961453D01*
X95261077Y-95962808D01*
X95264592Y-95963998D01*
X95268181Y-95965017D01*
X95271841Y-95965862D01*
X95275565Y-95966528D01*
X95279350Y-95967009D01*
X95283191Y-95967301D01*
X95287083Y-95967400D01*
X95913292Y-95967400D01*
X95913292Y-96625147D01*
X95913458Y-96631714D01*
X95913951Y-96638196D01*
X95914762Y-96644583D01*
X95915885Y-96650868D01*
X95917310Y-96657043D01*
X95919029Y-96663099D01*
X95921036Y-96669029D01*
X95923321Y-96674825D01*
X95925877Y-96680479D01*
X95928695Y-96685982D01*
X95931768Y-96691327D01*
X95935088Y-96696506D01*
X95938646Y-96701510D01*
X95942435Y-96706332D01*
X95946446Y-96710963D01*
X95950672Y-96715396D01*
X95955105Y-96719622D01*
X95959736Y-96723634D01*
X95964557Y-96727423D01*
X95969561Y-96730982D01*
X95974740Y-96734302D01*
X95980085Y-96737375D01*
X95985588Y-96740194D01*
X95991242Y-96742750D01*
X95997039Y-96745036D01*
X96002969Y-96747042D01*
X96009026Y-96748762D01*
X96015202Y-96750188D01*
X96021488Y-96751310D01*
X96027876Y-96752122D01*
X96034358Y-96752615D01*
X96040927Y-96752781D01*
X96098768Y-96752781D01*
X96105336Y-96752615D01*
X96111817Y-96752122D01*
X96118204Y-96751310D01*
X96124489Y-96750188D01*
X96130664Y-96748762D01*
X96136721Y-96747042D01*
X96142651Y-96745036D01*
X96148447Y-96742750D01*
X96154101Y-96740194D01*
X96159604Y-96737375D01*
X96164949Y-96734302D01*
X96170128Y-96730982D01*
X96175132Y-96727423D01*
X96179954Y-96723634D01*
X96184585Y-96719622D01*
X96189018Y-96715396D01*
X96193244Y-96710963D01*
X96197256Y-96706332D01*
X96201045Y-96701510D01*
X96204604Y-96696506D01*
X96207924Y-96691327D01*
X96210997Y-96685982D01*
X96213816Y-96680479D01*
X96216372Y-96674825D01*
X96218658Y-96669029D01*
X96220665Y-96663099D01*
X96222385Y-96657043D01*
X96223810Y-96650868D01*
X96224933Y-96644583D01*
X96225744Y-96638196D01*
X96226237Y-96631714D01*
X96226403Y-96625147D01*
X96226403Y-95967400D01*
X96950444Y-95967400D01*
X96950444Y-96625147D01*
X96950610Y-96631714D01*
X96951103Y-96638196D01*
X96951915Y-96644583D01*
X96953037Y-96650868D01*
X96954462Y-96657043D01*
X96956182Y-96663099D01*
X96958188Y-96669029D01*
X96960473Y-96674825D01*
X96963029Y-96680479D01*
X96965847Y-96685982D01*
X96968921Y-96691327D01*
X96972240Y-96696506D01*
X96975798Y-96701510D01*
X96979587Y-96706332D01*
X96983599Y-96710963D01*
X96987825Y-96715396D01*
X96992257Y-96719622D01*
X96996888Y-96723634D01*
X97001710Y-96727423D01*
X97006714Y-96730982D01*
X97011892Y-96734302D01*
X97017237Y-96737375D01*
X97022741Y-96740194D01*
X97028395Y-96742750D01*
X97034191Y-96745036D01*
X97040122Y-96747042D01*
X97046179Y-96748762D01*
X97052354Y-96750188D01*
X97058640Y-96751310D01*
X97065028Y-96752122D01*
X97071511Y-96752615D01*
X97078079Y-96752781D01*
X97135921Y-96752781D01*
X97142490Y-96752615D01*
X97148972Y-96752122D01*
X97155361Y-96751310D01*
X97161647Y-96750188D01*
X97167823Y-96748762D01*
X97173880Y-96747042D01*
X97179811Y-96745036D01*
X97185608Y-96742750D01*
X97191262Y-96740194D01*
X97196766Y-96737375D01*
X97202112Y-96734302D01*
X97207291Y-96730982D01*
X97212296Y-96727423D01*
X97217118Y-96723634D01*
X97221749Y-96719622D01*
X97226183Y-96715396D01*
X97230409Y-96710963D01*
X97234421Y-96706332D01*
X97238211Y-96701510D01*
X97241770Y-96696506D01*
X97245090Y-96691327D01*
X97248163Y-96685982D01*
X97250982Y-96680479D01*
X97253539Y-96674825D01*
X97255824Y-96669029D01*
X97257831Y-96663099D01*
X97259551Y-96657043D01*
X97260976Y-96650868D01*
X97262099Y-96644583D01*
X97262911Y-96638196D01*
X97263404Y-96631714D01*
X97263570Y-96625147D01*
X97263570Y-95967400D01*
X97987611Y-95967400D01*
X97987611Y-96625147D01*
X97987777Y-96631714D01*
X97988270Y-96638196D01*
X97989081Y-96644583D01*
X97990204Y-96650868D01*
X97991629Y-96657043D01*
X97993349Y-96663099D01*
X97995356Y-96669029D01*
X97997642Y-96674825D01*
X98000198Y-96680479D01*
X98003017Y-96685982D01*
X98006090Y-96691327D01*
X98009410Y-96696506D01*
X98012969Y-96701510D01*
X98016758Y-96706332D01*
X98020770Y-96710963D01*
X98024996Y-96715396D01*
X98029429Y-96719622D01*
X98034061Y-96723634D01*
X98038882Y-96727423D01*
X98043887Y-96730982D01*
X98049065Y-96734302D01*
X98054410Y-96737375D01*
X98059913Y-96740194D01*
X98065567Y-96742750D01*
X98071363Y-96745036D01*
X98077293Y-96747042D01*
X98083350Y-96748762D01*
X98089525Y-96750188D01*
X98095810Y-96751310D01*
X98102197Y-96752122D01*
X98108679Y-96752615D01*
X98115246Y-96752781D01*
X98173073Y-96752781D01*
X98179642Y-96752615D01*
X98186125Y-96752122D01*
X98192513Y-96751310D01*
X98198799Y-96750188D01*
X98204974Y-96748762D01*
X98211031Y-96747042D01*
X98216962Y-96745036D01*
X98222758Y-96742750D01*
X98228412Y-96740194D01*
X98233915Y-96737375D01*
X98239260Y-96734302D01*
X98244439Y-96730982D01*
X98249443Y-96727423D01*
X98254264Y-96723634D01*
X98258895Y-96719622D01*
X98263328Y-96715396D01*
X98267554Y-96710963D01*
X98271565Y-96706332D01*
X98275354Y-96701510D01*
X98278912Y-96696506D01*
X98282232Y-96691327D01*
X98285305Y-96685982D01*
X98288123Y-96680479D01*
X98290679Y-96674825D01*
X98292964Y-96669029D01*
X98294971Y-96663099D01*
X98296690Y-96657043D01*
X98298115Y-96650868D01*
X98299238Y-96644583D01*
X98300049Y-96638196D01*
X98300542Y-96631714D01*
X98300708Y-96625147D01*
X98300708Y-95967400D01*
X99024763Y-95967400D01*
X99024763Y-96625147D01*
X99024929Y-96631714D01*
X99025422Y-96638196D01*
X99026234Y-96644583D01*
X99027357Y-96650868D01*
X99028782Y-96657043D01*
X99030502Y-96663099D01*
X99032509Y-96669029D01*
X99034794Y-96674825D01*
X99037351Y-96680479D01*
X99040169Y-96685982D01*
X99043243Y-96691327D01*
X99046563Y-96696506D01*
X99050122Y-96701510D01*
X99053911Y-96706332D01*
X99057923Y-96710963D01*
X99062149Y-96715396D01*
X99066582Y-96719622D01*
X99071213Y-96723634D01*
X99076035Y-96727423D01*
X99081039Y-96730982D01*
X99086218Y-96734302D01*
X99091563Y-96737375D01*
X99097066Y-96740194D01*
X99102720Y-96742750D01*
X99108516Y-96745036D01*
X99114446Y-96747042D01*
X99120502Y-96748762D01*
X99126677Y-96750188D01*
X99132962Y-96751310D01*
X99139349Y-96752122D01*
X99145831Y-96752615D01*
X99152398Y-96752781D01*
X99210225Y-96752781D01*
X99216794Y-96752615D01*
X99223277Y-96752122D01*
X99229665Y-96751310D01*
X99235951Y-96750188D01*
X99242126Y-96748762D01*
X99248183Y-96747042D01*
X99254114Y-96745036D01*
X99259910Y-96742750D01*
X99265564Y-96740194D01*
X99271068Y-96737375D01*
X99276413Y-96734302D01*
X99281591Y-96730982D01*
X99286595Y-96727423D01*
X99291417Y-96723634D01*
X99296048Y-96719622D01*
X99300480Y-96715396D01*
X99304706Y-96710963D01*
X99308718Y-96706332D01*
X99312507Y-96701510D01*
X99316065Y-96696506D01*
X99319385Y-96691327D01*
X99322458Y-96685982D01*
X99325276Y-96680479D01*
X99327832Y-96674825D01*
X99330117Y-96669029D01*
X99332123Y-96663099D01*
X99333843Y-96657043D01*
X99335268Y-96650868D01*
X99336390Y-96644583D01*
X99337202Y-96638196D01*
X99337695Y-96631714D01*
X99337861Y-96625147D01*
X99337861Y-95967400D01*
X99964069Y-95967400D01*
X99967964Y-95967301D01*
X99971807Y-95967009D01*
X99975594Y-95966528D01*
X99979320Y-95965862D01*
X99982981Y-95965017D01*
X99986572Y-95963998D01*
X99990087Y-95962808D01*
X99993523Y-95961453D01*
X99996874Y-95959938D01*
X100000136Y-95958267D01*
X100003304Y-95956445D01*
X100006374Y-95954477D01*
X100009339Y-95952367D01*
X100012197Y-95950121D01*
X100014942Y-95947743D01*
X100017568Y-95945238D01*
X100020073Y-95942611D01*
X100022450Y-95939866D01*
X100024695Y-95937008D01*
X100026804Y-95934042D01*
X100028771Y-95930972D01*
X100030592Y-95927804D01*
X100032262Y-95924542D01*
X100033777Y-95921192D01*
X100035131Y-95917756D01*
X100036320Y-95914242D01*
X100037339Y-95910652D01*
X100038183Y-95906993D01*
X100038848Y-95903268D01*
X100039329Y-95899483D01*
X100039621Y-95895642D01*
X100039719Y-95891750D01*
X100039719Y-93484747D01*
X100039621Y-93480855D01*
X100039329Y-93477015D01*
X100038848Y-93473230D01*
X100038183Y-93469505D01*
X100037339Y-93465846D01*
X100036320Y-93462257D01*
X100035131Y-93458743D01*
X100033777Y-93455308D01*
X100032262Y-93451958D01*
X100030592Y-93448696D01*
X100028771Y-93445529D01*
X100026804Y-93442460D01*
X100024695Y-93439495D01*
X100022450Y-93436637D01*
X100020073Y-93433893D01*
X100017568Y-93431266D01*
X100014942Y-93428761D01*
X100012197Y-93426384D01*
X100009339Y-93424139D01*
X100006374Y-93422030D01*
X100003304Y-93420062D01*
X100000136Y-93418241D01*
X99996874Y-93416570D01*
X99993523Y-93415056D01*
X99990087Y-93413701D01*
X99986572Y-93412512D01*
X99982981Y-93411493D01*
X99979320Y-93410648D01*
X99975594Y-93409983D01*
X99971807Y-93409502D01*
X99967964Y-93409210D01*
X99964069Y-93409111D01*
X99337861Y-93409111D01*
X99337861Y-92751351D01*
X99337695Y-92744782D01*
X99337202Y-92738299D01*
X99336390Y-92731911D01*
X99335268Y-92725625D01*
X99333843Y-92719450D01*
X99332123Y-92713393D01*
X99330117Y-92707462D01*
X99327832Y-92701666D01*
X99325276Y-92696012D01*
X99322458Y-92690508D01*
X99319385Y-92685163D01*
X99316065Y-92679985D01*
X99312507Y-92674981D01*
X99308718Y-92670159D01*
X99304706Y-92665528D01*
X99300480Y-92661096D01*
X99296048Y-92656870D01*
X99291417Y-92652859D01*
X99286595Y-92649070D01*
X99281591Y-92645511D01*
X99276413Y-92642192D01*
X99271068Y-92639119D01*
X99265564Y-92636300D01*
X99259910Y-92633745D01*
X99254114Y-92631460D01*
X99248183Y-92629453D01*
X99242126Y-92627734D01*
X99235951Y-92626309D01*
X99229665Y-92625186D01*
X99223277Y-92624375D01*
X99216794Y-92623882D01*
X99210225Y-92623716D01*
X99152398Y-92623716D01*
X99145831Y-92623882D01*
X99139349Y-92624375D01*
X99132962Y-92625186D01*
X99126677Y-92626309D01*
X99120502Y-92627734D01*
X99114446Y-92629453D01*
X99108516Y-92631460D01*
X99102720Y-92633745D01*
X99097066Y-92636300D01*
X99091563Y-92639119D01*
X99086218Y-92642192D01*
X99081039Y-92645511D01*
X99076035Y-92649070D01*
X99071213Y-92652859D01*
X99066582Y-92656870D01*
X99062149Y-92661096D01*
X99057923Y-92665528D01*
X99053911Y-92670159D01*
X99050122Y-92674981D01*
X99046563Y-92679985D01*
X99043243Y-92685163D01*
X99040169Y-92690508D01*
X99037351Y-92696012D01*
X99034794Y-92701666D01*
X99032509Y-92707462D01*
X99030502Y-92713393D01*
X99028782Y-92719450D01*
X99027357Y-92725625D01*
X99026234Y-92731911D01*
X99025422Y-92738299D01*
X99024929Y-92744782D01*
X99024763Y-92751351D01*
X99024763Y-93409111D01*
X98300708Y-93409111D01*
X98300708Y-92751351D01*
X98300542Y-92744782D01*
X98300049Y-92738299D01*
X98299238Y-92731911D01*
X98298115Y-92725625D01*
X98296690Y-92719450D01*
X98294971Y-92713393D01*
X98292964Y-92707462D01*
X98290679Y-92701666D01*
X98288123Y-92696012D01*
X98285305Y-92690508D01*
X98282232Y-92685163D01*
X98278912Y-92679985D01*
X98275354Y-92674981D01*
X98271565Y-92670159D01*
X98267554Y-92665528D01*
X98263328Y-92661096D01*
X98258895Y-92656870D01*
X98254264Y-92652859D01*
X98249443Y-92649070D01*
X98244439Y-92645511D01*
X98239260Y-92642192D01*
X98233915Y-92639119D01*
X98228412Y-92636300D01*
X98222758Y-92633745D01*
X98216962Y-92631460D01*
X98211031Y-92629453D01*
X98204974Y-92627734D01*
X98198799Y-92626309D01*
X98192513Y-92625186D01*
X98186125Y-92624375D01*
X98179642Y-92623882D01*
X98173073Y-92623716D01*
X98115246Y-92623716D01*
X98108679Y-92623882D01*
X98102197Y-92624375D01*
X98095810Y-92625186D01*
X98089525Y-92626309D01*
X98083350Y-92627734D01*
X98077293Y-92629453D01*
X98071363Y-92631460D01*
X98065567Y-92633745D01*
X98059913Y-92636300D01*
X98054410Y-92639119D01*
X98049065Y-92642192D01*
X98043887Y-92645511D01*
X98038882Y-92649070D01*
X98034061Y-92652859D01*
X98029429Y-92656870D01*
X98024996Y-92661096D01*
X98020770Y-92665528D01*
X98016758Y-92670159D01*
X98012969Y-92674981D01*
X98009410Y-92679985D01*
X98006090Y-92685163D01*
X98003017Y-92690508D01*
X98000198Y-92696012D01*
X97997642Y-92701666D01*
X97995356Y-92707462D01*
X97993349Y-92713393D01*
X97991629Y-92719450D01*
X97990204Y-92725625D01*
X97989081Y-92731911D01*
X97988270Y-92738299D01*
X97987777Y-92744782D01*
X97987611Y-92751351D01*
X97987611Y-93409111D01*
X97263570Y-93409111D01*
X97263570Y-92751351D01*
X97263404Y-92744782D01*
X97262911Y-92738299D01*
X97262099Y-92731911D01*
X97260976Y-92725625D01*
X97259551Y-92719450D01*
X97257831Y-92713393D01*
X97255824Y-92707462D01*
X97253539Y-92701666D01*
X97250982Y-92696012D01*
X97248163Y-92690508D01*
X97245090Y-92685163D01*
X97241770Y-92679985D01*
X97238211Y-92674981D01*
X97234421Y-92670159D01*
X97230409Y-92665528D01*
X97226183Y-92661096D01*
X97221749Y-92656870D01*
X97217118Y-92652859D01*
X97212296Y-92649070D01*
X97207291Y-92645511D01*
X97202112Y-92642192D01*
X97196766Y-92639119D01*
X97191262Y-92636300D01*
X97185608Y-92633745D01*
X97179811Y-92631460D01*
X97173880Y-92629453D01*
X97167823Y-92627734D01*
X97161647Y-92626309D01*
X97155361Y-92625186D01*
X97148972Y-92624375D01*
X97142490Y-92623882D01*
X97135921Y-92623716D01*
X97078079Y-92623716D01*
X97071511Y-92623882D01*
X97065028Y-92624375D01*
X97058640Y-92625186D01*
X97052354Y-92626309D01*
X97046179Y-92627734D01*
X97040122Y-92629453D01*
X97034191Y-92631460D01*
X97028395Y-92633745D01*
X97022741Y-92636300D01*
X97017237Y-92639119D01*
X97011892Y-92642192D01*
X97006714Y-92645511D01*
X97001710Y-92649070D01*
X96996888Y-92652859D01*
X96992257Y-92656870D01*
X96987825Y-92661096D01*
X96983599Y-92665528D01*
X96979587Y-92670159D01*
X96975798Y-92674981D01*
X96972240Y-92679985D01*
X96968921Y-92685163D01*
X96965847Y-92690508D01*
X96963029Y-92696012D01*
X96960473Y-92701666D01*
X96958188Y-92707462D01*
X96956182Y-92713393D01*
X96954462Y-92719450D01*
X96953037Y-92725625D01*
X96951915Y-92731911D01*
X96951103Y-92738299D01*
X96950610Y-92744782D01*
X96950444Y-92751351D01*
X96950444Y-93409111D01*
X96226403Y-93409111D01*
X96226403Y-92751351D01*
X96226237Y-92744782D01*
X96225744Y-92738299D01*
X96224933Y-92731911D01*
X96223810Y-92725625D01*
X96222385Y-92719450D01*
X96220665Y-92713393D01*
X96218658Y-92707462D01*
X96216372Y-92701666D01*
X96213816Y-92696012D01*
X96210997Y-92690508D01*
X96207924Y-92685163D01*
X96204604Y-92679985D01*
X96201045Y-92674981D01*
X96197256Y-92670159D01*
X96193244Y-92665528D01*
X96189018Y-92661096D01*
X96184585Y-92656870D01*
X96179954Y-92652859D01*
X96175132Y-92649070D01*
X96170128Y-92645511D01*
X96164949Y-92642192D01*
X96159604Y-92639119D01*
X96154101Y-92636300D01*
X96148447Y-92633745D01*
X96142651Y-92631460D01*
X96136721Y-92629453D01*
X96130664Y-92627734D01*
X96124489Y-92626309D01*
X96118204Y-92625186D01*
X96111817Y-92624375D01*
X96105336Y-92623882D01*
X96098768Y-92623716D01*
X96040927Y-92623716D01*
X96034358Y-92623882D01*
X96027876Y-92624375D01*
X96021488Y-92625186D01*
X96015202Y-92626309D01*
X96009026Y-92627734D01*
X96002969Y-92629453D01*
X95997039Y-92631460D01*
X95991242Y-92633745D01*
X95985588Y-92636300D01*
X95980085Y-92639119D01*
X95974740Y-92642192D01*
X95969561Y-92645511D01*
X95964557Y-92649070D01*
X95959736Y-92652859D01*
X95955105Y-92656870D01*
X95950672Y-92661096D01*
X95946446Y-92665528D01*
X95942435Y-92670159D01*
X95938646Y-92674981D01*
X95935088Y-92679985D01*
X95931768Y-92685163D01*
X95928695Y-92690508D01*
X95925877Y-92696012D01*
X95923321Y-92701666D01*
X95921036Y-92707462D01*
X95919029Y-92713393D01*
X95917310Y-92719450D01*
X95915885Y-92725625D01*
X95914762Y-92731911D01*
X95913951Y-92738299D01*
X95913458Y-92744782D01*
X95913292Y-92751351D01*
X95913292Y-93409111D01*
X95287083Y-93409111D01*
X95283191Y-93409210D01*
X95279350Y-93409502D01*
X95275565Y-93409983D01*
X95271841Y-93410648D01*
X95268181Y-93411493D01*
X95264592Y-93412512D01*
X95261077Y-93413701D01*
X95257642Y-93415056D01*
X95254291Y-93416570D01*
X95251029Y-93418241D01*
X95247861Y-93420062D01*
X95244792Y-93422030D01*
X95241826Y-93424139D01*
X95238968Y-93426384D01*
X95236223Y-93428761D01*
X95233595Y-93431266D01*
X95231090Y-93433893D01*
X95228712Y-93436637D01*
X95226466Y-93439495D01*
X95224356Y-93442460D01*
X95222388Y-93445529D01*
X95220566Y-93448696D01*
X95218895Y-93451958D01*
X95217380Y-93455308D01*
X95216025Y-93458743D01*
X95214836Y-93462257D01*
X95213816Y-93465846D01*
X95212971Y-93469505D01*
X95212306Y-93473230D01*
X95211824Y-93477015D01*
X95211532Y-93480855D01*
X95211434Y-93484747D01*
X95211434Y-95891750D01*
X94343106Y-95891750D01*
X94343106Y-92809643D01*
X94343170Y-92807735D01*
D12*
X92155382Y-137992418D02*
X92155382Y-137230513D01*
X92536334Y-137611465D02*
X91774430Y-137611465D01*
X91536334Y-136278132D02*
X91536334Y-136754323D01*
X92012525Y-136801942D01*
X91964906Y-136754323D01*
X91917287Y-136659084D01*
X91917287Y-136420989D01*
X91964906Y-136325751D01*
X92012525Y-136278132D01*
X92107763Y-136230513D01*
X92345858Y-136230513D01*
X92441096Y-136278132D01*
X92488715Y-136325751D01*
X92536334Y-136420989D01*
X92536334Y-136659084D01*
X92488715Y-136754323D01*
X92441096Y-136801942D01*
X91536334Y-135944799D02*
X92536334Y-135611465D01*
X91536334Y-135278132D01*
X145467966Y-89768445D02*
X144467966Y-89768445D01*
X145467966Y-89197016D01*
X144467966Y-89197016D01*
X144944157Y-88720826D02*
X144944157Y-88387492D01*
X145467966Y-88244635D02*
X145467966Y-88720826D01*
X144467966Y-88720826D01*
X144467966Y-88244635D01*
X144467966Y-87625588D02*
X144467966Y-87435111D01*
X144515586Y-87339873D01*
X144610824Y-87244635D01*
X144801300Y-87197016D01*
X145134633Y-87197016D01*
X145325109Y-87244635D01*
X145420347Y-87339873D01*
X145467966Y-87435111D01*
X145467966Y-87625588D01*
X145420347Y-87720826D01*
X145325109Y-87816064D01*
X145134633Y-87863683D01*
X144801300Y-87863683D01*
X144610824Y-87816064D01*
X144515586Y-87720826D01*
X144467966Y-87625588D01*
X145467966Y-86768445D02*
X144467966Y-86768445D01*
X144467966Y-86387492D01*
X144515586Y-86292254D01*
X144563205Y-86244635D01*
X144658443Y-86197016D01*
X144801300Y-86197016D01*
X144896538Y-86244635D01*
X144944157Y-86292254D01*
X144991776Y-86387492D01*
X144991776Y-86768445D01*
X145467966Y-85768445D02*
X144467966Y-85768445D01*
X144467966Y-85387492D02*
X145467966Y-84720826D01*
X144467966Y-84720826D02*
X145467966Y-85387492D01*
X144944157Y-84339873D02*
X144944157Y-84006540D01*
X145467966Y-83863683D02*
X145467966Y-84339873D01*
X144467966Y-84339873D01*
X144467966Y-83863683D01*
X145467966Y-82958921D02*
X145467966Y-83435111D01*
X144467966Y-83435111D01*
X144563205Y-81911302D02*
X144515586Y-81863683D01*
X144467966Y-81768445D01*
X144467966Y-81530349D01*
X144515586Y-81435111D01*
X144563205Y-81387492D01*
X144658443Y-81339873D01*
X144753681Y-81339873D01*
X144896538Y-81387492D01*
X145467966Y-81958921D01*
X145467966Y-81339873D01*
X109619047Y-69952380D02*
X110190476Y-69952380D01*
X109904761Y-70952380D02*
X109904761Y-69952380D01*
X110428571Y-69952380D02*
X111095238Y-70952380D01*
X111095238Y-69952380D02*
X110428571Y-70952380D01*
X111523809Y-70190476D02*
X111523809Y-70952380D01*
X111571428Y-70238095D02*
X111571428Y-70904761D01*
X111619047Y-70238095D02*
X111619047Y-70904761D01*
X111666666Y-70285714D02*
X111666666Y-70857142D01*
X111714285Y-70285714D02*
X111714285Y-70857142D01*
X111761904Y-70333333D02*
X111761904Y-70809523D01*
X111809523Y-70333333D02*
X111809523Y-70809523D01*
X111857142Y-70380952D02*
X111857142Y-70761904D01*
X111904761Y-70428571D02*
X111904761Y-70714285D01*
X111952380Y-70428571D02*
X111952380Y-70714285D01*
X112000000Y-70476190D02*
X112000000Y-70666666D01*
X112047619Y-70476190D02*
X112047619Y-70666666D01*
X112095238Y-70571428D02*
X112142857Y-70571428D01*
X112095238Y-70523809D02*
X112095238Y-70619047D01*
X111476190Y-70190476D02*
X112190476Y-70571428D01*
X111476190Y-70952380D01*
X112238095Y-70571428D02*
X111476190Y-71000000D01*
X111476190Y-70142857D01*
X112238095Y-70571428D01*
X132216023Y-134864701D02*
X132168403Y-134959939D01*
X132168403Y-135102797D01*
X132216023Y-135245654D01*
X132311261Y-135340892D01*
X132406499Y-135388511D01*
X132596975Y-135436130D01*
X132739832Y-135436130D01*
X132930308Y-135388511D01*
X133025546Y-135340892D01*
X133120784Y-135245654D01*
X133168403Y-135102797D01*
X133168403Y-135007558D01*
X133120784Y-134864701D01*
X133073165Y-134817082D01*
X132739832Y-134817082D01*
X132739832Y-135007558D01*
X133168403Y-134388511D02*
X132168403Y-134388511D01*
X133168403Y-133817082D01*
X132168403Y-133817082D01*
X133168403Y-133340892D02*
X132168403Y-133340892D01*
X132168403Y-133102797D01*
X132216023Y-132959939D01*
X132311261Y-132864701D01*
X132406499Y-132817082D01*
X132596975Y-132769463D01*
X132739832Y-132769463D01*
X132930308Y-132817082D01*
X133025546Y-132864701D01*
X133120784Y-132959939D01*
X133168403Y-133102797D01*
X133168403Y-133340892D01*
X104411314Y-137518152D02*
X104363694Y-137613390D01*
X104363694Y-137756248D01*
X104411314Y-137899105D01*
X104506552Y-137994343D01*
X104601790Y-138041962D01*
X104792266Y-138089581D01*
X104935123Y-138089581D01*
X105125599Y-138041962D01*
X105220837Y-137994343D01*
X105316075Y-137899105D01*
X105363694Y-137756248D01*
X105363694Y-137661009D01*
X105316075Y-137518152D01*
X105268456Y-137470533D01*
X104935123Y-137470533D01*
X104935123Y-137661009D01*
X105363694Y-137041962D02*
X104363694Y-137041962D01*
X105363694Y-136470533D01*
X104363694Y-136470533D01*
X105363694Y-135994343D02*
X104363694Y-135994343D01*
X104363694Y-135756248D01*
X104411314Y-135613390D01*
X104506552Y-135518152D01*
X104601790Y-135470533D01*
X104792266Y-135422914D01*
X104935123Y-135422914D01*
X105125599Y-135470533D01*
X105220837Y-135518152D01*
X105316075Y-135613390D01*
X105363694Y-135756248D01*
X105363694Y-135994343D01*
D13*
X61928571Y-113821428D02*
X62000000Y-113750000D01*
X62142857Y-113678571D01*
X62500000Y-113678571D01*
X62642857Y-113750000D01*
X62714285Y-113821428D01*
X62785714Y-113964285D01*
X62785714Y-114107142D01*
X62714285Y-114321428D01*
X61857142Y-115178571D01*
X62785714Y-115178571D01*
X63357142Y-114750000D02*
X64071428Y-114750000D01*
X63214285Y-115178571D02*
X63714285Y-113678571D01*
X64214285Y-115178571D01*
D12*
X57214285Y-59452380D02*
X57785714Y-59452380D01*
X57500000Y-60452380D02*
X57500000Y-59452380D01*
X58023809Y-59452380D02*
X58690476Y-60452380D01*
X58690476Y-59452380D02*
X58023809Y-60452380D01*
X59071428Y-60452380D02*
X59071428Y-59452380D01*
X59309523Y-59452380D01*
X59452380Y-59500000D01*
X59547619Y-59595238D01*
X59595238Y-59690476D01*
X59642857Y-59880952D01*
X59642857Y-60023809D01*
X59595238Y-60214285D01*
X59547619Y-60309523D01*
X59452380Y-60404761D01*
X59309523Y-60452380D01*
X59071428Y-60452380D01*
X60261904Y-59452380D02*
X60452380Y-59452380D01*
X60547619Y-59500000D01*
X60642857Y-59595238D01*
X60690476Y-59785714D01*
X60690476Y-60119047D01*
X60642857Y-60309523D01*
X60547619Y-60404761D01*
X60452380Y-60452380D01*
X60261904Y-60452380D01*
X60166666Y-60404761D01*
X60071428Y-60309523D01*
X60023809Y-60119047D01*
X60023809Y-59785714D01*
X60071428Y-59595238D01*
X60166666Y-59500000D01*
X60261904Y-59452380D01*
X51123571Y-125831071D02*
X51171190Y-125688214D01*
X51218809Y-125640595D01*
X51314047Y-125592976D01*
X51456904Y-125592976D01*
X51552142Y-125640595D01*
X51599761Y-125688214D01*
X51647380Y-125783452D01*
X51647380Y-126164404D01*
X50647380Y-126164404D01*
X50647380Y-125831071D01*
X50695000Y-125735833D01*
X50742619Y-125688214D01*
X50837857Y-125640595D01*
X50933095Y-125640595D01*
X51028333Y-125688214D01*
X51075952Y-125735833D01*
X51123571Y-125831071D01*
X51123571Y-126164404D01*
X51599761Y-124783452D02*
X51647380Y-124878690D01*
X51647380Y-125069166D01*
X51599761Y-125164404D01*
X51504523Y-125212023D01*
X51123571Y-125212023D01*
X51028333Y-125164404D01*
X50980714Y-125069166D01*
X50980714Y-124878690D01*
X51028333Y-124783452D01*
X51123571Y-124735833D01*
X51218809Y-124735833D01*
X51314047Y-125212023D01*
X50980714Y-124450119D02*
X50980714Y-124069166D01*
X51647380Y-124307261D02*
X50790238Y-124307261D01*
X50695000Y-124259642D01*
X50647380Y-124164404D01*
X50647380Y-124069166D01*
X51647380Y-123592976D02*
X51599761Y-123688214D01*
X51552142Y-123735833D01*
X51456904Y-123783452D01*
X51171190Y-123783452D01*
X51075952Y-123735833D01*
X51028333Y-123688214D01*
X50980714Y-123592976D01*
X50980714Y-123450119D01*
X51028333Y-123354880D01*
X51075952Y-123307261D01*
X51171190Y-123259642D01*
X51456904Y-123259642D01*
X51552142Y-123307261D01*
X51599761Y-123354880D01*
X51647380Y-123450119D01*
X51647380Y-123592976D01*
X51647380Y-122831071D02*
X50980714Y-122831071D01*
X51171190Y-122831071D02*
X51075952Y-122783452D01*
X51028333Y-122735833D01*
X50980714Y-122640595D01*
X50980714Y-122545357D01*
X51599761Y-121831071D02*
X51647380Y-121926309D01*
X51647380Y-122116785D01*
X51599761Y-122212023D01*
X51504523Y-122259642D01*
X51123571Y-122259642D01*
X51028333Y-122212023D01*
X50980714Y-122116785D01*
X50980714Y-121926309D01*
X51028333Y-121831071D01*
X51123571Y-121783452D01*
X51218809Y-121783452D01*
X51314047Y-122259642D01*
X51599761Y-120164404D02*
X51647380Y-120259642D01*
X51647380Y-120450119D01*
X51599761Y-120545357D01*
X51552142Y-120592976D01*
X51456904Y-120640595D01*
X51171190Y-120640595D01*
X51075952Y-120592976D01*
X51028333Y-120545357D01*
X50980714Y-120450119D01*
X50980714Y-120259642D01*
X51028333Y-120164404D01*
X51647380Y-119592976D02*
X51599761Y-119688214D01*
X51552142Y-119735833D01*
X51456904Y-119783452D01*
X51171190Y-119783452D01*
X51075952Y-119735833D01*
X51028333Y-119688214D01*
X50980714Y-119592976D01*
X50980714Y-119450119D01*
X51028333Y-119354880D01*
X51075952Y-119307261D01*
X51171190Y-119259642D01*
X51456904Y-119259642D01*
X51552142Y-119307261D01*
X51599761Y-119354880D01*
X51647380Y-119450119D01*
X51647380Y-119592976D01*
X50980714Y-118831071D02*
X51647380Y-118831071D01*
X51075952Y-118831071D02*
X51028333Y-118783452D01*
X50980714Y-118688214D01*
X50980714Y-118545357D01*
X51028333Y-118450119D01*
X51123571Y-118402500D01*
X51647380Y-118402500D01*
X50980714Y-117926309D02*
X51647380Y-117926309D01*
X51075952Y-117926309D02*
X51028333Y-117878690D01*
X50980714Y-117783452D01*
X50980714Y-117640595D01*
X51028333Y-117545357D01*
X51123571Y-117497738D01*
X51647380Y-117497738D01*
X51599761Y-116640595D02*
X51647380Y-116735833D01*
X51647380Y-116926309D01*
X51599761Y-117021547D01*
X51504523Y-117069166D01*
X51123571Y-117069166D01*
X51028333Y-117021547D01*
X50980714Y-116926309D01*
X50980714Y-116735833D01*
X51028333Y-116640595D01*
X51123571Y-116592976D01*
X51218809Y-116592976D01*
X51314047Y-117069166D01*
X51599761Y-115735833D02*
X51647380Y-115831071D01*
X51647380Y-116021547D01*
X51599761Y-116116785D01*
X51552142Y-116164404D01*
X51456904Y-116212023D01*
X51171190Y-116212023D01*
X51075952Y-116164404D01*
X51028333Y-116116785D01*
X50980714Y-116021547D01*
X50980714Y-115831071D01*
X51028333Y-115735833D01*
X50980714Y-115450119D02*
X50980714Y-115069166D01*
X50647380Y-115307261D02*
X51504523Y-115307261D01*
X51599761Y-115259642D01*
X51647380Y-115164404D01*
X51647380Y-115069166D01*
X51647380Y-114735833D02*
X50980714Y-114735833D01*
X50647380Y-114735833D02*
X50695000Y-114783452D01*
X50742619Y-114735833D01*
X50695000Y-114688214D01*
X50647380Y-114735833D01*
X50742619Y-114735833D01*
X50980714Y-114259642D02*
X51647380Y-114259642D01*
X51075952Y-114259642D02*
X51028333Y-114212023D01*
X50980714Y-114116785D01*
X50980714Y-113973928D01*
X51028333Y-113878690D01*
X51123571Y-113831071D01*
X51647380Y-113831071D01*
X50980714Y-112926309D02*
X51790238Y-112926309D01*
X51885476Y-112973928D01*
X51933095Y-113021547D01*
X51980714Y-113116785D01*
X51980714Y-113259642D01*
X51933095Y-113354880D01*
X51599761Y-112926309D02*
X51647380Y-113021547D01*
X51647380Y-113212023D01*
X51599761Y-113307261D01*
X51552142Y-113354880D01*
X51456904Y-113402500D01*
X51171190Y-113402500D01*
X51075952Y-113354880D01*
X51028333Y-113307261D01*
X50980714Y-113212023D01*
X50980714Y-113021547D01*
X51028333Y-112926309D01*
X51647380Y-111688214D02*
X50647380Y-111688214D01*
X51028333Y-111688214D02*
X50980714Y-111592976D01*
X50980714Y-111402500D01*
X51028333Y-111307261D01*
X51075952Y-111259642D01*
X51171190Y-111212023D01*
X51456904Y-111212023D01*
X51552142Y-111259642D01*
X51599761Y-111307261D01*
X51647380Y-111402500D01*
X51647380Y-111592976D01*
X51599761Y-111688214D01*
X51647380Y-110354880D02*
X51123571Y-110354880D01*
X51028333Y-110402500D01*
X50980714Y-110497738D01*
X50980714Y-110688214D01*
X51028333Y-110783452D01*
X51599761Y-110354880D02*
X51647380Y-110450119D01*
X51647380Y-110688214D01*
X51599761Y-110783452D01*
X51504523Y-110831071D01*
X51409285Y-110831071D01*
X51314047Y-110783452D01*
X51266428Y-110688214D01*
X51266428Y-110450119D01*
X51218809Y-110354880D01*
X50980714Y-110021547D02*
X50980714Y-109640595D01*
X50647380Y-109878690D02*
X51504523Y-109878690D01*
X51599761Y-109831071D01*
X51647380Y-109735833D01*
X51647380Y-109640595D01*
X50980714Y-109450119D02*
X50980714Y-109069166D01*
X50647380Y-109307261D02*
X51504523Y-109307261D01*
X51599761Y-109259642D01*
X51647380Y-109164404D01*
X51647380Y-109069166D01*
X51599761Y-108354880D02*
X51647380Y-108450119D01*
X51647380Y-108640595D01*
X51599761Y-108735833D01*
X51504523Y-108783452D01*
X51123571Y-108783452D01*
X51028333Y-108735833D01*
X50980714Y-108640595D01*
X50980714Y-108450119D01*
X51028333Y-108354880D01*
X51123571Y-108307261D01*
X51218809Y-108307261D01*
X51314047Y-108783452D01*
X51647380Y-107878690D02*
X50980714Y-107878690D01*
X51171190Y-107878690D02*
X51075952Y-107831071D01*
X51028333Y-107783452D01*
X50980714Y-107688214D01*
X50980714Y-107592976D01*
X50980714Y-107354880D02*
X51647380Y-107116785D01*
X50980714Y-106878690D02*
X51647380Y-107116785D01*
X51885476Y-107212023D01*
X51933095Y-107259642D01*
X51980714Y-107354880D01*
X52971666Y-126212023D02*
X52971666Y-125735833D01*
X53257380Y-126307261D02*
X52257380Y-125973928D01*
X53257380Y-125640595D01*
X53257380Y-124878690D02*
X52257380Y-124878690D01*
X53209761Y-124878690D02*
X53257380Y-124973928D01*
X53257380Y-125164404D01*
X53209761Y-125259642D01*
X53162142Y-125307261D01*
X53066904Y-125354880D01*
X52781190Y-125354880D01*
X52685952Y-125307261D01*
X52638333Y-125259642D01*
X52590714Y-125164404D01*
X52590714Y-124973928D01*
X52638333Y-124878690D01*
X52590714Y-124402500D02*
X53447857Y-124402500D01*
X53543095Y-124450119D01*
X53590714Y-124545357D01*
X53590714Y-124592976D01*
X52257380Y-124402500D02*
X52305000Y-124450119D01*
X52352619Y-124402500D01*
X52305000Y-124354880D01*
X52257380Y-124402500D01*
X52352619Y-124402500D01*
X52590714Y-123497738D02*
X53257380Y-123497738D01*
X52590714Y-123926309D02*
X53114523Y-123926309D01*
X53209761Y-123878690D01*
X53257380Y-123783452D01*
X53257380Y-123640595D01*
X53209761Y-123545357D01*
X53162142Y-123497738D01*
X53209761Y-123069166D02*
X53257380Y-122973928D01*
X53257380Y-122783452D01*
X53209761Y-122688214D01*
X53114523Y-122640595D01*
X53066904Y-122640595D01*
X52971666Y-122688214D01*
X52924047Y-122783452D01*
X52924047Y-122926309D01*
X52876428Y-123021547D01*
X52781190Y-123069166D01*
X52733571Y-123069166D01*
X52638333Y-123021547D01*
X52590714Y-122926309D01*
X52590714Y-122783452D01*
X52638333Y-122688214D01*
X52590714Y-122354880D02*
X52590714Y-121973928D01*
X52257380Y-122212023D02*
X53114523Y-122212023D01*
X53209761Y-122164404D01*
X53257380Y-122069166D01*
X53257380Y-121973928D01*
X52590714Y-121021547D02*
X52590714Y-120640595D01*
X53257380Y-120878690D02*
X52400238Y-120878690D01*
X52305000Y-120831071D01*
X52257380Y-120735833D01*
X52257380Y-120640595D01*
X53257380Y-120164404D02*
X53209761Y-120259642D01*
X53162142Y-120307261D01*
X53066904Y-120354880D01*
X52781190Y-120354880D01*
X52685952Y-120307261D01*
X52638333Y-120259642D01*
X52590714Y-120164404D01*
X52590714Y-120021547D01*
X52638333Y-119926309D01*
X52685952Y-119878690D01*
X52781190Y-119831071D01*
X53066904Y-119831071D01*
X53162142Y-119878690D01*
X53209761Y-119926309D01*
X53257380Y-120021547D01*
X53257380Y-120164404D01*
X53257380Y-119402500D02*
X52590714Y-119402500D01*
X52781190Y-119402500D02*
X52685952Y-119354880D01*
X52638333Y-119307261D01*
X52590714Y-119212023D01*
X52590714Y-119116785D01*
X53257380Y-117497738D02*
X53257380Y-118069166D01*
X53257380Y-117783452D02*
X52257380Y-117783452D01*
X52400238Y-117878690D01*
X52495476Y-117973928D01*
X52543095Y-118069166D01*
X52257380Y-117164404D02*
X52257380Y-116545357D01*
X52638333Y-116878690D01*
X52638333Y-116735833D01*
X52685952Y-116640595D01*
X52733571Y-116592976D01*
X52828809Y-116545357D01*
X53066904Y-116545357D01*
X53162142Y-116592976D01*
X53209761Y-116640595D01*
X53257380Y-116735833D01*
X53257380Y-117021547D01*
X53209761Y-117116785D01*
X53162142Y-117164404D01*
X53162142Y-116116785D02*
X53209761Y-116069166D01*
X53257380Y-116116785D01*
X53209761Y-116164404D01*
X53162142Y-116116785D01*
X53257380Y-116116785D01*
X52257380Y-115735833D02*
X52257380Y-115069166D01*
X53257380Y-115497738D01*
X52257380Y-114212023D02*
X52257380Y-114688214D01*
X52733571Y-114735833D01*
X52685952Y-114688214D01*
X52638333Y-114592976D01*
X52638333Y-114354880D01*
X52685952Y-114259642D01*
X52733571Y-114212023D01*
X52828809Y-114164404D01*
X53066904Y-114164404D01*
X53162142Y-114212023D01*
X53209761Y-114259642D01*
X53257380Y-114354880D01*
X53257380Y-114592976D01*
X53209761Y-114688214D01*
X53162142Y-114735833D01*
X52257380Y-113878690D02*
X53257380Y-113545357D01*
X52257380Y-113212023D01*
X53257380Y-111973928D02*
X53209761Y-112069166D01*
X53162142Y-112116785D01*
X53066904Y-112164404D01*
X52781190Y-112164404D01*
X52685952Y-112116785D01*
X52638333Y-112069166D01*
X52590714Y-111973928D01*
X52590714Y-111831071D01*
X52638333Y-111735833D01*
X52685952Y-111688214D01*
X52781190Y-111640595D01*
X53066904Y-111640595D01*
X53162142Y-111688214D01*
X53209761Y-111735833D01*
X53257380Y-111831071D01*
X53257380Y-111973928D01*
X52590714Y-111212023D02*
X53257380Y-111212023D01*
X52685952Y-111212023D02*
X52638333Y-111164404D01*
X52590714Y-111069166D01*
X52590714Y-110926309D01*
X52638333Y-110831071D01*
X52733571Y-110783452D01*
X53257380Y-110783452D01*
X52257380Y-109688214D02*
X53257380Y-109354880D01*
X52257380Y-109021547D01*
X53352619Y-108926309D02*
X53352619Y-108164404D01*
X52733571Y-107592976D02*
X52781190Y-107450119D01*
X52828809Y-107402500D01*
X52924047Y-107354880D01*
X53066904Y-107354880D01*
X53162142Y-107402500D01*
X53209761Y-107450119D01*
X53257380Y-107545357D01*
X53257380Y-107926309D01*
X52257380Y-107926309D01*
X52257380Y-107592976D01*
X52305000Y-107497738D01*
X52352619Y-107450119D01*
X52447857Y-107402500D01*
X52543095Y-107402500D01*
X52638333Y-107450119D01*
X52685952Y-107497738D01*
X52733571Y-107592976D01*
X52733571Y-107926309D01*
X52971666Y-106973928D02*
X52971666Y-106497738D01*
X53257380Y-107069166D02*
X52257380Y-106735833D01*
X53257380Y-106402500D01*
X52257380Y-106212023D02*
X52257380Y-105640595D01*
X53257380Y-105926309D02*
X52257380Y-105926309D01*
X52257380Y-105450119D02*
X52257380Y-104878690D01*
X53257380Y-105164404D02*
X52257380Y-105164404D01*
X86479479Y-137890384D02*
X87479479Y-137557051D01*
X86479479Y-137223717D01*
X87574718Y-137128479D02*
X87574718Y-136366574D01*
X87479479Y-136128479D02*
X86479479Y-136128479D01*
X87479479Y-135652289D02*
X86479479Y-135652289D01*
X87479479Y-135080860D01*
X86479479Y-135080860D01*
X136201392Y-50161414D02*
X135725202Y-50494747D01*
X136201392Y-50732842D02*
X135201392Y-50732842D01*
X135201392Y-50351890D01*
X135249012Y-50256652D01*
X135296631Y-50209033D01*
X135391869Y-50161414D01*
X135534726Y-50161414D01*
X135629964Y-50209033D01*
X135677583Y-50256652D01*
X135725202Y-50351890D01*
X135725202Y-50732842D01*
X136153773Y-49780461D02*
X136201392Y-49637604D01*
X136201392Y-49399509D01*
X136153773Y-49304271D01*
X136106154Y-49256652D01*
X136010916Y-49209033D01*
X135915678Y-49209033D01*
X135820440Y-49256652D01*
X135772821Y-49304271D01*
X135725202Y-49399509D01*
X135677583Y-49589985D01*
X135629964Y-49685223D01*
X135582345Y-49732842D01*
X135487107Y-49780461D01*
X135391869Y-49780461D01*
X135296631Y-49732842D01*
X135249012Y-49685223D01*
X135201392Y-49589985D01*
X135201392Y-49351890D01*
X135249012Y-49209033D01*
X135201392Y-48923318D02*
X135201392Y-48351890D01*
X136201392Y-48637604D02*
X135201392Y-48637604D01*
D14*
X59476190Y-133285714D02*
X62523809Y-133285714D01*
X61000000Y-134809523D02*
X61000000Y-131761904D01*
D12*
X132634613Y-65508255D02*
X133396518Y-65508255D01*
X133015566Y-65889207D02*
X133015566Y-65127303D01*
X134348899Y-64889207D02*
X133872708Y-64889207D01*
X133825089Y-65365398D01*
X133872708Y-65317779D01*
X133967947Y-65270160D01*
X134206042Y-65270160D01*
X134301280Y-65317779D01*
X134348899Y-65365398D01*
X134396518Y-65460636D01*
X134396518Y-65698731D01*
X134348899Y-65793969D01*
X134301280Y-65841588D01*
X134206042Y-65889207D01*
X133967947Y-65889207D01*
X133872708Y-65841588D01*
X133825089Y-65793969D01*
X134682232Y-64889207D02*
X135015566Y-65889207D01*
X135348899Y-64889207D01*
X133327795Y-82315387D02*
X133232557Y-82267767D01*
X133089700Y-82267767D01*
X132946842Y-82315387D01*
X132851604Y-82410625D01*
X132803985Y-82505863D01*
X132756366Y-82696339D01*
X132756366Y-82839196D01*
X132803985Y-83029672D01*
X132851604Y-83124910D01*
X132946842Y-83220148D01*
X133089700Y-83267767D01*
X133184938Y-83267767D01*
X133327795Y-83220148D01*
X133375414Y-83172529D01*
X133375414Y-82839196D01*
X133184938Y-82839196D01*
X133803985Y-83267767D02*
X133803985Y-82267767D01*
X134375414Y-83267767D01*
X134375414Y-82267767D01*
X134851604Y-83267767D02*
X134851604Y-82267767D01*
X135089700Y-82267767D01*
X135232557Y-82315387D01*
X135327795Y-82410625D01*
X135375414Y-82505863D01*
X135423033Y-82696339D01*
X135423033Y-82839196D01*
X135375414Y-83029672D01*
X135327795Y-83124910D01*
X135232557Y-83220148D01*
X135089700Y-83267767D01*
X134851604Y-83267767D01*
X57218731Y-73466856D02*
X57456826Y-74466856D01*
X57647302Y-73752571D01*
X57837778Y-74466856D01*
X58075873Y-73466856D01*
X58980635Y-73514476D02*
X58885397Y-73466856D01*
X58742540Y-73466856D01*
X58599683Y-73514476D01*
X58504445Y-73609714D01*
X58456826Y-73704952D01*
X58409207Y-73895428D01*
X58409207Y-74038285D01*
X58456826Y-74228761D01*
X58504445Y-74323999D01*
X58599683Y-74419237D01*
X58742540Y-74466856D01*
X58837778Y-74466856D01*
X58980635Y-74419237D01*
X59028254Y-74371618D01*
X59028254Y-74038285D01*
X58837778Y-74038285D01*
X59456826Y-74466856D02*
X59456826Y-73466856D01*
X59694921Y-73466856D01*
X59837778Y-73514476D01*
X59933016Y-73609714D01*
X59980635Y-73704952D01*
X60028254Y-73895428D01*
X60028254Y-74038285D01*
X59980635Y-74228761D01*
X59933016Y-74323999D01*
X59837778Y-74419237D01*
X59694921Y-74466856D01*
X59456826Y-74466856D01*
X60647302Y-73466856D02*
X60742540Y-73466856D01*
X60837778Y-73514476D01*
X60885397Y-73562095D01*
X60933016Y-73657333D01*
X60980635Y-73847809D01*
X60980635Y-74085904D01*
X60933016Y-74276380D01*
X60885397Y-74371618D01*
X60837778Y-74419237D01*
X60742540Y-74466856D01*
X60647302Y-74466856D01*
X60552064Y-74419237D01*
X60504445Y-74371618D01*
X60456826Y-74276380D01*
X60409207Y-74085904D01*
X60409207Y-73847809D01*
X60456826Y-73657333D01*
X60504445Y-73562095D01*
X60552064Y-73514476D01*
X60647302Y-73466856D01*
X89083888Y-137946214D02*
X90083888Y-137612881D01*
X89083888Y-137279548D01*
X90179127Y-137184310D02*
X90179127Y-136422405D01*
X89560079Y-135850976D02*
X89607698Y-135708119D01*
X89655317Y-135660500D01*
X89750555Y-135612881D01*
X89893412Y-135612881D01*
X89988650Y-135660500D01*
X90036269Y-135708119D01*
X90083888Y-135803357D01*
X90083888Y-136184310D01*
X89083888Y-136184310D01*
X89083888Y-135850976D01*
X89131508Y-135755738D01*
X89179127Y-135708119D01*
X89274365Y-135660500D01*
X89369603Y-135660500D01*
X89464841Y-135708119D01*
X89512460Y-135755738D01*
X89560079Y-135850976D01*
X89560079Y-136184310D01*
X89798174Y-135231929D02*
X89798174Y-134755738D01*
X90083888Y-135327167D02*
X89083888Y-134993833D01*
X90083888Y-134660500D01*
X89083888Y-134470024D02*
X89083888Y-133898595D01*
X90083888Y-134184310D02*
X89083888Y-134184310D01*
X89083888Y-133708119D02*
X89083888Y-133136691D01*
X90083888Y-133422405D02*
X89083888Y-133422405D01*
D13*
X127857142Y-113821428D02*
X127928571Y-113750000D01*
X128071428Y-113678571D01*
X128428571Y-113678571D01*
X128571428Y-113750000D01*
X128642857Y-113821428D01*
X128714285Y-113964285D01*
X128714285Y-114107142D01*
X128642857Y-114321428D01*
X127785714Y-115178571D01*
X128714285Y-115178571D01*
X129357142Y-115035714D02*
X129428571Y-115107142D01*
X129357142Y-115178571D01*
X129285714Y-115107142D01*
X129357142Y-115035714D01*
X129357142Y-115178571D01*
X130785714Y-113678571D02*
X130071428Y-113678571D01*
X130000000Y-114392857D01*
X130071428Y-114321428D01*
X130214285Y-114250000D01*
X130571428Y-114250000D01*
X130714285Y-114321428D01*
X130785714Y-114392857D01*
X130857142Y-114535714D01*
X130857142Y-114892857D01*
X130785714Y-115035714D01*
X130714285Y-115107142D01*
X130571428Y-115178571D01*
X130214285Y-115178571D01*
X130071428Y-115107142D01*
X130000000Y-115035714D01*
X131428571Y-114750000D02*
X132142857Y-114750000D01*
X131285714Y-115178571D02*
X131785714Y-113678571D01*
X132285714Y-115178571D01*
D14*
X73476190Y-133285714D02*
X76523809Y-133285714D01*
X75000000Y-134809523D02*
X75000000Y-131761904D01*
D12*
X133098732Y-50410317D02*
X133146351Y-50267460D01*
X133193970Y-50219841D01*
X133289208Y-50172222D01*
X133432065Y-50172222D01*
X133527303Y-50219841D01*
X133574922Y-50267460D01*
X133622541Y-50362698D01*
X133622541Y-50743651D01*
X132622541Y-50743651D01*
X132622541Y-50410317D01*
X132670161Y-50315079D01*
X132717780Y-50267460D01*
X132813018Y-50219841D01*
X132908256Y-50219841D01*
X133003494Y-50267460D01*
X133051113Y-50315079D01*
X133098732Y-50410317D01*
X133098732Y-50743651D01*
X132622541Y-49553175D02*
X132622541Y-49362698D01*
X132670161Y-49267460D01*
X132765399Y-49172222D01*
X132955875Y-49124603D01*
X133289208Y-49124603D01*
X133479684Y-49172222D01*
X133574922Y-49267460D01*
X133622541Y-49362698D01*
X133622541Y-49553175D01*
X133574922Y-49648413D01*
X133479684Y-49743651D01*
X133289208Y-49791270D01*
X132955875Y-49791270D01*
X132765399Y-49743651D01*
X132670161Y-49648413D01*
X132622541Y-49553175D01*
X132622541Y-48505555D02*
X132622541Y-48315079D01*
X132670161Y-48219841D01*
X132765399Y-48124603D01*
X132955875Y-48076984D01*
X133289208Y-48076984D01*
X133479684Y-48124603D01*
X133574922Y-48219841D01*
X133622541Y-48315079D01*
X133622541Y-48505555D01*
X133574922Y-48600794D01*
X133479684Y-48696032D01*
X133289208Y-48743651D01*
X132955875Y-48743651D01*
X132765399Y-48696032D01*
X132670161Y-48600794D01*
X132622541Y-48505555D01*
X132622541Y-47791270D02*
X132622541Y-47219841D01*
X133622541Y-47505555D02*
X132622541Y-47505555D01*
X117071428Y-85452380D02*
X116738095Y-84976190D01*
X116500000Y-85452380D02*
X116500000Y-84452380D01*
X116880952Y-84452380D01*
X116976190Y-84500000D01*
X117023809Y-84547619D01*
X117071428Y-84642857D01*
X117071428Y-84785714D01*
X117023809Y-84880952D01*
X116976190Y-84928571D01*
X116880952Y-84976190D01*
X116500000Y-84976190D01*
X117500000Y-85452380D02*
X117500000Y-84452380D01*
X117880952Y-84452380D01*
X117976190Y-84500000D01*
X118023809Y-84547619D01*
X118071428Y-84642857D01*
X118071428Y-84785714D01*
X118023809Y-84880952D01*
X117976190Y-84928571D01*
X117880952Y-84976190D01*
X117500000Y-84976190D01*
X118500000Y-85452380D02*
X118500000Y-84785714D01*
X118500000Y-84452380D02*
X118452380Y-84500000D01*
X118500000Y-84547619D01*
X118547619Y-84500000D01*
X118500000Y-84452380D01*
X118500000Y-84547619D01*
D14*
X78636190Y-133285714D02*
X81683809Y-133285714D01*
D12*
X94756872Y-138075675D02*
X94756872Y-137313771D01*
X95137824Y-137694723D02*
X94375920Y-137694723D01*
X94137824Y-136932818D02*
X94137824Y-136313771D01*
X94518777Y-136647104D01*
X94518777Y-136504247D01*
X94566396Y-136409009D01*
X94614015Y-136361390D01*
X94709253Y-136313771D01*
X94947348Y-136313771D01*
X95042586Y-136361390D01*
X95090205Y-136409009D01*
X95137824Y-136504247D01*
X95137824Y-136789961D01*
X95090205Y-136885199D01*
X95042586Y-136932818D01*
X94137824Y-136028056D02*
X95137824Y-135694723D01*
X94137824Y-135361390D01*
X94137824Y-135123294D02*
X94137824Y-134504247D01*
X94518777Y-134837580D01*
X94518777Y-134694723D01*
X94566396Y-134599485D01*
X94614015Y-134551866D01*
X94709253Y-134504247D01*
X94947348Y-134504247D01*
X95042586Y-134551866D01*
X95090205Y-134599485D01*
X95137824Y-134694723D01*
X95137824Y-134980437D01*
X95090205Y-135075675D01*
X95042586Y-135123294D01*
X145452380Y-66333333D02*
X144452380Y-66333333D01*
X144547619Y-65904761D02*
X144500000Y-65857142D01*
X144452380Y-65761904D01*
X144452380Y-65523809D01*
X144500000Y-65428571D01*
X144547619Y-65380952D01*
X144642857Y-65333333D01*
X144738095Y-65333333D01*
X144880952Y-65380952D01*
X145452380Y-65952380D01*
X145452380Y-65333333D01*
X145357142Y-64333333D02*
X145404761Y-64380952D01*
X145452380Y-64523809D01*
X145452380Y-64619047D01*
X145404761Y-64761904D01*
X145309523Y-64857142D01*
X145214285Y-64904761D01*
X145023809Y-64952380D01*
X144880952Y-64952380D01*
X144690476Y-64904761D01*
X144595238Y-64857142D01*
X144500000Y-64761904D01*
X144452380Y-64619047D01*
X144452380Y-64523809D01*
X144500000Y-64380952D01*
X144547619Y-64333333D01*
X145452380Y-63142857D02*
X144452380Y-63142857D01*
X144452380Y-62904761D01*
X144500000Y-62761904D01*
X144595238Y-62666666D01*
X144690476Y-62619047D01*
X144880952Y-62571428D01*
X145023809Y-62571428D01*
X145214285Y-62619047D01*
X145309523Y-62666666D01*
X145404761Y-62761904D01*
X145452380Y-62904761D01*
X145452380Y-63142857D01*
X145452380Y-62142857D02*
X144452380Y-62142857D01*
X145404761Y-61714285D02*
X145452380Y-61571428D01*
X145452380Y-61333333D01*
X145404761Y-61238095D01*
X145357142Y-61190476D01*
X145261904Y-61142857D01*
X145166666Y-61142857D01*
X145071428Y-61190476D01*
X145023809Y-61238095D01*
X144976190Y-61333333D01*
X144928571Y-61523809D01*
X144880952Y-61619047D01*
X144833333Y-61666666D01*
X144738095Y-61714285D01*
X144642857Y-61714285D01*
X144547619Y-61666666D01*
X144500000Y-61619047D01*
X144452380Y-61523809D01*
X144452380Y-61285714D01*
X144500000Y-61142857D01*
X145452380Y-60714285D02*
X144452380Y-60714285D01*
X144452380Y-60333333D01*
X144500000Y-60238095D01*
X144547619Y-60190476D01*
X144642857Y-60142857D01*
X144785714Y-60142857D01*
X144880952Y-60190476D01*
X144928571Y-60238095D01*
X144976190Y-60333333D01*
X144976190Y-60714285D01*
X145452380Y-59238095D02*
X145452380Y-59714285D01*
X144452380Y-59714285D01*
X145166666Y-58952380D02*
X145166666Y-58476190D01*
X145452380Y-59047619D02*
X144452380Y-58714285D01*
X145452380Y-58380952D01*
X144976190Y-57857142D02*
X145452380Y-57857142D01*
X144452380Y-58190476D02*
X144976190Y-57857142D01*
X144452380Y-57523809D01*
X145452380Y-78190476D02*
X144452380Y-78190476D01*
X145452380Y-77619047D01*
X144452380Y-77619047D01*
X144928571Y-77142857D02*
X144928571Y-76809523D01*
X145452380Y-76666666D02*
X145452380Y-77142857D01*
X144452380Y-77142857D01*
X144452380Y-76666666D01*
X144452380Y-76047619D02*
X144452380Y-75857142D01*
X144500000Y-75761904D01*
X144595238Y-75666666D01*
X144785714Y-75619047D01*
X145119047Y-75619047D01*
X145309523Y-75666666D01*
X145404761Y-75761904D01*
X145452380Y-75857142D01*
X145452380Y-76047619D01*
X145404761Y-76142857D01*
X145309523Y-76238095D01*
X145119047Y-76285714D01*
X144785714Y-76285714D01*
X144595238Y-76238095D01*
X144500000Y-76142857D01*
X144452380Y-76047619D01*
X145452380Y-75190476D02*
X144452380Y-75190476D01*
X144452380Y-74809523D01*
X144500000Y-74714285D01*
X144547619Y-74666666D01*
X144642857Y-74619047D01*
X144785714Y-74619047D01*
X144880952Y-74666666D01*
X144928571Y-74714285D01*
X144976190Y-74809523D01*
X144976190Y-75190476D01*
X145452380Y-74190476D02*
X144452380Y-74190476D01*
X144452380Y-73809523D02*
X145452380Y-73142857D01*
X144452380Y-73142857D02*
X145452380Y-73809523D01*
X144928571Y-72761904D02*
X144928571Y-72428571D01*
X145452380Y-72285714D02*
X145452380Y-72761904D01*
X144452380Y-72761904D01*
X144452380Y-72285714D01*
X145452380Y-71380952D02*
X145452380Y-71857142D01*
X144452380Y-71857142D01*
X145452380Y-69761904D02*
X145452380Y-70333333D01*
X145452380Y-70047619D02*
X144452380Y-70047619D01*
X144595238Y-70142857D01*
X144690476Y-70238095D01*
X144738095Y-70333333D01*
X122714285Y-70952380D02*
X122380952Y-70476190D01*
X122142857Y-70952380D02*
X122142857Y-69952380D01*
X122523809Y-69952380D01*
X122619047Y-70000000D01*
X122666666Y-70047619D01*
X122714285Y-70142857D01*
X122714285Y-70285714D01*
X122666666Y-70380952D01*
X122619047Y-70428571D01*
X122523809Y-70476190D01*
X122142857Y-70476190D01*
X123047619Y-69952380D02*
X123714285Y-70952380D01*
X123714285Y-69952380D02*
X123047619Y-70952380D01*
X124142857Y-70190476D02*
X124142857Y-70952380D01*
X124190476Y-70238095D02*
X124190476Y-70904761D01*
X124238095Y-70238095D02*
X124238095Y-70904761D01*
X124285714Y-70285714D02*
X124285714Y-70857142D01*
X124333333Y-70285714D02*
X124333333Y-70857142D01*
X124380952Y-70333333D02*
X124380952Y-70809523D01*
X124428571Y-70333333D02*
X124428571Y-70809523D01*
X124476190Y-70380952D02*
X124476190Y-70761904D01*
X124523809Y-70428571D02*
X124523809Y-70714285D01*
X124571428Y-70428571D02*
X124571428Y-70714285D01*
X124619047Y-70476190D02*
X124619047Y-70666666D01*
X124666666Y-70476190D02*
X124666666Y-70666666D01*
X124714285Y-70571428D02*
X124761904Y-70571428D01*
X124714285Y-70523809D02*
X124714285Y-70619047D01*
X124095238Y-70190476D02*
X124809523Y-70571428D01*
X124095238Y-70952380D01*
X124857142Y-70571428D02*
X124095238Y-71000000D01*
X124095238Y-70142857D01*
X124857142Y-70571428D01*
X110714285Y-72785714D02*
X111428571Y-72785714D01*
X111000000Y-72357142D02*
X110714285Y-73642857D01*
X111333333Y-73214285D02*
X110619047Y-73214285D01*
X111047619Y-73642857D02*
X111333333Y-72357142D01*
X111714285Y-72547619D02*
X111761904Y-72500000D01*
X111857142Y-72452380D01*
X112095238Y-72452380D01*
X112190476Y-72500000D01*
X112238095Y-72547619D01*
X112285714Y-72642857D01*
X112285714Y-72738095D01*
X112238095Y-72880952D01*
X111666666Y-73452380D01*
X112285714Y-73452380D01*
X132909249Y-60713785D02*
X133052106Y-60761404D01*
X133290202Y-60761404D01*
X133385440Y-60713785D01*
X133433059Y-60666166D01*
X133480678Y-60570928D01*
X133480678Y-60475690D01*
X133433059Y-60380452D01*
X133385440Y-60332833D01*
X133290202Y-60285214D01*
X133099726Y-60237595D01*
X133004487Y-60189976D01*
X132956868Y-60142357D01*
X132909249Y-60047119D01*
X132909249Y-59951881D01*
X132956868Y-59856643D01*
X133004487Y-59809024D01*
X133099726Y-59761404D01*
X133337821Y-59761404D01*
X133480678Y-59809024D01*
X134480678Y-60666166D02*
X134433059Y-60713785D01*
X134290202Y-60761404D01*
X134194964Y-60761404D01*
X134052106Y-60713785D01*
X133956868Y-60618547D01*
X133909249Y-60523309D01*
X133861630Y-60332833D01*
X133861630Y-60189976D01*
X133909249Y-59999500D01*
X133956868Y-59904262D01*
X134052106Y-59809024D01*
X134194964Y-59761404D01*
X134290202Y-59761404D01*
X134433059Y-59809024D01*
X134480678Y-59856643D01*
X135385440Y-60761404D02*
X134909249Y-60761404D01*
X134909249Y-59761404D01*
X99215940Y-137824990D02*
X99215940Y-137634513D01*
X99263560Y-137539275D01*
X99358798Y-137444037D01*
X99549274Y-137396418D01*
X99882607Y-137396418D01*
X100073083Y-137444037D01*
X100168321Y-137539275D01*
X100215940Y-137634513D01*
X100215940Y-137824990D01*
X100168321Y-137920228D01*
X100073083Y-138015466D01*
X99882607Y-138063085D01*
X99549274Y-138063085D01*
X99358798Y-138015466D01*
X99263560Y-137920228D01*
X99215940Y-137824990D01*
X100215940Y-136967847D02*
X99215940Y-136967847D01*
X99215940Y-136586894D01*
X99263560Y-136491656D01*
X99311179Y-136444037D01*
X99406417Y-136396418D01*
X99549274Y-136396418D01*
X99644512Y-136444037D01*
X99692131Y-136491656D01*
X99739750Y-136586894D01*
X99739750Y-136967847D01*
X99692131Y-135967847D02*
X99692131Y-135634513D01*
X100215940Y-135491656D02*
X100215940Y-135967847D01*
X99215940Y-135967847D01*
X99215940Y-135491656D01*
X100215940Y-135063085D02*
X99215940Y-135063085D01*
X100215940Y-134491656D01*
X99215940Y-134491656D01*
X99311179Y-134063085D02*
X99263560Y-134015466D01*
X99215940Y-133920228D01*
X99215940Y-133682132D01*
X99263560Y-133586894D01*
X99311179Y-133539275D01*
X99406417Y-133491656D01*
X99501655Y-133491656D01*
X99644512Y-133539275D01*
X100215940Y-134110704D01*
X100215940Y-133491656D01*
X57977279Y-62993856D02*
X57643945Y-62517666D01*
X57405850Y-62993856D02*
X57405850Y-61993856D01*
X57786802Y-61993856D01*
X57882041Y-62041476D01*
X57929660Y-62089095D01*
X57977279Y-62184333D01*
X57977279Y-62327190D01*
X57929660Y-62422428D01*
X57882041Y-62470047D01*
X57786802Y-62517666D01*
X57405850Y-62517666D01*
X58310612Y-61993856D02*
X58977279Y-62993856D01*
X58977279Y-61993856D02*
X58310612Y-62993856D01*
X59358231Y-62993856D02*
X59358231Y-61993856D01*
X59596326Y-61993856D01*
X59739183Y-62041476D01*
X59834421Y-62136714D01*
X59882041Y-62231952D01*
X59929660Y-62422428D01*
X59929660Y-62565285D01*
X59882041Y-62755761D01*
X59834421Y-62850999D01*
X59739183Y-62946237D01*
X59596326Y-62993856D01*
X59358231Y-62993856D01*
X60358231Y-62993856D02*
X60358231Y-61993856D01*
X132714285Y-88071428D02*
X133476190Y-88071428D01*
X133095238Y-88452380D02*
X133095238Y-87690476D01*
X134428571Y-87452380D02*
X133952380Y-87452380D01*
X133904761Y-87928571D01*
X133952380Y-87880952D01*
X134047619Y-87833333D01*
X134285714Y-87833333D01*
X134380952Y-87880952D01*
X134428571Y-87928571D01*
X134476190Y-88023809D01*
X134476190Y-88261904D01*
X134428571Y-88357142D01*
X134380952Y-88404761D01*
X134285714Y-88452380D01*
X134047619Y-88452380D01*
X133952380Y-88404761D01*
X133904761Y-88357142D01*
X134761904Y-87452380D02*
X135095238Y-88452380D01*
X135428571Y-87452380D01*
X76274824Y-48952380D02*
X75941490Y-48476190D01*
X75703395Y-48952380D02*
X75703395Y-47952380D01*
X76084347Y-47952380D01*
X76179585Y-48000000D01*
X76227205Y-48047619D01*
X76274824Y-48142857D01*
X76274824Y-48285714D01*
X76227205Y-48380952D01*
X76179585Y-48428571D01*
X76084347Y-48476190D01*
X75703395Y-48476190D01*
X76703395Y-48428571D02*
X77036728Y-48428571D01*
X77179585Y-48952380D02*
X76703395Y-48952380D01*
X76703395Y-47952380D01*
X77179585Y-47952380D01*
X77560538Y-48904761D02*
X77703395Y-48952380D01*
X77941490Y-48952380D01*
X78036728Y-48904761D01*
X78084347Y-48857142D01*
X78131966Y-48761904D01*
X78131966Y-48666666D01*
X78084347Y-48571428D01*
X78036728Y-48523809D01*
X77941490Y-48476190D01*
X77751014Y-48428571D01*
X77655776Y-48380952D01*
X77608157Y-48333333D01*
X77560538Y-48238095D01*
X77560538Y-48142857D01*
X77608157Y-48047619D01*
X77655776Y-48000000D01*
X77751014Y-47952380D01*
X77989109Y-47952380D01*
X78131966Y-48000000D01*
X78560538Y-48428571D02*
X78893871Y-48428571D01*
X79036728Y-48952380D02*
X78560538Y-48952380D01*
X78560538Y-47952380D01*
X79036728Y-47952380D01*
X79322443Y-47952380D02*
X79893871Y-47952380D01*
X79608157Y-48952380D02*
X79608157Y-47952380D01*
X61523809Y-144452380D02*
X61857142Y-145452380D01*
X62190476Y-144452380D01*
X62285714Y-145547619D02*
X63047619Y-145547619D01*
X63285714Y-145452380D02*
X63285714Y-144452380D01*
X63761904Y-145452380D02*
X63761904Y-144452380D01*
X64333333Y-145452380D01*
X64333333Y-144452380D01*
D13*
X76357142Y-113678571D02*
X77285714Y-113678571D01*
X76785714Y-114250000D01*
X77000000Y-114250000D01*
X77142857Y-114321428D01*
X77214285Y-114392857D01*
X77285714Y-114535714D01*
X77285714Y-114892857D01*
X77214285Y-115035714D01*
X77142857Y-115107142D01*
X77000000Y-115178571D01*
X76571428Y-115178571D01*
X76428571Y-115107142D01*
X76357142Y-115035714D01*
X77857142Y-114750000D02*
X78571428Y-114750000D01*
X77714285Y-115178571D02*
X78214285Y-113678571D01*
X78714285Y-115178571D01*
X113857142Y-113821428D02*
X113928571Y-113750000D01*
X114071428Y-113678571D01*
X114428571Y-113678571D01*
X114571428Y-113750000D01*
X114642857Y-113821428D01*
X114714285Y-113964285D01*
X114714285Y-114107142D01*
X114642857Y-114321428D01*
X113785714Y-115178571D01*
X114714285Y-115178571D01*
X115357142Y-115035714D02*
X115428571Y-115107142D01*
X115357142Y-115178571D01*
X115285714Y-115107142D01*
X115357142Y-115035714D01*
X115357142Y-115178571D01*
X116785714Y-113678571D02*
X116071428Y-113678571D01*
X116000000Y-114392857D01*
X116071428Y-114321428D01*
X116214285Y-114250000D01*
X116571428Y-114250000D01*
X116714285Y-114321428D01*
X116785714Y-114392857D01*
X116857142Y-114535714D01*
X116857142Y-114892857D01*
X116785714Y-115035714D01*
X116714285Y-115107142D01*
X116571428Y-115178571D01*
X116214285Y-115178571D01*
X116071428Y-115107142D01*
X116000000Y-115035714D01*
X117428571Y-114750000D02*
X118142857Y-114750000D01*
X117285714Y-115178571D02*
X117785714Y-113678571D01*
X118285714Y-115178571D01*
D12*
X122527130Y-50649216D02*
X122527130Y-50030168D01*
X122908083Y-50363501D01*
X122908083Y-50220644D01*
X122955702Y-50125406D01*
X123003321Y-50077787D01*
X123098559Y-50030168D01*
X123336654Y-50030168D01*
X123431892Y-50077787D01*
X123479511Y-50125406D01*
X123527130Y-50220644D01*
X123527130Y-50506359D01*
X123479511Y-50601597D01*
X123431892Y-50649216D01*
X122527130Y-49744454D02*
X123527130Y-49411121D01*
X122527130Y-49077787D01*
X122527130Y-48839692D02*
X122527130Y-48220644D01*
X122908083Y-48553978D01*
X122908083Y-48411121D01*
X122955702Y-48315882D01*
X123003321Y-48268263D01*
X123098559Y-48220644D01*
X123336654Y-48220644D01*
X123431892Y-48268263D01*
X123479511Y-48315882D01*
X123527130Y-48411121D01*
X123527130Y-48696835D01*
X123479511Y-48792073D01*
X123431892Y-48839692D01*
X131130897Y-50168054D02*
X130654707Y-50501388D01*
X131130897Y-50739483D02*
X130130897Y-50739483D01*
X130130897Y-50358531D01*
X130178517Y-50263293D01*
X130226136Y-50215673D01*
X130321374Y-50168054D01*
X130464231Y-50168054D01*
X130559469Y-50215673D01*
X130607088Y-50263293D01*
X130654707Y-50358531D01*
X130654707Y-50739483D01*
X130130897Y-49834721D02*
X131130897Y-49168054D01*
X130130897Y-49168054D02*
X131130897Y-49834721D01*
X131130897Y-48787102D02*
X130130897Y-48787102D01*
X115452380Y-135571428D02*
X115452380Y-135380952D01*
X115500000Y-135285714D01*
X115595238Y-135190476D01*
X115785714Y-135142857D01*
X116119047Y-135142857D01*
X116309523Y-135190476D01*
X116404761Y-135285714D01*
X116452380Y-135380952D01*
X116452380Y-135571428D01*
X116404761Y-135666666D01*
X116309523Y-135761904D01*
X116119047Y-135809523D01*
X115785714Y-135809523D01*
X115595238Y-135761904D01*
X115500000Y-135666666D01*
X115452380Y-135571428D01*
X116452380Y-134714285D02*
X115452380Y-134714285D01*
X115452380Y-134333333D01*
X115500000Y-134238095D01*
X115547619Y-134190476D01*
X115642857Y-134142857D01*
X115785714Y-134142857D01*
X115880952Y-134190476D01*
X115928571Y-134238095D01*
X115976190Y-134333333D01*
X115976190Y-134714285D01*
X115928571Y-133714285D02*
X115928571Y-133380952D01*
X116452380Y-133238095D02*
X116452380Y-133714285D01*
X115452380Y-133714285D01*
X115452380Y-133238095D01*
X116452380Y-132809523D02*
X115452380Y-132809523D01*
X116452380Y-132238095D01*
X115452380Y-132238095D01*
X96682197Y-137811440D02*
X96682197Y-137620963D01*
X96729817Y-137525725D01*
X96825055Y-137430487D01*
X97015531Y-137382868D01*
X97348864Y-137382868D01*
X97539340Y-137430487D01*
X97634578Y-137525725D01*
X97682197Y-137620963D01*
X97682197Y-137811440D01*
X97634578Y-137906678D01*
X97539340Y-138001916D01*
X97348864Y-138049535D01*
X97015531Y-138049535D01*
X96825055Y-138001916D01*
X96729817Y-137906678D01*
X96682197Y-137811440D01*
X97682197Y-136954297D02*
X96682197Y-136954297D01*
X96682197Y-136573344D01*
X96729817Y-136478106D01*
X96777436Y-136430487D01*
X96872674Y-136382868D01*
X97015531Y-136382868D01*
X97110769Y-136430487D01*
X97158388Y-136478106D01*
X97206007Y-136573344D01*
X97206007Y-136954297D01*
X97158388Y-135954297D02*
X97158388Y-135620963D01*
X97682197Y-135478106D02*
X97682197Y-135954297D01*
X96682197Y-135954297D01*
X96682197Y-135478106D01*
X97682197Y-135049535D02*
X96682197Y-135049535D01*
X97682197Y-134478106D01*
X96682197Y-134478106D01*
X97682197Y-133478106D02*
X97682197Y-134049535D01*
X97682197Y-133763821D02*
X96682197Y-133763821D01*
X96825055Y-133859059D01*
X96920293Y-133954297D01*
X96967912Y-134049535D01*
X57255653Y-75989196D02*
X57493748Y-76989196D01*
X57684224Y-76274911D01*
X57874700Y-76989196D01*
X58112795Y-75989196D01*
X59017557Y-76036816D02*
X58922319Y-75989196D01*
X58779462Y-75989196D01*
X58636605Y-76036816D01*
X58541367Y-76132054D01*
X58493748Y-76227292D01*
X58446129Y-76417768D01*
X58446129Y-76560625D01*
X58493748Y-76751101D01*
X58541367Y-76846339D01*
X58636605Y-76941577D01*
X58779462Y-76989196D01*
X58874700Y-76989196D01*
X59017557Y-76941577D01*
X59065176Y-76893958D01*
X59065176Y-76560625D01*
X58874700Y-76560625D01*
X59493748Y-76989196D02*
X59493748Y-75989196D01*
X59731843Y-75989196D01*
X59874700Y-76036816D01*
X59969938Y-76132054D01*
X60017557Y-76227292D01*
X60065176Y-76417768D01*
X60065176Y-76560625D01*
X60017557Y-76751101D01*
X59969938Y-76846339D01*
X59874700Y-76941577D01*
X59731843Y-76989196D01*
X59493748Y-76989196D01*
X61017557Y-76989196D02*
X60446129Y-76989196D01*
X60731843Y-76989196D02*
X60731843Y-75989196D01*
X60636605Y-76132054D01*
X60541367Y-76227292D01*
X60446129Y-76274911D01*
X57342179Y-57470151D02*
X58104084Y-57470151D01*
X57723132Y-57851103D02*
X57723132Y-57089199D01*
X59056465Y-56851103D02*
X58580274Y-56851103D01*
X58532655Y-57327294D01*
X58580274Y-57279675D01*
X58675513Y-57232056D01*
X58913608Y-57232056D01*
X59008846Y-57279675D01*
X59056465Y-57327294D01*
X59104084Y-57422532D01*
X59104084Y-57660627D01*
X59056465Y-57755865D01*
X59008846Y-57803484D01*
X58913608Y-57851103D01*
X58675513Y-57851103D01*
X58580274Y-57803484D01*
X58532655Y-57755865D01*
X59389798Y-56851103D02*
X59723132Y-57851103D01*
X60056465Y-56851103D01*
X132459489Y-74568697D02*
X132459489Y-73568697D01*
X132697584Y-73568697D01*
X132840441Y-73616317D01*
X132935679Y-73711555D01*
X132983298Y-73806793D01*
X133030917Y-73997269D01*
X133030917Y-74140126D01*
X132983298Y-74330602D01*
X132935679Y-74425840D01*
X132840441Y-74521078D01*
X132697584Y-74568697D01*
X132459489Y-74568697D01*
X133411869Y-74282983D02*
X133888060Y-74282983D01*
X133316631Y-74568697D02*
X133649965Y-73568697D01*
X133983298Y-74568697D01*
X134173774Y-73568697D02*
X134745203Y-73568697D01*
X134459489Y-74568697D02*
X134459489Y-73568697D01*
X135030917Y-74282983D02*
X135507108Y-74282983D01*
X134935679Y-74568697D02*
X135269012Y-73568697D01*
X135602346Y-74568697D01*
X113571428Y-144452380D02*
X113761904Y-144452380D01*
X113857142Y-144500000D01*
X113952380Y-144595238D01*
X114000000Y-144785714D01*
X114000000Y-145119047D01*
X113952380Y-145309523D01*
X113857142Y-145404761D01*
X113761904Y-145452380D01*
X113571428Y-145452380D01*
X113476190Y-145404761D01*
X113380952Y-145309523D01*
X113333333Y-145119047D01*
X113333333Y-144785714D01*
X113380952Y-144595238D01*
X113476190Y-144500000D01*
X113571428Y-144452380D01*
X114428571Y-145452380D02*
X114428571Y-144452380D01*
X114809523Y-144452380D01*
X114904761Y-144500000D01*
X114952380Y-144547619D01*
X115000000Y-144642857D01*
X115000000Y-144785714D01*
X114952380Y-144880952D01*
X114904761Y-144928571D01*
X114809523Y-144976190D01*
X114428571Y-144976190D01*
X115428571Y-144928571D02*
X115761904Y-144928571D01*
X115904761Y-145452380D02*
X115428571Y-145452380D01*
X115428571Y-144452380D01*
X115904761Y-144452380D01*
X116333333Y-145452380D02*
X116333333Y-144452380D01*
X116904761Y-145452380D01*
X116904761Y-144452380D01*
X117142857Y-145547619D02*
X117904761Y-145547619D01*
X118666666Y-145452380D02*
X118095238Y-145452380D01*
X118380952Y-145452380D02*
X118380952Y-144452380D01*
X118285714Y-144595238D01*
X118190476Y-144690476D01*
X118095238Y-144738095D01*
X132637894Y-76789021D02*
X133399799Y-76789021D01*
X133018847Y-77169973D02*
X133018847Y-76408069D01*
X134352180Y-76169973D02*
X133875989Y-76169973D01*
X133828370Y-76646164D01*
X133875989Y-76598545D01*
X133971228Y-76550926D01*
X134209323Y-76550926D01*
X134304561Y-76598545D01*
X134352180Y-76646164D01*
X134399799Y-76741402D01*
X134399799Y-76979497D01*
X134352180Y-77074735D01*
X134304561Y-77122354D01*
X134209323Y-77169973D01*
X133971228Y-77169973D01*
X133875989Y-77122354D01*
X133828370Y-77074735D01*
X134685513Y-76169973D02*
X135018847Y-77169973D01*
X135352180Y-76169973D01*
D14*
X64476190Y-133285714D02*
X67523809Y-133285714D01*
D12*
X125048185Y-50173339D02*
X125000565Y-50268577D01*
X125000565Y-50411435D01*
X125048185Y-50554292D01*
X125143423Y-50649530D01*
X125238661Y-50697149D01*
X125429137Y-50744768D01*
X125571994Y-50744768D01*
X125762470Y-50697149D01*
X125857708Y-50649530D01*
X125952946Y-50554292D01*
X126000565Y-50411435D01*
X126000565Y-50316196D01*
X125952946Y-50173339D01*
X125905327Y-50125720D01*
X125571994Y-50125720D01*
X125571994Y-50316196D01*
X126000565Y-49697149D02*
X125000565Y-49697149D01*
X126000565Y-49125720D01*
X125000565Y-49125720D01*
X126000565Y-48649530D02*
X125000565Y-48649530D01*
X125000565Y-48411435D01*
X125048185Y-48268577D01*
X125143423Y-48173339D01*
X125238661Y-48125720D01*
X125429137Y-48078101D01*
X125571994Y-48078101D01*
X125762470Y-48125720D01*
X125857708Y-48173339D01*
X125952946Y-48268577D01*
X126000565Y-48411435D01*
X126000565Y-48649530D01*
X110714285Y-75952380D02*
X110714285Y-74952380D01*
X110714285Y-75428571D02*
X111285714Y-75428571D01*
X111285714Y-75952380D02*
X111285714Y-74952380D01*
X112095238Y-75428571D02*
X112238095Y-75476190D01*
X112285714Y-75523809D01*
X112333333Y-75619047D01*
X112333333Y-75761904D01*
X112285714Y-75857142D01*
X112238095Y-75904761D01*
X112142857Y-75952380D01*
X111761904Y-75952380D01*
X111761904Y-74952380D01*
X112095238Y-74952380D01*
X112190476Y-75000000D01*
X112238095Y-75047619D01*
X112285714Y-75142857D01*
X112285714Y-75238095D01*
X112238095Y-75333333D01*
X112190476Y-75380952D01*
X112095238Y-75428571D01*
X111761904Y-75428571D01*
X57465672Y-71484627D02*
X58227577Y-71484627D01*
X57846625Y-71865579D02*
X57846625Y-71103675D01*
X59179958Y-70865579D02*
X58703767Y-70865579D01*
X58656148Y-71341770D01*
X58703767Y-71294151D01*
X58799006Y-71246532D01*
X59037101Y-71246532D01*
X59132339Y-71294151D01*
X59179958Y-71341770D01*
X59227577Y-71437008D01*
X59227577Y-71675103D01*
X59179958Y-71770341D01*
X59132339Y-71817960D01*
X59037101Y-71865579D01*
X58799006Y-71865579D01*
X58703767Y-71817960D01*
X58656148Y-71770341D01*
X59513291Y-70865579D02*
X59846625Y-71865579D01*
X60179958Y-70865579D01*
X58049281Y-78477830D02*
X57954043Y-78430210D01*
X57811186Y-78430210D01*
X57668328Y-78477830D01*
X57573090Y-78573068D01*
X57525471Y-78668306D01*
X57477852Y-78858782D01*
X57477852Y-79001639D01*
X57525471Y-79192115D01*
X57573090Y-79287353D01*
X57668328Y-79382591D01*
X57811186Y-79430210D01*
X57906424Y-79430210D01*
X58049281Y-79382591D01*
X58096900Y-79334972D01*
X58096900Y-79001639D01*
X57906424Y-79001639D01*
X58525471Y-79430210D02*
X58525471Y-78430210D01*
X59096900Y-79430210D01*
X59096900Y-78430210D01*
X59573090Y-79430210D02*
X59573090Y-78430210D01*
X59811186Y-78430210D01*
X59954043Y-78477830D01*
X60049281Y-78573068D01*
X60096900Y-78668306D01*
X60144519Y-78858782D01*
X60144519Y-79001639D01*
X60096900Y-79192115D01*
X60049281Y-79287353D01*
X59954043Y-79382591D01*
X59811186Y-79430210D01*
X59573090Y-79430210D01*
X75000000Y-144928571D02*
X75142857Y-144976190D01*
X75190476Y-145023809D01*
X75238095Y-145119047D01*
X75238095Y-145261904D01*
X75190476Y-145357142D01*
X75142857Y-145404761D01*
X75047619Y-145452380D01*
X74666666Y-145452380D01*
X74666666Y-144452380D01*
X75000000Y-144452380D01*
X75095238Y-144500000D01*
X75142857Y-144547619D01*
X75190476Y-144642857D01*
X75190476Y-144738095D01*
X75142857Y-144833333D01*
X75095238Y-144880952D01*
X75000000Y-144928571D01*
X74666666Y-144928571D01*
X75619047Y-145166666D02*
X76095238Y-145166666D01*
X75523809Y-145452380D02*
X75857142Y-144452380D01*
X76190476Y-145452380D01*
X76380952Y-144452380D02*
X76952380Y-144452380D01*
X76666666Y-145452380D02*
X76666666Y-144452380D01*
X77142857Y-144452380D02*
X77714285Y-144452380D01*
X77428571Y-145452380D02*
X77428571Y-144452380D01*
X78047619Y-144928571D02*
X78380952Y-144928571D01*
X78523809Y-145452380D02*
X78047619Y-145452380D01*
X78047619Y-144452380D01*
X78523809Y-144452380D01*
X79523809Y-145452380D02*
X79190476Y-144976190D01*
X78952380Y-145452380D02*
X78952380Y-144452380D01*
X79333333Y-144452380D01*
X79428571Y-144500000D01*
X79476190Y-144547619D01*
X79523809Y-144642857D01*
X79523809Y-144785714D01*
X79476190Y-144880952D01*
X79428571Y-144928571D01*
X79333333Y-144976190D01*
X78952380Y-144976190D01*
X80142857Y-144976190D02*
X80142857Y-145452380D01*
X79809523Y-144452380D02*
X80142857Y-144976190D01*
X80476190Y-144452380D01*
X48547619Y-83261904D02*
X48547619Y-83833333D01*
X47547619Y-83547619D02*
X48547619Y-83547619D01*
X47833333Y-84119047D02*
X47833333Y-84595238D01*
X47547619Y-84023809D02*
X48547619Y-84357142D01*
X47547619Y-84690476D01*
X47547619Y-85023809D02*
X48547619Y-85023809D01*
X47833333Y-85357142D01*
X48547619Y-85690476D01*
X47547619Y-85690476D01*
X47547619Y-86166666D02*
X48547619Y-86166666D01*
X48547619Y-86547619D01*
X48500000Y-86642857D01*
X48452380Y-86690476D01*
X48357142Y-86738095D01*
X48214285Y-86738095D01*
X48119047Y-86690476D01*
X48071428Y-86642857D01*
X48023809Y-86547619D01*
X48023809Y-86166666D01*
X48071428Y-87166666D02*
X48071428Y-87500000D01*
X47547619Y-87642857D02*
X47547619Y-87166666D01*
X48547619Y-87166666D01*
X48547619Y-87642857D01*
X47547619Y-88642857D02*
X48023809Y-88309523D01*
X47547619Y-88071428D02*
X48547619Y-88071428D01*
X48547619Y-88452380D01*
X48500000Y-88547619D01*
X48452380Y-88595238D01*
X48357142Y-88642857D01*
X48214285Y-88642857D01*
X48119047Y-88595238D01*
X48071428Y-88547619D01*
X48023809Y-88452380D01*
X48023809Y-88071428D01*
X132825641Y-63240312D02*
X132968498Y-63287931D01*
X133206593Y-63287931D01*
X133301831Y-63240312D01*
X133349450Y-63192693D01*
X133397069Y-63097455D01*
X133397069Y-63002217D01*
X133349450Y-62906979D01*
X133301831Y-62859360D01*
X133206593Y-62811741D01*
X133016117Y-62764122D01*
X132920879Y-62716503D01*
X132873260Y-62668884D01*
X132825641Y-62573646D01*
X132825641Y-62478408D01*
X132873260Y-62383170D01*
X132920879Y-62335551D01*
X133016117Y-62287931D01*
X133254212Y-62287931D01*
X133397069Y-62335551D01*
X133825641Y-63287931D02*
X133825641Y-62287931D01*
X134063736Y-62287931D01*
X134206593Y-62335551D01*
X134301831Y-62430789D01*
X134349450Y-62526027D01*
X134397069Y-62716503D01*
X134397069Y-62859360D01*
X134349450Y-63049836D01*
X134301831Y-63145074D01*
X134206593Y-63240312D01*
X134063736Y-63287931D01*
X133825641Y-63287931D01*
X134778022Y-63002217D02*
X135254212Y-63002217D01*
X134682784Y-63287931D02*
X135016117Y-62287931D01*
X135349450Y-63287931D01*
X47547619Y-56904761D02*
X48547619Y-56904761D01*
X47547619Y-57476190D01*
X48547619Y-57476190D01*
X48071428Y-58285714D02*
X48071428Y-57952380D01*
X47547619Y-57952380D02*
X48547619Y-57952380D01*
X48547619Y-58428571D01*
X47642857Y-59380952D02*
X47595238Y-59333333D01*
X47547619Y-59190476D01*
X47547619Y-59095238D01*
X47595238Y-58952380D01*
X47690476Y-58857142D01*
X47785714Y-58809523D01*
X47976190Y-58761904D01*
X48119047Y-58761904D01*
X48309523Y-58809523D01*
X48404761Y-58857142D01*
X48500000Y-58952380D01*
X48547619Y-59095238D01*
X48547619Y-59190476D01*
X48500000Y-59333333D01*
X48452380Y-59380952D01*
X47595238Y-60523809D02*
X47547619Y-60666666D01*
X47547619Y-60904761D01*
X47595238Y-61000000D01*
X47642857Y-61047619D01*
X47738095Y-61095238D01*
X47833333Y-61095238D01*
X47928571Y-61047619D01*
X47976190Y-61000000D01*
X48023809Y-60904761D01*
X48071428Y-60714285D01*
X48119047Y-60619047D01*
X48166666Y-60571428D01*
X48261904Y-60523809D01*
X48357142Y-60523809D01*
X48452380Y-60571428D01*
X48500000Y-60619047D01*
X48547619Y-60714285D01*
X48547619Y-60952380D01*
X48500000Y-61095238D01*
X48071428Y-61523809D02*
X48071428Y-61857142D01*
X47547619Y-62000000D02*
X47547619Y-61523809D01*
X48547619Y-61523809D01*
X48547619Y-62000000D01*
X47547619Y-63000000D02*
X48023809Y-62666666D01*
X47547619Y-62428571D02*
X48547619Y-62428571D01*
X48547619Y-62809523D01*
X48500000Y-62904761D01*
X48452380Y-62952380D01*
X48357142Y-63000000D01*
X48214285Y-63000000D01*
X48119047Y-62952380D01*
X48071428Y-62904761D01*
X48023809Y-62809523D01*
X48023809Y-62428571D01*
X47547619Y-63428571D02*
X48547619Y-63428571D01*
X47833333Y-63857142D02*
X47833333Y-64333333D01*
X47547619Y-63761904D02*
X48547619Y-64095238D01*
X47547619Y-64428571D01*
X47547619Y-65238095D02*
X47547619Y-64761904D01*
X48547619Y-64761904D01*
X48547619Y-68738095D02*
X47547619Y-68976190D01*
X48261904Y-69166666D01*
X47547619Y-69357142D01*
X48547619Y-69595238D01*
X47547619Y-69976190D02*
X48547619Y-69976190D01*
X48071428Y-70452380D02*
X48071428Y-70785714D01*
X47547619Y-70928571D02*
X47547619Y-70452380D01*
X48547619Y-70452380D01*
X48547619Y-70928571D01*
X48500000Y-71880952D02*
X48547619Y-71785714D01*
X48547619Y-71642857D01*
X48500000Y-71500000D01*
X48404761Y-71404761D01*
X48309523Y-71357142D01*
X48119047Y-71309523D01*
X47976190Y-71309523D01*
X47785714Y-71357142D01*
X47690476Y-71404761D01*
X47595238Y-71500000D01*
X47547619Y-71642857D01*
X47547619Y-71738095D01*
X47595238Y-71880952D01*
X47642857Y-71928571D01*
X47976190Y-71928571D01*
X47976190Y-71738095D01*
X47833333Y-72309523D02*
X47833333Y-72785714D01*
X47547619Y-72214285D02*
X48547619Y-72547619D01*
X47547619Y-72880952D01*
X47547619Y-73214285D02*
X48547619Y-73214285D01*
X47547619Y-73785714D01*
X48547619Y-73785714D01*
X47547619Y-74261904D02*
X48547619Y-74261904D01*
X48547619Y-74500000D01*
X48500000Y-74642857D01*
X48404761Y-74738095D01*
X48309523Y-74785714D01*
X48119047Y-74833333D01*
X47976190Y-74833333D01*
X47785714Y-74785714D01*
X47690476Y-74738095D01*
X47595238Y-74642857D01*
X47547619Y-74500000D01*
X47547619Y-74261904D01*
X47547619Y-76023809D02*
X48547619Y-76023809D01*
X47547619Y-76595238D02*
X48119047Y-76166666D01*
X48547619Y-76595238D02*
X47976190Y-76023809D01*
X48071428Y-77023809D02*
X48071428Y-77357142D01*
X47547619Y-77500000D02*
X47547619Y-77023809D01*
X48547619Y-77023809D01*
X48547619Y-77500000D01*
X48023809Y-78119047D02*
X47547619Y-78119047D01*
X48547619Y-77785714D02*
X48023809Y-78119047D01*
X48547619Y-78452380D01*
X47547619Y-78785714D02*
X48547619Y-78785714D01*
X48547619Y-79166666D01*
X48500000Y-79261904D01*
X48452380Y-79309523D01*
X48357142Y-79357142D01*
X48214285Y-79357142D01*
X48119047Y-79309523D01*
X48071428Y-79261904D01*
X48023809Y-79166666D01*
X48023809Y-78785714D01*
X47833333Y-79738095D02*
X47833333Y-80214285D01*
X47547619Y-79642857D02*
X48547619Y-79976190D01*
X47547619Y-80309523D01*
X47547619Y-80642857D02*
X48547619Y-80642857D01*
X48547619Y-80880952D01*
X48500000Y-81023809D01*
X48404761Y-81119047D01*
X48309523Y-81166666D01*
X48119047Y-81214285D01*
X47976190Y-81214285D01*
X47785714Y-81166666D01*
X47690476Y-81119047D01*
X47595238Y-81023809D01*
X47547619Y-80880952D01*
X47547619Y-80642857D01*
X122166666Y-75952380D02*
X122166666Y-74952380D01*
X122547619Y-74952380D01*
X122642857Y-75000000D01*
X122690476Y-75047619D01*
X122738095Y-75142857D01*
X122738095Y-75285714D01*
X122690476Y-75380952D01*
X122642857Y-75428571D01*
X122547619Y-75476190D01*
X122166666Y-75476190D01*
X123071428Y-74952380D02*
X123309523Y-75952380D01*
X123500000Y-75238095D01*
X123690476Y-75952380D01*
X123928571Y-74952380D01*
X124309523Y-75952380D02*
X124309523Y-74952380D01*
X124547619Y-74952380D01*
X124690476Y-75000000D01*
X124785714Y-75095238D01*
X124833333Y-75190476D01*
X124880952Y-75380952D01*
X124880952Y-75523809D01*
X124833333Y-75714285D01*
X124785714Y-75809523D01*
X124690476Y-75904761D01*
X124547619Y-75952380D01*
X124309523Y-75952380D01*
X127571428Y-144452380D02*
X127761904Y-144452380D01*
X127857142Y-144500000D01*
X127952380Y-144595238D01*
X128000000Y-144785714D01*
X128000000Y-145119047D01*
X127952380Y-145309523D01*
X127857142Y-145404761D01*
X127761904Y-145452380D01*
X127571428Y-145452380D01*
X127476190Y-145404761D01*
X127380952Y-145309523D01*
X127333333Y-145119047D01*
X127333333Y-144785714D01*
X127380952Y-144595238D01*
X127476190Y-144500000D01*
X127571428Y-144452380D01*
X128428571Y-145452380D02*
X128428571Y-144452380D01*
X128809523Y-144452380D01*
X128904761Y-144500000D01*
X128952380Y-144547619D01*
X129000000Y-144642857D01*
X129000000Y-144785714D01*
X128952380Y-144880952D01*
X128904761Y-144928571D01*
X128809523Y-144976190D01*
X128428571Y-144976190D01*
X129428571Y-144928571D02*
X129761904Y-144928571D01*
X129904761Y-145452380D02*
X129428571Y-145452380D01*
X129428571Y-144452380D01*
X129904761Y-144452380D01*
X130333333Y-145452380D02*
X130333333Y-144452380D01*
X130904761Y-145452380D01*
X130904761Y-144452380D01*
X131142857Y-145547619D02*
X131904761Y-145547619D01*
X132095238Y-144547619D02*
X132142857Y-144500000D01*
X132238095Y-144452380D01*
X132476190Y-144452380D01*
X132571428Y-144500000D01*
X132619047Y-144547619D01*
X132666666Y-144642857D01*
X132666666Y-144738095D01*
X132619047Y-144880952D01*
X132047619Y-145452380D01*
X132666666Y-145452380D01*
D15*
X54023809Y-101833333D02*
X50690476Y-105166666D01*
X54023809Y-103500000D02*
X54023809Y-101833333D01*
X52357142Y-101833333D01*
D12*
X113555028Y-135641501D02*
X113555028Y-134879597D01*
X113935980Y-135260549D02*
X113174076Y-135260549D01*
X113935980Y-133879597D02*
X113935980Y-134451025D01*
X113935980Y-134165311D02*
X112935980Y-134165311D01*
X113078838Y-134260549D01*
X113174076Y-134355787D01*
X113221695Y-134451025D01*
X113031219Y-133498644D02*
X112983600Y-133451025D01*
X112935980Y-133355787D01*
X112935980Y-133117692D01*
X112983600Y-133022454D01*
X113031219Y-132974835D01*
X113126457Y-132927216D01*
X113221695Y-132927216D01*
X113364552Y-132974835D01*
X113935980Y-133546263D01*
X113935980Y-132927216D01*
X112935980Y-132641501D02*
X113935980Y-132308168D01*
X112935980Y-131974835D01*
X132535880Y-85851104D02*
X132535880Y-84851104D01*
X132773975Y-84851104D01*
X132916832Y-84898724D01*
X133012070Y-84993962D01*
X133059689Y-85089200D01*
X133107308Y-85279676D01*
X133107308Y-85422533D01*
X133059689Y-85613009D01*
X133012070Y-85708247D01*
X132916832Y-85803485D01*
X132773975Y-85851104D01*
X132535880Y-85851104D01*
X133488260Y-85565390D02*
X133964451Y-85565390D01*
X133393022Y-85851104D02*
X133726356Y-84851104D01*
X134059689Y-85851104D01*
X134250165Y-84851104D02*
X134821594Y-84851104D01*
X134535880Y-85851104D02*
X134535880Y-84851104D01*
X135107308Y-85565390D02*
X135583499Y-85565390D01*
X135012070Y-85851104D02*
X135345403Y-84851104D01*
X135678737Y-85851104D01*
X133238095Y-57500000D02*
X133142857Y-57452380D01*
X133000000Y-57452380D01*
X132857142Y-57500000D01*
X132761904Y-57595238D01*
X132714285Y-57690476D01*
X132666666Y-57880952D01*
X132666666Y-58023809D01*
X132714285Y-58214285D01*
X132761904Y-58309523D01*
X132857142Y-58404761D01*
X133000000Y-58452380D01*
X133095238Y-58452380D01*
X133238095Y-58404761D01*
X133285714Y-58357142D01*
X133285714Y-58023809D01*
X133095238Y-58023809D01*
X133714285Y-58452380D02*
X133714285Y-57452380D01*
X134285714Y-58452380D01*
X134285714Y-57452380D01*
X134761904Y-58452380D02*
X134761904Y-57452380D01*
X135000000Y-57452380D01*
X135142857Y-57500000D01*
X135238095Y-57595238D01*
X135285714Y-57690476D01*
X135333333Y-57880952D01*
X135333333Y-58023809D01*
X135285714Y-58214285D01*
X135238095Y-58309523D01*
X135142857Y-58404761D01*
X135000000Y-58452380D01*
X134761904Y-58452380D01*
X101748475Y-137499333D02*
X101700855Y-137594571D01*
X101700855Y-137737429D01*
X101748475Y-137880286D01*
X101843713Y-137975524D01*
X101938951Y-138023143D01*
X102129427Y-138070762D01*
X102272284Y-138070762D01*
X102462760Y-138023143D01*
X102557998Y-137975524D01*
X102653236Y-137880286D01*
X102700855Y-137737429D01*
X102700855Y-137642190D01*
X102653236Y-137499333D01*
X102605617Y-137451714D01*
X102272284Y-137451714D01*
X102272284Y-137642190D01*
X102700855Y-137023143D02*
X101700855Y-137023143D01*
X102700855Y-136451714D01*
X101700855Y-136451714D01*
X102700855Y-135975524D02*
X101700855Y-135975524D01*
X101700855Y-135737429D01*
X101748475Y-135594571D01*
X101843713Y-135499333D01*
X101938951Y-135451714D01*
X102129427Y-135404095D01*
X102272284Y-135404095D01*
X102462760Y-135451714D01*
X102557998Y-135499333D01*
X102653236Y-135594571D01*
X102700855Y-135737429D01*
X102700855Y-135975524D01*
D13*
X92857142Y-90178571D02*
X92857142Y-88678571D01*
X93357142Y-89750000D01*
X93857142Y-88678571D01*
X93857142Y-90178571D01*
X95214285Y-90178571D02*
X95214285Y-89392857D01*
X95142857Y-89250000D01*
X95000000Y-89178571D01*
X94714285Y-89178571D01*
X94571428Y-89250000D01*
X95214285Y-90107142D02*
X95071428Y-90178571D01*
X94714285Y-90178571D01*
X94571428Y-90107142D01*
X94500000Y-89964285D01*
X94500000Y-89821428D01*
X94571428Y-89678571D01*
X94714285Y-89607142D01*
X95071428Y-89607142D01*
X95214285Y-89535714D01*
X96571428Y-90178571D02*
X96571428Y-88678571D01*
X96571428Y-90107142D02*
X96428571Y-90178571D01*
X96142857Y-90178571D01*
X96000000Y-90107142D01*
X95928571Y-90035714D01*
X95857142Y-89892857D01*
X95857142Y-89464285D01*
X95928571Y-89321428D01*
X96000000Y-89250000D01*
X96142857Y-89178571D01*
X96428571Y-89178571D01*
X96571428Y-89250000D01*
X97857142Y-90107142D02*
X97714285Y-90178571D01*
X97428571Y-90178571D01*
X97285714Y-90107142D01*
X97214285Y-89964285D01*
X97214285Y-89392857D01*
X97285714Y-89250000D01*
X97428571Y-89178571D01*
X97714285Y-89178571D01*
X97857142Y-89250000D01*
X97928571Y-89392857D01*
X97928571Y-89535714D01*
X97214285Y-89678571D01*
X99500000Y-89178571D02*
X100071428Y-89178571D01*
X99714285Y-90178571D02*
X99714285Y-88892857D01*
X99785714Y-88750000D01*
X99928571Y-88678571D01*
X100071428Y-88678571D01*
X100785714Y-90178571D02*
X100642857Y-90107142D01*
X100571428Y-90035714D01*
X100500000Y-89892857D01*
X100500000Y-89464285D01*
X100571428Y-89321428D01*
X100642857Y-89250000D01*
X100785714Y-89178571D01*
X101000000Y-89178571D01*
X101142857Y-89250000D01*
X101214285Y-89321428D01*
X101285714Y-89464285D01*
X101285714Y-89892857D01*
X101214285Y-90035714D01*
X101142857Y-90107142D01*
X101000000Y-90178571D01*
X100785714Y-90178571D01*
X101928571Y-90178571D02*
X101928571Y-89178571D01*
X101928571Y-89464285D02*
X102000000Y-89321428D01*
X102071428Y-89250000D01*
X102214285Y-89178571D01*
X102357142Y-89178571D01*
D12*
X122214285Y-72785714D02*
X122928571Y-72785714D01*
X122500000Y-72357142D02*
X122214285Y-73642857D01*
X122833333Y-73214285D02*
X122119047Y-73214285D01*
X122547619Y-73642857D02*
X122833333Y-72357142D01*
X123785714Y-73452380D02*
X123214285Y-73452380D01*
X123500000Y-73452380D02*
X123500000Y-72452380D01*
X123404761Y-72595238D01*
X123309523Y-72690476D01*
X123214285Y-72738095D01*
X133251404Y-71032980D02*
X133156166Y-70985360D01*
X133013309Y-70985360D01*
X132870451Y-71032980D01*
X132775213Y-71128218D01*
X132727594Y-71223456D01*
X132679975Y-71413932D01*
X132679975Y-71556789D01*
X132727594Y-71747265D01*
X132775213Y-71842503D01*
X132870451Y-71937741D01*
X133013309Y-71985360D01*
X133108547Y-71985360D01*
X133251404Y-71937741D01*
X133299023Y-71890122D01*
X133299023Y-71556789D01*
X133108547Y-71556789D01*
X133727594Y-71985360D02*
X133727594Y-70985360D01*
X134299023Y-71985360D01*
X134299023Y-70985360D01*
X134775213Y-71985360D02*
X134775213Y-70985360D01*
X135013309Y-70985360D01*
X135156166Y-71032980D01*
X135251404Y-71128218D01*
X135299023Y-71223456D01*
X135346642Y-71413932D01*
X135346642Y-71556789D01*
X135299023Y-71747265D01*
X135251404Y-71842503D01*
X135156166Y-71937741D01*
X135013309Y-71985360D01*
X134775213Y-71985360D01*
X124332747Y-77643440D02*
X124237509Y-77595820D01*
X124094652Y-77595820D01*
X123951794Y-77643440D01*
X123856556Y-77738678D01*
X123808937Y-77833916D01*
X123761318Y-78024392D01*
X123761318Y-78167249D01*
X123808937Y-78357725D01*
X123856556Y-78452963D01*
X123951794Y-78548201D01*
X124094652Y-78595820D01*
X124189890Y-78595820D01*
X124332747Y-78548201D01*
X124380366Y-78500582D01*
X124380366Y-78167249D01*
X124189890Y-78167249D01*
X124808937Y-78595820D02*
X124808937Y-77595820D01*
X125380366Y-78595820D01*
X125380366Y-77595820D01*
X125856556Y-78595820D02*
X125856556Y-77595820D01*
X126094652Y-77595820D01*
X126237509Y-77643440D01*
X126332747Y-77738678D01*
X126380366Y-77833916D01*
X126427985Y-78024392D01*
X126427985Y-78167249D01*
X126380366Y-78357725D01*
X126332747Y-78452963D01*
X126237509Y-78548201D01*
X126094652Y-78595820D01*
X125856556Y-78595820D01*
X129476797Y-135497028D02*
X129476797Y-135306552D01*
X129524417Y-135211314D01*
X129619655Y-135116076D01*
X129810131Y-135068457D01*
X130143464Y-135068457D01*
X130333940Y-135116076D01*
X130429178Y-135211314D01*
X130476797Y-135306552D01*
X130476797Y-135497028D01*
X130429178Y-135592266D01*
X130333940Y-135687504D01*
X130143464Y-135735123D01*
X129810131Y-135735123D01*
X129619655Y-135687504D01*
X129524417Y-135592266D01*
X129476797Y-135497028D01*
X130476797Y-134639885D02*
X129476797Y-134639885D01*
X129476797Y-134258933D01*
X129524417Y-134163695D01*
X129572036Y-134116076D01*
X129667274Y-134068457D01*
X129810131Y-134068457D01*
X129905369Y-134116076D01*
X129952988Y-134163695D01*
X130000607Y-134258933D01*
X130000607Y-134639885D01*
X129952988Y-133639885D02*
X129952988Y-133306552D01*
X130476797Y-133163695D02*
X130476797Y-133639885D01*
X129476797Y-133639885D01*
X129476797Y-133163695D01*
X130476797Y-132735123D02*
X129476797Y-132735123D01*
X130476797Y-132163695D01*
X129476797Y-132163695D01*
X127579445Y-135567101D02*
X127579445Y-134805197D01*
X127960397Y-135186149D02*
X127198493Y-135186149D01*
X127960397Y-133805197D02*
X127960397Y-134376625D01*
X127960397Y-134090911D02*
X126960397Y-134090911D01*
X127103255Y-134186149D01*
X127198493Y-134281387D01*
X127246112Y-134376625D01*
X127055636Y-133424244D02*
X127008017Y-133376625D01*
X126960397Y-133281387D01*
X126960397Y-133043292D01*
X127008017Y-132948054D01*
X127055636Y-132900435D01*
X127150874Y-132852816D01*
X127246112Y-132852816D01*
X127388969Y-132900435D01*
X127960397Y-133471863D01*
X127960397Y-132852816D01*
X126960397Y-132567101D02*
X127960397Y-132233768D01*
X126960397Y-131900435D01*
X49192738Y-131842380D02*
X49526071Y-132842380D01*
X49859404Y-131842380D01*
X49954642Y-132937619D02*
X50716547Y-132937619D01*
X50954642Y-132842380D02*
X50954642Y-131842380D01*
X51430833Y-132842380D02*
X51430833Y-131842380D01*
X52002261Y-132842380D01*
X52002261Y-131842380D01*
X49859404Y-134452380D02*
X49287976Y-134452380D01*
X49573690Y-134452380D02*
X49573690Y-133452380D01*
X49478452Y-133595238D01*
X49383214Y-133690476D01*
X49287976Y-133738095D01*
X50430833Y-133880952D02*
X50335595Y-133833333D01*
X50287976Y-133785714D01*
X50240357Y-133690476D01*
X50240357Y-133642857D01*
X50287976Y-133547619D01*
X50335595Y-133500000D01*
X50430833Y-133452380D01*
X50621309Y-133452380D01*
X50716547Y-133500000D01*
X50764166Y-133547619D01*
X50811785Y-133642857D01*
X50811785Y-133690476D01*
X50764166Y-133785714D01*
X50716547Y-133833333D01*
X50621309Y-133880952D01*
X50430833Y-133880952D01*
X50335595Y-133928571D01*
X50287976Y-133976190D01*
X50240357Y-134071428D01*
X50240357Y-134261904D01*
X50287976Y-134357142D01*
X50335595Y-134404761D01*
X50430833Y-134452380D01*
X50621309Y-134452380D01*
X50716547Y-134404761D01*
X50764166Y-134357142D01*
X50811785Y-134261904D01*
X50811785Y-134071428D01*
X50764166Y-133976190D01*
X50716547Y-133928571D01*
X50621309Y-133880952D01*
X51097500Y-133452380D02*
X51430833Y-134452380D01*
X51764166Y-133452380D01*
X52097500Y-134071428D02*
X52859404Y-134071428D01*
X53287976Y-133547619D02*
X53335595Y-133500000D01*
X53430833Y-133452380D01*
X53668928Y-133452380D01*
X53764166Y-133500000D01*
X53811785Y-133547619D01*
X53859404Y-133642857D01*
X53859404Y-133738095D01*
X53811785Y-133880952D01*
X53240357Y-134452380D01*
X53859404Y-134452380D01*
X54478452Y-133452380D02*
X54573690Y-133452380D01*
X54668928Y-133500000D01*
X54716547Y-133547619D01*
X54764166Y-133642857D01*
X54811785Y-133833333D01*
X54811785Y-134071428D01*
X54764166Y-134261904D01*
X54716547Y-134357142D01*
X54668928Y-134404761D01*
X54573690Y-134452380D01*
X54478452Y-134452380D01*
X54383214Y-134404761D01*
X54335595Y-134357142D01*
X54287976Y-134261904D01*
X54240357Y-134071428D01*
X54240357Y-133833333D01*
X54287976Y-133642857D01*
X54335595Y-133547619D01*
X54383214Y-133500000D01*
X54478452Y-133452380D01*
X55097500Y-133452380D02*
X55430833Y-134452380D01*
X55764166Y-133452380D01*
X49335595Y-136062380D02*
X49335595Y-135062380D01*
X49668928Y-135776666D01*
X50002261Y-135062380D01*
X50002261Y-136062380D01*
X50430833Y-135776666D02*
X50907023Y-135776666D01*
X50335595Y-136062380D02*
X50668928Y-135062380D01*
X51002261Y-136062380D01*
X51240357Y-135062380D02*
X51907023Y-136062380D01*
X51907023Y-135062380D02*
X51240357Y-136062380D01*
X53002261Y-135157619D02*
X53049880Y-135110000D01*
X53145119Y-135062380D01*
X53383214Y-135062380D01*
X53478452Y-135110000D01*
X53526071Y-135157619D01*
X53573690Y-135252857D01*
X53573690Y-135348095D01*
X53526071Y-135490952D01*
X52954642Y-136062380D01*
X53573690Y-136062380D01*
X54430833Y-135395714D02*
X54430833Y-136062380D01*
X54192738Y-135014761D02*
X53954642Y-135729047D01*
X54573690Y-135729047D01*
X54811785Y-135062380D02*
X55145119Y-136062380D01*
X55478452Y-135062380D01*
X109714285Y-78071428D02*
X110476190Y-78071428D01*
X110095238Y-78452380D02*
X110095238Y-77690476D01*
X111428571Y-77452380D02*
X110952380Y-77452380D01*
X110904761Y-77928571D01*
X110952380Y-77880952D01*
X111047619Y-77833333D01*
X111285714Y-77833333D01*
X111380952Y-77880952D01*
X111428571Y-77928571D01*
X111476190Y-78023809D01*
X111476190Y-78261904D01*
X111428571Y-78357142D01*
X111380952Y-78404761D01*
X111285714Y-78452380D01*
X111047619Y-78452380D01*
X110952380Y-78404761D01*
X110904761Y-78357142D01*
X111761904Y-77452380D02*
X112095238Y-78452380D01*
X112428571Y-77452380D01*
X118191606Y-134939101D02*
X118143986Y-135034339D01*
X118143986Y-135177197D01*
X118191606Y-135320054D01*
X118286844Y-135415292D01*
X118382082Y-135462911D01*
X118572558Y-135510530D01*
X118715415Y-135510530D01*
X118905891Y-135462911D01*
X119001129Y-135415292D01*
X119096367Y-135320054D01*
X119143986Y-135177197D01*
X119143986Y-135081958D01*
X119096367Y-134939101D01*
X119048748Y-134891482D01*
X118715415Y-134891482D01*
X118715415Y-135081958D01*
X119143986Y-134462911D02*
X118143986Y-134462911D01*
X119143986Y-133891482D01*
X118143986Y-133891482D01*
X119143986Y-133415292D02*
X118143986Y-133415292D01*
X118143986Y-133177197D01*
X118191606Y-133034339D01*
X118286844Y-132939101D01*
X118382082Y-132891482D01*
X118572558Y-132843863D01*
X118715415Y-132843863D01*
X118905891Y-132891482D01*
X119001129Y-132939101D01*
X119096367Y-133034339D01*
X119143986Y-133177197D01*
X119143986Y-133415292D01*
X127571428Y-90452380D02*
X127761904Y-90452380D01*
X127857142Y-90500000D01*
X127952380Y-90595238D01*
X128000000Y-90785714D01*
X128000000Y-91119047D01*
X127952380Y-91309523D01*
X127857142Y-91404761D01*
X127761904Y-91452380D01*
X127571428Y-91452380D01*
X127476190Y-91404761D01*
X127380952Y-91309523D01*
X127333333Y-91119047D01*
X127333333Y-90785714D01*
X127380952Y-90595238D01*
X127476190Y-90500000D01*
X127571428Y-90452380D01*
X128428571Y-91452380D02*
X128428571Y-90452380D01*
X128809523Y-90452380D01*
X128904761Y-90500000D01*
X128952380Y-90547619D01*
X129000000Y-90642857D01*
X129000000Y-90785714D01*
X128952380Y-90880952D01*
X128904761Y-90928571D01*
X128809523Y-90976190D01*
X128428571Y-90976190D01*
X129428571Y-90928571D02*
X129761904Y-90928571D01*
X129904761Y-91452380D02*
X129428571Y-91452380D01*
X129428571Y-90452380D01*
X129904761Y-90452380D01*
X130333333Y-91452380D02*
X130333333Y-90452380D01*
X130904761Y-91452380D01*
X130904761Y-90452380D01*
X131142857Y-91547619D02*
X131904761Y-91547619D01*
X132095238Y-90547619D02*
X132142857Y-90500000D01*
X132238095Y-90452380D01*
X132476190Y-90452380D01*
X132571428Y-90500000D01*
X132619047Y-90547619D01*
X132666666Y-90642857D01*
X132666666Y-90738095D01*
X132619047Y-90880952D01*
X132047619Y-91452380D01*
X132666666Y-91452380D01*
X114642857Y-48428571D02*
X114785714Y-48476190D01*
X114833333Y-48523809D01*
X114880952Y-48619047D01*
X114880952Y-48761904D01*
X114833333Y-48857142D01*
X114785714Y-48904761D01*
X114690476Y-48952380D01*
X114309523Y-48952380D01*
X114309523Y-47952380D01*
X114642857Y-47952380D01*
X114738095Y-48000000D01*
X114785714Y-48047619D01*
X114833333Y-48142857D01*
X114833333Y-48238095D01*
X114785714Y-48333333D01*
X114738095Y-48380952D01*
X114642857Y-48428571D01*
X114309523Y-48428571D01*
X115500000Y-47952380D02*
X115690476Y-47952380D01*
X115785714Y-48000000D01*
X115880952Y-48095238D01*
X115928571Y-48285714D01*
X115928571Y-48619047D01*
X115880952Y-48809523D01*
X115785714Y-48904761D01*
X115690476Y-48952380D01*
X115500000Y-48952380D01*
X115404761Y-48904761D01*
X115309523Y-48809523D01*
X115261904Y-48619047D01*
X115261904Y-48285714D01*
X115309523Y-48095238D01*
X115404761Y-48000000D01*
X115500000Y-47952380D01*
X116547619Y-47952380D02*
X116738095Y-47952380D01*
X116833333Y-48000000D01*
X116928571Y-48095238D01*
X116976190Y-48285714D01*
X116976190Y-48619047D01*
X116928571Y-48809523D01*
X116833333Y-48904761D01*
X116738095Y-48952380D01*
X116547619Y-48952380D01*
X116452380Y-48904761D01*
X116357142Y-48809523D01*
X116309523Y-48619047D01*
X116309523Y-48285714D01*
X116357142Y-48095238D01*
X116452380Y-48000000D01*
X116547619Y-47952380D01*
X117261904Y-47952380D02*
X117833333Y-47952380D01*
X117547619Y-48952380D02*
X117547619Y-47952380D01*
X127527130Y-50696835D02*
X127527130Y-50125406D01*
X128527130Y-50411121D02*
X127527130Y-50411121D01*
X127527130Y-49887311D02*
X128527130Y-49220644D01*
X127527130Y-49220644D02*
X128527130Y-49887311D01*
X127527130Y-48649216D02*
X127527130Y-48458740D01*
X127574750Y-48363501D01*
X127669988Y-48268263D01*
X127860464Y-48220644D01*
X128193797Y-48220644D01*
X128384273Y-48268263D01*
X128479511Y-48363501D01*
X128527130Y-48458740D01*
X128527130Y-48649216D01*
X128479511Y-48744454D01*
X128384273Y-48839692D01*
X128193797Y-48887311D01*
X127860464Y-48887311D01*
X127669988Y-48839692D01*
X127574750Y-48744454D01*
X127527130Y-48649216D01*
X88287976Y-117666666D02*
X88764166Y-117666666D01*
X88192738Y-117952380D02*
X88526071Y-116952380D01*
X88859404Y-117952380D01*
X89621309Y-117952380D02*
X89621309Y-116952380D01*
X89621309Y-117904761D02*
X89526071Y-117952380D01*
X89335595Y-117952380D01*
X89240357Y-117904761D01*
X89192738Y-117857142D01*
X89145119Y-117761904D01*
X89145119Y-117476190D01*
X89192738Y-117380952D01*
X89240357Y-117333333D01*
X89335595Y-117285714D01*
X89526071Y-117285714D01*
X89621309Y-117333333D01*
X90097500Y-117285714D02*
X90097500Y-118142857D01*
X90049880Y-118238095D01*
X89954642Y-118285714D01*
X89907023Y-118285714D01*
X90097500Y-116952380D02*
X90049880Y-117000000D01*
X90097500Y-117047619D01*
X90145119Y-117000000D01*
X90097500Y-116952380D01*
X90097500Y-117047619D01*
X91002261Y-117285714D02*
X91002261Y-117952380D01*
X90573690Y-117285714D02*
X90573690Y-117809523D01*
X90621309Y-117904761D01*
X90716547Y-117952380D01*
X90859404Y-117952380D01*
X90954642Y-117904761D01*
X91002261Y-117857142D01*
X91430833Y-117904761D02*
X91526071Y-117952380D01*
X91716547Y-117952380D01*
X91811785Y-117904761D01*
X91859404Y-117809523D01*
X91859404Y-117761904D01*
X91811785Y-117666666D01*
X91716547Y-117619047D01*
X91573690Y-117619047D01*
X91478452Y-117571428D01*
X91430833Y-117476190D01*
X91430833Y-117428571D01*
X91478452Y-117333333D01*
X91573690Y-117285714D01*
X91716547Y-117285714D01*
X91811785Y-117333333D01*
X92145119Y-117285714D02*
X92526071Y-117285714D01*
X92287976Y-116952380D02*
X92287976Y-117809523D01*
X92335595Y-117904761D01*
X92430833Y-117952380D01*
X92526071Y-117952380D01*
X93478452Y-117285714D02*
X93859404Y-117285714D01*
X93621309Y-117952380D02*
X93621309Y-117095238D01*
X93668928Y-117000000D01*
X93764166Y-116952380D01*
X93859404Y-116952380D01*
X94335595Y-117952380D02*
X94240357Y-117904761D01*
X94192738Y-117857142D01*
X94145119Y-117761904D01*
X94145119Y-117476190D01*
X94192738Y-117380952D01*
X94240357Y-117333333D01*
X94335595Y-117285714D01*
X94478452Y-117285714D01*
X94573690Y-117333333D01*
X94621309Y-117380952D01*
X94668928Y-117476190D01*
X94668928Y-117761904D01*
X94621309Y-117857142D01*
X94573690Y-117904761D01*
X94478452Y-117952380D01*
X94335595Y-117952380D01*
X95097500Y-117952380D02*
X95097500Y-117285714D01*
X95097500Y-117476190D02*
X95145119Y-117380952D01*
X95192738Y-117333333D01*
X95287976Y-117285714D01*
X95383214Y-117285714D01*
X96954642Y-116952380D02*
X96478452Y-116952380D01*
X96430833Y-117428571D01*
X96478452Y-117380952D01*
X96573690Y-117333333D01*
X96811785Y-117333333D01*
X96907023Y-117380952D01*
X96954642Y-117428571D01*
X97002261Y-117523809D01*
X97002261Y-117761904D01*
X96954642Y-117857142D01*
X96907023Y-117904761D01*
X96811785Y-117952380D01*
X96573690Y-117952380D01*
X96478452Y-117904761D01*
X96430833Y-117857142D01*
X97287976Y-116952380D02*
X97621309Y-117952380D01*
X97954642Y-116952380D01*
X99192738Y-117952380D02*
X99097500Y-117904761D01*
X99049880Y-117857142D01*
X99002261Y-117761904D01*
X99002261Y-117476190D01*
X99049880Y-117380952D01*
X99097500Y-117333333D01*
X99192738Y-117285714D01*
X99335595Y-117285714D01*
X99430833Y-117333333D01*
X99478452Y-117380952D01*
X99526071Y-117476190D01*
X99526071Y-117761904D01*
X99478452Y-117857142D01*
X99430833Y-117904761D01*
X99335595Y-117952380D01*
X99192738Y-117952380D01*
X100383214Y-117285714D02*
X100383214Y-117952380D01*
X99954642Y-117285714D02*
X99954642Y-117809523D01*
X100002261Y-117904761D01*
X100097500Y-117952380D01*
X100240357Y-117952380D01*
X100335595Y-117904761D01*
X100383214Y-117857142D01*
X100716547Y-117285714D02*
X101097500Y-117285714D01*
X100859404Y-116952380D02*
X100859404Y-117809523D01*
X100907023Y-117904761D01*
X101002261Y-117952380D01*
X101097500Y-117952380D01*
X101430833Y-117285714D02*
X101430833Y-118285714D01*
X101430833Y-117333333D02*
X101526071Y-117285714D01*
X101716547Y-117285714D01*
X101811785Y-117333333D01*
X101859404Y-117380952D01*
X101907023Y-117476190D01*
X101907023Y-117761904D01*
X101859404Y-117857142D01*
X101811785Y-117904761D01*
X101716547Y-117952380D01*
X101526071Y-117952380D01*
X101430833Y-117904761D01*
X102764166Y-117285714D02*
X102764166Y-117952380D01*
X102335595Y-117285714D02*
X102335595Y-117809523D01*
X102383214Y-117904761D01*
X102478452Y-117952380D01*
X102621309Y-117952380D01*
X102716547Y-117904761D01*
X102764166Y-117857142D01*
X103097500Y-117285714D02*
X103478452Y-117285714D01*
X103240357Y-116952380D02*
X103240357Y-117809523D01*
X103287976Y-117904761D01*
X103383214Y-117952380D01*
X103478452Y-117952380D01*
X113571428Y-90452380D02*
X113761904Y-90452380D01*
X113857142Y-90500000D01*
X113952380Y-90595238D01*
X114000000Y-90785714D01*
X114000000Y-91119047D01*
X113952380Y-91309523D01*
X113857142Y-91404761D01*
X113761904Y-91452380D01*
X113571428Y-91452380D01*
X113476190Y-91404761D01*
X113380952Y-91309523D01*
X113333333Y-91119047D01*
X113333333Y-90785714D01*
X113380952Y-90595238D01*
X113476190Y-90500000D01*
X113571428Y-90452380D01*
X114428571Y-91452380D02*
X114428571Y-90452380D01*
X114809523Y-90452380D01*
X114904761Y-90500000D01*
X114952380Y-90547619D01*
X115000000Y-90642857D01*
X115000000Y-90785714D01*
X114952380Y-90880952D01*
X114904761Y-90928571D01*
X114809523Y-90976190D01*
X114428571Y-90976190D01*
X115428571Y-90928571D02*
X115761904Y-90928571D01*
X115904761Y-91452380D02*
X115428571Y-91452380D01*
X115428571Y-90452380D01*
X115904761Y-90452380D01*
X116333333Y-91452380D02*
X116333333Y-90452380D01*
X116904761Y-91452380D01*
X116904761Y-90452380D01*
X117142857Y-91547619D02*
X117904761Y-91547619D01*
X118666666Y-91452380D02*
X118095238Y-91452380D01*
X118380952Y-91452380D02*
X118380952Y-90452380D01*
X118285714Y-90595238D01*
X118190476Y-90690476D01*
X118095238Y-90738095D01*
D16*
X92011808Y-84071428D02*
X92487999Y-85404761D01*
X92964189Y-84071428D01*
X94964189Y-84452380D02*
X94868951Y-84357142D01*
X94678475Y-84261904D01*
X94487999Y-84261904D01*
X94297523Y-84357142D01*
X94202285Y-84452380D01*
X94107047Y-84642857D01*
X94107047Y-84833333D01*
X94202285Y-85023809D01*
X94297523Y-85119047D01*
X94487999Y-85214285D01*
X94678475Y-85214285D01*
X94868951Y-85119047D01*
X94964189Y-85023809D01*
X94964189Y-84261904D02*
X94964189Y-85023809D01*
X95059428Y-85119047D01*
X95154666Y-85119047D01*
X95345142Y-85023809D01*
X95440380Y-84833333D01*
X95440380Y-84357142D01*
X95249904Y-84071428D01*
X94964189Y-83880952D01*
X94583237Y-83785714D01*
X94202285Y-83880952D01*
X93916570Y-84071428D01*
X93726094Y-84357142D01*
X93630856Y-84738095D01*
X93726094Y-85119047D01*
X93916570Y-85404761D01*
X94202285Y-85595238D01*
X94583237Y-85690476D01*
X94964189Y-85595238D01*
X95249904Y-85404761D01*
X96297523Y-84071428D02*
X96297523Y-85404761D01*
X96297523Y-84261904D02*
X96392761Y-84166666D01*
X96583237Y-84071428D01*
X96868951Y-84071428D01*
X97059428Y-84166666D01*
X97154666Y-84357142D01*
X97154666Y-85404761D01*
X98964189Y-85309523D02*
X98773713Y-85404761D01*
X98392761Y-85404761D01*
X98202285Y-85309523D01*
X98107047Y-85214285D01*
X98011808Y-85023809D01*
X98011808Y-84452380D01*
X98107047Y-84261904D01*
X98202285Y-84166666D01*
X98392761Y-84071428D01*
X98773713Y-84071428D01*
X98964189Y-84166666D01*
X100583237Y-85309523D02*
X100392761Y-85404761D01*
X100011808Y-85404761D01*
X99821332Y-85309523D01*
X99726094Y-85119047D01*
X99726094Y-84357142D01*
X99821332Y-84166666D01*
X100011808Y-84071428D01*
X100392761Y-84071428D01*
X100583237Y-84166666D01*
X100678475Y-84357142D01*
X100678475Y-84547619D01*
X99726094Y-84738095D01*
X101535618Y-85214285D02*
X101630856Y-85309523D01*
X101535618Y-85404761D01*
X101440380Y-85309523D01*
X101535618Y-85214285D01*
X101535618Y-85404761D01*
X102487999Y-85404761D02*
X102487999Y-84071428D01*
X102487999Y-84261904D02*
X102583237Y-84166666D01*
X102773713Y-84071428D01*
X103059428Y-84071428D01*
X103249904Y-84166666D01*
X103345142Y-84357142D01*
X103345142Y-85404761D01*
X103345142Y-84357142D02*
X103440380Y-84166666D01*
X103630856Y-84071428D01*
X103916570Y-84071428D01*
X104107047Y-84166666D01*
X104202285Y-84357142D01*
X104202285Y-85404761D01*
X105916570Y-85309523D02*
X105726094Y-85404761D01*
X105345142Y-85404761D01*
X105154666Y-85309523D01*
X105059428Y-85119047D01*
X105059428Y-84357142D01*
X105154666Y-84166666D01*
X105345142Y-84071428D01*
X105726094Y-84071428D01*
X105916570Y-84166666D01*
X106011808Y-84357142D01*
X106011808Y-84547619D01*
X105059428Y-84738095D01*
D12*
X141452380Y-130164404D02*
X140452380Y-130164404D01*
X141452380Y-129592976D01*
X140452380Y-129592976D01*
X140928571Y-128783452D02*
X140928571Y-129116785D01*
X141452380Y-129116785D02*
X140452380Y-129116785D01*
X140452380Y-128640595D01*
X141357142Y-127688214D02*
X141404761Y-127735833D01*
X141452380Y-127878690D01*
X141452380Y-127973928D01*
X141404761Y-128116785D01*
X141309523Y-128212023D01*
X141214285Y-128259642D01*
X141023809Y-128307261D01*
X140880952Y-128307261D01*
X140690476Y-128259642D01*
X140595238Y-128212023D01*
X140500000Y-128116785D01*
X140452380Y-127973928D01*
X140452380Y-127878690D01*
X140500000Y-127735833D01*
X140547619Y-127688214D01*
X141452380Y-126497738D02*
X140452380Y-126497738D01*
X140452380Y-126259642D01*
X140500000Y-126116785D01*
X140595238Y-126021547D01*
X140690476Y-125973928D01*
X140880952Y-125926309D01*
X141023809Y-125926309D01*
X141214285Y-125973928D01*
X141309523Y-126021547D01*
X141404761Y-126116785D01*
X141452380Y-126259642D01*
X141452380Y-126497738D01*
X141452380Y-125354880D02*
X141404761Y-125450119D01*
X141357142Y-125497738D01*
X141261904Y-125545357D01*
X140976190Y-125545357D01*
X140880952Y-125497738D01*
X140833333Y-125450119D01*
X140785714Y-125354880D01*
X140785714Y-125212023D01*
X140833333Y-125116785D01*
X140880952Y-125069166D01*
X140976190Y-125021547D01*
X141261904Y-125021547D01*
X141357142Y-125069166D01*
X141404761Y-125116785D01*
X141452380Y-125212023D01*
X141452380Y-125354880D01*
X141452380Y-124450119D02*
X141404761Y-124545357D01*
X141357142Y-124592976D01*
X141261904Y-124640595D01*
X140976190Y-124640595D01*
X140880952Y-124592976D01*
X140833333Y-124545357D01*
X140785714Y-124450119D01*
X140785714Y-124307261D01*
X140833333Y-124212023D01*
X140880952Y-124164404D01*
X140976190Y-124116785D01*
X141261904Y-124116785D01*
X141357142Y-124164404D01*
X141404761Y-124212023D01*
X141452380Y-124307261D01*
X141452380Y-124450119D01*
X141452380Y-123688214D02*
X140785714Y-123688214D01*
X140976190Y-123688214D02*
X140880952Y-123640595D01*
X140833333Y-123592976D01*
X140785714Y-123497738D01*
X140785714Y-123402500D01*
X141357142Y-121735833D02*
X141404761Y-121783452D01*
X141452380Y-121926309D01*
X141452380Y-122021547D01*
X141404761Y-122164404D01*
X141309523Y-122259642D01*
X141214285Y-122307261D01*
X141023809Y-122354880D01*
X140880952Y-122354880D01*
X140690476Y-122307261D01*
X140595238Y-122259642D01*
X140500000Y-122164404D01*
X140452380Y-122021547D01*
X140452380Y-121926309D01*
X140500000Y-121783452D01*
X140547619Y-121735833D01*
X141452380Y-121164404D02*
X141404761Y-121259642D01*
X141357142Y-121307261D01*
X141261904Y-121354880D01*
X140976190Y-121354880D01*
X140880952Y-121307261D01*
X140833333Y-121259642D01*
X140785714Y-121164404D01*
X140785714Y-121021547D01*
X140833333Y-120926309D01*
X140880952Y-120878690D01*
X140976190Y-120831071D01*
X141261904Y-120831071D01*
X141357142Y-120878690D01*
X141404761Y-120926309D01*
X141452380Y-121021547D01*
X141452380Y-121164404D01*
X140785714Y-120402500D02*
X141452380Y-120402500D01*
X140880952Y-120402500D02*
X140833333Y-120354880D01*
X140785714Y-120259642D01*
X140785714Y-120116785D01*
X140833333Y-120021547D01*
X140928571Y-119973928D01*
X141452380Y-119973928D01*
X140785714Y-119640595D02*
X140785714Y-119259642D01*
X140452380Y-119497738D02*
X141309523Y-119497738D01*
X141404761Y-119450119D01*
X141452380Y-119354880D01*
X141452380Y-119259642D01*
X141452380Y-118926309D02*
X140785714Y-118926309D01*
X140976190Y-118926309D02*
X140880952Y-118878690D01*
X140833333Y-118831071D01*
X140785714Y-118735833D01*
X140785714Y-118640595D01*
X141452380Y-118164404D02*
X141404761Y-118259642D01*
X141357142Y-118307261D01*
X141261904Y-118354880D01*
X140976190Y-118354880D01*
X140880952Y-118307261D01*
X140833333Y-118259642D01*
X140785714Y-118164404D01*
X140785714Y-118021547D01*
X140833333Y-117926309D01*
X140880952Y-117878690D01*
X140976190Y-117831071D01*
X141261904Y-117831071D01*
X141357142Y-117878690D01*
X141404761Y-117926309D01*
X141452380Y-118021547D01*
X141452380Y-118164404D01*
X141452380Y-117259642D02*
X141404761Y-117354880D01*
X141309523Y-117402500D01*
X140452380Y-117402500D01*
X141452380Y-116735833D02*
X141404761Y-116831071D01*
X141309523Y-116878690D01*
X140452380Y-116878690D01*
X141404761Y-115973928D02*
X141452380Y-116069166D01*
X141452380Y-116259642D01*
X141404761Y-116354880D01*
X141309523Y-116402500D01*
X140928571Y-116402500D01*
X140833333Y-116354880D01*
X140785714Y-116259642D01*
X140785714Y-116069166D01*
X140833333Y-115973928D01*
X140928571Y-115926309D01*
X141023809Y-115926309D01*
X141119047Y-116402500D01*
X141452380Y-115497738D02*
X140785714Y-115497738D01*
X140976190Y-115497738D02*
X140880952Y-115450119D01*
X140833333Y-115402500D01*
X140785714Y-115307261D01*
X140785714Y-115212023D01*
X141833333Y-113831071D02*
X141785714Y-113878690D01*
X141642857Y-113973928D01*
X141547619Y-114021547D01*
X141404761Y-114069166D01*
X141166666Y-114116785D01*
X140976190Y-114116785D01*
X140738095Y-114069166D01*
X140595238Y-114021547D01*
X140500000Y-113973928D01*
X140357142Y-113878690D01*
X140309523Y-113831071D01*
X140452380Y-113592976D02*
X141452380Y-113259642D01*
X140452380Y-112926309D01*
X140452380Y-112402500D02*
X140452380Y-112307261D01*
X140500000Y-112212023D01*
X140547619Y-112164404D01*
X140642857Y-112116785D01*
X140833333Y-112069166D01*
X141071428Y-112069166D01*
X141261904Y-112116785D01*
X141357142Y-112164404D01*
X141404761Y-112212023D01*
X141452380Y-112307261D01*
X141452380Y-112402500D01*
X141404761Y-112497738D01*
X141357142Y-112545357D01*
X141261904Y-112592976D01*
X141071428Y-112640595D01*
X140833333Y-112640595D01*
X140642857Y-112592976D01*
X140547619Y-112545357D01*
X140500000Y-112497738D01*
X140452380Y-112402500D01*
X141357142Y-111640595D02*
X141404761Y-111592976D01*
X141452380Y-111640595D01*
X141404761Y-111688214D01*
X141357142Y-111640595D01*
X141452380Y-111640595D01*
X141452380Y-110640595D02*
X141452380Y-111212023D01*
X141452380Y-110926309D02*
X140452380Y-110926309D01*
X140595238Y-111021547D01*
X140690476Y-111116785D01*
X140738095Y-111212023D01*
X140547619Y-109497738D02*
X140500000Y-109450119D01*
X140452380Y-109354880D01*
X140452380Y-109116785D01*
X140500000Y-109021547D01*
X140547619Y-108973928D01*
X140642857Y-108926309D01*
X140738095Y-108926309D01*
X140880952Y-108973928D01*
X141452380Y-109545357D01*
X141452380Y-108926309D01*
X140452380Y-108307261D02*
X140452380Y-108212023D01*
X140500000Y-108116785D01*
X140547619Y-108069166D01*
X140642857Y-108021547D01*
X140833333Y-107973928D01*
X141071428Y-107973928D01*
X141261904Y-108021547D01*
X141357142Y-108069166D01*
X141404761Y-108116785D01*
X141452380Y-108212023D01*
X141452380Y-108307261D01*
X141404761Y-108402500D01*
X141357142Y-108450119D01*
X141261904Y-108497738D01*
X141071428Y-108545357D01*
X140833333Y-108545357D01*
X140642857Y-108497738D01*
X140547619Y-108450119D01*
X140500000Y-108402500D01*
X140452380Y-108307261D01*
X140547619Y-107592976D02*
X140500000Y-107545357D01*
X140452380Y-107450119D01*
X140452380Y-107212023D01*
X140500000Y-107116785D01*
X140547619Y-107069166D01*
X140642857Y-107021547D01*
X140738095Y-107021547D01*
X140880952Y-107069166D01*
X141452380Y-107640595D01*
X141452380Y-107021547D01*
X140547619Y-106640595D02*
X140500000Y-106592976D01*
X140452380Y-106497738D01*
X140452380Y-106259642D01*
X140500000Y-106164404D01*
X140547619Y-106116785D01*
X140642857Y-106069166D01*
X140738095Y-106069166D01*
X140880952Y-106116785D01*
X141452380Y-106688214D01*
X141452380Y-106069166D01*
X141833333Y-105735833D02*
X141785714Y-105688214D01*
X141642857Y-105592976D01*
X141547619Y-105545357D01*
X141404761Y-105497738D01*
X141166666Y-105450119D01*
X140976190Y-105450119D01*
X140738095Y-105497738D01*
X140595238Y-105545357D01*
X140500000Y-105592976D01*
X140357142Y-105688214D01*
X140309523Y-105735833D01*
X57925788Y-64463354D02*
X57830550Y-64415734D01*
X57687693Y-64415734D01*
X57544835Y-64463354D01*
X57449597Y-64558592D01*
X57401978Y-64653830D01*
X57354359Y-64844306D01*
X57354359Y-64987163D01*
X57401978Y-65177639D01*
X57449597Y-65272877D01*
X57544835Y-65368115D01*
X57687693Y-65415734D01*
X57782931Y-65415734D01*
X57925788Y-65368115D01*
X57973407Y-65320496D01*
X57973407Y-64987163D01*
X57782931Y-64987163D01*
X58401978Y-65415734D02*
X58401978Y-64415734D01*
X58973407Y-65415734D01*
X58973407Y-64415734D01*
X59449597Y-65415734D02*
X59449597Y-64415734D01*
X59687693Y-64415734D01*
X59830550Y-64463354D01*
X59925788Y-64558592D01*
X59973407Y-64653830D01*
X60021026Y-64844306D01*
X60021026Y-64987163D01*
X59973407Y-65177639D01*
X59925788Y-65272877D01*
X59830550Y-65368115D01*
X59687693Y-65415734D01*
X59449597Y-65415734D01*
G04 #@! TO.C,J10*
X76960476Y-135292380D02*
X76960476Y-136006666D01*
X76912857Y-136149523D01*
X76817619Y-136244761D01*
X76674761Y-136292380D01*
X76579523Y-136292380D01*
X77960476Y-136292380D02*
X77389047Y-136292380D01*
X77674761Y-136292380D02*
X77674761Y-135292380D01*
X77579523Y-135435238D01*
X77484285Y-135530476D01*
X77389047Y-135578095D01*
X78579523Y-135292380D02*
X78674761Y-135292380D01*
X78770000Y-135340000D01*
X78817619Y-135387619D01*
X78865238Y-135482857D01*
X78912857Y-135673333D01*
X78912857Y-135911428D01*
X78865238Y-136101904D01*
X78817619Y-136197142D01*
X78770000Y-136244761D01*
X78674761Y-136292380D01*
X78579523Y-136292380D01*
X78484285Y-136244761D01*
X78436666Y-136197142D01*
X78389047Y-136101904D01*
X78341428Y-135911428D01*
X78341428Y-135673333D01*
X78389047Y-135482857D01*
X78436666Y-135387619D01*
X78484285Y-135340000D01*
X78579523Y-135292380D01*
G04 #@! TO.C,J9*
X63166666Y-135792380D02*
X63166666Y-136506666D01*
X63119047Y-136649523D01*
X63023809Y-136744761D01*
X62880952Y-136792380D01*
X62785714Y-136792380D01*
X63690476Y-136792380D02*
X63880952Y-136792380D01*
X63976190Y-136744761D01*
X64023809Y-136697142D01*
X64119047Y-136554285D01*
X64166666Y-136363809D01*
X64166666Y-135982857D01*
X64119047Y-135887619D01*
X64071428Y-135840000D01*
X63976190Y-135792380D01*
X63785714Y-135792380D01*
X63690476Y-135840000D01*
X63642857Y-135887619D01*
X63595238Y-135982857D01*
X63595238Y-136220952D01*
X63642857Y-136316190D01*
X63690476Y-136363809D01*
X63785714Y-136411428D01*
X63976190Y-136411428D01*
X64071428Y-136363809D01*
X64119047Y-136316190D01*
X64166666Y-136220952D01*
G04 #@! TO.C,J13*
X82805061Y-139435789D02*
X82805061Y-140150075D01*
X82757442Y-140292932D01*
X82662204Y-140388170D01*
X82519346Y-140435789D01*
X82424108Y-140435789D01*
X83805061Y-140435789D02*
X83233632Y-140435789D01*
X83519346Y-140435789D02*
X83519346Y-139435789D01*
X83424108Y-139578647D01*
X83328870Y-139673885D01*
X83233632Y-139721504D01*
X84138394Y-139435789D02*
X84757442Y-139435789D01*
X84424108Y-139816742D01*
X84566965Y-139816742D01*
X84662204Y-139864361D01*
X84709823Y-139911980D01*
X84757442Y-140007218D01*
X84757442Y-140245313D01*
X84709823Y-140340551D01*
X84662204Y-140388170D01*
X84566965Y-140435789D01*
X84281251Y-140435789D01*
X84186013Y-140388170D01*
X84138394Y-140340551D01*
D17*
G04 #@! TO.C,J11*
X124270000Y-51670000D02*
X137030000Y-51670000D01*
X137030000Y-54330000D02*
X137030000Y-51670000D01*
X124270000Y-54330000D02*
X137030000Y-54330000D01*
X124270000Y-54330000D02*
X124270000Y-51670000D01*
X123000000Y-54330000D02*
X121670000Y-54330000D01*
X121670000Y-54330000D02*
X121670000Y-53000000D01*
G04 #@! TO.C,R7*
X83262742Y-66731676D02*
X83737258Y-66731676D01*
X83262742Y-67776676D02*
X83737258Y-67776676D01*
G04 #@! TO.C,D7*
X98987911Y-129672016D02*
X98987911Y-131957016D01*
X100457911Y-129672016D02*
X98987911Y-129672016D01*
X100457911Y-131957016D02*
X100457911Y-129672016D01*
G04 #@! TO.C,R34*
X64237258Y-67045000D02*
X63762742Y-67045000D01*
X64237258Y-66000000D02*
X63762742Y-66000000D01*
G04 #@! TO.C,Q3*
X113000000Y-103560000D02*
X112350000Y-103560000D01*
X113000000Y-100440000D02*
X111325000Y-100440000D01*
X113000000Y-103560000D02*
X113650000Y-103560000D01*
X113000000Y-100440000D02*
X113650000Y-100440000D01*
G04 #@! TO.C,C2*
X100307332Y-100130037D02*
X96397332Y-100130037D01*
X96397332Y-102000037D02*
X100307332Y-102000037D01*
X96397332Y-100130037D02*
X96397332Y-102000037D01*
G04 #@! TO.C,J10*
X77290000Y-143160000D02*
X78250000Y-143160000D01*
X79830000Y-142600000D02*
X80600000Y-142600000D01*
X74940000Y-142600000D02*
X75710000Y-142600000D01*
X77290000Y-142600000D02*
X78250000Y-142600000D01*
X74940000Y-137300000D02*
X80600000Y-137300000D01*
X80600000Y-136840000D02*
X80600000Y-143160000D01*
X79830000Y-143160000D02*
X80600000Y-143160000D01*
X74700000Y-142660000D02*
X74700000Y-143400000D01*
X74700000Y-143400000D02*
X75200000Y-143400000D01*
X74940000Y-143160000D02*
X75710000Y-143160000D01*
X74940000Y-136840000D02*
X80600000Y-136840000D01*
X74940000Y-136840000D02*
X74940000Y-143160000D01*
G04 #@! TO.C,R1*
X67522500Y-81237258D02*
X67522500Y-80762742D01*
X66477500Y-81237258D02*
X66477500Y-80762742D01*
G04 #@! TO.C,R10*
X89051891Y-128250807D02*
X89051891Y-127776291D01*
X90096891Y-128250807D02*
X90096891Y-127776291D01*
G04 #@! TO.C,R14*
X80765943Y-71290652D02*
X80291427Y-71290652D01*
X80765943Y-70245652D02*
X80291427Y-70245652D01*
G04 #@! TO.C,R2*
X77210000Y-90772936D02*
X77210000Y-95127064D01*
X73790000Y-90772936D02*
X73790000Y-95127064D01*
G04 #@! TO.C,D5*
X90315631Y-129650233D02*
X88845631Y-129650233D01*
X90315631Y-131935233D02*
X90315631Y-129650233D01*
X88845631Y-129650233D02*
X88845631Y-131935233D01*
G04 #@! TO.C,R13*
X80747608Y-69502500D02*
X80273092Y-69502500D01*
X80747608Y-68457500D02*
X80273092Y-68457500D01*
G04 #@! TO.C,R8*
X87522500Y-128237258D02*
X87522500Y-127762742D01*
X86477500Y-128237258D02*
X86477500Y-127762742D01*
G04 #@! TO.C,Q5*
X64000000Y-74340000D02*
X65675000Y-74340000D01*
X64000000Y-71220000D02*
X64650000Y-71220000D01*
X64000000Y-74340000D02*
X63350000Y-74340000D01*
X64000000Y-71220000D02*
X63350000Y-71220000D01*
G04 #@! TO.C,D9*
X93906877Y-129658467D02*
X93906877Y-131943467D01*
X95376877Y-131943467D02*
X95376877Y-129658467D01*
X95376877Y-129658467D02*
X93906877Y-129658467D01*
G04 #@! TO.C,D2*
X78850000Y-100900000D02*
X82150000Y-100900000D01*
X82150000Y-100900000D02*
X82150000Y-95500000D01*
X78850000Y-100900000D02*
X78850000Y-95500000D01*
G04 #@! TO.C,Q9*
X64000000Y-65082500D02*
X65675000Y-65082500D01*
X64000000Y-61962500D02*
X64650000Y-61962500D01*
X64000000Y-65082500D02*
X63350000Y-65082500D01*
X64000000Y-61962500D02*
X63350000Y-61962500D01*
G04 #@! TO.C,R21*
X128825242Y-76372512D02*
X129299758Y-76372512D01*
X128825242Y-75327512D02*
X129299758Y-75327512D01*
G04 #@! TO.C,R28*
X66477500Y-78017258D02*
X66477500Y-77542742D01*
X67522500Y-78017258D02*
X67522500Y-77542742D01*
G04 #@! TO.C,R20*
X126585000Y-72612754D02*
X126585000Y-73087270D01*
X125540000Y-72612754D02*
X125540000Y-73087270D01*
G04 #@! TO.C,C3*
X81030000Y-62056252D02*
X81030000Y-60633748D01*
X82850000Y-62056252D02*
X82850000Y-60633748D01*
G04 #@! TO.C,Q11*
X129000000Y-62262256D02*
X127325000Y-62262256D01*
X129000000Y-65382256D02*
X128350000Y-65382256D01*
X129000000Y-62262256D02*
X129650000Y-62262256D01*
X129000000Y-65382256D02*
X129650000Y-65382256D01*
G04 #@! TO.C,R4*
X86142500Y-62057258D02*
X86142500Y-61582742D01*
X85097500Y-62057258D02*
X85097500Y-61582742D01*
G04 #@! TO.C,J8*
X49600000Y-83200000D02*
X49600000Y-83700000D01*
X50340000Y-83200000D02*
X49600000Y-83200000D01*
X49840000Y-88330000D02*
X49840000Y-89100000D01*
X56160000Y-89100000D02*
X49840000Y-89100000D01*
X56160000Y-83440000D02*
X49840000Y-83440000D01*
X49840000Y-83440000D02*
X49840000Y-84210000D01*
X50400000Y-88330000D02*
X50400000Y-89100000D01*
X50400000Y-85790000D02*
X50400000Y-86750000D01*
X55700000Y-83440000D02*
X55700000Y-89100000D01*
X49840000Y-85790000D02*
X49840000Y-86750000D01*
X50400000Y-83440000D02*
X50400000Y-84210000D01*
X56160000Y-83440000D02*
X56160000Y-89100000D01*
G04 #@! TO.C,J5*
X50340000Y-69385000D02*
X49600000Y-69385000D01*
X56160000Y-80365000D02*
X49840000Y-80365000D01*
X56160000Y-69625000D02*
X49840000Y-69625000D01*
X49840000Y-69625000D02*
X49840000Y-80365000D01*
X55700000Y-69625000D02*
X55700000Y-80365000D01*
X49600000Y-69385000D02*
X49600000Y-69885000D01*
X50400000Y-69625000D02*
X50400000Y-80365000D01*
X56160000Y-69625000D02*
X56160000Y-80365000D01*
G04 #@! TO.C,SW4*
X126790000Y-94800000D02*
X126790000Y-97200000D01*
X126790000Y-92790000D02*
X126790000Y-93200000D01*
X133210000Y-99210000D02*
X133210000Y-98930000D01*
X133210000Y-93200000D02*
X133210000Y-92790000D01*
X126790000Y-98800000D02*
X126790000Y-99210000D01*
X126790000Y-99210000D02*
X133210000Y-99210000D01*
X133210000Y-92790000D02*
X126790000Y-92790000D01*
X133210000Y-97200000D02*
X133210000Y-94800000D01*
G04 #@! TO.C,U2*
X63050000Y-92920000D02*
X63050000Y-94420000D01*
X69950000Y-94420000D02*
X69680000Y-94420000D01*
X69950000Y-92920000D02*
X69950000Y-94420000D01*
X69680000Y-94420000D02*
X69680000Y-95520000D01*
X63320000Y-94420000D02*
X63320000Y-97250000D01*
X63050000Y-94420000D02*
X63320000Y-94420000D01*
G04 #@! TO.C,Q1*
X129062500Y-74410012D02*
X129712500Y-74410012D01*
X129062500Y-71290012D02*
X127387500Y-71290012D01*
X129062500Y-74410012D02*
X128412500Y-74410012D01*
X129062500Y-71290012D02*
X129712500Y-71290012D01*
G04 #@! TO.C,R12*
X100245411Y-128277906D02*
X100245411Y-127803390D01*
X99200411Y-128277906D02*
X99200411Y-127803390D01*
G04 #@! TO.C,R16*
X91585634Y-128291456D02*
X91585634Y-127816940D01*
X92630634Y-128291456D02*
X92630634Y-127816940D01*
G04 #@! TO.C,J1*
X114250000Y-143160000D02*
X115210000Y-143160000D01*
X111660000Y-142660000D02*
X111660000Y-143400000D01*
X111900000Y-137300000D02*
X120100000Y-137300000D01*
X116790000Y-143160000D02*
X117750000Y-143160000D01*
X116790000Y-142600000D02*
X117750000Y-142600000D01*
X111900000Y-136840000D02*
X120100000Y-136840000D01*
X111660000Y-143400000D02*
X112160000Y-143400000D01*
X120100000Y-136840000D02*
X120100000Y-143160000D01*
X111900000Y-143160000D02*
X112670000Y-143160000D01*
X119330000Y-143160000D02*
X120100000Y-143160000D01*
X111900000Y-136840000D02*
X111900000Y-143160000D01*
X111900000Y-142600000D02*
X112670000Y-142600000D01*
X119330000Y-142600000D02*
X120100000Y-142600000D01*
X114250000Y-142600000D02*
X115210000Y-142600000D01*
G04 #@! TO.C,D4*
X87745631Y-129650233D02*
X86275631Y-129650233D01*
X87745631Y-131935233D02*
X87745631Y-129650233D01*
X86275631Y-129650233D02*
X86275631Y-131935233D01*
G04 #@! TO.C,R38*
X128762742Y-67344756D02*
X129237258Y-67344756D01*
X128762742Y-66299756D02*
X129237258Y-66299756D01*
G04 #@! TO.C,R23*
X128592766Y-87477500D02*
X129067282Y-87477500D01*
X128592766Y-88522500D02*
X129067282Y-88522500D01*
G04 #@! TO.C,F2*
X72590000Y-129360000D02*
X75750000Y-129360000D01*
X79250000Y-106640000D02*
X82410000Y-106640000D01*
X82410000Y-106640000D02*
X82410000Y-129360000D01*
X72590000Y-106640000D02*
X75750000Y-106640000D01*
X72590000Y-106640000D02*
X72590000Y-129360000D01*
X79250000Y-129360000D02*
X82410000Y-129360000D01*
G04 #@! TO.C,R24*
X115477500Y-101762742D02*
X115477500Y-102237258D01*
X116522500Y-101762742D02*
X116522500Y-102237258D01*
G04 #@! TO.C,R40*
X129132766Y-56522500D02*
X129607282Y-56522500D01*
X129132766Y-55477500D02*
X129607282Y-55477500D01*
G04 #@! TO.C,Q10*
X133000000Y-100440000D02*
X133650000Y-100440000D01*
X133000000Y-103560000D02*
X133650000Y-103560000D01*
X133000000Y-100440000D02*
X131325000Y-100440000D01*
X133000000Y-103560000D02*
X132350000Y-103560000D01*
G04 #@! TO.C,F4*
X134910000Y-106640000D02*
X131750000Y-106640000D01*
X128250000Y-129360000D02*
X125090000Y-129360000D01*
X134910000Y-129360000D02*
X134910000Y-106640000D01*
X128250000Y-106640000D02*
X125090000Y-106640000D01*
X125090000Y-129360000D02*
X125090000Y-106640000D01*
X134910000Y-129360000D02*
X131750000Y-129360000D01*
G04 #@! TO.C,R31*
X67522500Y-58759758D02*
X67522500Y-58285242D01*
X66477500Y-58759758D02*
X66477500Y-58285242D01*
G04 #@! TO.C,Q6*
X64000000Y-76220000D02*
X64650000Y-76220000D01*
X64000000Y-79340000D02*
X65675000Y-79340000D01*
X64000000Y-76220000D02*
X63350000Y-76220000D01*
X64000000Y-79340000D02*
X63350000Y-79340000D01*
G04 #@! TO.C,D3*
X71100000Y-98350000D02*
X76500000Y-98350000D01*
X71100000Y-101650000D02*
X76500000Y-101650000D01*
X71100000Y-98350000D02*
X71100000Y-101650000D01*
G04 #@! TO.C,D6*
X97937718Y-131943467D02*
X97937718Y-129658467D01*
X97937718Y-129658467D02*
X96467718Y-129658467D01*
X96467718Y-129658467D02*
X96467718Y-131943467D01*
G04 #@! TO.C,Q4*
X119000000Y-103560000D02*
X118350000Y-103560000D01*
X119000000Y-103560000D02*
X119650000Y-103560000D01*
X119000000Y-100440000D02*
X119650000Y-100440000D01*
X119000000Y-100440000D02*
X117325000Y-100440000D01*
G04 #@! TO.C,R6*
X80747608Y-64977500D02*
X80273092Y-64977500D01*
X80747608Y-66022500D02*
X80273092Y-66022500D01*
G04 #@! TO.C,D1*
X69900000Y-101650000D02*
X69900000Y-98350000D01*
X69900000Y-98350000D02*
X64500000Y-98350000D01*
X69900000Y-101650000D02*
X64500000Y-101650000D01*
G04 #@! TO.C,R30*
X123477500Y-102237258D02*
X123477500Y-101762742D01*
X124522500Y-102237258D02*
X124522500Y-101762742D01*
G04 #@! TO.C,R27*
X64237258Y-69257500D02*
X63762742Y-69257500D01*
X64237258Y-70302500D02*
X63762742Y-70302500D01*
G04 #@! TO.C,J7*
X136947476Y-66987740D02*
X143267476Y-66987740D01*
X136947476Y-66987740D02*
X136947476Y-56247740D01*
X137407476Y-66987740D02*
X137407476Y-56247740D01*
X142707476Y-66987740D02*
X142707476Y-56247740D01*
X142767476Y-67227740D02*
X143507476Y-67227740D01*
X136947476Y-56247740D02*
X143267476Y-56247740D01*
X143507476Y-67227740D02*
X143507476Y-66727740D01*
X143267476Y-66987740D02*
X143267476Y-56247740D01*
G04 #@! TO.C,R37*
X125477500Y-63584998D02*
X125477500Y-64059514D01*
X126522500Y-63584998D02*
X126522500Y-64059514D01*
G04 #@! TO.C,J2*
X125660000Y-142660000D02*
X125660000Y-143400000D01*
X125900000Y-137300000D02*
X134100000Y-137300000D01*
X133330000Y-143160000D02*
X134100000Y-143160000D01*
X134100000Y-136840000D02*
X134100000Y-143160000D01*
X128250000Y-142600000D02*
X129210000Y-142600000D01*
X125900000Y-143160000D02*
X126670000Y-143160000D01*
X125900000Y-136840000D02*
X134100000Y-136840000D01*
X133330000Y-142600000D02*
X134100000Y-142600000D01*
X125660000Y-143400000D02*
X126160000Y-143400000D01*
X125900000Y-136840000D02*
X125900000Y-143160000D01*
X130790000Y-142600000D02*
X131750000Y-142600000D01*
X128250000Y-143160000D02*
X129210000Y-143160000D01*
X125900000Y-142600000D02*
X126670000Y-142600000D01*
X130790000Y-143160000D02*
X131750000Y-143160000D01*
G04 #@! TO.C,U1*
X85078000Y-108618000D02*
X106922000Y-108618000D01*
X106922000Y-108618000D02*
X106922000Y-125382000D01*
X106922000Y-125382000D02*
X85078000Y-125382000D01*
X85078000Y-125382000D02*
X85078000Y-108618000D01*
G04 #@! TO.C,R36*
X124522500Y-95762742D02*
X124522500Y-96237258D01*
X123477500Y-95762742D02*
X123477500Y-96237258D01*
G04 #@! TO.C,R18*
X95150827Y-128264357D02*
X95150827Y-127789841D01*
X94105827Y-128264357D02*
X94105827Y-127789841D01*
G04 #@! TO.C,Q7*
X127000000Y-100440000D02*
X127650000Y-100440000D01*
X127000000Y-100440000D02*
X125325000Y-100440000D01*
X127000000Y-103560000D02*
X126350000Y-103560000D01*
X127000000Y-103560000D02*
X127650000Y-103560000D01*
G04 #@! TO.C,C5*
X78140580Y-59490000D02*
X77859420Y-59490000D01*
X78140580Y-60510000D02*
X77859420Y-60510000D01*
G04 #@! TO.C,R3*
X70977500Y-95187258D02*
X70977500Y-94712742D01*
X72022500Y-95187258D02*
X72022500Y-94712742D01*
G04 #@! TO.C,R35*
X129477500Y-101762742D02*
X129477500Y-102237258D01*
X130522500Y-101762742D02*
X130522500Y-102237258D01*
G04 #@! TO.C,D8*
X91386683Y-129686750D02*
X91386683Y-131971750D01*
X92856683Y-129686750D02*
X91386683Y-129686750D01*
X92856683Y-131971750D02*
X92856683Y-129686750D01*
G04 #@! TO.C,R39*
X125477500Y-58812742D02*
X125477500Y-59287258D01*
X126522500Y-58812742D02*
X126522500Y-59287258D01*
G04 #@! TO.C,U3*
X93410000Y-101090000D02*
X92150000Y-101090000D01*
X86590000Y-101090000D02*
X87850000Y-101090000D01*
X93410000Y-104850000D02*
X93410000Y-101090000D01*
X86590000Y-107100000D02*
X86590000Y-101090000D01*
G04 #@! TO.C,SW2*
X113200000Y-50790000D02*
X112790000Y-50790000D01*
X114800000Y-57210000D02*
X117200000Y-57210000D01*
X118800000Y-57210000D02*
X119210000Y-57210000D01*
X119210000Y-57210000D02*
X119210000Y-50790000D01*
X112790000Y-50790000D02*
X112790000Y-57210000D01*
X117200000Y-50790000D02*
X114800000Y-50790000D01*
X112790000Y-57210000D02*
X113200000Y-57210000D01*
X119210000Y-50790000D02*
X118930000Y-50790000D01*
G04 #@! TO.C,Q2*
X128830024Y-83440000D02*
X127155024Y-83440000D01*
X128830024Y-83440000D02*
X129480024Y-83440000D01*
X128830024Y-86560000D02*
X129480024Y-86560000D01*
X128830024Y-86560000D02*
X128180024Y-86560000D01*
G04 #@! TO.C,J4*
X143160000Y-82130000D02*
X143160000Y-81360000D01*
X136840000Y-89560000D02*
X136840000Y-81360000D01*
X142600000Y-84670000D02*
X142600000Y-83710000D01*
X142600000Y-87210000D02*
X142600000Y-86250000D01*
X143160000Y-89560000D02*
X143160000Y-88790000D01*
X143160000Y-84670000D02*
X143160000Y-83710000D01*
X136840000Y-89560000D02*
X143160000Y-89560000D01*
X136840000Y-81360000D02*
X143160000Y-81360000D01*
X142660000Y-89800000D02*
X143400000Y-89800000D01*
X137300000Y-89560000D02*
X137300000Y-81360000D01*
X143160000Y-87210000D02*
X143160000Y-86250000D01*
X142600000Y-89560000D02*
X142600000Y-88790000D01*
X142600000Y-82130000D02*
X142600000Y-81360000D01*
X143400000Y-89800000D02*
X143400000Y-89300000D01*
G04 #@! TO.C,Q8*
X64000000Y-56962500D02*
X64650000Y-56962500D01*
X64000000Y-56962500D02*
X63350000Y-56962500D01*
X64000000Y-60082500D02*
X63350000Y-60082500D01*
X64000000Y-60082500D02*
X65675000Y-60082500D01*
G04 #@! TO.C,Q12*
X128937500Y-60560000D02*
X129587500Y-60560000D01*
X128937500Y-57440000D02*
X127262500Y-57440000D01*
X128937500Y-57440000D02*
X129587500Y-57440000D01*
X128937500Y-60560000D02*
X128287500Y-60560000D01*
G04 #@! TO.C,R33*
X67522500Y-63759758D02*
X67522500Y-63285242D01*
X66477500Y-63759758D02*
X66477500Y-63285242D01*
G04 #@! TO.C,F1*
X58090000Y-106640000D02*
X61250000Y-106640000D01*
X64750000Y-106640000D02*
X67910000Y-106640000D01*
X58090000Y-106640000D02*
X58090000Y-129360000D01*
X58090000Y-129360000D02*
X61250000Y-129360000D01*
X64750000Y-129360000D02*
X67910000Y-129360000D01*
X67910000Y-106640000D02*
X67910000Y-129360000D01*
G04 #@! TO.C,J6*
X50400000Y-55625000D02*
X50400000Y-66365000D01*
X50340000Y-55385000D02*
X49600000Y-55385000D01*
X55700000Y-55625000D02*
X55700000Y-66365000D01*
X56160000Y-66365000D02*
X49840000Y-66365000D01*
X49600000Y-55385000D02*
X49600000Y-55885000D01*
X56160000Y-55625000D02*
X56160000Y-66365000D01*
X56160000Y-55625000D02*
X49840000Y-55625000D01*
X49840000Y-55625000D02*
X49840000Y-66365000D01*
G04 #@! TO.C,R9*
X83273092Y-64977500D02*
X83747608Y-64977500D01*
X83273092Y-66022500D02*
X83747608Y-66022500D01*
G04 #@! TO.C,SW3*
X119210000Y-93200000D02*
X119210000Y-92790000D01*
X112790000Y-98800000D02*
X112790000Y-99210000D01*
X119210000Y-92790000D02*
X112790000Y-92790000D01*
X112790000Y-92790000D02*
X112790000Y-93200000D01*
X112790000Y-99210000D02*
X119210000Y-99210000D01*
X119210000Y-99210000D02*
X119210000Y-98930000D01*
X119210000Y-97200000D02*
X119210000Y-94800000D01*
X112790000Y-94800000D02*
X112790000Y-97200000D01*
G04 #@! TO.C,R29*
X63648731Y-80204316D02*
X64123247Y-80204316D01*
X63648731Y-81249316D02*
X64123247Y-81249316D01*
G04 #@! TO.C,R5*
X80737258Y-66731676D02*
X80262742Y-66731676D01*
X80737258Y-67776676D02*
X80262742Y-67776676D01*
G04 #@! TO.C,J9*
X66330000Y-137340000D02*
X66330000Y-143660000D01*
X65560000Y-143100000D02*
X66330000Y-143100000D01*
X60670000Y-137340000D02*
X66330000Y-137340000D01*
X63020000Y-143100000D02*
X63980000Y-143100000D01*
X65560000Y-143660000D02*
X66330000Y-143660000D01*
X60670000Y-143100000D02*
X61440000Y-143100000D01*
X60430000Y-143900000D02*
X60930000Y-143900000D01*
X60430000Y-143160000D02*
X60430000Y-143900000D01*
X60670000Y-137340000D02*
X60670000Y-143660000D01*
X63020000Y-143660000D02*
X63980000Y-143660000D01*
X60670000Y-143660000D02*
X61440000Y-143660000D01*
X60670000Y-137800000D02*
X66330000Y-137800000D01*
G04 #@! TO.C,R32*
X64237258Y-56045000D02*
X63762742Y-56045000D01*
X64237258Y-55000000D02*
X63762742Y-55000000D01*
G04 #@! TO.C,U4*
X87660000Y-58965000D02*
X87280000Y-58965000D01*
X105900000Y-52545000D02*
X105900000Y-58965000D01*
X105900000Y-78290000D02*
X104900000Y-78290000D01*
X87660000Y-77510000D02*
X87660000Y-78290000D01*
X87660000Y-52545000D02*
X105900000Y-52545000D01*
X87660000Y-52545000D02*
X87660000Y-58965000D01*
X105900000Y-77510000D02*
X105900000Y-78290000D01*
X87660000Y-78290000D02*
X88660000Y-78290000D01*
G04 #@! TO.C,R25*
X110522500Y-95762742D02*
X110522500Y-96237258D01*
X109477500Y-95762742D02*
X109477500Y-96237258D01*
G04 #@! TO.C,R17*
X83765943Y-71290652D02*
X83291427Y-71290652D01*
X83765943Y-70245652D02*
X83291427Y-70245652D01*
G04 #@! TO.C,RV1*
X60030000Y-91125000D02*
X54960000Y-91125000D01*
X60030000Y-91125000D02*
X60030000Y-100895000D01*
X54960000Y-91125000D02*
X54960000Y-100895000D01*
X60030000Y-100895000D02*
X54960000Y-100895000D01*
G04 #@! TO.C,R22*
X125307524Y-84762742D02*
X125307524Y-85237258D01*
X126352524Y-84762742D02*
X126352524Y-85237258D01*
G04 #@! TO.C,R19*
X110522500Y-102237258D02*
X110522500Y-101762742D01*
X109477500Y-102237258D02*
X109477500Y-101762742D01*
G04 #@! TO.C,J3*
X143160000Y-70670000D02*
X143160000Y-69900000D01*
X142600000Y-78100000D02*
X142600000Y-77330000D01*
X143400000Y-78340000D02*
X143400000Y-77840000D01*
X142600000Y-73210000D02*
X142600000Y-72250000D01*
X142600000Y-70670000D02*
X142600000Y-69900000D01*
X142600000Y-75750000D02*
X142600000Y-74790000D01*
X143160000Y-75750000D02*
X143160000Y-74790000D01*
X137300000Y-78100000D02*
X137300000Y-69900000D01*
X136840000Y-78100000D02*
X136840000Y-69900000D01*
X136840000Y-69900000D02*
X143160000Y-69900000D01*
X142660000Y-78340000D02*
X143400000Y-78340000D01*
X143160000Y-73210000D02*
X143160000Y-72250000D01*
X143160000Y-78100000D02*
X143160000Y-77330000D01*
X136840000Y-78100000D02*
X143160000Y-78100000D01*
G04 #@! TO.C,R15*
X83273092Y-69522500D02*
X83747608Y-69522500D01*
X83273092Y-68477500D02*
X83747608Y-68477500D01*
G04 #@! TO.C,R26*
X66477500Y-73017258D02*
X66477500Y-72542742D01*
X67522500Y-73017258D02*
X67522500Y-72542742D01*
G04 #@! TO.C,SW1*
X81045000Y-57390000D02*
X81045000Y-50970000D01*
X76635000Y-57390000D02*
X79035000Y-57390000D01*
X75035000Y-50970000D02*
X74625000Y-50970000D01*
X74625000Y-57390000D02*
X75035000Y-57390000D01*
X81045000Y-50970000D02*
X80765000Y-50970000D01*
X80635000Y-57390000D02*
X81045000Y-57390000D01*
X74625000Y-50970000D02*
X74625000Y-57390000D01*
X79035000Y-50970000D02*
X76635000Y-50970000D01*
G04 #@! TO.C,J13*
X87031669Y-141467882D02*
X85701669Y-141467882D01*
X88301669Y-138807882D02*
X106141669Y-138807882D01*
X85701669Y-141467882D02*
X85701669Y-140137882D01*
X106141669Y-141467882D02*
X106141669Y-138807882D01*
X88301669Y-141467882D02*
X106141669Y-141467882D01*
X88301669Y-141467882D02*
X88301669Y-138807882D01*
G04 #@! TO.C,R11*
X97725218Y-128264357D02*
X97725218Y-127789841D01*
X96680218Y-128264357D02*
X96680218Y-127789841D01*
G04 #@! TO.C,F3*
X114250000Y-129360000D02*
X111090000Y-129360000D01*
X120910000Y-129360000D02*
X117750000Y-129360000D01*
X114250000Y-106640000D02*
X111090000Y-106640000D01*
X111090000Y-129360000D02*
X111090000Y-106640000D01*
X120910000Y-129360000D02*
X120910000Y-106640000D01*
X120910000Y-106640000D02*
X117750000Y-106640000D01*
G04 #@! TO.C,C4*
X84450000Y-60760580D02*
X84450000Y-60479420D01*
X83430000Y-60760580D02*
X83430000Y-60479420D01*
G04 #@! TO.C,C1*
X96340000Y-105065000D02*
X96340000Y-106935000D01*
X96340000Y-106935000D02*
X100250000Y-106935000D01*
X100250000Y-105065000D02*
X96340000Y-105065000D01*
G04 #@! TO.C,J12*
X123220000Y-78620000D02*
X123220000Y-77620000D01*
X114020000Y-66590000D02*
X120520000Y-66590000D01*
X112710000Y-65290000D02*
X121830000Y-65290000D01*
X120520000Y-82030000D02*
X114020000Y-82030000D01*
X120520000Y-66590000D02*
X120520000Y-72260000D01*
X121830000Y-76360000D02*
X120520000Y-76360000D01*
X121830000Y-83330000D02*
X112710000Y-83330000D01*
X121830000Y-65290000D02*
X121830000Y-83330000D01*
X122220000Y-78120000D02*
X123220000Y-78620000D01*
X120520000Y-72260000D02*
X120520000Y-72260000D01*
X114020000Y-82030000D02*
X114020000Y-66590000D01*
X120520000Y-72260000D02*
X121830000Y-72260000D01*
X120520000Y-76360000D02*
X120520000Y-82030000D01*
X123220000Y-77620000D02*
X122220000Y-78120000D01*
X112710000Y-83330000D02*
X112710000Y-65290000D01*
G04 #@! TD*
M02*
