G04 #@! TF.GenerationSoftware,KiCad,Pcbnew,6.0.6-3a73a75311~116~ubuntu22.04.1*
G04 #@! TF.CreationDate,2022-06-27T17:47:04+01:00*
G04 #@! TF.ProjectId,rLab_Door,724c6162-5f44-46f6-9f72-2e6b69636164,rev?*
G04 #@! TF.SameCoordinates,Original*
G04 #@! TF.FileFunction,Copper,L1,Top*
G04 #@! TF.FilePolarity,Positive*
%FSLAX46Y46*%
G04 Gerber Fmt 4.6, Leading zero omitted, Abs format (unit mm)*
G04 Created by KiCad (PCBNEW 6.0.6-3a73a75311~116~ubuntu22.04.1) date 2022-06-27 17:47:04*
%MOMM*%
%LPD*%
G01*
G04 APERTURE LIST*
G04 Aperture macros list*
%AMRoundRect*
0 Rectangle with rounded corners*
0 $1 Rounding radius*
0 $2 $3 $4 $5 $6 $7 $8 $9 X,Y pos of 4 corners*
0 Add a 4 corners polygon primitive as box body*
4,1,4,$2,$3,$4,$5,$6,$7,$8,$9,$2,$3,0*
0 Add four circle primitives for the rounded corners*
1,1,$1+$1,$2,$3*
1,1,$1+$1,$4,$5*
1,1,$1+$1,$6,$7*
1,1,$1+$1,$8,$9*
0 Add four rect primitives between the rounded corners*
20,1,$1+$1,$2,$3,$4,$5,0*
20,1,$1+$1,$4,$5,$6,$7,0*
20,1,$1+$1,$6,$7,$8,$9,0*
20,1,$1+$1,$8,$9,$2,$3,0*%
G04 Aperture macros list end*
G04 #@! TA.AperFunction,ComponentPad*
%ADD10R,1.700000X1.700000*%
G04 #@! TD*
G04 #@! TA.AperFunction,ComponentPad*
%ADD11O,1.700000X1.700000*%
G04 #@! TD*
G04 #@! TA.AperFunction,SMDPad,CuDef*
%ADD12RoundRect,0.200000X-0.200000X-0.275000X0.200000X-0.275000X0.200000X0.275000X-0.200000X0.275000X0*%
G04 #@! TD*
G04 #@! TA.AperFunction,SMDPad,CuDef*
%ADD13RoundRect,0.218750X-0.256250X0.218750X-0.256250X-0.218750X0.256250X-0.218750X0.256250X0.218750X0*%
G04 #@! TD*
G04 #@! TA.AperFunction,SMDPad,CuDef*
%ADD14RoundRect,0.200000X0.200000X0.275000X-0.200000X0.275000X-0.200000X-0.275000X0.200000X-0.275000X0*%
G04 #@! TD*
G04 #@! TA.AperFunction,SMDPad,CuDef*
%ADD15RoundRect,0.150000X-0.587500X-0.150000X0.587500X-0.150000X0.587500X0.150000X-0.587500X0.150000X0*%
G04 #@! TD*
G04 #@! TA.AperFunction,ComponentPad*
%ADD16C,0.800000*%
G04 #@! TD*
G04 #@! TA.AperFunction,ComponentPad*
%ADD17C,6.400000*%
G04 #@! TD*
G04 #@! TA.AperFunction,SMDPad,CuDef*
%ADD18RoundRect,0.250000X-0.450000X-0.425000X0.450000X-0.425000X0.450000X0.425000X-0.450000X0.425000X0*%
G04 #@! TD*
G04 #@! TA.AperFunction,SMDPad,CuDef*
%ADD19RoundRect,0.200000X0.275000X-0.200000X0.275000X0.200000X-0.275000X0.200000X-0.275000X-0.200000X0*%
G04 #@! TD*
G04 #@! TA.AperFunction,SMDPad,CuDef*
%ADD20RoundRect,0.249999X-1.425001X0.450001X-1.425001X-0.450001X1.425001X-0.450001X1.425001X0.450001X0*%
G04 #@! TD*
G04 #@! TA.AperFunction,SMDPad,CuDef*
%ADD21RoundRect,0.150000X0.587500X0.150000X-0.587500X0.150000X-0.587500X-0.150000X0.587500X-0.150000X0*%
G04 #@! TD*
G04 #@! TA.AperFunction,ComponentPad*
%ADD22C,3.000000*%
G04 #@! TD*
G04 #@! TA.AperFunction,SMDPad,CuDef*
%ADD23RoundRect,0.200000X-0.275000X0.200000X-0.275000X-0.200000X0.275000X-0.200000X0.275000X0.200000X0*%
G04 #@! TD*
G04 #@! TA.AperFunction,SMDPad,CuDef*
%ADD24RoundRect,0.250000X0.650000X-0.325000X0.650000X0.325000X-0.650000X0.325000X-0.650000X-0.325000X0*%
G04 #@! TD*
G04 #@! TA.AperFunction,ComponentPad*
%ADD25R,2.200000X2.200000*%
G04 #@! TD*
G04 #@! TA.AperFunction,ComponentPad*
%ADD26C,2.200000*%
G04 #@! TD*
G04 #@! TA.AperFunction,ComponentPad*
%ADD27RoundRect,0.250000X0.600000X0.600000X-0.600000X0.600000X-0.600000X-0.600000X0.600000X-0.600000X0*%
G04 #@! TD*
G04 #@! TA.AperFunction,ComponentPad*
%ADD28C,1.700000*%
G04 #@! TD*
G04 #@! TA.AperFunction,SMDPad,CuDef*
%ADD29R,2.800000X1.000000*%
G04 #@! TD*
G04 #@! TA.AperFunction,SMDPad,CuDef*
%ADD30R,1.200000X2.200000*%
G04 #@! TD*
G04 #@! TA.AperFunction,SMDPad,CuDef*
%ADD31R,5.800000X6.400000*%
G04 #@! TD*
G04 #@! TA.AperFunction,SMDPad,CuDef*
%ADD32R,1.800000X2.500000*%
G04 #@! TD*
G04 #@! TA.AperFunction,ComponentPad*
%ADD33C,1.524000*%
G04 #@! TD*
G04 #@! TA.AperFunction,SMDPad,CuDef*
%ADD34RoundRect,0.225000X0.225000X0.250000X-0.225000X0.250000X-0.225000X-0.250000X0.225000X-0.250000X0*%
G04 #@! TD*
G04 #@! TA.AperFunction,SMDPad,CuDef*
%ADD35R,1.500000X2.000000*%
G04 #@! TD*
G04 #@! TA.AperFunction,SMDPad,CuDef*
%ADD36R,3.800000X2.000000*%
G04 #@! TD*
G04 #@! TA.AperFunction,SMDPad,CuDef*
%ADD37R,1.000000X2.800000*%
G04 #@! TD*
G04 #@! TA.AperFunction,SMDPad,CuDef*
%ADD38R,2.000000X0.900000*%
G04 #@! TD*
G04 #@! TA.AperFunction,SMDPad,CuDef*
%ADD39R,0.900000X2.000000*%
G04 #@! TD*
G04 #@! TA.AperFunction,SMDPad,CuDef*
%ADD40R,5.000000X5.000000*%
G04 #@! TD*
G04 #@! TA.AperFunction,SMDPad,CuDef*
%ADD41RoundRect,0.225000X0.250000X-0.225000X0.250000X0.225000X-0.250000X0.225000X-0.250000X-0.225000X0*%
G04 #@! TD*
G04 #@! TA.AperFunction,ViaPad*
%ADD42C,0.800000*%
G04 #@! TD*
G04 #@! TA.AperFunction,ViaPad*
%ADD43C,3.000000*%
G04 #@! TD*
G04 #@! TA.AperFunction,ViaPad*
%ADD44C,2.500000*%
G04 #@! TD*
G04 #@! TA.AperFunction,ViaPad*
%ADD45C,1.500000*%
G04 #@! TD*
G04 #@! TA.AperFunction,Conductor*
%ADD46C,0.250000*%
G04 #@! TD*
G04 #@! TA.AperFunction,Conductor*
%ADD47C,2.000000*%
G04 #@! TD*
G04 #@! TA.AperFunction,Conductor*
%ADD48C,1.500000*%
G04 #@! TD*
G04 #@! TA.AperFunction,Conductor*
%ADD49C,1.000000*%
G04 #@! TD*
G04 #@! TA.AperFunction,Conductor*
%ADD50C,3.000000*%
G04 #@! TD*
G04 #@! TA.AperFunction,Conductor*
%ADD51C,2.500000*%
G04 #@! TD*
G04 APERTURE END LIST*
D10*
G04 #@! TO.P,J11,1,Pin_1*
G04 #@! TO.N,+3V3*
X171000000Y-53000000D03*
D11*
G04 #@! TO.P,J11,2,Pin_2*
G04 #@! TO.N,GND*
X173540000Y-53000000D03*
G04 #@! TO.P,J11,3,Pin_3*
G04 #@! TO.N,TXDO_PROG*
X176080000Y-53000000D03*
G04 #@! TO.P,J11,4,Pin_4*
G04 #@! TO.N,RXDI_PROG*
X178620000Y-53000000D03*
G04 #@! TO.P,J11,5,Pin_5*
G04 #@! TO.N,RESET*
X181160000Y-53000000D03*
G04 #@! TO.P,J11,6,Pin_6*
G04 #@! TO.N,BOOT*
X183700000Y-53000000D03*
G04 #@! TD*
D12*
G04 #@! TO.P,R12,1*
G04 #@! TO.N,ADC_VIN*
X130675000Y-67254176D03*
G04 #@! TO.P,R12,2*
G04 #@! TO.N,GND*
X132325000Y-67254176D03*
G04 #@! TD*
D13*
G04 #@! TO.P,D6,1,K*
G04 #@! TO.N,Net-(D6-Pad1)*
X147722911Y-130369516D03*
G04 #@! TO.P,D6,2,A*
G04 #@! TO.N,OPEN_2_12*
X147722911Y-131944516D03*
G04 #@! TD*
D14*
G04 #@! TO.P,R35,1*
G04 #@! TO.N,+5V*
X112825000Y-66522500D03*
G04 #@! TO.P,R35,2*
G04 #@! TO.N,RXDI_NFC_5*
X111175000Y-66522500D03*
G04 #@! TD*
D15*
G04 #@! TO.P,Q3,1,G*
G04 #@! TO.N,Net-(Q3-Pad1)*
X160062500Y-101050000D03*
G04 #@! TO.P,Q3,2,S*
G04 #@! TO.N,+BATT*
X160062500Y-102950000D03*
G04 #@! TO.P,Q3,3,D*
G04 #@! TO.N,Net-(F3-Pad2)*
X161937500Y-102000000D03*
G04 #@! TD*
D16*
G04 #@! TO.P,REF\u002A\u002A,1*
G04 #@! TO.N,N/C*
X192400000Y-51000000D03*
X190000000Y-48600000D03*
X188302944Y-49302944D03*
X190000000Y-53400000D03*
X191697056Y-49302944D03*
D17*
X190000000Y-51000000D03*
D16*
X187600000Y-51000000D03*
X188302944Y-52697056D03*
X191697056Y-52697056D03*
G04 #@! TD*
D18*
G04 #@! TO.P,C2,1*
G04 #@! TO.N,+3V3*
X145357332Y-101065037D03*
G04 #@! TO.P,C2,2*
G04 #@! TO.N,GND*
X148057332Y-101065037D03*
G04 #@! TD*
D19*
G04 #@! TO.P,R1,1*
G04 #@! TO.N,TAMPER*
X115000000Y-81825000D03*
G04 #@! TO.P,R1,2*
G04 #@! TO.N,+3V3*
X115000000Y-80175000D03*
G04 #@! TD*
G04 #@! TO.P,R9,1*
G04 #@! TO.N,Net-(D4-Pad1)*
X137574391Y-128838549D03*
G04 #@! TO.P,R9,2*
G04 #@! TO.N,GND*
X137574391Y-127188549D03*
G04 #@! TD*
G04 #@! TO.P,R4,1*
G04 #@! TO.N,Net-(R3-Pad2)*
X118000000Y-97825000D03*
G04 #@! TO.P,R4,2*
G04 #@! TO.N,GND*
X118000000Y-96175000D03*
G04 #@! TD*
D14*
G04 #@! TO.P,R16,1*
G04 #@! TO.N,ADC_V3*
X129353685Y-70768152D03*
G04 #@! TO.P,R16,2*
G04 #@! TO.N,+3V3*
X127703685Y-70768152D03*
G04 #@! TD*
D20*
G04 #@! TO.P,R2,1*
G04 #@! TO.N,Net-(R2-Pad1)*
X122000000Y-95950000D03*
G04 #@! TO.P,R2,2*
G04 #@! TO.N,+BATT*
X122000000Y-102050000D03*
G04 #@! TD*
D13*
G04 #@! TO.P,D4,1,K*
G04 #@! TO.N,Net-(D4-Pad1)*
X137580631Y-130347733D03*
G04 #@! TO.P,D4,2,A*
G04 #@! TO.N,+BATT*
X137580631Y-131922733D03*
G04 #@! TD*
D14*
G04 #@! TO.P,R14,1*
G04 #@! TO.N,ADC_V5*
X129335350Y-68980000D03*
G04 #@! TO.P,R14,2*
G04 #@! TO.N,+5V*
X127685350Y-68980000D03*
G04 #@! TD*
D19*
G04 #@! TO.P,R7,1*
G04 #@! TO.N,Net-(D3-Pad1)*
X135000000Y-128825000D03*
G04 #@! TO.P,R7,2*
G04 #@! TO.N,GND*
X135000000Y-127175000D03*
G04 #@! TD*
D21*
G04 #@! TO.P,Q5,1,G*
G04 #@! TO.N,+3V3*
X112937500Y-73730000D03*
G04 #@! TO.P,Q5,2,S*
G04 #@! TO.N,WG_D0*
X112937500Y-71830000D03*
G04 #@! TO.P,Q5,3,D*
G04 #@! TO.N,WG_D0_5*
X111062500Y-72780000D03*
G04 #@! TD*
D13*
G04 #@! TO.P,D8,1,K*
G04 #@! TO.N,Net-(D8-Pad1)*
X142641877Y-130355967D03*
G04 #@! TO.P,D8,2,A*
G04 #@! TO.N,+3V3*
X142641877Y-131930967D03*
G04 #@! TD*
D21*
G04 #@! TO.P,Q9,1,G*
G04 #@! TO.N,+3V3*
X112937500Y-64472500D03*
G04 #@! TO.P,Q9,2,S*
G04 #@! TO.N,RXDI_NFC*
X112937500Y-62572500D03*
G04 #@! TO.P,Q9,3,D*
G04 #@! TO.N,RXDI_NFC_5*
X111062500Y-63522500D03*
G04 #@! TD*
D12*
G04 #@! TO.P,R22,1*
G04 #@! TO.N,+5V*
X176237500Y-75850012D03*
G04 #@! TO.P,R22,2*
G04 #@! TO.N,NPX_1_5*
X177887500Y-75850012D03*
G04 #@! TD*
D19*
G04 #@! TO.P,R29,1*
G04 #@! TO.N,+3V3*
X115000000Y-78605000D03*
G04 #@! TO.P,R29,2*
G04 #@! TO.N,WG_D1*
X115000000Y-76955000D03*
G04 #@! TD*
D22*
G04 #@! TO.P,F1,1*
G04 #@! TO.N,V_IN*
X111000000Y-106750000D03*
G04 #@! TO.P,F1,2*
G04 #@! TO.N,Net-(F1-Pad2)*
X111000000Y-129250000D03*
G04 #@! TD*
D17*
G04 #@! TO.P,REF\u002A\u002A,1*
G04 #@! TO.N,N/C*
X190000000Y-142000000D03*
D16*
X191697056Y-140302944D03*
X190000000Y-144400000D03*
X190000000Y-139600000D03*
X188302944Y-140302944D03*
X191697056Y-143697056D03*
X188302944Y-143697056D03*
X192400000Y-142000000D03*
X187600000Y-142000000D03*
G04 #@! TD*
D23*
G04 #@! TO.P,R21,1*
G04 #@! TO.N,+3V3*
X174062500Y-72025012D03*
G04 #@! TO.P,R21,2*
G04 #@! TO.N,NPX_1*
X174062500Y-73675012D03*
G04 #@! TD*
D24*
G04 #@! TO.P,C3,1*
G04 #@! TO.N,+3V3*
X129940000Y-62820000D03*
G04 #@! TO.P,C3,2*
G04 #@! TO.N,GND*
X129940000Y-59870000D03*
G04 #@! TD*
D22*
G04 #@! TO.P,F2,1*
G04 #@! TO.N,+BATT*
X125000000Y-106750000D03*
G04 #@! TO.P,F2,2*
G04 #@! TO.N,Net-(F2-Pad2)*
X125000000Y-129250000D03*
G04 #@! TD*
D15*
G04 #@! TO.P,Q11,1,G*
G04 #@! TO.N,+3V3*
X176062500Y-62872256D03*
G04 #@! TO.P,Q11,2,S*
G04 #@! TO.N,SDA_DISP*
X176062500Y-64772256D03*
G04 #@! TO.P,Q11,3,D*
G04 #@! TO.N,SDA_DISP_5*
X177937500Y-63822256D03*
G04 #@! TD*
D25*
G04 #@! TO.P,J4,1,Pin_1*
G04 #@! TO.N,Net-(F2-Pad2)*
X124000000Y-140000000D03*
D26*
G04 #@! TO.P,J4,2,Pin_2*
G04 #@! TO.N,GND*
X126540000Y-140000000D03*
G04 #@! TD*
D19*
G04 #@! TO.P,R5,1*
G04 #@! TO.N,RESET*
X133620000Y-62645000D03*
G04 #@! TO.P,R5,2*
G04 #@! TO.N,+3V3*
X133620000Y-60995000D03*
G04 #@! TD*
D25*
G04 #@! TO.P,J7,1,Pin_1*
G04 #@! TO.N,TAMPER*
X101000000Y-85000000D03*
D26*
G04 #@! TO.P,J7,2,Pin_2*
G04 #@! TO.N,GND*
X101000000Y-87540000D03*
G04 #@! TD*
D25*
G04 #@! TO.P,J8,1,Pin_1*
G04 #@! TO.N,+5V*
X101000000Y-71185000D03*
D26*
G04 #@! TO.P,J8,2,Pin_2*
G04 #@! TO.N,WG_D0_5*
X101000000Y-73725000D03*
G04 #@! TO.P,J8,3,Pin_3*
G04 #@! TO.N,WG_D1_5*
X101000000Y-76265000D03*
G04 #@! TO.P,J8,4,Pin_4*
G04 #@! TO.N,GND*
X101000000Y-78805000D03*
G04 #@! TD*
D25*
G04 #@! TO.P,J2,1,Pin_1*
G04 #@! TO.N,Net-(F1-Pad2)*
X110000000Y-140000000D03*
D26*
G04 #@! TO.P,J2,2,Pin_2*
G04 #@! TO.N,GND*
X112540000Y-140000000D03*
G04 #@! TD*
D27*
G04 #@! TO.P,J12,1,Pin_1*
G04 #@! TO.N,GND*
X166540000Y-78080000D03*
D28*
G04 #@! TO.P,J12,2,Pin_2*
G04 #@! TO.N,+5V*
X164000000Y-78080000D03*
G04 #@! TO.P,J12,3,Pin_3*
G04 #@! TO.N,PI_POWERED*
X166540000Y-75540000D03*
G04 #@! TO.P,J12,4,Pin_4*
G04 #@! TO.N,PI_HEARTBEAT*
X164000000Y-75540000D03*
G04 #@! TO.P,J12,5,Pin_5*
G04 #@! TO.N,PI_OPEN_CMD_1*
X166540000Y-73000000D03*
G04 #@! TO.P,J12,6,Pin_6*
G04 #@! TO.N,PI_OPEN_CMD_2*
X164000000Y-73000000D03*
G04 #@! TO.P,J12,7,Pin_7*
G04 #@! TO.N,RXDI_PI*
X166540000Y-70460000D03*
G04 #@! TO.P,J12,8,Pin_8*
G04 #@! TO.N,TXDO_PI*
X164000000Y-70460000D03*
G04 #@! TD*
D29*
G04 #@! TO.P,SW3,1,1*
G04 #@! TO.N,Net-(Q10-Pad1)*
X175100000Y-94000000D03*
X180900000Y-94000000D03*
G04 #@! TO.P,SW3,2,2*
G04 #@! TO.N,+3V3*
X180900000Y-98000000D03*
X175100000Y-98000000D03*
G04 #@! TD*
D30*
G04 #@! TO.P,U2,1,ADJ*
G04 #@! TO.N,Net-(R3-Pad2)*
X110720000Y-102200000D03*
D31*
G04 #@! TO.P,U2,2,VO*
G04 #@! TO.N,Net-(R2-Pad1)*
X113000000Y-95900000D03*
D30*
G04 #@! TO.P,U2,3,VI*
G04 #@! TO.N,V_IN*
X115280000Y-102200000D03*
G04 #@! TD*
D15*
G04 #@! TO.P,Q1,1,G*
G04 #@! TO.N,+3V3*
X176125000Y-71900012D03*
G04 #@! TO.P,Q1,2,S*
G04 #@! TO.N,NPX_1*
X176125000Y-73800012D03*
G04 #@! TO.P,Q1,3,D*
G04 #@! TO.N,NPX_1_5*
X178000000Y-72850012D03*
G04 #@! TD*
D17*
G04 #@! TO.P,REF\u002A\u002A,1*
G04 #@! TO.N,N/C*
X99000000Y-142000000D03*
D16*
X100697056Y-140302944D03*
X101400000Y-142000000D03*
X100697056Y-143697056D03*
X97302944Y-143697056D03*
X96600000Y-142000000D03*
X99000000Y-139600000D03*
X97302944Y-140302944D03*
X99000000Y-144400000D03*
G04 #@! TD*
G04 #@! TO.P,REF\u002A\u002A,1*
G04 #@! TO.N,N/C*
X99000000Y-53400000D03*
X101400000Y-51000000D03*
D17*
X99000000Y-51000000D03*
D16*
X96600000Y-51000000D03*
X97302944Y-52697056D03*
X100697056Y-49302944D03*
X97302944Y-49302944D03*
X100697056Y-52697056D03*
X99000000Y-48600000D03*
G04 #@! TD*
D19*
G04 #@! TO.P,R11,1*
G04 #@! TO.N,Net-(D6-Pad1)*
X147722911Y-128865648D03*
G04 #@! TO.P,R11,2*
G04 #@! TO.N,GND*
X147722911Y-127215648D03*
G04 #@! TD*
G04 #@! TO.P,R15,1*
G04 #@! TO.N,Net-(D7-Pad1)*
X140108134Y-128879198D03*
G04 #@! TO.P,R15,2*
G04 #@! TO.N,GND*
X140108134Y-127229198D03*
G04 #@! TD*
D25*
G04 #@! TO.P,J1,1,Pin_1*
G04 #@! TO.N,+BATT*
X161460000Y-140000000D03*
D26*
G04 #@! TO.P,J1,2,Pin_2*
G04 #@! TO.N,OPEN_1_12*
X164000000Y-140000000D03*
G04 #@! TO.P,J1,3,Pin_3*
G04 #@! TO.N,GND*
X166540000Y-140000000D03*
G04 #@! TD*
D13*
G04 #@! TO.P,D3,1,K*
G04 #@! TO.N,Net-(D3-Pad1)*
X135010631Y-130347733D03*
G04 #@! TO.P,D3,2,A*
G04 #@! TO.N,V_IN*
X135010631Y-131922733D03*
G04 #@! TD*
D12*
G04 #@! TO.P,R39,1*
G04 #@! TO.N,+5V*
X176175000Y-66822256D03*
G04 #@! TO.P,R39,2*
G04 #@! TO.N,SDA_DISP_5*
X177825000Y-66822256D03*
G04 #@! TD*
G04 #@! TO.P,R24,1*
G04 #@! TO.N,+5V*
X176005024Y-88000000D03*
G04 #@! TO.P,R24,2*
G04 #@! TO.N,NPX_2_5*
X177655024Y-88000000D03*
G04 #@! TD*
D23*
G04 #@! TO.P,R25,1*
G04 #@! TO.N,Net-(Q3-Pad1)*
X164000000Y-101175000D03*
G04 #@! TO.P,R25,2*
G04 #@! TO.N,Net-(Q4-Pad3)*
X164000000Y-102825000D03*
G04 #@! TD*
D12*
G04 #@! TO.P,R41,1*
G04 #@! TO.N,+5V*
X176545024Y-56000000D03*
G04 #@! TO.P,R41,2*
G04 #@! TO.N,SCL_DISP_5*
X178195024Y-56000000D03*
G04 #@! TD*
D15*
G04 #@! TO.P,Q10,1,B*
G04 #@! TO.N,Net-(Q10-Pad1)*
X180062500Y-101050000D03*
G04 #@! TO.P,Q10,2,E*
G04 #@! TO.N,GND*
X180062500Y-102950000D03*
G04 #@! TO.P,Q10,3,C*
G04 #@! TO.N,Net-(Q10-Pad3)*
X181937500Y-102000000D03*
G04 #@! TD*
D22*
G04 #@! TO.P,F4,1*
G04 #@! TO.N,OPEN_2_12*
X178000000Y-129250000D03*
G04 #@! TO.P,F4,2*
G04 #@! TO.N,Net-(F4-Pad2)*
X178000000Y-106750000D03*
G04 #@! TD*
D32*
G04 #@! TO.P,D2,1,K*
G04 #@! TO.N,+BATT*
X128000000Y-102000000D03*
G04 #@! TO.P,D2,2,A*
G04 #@! TO.N,GND*
X128000000Y-98000000D03*
G04 #@! TD*
D19*
G04 #@! TO.P,R32,1*
G04 #@! TO.N,+3V3*
X115000000Y-59347500D03*
G04 #@! TO.P,R32,2*
G04 #@! TO.N,TXDO_NFC*
X115000000Y-57697500D03*
G04 #@! TD*
D21*
G04 #@! TO.P,Q6,1,G*
G04 #@! TO.N,+3V3*
X112937500Y-78730000D03*
G04 #@! TO.P,Q6,2,S*
G04 #@! TO.N,WG_D1*
X112937500Y-76830000D03*
G04 #@! TO.P,Q6,3,D*
G04 #@! TO.N,WG_D1_5*
X111062500Y-77780000D03*
G04 #@! TD*
D13*
G04 #@! TO.P,D5,1,K*
G04 #@! TO.N,Net-(D5-Pad1)*
X145202718Y-130355967D03*
G04 #@! TO.P,D5,2,A*
G04 #@! TO.N,OPEN_1_12*
X145202718Y-131930967D03*
G04 #@! TD*
D15*
G04 #@! TO.P,Q4,1,B*
G04 #@! TO.N,Net-(Q4-Pad1)*
X166062500Y-101050000D03*
G04 #@! TO.P,Q4,2,E*
G04 #@! TO.N,GND*
X166062500Y-102950000D03*
G04 #@! TO.P,Q4,3,C*
G04 #@! TO.N,Net-(Q4-Pad3)*
X167937500Y-102000000D03*
G04 #@! TD*
D14*
G04 #@! TO.P,R8,1*
G04 #@! TO.N,ADC_VBATT*
X129335350Y-65500000D03*
G04 #@! TO.P,R8,2*
G04 #@! TO.N,+BATT*
X127685350Y-65500000D03*
G04 #@! TD*
D19*
G04 #@! TO.P,R31,1*
G04 #@! TO.N,+BATT*
X172000000Y-102825000D03*
G04 #@! TO.P,R31,2*
G04 #@! TO.N,Net-(Q7-Pad1)*
X172000000Y-101175000D03*
G04 #@! TD*
D14*
G04 #@! TO.P,R28,1*
G04 #@! TO.N,+5V*
X112825000Y-69780000D03*
G04 #@! TO.P,R28,2*
G04 #@! TO.N,WG_D0_5*
X111175000Y-69780000D03*
G04 #@! TD*
D25*
G04 #@! TO.P,J10,1,Pin_1*
G04 #@! TO.N,+5V*
X188107476Y-65427740D03*
D26*
G04 #@! TO.P,J10,2,Pin_2*
G04 #@! TO.N,SDA_DISP_5*
X188107476Y-62887740D03*
G04 #@! TO.P,J10,3,Pin_3*
G04 #@! TO.N,SCL_DISP_5*
X188107476Y-60347740D03*
G04 #@! TO.P,J10,4,Pin_4*
G04 #@! TO.N,GND*
X188107476Y-57807740D03*
G04 #@! TD*
D23*
G04 #@! TO.P,R38,1*
G04 #@! TO.N,+3V3*
X174000000Y-62997256D03*
G04 #@! TO.P,R38,2*
G04 #@! TO.N,SDA_DISP*
X174000000Y-64647256D03*
G04 #@! TD*
D25*
G04 #@! TO.P,J3,1,Pin_1*
G04 #@! TO.N,+BATT*
X175460000Y-140000000D03*
D26*
G04 #@! TO.P,J3,2,Pin_2*
G04 #@! TO.N,OPEN_2_12*
X178000000Y-140000000D03*
G04 #@! TO.P,J3,3,Pin_3*
G04 #@! TO.N,GND*
X180540000Y-140000000D03*
G04 #@! TD*
D33*
G04 #@! TO.P,U1,1,IN+*
G04 #@! TO.N,+BATT*
X134856000Y-112936000D03*
X134856000Y-110396000D03*
G04 #@! TO.P,U1,2,IN-*
G04 #@! TO.N,GND*
X134856000Y-121064000D03*
X134856000Y-123604000D03*
G04 #@! TO.P,U1,3,OUT+*
G04 #@! TO.N,+5V*
X153398000Y-112936000D03*
X153398000Y-110396000D03*
G04 #@! TO.P,U1,4,OUT-*
G04 #@! TO.N,GND*
X153398000Y-123604000D03*
X153398000Y-121064000D03*
G04 #@! TD*
D23*
G04 #@! TO.P,R37,1*
G04 #@! TO.N,OPEN_2*
X172000000Y-95175000D03*
G04 #@! TO.P,R37,2*
G04 #@! TO.N,Net-(Q10-Pad1)*
X172000000Y-96825000D03*
G04 #@! TD*
D19*
G04 #@! TO.P,R17,1*
G04 #@! TO.N,Net-(D8-Pad1)*
X142628327Y-128852099D03*
G04 #@! TO.P,R17,2*
G04 #@! TO.N,GND*
X142628327Y-127202099D03*
G04 #@! TD*
D15*
G04 #@! TO.P,Q7,1,G*
G04 #@! TO.N,Net-(Q7-Pad1)*
X174062500Y-101050000D03*
G04 #@! TO.P,Q7,2,S*
G04 #@! TO.N,+BATT*
X174062500Y-102950000D03*
G04 #@! TO.P,Q7,3,D*
G04 #@! TO.N,Net-(F4-Pad2)*
X175937500Y-102000000D03*
G04 #@! TD*
D32*
G04 #@! TO.P,D1,1,K*
G04 #@! TO.N,V_IN*
X107000000Y-102000000D03*
G04 #@! TO.P,D1,2,A*
G04 #@! TO.N,GND*
X107000000Y-98000000D03*
G04 #@! TD*
D34*
G04 #@! TO.P,C5,1*
G04 #@! TO.N,RESET*
X126775000Y-60000000D03*
G04 #@! TO.P,C5,2*
G04 #@! TO.N,GND*
X125225000Y-60000000D03*
G04 #@! TD*
D19*
G04 #@! TO.P,R3,1*
G04 #@! TO.N,+BATT*
X118000000Y-101825000D03*
G04 #@! TO.P,R3,2*
G04 #@! TO.N,Net-(R3-Pad2)*
X118000000Y-100175000D03*
G04 #@! TD*
D23*
G04 #@! TO.P,R36,1*
G04 #@! TO.N,Net-(Q7-Pad1)*
X178000000Y-101175000D03*
G04 #@! TO.P,R36,2*
G04 #@! TO.N,Net-(Q10-Pad3)*
X178000000Y-102825000D03*
G04 #@! TD*
D13*
G04 #@! TO.P,D7,1,K*
G04 #@! TO.N,Net-(D7-Pad1)*
X140121683Y-130384250D03*
G04 #@! TO.P,D7,2,A*
G04 #@! TO.N,+5V*
X140121683Y-131959250D03*
G04 #@! TD*
D23*
G04 #@! TO.P,R40,1*
G04 #@! TO.N,+3V3*
X174000000Y-58225000D03*
G04 #@! TO.P,R40,2*
G04 #@! TO.N,SCL_DISP*
X174000000Y-59875000D03*
G04 #@! TD*
D35*
G04 #@! TO.P,U3,1,GND*
G04 #@! TO.N,GND*
X135700000Y-106150000D03*
G04 #@! TO.P,U3,2,VO*
G04 #@! TO.N,+3V3*
X138000000Y-106150000D03*
D36*
X138000000Y-99850000D03*
D35*
G04 #@! TO.P,U3,3,VI*
G04 #@! TO.N,+5V*
X140300000Y-106150000D03*
G04 #@! TD*
D37*
G04 #@! TO.P,SW4,1,1*
G04 #@! TO.N,GND*
X162000000Y-51100000D03*
X162000000Y-56900000D03*
G04 #@! TO.P,SW4,2,2*
G04 #@! TO.N,BOOT*
X166000000Y-56900000D03*
X166000000Y-51100000D03*
G04 #@! TD*
D15*
G04 #@! TO.P,Q2,1,G*
G04 #@! TO.N,+3V3*
X175892524Y-84050000D03*
G04 #@! TO.P,Q2,2,S*
G04 #@! TO.N,NPX_2*
X175892524Y-85950000D03*
G04 #@! TO.P,Q2,3,D*
G04 #@! TO.N,NPX_2_5*
X177767524Y-85000000D03*
G04 #@! TD*
D25*
G04 #@! TO.P,J6,1,Pin_1*
G04 #@! TO.N,+5V*
X188000000Y-88000000D03*
D26*
G04 #@! TO.P,J6,2,Pin_2*
G04 #@! TO.N,NPX_2_5*
X188000000Y-85460000D03*
G04 #@! TO.P,J6,3,Pin_3*
G04 #@! TO.N,GND*
X188000000Y-82920000D03*
G04 #@! TD*
D21*
G04 #@! TO.P,Q8,1,G*
G04 #@! TO.N,+3V3*
X112937500Y-59472500D03*
G04 #@! TO.P,Q8,2,S*
G04 #@! TO.N,TXDO_NFC*
X112937500Y-57572500D03*
G04 #@! TO.P,Q8,3,D*
G04 #@! TO.N,TXDO_NFC_5*
X111062500Y-58522500D03*
G04 #@! TD*
D15*
G04 #@! TO.P,Q12,1,G*
G04 #@! TO.N,+3V3*
X176000000Y-58050000D03*
G04 #@! TO.P,Q12,2,S*
G04 #@! TO.N,SCL_DISP*
X176000000Y-59950000D03*
G04 #@! TO.P,Q12,3,D*
G04 #@! TO.N,SCL_DISP_5*
X177875000Y-59000000D03*
G04 #@! TD*
D19*
G04 #@! TO.P,R34,1*
G04 #@! TO.N,+3V3*
X115000000Y-64347500D03*
G04 #@! TO.P,R34,2*
G04 #@! TO.N,RXDI_NFC*
X115000000Y-62697500D03*
G04 #@! TD*
D25*
G04 #@! TO.P,J9,1,Pin_1*
G04 #@! TO.N,+5V*
X101000000Y-57185000D03*
D26*
G04 #@! TO.P,J9,2,Pin_2*
G04 #@! TO.N,TXDO_NFC_5*
X101000000Y-59725000D03*
G04 #@! TO.P,J9,3,Pin_3*
G04 #@! TO.N,RXDI_NFC_5*
X101000000Y-62265000D03*
G04 #@! TO.P,J9,4,Pin_4*
G04 #@! TO.N,GND*
X101000000Y-64805000D03*
G04 #@! TD*
D12*
G04 #@! TO.P,R13,1*
G04 #@! TO.N,ADC_VBATT*
X130685350Y-65500000D03*
G04 #@! TO.P,R13,2*
G04 #@! TO.N,GND*
X132335350Y-65500000D03*
G04 #@! TD*
D29*
G04 #@! TO.P,SW2,1,1*
G04 #@! TO.N,Net-(Q4-Pad1)*
X166900000Y-94000000D03*
X161100000Y-94000000D03*
G04 #@! TO.P,SW2,2,2*
G04 #@! TO.N,+3V3*
X166900000Y-98000000D03*
X161100000Y-98000000D03*
G04 #@! TD*
D12*
G04 #@! TO.P,R30,1*
G04 #@! TO.N,+5V*
X111060989Y-80726816D03*
G04 #@! TO.P,R30,2*
G04 #@! TO.N,WG_D1_5*
X112710989Y-80726816D03*
G04 #@! TD*
D14*
G04 #@! TO.P,R6,1*
G04 #@! TO.N,ADC_VIN*
X129325000Y-67254176D03*
G04 #@! TO.P,R6,2*
G04 #@! TO.N,V_IN*
X127675000Y-67254176D03*
G04 #@! TD*
G04 #@! TO.P,R33,1*
G04 #@! TO.N,+5V*
X112825000Y-55522500D03*
G04 #@! TO.P,R33,2*
G04 #@! TO.N,TXDO_NFC_5*
X111175000Y-55522500D03*
G04 #@! TD*
D38*
G04 #@! TO.P,U4,1,GND*
G04 #@! TO.N,GND*
X136280000Y-60155000D03*
G04 #@! TO.P,U4,2,VDD*
G04 #@! TO.N,+3V3*
X136280000Y-61425000D03*
G04 #@! TO.P,U4,3,EN*
G04 #@! TO.N,RESET*
X136280000Y-62695000D03*
G04 #@! TO.P,U4,4,SENSOR_VP*
G04 #@! TO.N,unconnected-(U4-Pad4)*
X136280000Y-63965000D03*
G04 #@! TO.P,U4,5,SENSOR_VN*
G04 #@! TO.N,unconnected-(U4-Pad5)*
X136280000Y-65235000D03*
G04 #@! TO.P,U4,6,IO34*
G04 #@! TO.N,ADC_VBATT*
X136280000Y-66505000D03*
G04 #@! TO.P,U4,7,IO35*
G04 #@! TO.N,ADC_VIN*
X136280000Y-67775000D03*
G04 #@! TO.P,U4,8,IO32*
G04 #@! TO.N,ADC_V5*
X136280000Y-69045000D03*
G04 #@! TO.P,U4,9,IO33*
G04 #@! TO.N,ADC_V3*
X136280000Y-70315000D03*
G04 #@! TO.P,U4,10,IO25*
G04 #@! TO.N,PI_OPEN_CMD_2*
X136280000Y-71585000D03*
G04 #@! TO.P,U4,11,IO26*
G04 #@! TO.N,TXDO_NFC*
X136280000Y-72855000D03*
G04 #@! TO.P,U4,12,IO27*
G04 #@! TO.N,RXDI_NFC*
X136280000Y-74125000D03*
G04 #@! TO.P,U4,13,IO14*
G04 #@! TO.N,WG_D0*
X136280000Y-75395000D03*
G04 #@! TO.P,U4,14,IO12*
G04 #@! TO.N,WG_D1*
X136280000Y-76665000D03*
D39*
G04 #@! TO.P,U4,15,GND*
G04 #@! TO.N,GND*
X139065000Y-77665000D03*
G04 #@! TO.P,U4,16,IO13*
G04 #@! TO.N,OPEN_1*
X140335000Y-77665000D03*
G04 #@! TO.P,U4,17,SHD/SD2*
G04 #@! TO.N,unconnected-(U4-Pad17)*
X141605000Y-77665000D03*
G04 #@! TO.P,U4,18,SWP/SD3*
G04 #@! TO.N,unconnected-(U4-Pad18)*
X142875000Y-77665000D03*
G04 #@! TO.P,U4,19,SCS/CMD*
G04 #@! TO.N,unconnected-(U4-Pad19)*
X144145000Y-77665000D03*
G04 #@! TO.P,U4,20,SCK/CLK*
G04 #@! TO.N,unconnected-(U4-Pad20)*
X145415000Y-77665000D03*
G04 #@! TO.P,U4,21,SDO/SD0*
G04 #@! TO.N,unconnected-(U4-Pad21)*
X146685000Y-77665000D03*
G04 #@! TO.P,U4,22,SDI/SD1*
G04 #@! TO.N,unconnected-(U4-Pad22)*
X147955000Y-77665000D03*
G04 #@! TO.P,U4,23,IO15*
G04 #@! TO.N,TAMPER*
X149225000Y-77665000D03*
G04 #@! TO.P,U4,24,IO2*
G04 #@! TO.N,OPEN_2*
X150495000Y-77665000D03*
D38*
G04 #@! TO.P,U4,25,IO0*
G04 #@! TO.N,BOOT*
X153280000Y-76665000D03*
G04 #@! TO.P,U4,26,IO4*
G04 #@! TO.N,NPX_2*
X153280000Y-75395000D03*
G04 #@! TO.P,U4,27,IO16*
G04 #@! TO.N,PI_HEARTBEAT*
X153280000Y-74125000D03*
G04 #@! TO.P,U4,28,IO17*
G04 #@! TO.N,PI_POWERED*
X153280000Y-72855000D03*
G04 #@! TO.P,U4,29,IO5*
G04 #@! TO.N,NPX_1*
X153280000Y-71585000D03*
G04 #@! TO.P,U4,30,IO18*
G04 #@! TO.N,TXDO_PI*
X153280000Y-70315000D03*
G04 #@! TO.P,U4,31,IO19*
G04 #@! TO.N,RXDI_PI*
X153280000Y-69045000D03*
G04 #@! TO.P,U4,32,NC*
G04 #@! TO.N,unconnected-(U4-Pad32)*
X153280000Y-67775000D03*
G04 #@! TO.P,U4,33,IO21*
G04 #@! TO.N,SDA_DISP*
X153280000Y-66505000D03*
G04 #@! TO.P,U4,34,RXD0/IO3*
G04 #@! TO.N,RXDI_PROG*
X153280000Y-65235000D03*
G04 #@! TO.P,U4,35,TXD0/IO1*
G04 #@! TO.N,TXDO_PROG*
X153280000Y-63965000D03*
G04 #@! TO.P,U4,36,IO22*
G04 #@! TO.N,SCL_DISP*
X153280000Y-62695000D03*
G04 #@! TO.P,U4,37,IO23*
G04 #@! TO.N,PI_OPEN_CMD_1*
X153280000Y-61425000D03*
G04 #@! TO.P,U4,38,GND*
G04 #@! TO.N,GND*
X153280000Y-60155000D03*
D40*
G04 #@! TO.P,U4,39,GND*
X143780000Y-67655000D03*
G04 #@! TD*
D23*
G04 #@! TO.P,R26,1*
G04 #@! TO.N,OPEN_1*
X158000000Y-95175000D03*
G04 #@! TO.P,R26,2*
G04 #@! TO.N,Net-(Q4-Pad1)*
X158000000Y-96825000D03*
G04 #@! TD*
D14*
G04 #@! TO.P,R19,1*
G04 #@! TO.N,GND*
X132353685Y-70768152D03*
G04 #@! TO.P,R19,2*
G04 #@! TO.N,ADC_V3*
X130703685Y-70768152D03*
G04 #@! TD*
D23*
G04 #@! TO.P,R23,1*
G04 #@! TO.N,+3V3*
X173830024Y-84175000D03*
G04 #@! TO.P,R23,2*
G04 #@! TO.N,NPX_2*
X173830024Y-85825000D03*
G04 #@! TD*
D19*
G04 #@! TO.P,R20,1*
G04 #@! TO.N,+BATT*
X158000000Y-102825000D03*
G04 #@! TO.P,R20,2*
G04 #@! TO.N,Net-(Q3-Pad1)*
X158000000Y-101175000D03*
G04 #@! TD*
D25*
G04 #@! TO.P,J5,1,Pin_1*
G04 #@! TO.N,+5V*
X188000000Y-76540000D03*
D26*
G04 #@! TO.P,J5,2,Pin_2*
G04 #@! TO.N,NPX_1_5*
X188000000Y-74000000D03*
G04 #@! TO.P,J5,3,Pin_3*
G04 #@! TO.N,GND*
X188000000Y-71460000D03*
G04 #@! TD*
D12*
G04 #@! TO.P,R18,1*
G04 #@! TO.N,ADC_V5*
X130685350Y-69000000D03*
G04 #@! TO.P,R18,2*
G04 #@! TO.N,GND*
X132335350Y-69000000D03*
G04 #@! TD*
D19*
G04 #@! TO.P,R27,1*
G04 #@! TO.N,+3V3*
X115000000Y-73605000D03*
G04 #@! TO.P,R27,2*
G04 #@! TO.N,WG_D0*
X115000000Y-71955000D03*
G04 #@! TD*
D37*
G04 #@! TO.P,SW1,1,1*
G04 #@! TO.N,GND*
X123835000Y-57080000D03*
X123835000Y-51280000D03*
G04 #@! TO.P,SW1,2,2*
G04 #@! TO.N,RESET*
X127835000Y-57080000D03*
X127835000Y-51280000D03*
G04 #@! TD*
D10*
G04 #@! TO.P,J14,1,Pin_1*
G04 #@! TO.N,V_IN*
X135031669Y-140137882D03*
D11*
G04 #@! TO.P,J14,2,Pin_2*
G04 #@! TO.N,+BATT*
X137571669Y-140137882D03*
G04 #@! TO.P,J14,3,Pin_3*
G04 #@! TO.N,+5V*
X140111669Y-140137882D03*
G04 #@! TO.P,J14,4,Pin_4*
G04 #@! TO.N,+3V3*
X142651669Y-140137882D03*
G04 #@! TO.P,J14,5,Pin_5*
G04 #@! TO.N,OPEN_1_12*
X145191669Y-140137882D03*
G04 #@! TO.P,J14,6,Pin_6*
G04 #@! TO.N,OPEN_2_12*
X147731669Y-140137882D03*
G04 #@! TO.P,J14,7,Pin_7*
G04 #@! TO.N,GND*
X150271669Y-140137882D03*
G04 #@! TO.P,J14,8,Pin_8*
X152811669Y-140137882D03*
G04 #@! TD*
D19*
G04 #@! TO.P,R10,1*
G04 #@! TO.N,Net-(D5-Pad1)*
X145202718Y-128852099D03*
G04 #@! TO.P,R10,2*
G04 #@! TO.N,GND*
X145202718Y-127202099D03*
G04 #@! TD*
D22*
G04 #@! TO.P,F3,1*
G04 #@! TO.N,OPEN_1_12*
X164000000Y-129250000D03*
G04 #@! TO.P,F3,2*
G04 #@! TO.N,Net-(F3-Pad2)*
X164000000Y-106750000D03*
G04 #@! TD*
D41*
G04 #@! TO.P,C4,1*
G04 #@! TO.N,+3V3*
X131940000Y-61395000D03*
G04 #@! TO.P,C4,2*
G04 #@! TO.N,GND*
X131940000Y-59845000D03*
G04 #@! TD*
D18*
G04 #@! TO.P,C1,1*
G04 #@! TO.N,+5V*
X145300000Y-106000000D03*
G04 #@! TO.P,C1,2*
G04 #@! TO.N,GND*
X148000000Y-106000000D03*
G04 #@! TD*
D42*
G04 #@! TO.N,+5V*
X111000000Y-82500000D03*
X113000000Y-68000000D03*
X142275500Y-106512299D03*
X120000000Y-68000000D03*
X114500000Y-56000000D03*
D43*
G04 #@! TO.N,GND*
X107000000Y-95000000D03*
D42*
X161000000Y-60000000D03*
X139000000Y-75500000D03*
D44*
X127435175Y-95285047D03*
D42*
X134000000Y-69000000D03*
X122000000Y-52000000D03*
D43*
X168000000Y-105000000D03*
D42*
X134000000Y-67000000D03*
D43*
X118000000Y-94000000D03*
D42*
X133512299Y-70524020D03*
X128000000Y-60000000D03*
D43*
X182000000Y-105000000D03*
D44*
X148000000Y-103500000D03*
D42*
X133500000Y-65000000D03*
G04 #@! TO.N,+3V3*
X174000000Y-83000000D03*
X120500000Y-73500000D03*
X127500000Y-72000000D03*
X174000000Y-70500000D03*
D45*
X138000000Y-88000000D03*
D42*
X174000000Y-57000000D03*
X128500000Y-61500000D03*
X120500000Y-60000000D03*
X170000000Y-89000000D03*
X143000000Y-102000000D03*
X174000000Y-61500000D03*
X121000000Y-78775500D03*
G04 #@! TO.N,RESET*
X138000000Y-62500000D03*
G04 #@! TO.N,V_IN*
X116500000Y-104000000D03*
X122000000Y-67500000D03*
G04 #@! TO.N,+BATT*
X125000000Y-65500000D03*
D44*
X172000000Y-105000000D03*
X158500000Y-105000000D03*
D42*
G04 #@! TO.N,TAMPER*
X139000000Y-79500000D03*
X142500000Y-79500000D03*
G04 #@! TO.N,BOOT*
X151000000Y-61000000D03*
X164500000Y-59000000D03*
G04 #@! TO.N,PI_OPEN_CMD_1*
X164000000Y-61500000D03*
G04 #@! TO.N,PI_OPEN_CMD_2*
X138000000Y-71500000D03*
G04 #@! TO.N,SCL_DISP*
X171000000Y-60000000D03*
X167500000Y-60000000D03*
G04 #@! TD*
D46*
G04 #@! TO.N,+5V*
X176005024Y-88000000D02*
X176804544Y-88799520D01*
X176175000Y-66822256D02*
X176974520Y-67621776D01*
X177037020Y-76649532D02*
X182850468Y-76649532D01*
X111060989Y-80726816D02*
X111060989Y-82439011D01*
X114022500Y-55522500D02*
X114500000Y-56000000D01*
X182850468Y-76649532D02*
X187890468Y-76649532D01*
X140111669Y-131969264D02*
X140121683Y-131959250D01*
D47*
X164847919Y-80130000D02*
X184410000Y-80130000D01*
D46*
X188107476Y-65427740D02*
X190000000Y-63535216D01*
X185913440Y-67621776D02*
X188107476Y-65427740D01*
X140111669Y-140137882D02*
X140111669Y-131969264D01*
X176237500Y-75850012D02*
X177037020Y-76649532D01*
X188200480Y-55200480D02*
X177344544Y-55200480D01*
X190000000Y-63535216D02*
X190000000Y-57000000D01*
D47*
X184410000Y-80130000D02*
X188000000Y-76540000D01*
D46*
X113000000Y-66697500D02*
X112825000Y-66522500D01*
X177344544Y-55200480D02*
X176545024Y-56000000D01*
X111060989Y-82439011D02*
X111000000Y-82500000D01*
X190000000Y-57000000D02*
X188200480Y-55200480D01*
X187890468Y-76649532D02*
X188000000Y-76540000D01*
X127685350Y-68980000D02*
X120980000Y-68980000D01*
X140300000Y-106150000D02*
X141913201Y-106150000D01*
X143000000Y-106000000D02*
X142487701Y-106512299D01*
X141913201Y-106150000D02*
X142275500Y-106512299D01*
X142487701Y-106512299D02*
X142275500Y-106512299D01*
X112825000Y-55522500D02*
X114022500Y-55522500D01*
X120980000Y-68980000D02*
X120000000Y-68000000D01*
D47*
X164000000Y-79282081D02*
X164847919Y-80130000D01*
D46*
X176974520Y-67621776D02*
X185913440Y-67621776D01*
X113000000Y-68000000D02*
X113000000Y-66697500D01*
D47*
X164000000Y-78080000D02*
X164000000Y-79282081D01*
D46*
X187200480Y-88799520D02*
X188000000Y-88000000D01*
X145300000Y-106000000D02*
X143000000Y-106000000D01*
D48*
X140300000Y-106150000D02*
X145150000Y-106150000D01*
D46*
X113000000Y-68000000D02*
X113000000Y-69605000D01*
X176804544Y-88799520D02*
X187200480Y-88799520D01*
X113000000Y-69605000D02*
X112825000Y-69780000D01*
D48*
X145150000Y-106150000D02*
X145300000Y-106000000D01*
D49*
G04 #@! TO.N,GND*
X180062500Y-103062500D02*
X182000000Y-105000000D01*
D48*
X140067485Y-127188549D02*
X140108134Y-127229198D01*
D46*
X132325000Y-67254176D02*
X133745824Y-67254176D01*
D48*
X137560842Y-127175000D02*
X137574391Y-127188549D01*
X148000000Y-106000000D02*
X148000000Y-103500000D01*
X148057332Y-103442668D02*
X148000000Y-103500000D01*
X142628327Y-127202099D02*
X145202718Y-127202099D01*
D46*
X129940000Y-59870000D02*
X131915000Y-59870000D01*
X162000000Y-51100000D02*
X162000000Y-56900000D01*
X139000000Y-75500000D02*
X143780000Y-70720000D01*
X128130000Y-59870000D02*
X128000000Y-60000000D01*
D48*
X140108134Y-127229198D02*
X142601228Y-127229198D01*
D46*
X123835000Y-51280000D02*
X122720000Y-51280000D01*
X160845000Y-60155000D02*
X161000000Y-60000000D01*
X162000000Y-56900000D02*
X162000000Y-59000000D01*
D48*
X128000000Y-98000000D02*
X128000000Y-95849872D01*
D46*
X132250000Y-60155000D02*
X136280000Y-60155000D01*
X131915000Y-59870000D02*
X131940000Y-59845000D01*
X139065000Y-77665000D02*
X139065000Y-75565000D01*
D48*
X148057332Y-101065037D02*
X148057332Y-103442668D01*
D49*
X166062500Y-103062500D02*
X168000000Y-105000000D01*
D46*
X143780000Y-70720000D02*
X143780000Y-67655000D01*
X132335350Y-69000000D02*
X134000000Y-69000000D01*
X123835000Y-51280000D02*
X123835000Y-57080000D01*
X133268167Y-70768152D02*
X133512299Y-70524020D01*
X162000000Y-59000000D02*
X161000000Y-60000000D01*
D48*
X118000000Y-96175000D02*
X118000000Y-94000000D01*
X145202718Y-127202099D02*
X147709362Y-127202099D01*
X147722911Y-127215648D02*
X149786352Y-127215648D01*
X135000000Y-127175000D02*
X137560842Y-127175000D01*
X147709362Y-127202099D02*
X147722911Y-127215648D01*
D46*
X131940000Y-59845000D02*
X132250000Y-60155000D01*
X132353685Y-70768152D02*
X133268167Y-70768152D01*
D48*
X149786352Y-127215648D02*
X153398000Y-123604000D01*
D46*
X122720000Y-51280000D02*
X122000000Y-52000000D01*
D48*
X135700000Y-105700000D02*
X128000000Y-98000000D01*
D46*
X153280000Y-60155000D02*
X160845000Y-60155000D01*
D48*
X128000000Y-95849872D02*
X127435175Y-95285047D01*
X137574391Y-127188549D02*
X140067485Y-127188549D01*
D46*
X139065000Y-75565000D02*
X139000000Y-75500000D01*
X133000000Y-65500000D02*
X133500000Y-65000000D01*
D49*
X180062500Y-102950000D02*
X180062500Y-103062500D01*
D46*
X123835000Y-57080000D02*
X123835000Y-58610000D01*
D48*
X107000000Y-98000000D02*
X107000000Y-95000000D01*
D46*
X132335350Y-65500000D02*
X133000000Y-65500000D01*
X133745824Y-67254176D02*
X134000000Y-67000000D01*
D49*
X166062500Y-102950000D02*
X166062500Y-103062500D01*
D48*
X135700000Y-106150000D02*
X135700000Y-105700000D01*
X142601228Y-127229198D02*
X142628327Y-127202099D01*
D46*
X129940000Y-59870000D02*
X128130000Y-59870000D01*
X123835000Y-58610000D02*
X125225000Y-60000000D01*
G04 #@! TO.N,+3V3*
X143934963Y-101065037D02*
X143000000Y-102000000D01*
X120395000Y-73605000D02*
X120500000Y-73500000D01*
X175825000Y-58225000D02*
X176000000Y-58050000D01*
X134050000Y-61425000D02*
X136280000Y-61425000D01*
X112937500Y-59472500D02*
X111875480Y-60534520D01*
X178000000Y-98000000D02*
X180900000Y-98000000D01*
X174000000Y-62997256D02*
X175937500Y-62997256D01*
X176125000Y-71900012D02*
X174187500Y-71900012D01*
X114875000Y-73730000D02*
X115000000Y-73605000D01*
X142651669Y-131940759D02*
X142641877Y-131930967D01*
X145357332Y-101065037D02*
X143934963Y-101065037D01*
X129820000Y-62820000D02*
X128500000Y-61500000D01*
X174000000Y-62997256D02*
X174000000Y-61500000D01*
X174062500Y-72025012D02*
X174062500Y-70562500D01*
X131940000Y-61395000D02*
X133220000Y-61395000D01*
X129940000Y-62820000D02*
X130515000Y-62820000D01*
X112937500Y-63981072D02*
X112937500Y-64472500D01*
X173830024Y-83169976D02*
X174000000Y-83000000D01*
X133220000Y-61395000D02*
X133620000Y-60995000D01*
X113062500Y-64347500D02*
X112937500Y-64472500D01*
X170000000Y-94900000D02*
X170000000Y-89000000D01*
X166900000Y-98000000D02*
X170000000Y-94900000D01*
X113062500Y-59347500D02*
X112937500Y-59472500D01*
X111875480Y-62919052D02*
X112937500Y-63981072D01*
X174062500Y-70562500D02*
X174000000Y-70500000D01*
X119847500Y-59347500D02*
X120500000Y-60000000D01*
X175892524Y-84050000D02*
X173955024Y-84050000D01*
X164000000Y-98000000D02*
X166900000Y-98000000D01*
X175100000Y-98000000D02*
X178000000Y-98000000D01*
X173830024Y-84175000D02*
X173830024Y-83169976D01*
X115000000Y-59347500D02*
X113062500Y-59347500D01*
X130515000Y-62820000D02*
X131940000Y-61395000D01*
X115000000Y-64347500D02*
X113062500Y-64347500D01*
X173955024Y-84050000D02*
X173830024Y-84175000D01*
X112937500Y-73730000D02*
X114875000Y-73730000D01*
X112937500Y-78730000D02*
X114875000Y-78730000D01*
D48*
X138000000Y-106150000D02*
X138000000Y-99850000D01*
D46*
X111875480Y-60534520D02*
X111875480Y-62919052D01*
X166900000Y-98000000D02*
X175100000Y-98000000D01*
X114875000Y-78730000D02*
X115000000Y-78605000D01*
X115000000Y-59347500D02*
X119847500Y-59347500D01*
X174000000Y-58225000D02*
X175825000Y-58225000D01*
X127703685Y-70768152D02*
X127703685Y-71796315D01*
X129940000Y-62820000D02*
X129820000Y-62820000D01*
X127703685Y-71796315D02*
X127500000Y-72000000D01*
X175937500Y-62997256D02*
X176062500Y-62872256D01*
X174187500Y-71900012D02*
X174062500Y-72025012D01*
X161100000Y-98000000D02*
X164000000Y-98000000D01*
D48*
X144142295Y-99850000D02*
X145357332Y-101065037D01*
D46*
X116399500Y-78775500D02*
X115000000Y-80175000D01*
D48*
X138000000Y-99850000D02*
X138000000Y-88000000D01*
D46*
X115000000Y-78605000D02*
X115000000Y-80175000D01*
X174000000Y-58225000D02*
X174000000Y-57000000D01*
D48*
X138000000Y-99850000D02*
X144142295Y-99850000D01*
D46*
X121000000Y-78775500D02*
X116399500Y-78775500D01*
X133620000Y-60995000D02*
X134050000Y-61425000D01*
X115000000Y-73605000D02*
X120395000Y-73605000D01*
X142651669Y-140137882D02*
X142651669Y-131940759D01*
G04 #@! TO.N,RESET*
X126775000Y-60000000D02*
X126775000Y-61442493D01*
X126775000Y-61442493D02*
X129052027Y-63719520D01*
X133620000Y-62645000D02*
X133670000Y-62695000D01*
X133670000Y-62695000D02*
X136280000Y-62695000D01*
X127835000Y-57080000D02*
X127835000Y-58940000D01*
X132545480Y-63719520D02*
X133620000Y-62645000D01*
X136475000Y-62500000D02*
X136280000Y-62695000D01*
X127835000Y-51280000D02*
X127835000Y-57080000D01*
X138000000Y-62500000D02*
X136475000Y-62500000D01*
X127835000Y-58940000D02*
X126775000Y-60000000D01*
X129052027Y-63719520D02*
X132545480Y-63719520D01*
D50*
G04 #@! TO.N,V_IN*
X111000000Y-106750000D02*
X107000000Y-102750000D01*
D46*
X127675000Y-67254176D02*
X122245824Y-67254176D01*
D50*
X111000000Y-106480000D02*
X115280000Y-102200000D01*
D46*
X135031669Y-140137882D02*
X135031669Y-131943771D01*
X134051413Y-131922733D02*
X111000000Y-108871320D01*
X135031669Y-131943771D02*
X135010631Y-131922733D01*
X116500000Y-103420000D02*
X115280000Y-102200000D01*
X111000000Y-108871320D02*
X111000000Y-106750000D01*
X122245824Y-67254176D02*
X122000000Y-67500000D01*
D50*
X111000000Y-106750000D02*
X111000000Y-106480000D01*
X107000000Y-102750000D02*
X107000000Y-102000000D01*
D46*
X135010631Y-131922733D02*
X134051413Y-131922733D01*
X116500000Y-104000000D02*
X116500000Y-103420000D01*
D51*
G04 #@! TO.N,+BATT*
X128000000Y-103750000D02*
X125000000Y-106750000D01*
X128000000Y-102000000D02*
X128000000Y-103750000D01*
D48*
X159937500Y-102825000D02*
X160062500Y-102950000D01*
D46*
X136767651Y-131109753D02*
X134529352Y-131109753D01*
X137580631Y-131922733D02*
X137571669Y-131931695D01*
X137580631Y-131922733D02*
X136767651Y-131109753D01*
D48*
X172000000Y-102825000D02*
X173937500Y-102825000D01*
D46*
X127685350Y-65500000D02*
X125000000Y-65500000D01*
D48*
X173937500Y-102825000D02*
X174062500Y-102950000D01*
D51*
X125000000Y-106750000D02*
X125000000Y-105050000D01*
D46*
X134529352Y-131109753D02*
X126724521Y-123304922D01*
D48*
X158000000Y-102825000D02*
X159937500Y-102825000D01*
D46*
X126724521Y-123304922D02*
X126724521Y-108474521D01*
D51*
X125000000Y-105050000D02*
X122000000Y-102050000D01*
D48*
X158000000Y-102825000D02*
X158000000Y-104500000D01*
D49*
X118000000Y-101825000D02*
X121775000Y-101825000D01*
D48*
X158000000Y-104500000D02*
X158500000Y-105000000D01*
D49*
X121775000Y-101825000D02*
X122000000Y-102050000D01*
D48*
X172000000Y-102825000D02*
X172000000Y-105000000D01*
D46*
X137571669Y-131931695D02*
X137571669Y-140137882D01*
X126724521Y-108474521D02*
X125000000Y-106750000D01*
G04 #@! TO.N,Net-(D5-Pad1)*
X145202718Y-128852099D02*
X145202718Y-130355967D01*
G04 #@! TO.N,Net-(D6-Pad1)*
X147722911Y-128865648D02*
X147722911Y-130369516D01*
D48*
G04 #@! TO.N,OPEN_1_12*
X164000000Y-129250000D02*
X164000000Y-140000000D01*
D46*
X146922911Y-132388495D02*
X146922911Y-131500537D01*
X162067984Y-131182016D02*
X164000000Y-129250000D01*
X147241432Y-131182016D02*
X162067984Y-131182016D01*
X145191669Y-140137882D02*
X146366669Y-138962882D01*
X147241432Y-132707016D02*
X146922911Y-132388495D01*
X147281669Y-138962882D02*
X147281669Y-132707016D01*
X145191669Y-140137882D02*
X145191669Y-131942016D01*
X146366669Y-138962882D02*
X147281669Y-138962882D01*
X146922911Y-131500537D02*
X147241432Y-131182016D01*
X145191669Y-131942016D02*
X145202718Y-131930967D01*
X147281669Y-132707016D02*
X147241432Y-132707016D01*
D48*
G04 #@! TO.N,Net-(F3-Pad2)*
X164000000Y-106750000D02*
X162000000Y-104750000D01*
X162000000Y-102000000D02*
X161937500Y-102000000D01*
X162000000Y-104750000D02*
X162000000Y-102000000D01*
G04 #@! TO.N,OPEN_2_12*
X178000000Y-129250000D02*
X178000000Y-140000000D01*
D46*
X147731669Y-131953274D02*
X147722911Y-131944516D01*
X147731669Y-140137882D02*
X147731669Y-131953274D01*
D48*
G04 #@! TO.N,Net-(F4-Pad2)*
X175937500Y-104687500D02*
X175937500Y-102000000D01*
X178000000Y-106750000D02*
X175937500Y-104687500D01*
D46*
G04 #@! TO.N,NPX_1_5*
X178000000Y-72850012D02*
X186850012Y-72850012D01*
X186850012Y-72850012D02*
X188000000Y-74000000D01*
X178000000Y-75737512D02*
X177887500Y-75850012D01*
X178000000Y-72850012D02*
X178000000Y-75737512D01*
G04 #@! TO.N,NPX_2_5*
X177767524Y-85000000D02*
X178227524Y-85460000D01*
X177767524Y-87887500D02*
X177655024Y-88000000D01*
X178227524Y-85460000D02*
X188000000Y-85460000D01*
X177767524Y-85000000D02*
X177767524Y-87887500D01*
G04 #@! TO.N,TAMPER*
X149225000Y-78915000D02*
X148640000Y-79500000D01*
X117325000Y-79500000D02*
X115000000Y-81825000D01*
X148640000Y-79500000D02*
X142500000Y-79500000D01*
X149225000Y-77665000D02*
X149225000Y-78915000D01*
X101000000Y-85000000D02*
X111825000Y-85000000D01*
X139000000Y-79500000D02*
X117325000Y-79500000D01*
X111825000Y-85000000D02*
X115000000Y-81825000D01*
G04 #@! TO.N,WG_D0_5*
X111062500Y-69892500D02*
X111175000Y-69780000D01*
X111062500Y-72780000D02*
X110117500Y-73725000D01*
X111062500Y-72780000D02*
X111062500Y-69892500D01*
X110117500Y-73725000D02*
X101000000Y-73725000D01*
G04 #@! TO.N,WG_D1_5*
X101000000Y-76265000D02*
X109547500Y-76265000D01*
X109547500Y-76265000D02*
X111062500Y-77780000D01*
X112710989Y-80726816D02*
X111062500Y-79078327D01*
X111062500Y-79078327D02*
X111062500Y-77780000D01*
G04 #@! TO.N,TXDO_NFC_5*
X111175000Y-55522500D02*
X111175000Y-58410000D01*
X101000000Y-59725000D02*
X109860000Y-59725000D01*
X109860000Y-59725000D02*
X111062500Y-58522500D01*
X111175000Y-58410000D02*
X111062500Y-58522500D01*
G04 #@! TO.N,RXDI_NFC_5*
X111175000Y-66522500D02*
X111175000Y-63635000D01*
X111062500Y-63522500D02*
X109805000Y-62265000D01*
X111175000Y-63635000D02*
X111062500Y-63522500D01*
X109805000Y-62265000D02*
X101000000Y-62265000D01*
G04 #@! TO.N,SDA_DISP_5*
X178872016Y-62887740D02*
X188107476Y-62887740D01*
X177937500Y-63822256D02*
X178872016Y-62887740D01*
X177825000Y-63934756D02*
X177937500Y-63822256D01*
X177825000Y-66822256D02*
X177825000Y-63934756D01*
G04 #@! TO.N,SCL_DISP_5*
X178195024Y-58679976D02*
X177875000Y-59000000D01*
X186759736Y-59000000D02*
X188107476Y-60347740D01*
X177875000Y-59000000D02*
X186759736Y-59000000D01*
X178195024Y-56000000D02*
X178195024Y-58679976D01*
G04 #@! TO.N,TXDO_PROG*
X153280000Y-63965000D02*
X164763592Y-63965000D01*
X164763592Y-63965000D02*
X175728592Y-53000000D01*
X175728592Y-53000000D02*
X176080000Y-53000000D01*
G04 #@! TO.N,RXDI_PROG*
X153280000Y-65235000D02*
X164129296Y-65235000D01*
X164129296Y-65235000D02*
X174864296Y-54500000D01*
X177120000Y-54500000D02*
X178620000Y-53000000D01*
X174864296Y-54500000D02*
X177120000Y-54500000D01*
G04 #@! TO.N,BOOT*
X150775499Y-61224501D02*
X151000000Y-61000000D01*
X166000000Y-51100000D02*
X181800000Y-51100000D01*
X150775499Y-75410499D02*
X150775499Y-61224501D01*
X152030000Y-76665000D02*
X150775499Y-75410499D01*
X153280000Y-76665000D02*
X152030000Y-76665000D01*
X181800000Y-51100000D02*
X183700000Y-53000000D01*
X166000000Y-51100000D02*
X166000000Y-56900000D01*
X164500000Y-59000000D02*
X166000000Y-57500000D01*
X166000000Y-57500000D02*
X166000000Y-56900000D01*
G04 #@! TO.N,PI_POWERED*
X153280000Y-72855000D02*
X162193990Y-72855000D01*
X165174511Y-74174511D02*
X166540000Y-75540000D01*
X163513501Y-74174511D02*
X165174511Y-74174511D01*
X162193990Y-72855000D02*
X163513501Y-74174511D01*
G04 #@! TO.N,PI_HEARTBEAT*
X162585000Y-74125000D02*
X164000000Y-75540000D01*
X153280000Y-74125000D02*
X162585000Y-74125000D01*
G04 #@! TO.N,PI_OPEN_CMD_1*
X163925000Y-61425000D02*
X164000000Y-61500000D01*
X153280000Y-61425000D02*
X163925000Y-61425000D01*
G04 #@! TO.N,PI_OPEN_CMD_2*
X136365000Y-71500000D02*
X136280000Y-71585000D01*
X138000000Y-71500000D02*
X136365000Y-71500000D01*
G04 #@! TO.N,RXDI_PI*
X153280000Y-69045000D02*
X165125000Y-69045000D01*
X165125000Y-69045000D02*
X166540000Y-70460000D01*
G04 #@! TO.N,TXDO_PI*
X153280000Y-70315000D02*
X163855000Y-70315000D01*
X163855000Y-70315000D02*
X164000000Y-70460000D01*
G04 #@! TO.N,NPX_1*
X176000000Y-73675012D02*
X176125000Y-73800012D01*
X172021999Y-71634511D02*
X174062500Y-73675012D01*
X153280000Y-71585000D02*
X153329511Y-71634511D01*
X153329511Y-71634511D02*
X172021999Y-71634511D01*
X174062500Y-73675012D02*
X176000000Y-73675012D01*
G04 #@! TO.N,NPX_2*
X153280000Y-75395000D02*
X158024822Y-75395000D01*
X175892524Y-85950000D02*
X173955024Y-85950000D01*
X173955024Y-85950000D02*
X173830024Y-85825000D01*
X158024822Y-75395000D02*
X168454822Y-85825000D01*
X168454822Y-85825000D02*
X173830024Y-85825000D01*
G04 #@! TO.N,Net-(Q3-Pad1)*
X158000000Y-101175000D02*
X159937500Y-101175000D01*
X159937500Y-101175000D02*
X160062500Y-101050000D01*
X160187011Y-100925489D02*
X163750489Y-100925489D01*
X160062500Y-101050000D02*
X160187011Y-100925489D01*
X163750489Y-100925489D02*
X164000000Y-101175000D01*
G04 #@! TO.N,Net-(Q4-Pad1)*
X158000000Y-96825000D02*
X158275000Y-96825000D01*
X164012500Y-99000000D02*
X158000000Y-99000000D01*
X161100000Y-94000000D02*
X166900000Y-94000000D01*
X158000000Y-99000000D02*
X158000000Y-96825000D01*
X166062500Y-101050000D02*
X164012500Y-99000000D01*
X158275000Y-96825000D02*
X161100000Y-94000000D01*
G04 #@! TO.N,Net-(Q4-Pad3)*
X164825000Y-102000000D02*
X167937500Y-102000000D01*
X164000000Y-102825000D02*
X164825000Y-102000000D01*
G04 #@! TO.N,WG_D0*
X112937500Y-71830000D02*
X114875000Y-71830000D01*
X136280000Y-75395000D02*
X124395000Y-75395000D01*
X124395000Y-75395000D02*
X120955000Y-71955000D01*
X120955000Y-71955000D02*
X115000000Y-71955000D01*
X114875000Y-71830000D02*
X115000000Y-71955000D01*
G04 #@! TO.N,WG_D1*
X115000000Y-76955000D02*
X113062500Y-76955000D01*
X136280000Y-76665000D02*
X115290000Y-76665000D01*
X115290000Y-76665000D02*
X115000000Y-76955000D01*
X113062500Y-76955000D02*
X112937500Y-76830000D01*
G04 #@! TO.N,Net-(Q7-Pad1)*
X174950000Y-101050000D02*
X176000000Y-100000000D01*
X176825000Y-100000000D02*
X178000000Y-101175000D01*
X172000000Y-101175000D02*
X173937500Y-101175000D01*
X174062500Y-101050000D02*
X174950000Y-101050000D01*
X176000000Y-100000000D02*
X176825000Y-100000000D01*
X173937500Y-101175000D02*
X174062500Y-101050000D01*
G04 #@! TO.N,TXDO_NFC*
X121550490Y-59550490D02*
X119697500Y-57697500D01*
X113062500Y-57697500D02*
X112937500Y-57572500D01*
X115000000Y-57697500D02*
X113062500Y-57697500D01*
X119275499Y-68300099D02*
X119275499Y-67699901D01*
X136280000Y-72855000D02*
X123830400Y-72855000D01*
X119697500Y-57697500D02*
X115000000Y-57697500D01*
X119275499Y-67699901D02*
X121550490Y-65424910D01*
X123830400Y-72855000D02*
X119275499Y-68300099D01*
X121550490Y-65424910D02*
X121550490Y-59550490D01*
G04 #@! TO.N,RXDI_NFC*
X118000000Y-65697500D02*
X115000000Y-62697500D01*
X118000000Y-67660304D02*
X118000000Y-65697500D01*
X124464696Y-74125000D02*
X118000000Y-67660304D01*
X136280000Y-74125000D02*
X124464696Y-74125000D01*
X113062500Y-62697500D02*
X112937500Y-62572500D01*
X115000000Y-62697500D02*
X113062500Y-62697500D01*
G04 #@! TO.N,Net-(Q10-Pad1)*
X172000000Y-96825000D02*
X172275000Y-96825000D01*
X180062500Y-101050000D02*
X181950000Y-101050000D01*
X181950000Y-101050000D02*
X184000000Y-99000000D01*
X184000000Y-97100000D02*
X180900000Y-94000000D01*
X172275000Y-96825000D02*
X175100000Y-94000000D01*
X175100000Y-94000000D02*
X180900000Y-94000000D01*
X184000000Y-99000000D02*
X184000000Y-97100000D01*
G04 #@! TO.N,Net-(Q10-Pad3)*
X178000000Y-102825000D02*
X178825000Y-102000000D01*
X178825000Y-102000000D02*
X181937500Y-102000000D01*
G04 #@! TO.N,SDA_DISP*
X175937500Y-64647256D02*
X176062500Y-64772256D01*
X174000000Y-64647256D02*
X175937500Y-64647256D01*
X163495000Y-66505000D02*
X153280000Y-66505000D01*
X174000000Y-64647256D02*
X165352744Y-64647256D01*
X165352744Y-64647256D02*
X163495000Y-66505000D01*
G04 #@! TO.N,SCL_DISP*
X164805000Y-62695000D02*
X153280000Y-62695000D01*
X167500000Y-60000000D02*
X164805000Y-62695000D01*
X176000000Y-59950000D02*
X174075000Y-59950000D01*
X174075000Y-59950000D02*
X174000000Y-59875000D01*
X174000000Y-59875000D02*
X171125000Y-59875000D01*
X171125000Y-59875000D02*
X171000000Y-60000000D01*
D51*
G04 #@! TO.N,Net-(R2-Pad1)*
X113000000Y-94828775D02*
X116778276Y-91050499D01*
X119221724Y-91050499D02*
X122000000Y-93828775D01*
X122000000Y-93828775D02*
X122000000Y-95950000D01*
X116778276Y-91050499D02*
X119221724Y-91050499D01*
X113000000Y-95900000D02*
X113000000Y-94828775D01*
D46*
G04 #@! TO.N,Net-(R3-Pad2)*
X112745000Y-100175000D02*
X118000000Y-100175000D01*
X110720000Y-102200000D02*
X112745000Y-100175000D01*
X118000000Y-100175000D02*
X118000000Y-97825000D01*
G04 #@! TO.N,ADC_VIN*
X130675000Y-67254176D02*
X131474520Y-68053696D01*
X131474520Y-68053696D02*
X136001304Y-68053696D01*
X136001304Y-68053696D02*
X136280000Y-67775000D01*
X129325000Y-67254176D02*
X130675000Y-67254176D01*
G04 #@! TO.N,ADC_VBATT*
X136050499Y-66275499D02*
X136280000Y-66505000D01*
X129335350Y-65500000D02*
X130685350Y-65500000D01*
X130685350Y-65500000D02*
X131484870Y-66299520D01*
X131484870Y-66299520D02*
X133675880Y-66299520D01*
X133699901Y-66275499D02*
X136050499Y-66275499D01*
X133675880Y-66299520D02*
X133699901Y-66275499D01*
G04 #@! TO.N,ADC_V5*
X129335350Y-68980000D02*
X130665350Y-68980000D01*
X130685350Y-69000000D02*
X131484870Y-69799520D01*
X134696458Y-69799520D02*
X135450978Y-69045000D01*
X130665350Y-68980000D02*
X130685350Y-69000000D01*
X135450978Y-69045000D02*
X136280000Y-69045000D01*
X131484870Y-69799520D02*
X134696458Y-69799520D01*
G04 #@! TO.N,ADC_V3*
X129353685Y-70768152D02*
X130703685Y-70768152D01*
X133800099Y-71724501D02*
X135209600Y-70315000D01*
X130703685Y-70768152D02*
X131660034Y-71724501D01*
X131660034Y-71724501D02*
X133800099Y-71724501D01*
X135209600Y-70315000D02*
X136280000Y-70315000D01*
G04 #@! TO.N,OPEN_1*
X156595000Y-95175000D02*
X158000000Y-95175000D01*
X140335000Y-77665000D02*
X140335000Y-78915000D01*
X140335000Y-78915000D02*
X156595000Y-95175000D01*
G04 #@! TO.N,OPEN_2*
X169500000Y-86500000D02*
X168000000Y-86500000D01*
X172000000Y-89000000D02*
X169500000Y-86500000D01*
X159165000Y-77665000D02*
X150495000Y-77665000D01*
X168000000Y-86500000D02*
X159165000Y-77665000D01*
X172000000Y-95175000D02*
X172000000Y-89000000D01*
G04 #@! TO.N,Net-(D3-Pad1)*
X135000000Y-128825000D02*
X135000000Y-130337102D01*
X135000000Y-130337102D02*
X135010631Y-130347733D01*
G04 #@! TO.N,Net-(D4-Pad1)*
X137574391Y-128838549D02*
X137574391Y-130341493D01*
X137574391Y-130341493D02*
X137580631Y-130347733D01*
G04 #@! TO.N,Net-(D7-Pad1)*
X140108134Y-128879198D02*
X140108134Y-130370701D01*
X140108134Y-130370701D02*
X140121683Y-130384250D01*
G04 #@! TO.N,Net-(D8-Pad1)*
X142628327Y-130342417D02*
X142641877Y-130355967D01*
X142628327Y-128852099D02*
X142628327Y-130342417D01*
G04 #@! TD*
M02*
