M48
; DRILL file {KiCad 6.0.6-3a73a75311~116~ubuntu22.04.1} date Fri Jul  1 17:35:29 2022
; FORMAT={-:-/ absolute / metric / decimal}
; #@! TF.CreationDate,2022-07-01T17:35:29+01:00
; #@! TF.GenerationSoftware,Kicad,Pcbnew,6.0.6-3a73a75311~116~ubuntu22.04.1
; #@! TF.FileFunction,MixedPlating,1,4
FMAT,2
METRIC
; #@! TA.AperFunction,Plated,PTH,ViaDrill
T1C0.400
; #@! TA.AperFunction,Plated,PTH,ComponentDrill
T2C0.762
; #@! TA.AperFunction,Plated,PTH,ComponentDrill
T3C0.800
; #@! TA.AperFunction,Plated,PTH,ComponentDrill
T4C1.000
; #@! TA.AperFunction,Plated,PTH,ComponentDrill
T5C1.100
; #@! TA.AperFunction,Plated,PTH,ViaDrill
T6C1.200
; #@! TA.AperFunction,Plated,PTH,ComponentDrill
T7C1.300
; #@! TA.AperFunction,Plated,PTH,ViaDrill
T8C1.500
; #@! TA.AperFunction,Plated,PTH,ViaDrill
T9C2.500
; #@! TA.AperFunction,NonPlated,NPTH,ComponentDrill
T10C1.100
; #@! TA.AperFunction,NonPlated,NPTH,ComponentDrill
T11C2.700
; #@! TA.AperFunction,NonPlated,NPTH,ComponentDrill
T12C3.200
%
G90
G05
T1
X63.0Y-82.5
X65.0Y-68.0
X66.5Y-56.0
X70.5Y-97.5
X72.0Y-68.0
X72.5Y-60.0
X72.5Y-73.5
X73.0Y-78.775
X74.0Y-52.0
X74.0Y-67.5
X77.0Y-65.5
X79.5Y-72.0
X80.0Y-60.0
X80.5Y-61.5
X85.5Y-65.0
X85.512Y-70.524
X86.0Y-67.0
X86.0Y-69.0
X90.0Y-62.5
X90.0Y-71.5
X90.0Y-88.0
X91.0Y-75.5
X91.0Y-79.5
X94.275Y-106.512
X94.5Y-79.5
X95.0Y-102.0
X103.0Y-61.0
X113.0Y-60.0
X116.0Y-61.5
X116.5Y-59.0
X119.5Y-60.0
X122.0Y-89.0
X123.0Y-60.0
X126.0Y-57.0
X126.0Y-61.5
X126.0Y-70.5
X126.0Y-83.0
T2
X86.856Y-110.396
X86.856Y-112.936
X86.856Y-121.064
X86.856Y-123.604
X105.398Y-110.396
X105.398Y-112.936
X105.398Y-121.064
X105.398Y-123.604
T3
X57.5Y-93.47
X57.5Y-96.01
X57.5Y-98.55
T4
X87.032Y-140.138
X89.572Y-140.138
X92.112Y-140.138
X94.652Y-140.138
X97.192Y-140.138
X99.732Y-140.138
X102.272Y-140.138
X104.812Y-140.138
X116.0Y-70.5
X116.0Y-73.04
X116.0Y-75.58
X116.0Y-78.12
X118.54Y-70.5
X118.54Y-73.04
X118.54Y-75.58
X118.54Y-78.12
X123.0Y-53.0
X125.54Y-53.0
X128.08Y-53.0
X130.62Y-53.0
X133.16Y-53.0
X135.7Y-53.0
T5
X53.0Y-57.185
X53.0Y-59.725
X53.0Y-62.265
X53.0Y-64.805
X53.0Y-71.185
X53.0Y-73.725
X53.0Y-76.265
X53.0Y-78.805
X53.0Y-85.0
X53.0Y-87.54
X62.23Y-140.5
X64.77Y-140.5
X76.5Y-140.0
X79.04Y-140.0
X113.46Y-140.0
X116.0Y-140.0
X118.54Y-140.0
X127.46Y-140.0
X130.0Y-140.0
X132.54Y-140.0
X140.0Y-71.46
X140.0Y-74.0
X140.0Y-76.54
X140.0Y-82.92
X140.0Y-85.46
X140.0Y-88.0
X140.107Y-57.808
X140.107Y-60.348
X140.107Y-62.888
X140.107Y-65.428
T6
X76.5Y-103.0
X100.0Y-103.5
X110.5Y-105.0
X124.0Y-105.0
T7
X63.0Y-106.75
X63.0Y-129.25
X77.5Y-106.75
X77.5Y-129.25
X116.0Y-106.75
X116.0Y-129.25
X130.0Y-106.75
X130.0Y-129.25
T8
X120.0Y-105.0
X134.0Y-105.0
T9
X82.5Y-102.5
T10
X50.46Y-85.0
X50.46Y-87.54
X62.23Y-143.04
X64.77Y-143.04
X76.5Y-142.54
X79.04Y-142.54
X113.46Y-142.54
X116.0Y-142.54
X118.54Y-142.54
X127.46Y-142.54
X130.0Y-142.54
X132.54Y-142.54
X142.54Y-71.46
X142.54Y-74.0
X142.54Y-76.54
X142.54Y-82.92
X142.54Y-85.46
X142.54Y-88.0
T11
X63.0Y-118.0
X77.5Y-118.0
X116.0Y-118.0
X130.0Y-118.0
T12
X50.0Y-50.0
X50.0Y-143.0
X143.0Y-50.0
X143.0Y-143.0
T0
M30
