G04 #@! TF.GenerationSoftware,KiCad,Pcbnew,6.0.6-3a73a75311~116~ubuntu22.04.1*
G04 #@! TF.CreationDate,2022-06-27T17:47:04+01:00*
G04 #@! TF.ProjectId,rLab_Door,724c6162-5f44-46f6-9f72-2e6b69636164,rev?*
G04 #@! TF.SameCoordinates,Original*
G04 #@! TF.FileFunction,Soldermask,Top*
G04 #@! TF.FilePolarity,Negative*
%FSLAX46Y46*%
G04 Gerber Fmt 4.6, Leading zero omitted, Abs format (unit mm)*
G04 Created by KiCad (PCBNEW 6.0.6-3a73a75311~116~ubuntu22.04.1) date 2022-06-27 17:47:04*
%MOMM*%
%LPD*%
G01*
G04 APERTURE LIST*
G04 Aperture macros list*
%AMRoundRect*
0 Rectangle with rounded corners*
0 $1 Rounding radius*
0 $2 $3 $4 $5 $6 $7 $8 $9 X,Y pos of 4 corners*
0 Add a 4 corners polygon primitive as box body*
4,1,4,$2,$3,$4,$5,$6,$7,$8,$9,$2,$3,0*
0 Add four circle primitives for the rounded corners*
1,1,$1+$1,$2,$3*
1,1,$1+$1,$4,$5*
1,1,$1+$1,$6,$7*
1,1,$1+$1,$8,$9*
0 Add four rect primitives between the rounded corners*
20,1,$1+$1,$2,$3,$4,$5,0*
20,1,$1+$1,$4,$5,$6,$7,0*
20,1,$1+$1,$6,$7,$8,$9,0*
20,1,$1+$1,$8,$9,$2,$3,0*%
G04 Aperture macros list end*
%ADD10R,1.700000X1.700000*%
%ADD11O,1.700000X1.700000*%
%ADD12RoundRect,0.200000X-0.200000X-0.275000X0.200000X-0.275000X0.200000X0.275000X-0.200000X0.275000X0*%
%ADD13RoundRect,0.218750X-0.256250X0.218750X-0.256250X-0.218750X0.256250X-0.218750X0.256250X0.218750X0*%
%ADD14RoundRect,0.200000X0.200000X0.275000X-0.200000X0.275000X-0.200000X-0.275000X0.200000X-0.275000X0*%
%ADD15RoundRect,0.150000X-0.587500X-0.150000X0.587500X-0.150000X0.587500X0.150000X-0.587500X0.150000X0*%
%ADD16C,0.800000*%
%ADD17C,6.400000*%
%ADD18RoundRect,0.250000X-0.450000X-0.425000X0.450000X-0.425000X0.450000X0.425000X-0.450000X0.425000X0*%
%ADD19RoundRect,0.200000X0.275000X-0.200000X0.275000X0.200000X-0.275000X0.200000X-0.275000X-0.200000X0*%
%ADD20RoundRect,0.249999X-1.425001X0.450001X-1.425001X-0.450001X1.425001X-0.450001X1.425001X0.450001X0*%
%ADD21RoundRect,0.150000X0.587500X0.150000X-0.587500X0.150000X-0.587500X-0.150000X0.587500X-0.150000X0*%
%ADD22C,2.700000*%
%ADD23C,3.000000*%
%ADD24RoundRect,0.200000X-0.275000X0.200000X-0.275000X-0.200000X0.275000X-0.200000X0.275000X0.200000X0*%
%ADD25RoundRect,0.250000X0.650000X-0.325000X0.650000X0.325000X-0.650000X0.325000X-0.650000X-0.325000X0*%
%ADD26C,1.100000*%
%ADD27R,2.200000X2.200000*%
%ADD28C,2.200000*%
%ADD29RoundRect,0.250000X0.600000X0.600000X-0.600000X0.600000X-0.600000X-0.600000X0.600000X-0.600000X0*%
%ADD30C,1.700000*%
%ADD31R,2.800000X1.000000*%
%ADD32R,1.200000X2.200000*%
%ADD33R,5.800000X6.400000*%
%ADD34R,1.800000X2.500000*%
%ADD35C,1.524000*%
%ADD36RoundRect,0.225000X0.225000X0.250000X-0.225000X0.250000X-0.225000X-0.250000X0.225000X-0.250000X0*%
%ADD37R,1.500000X2.000000*%
%ADD38R,3.800000X2.000000*%
%ADD39R,1.000000X2.800000*%
%ADD40R,2.000000X0.900000*%
%ADD41R,0.900000X2.000000*%
%ADD42R,5.000000X5.000000*%
%ADD43RoundRect,0.225000X0.250000X-0.225000X0.250000X0.225000X-0.250000X0.225000X-0.250000X-0.225000X0*%
G04 APERTURE END LIST*
D10*
G04 #@! TO.C,J11*
X171000000Y-53000000D03*
D11*
X173540000Y-53000000D03*
X176080000Y-53000000D03*
X178620000Y-53000000D03*
X181160000Y-53000000D03*
X183700000Y-53000000D03*
G04 #@! TD*
D12*
G04 #@! TO.C,R12*
X130675000Y-67254176D03*
X132325000Y-67254176D03*
G04 #@! TD*
D13*
G04 #@! TO.C,D6*
X147722911Y-130369516D03*
X147722911Y-131944516D03*
G04 #@! TD*
D14*
G04 #@! TO.C,R35*
X112825000Y-66522500D03*
X111175000Y-66522500D03*
G04 #@! TD*
D15*
G04 #@! TO.C,Q3*
X160062500Y-101050000D03*
X160062500Y-102950000D03*
X161937500Y-102000000D03*
G04 #@! TD*
D16*
G04 #@! TO.C,REF\u002A\u002A*
X192400000Y-51000000D03*
X190000000Y-48600000D03*
X188302944Y-49302944D03*
X190000000Y-53400000D03*
X191697056Y-49302944D03*
D17*
X190000000Y-51000000D03*
D16*
X187600000Y-51000000D03*
X188302944Y-52697056D03*
X191697056Y-52697056D03*
G04 #@! TD*
D18*
G04 #@! TO.C,C2*
X145357332Y-101065037D03*
X148057332Y-101065037D03*
G04 #@! TD*
D19*
G04 #@! TO.C,R1*
X115000000Y-81825000D03*
X115000000Y-80175000D03*
G04 #@! TD*
G04 #@! TO.C,R9*
X137574391Y-128838549D03*
X137574391Y-127188549D03*
G04 #@! TD*
G04 #@! TO.C,R4*
X118000000Y-97825000D03*
X118000000Y-96175000D03*
G04 #@! TD*
D14*
G04 #@! TO.C,R16*
X129353685Y-70768152D03*
X127703685Y-70768152D03*
G04 #@! TD*
D20*
G04 #@! TO.C,R2*
X122000000Y-95950000D03*
X122000000Y-102050000D03*
G04 #@! TD*
D13*
G04 #@! TO.C,D4*
X137580631Y-130347733D03*
X137580631Y-131922733D03*
G04 #@! TD*
D14*
G04 #@! TO.C,R14*
X129335350Y-68980000D03*
X127685350Y-68980000D03*
G04 #@! TD*
D19*
G04 #@! TO.C,R7*
X135000000Y-128825000D03*
X135000000Y-127175000D03*
G04 #@! TD*
D21*
G04 #@! TO.C,Q5*
X112937500Y-73730000D03*
X112937500Y-71830000D03*
X111062500Y-72780000D03*
G04 #@! TD*
D13*
G04 #@! TO.C,D8*
X142641877Y-130355967D03*
X142641877Y-131930967D03*
G04 #@! TD*
D21*
G04 #@! TO.C,Q9*
X112937500Y-64472500D03*
X112937500Y-62572500D03*
X111062500Y-63522500D03*
G04 #@! TD*
D12*
G04 #@! TO.C,R22*
X176237500Y-75850012D03*
X177887500Y-75850012D03*
G04 #@! TD*
D19*
G04 #@! TO.C,R29*
X115000000Y-78605000D03*
X115000000Y-76955000D03*
G04 #@! TD*
D22*
G04 #@! TO.C,F1*
X111000000Y-118000000D03*
D23*
X111000000Y-106750000D03*
X111000000Y-129250000D03*
G04 #@! TD*
D17*
G04 #@! TO.C,REF\u002A\u002A*
X190000000Y-142000000D03*
D16*
X191697056Y-140302944D03*
X190000000Y-144400000D03*
X190000000Y-139600000D03*
X188302944Y-140302944D03*
X191697056Y-143697056D03*
X188302944Y-143697056D03*
X192400000Y-142000000D03*
X187600000Y-142000000D03*
G04 #@! TD*
D24*
G04 #@! TO.C,R21*
X174062500Y-72025012D03*
X174062500Y-73675012D03*
G04 #@! TD*
D25*
G04 #@! TO.C,C3*
X129940000Y-62820000D03*
X129940000Y-59870000D03*
G04 #@! TD*
D22*
G04 #@! TO.C,F2*
X125000000Y-118000000D03*
D23*
X125000000Y-106750000D03*
X125000000Y-129250000D03*
G04 #@! TD*
D15*
G04 #@! TO.C,Q11*
X176062500Y-62872256D03*
X176062500Y-64772256D03*
X177937500Y-63822256D03*
G04 #@! TD*
D26*
G04 #@! TO.C,J4*
X124000000Y-142540000D03*
X126540000Y-142540000D03*
D27*
X124000000Y-140000000D03*
D28*
X126540000Y-140000000D03*
G04 #@! TD*
D19*
G04 #@! TO.C,R5*
X133620000Y-62645000D03*
X133620000Y-60995000D03*
G04 #@! TD*
D26*
G04 #@! TO.C,J7*
X98460000Y-87540000D03*
X98460000Y-85000000D03*
D27*
X101000000Y-85000000D03*
D28*
X101000000Y-87540000D03*
G04 #@! TD*
D27*
G04 #@! TO.C,J8*
X101000000Y-71185000D03*
D28*
X101000000Y-73725000D03*
X101000000Y-76265000D03*
X101000000Y-78805000D03*
G04 #@! TD*
D26*
G04 #@! TO.C,J2*
X112540000Y-142540000D03*
X110000000Y-142540000D03*
D27*
X110000000Y-140000000D03*
D28*
X112540000Y-140000000D03*
G04 #@! TD*
D29*
G04 #@! TO.C,J12*
X166540000Y-78080000D03*
D30*
X164000000Y-78080000D03*
X166540000Y-75540000D03*
X164000000Y-75540000D03*
X166540000Y-73000000D03*
X164000000Y-73000000D03*
X166540000Y-70460000D03*
X164000000Y-70460000D03*
G04 #@! TD*
D31*
G04 #@! TO.C,SW3*
X175100000Y-94000000D03*
X180900000Y-94000000D03*
X180900000Y-98000000D03*
X175100000Y-98000000D03*
G04 #@! TD*
D32*
G04 #@! TO.C,U2*
X110720000Y-102200000D03*
D33*
X113000000Y-95900000D03*
D32*
X115280000Y-102200000D03*
G04 #@! TD*
D15*
G04 #@! TO.C,Q1*
X176125000Y-71900012D03*
X176125000Y-73800012D03*
X178000000Y-72850012D03*
G04 #@! TD*
D17*
G04 #@! TO.C,REF\u002A\u002A*
X99000000Y-142000000D03*
D16*
X100697056Y-140302944D03*
X101400000Y-142000000D03*
X100697056Y-143697056D03*
X97302944Y-143697056D03*
X96600000Y-142000000D03*
X99000000Y-139600000D03*
X97302944Y-140302944D03*
X99000000Y-144400000D03*
G04 #@! TD*
G04 #@! TO.C,REF\u002A\u002A*
X99000000Y-53400000D03*
X101400000Y-51000000D03*
D17*
X99000000Y-51000000D03*
D16*
X96600000Y-51000000D03*
X97302944Y-52697056D03*
X100697056Y-49302944D03*
X97302944Y-49302944D03*
X100697056Y-52697056D03*
X99000000Y-48600000D03*
G04 #@! TD*
D19*
G04 #@! TO.C,R11*
X147722911Y-128865648D03*
X147722911Y-127215648D03*
G04 #@! TD*
G04 #@! TO.C,R15*
X140108134Y-128879198D03*
X140108134Y-127229198D03*
G04 #@! TD*
D26*
G04 #@! TO.C,J1*
X161460000Y-142540000D03*
X164000000Y-142540000D03*
X166540000Y-142540000D03*
D27*
X161460000Y-140000000D03*
D28*
X164000000Y-140000000D03*
X166540000Y-140000000D03*
G04 #@! TD*
D13*
G04 #@! TO.C,D3*
X135010631Y-130347733D03*
X135010631Y-131922733D03*
G04 #@! TD*
D12*
G04 #@! TO.C,R39*
X176175000Y-66822256D03*
X177825000Y-66822256D03*
G04 #@! TD*
G04 #@! TO.C,R24*
X176005024Y-88000000D03*
X177655024Y-88000000D03*
G04 #@! TD*
D24*
G04 #@! TO.C,R25*
X164000000Y-101175000D03*
X164000000Y-102825000D03*
G04 #@! TD*
D12*
G04 #@! TO.C,R41*
X176545024Y-56000000D03*
X178195024Y-56000000D03*
G04 #@! TD*
D15*
G04 #@! TO.C,Q10*
X180062500Y-101050000D03*
X180062500Y-102950000D03*
X181937500Y-102000000D03*
G04 #@! TD*
D22*
G04 #@! TO.C,F4*
X178000000Y-118000000D03*
D23*
X178000000Y-129250000D03*
X178000000Y-106750000D03*
G04 #@! TD*
D34*
G04 #@! TO.C,D2*
X128000000Y-102000000D03*
X128000000Y-98000000D03*
G04 #@! TD*
D19*
G04 #@! TO.C,R32*
X115000000Y-59347500D03*
X115000000Y-57697500D03*
G04 #@! TD*
D21*
G04 #@! TO.C,Q6*
X112937500Y-78730000D03*
X112937500Y-76830000D03*
X111062500Y-77780000D03*
G04 #@! TD*
D13*
G04 #@! TO.C,D5*
X145202718Y-130355967D03*
X145202718Y-131930967D03*
G04 #@! TD*
D15*
G04 #@! TO.C,Q4*
X166062500Y-101050000D03*
X166062500Y-102950000D03*
X167937500Y-102000000D03*
G04 #@! TD*
D14*
G04 #@! TO.C,R8*
X129335350Y-65500000D03*
X127685350Y-65500000D03*
G04 #@! TD*
D19*
G04 #@! TO.C,R31*
X172000000Y-102825000D03*
X172000000Y-101175000D03*
G04 #@! TD*
D14*
G04 #@! TO.C,R28*
X112825000Y-69780000D03*
X111175000Y-69780000D03*
G04 #@! TD*
D27*
G04 #@! TO.C,J10*
X188107476Y-65427740D03*
D28*
X188107476Y-62887740D03*
X188107476Y-60347740D03*
X188107476Y-57807740D03*
G04 #@! TD*
D24*
G04 #@! TO.C,R38*
X174000000Y-62997256D03*
X174000000Y-64647256D03*
G04 #@! TD*
D26*
G04 #@! TO.C,J3*
X180540000Y-142540000D03*
X178000000Y-142540000D03*
X175460000Y-142540000D03*
D27*
X175460000Y-140000000D03*
D28*
X178000000Y-140000000D03*
X180540000Y-140000000D03*
G04 #@! TD*
D35*
G04 #@! TO.C,U1*
X134856000Y-112936000D03*
X134856000Y-110396000D03*
X134856000Y-121064000D03*
X134856000Y-123604000D03*
X153398000Y-112936000D03*
X153398000Y-110396000D03*
X153398000Y-123604000D03*
X153398000Y-121064000D03*
G04 #@! TD*
D24*
G04 #@! TO.C,R37*
X172000000Y-95175000D03*
X172000000Y-96825000D03*
G04 #@! TD*
D19*
G04 #@! TO.C,R17*
X142628327Y-128852099D03*
X142628327Y-127202099D03*
G04 #@! TD*
D15*
G04 #@! TO.C,Q7*
X174062500Y-101050000D03*
X174062500Y-102950000D03*
X175937500Y-102000000D03*
G04 #@! TD*
D34*
G04 #@! TO.C,D1*
X107000000Y-102000000D03*
X107000000Y-98000000D03*
G04 #@! TD*
D36*
G04 #@! TO.C,C5*
X126775000Y-60000000D03*
X125225000Y-60000000D03*
G04 #@! TD*
D19*
G04 #@! TO.C,R3*
X118000000Y-101825000D03*
X118000000Y-100175000D03*
G04 #@! TD*
D24*
G04 #@! TO.C,R36*
X178000000Y-101175000D03*
X178000000Y-102825000D03*
G04 #@! TD*
D13*
G04 #@! TO.C,D7*
X140121683Y-130384250D03*
X140121683Y-131959250D03*
G04 #@! TD*
D24*
G04 #@! TO.C,R40*
X174000000Y-58225000D03*
X174000000Y-59875000D03*
G04 #@! TD*
D37*
G04 #@! TO.C,U3*
X135700000Y-106150000D03*
X138000000Y-106150000D03*
D38*
X138000000Y-99850000D03*
D37*
X140300000Y-106150000D03*
G04 #@! TD*
D39*
G04 #@! TO.C,SW4*
X162000000Y-51100000D03*
X162000000Y-56900000D03*
X166000000Y-56900000D03*
X166000000Y-51100000D03*
G04 #@! TD*
D15*
G04 #@! TO.C,Q2*
X175892524Y-84050000D03*
X175892524Y-85950000D03*
X177767524Y-85000000D03*
G04 #@! TD*
D26*
G04 #@! TO.C,J6*
X190540000Y-82920000D03*
X190540000Y-85460000D03*
X190540000Y-88000000D03*
D27*
X188000000Y-88000000D03*
D28*
X188000000Y-85460000D03*
X188000000Y-82920000D03*
G04 #@! TD*
D21*
G04 #@! TO.C,Q8*
X112937500Y-59472500D03*
X112937500Y-57572500D03*
X111062500Y-58522500D03*
G04 #@! TD*
D15*
G04 #@! TO.C,Q12*
X176000000Y-58050000D03*
X176000000Y-59950000D03*
X177875000Y-59000000D03*
G04 #@! TD*
D19*
G04 #@! TO.C,R34*
X115000000Y-64347500D03*
X115000000Y-62697500D03*
G04 #@! TD*
D27*
G04 #@! TO.C,J9*
X101000000Y-57185000D03*
D28*
X101000000Y-59725000D03*
X101000000Y-62265000D03*
X101000000Y-64805000D03*
G04 #@! TD*
D12*
G04 #@! TO.C,R13*
X130685350Y-65500000D03*
X132335350Y-65500000D03*
G04 #@! TD*
D31*
G04 #@! TO.C,SW2*
X166900000Y-94000000D03*
X161100000Y-94000000D03*
X166900000Y-98000000D03*
X161100000Y-98000000D03*
G04 #@! TD*
D12*
G04 #@! TO.C,R30*
X111060989Y-80726816D03*
X112710989Y-80726816D03*
G04 #@! TD*
D14*
G04 #@! TO.C,R6*
X129325000Y-67254176D03*
X127675000Y-67254176D03*
G04 #@! TD*
G04 #@! TO.C,R33*
X112825000Y-55522500D03*
X111175000Y-55522500D03*
G04 #@! TD*
D40*
G04 #@! TO.C,U4*
X136280000Y-60155000D03*
X136280000Y-61425000D03*
X136280000Y-62695000D03*
X136280000Y-63965000D03*
X136280000Y-65235000D03*
X136280000Y-66505000D03*
X136280000Y-67775000D03*
X136280000Y-69045000D03*
X136280000Y-70315000D03*
X136280000Y-71585000D03*
X136280000Y-72855000D03*
X136280000Y-74125000D03*
X136280000Y-75395000D03*
X136280000Y-76665000D03*
D41*
X139065000Y-77665000D03*
X140335000Y-77665000D03*
X141605000Y-77665000D03*
X142875000Y-77665000D03*
X144145000Y-77665000D03*
X145415000Y-77665000D03*
X146685000Y-77665000D03*
X147955000Y-77665000D03*
X149225000Y-77665000D03*
X150495000Y-77665000D03*
D40*
X153280000Y-76665000D03*
X153280000Y-75395000D03*
X153280000Y-74125000D03*
X153280000Y-72855000D03*
X153280000Y-71585000D03*
X153280000Y-70315000D03*
X153280000Y-69045000D03*
X153280000Y-67775000D03*
X153280000Y-66505000D03*
X153280000Y-65235000D03*
X153280000Y-63965000D03*
X153280000Y-62695000D03*
X153280000Y-61425000D03*
X153280000Y-60155000D03*
D42*
X143780000Y-67655000D03*
G04 #@! TD*
D24*
G04 #@! TO.C,R26*
X158000000Y-95175000D03*
X158000000Y-96825000D03*
G04 #@! TD*
D14*
G04 #@! TO.C,R19*
X132353685Y-70768152D03*
X130703685Y-70768152D03*
G04 #@! TD*
D24*
G04 #@! TO.C,R23*
X173830024Y-84175000D03*
X173830024Y-85825000D03*
G04 #@! TD*
D19*
G04 #@! TO.C,R20*
X158000000Y-102825000D03*
X158000000Y-101175000D03*
G04 #@! TD*
D26*
G04 #@! TO.C,J5*
X190540000Y-76540000D03*
X190540000Y-74000000D03*
X190540000Y-71460000D03*
D27*
X188000000Y-76540000D03*
D28*
X188000000Y-74000000D03*
X188000000Y-71460000D03*
G04 #@! TD*
D12*
G04 #@! TO.C,R18*
X130685350Y-69000000D03*
X132335350Y-69000000D03*
G04 #@! TD*
D19*
G04 #@! TO.C,R27*
X115000000Y-73605000D03*
X115000000Y-71955000D03*
G04 #@! TD*
D39*
G04 #@! TO.C,SW1*
X123835000Y-57080000D03*
X123835000Y-51280000D03*
X127835000Y-57080000D03*
X127835000Y-51280000D03*
G04 #@! TD*
D10*
G04 #@! TO.C,J14*
X135031669Y-140137882D03*
D11*
X137571669Y-140137882D03*
X140111669Y-140137882D03*
X142651669Y-140137882D03*
X145191669Y-140137882D03*
X147731669Y-140137882D03*
X150271669Y-140137882D03*
X152811669Y-140137882D03*
G04 #@! TD*
D19*
G04 #@! TO.C,R10*
X145202718Y-128852099D03*
X145202718Y-127202099D03*
G04 #@! TD*
D22*
G04 #@! TO.C,F3*
X164000000Y-118000000D03*
D23*
X164000000Y-129250000D03*
X164000000Y-106750000D03*
G04 #@! TD*
D43*
G04 #@! TO.C,C4*
X131940000Y-61395000D03*
X131940000Y-59845000D03*
G04 #@! TD*
D18*
G04 #@! TO.C,C1*
X145300000Y-106000000D03*
X148000000Y-106000000D03*
G04 #@! TD*
M02*
